<svg width="704" height="285" viewBox="0 0 704 285" fill="none" xmlns="http://www.w3.org/2000/svg">
<g clip-path="url(#clip0_8001_40035)">
<rect width="704" height="285" fill="white" fill-opacity="0.4"/>
<mask id="mask0_8001_40035" style="mask-type:luminance" maskUnits="userSpaceOnUse" x="0" y="0" width="704" height="285">
<path d="M682.88 0H21.12C9.45575 0 0 5.37258 0 12V273C0 279.627 9.45575 285 21.12 285H682.88C694.544 285 704 279.627 704 273V12C704 5.37258 694.544 0 682.88 0Z" fill="white"/>
</mask>
<g mask="url(#mask0_8001_40035)">
<path d="M682.88 0H21.12C9.45575 0 0 5.37258 0 12V273C0 279.627 9.45575 285 21.12 285H682.88C694.544 285 704 279.627 704 273V12C704 5.37258 694.544 0 682.88 0Z" fill="white" fill-opacity="0.3"/>
<g filter="url(#filter0_f_8001_40035)">
<path d="M353 270.854C478.275 270.854 579.83 213.388 579.83 142.5C579.83 71.6125 478.275 14.1465 353 14.1465C227.726 14.1465 126.171 71.6125 126.171 142.5C126.171 213.388 227.726 270.854 353 270.854Z" fill="url(#paint0_linear_8001_40035)" fill-opacity="0.15"/>
</g>
<g opacity="0.6">
<path d="M217.5 24.5527V260.447" stroke="#F8F7FB"/>
<path d="M271.3 24.5527V260.447" stroke="#F8F7FB"/>
<path d="M325.1 24.5527V260.447" stroke="#F8F7FB"/>
<path d="M378.9 24.5527V260.447" stroke="#F8F7FB"/>
<path d="M432.7 24.5527V260.447" stroke="#F8F7FB"/>
<path d="M486.5 24.5527V260.447" stroke="#F8F7FB"/>
<path d="M469.947 8.00001L234.053 8" stroke="#F8F7FB"/>
<path d="M469.947 61.7998H234.053" stroke="#F8F7FB"/>
<path d="M469.947 115.6H234.053" stroke="#F8F7FB"/>
<path d="M469.947 169.4H234.053" stroke="#F8F7FB"/>
<path d="M469.947 223.2H234.053" stroke="#F8F7FB"/>
<path d="M469.947 277H234.053" stroke="#F8F7FB"/>
</g>
<g filter="url(#filter1_dii_8001_40035)">
<path d="M365.511 115.434H338.49C331.028 115.434 324.979 121.493 324.979 128.967V156.033C324.979 163.507 331.028 169.566 338.49 169.566H365.511C372.973 169.566 379.022 163.507 379.022 156.033V128.967C379.022 121.493 372.973 115.434 365.511 115.434Z" fill="#266AE9"/>
<path d="M365.507 115.997H338.485C331.334 115.997 325.537 121.804 325.537 128.966V156.033C325.537 163.196 331.334 169.002 338.485 169.002H365.507C372.658 169.002 378.455 163.196 378.455 156.033V128.966C378.455 121.804 372.658 115.997 365.507 115.997Z" stroke="#1658D5"/>
<path d="M340.344 143.309C341.039 144.015 341.981 144.46 343.023 144.483C342.63 145.079 342.4 145.797 342.4 146.574C342.4 146.958 342.455 147.324 342.559 147.67C342.281 147.791 341.974 147.859 341.651 147.859C340.337 147.859 339.267 146.745 339.267 145.377C339.267 144.878 339.41 144.418 339.652 144.031L339.655 144.028C339.926 143.836 340.163 143.59 340.347 143.308L340.344 143.309Z" fill="#F4F4F5"/>
<path d="M348.886 146.568C348.886 148.257 347.568 149.628 345.945 149.628C344.805 149.628 343.812 148.949 343.329 147.953C343.28 147.856 343.237 147.758 343.202 147.654C343.161 147.549 343.129 147.439 343.102 147.328C343.04 147.085 343.009 146.829 343.009 146.568C343.009 145.736 343.329 144.983 343.845 144.432L343.873 144.403C343.965 144.385 344.055 144.363 344.145 144.338C344.243 144.309 344.34 144.277 344.436 144.241C344.882 144.075 345.292 143.831 345.652 143.524C345.749 143.514 345.846 143.507 345.947 143.507C347.57 143.507 348.886 144.879 348.886 146.568Z" fill="#F4F4F5"/>
<path d="M356.722 147.762C356.281 149.286 354.92 150.396 353.314 150.396C351.349 150.396 349.754 148.735 349.754 146.69C349.754 145.493 350.3 144.429 351.147 143.751C351.286 143.769 351.428 143.778 351.57 143.778C352.401 143.778 353.17 143.495 353.79 143.018C354.414 143.101 354.989 143.361 355.47 143.741C355.39 144.056 355.347 144.389 355.347 144.729C355.347 145.949 355.883 147.041 356.724 147.764L356.722 147.762Z" fill="#F4F4F5"/>
<path d="M362.281 144.848C362.219 146.603 360.828 148.013 359.125 148.013C358.499 148.013 357.916 147.825 357.426 147.496C357.328 147.431 357.235 147.365 357.145 147.287C357.048 147.203 356.953 147.116 356.863 147.022C356.307 146.429 355.967 145.622 355.967 144.728C355.967 144.566 355.977 144.409 355.999 144.254C356.019 144.123 356.045 143.99 356.076 143.867C356.104 143.752 356.141 143.638 356.183 143.53C356.339 143.114 356.574 142.741 356.868 142.424C357.396 142.669 357.98 142.807 358.596 142.807C359.42 142.807 360.188 142.561 360.841 142.138C360.946 143.237 361.485 144.203 362.28 144.848H362.281Z" fill="#F4F4F5"/>
<path d="M367.763 141.748C367.763 143.56 366.348 145.037 364.607 145.037C363.978 145.037 363.391 144.845 362.9 144.512C362.783 144.435 362.674 144.352 362.568 144.258C362.425 144.132 362.293 143.991 362.173 143.843L362.17 143.839C361.892 143.491 361.685 143.083 361.565 142.637L361.562 142.633C361.51 142.447 361.479 142.253 361.459 142.054C361.448 141.953 361.447 141.852 361.447 141.748V141.667C361.447 141.667 361.462 141.653 361.469 141.647C362.173 140.981 362.658 140.069 362.806 139.048C363.317 138.676 363.94 138.462 364.607 138.462C366.348 138.462 367.763 139.935 367.763 141.748Z" fill="#F4F4F5"/>
<path d="M349.068 137.523C349.068 137.685 349.048 137.842 349.01 137.994C348.941 138.294 348.804 138.562 348.616 138.787C348.498 138.935 348.355 139.062 348.196 139.167C348.089 139.238 347.976 139.298 347.852 139.341C347.649 139.425 347.429 139.468 347.196 139.468C347.127 139.468 347.061 139.465 346.996 139.458C346.881 139.444 346.773 139.421 346.666 139.387C346.533 139.346 346.411 139.292 346.293 139.224C345.766 138.925 345.396 138.367 345.33 137.718C345.324 137.654 345.32 137.588 345.32 137.52C345.32 137.447 345.324 137.372 345.334 137.302C345.347 137.183 345.37 137.07 345.402 136.962C345.632 136.158 346.349 135.569 347.196 135.569C348.044 135.569 348.791 136.185 349.003 137.023C349.038 137.15 349.058 137.283 349.062 137.42C349.068 137.453 349.068 137.488 349.068 137.521V137.523Z" fill="#F4F4F5"/>
<path d="M362.231 138.382C362.231 138.49 362.228 138.595 362.219 138.7C362.205 138.867 362.178 139.036 362.147 139.196C362.147 139.2 362.144 139.2 362.144 139.2C361.998 139.897 361.666 140.519 361.208 141.011C361.121 141.105 361.029 141.196 360.933 141.276C360.903 141.302 360.875 141.326 360.843 141.349C360.785 141.4 360.726 141.447 360.661 141.49C360.562 141.565 360.455 141.633 360.348 141.696C359.828 141.996 359.231 142.163 358.596 142.163C358.186 142.163 357.788 142.093 357.42 141.959C357.304 141.919 357.191 141.872 357.079 141.818H357.076C356.971 141.767 356.871 141.71 356.774 141.649C356.145 141.269 355.634 140.694 355.317 140.005C355.091 139.514 354.966 138.961 354.966 138.382C354.966 138.33 354.966 138.273 354.966 138.219C355.051 136.211 356.647 134.604 358.594 134.604C360.541 134.604 362.229 136.298 362.229 138.382H362.231Z" fill="#F4F4F5"/>
<path d="M346.459 139.992C346.469 140.106 346.473 140.224 346.473 140.341C346.473 141.357 346.055 142.276 345.385 142.915C345.037 143.252 344.62 143.51 344.157 143.665C344.057 143.701 343.954 143.733 343.848 143.756C343.762 143.776 343.675 143.792 343.589 143.806C343.56 143.81 343.531 143.813 343.498 143.817C343.373 143.832 343.243 143.839 343.115 143.839C342.287 143.839 341.527 143.524 340.94 143.002C340.849 142.924 340.765 142.84 340.683 142.753C340.665 142.736 340.648 142.717 340.637 142.699C340.578 142.635 340.523 142.569 340.471 142.497C340.449 142.467 340.425 142.438 340.404 142.406C340.317 142.283 340.235 142.148 340.164 142.011C339.932 141.57 339.785 141.068 339.757 140.536C339.757 140.473 339.754 140.409 339.754 140.341C339.754 140.247 339.757 140.156 339.764 140.065C339.772 139.938 339.789 139.815 339.811 139.689C340.105 138.068 341.475 136.841 343.115 136.841C343.696 136.841 344.242 136.994 344.72 137.268C344.71 137.352 344.707 137.435 344.707 137.519C344.707 138.68 345.443 139.666 346.459 139.992Z" fill="#F4F4F5"/>
<path d="M354.346 138.387C354.346 139.008 354.469 139.595 354.691 140.13C354.628 141.017 354.218 141.809 353.6 142.356C353.47 142.471 353.332 142.576 353.185 142.666H353.167C353.167 142.666 353.164 142.666 353.164 142.67C352.692 142.966 352.163 143.137 351.57 143.137H351.497C351.322 143.133 351.155 143.114 350.989 143.079C349.539 142.794 348.438 141.465 348.438 139.877C348.438 139.841 348.437 139.808 348.441 139.771C349.186 139.323 349.686 138.485 349.686 137.526C349.686 137.446 349.685 137.362 349.675 137.282C350.201 136.864 350.86 136.616 351.57 136.616C352.776 136.616 353.823 137.329 354.346 138.371V138.387Z" fill="#F4F4F5"/>
<path d="M339.131 140.343C339.131 141.265 339.423 142.116 339.914 142.802C339.907 142.816 339.898 142.829 339.888 142.843C339.722 143.135 339.487 143.378 339.21 143.548C338.915 143.737 338.569 143.841 338.2 143.841C337.119 143.841 336.236 142.924 336.236 141.793C336.236 140.662 337.119 139.745 338.2 139.745C338.543 139.745 338.866 139.836 339.148 140.001C339.134 140.115 339.131 140.23 339.131 140.343Z" fill="#F4F4F5"/>
</g>
<path d="M285.599 33.9336H209.599C205.456 33.9336 202.099 37.2915 202.099 41.4336V107.434C202.099 111.576 205.456 114.934 209.599 114.934H285.599C289.741 114.934 293.099 111.576 293.099 107.434V41.4336C293.099 37.2915 289.741 33.9336 285.599 33.9336Z" fill="white" fill-opacity="0.4"/>
<path d="M285.599 33.9336H209.599C205.456 33.9336 202.099 37.2915 202.099 41.4336V107.434C202.099 111.576 205.456 114.934 209.599 114.934H285.599C289.741 114.934 293.099 111.576 293.099 107.434V41.4336C293.099 37.2915 289.741 33.9336 285.599 33.9336Z" stroke="url(#paint1_linear_8001_40035)"/>
<path d="M231.599 39.4336H211.599C209.389 39.4336 207.599 41.2245 207.599 43.4336V63.4336C207.599 65.6427 209.389 67.4336 211.599 67.4336H231.599C233.808 67.4336 235.599 65.6427 235.599 63.4336V43.4336C235.599 41.2245 233.808 39.4336 231.599 39.4336Z" fill="white"/>
<path d="M215.999 51.4336H227.199M215.999 55.4336H227.199M221.265 47.4336C220.142 49.2333 219.547 51.3122 219.547 53.4336C219.547 55.555 220.142 57.6339 221.265 59.4336M221.932 47.4336C223.055 49.2333 223.651 51.3122 223.651 53.4336C223.651 55.555 223.055 57.6339 221.932 59.4336M215.599 53.4336C215.599 54.2215 215.754 55.0017 216.055 55.7297C216.357 56.4576 216.799 57.1191 217.356 57.6762C217.913 58.2334 218.575 58.6753 219.303 58.9769C220.031 59.2784 220.811 59.4336 221.599 59.4336C222.387 59.4336 223.167 59.2784 223.895 58.9769C224.623 58.6753 225.284 58.2334 225.841 57.6762C226.398 57.1191 226.84 56.4576 227.142 55.7297C227.443 55.0017 227.599 54.2215 227.599 53.4336C227.599 51.8423 226.967 50.3162 225.841 49.191C224.716 48.0657 223.19 47.4336 221.599 47.4336C220.007 47.4336 218.481 48.0657 217.356 49.191C216.231 50.3162 215.599 51.8423 215.599 53.4336Z" stroke="#27272A" stroke-linecap="round" stroke-linejoin="round"/>
<path d="M215.194 80.5539C214.89 79.9539 214.486 79.5139 213.982 79.2339C213.478 78.9459 212.918 78.8019 212.302 78.8019C211.694 78.8019 211.146 78.9419 210.658 79.2219C210.17 79.5019 209.786 79.8979 209.506 80.4099C209.226 80.9219 209.086 81.5299 209.086 82.2339C209.086 82.9299 209.226 83.5339 209.506 84.0459C209.786 84.5579 210.17 84.9539 210.658 85.2339C211.146 85.5139 211.694 85.6539 212.302 85.6539C212.758 85.6539 213.182 85.5779 213.574 85.4259C213.966 85.2659 214.306 85.0419 214.594 84.7539C214.882 84.4579 215.102 84.1059 215.254 83.6979V82.7259H212.374V81.9459H216.226V83.7459C216.042 84.2819 215.762 84.7579 215.386 85.1739C215.01 85.5899 214.558 85.9179 214.03 86.1579C213.502 86.3979 212.926 86.5179 212.302 86.5179C211.71 86.5179 211.158 86.4139 210.646 86.2059C210.142 85.9979 209.698 85.7059 209.314 85.3299C208.938 84.9459 208.642 84.4939 208.426 83.9739C208.218 83.4459 208.114 82.8659 208.114 82.2339C208.114 81.6019 208.218 81.0259 208.426 80.5059C208.642 79.9779 208.938 79.5259 209.314 79.1499C209.698 78.7659 210.142 78.4699 210.646 78.2619C211.158 78.0539 211.71 77.9499 212.302 77.9499C212.854 77.9499 213.37 78.0419 213.85 78.2259C214.338 78.4019 214.77 78.6619 215.146 79.0059C215.522 79.3419 215.818 79.7539 216.034 80.2419L215.194 80.5539ZM217.757 77.7939H218.657V86.4339H217.757V77.7939ZM223.079 86.5179C222.511 86.5179 222.003 86.3939 221.555 86.1459C221.107 85.8979 220.755 85.5459 220.499 85.0899C220.243 84.6259 220.115 84.0779 220.115 83.4459C220.115 82.8059 220.243 82.2539 220.499 81.7899C220.763 81.3259 221.119 80.9699 221.567 80.7219C222.023 80.4739 222.535 80.3499 223.103 80.3499C223.671 80.3499 224.179 80.4739 224.627 80.7219C225.083 80.9699 225.439 81.3259 225.695 81.7899C225.959 82.2459 226.091 82.7899 226.091 83.4219C226.091 84.0619 225.959 84.6139 225.695 85.0779C225.431 85.5419 225.071 85.8979 224.615 86.1459C224.159 86.3939 223.647 86.5179 223.079 86.5179ZM223.067 85.6659C223.419 85.6659 223.751 85.5899 224.063 85.4379C224.375 85.2779 224.627 85.0339 224.819 84.7059C225.019 84.3699 225.119 83.9459 225.119 83.4339C225.119 82.9139 225.023 82.4899 224.831 82.1619C224.639 81.8339 224.387 81.5939 224.075 81.4419C223.771 81.2819 223.443 81.2019 223.091 81.2019C222.739 81.2019 222.411 81.2819 222.107 81.4419C221.803 81.5939 221.555 81.8379 221.363 82.1739C221.179 82.5019 221.087 82.9219 221.087 83.4339C221.087 83.9539 221.179 84.3779 221.363 84.7059C221.547 85.0339 221.787 85.2779 222.083 85.4379C222.387 85.5899 222.715 85.6659 223.067 85.6659ZM228.369 81.6459C228.545 81.2779 228.821 80.9699 229.197 80.7219C229.573 80.4739 230.049 80.3499 230.625 80.3499C231.177 80.3499 231.657 80.4779 232.065 80.7339C232.481 80.9899 232.801 81.3499 233.025 81.8139C233.257 82.2699 233.373 82.8099 233.373 83.4339C233.373 84.0579 233.257 84.6019 233.025 85.0659C232.793 85.5299 232.469 85.8899 232.053 86.1459C231.645 86.3939 231.169 86.5179 230.625 86.5179C230.081 86.5179 229.629 86.4019 229.269 86.1699C228.909 85.9379 228.637 85.6539 228.453 85.3179L228.393 86.4339H227.565V77.7939H228.465V81.6579L228.369 81.6459ZM232.401 83.4339C232.401 82.7459 232.221 82.2019 231.861 81.8019C231.509 81.3939 231.033 81.1899 230.433 81.1899C230.057 81.1899 229.717 81.2819 229.413 81.4659C229.117 81.6419 228.885 81.8979 228.717 82.2339C228.549 82.5619 228.465 82.9619 228.465 83.4339C228.465 83.9059 228.549 84.3099 228.717 84.6459C228.885 84.9819 229.117 85.2379 229.413 85.4139C229.717 85.5899 230.057 85.6779 230.433 85.6779C231.033 85.6779 231.509 85.4779 231.861 85.0779C232.221 84.6699 232.401 84.1219 232.401 83.4339ZM238.599 86.4339L238.527 85.3539C238.359 85.7219 238.111 86.0099 237.783 86.2179C237.455 86.4179 237.039 86.5179 236.535 86.5179C236.103 86.5179 235.735 86.4499 235.431 86.3139C235.127 86.1779 234.891 85.9859 234.723 85.7379C234.563 85.4819 234.483 85.1819 234.483 84.8379C234.483 84.3339 234.671 83.9219 235.047 83.6019C235.423 83.2739 235.967 83.0739 236.679 83.0019L238.527 82.7979V82.3179C238.527 81.9819 238.403 81.7139 238.155 81.5139C237.907 81.3059 237.571 81.2019 237.147 81.2019C236.731 81.2019 236.383 81.2979 236.103 81.4899C235.831 81.6819 235.643 81.9579 235.539 82.3179L234.723 82.0299C234.883 81.5019 235.175 81.0899 235.599 80.7939C236.031 80.4979 236.555 80.3499 237.171 80.3499C237.883 80.3499 238.435 80.5339 238.827 80.9019C239.227 81.2619 239.427 81.7539 239.427 82.3779V86.4339H238.599ZM238.527 83.5659L236.667 83.7819C236.267 83.8299 235.963 83.9419 235.755 84.1179C235.547 84.2859 235.443 84.5099 235.443 84.7899C235.443 85.0699 235.543 85.2939 235.743 85.4619C235.951 85.6299 236.247 85.7139 236.631 85.7139C237.071 85.7139 237.431 85.6259 237.711 85.4499C237.991 85.2739 238.195 85.0379 238.323 84.7419C238.459 84.4379 238.527 84.1099 238.527 83.7579V83.5659ZM241.182 77.7939H242.082V86.4339H241.182V77.7939ZM208.114 96.0339H214.414V96.8739H211.75V104.434H210.79V96.8739H208.114V96.0339ZM219.603 104.434L219.531 103.354C219.363 103.722 219.115 104.01 218.787 104.218C218.459 104.418 218.043 104.518 217.539 104.518C217.107 104.518 216.739 104.45 216.435 104.314C216.131 104.178 215.895 103.986 215.727 103.738C215.567 103.482 215.487 103.182 215.487 102.838C215.487 102.334 215.675 101.922 216.051 101.602C216.427 101.274 216.971 101.074 217.683 101.002L219.531 100.798V100.318C219.531 99.9819 219.407 99.7139 219.159 99.5139C218.911 99.3059 218.575 99.2019 218.151 99.2019C217.735 99.2019 217.387 99.2979 217.107 99.4899C216.835 99.6819 216.647 99.9579 216.543 100.318L215.727 100.03C215.887 99.5019 216.179 99.0899 216.603 98.7939C217.035 98.4979 217.559 98.3499 218.175 98.3499C218.887 98.3499 219.439 98.5339 219.831 98.9019C220.231 99.2619 220.431 99.7539 220.431 100.378V104.434H219.603ZM219.531 101.566L217.671 101.782C217.271 101.83 216.967 101.942 216.759 102.118C216.551 102.286 216.447 102.51 216.447 102.79C216.447 103.07 216.547 103.294 216.747 103.462C216.955 103.63 217.251 103.714 217.635 103.714C218.075 103.714 218.435 103.626 218.715 103.45C218.995 103.274 219.199 103.038 219.327 102.742C219.463 102.438 219.531 102.11 219.531 101.758V101.566ZM221.634 98.4339H222.666L224.202 100.726L225.738 98.4339H226.782L224.706 101.422L226.782 104.434H225.738L224.202 102.118L222.666 104.434H221.634L223.71 101.422L221.634 98.4339ZM231.837 104.434L231.765 103.354C231.597 103.722 231.349 104.01 231.021 104.218C230.693 104.418 230.277 104.518 229.773 104.518C229.341 104.518 228.973 104.45 228.669 104.314C228.365 104.178 228.129 103.986 227.961 103.738C227.801 103.482 227.721 103.182 227.721 102.838C227.721 102.334 227.909 101.922 228.285 101.602C228.661 101.274 229.205 101.074 229.917 101.002L231.765 100.798V100.318C231.765 99.9819 231.641 99.7139 231.393 99.5139C231.145 99.3059 230.809 99.2019 230.385 99.2019C229.969 99.2019 229.621 99.2979 229.341 99.4899C229.069 99.6819 228.881 99.9579 228.777 100.318L227.961 100.03C228.121 99.5019 228.413 99.0899 228.837 98.7939C229.269 98.4979 229.793 98.3499 230.409 98.3499C231.121 98.3499 231.673 98.5339 232.065 98.9019C232.465 99.2619 232.665 99.7539 232.665 100.378V104.434H231.837ZM231.765 101.566L229.905 101.782C229.505 101.83 229.201 101.942 228.993 102.118C228.785 102.286 228.681 102.51 228.681 102.79C228.681 103.07 228.781 103.294 228.981 103.462C229.189 103.63 229.485 103.714 229.869 103.714C230.309 103.714 230.669 103.626 230.949 103.45C231.229 103.274 231.433 103.038 231.561 102.742C231.697 102.438 231.765 102.11 231.765 101.758V101.566ZM234.805 98.4339V96.7539H235.705V98.4339H237.301V99.2739H235.705V102.502C235.705 102.87 235.781 103.138 235.933 103.306C236.093 103.474 236.293 103.574 236.533 103.606C236.781 103.638 237.037 103.638 237.301 103.606V104.386C236.989 104.458 236.681 104.478 236.377 104.446C236.081 104.414 235.813 104.326 235.573 104.182C235.341 104.03 235.153 103.818 235.009 103.546C234.873 103.274 234.805 102.926 234.805 102.502V99.2739H233.905V98.4339H234.805ZM238.819 98.4339H239.707V104.434H238.819V98.4339ZM239.275 97.2339C239.091 97.2339 238.939 97.1739 238.819 97.0539C238.699 96.9339 238.639 96.7859 238.639 96.6099C238.639 96.4259 238.699 96.2739 238.819 96.1539C238.939 96.0339 239.091 95.9739 239.275 95.9739C239.443 95.9739 239.587 96.0339 239.707 96.1539C239.835 96.2739 239.899 96.4259 239.899 96.6099C239.899 96.7859 239.835 96.9339 239.707 97.0539C239.587 97.1739 239.443 97.2339 239.275 97.2339ZM244.325 104.518C243.757 104.518 243.249 104.394 242.801 104.146C242.353 103.898 242.001 103.546 241.745 103.09C241.489 102.626 241.361 102.078 241.361 101.446C241.361 100.806 241.489 100.254 241.745 99.7899C242.009 99.3259 242.365 98.9699 242.813 98.7219C243.269 98.4739 243.781 98.3499 244.349 98.3499C244.917 98.3499 245.425 98.4739 245.873 98.7219C246.329 98.9699 246.685 99.3259 246.941 99.7899C247.205 100.246 247.337 100.79 247.337 101.422C247.337 102.062 247.205 102.614 246.941 103.078C246.677 103.542 246.317 103.898 245.861 104.146C245.405 104.394 244.893 104.518 244.325 104.518ZM244.313 103.666C244.665 103.666 244.997 103.59 245.309 103.438C245.621 103.278 245.873 103.034 246.065 102.706C246.265 102.37 246.365 101.946 246.365 101.434C246.365 100.914 246.269 100.49 246.077 100.162C245.885 99.8339 245.633 99.5939 245.321 99.4419C245.017 99.2819 244.689 99.2019 244.337 99.2019C243.985 99.2019 243.657 99.2819 243.353 99.4419C243.049 99.5939 242.801 99.8379 242.609 100.174C242.425 100.502 242.333 100.922 242.333 101.434C242.333 101.954 242.425 102.378 242.609 102.706C242.793 103.034 243.033 103.278 243.329 103.438C243.633 103.59 243.961 103.666 244.313 103.666ZM248.811 98.4339H249.639L249.687 99.2859C249.879 98.9899 250.131 98.7619 250.443 98.6019C250.755 98.4339 251.119 98.3499 251.535 98.3499C251.991 98.3499 252.392 98.4499 252.736 98.6499C253.08 98.8419 253.348 99.1339 253.54 99.5259C253.732 99.9099 253.828 100.394 253.828 100.978V104.434H252.928V101.086C252.928 100.462 252.792 99.9899 252.52 99.6699C252.256 99.3419 251.871 99.1779 251.367 99.1779C250.847 99.1779 250.439 99.3499 250.143 99.6939C249.855 100.038 249.711 100.546 249.711 101.218V104.434H248.811V98.4339Z" fill="#18181B"/>
<path d="M285.599 175.5H209.599C205.456 175.5 202.099 178.858 202.099 183V249C202.099 253.142 205.456 256.5 209.599 256.5H285.599C289.741 256.5 293.099 253.142 293.099 249V183C293.099 178.858 289.741 175.5 285.599 175.5Z" fill="white" fill-opacity="0.4"/>
<path d="M285.599 175.5H209.599C205.456 175.5 202.099 178.858 202.099 183V249C202.099 253.142 205.456 256.5 209.599 256.5H285.599C289.741 256.5 293.099 253.142 293.099 249V183C293.099 178.858 289.741 175.5 285.599 175.5Z" stroke="url(#paint2_linear_8001_40035)"/>
<path d="M231.599 181H211.599C209.389 181 207.599 182.791 207.599 185V205C207.599 207.209 209.389 209 211.599 209H231.599C233.808 209 235.599 207.209 235.599 205V185C235.599 182.791 233.808 181 231.599 181Z" fill="white"/>
<path d="M216.266 199.667H226.932M216.266 197L218.932 193L221.599 194.333L224.266 191L226.932 193.667" stroke="#27272A" stroke-linecap="round" stroke-linejoin="round"/>
<path d="M208.618 219.6H214.126V220.44H209.578V223.308H212.998V224.148H209.578V228H208.618V219.6ZM215.745 222H216.633V228H215.745V222ZM216.201 220.8C216.017 220.8 215.865 220.74 215.745 220.62C215.625 220.5 215.565 220.352 215.565 220.176C215.565 219.992 215.625 219.84 215.745 219.72C215.865 219.6 216.017 219.54 216.201 219.54C216.369 219.54 216.513 219.6 216.633 219.72C216.761 219.84 216.825 219.992 216.825 220.176C216.825 220.352 216.761 220.5 216.633 220.62C216.513 220.74 216.369 220.8 216.201 220.8ZM218.659 222H219.487L219.535 222.852C219.727 222.556 219.979 222.328 220.291 222.168C220.603 222 220.967 221.916 221.383 221.916C221.839 221.916 222.239 222.016 222.583 222.216C222.927 222.408 223.195 222.7 223.387 223.092C223.579 223.476 223.675 223.96 223.675 224.544V228H222.775V224.652C222.775 224.028 222.639 223.556 222.367 223.236C222.103 222.908 221.719 222.744 221.215 222.744C220.695 222.744 220.287 222.916 219.991 223.26C219.703 223.604 219.559 224.112 219.559 224.784V228H218.659V222ZM229.177 228L229.105 226.92C228.937 227.288 228.689 227.576 228.361 227.784C228.033 227.984 227.617 228.084 227.113 228.084C226.681 228.084 226.313 228.016 226.009 227.88C225.705 227.744 225.469 227.552 225.301 227.304C225.141 227.048 225.061 226.748 225.061 226.404C225.061 225.9 225.249 225.488 225.625 225.168C226.001 224.84 226.545 224.64 227.257 224.568L229.105 224.364V223.884C229.105 223.548 228.981 223.28 228.733 223.08C228.485 222.872 228.149 222.768 227.725 222.768C227.309 222.768 226.961 222.864 226.681 223.056C226.409 223.248 226.221 223.524 226.117 223.884L225.301 223.596C225.461 223.068 225.753 222.656 226.177 222.36C226.609 222.064 227.133 221.916 227.749 221.916C228.461 221.916 229.013 222.1 229.405 222.468C229.805 222.828 230.005 223.32 230.005 223.944V228H229.177ZM229.105 225.132L227.245 225.348C226.845 225.396 226.541 225.508 226.333 225.684C226.125 225.852 226.021 226.076 226.021 226.356C226.021 226.636 226.121 226.86 226.321 227.028C226.529 227.196 226.825 227.28 227.209 227.28C227.649 227.28 228.009 227.192 228.289 227.016C228.569 226.84 228.773 226.604 228.901 226.308C229.037 226.004 229.105 225.676 229.105 225.324V225.132ZM231.76 222H232.588L232.636 222.852C232.828 222.556 233.08 222.328 233.392 222.168C233.704 222 234.068 221.916 234.484 221.916C234.94 221.916 235.34 222.016 235.684 222.216C236.028 222.408 236.296 222.7 236.488 223.092C236.68 223.476 236.776 223.96 236.776 224.544V228H235.876V224.652C235.876 224.028 235.74 223.556 235.468 223.236C235.204 222.908 234.82 222.744 234.316 222.744C233.796 222.744 233.388 222.916 233.092 223.26C232.804 223.604 232.66 224.112 232.66 224.784V228H231.76V222ZM241.078 228.084C240.494 228.084 239.982 227.956 239.542 227.7C239.102 227.444 238.758 227.088 238.51 226.632C238.27 226.168 238.15 225.632 238.15 225.024C238.15 224.408 238.27 223.868 238.51 223.404C238.758 222.932 239.102 222.568 239.542 222.312C239.982 222.048 240.494 221.916 241.078 221.916C241.694 221.916 242.234 222.06 242.698 222.348C243.162 222.628 243.498 223.02 243.706 223.524L242.878 223.812C242.758 223.492 242.538 223.24 242.218 223.056C241.906 222.864 241.542 222.768 241.126 222.768C240.718 222.768 240.362 222.86 240.058 223.044C239.762 223.228 239.53 223.488 239.362 223.824C239.202 224.16 239.122 224.556 239.122 225.012C239.122 225.684 239.302 226.224 239.662 226.632C240.022 227.032 240.502 227.232 241.102 227.232C241.51 227.232 241.874 227.14 242.194 226.956C242.514 226.772 242.75 226.524 242.902 226.212L243.718 226.5C243.502 226.996 243.162 227.384 242.698 227.664C242.234 227.944 241.694 228.084 241.078 228.084ZM245.37 222H246.258V228H245.37V222ZM245.826 220.8C245.642 220.8 245.49 220.74 245.37 220.62C245.25 220.5 245.19 220.352 245.19 220.176C245.19 219.992 245.25 219.84 245.37 219.72C245.49 219.6 245.642 219.54 245.826 219.54C245.994 219.54 246.138 219.6 246.258 219.72C246.386 219.84 246.45 219.992 246.45 220.176C246.45 220.352 246.386 220.5 246.258 220.62C246.138 220.74 245.994 220.8 245.826 220.8ZM252.04 228L251.968 226.92C251.8 227.288 251.552 227.576 251.224 227.784C250.896 227.984 250.48 228.084 249.976 228.084C249.544 228.084 249.176 228.016 248.872 227.88C248.568 227.744 248.332 227.552 248.164 227.304C248.004 227.048 247.924 226.748 247.924 226.404C247.924 225.9 248.112 225.488 248.488 225.168C248.864 224.84 249.408 224.64 250.12 224.568L251.968 224.364V223.884C251.968 223.548 251.844 223.28 251.596 223.08C251.348 222.872 251.012 222.768 250.588 222.768C250.172 222.768 249.824 222.864 249.544 223.056C249.272 223.248 249.084 223.524 248.98 223.884L248.164 223.596C248.324 223.068 248.616 222.656 249.04 222.36C249.472 222.064 249.996 221.916 250.612 221.916C251.324 221.916 251.876 222.1 252.268 222.468C252.668 222.828 252.868 223.32 252.868 223.944V228H252.04ZM251.968 225.132L250.108 225.348C249.708 225.396 249.404 225.508 249.196 225.684C248.988 225.852 248.884 226.076 248.884 226.356C248.884 226.636 248.984 226.86 249.184 227.028C249.392 227.196 249.688 227.28 250.072 227.28C250.512 227.28 250.872 227.192 251.152 227.016C251.432 226.84 251.636 226.604 251.764 226.308C251.9 226.004 251.968 225.676 251.968 225.324V225.132ZM254.624 219.36H255.524V228H254.624V219.36ZM208.618 237.6H209.578V246H208.618V237.6ZM211.522 240H212.35L212.398 240.852C212.59 240.556 212.842 240.328 213.154 240.168C213.466 240 213.83 239.916 214.246 239.916C214.702 239.916 215.102 240.016 215.446 240.216C215.79 240.408 216.058 240.7 216.25 241.092C216.442 241.476 216.538 241.96 216.538 242.544V246H215.638V242.652C215.638 242.028 215.502 241.556 215.23 241.236C214.966 240.908 214.582 240.744 214.078 240.744C213.558 240.744 213.15 240.916 212.854 241.26C212.566 241.604 212.422 242.112 212.422 242.784V246H211.522V240ZM218.776 244.164C218.824 244.404 218.912 244.604 219.04 244.764C219.168 244.916 219.332 245.032 219.532 245.112C219.74 245.192 219.98 245.232 220.252 245.232C220.676 245.232 220.996 245.152 221.212 244.992C221.436 244.824 221.548 244.616 221.548 244.368C221.548 244.16 221.48 243.992 221.344 243.864C221.216 243.736 221.044 243.632 220.828 243.552C220.612 243.464 220.372 243.388 220.108 243.324C219.9 243.276 219.676 243.22 219.436 243.156C219.196 243.084 218.968 242.988 218.752 242.868C218.536 242.748 218.36 242.592 218.224 242.4C218.088 242.208 218.02 241.956 218.02 241.644C218.02 241.3 218.112 241 218.296 240.744C218.488 240.48 218.748 240.276 219.076 240.132C219.412 239.988 219.796 239.916 220.228 239.916C220.724 239.916 221.164 240.024 221.548 240.24C221.94 240.456 222.212 240.792 222.364 241.248L221.524 241.536C221.468 241.328 221.364 241.168 221.212 241.056C221.068 240.944 220.904 240.868 220.72 240.828C220.544 240.788 220.368 240.768 220.192 240.768C219.832 240.768 219.54 240.84 219.316 240.984C219.1 241.12 218.992 241.328 218.992 241.608C218.992 241.76 219.028 241.888 219.1 241.992C219.172 242.088 219.272 242.168 219.4 242.232C219.528 242.296 219.68 242.352 219.856 242.4C220.032 242.44 220.224 242.488 220.432 242.544C220.664 242.6 220.9 242.672 221.14 242.76C221.38 242.84 221.604 242.948 221.812 243.084C222.02 243.212 222.188 243.38 222.316 243.588C222.452 243.788 222.52 244.04 222.52 244.344C222.52 244.696 222.424 245.004 222.232 245.268C222.04 245.524 221.772 245.724 221.428 245.868C221.092 246.012 220.7 246.084 220.252 246.084C219.636 246.084 219.124 245.948 218.716 245.676C218.316 245.396 218.048 244.988 217.912 244.452L218.776 244.164ZM224.363 240V238.32H225.263V240H226.859V240.84H225.263V244.068C225.263 244.436 225.339 244.704 225.491 244.872C225.651 245.04 225.851 245.14 226.091 245.172C226.339 245.204 226.595 245.204 226.859 245.172V245.952C226.547 246.024 226.239 246.044 225.935 246.012C225.639 245.98 225.371 245.892 225.131 245.748C224.899 245.596 224.711 245.384 224.567 245.112C224.431 244.84 224.363 244.492 224.363 244.068V240.84H223.463V240H224.363ZM228.198 240H229.026L229.074 240.876C229.234 240.66 229.426 240.476 229.65 240.324C229.882 240.172 230.134 240.068 230.406 240.012C230.686 239.948 230.982 239.944 231.294 240V240.9C230.958 240.836 230.654 240.836 230.382 240.9C230.118 240.964 229.89 241.084 229.698 241.26C229.506 241.436 229.358 241.66 229.254 241.932C229.15 242.196 229.098 242.504 229.098 242.856V246H228.198V240ZM237.43 246H236.614L236.554 245.136C236.37 245.44 236.122 245.676 235.81 245.844C235.498 246.004 235.134 246.084 234.718 246.084C234.254 246.084 233.85 245.988 233.506 245.796C233.162 245.604 232.894 245.316 232.702 244.932C232.518 244.548 232.426 244.064 232.426 243.48V240H233.314V243.384C233.314 244 233.446 244.468 233.71 244.788C233.982 245.1 234.37 245.256 234.874 245.256C235.386 245.256 235.79 245.092 236.086 244.764C236.39 244.428 236.542 243.924 236.542 243.252V240H237.43V246ZM239.26 240H240.088L240.148 240.864C240.324 240.576 240.56 240.348 240.856 240.18C241.16 240.004 241.52 239.916 241.936 239.916C242.36 239.916 242.744 240.02 243.088 240.228C243.44 240.428 243.712 240.728 243.904 241.128C244.088 240.72 244.368 240.416 244.744 240.216C245.12 240.016 245.536 239.916 245.992 239.916C246.44 239.916 246.836 240.016 247.18 240.216C247.524 240.408 247.792 240.7 247.984 241.092C248.176 241.476 248.272 241.96 248.272 242.544V246H247.372V242.652C247.372 242.028 247.236 241.556 246.964 241.236C246.7 240.908 246.32 240.744 245.824 240.744C245.32 240.744 244.92 240.92 244.624 241.272C244.328 241.616 244.18 242.128 244.18 242.808V246H243.28V242.652C243.28 242.028 243.152 241.556 242.896 241.236C242.64 240.908 242.264 240.744 241.768 240.744C241.264 240.744 240.868 240.92 240.58 241.272C240.3 241.616 240.16 242.128 240.16 242.808V246H239.26V240ZM252.539 246.084C251.978 246.084 251.478 245.948 251.038 245.676C250.606 245.404 250.266 245.032 250.018 244.56C249.77 244.088 249.646 243.548 249.646 242.94C249.646 242.356 249.77 241.836 250.018 241.38C250.266 240.924 250.606 240.568 251.038 240.312C251.47 240.048 251.962 239.916 252.515 239.916C253.059 239.916 253.543 240.036 253.967 240.276C254.399 240.516 254.735 240.848 254.975 241.272C255.215 241.696 255.327 242.18 255.311 242.724C255.311 242.812 255.307 242.904 255.299 243C255.291 243.096 255.283 243.2 255.275 243.312H250.63C250.646 243.688 250.738 244.02 250.906 244.308C251.074 244.596 251.294 244.824 251.566 244.992C251.846 245.152 252.163 245.232 252.515 245.232C252.979 245.232 253.371 245.144 253.691 244.968C254.019 244.792 254.255 244.54 254.399 244.212L255.179 244.524C254.939 245.028 254.591 245.416 254.135 245.688C253.679 245.952 253.147 246.084 252.539 246.084ZM254.327 242.532C254.335 242.188 254.259 241.884 254.099 241.62C253.947 241.356 253.731 241.148 253.451 240.996C253.171 240.844 252.847 240.768 252.479 240.768C252.159 240.768 251.866 240.844 251.602 240.996C251.338 241.148 251.118 241.36 250.942 241.632C250.774 241.896 250.674 242.196 250.642 242.532H254.327ZM256.792 240H257.62L257.668 240.852C257.86 240.556 258.112 240.328 258.424 240.168C258.736 240 259.1 239.916 259.516 239.916C259.972 239.916 260.372 240.016 260.716 240.216C261.06 240.408 261.328 240.7 261.52 241.092C261.712 241.476 261.808 241.96 261.808 242.544V246H260.908V242.652C260.908 242.028 260.772 241.556 260.5 241.236C260.236 240.908 259.852 240.744 259.348 240.744C258.828 240.744 258.42 240.916 258.124 241.26C257.836 241.604 257.692 242.112 257.692 242.784V246H256.792V240ZM263.938 240V238.32H264.838V240H266.434V240.84H264.838V244.068C264.838 244.436 264.914 244.704 265.066 244.872C265.226 245.04 265.426 245.14 265.666 245.172C265.914 245.204 266.17 245.204 266.434 245.172V245.952C266.122 246.024 265.814 246.044 265.51 246.012C265.214 245.98 264.946 245.892 264.706 245.748C264.474 245.596 264.286 245.384 264.142 245.112C264.006 244.84 263.938 244.492 263.938 244.068V240.84H263.038V240H263.938ZM268.265 244.164C268.313 244.404 268.401 244.604 268.529 244.764C268.657 244.916 268.821 245.032 269.021 245.112C269.229 245.192 269.469 245.232 269.741 245.232C270.165 245.232 270.485 245.152 270.701 244.992C270.925 244.824 271.037 244.616 271.037 244.368C271.037 244.16 270.969 243.992 270.833 243.864C270.705 243.736 270.533 243.632 270.317 243.552C270.101 243.464 269.861 243.388 269.597 243.324C269.389 243.276 269.165 243.22 268.925 243.156C268.685 243.084 268.457 242.988 268.241 242.868C268.025 242.748 267.849 242.592 267.713 242.4C267.577 242.208 267.509 241.956 267.509 241.644C267.509 241.3 267.601 241 267.785 240.744C267.977 240.48 268.237 240.276 268.565 240.132C268.901 239.988 269.285 239.916 269.717 239.916C270.213 239.916 270.653 240.024 271.037 240.24C271.429 240.456 271.701 240.792 271.853 241.248L271.013 241.536C270.957 241.328 270.853 241.168 270.701 241.056C270.557 240.944 270.393 240.868 270.209 240.828C270.033 240.788 269.857 240.768 269.681 240.768C269.321 240.768 269.029 240.84 268.805 240.984C268.589 241.12 268.481 241.328 268.481 241.608C268.481 241.76 268.517 241.888 268.589 241.992C268.661 242.088 268.761 242.168 268.889 242.232C269.017 242.296 269.169 242.352 269.345 242.4C269.521 242.44 269.713 242.488 269.921 242.544C270.153 242.6 270.389 242.672 270.629 242.76C270.869 242.84 271.093 242.948 271.301 243.084C271.509 243.212 271.677 243.38 271.805 243.588C271.941 243.788 272.009 244.04 272.009 244.344C272.009 244.696 271.913 245.004 271.721 245.268C271.529 245.524 271.261 245.724 270.917 245.868C270.581 246.012 270.189 246.084 269.741 246.084C269.125 246.084 268.613 245.948 268.205 245.676C267.805 245.396 267.537 244.988 267.401 244.452L268.265 244.164Z" fill="#18181B"/>
<path d="M490 181.5H414C409.858 181.5 406.5 184.858 406.5 189V255C406.5 259.142 409.858 262.5 414 262.5H490C494.142 262.5 497.5 259.142 497.5 255V189C497.5 184.858 494.142 181.5 490 181.5Z" fill="white" fill-opacity="0.4"/>
<path d="M490 181.5H414C409.858 181.5 406.5 184.858 406.5 189V255C406.5 259.142 409.858 262.5 414 262.5H490C494.142 262.5 497.5 259.142 497.5 255V189C497.5 184.858 494.142 181.5 490 181.5Z" stroke="url(#paint3_linear_8001_40035)"/>
<path d="M436 187H416C413.791 187 412 188.791 412 191V211C412 213.209 413.791 215 416 215H436C438.209 215 440 213.209 440 211V191C440 188.791 438.209 187 436 187Z" fill="white"/>
<path d="M421.714 195C420.772 195 420 195.772 420 196.714V205.286C420 206.228 420.772 207 421.714 207H426C426.114 207 426.223 206.955 426.303 206.874C426.383 206.794 426.429 206.685 426.429 206.571C426.429 206.458 426.383 206.349 426.303 206.268C426.223 206.188 426.114 206.143 426 206.143H421.714C421.232 206.143 420.857 205.768 420.857 205.286V196.714C420.857 196.232 421.232 195.857 421.714 195.857H427.714C428.197 195.857 428.571 196.232 428.571 196.714V197.571C428.571 197.685 428.617 197.794 428.697 197.874C428.777 197.955 428.886 198 429 198C429.114 198 429.223 197.955 429.303 197.874C429.383 197.794 429.429 197.685 429.429 197.571V196.714C429.429 195.772 428.657 195 427.714 195H421.714Z" fill="#27272A"/>
<path d="M429 198.429C427.348 198.429 426 199.777 426 201.429C426 202.446 426.512 203.346 427.291 203.889V206.572C427.291 206.649 427.312 206.725 427.352 206.792C427.392 206.858 427.449 206.913 427.518 206.949C427.586 206.986 427.663 207.003 427.741 206.999C427.818 206.995 427.893 206.971 427.958 206.927L429 206.23L430.042 206.927C430.107 206.971 430.182 206.995 430.259 206.999C430.337 207.003 430.414 206.986 430.482 206.949C430.551 206.913 430.608 206.858 430.648 206.792C430.688 206.725 430.709 206.649 430.709 206.572V203.889C431.488 203.346 432 202.446 432 201.429C432 199.777 430.652 198.429 429 198.429ZM429 199.286C430.189 199.286 431.143 200.24 431.143 201.429C431.143 202.617 430.189 203.572 429 203.572C427.811 203.572 426.857 202.617 426.857 201.429C426.857 200.24 427.811 199.286 429 199.286ZM428.148 204.303C428.418 204.384 428.704 204.429 429 204.429C429.296 204.429 429.582 204.384 429.852 204.303V205.77L429.239 205.359C429.168 205.311 429.085 205.286 429 205.286C428.915 205.286 428.832 205.311 428.761 205.359L428.148 205.77V204.303Z" fill="#27272A"/>
<path d="M422.571 197.143C422.457 197.143 422.348 197.188 422.268 197.268C422.188 197.348 422.143 197.457 422.143 197.571C422.143 197.685 422.188 197.794 422.268 197.874C422.348 197.955 422.457 198 422.571 198H423.857C423.971 198 424.08 197.955 424.16 197.874C424.24 197.794 424.285 197.685 424.285 197.571C424.285 197.457 424.24 197.348 424.16 197.268C424.08 197.188 423.971 197.143 423.857 197.143H422.571Z" fill="#27272A"/>
<path d="M422.571 198.857C422.457 198.857 422.348 198.903 422.268 198.983C422.188 199.063 422.143 199.172 422.143 199.286C422.143 199.4 422.188 199.509 422.268 199.589C422.348 199.669 422.457 199.715 422.571 199.715H425.143C425.256 199.715 425.365 199.669 425.446 199.589C425.526 199.509 425.571 199.4 425.571 199.286C425.571 199.172 425.526 199.063 425.446 198.983C425.365 198.903 425.256 198.857 425.143 198.857H422.571Z" fill="#27272A"/>
<path d="M422.571 200.571C422.457 200.571 422.348 200.616 422.268 200.697C422.188 200.777 422.143 200.886 422.143 201C422.143 201.114 422.188 201.223 422.268 201.303C422.348 201.383 422.457 201.428 422.571 201.428H423.857C423.971 201.428 424.08 201.383 424.16 201.303C424.24 201.223 424.285 201.114 424.285 201C424.285 200.886 424.24 200.777 424.16 200.697C424.08 200.616 423.971 200.571 423.857 200.571H422.571Z" fill="#27272A"/>
<path d="M413.02 225.6H413.98V234H413.02V225.6ZM415.924 228H416.752L416.8 228.852C416.992 228.556 417.244 228.328 417.556 228.168C417.868 228 418.232 227.916 418.648 227.916C419.104 227.916 419.504 228.016 419.848 228.216C420.192 228.408 420.46 228.7 420.652 229.092C420.844 229.476 420.94 229.96 420.94 230.544V234H420.04V230.652C420.04 230.028 419.904 229.556 419.632 229.236C419.368 228.908 418.984 228.744 418.48 228.744C417.96 228.744 417.552 228.916 417.256 229.26C416.968 229.604 416.824 230.112 416.824 230.784V234H415.924V228ZM423.07 228V226.32H423.97V228H425.566V228.84H423.97V232.068C423.97 232.436 424.046 232.704 424.198 232.872C424.358 233.04 424.558 233.14 424.798 233.172C425.046 233.204 425.302 233.204 425.566 233.172V233.952C425.254 234.024 424.946 234.044 424.642 234.012C424.346 233.98 424.078 233.892 423.838 233.748C423.606 233.596 423.418 233.384 423.274 233.112C423.138 232.84 423.07 232.492 423.07 232.068V228.84H422.17V228H423.07ZM430.66 234L430.588 232.92C430.42 233.288 430.172 233.576 429.844 233.784C429.516 233.984 429.1 234.084 428.596 234.084C428.164 234.084 427.796 234.016 427.492 233.88C427.188 233.744 426.952 233.552 426.784 233.304C426.624 233.048 426.544 232.748 426.544 232.404C426.544 231.9 426.732 231.488 427.108 231.168C427.484 230.84 428.028 230.64 428.74 230.568L430.588 230.364V229.884C430.588 229.548 430.464 229.28 430.216 229.08C429.968 228.872 429.632 228.768 429.208 228.768C428.792 228.768 428.444 228.864 428.164 229.056C427.892 229.248 427.704 229.524 427.6 229.884L426.784 229.596C426.944 229.068 427.236 228.656 427.66 228.36C428.092 228.064 428.616 227.916 429.232 227.916C429.944 227.916 430.496 228.1 430.888 228.468C431.288 228.828 431.488 229.32 431.488 229.944V234H430.66ZM430.588 231.132L428.728 231.348C428.328 231.396 428.024 231.508 427.816 231.684C427.608 231.852 427.504 232.076 427.504 232.356C427.504 232.636 427.604 232.86 427.804 233.028C428.012 233.196 428.308 233.28 428.692 233.28C429.132 233.28 429.492 233.192 429.772 233.016C430.052 232.84 430.256 232.604 430.384 232.308C430.52 232.004 430.588 231.676 430.588 231.324V231.132ZM433.244 228H434.072L434.12 228.852C434.312 228.556 434.564 228.328 434.876 228.168C435.188 228 435.552 227.916 435.968 227.916C436.424 227.916 436.824 228.016 437.168 228.216C437.512 228.408 437.78 228.7 437.972 229.092C438.164 229.476 438.26 229.96 438.26 230.544V234H437.36V230.652C437.36 230.028 437.224 229.556 436.952 229.236C436.688 228.908 436.304 228.744 435.8 228.744C435.28 228.744 434.872 228.916 434.576 229.26C434.288 229.604 434.144 230.112 434.144 230.784V234H433.244V228ZM444.614 228H445.442V232.896C445.442 233.632 445.278 234.26 444.95 234.78C444.622 235.308 444.146 235.708 443.522 235.98C442.898 236.26 442.138 236.4 441.242 236.4L441.098 235.572C442.226 235.556 443.082 235.32 443.666 234.864C444.25 234.416 444.542 233.76 444.542 232.896V232.764L444.638 232.788C444.454 233.14 444.178 233.444 443.81 233.7C443.442 233.948 442.966 234.076 442.382 234.084C441.83 234.084 441.346 233.96 440.93 233.712C440.522 233.456 440.202 233.096 439.97 232.632C439.746 232.168 439.634 231.624 439.634 231C439.634 230.376 439.746 229.836 439.97 229.38C440.202 228.916 440.522 228.556 440.93 228.3C441.346 228.044 441.83 227.916 442.382 227.916C442.742 227.916 443.062 227.972 443.342 228.084C443.622 228.188 443.862 228.332 444.062 228.516C444.262 228.692 444.426 228.892 444.554 229.116L444.614 228ZM440.606 231C440.606 231.688 440.782 232.236 441.134 232.644C441.494 233.044 441.978 233.244 442.586 233.244C442.954 233.244 443.286 233.156 443.582 232.98C443.878 232.804 444.11 232.548 444.278 232.212C444.454 231.876 444.542 231.472 444.542 231C444.542 230.528 444.454 230.128 444.278 229.8C444.11 229.464 443.878 229.208 443.582 229.032C443.286 228.848 442.954 228.756 442.586 228.756C441.986 228.756 441.506 228.96 441.146 229.368C440.786 229.776 440.606 230.32 440.606 231ZM447.463 228H448.351V234H447.463V228ZM447.919 226.8C447.735 226.8 447.583 226.74 447.463 226.62C447.343 226.5 447.283 226.352 447.283 226.176C447.283 225.992 447.343 225.84 447.463 225.72C447.583 225.6 447.735 225.54 447.919 225.54C448.087 225.54 448.231 225.6 448.351 225.72C448.479 225.84 448.543 225.992 448.543 226.176C448.543 226.352 448.479 226.5 448.351 226.62C448.231 226.74 448.087 226.8 447.919 226.8ZM451.181 229.212C451.357 228.844 451.633 228.536 452.009 228.288C452.385 228.04 452.861 227.916 453.437 227.916C453.989 227.916 454.469 228.044 454.877 228.3C455.293 228.556 455.613 228.916 455.837 229.38C456.069 229.836 456.185 230.376 456.185 231C456.185 231.624 456.069 232.168 455.837 232.632C455.605 233.096 455.281 233.456 454.865 233.712C454.457 233.96 453.981 234.084 453.437 234.084C452.893 234.084 452.441 233.968 452.081 233.736C451.721 233.504 451.449 233.22 451.265 232.884L451.205 234H450.377V225.36H451.277V229.224L451.181 229.212ZM455.213 231C455.213 230.312 455.033 229.768 454.673 229.368C454.321 228.96 453.845 228.756 453.245 228.756C452.869 228.756 452.529 228.848 452.225 229.032C451.929 229.208 451.697 229.464 451.529 229.8C451.361 230.128 451.277 230.528 451.277 231C451.277 231.472 451.361 231.876 451.529 232.212C451.697 232.548 451.929 232.804 452.225 232.98C452.529 233.156 452.869 233.244 453.245 233.244C453.845 233.244 454.321 233.044 454.673 232.644C455.033 232.236 455.213 231.688 455.213 231ZM457.654 225.36H458.554V234H457.654V225.36ZM462.905 234.084C462.345 234.084 461.845 233.948 461.405 233.676C460.973 233.404 460.633 233.032 460.385 232.56C460.137 232.088 460.013 231.548 460.013 230.94C460.013 230.356 460.137 229.836 460.385 229.38C460.633 228.924 460.973 228.568 461.405 228.312C461.837 228.048 462.329 227.916 462.881 227.916C463.425 227.916 463.909 228.036 464.333 228.276C464.765 228.516 465.101 228.848 465.341 229.272C465.581 229.696 465.693 230.18 465.677 230.724C465.677 230.812 465.673 230.904 465.665 231C465.657 231.096 465.649 231.2 465.641 231.312H460.997C461.013 231.688 461.105 232.02 461.273 232.308C461.441 232.596 461.661 232.824 461.933 232.992C462.213 233.152 462.529 233.232 462.881 233.232C463.345 233.232 463.737 233.144 464.057 232.968C464.385 232.792 464.621 232.54 464.765 232.212L465.545 232.524C465.305 233.028 464.957 233.416 464.501 233.688C464.045 233.952 463.513 234.084 462.905 234.084ZM464.693 230.532C464.701 230.188 464.625 229.884 464.465 229.62C464.313 229.356 464.097 229.148 463.817 228.996C463.537 228.844 463.213 228.768 462.845 228.768C462.525 228.768 462.233 228.844 461.969 228.996C461.705 229.148 461.485 229.36 461.309 229.632C461.141 229.896 461.041 230.196 461.009 230.532H464.693ZM467.65 232.164C467.698 232.404 467.786 232.604 467.914 232.764C468.042 232.916 468.206 233.032 468.406 233.112C468.614 233.192 468.854 233.232 469.126 233.232C469.55 233.232 469.87 233.152 470.086 232.992C470.31 232.824 470.422 232.616 470.422 232.368C470.422 232.16 470.354 231.992 470.218 231.864C470.09 231.736 469.918 231.632 469.702 231.552C469.486 231.464 469.246 231.388 468.982 231.324C468.774 231.276 468.55 231.22 468.31 231.156C468.07 231.084 467.842 230.988 467.626 230.868C467.41 230.748 467.234 230.592 467.098 230.4C466.962 230.208 466.894 229.956 466.894 229.644C466.894 229.3 466.986 229 467.17 228.744C467.362 228.48 467.622 228.276 467.95 228.132C468.286 227.988 468.67 227.916 469.102 227.916C469.598 227.916 470.038 228.024 470.422 228.24C470.814 228.456 471.086 228.792 471.238 229.248L470.398 229.536C470.342 229.328 470.238 229.168 470.086 229.056C469.942 228.944 469.778 228.868 469.594 228.828C469.418 228.788 469.242 228.768 469.066 228.768C468.706 228.768 468.414 228.84 468.19 228.984C467.974 229.12 467.866 229.328 467.866 229.608C467.866 229.76 467.902 229.888 467.974 229.992C468.046 230.088 468.146 230.168 468.274 230.232C468.402 230.296 468.554 230.352 468.73 230.4C468.906 230.44 469.098 230.488 469.306 230.544C469.538 230.6 469.774 230.672 470.014 230.76C470.254 230.84 470.478 230.948 470.686 231.084C470.894 231.212 471.062 231.38 471.19 231.588C471.326 231.788 471.394 232.04 471.394 232.344C471.394 232.696 471.298 233.004 471.106 233.268C470.914 233.524 470.646 233.724 470.302 233.868C469.966 234.012 469.574 234.084 469.126 234.084C468.51 234.084 467.998 233.948 467.59 233.676C467.19 233.396 466.922 232.988 466.786 232.452L467.65 232.164ZM418.756 243.6H419.776L416.584 252H415.48L412.336 243.6H413.356L416.056 250.98L418.756 243.6ZM424.801 252L424.729 250.92C424.561 251.288 424.313 251.576 423.985 251.784C423.657 251.984 423.241 252.084 422.737 252.084C422.305 252.084 421.937 252.016 421.633 251.88C421.329 251.744 421.093 251.552 420.925 251.304C420.765 251.048 420.685 250.748 420.685 250.404C420.685 249.9 420.873 249.488 421.249 249.168C421.625 248.84 422.169 248.64 422.881 248.568L424.729 248.364V247.884C424.729 247.548 424.605 247.28 424.357 247.08C424.109 246.872 423.773 246.768 423.349 246.768C422.933 246.768 422.585 246.864 422.305 247.056C422.033 247.248 421.845 247.524 421.741 247.884L420.925 247.596C421.085 247.068 421.377 246.656 421.801 246.36C422.233 246.064 422.757 245.916 423.373 245.916C424.085 245.916 424.637 246.1 425.029 246.468C425.429 246.828 425.629 247.32 425.629 247.944V252H424.801ZM424.729 249.132L422.869 249.348C422.469 249.396 422.165 249.508 421.957 249.684C421.749 249.852 421.645 250.076 421.645 250.356C421.645 250.636 421.745 250.86 421.945 251.028C422.153 251.196 422.449 251.28 422.833 251.28C423.273 251.28 423.633 251.192 423.913 251.016C424.193 250.84 424.397 250.604 424.525 250.308C424.661 250.004 424.729 249.676 424.729 249.324V249.132ZM427.385 243.36H428.285V252H427.385V243.36ZM435.023 252H434.207L434.147 251.136C433.963 251.44 433.715 251.676 433.403 251.844C433.091 252.004 432.727 252.084 432.311 252.084C431.847 252.084 431.443 251.988 431.099 251.796C430.755 251.604 430.487 251.316 430.295 250.932C430.111 250.548 430.019 250.064 430.019 249.48V246H430.907V249.384C430.907 250 431.039 250.468 431.303 250.788C431.575 251.1 431.963 251.256 432.467 251.256C432.979 251.256 433.383 251.092 433.679 250.764C433.983 250.428 434.135 249.924 434.135 249.252V246H435.023V252ZM440.61 252L440.538 250.92C440.37 251.288 440.122 251.576 439.794 251.784C439.466 251.984 439.05 252.084 438.546 252.084C438.114 252.084 437.746 252.016 437.442 251.88C437.138 251.744 436.902 251.552 436.734 251.304C436.574 251.048 436.494 250.748 436.494 250.404C436.494 249.9 436.682 249.488 437.058 249.168C437.434 248.84 437.978 248.64 438.69 248.568L440.538 248.364V247.884C440.538 247.548 440.414 247.28 440.166 247.08C439.918 246.872 439.582 246.768 439.158 246.768C438.742 246.768 438.394 246.864 438.114 247.056C437.842 247.248 437.654 247.524 437.55 247.884L436.734 247.596C436.894 247.068 437.186 246.656 437.61 246.36C438.042 246.064 438.566 245.916 439.182 245.916C439.894 245.916 440.446 246.1 440.838 246.468C441.238 246.828 441.438 247.32 441.438 247.944V252H440.61ZM440.538 249.132L438.678 249.348C438.278 249.396 437.974 249.508 437.766 249.684C437.558 249.852 437.454 250.076 437.454 250.356C437.454 250.636 437.554 250.86 437.754 251.028C437.962 251.196 438.258 251.28 438.642 251.28C439.082 251.28 439.442 251.192 439.722 251.016C440.002 250.84 440.206 250.604 440.334 250.308C440.47 250.004 440.538 249.676 440.538 249.324V249.132ZM443.578 246V244.32H444.478V246H446.074V246.84H444.478V250.068C444.478 250.436 444.554 250.704 444.706 250.872C444.866 251.04 445.066 251.14 445.306 251.172C445.554 251.204 445.81 251.204 446.074 251.172V251.952C445.762 252.024 445.454 252.044 445.15 252.012C444.854 251.98 444.586 251.892 444.346 251.748C444.114 251.596 443.926 251.384 443.782 251.112C443.646 250.84 443.578 250.492 443.578 250.068V246.84H442.678V246H443.578ZM447.592 246H448.48V252H447.592V246ZM448.048 244.8C447.864 244.8 447.712 244.74 447.592 244.62C447.472 244.5 447.412 244.352 447.412 244.176C447.412 243.992 447.472 243.84 447.592 243.72C447.712 243.6 447.864 243.54 448.048 243.54C448.216 243.54 448.36 243.6 448.48 243.72C448.608 243.84 448.672 243.992 448.672 244.176C448.672 244.352 448.608 244.5 448.48 244.62C448.36 244.74 448.216 244.8 448.048 244.8ZM453.098 252.084C452.53 252.084 452.022 251.96 451.574 251.712C451.126 251.464 450.774 251.112 450.518 250.656C450.262 250.192 450.134 249.644 450.134 249.012C450.134 248.372 450.262 247.82 450.518 247.356C450.782 246.892 451.138 246.536 451.586 246.288C452.042 246.04 452.554 245.916 453.122 245.916C453.69 245.916 454.198 246.04 454.646 246.288C455.102 246.536 455.458 246.892 455.714 247.356C455.978 247.812 456.11 248.356 456.11 248.988C456.11 249.628 455.978 250.18 455.714 250.644C455.45 251.108 455.09 251.464 454.634 251.712C454.178 251.96 453.666 252.084 453.098 252.084ZM453.086 251.232C453.438 251.232 453.77 251.156 454.082 251.004C454.394 250.844 454.646 250.6 454.838 250.272C455.038 249.936 455.138 249.512 455.138 249C455.138 248.48 455.042 248.056 454.85 247.728C454.658 247.4 454.406 247.16 454.094 247.008C453.79 246.848 453.462 246.768 453.11 246.768C452.758 246.768 452.43 246.848 452.126 247.008C451.822 247.16 451.574 247.404 451.382 247.74C451.198 248.068 451.106 248.488 451.106 249C451.106 249.52 451.198 249.944 451.382 250.272C451.566 250.6 451.806 250.844 452.102 251.004C452.406 251.156 452.734 251.232 453.086 251.232ZM457.584 246H458.412L458.46 246.852C458.652 246.556 458.904 246.328 459.216 246.168C459.528 246 459.892 245.916 460.308 245.916C460.764 245.916 461.164 246.016 461.508 246.216C461.852 246.408 462.12 246.7 462.312 247.092C462.504 247.476 462.6 247.96 462.6 248.544V252H461.7V248.652C461.7 248.028 461.564 247.556 461.292 247.236C461.028 246.908 460.644 246.744 460.14 246.744C459.62 246.744 459.212 246.916 458.916 247.26C458.628 247.604 458.484 248.112 458.484 248.784V252H457.584V246Z" fill="#18181B"/>
<path d="M510 32.9336H434C429.858 32.9336 426.5 36.2915 426.5 40.4336V106.434C426.5 110.576 429.858 113.934 434 113.934H510C514.142 113.934 517.5 110.576 517.5 106.434V40.4336C517.5 36.2915 514.142 32.9336 510 32.9336Z" fill="white" fill-opacity="0.4"/>
<path d="M510 32.9336H434C429.858 32.9336 426.5 36.2915 426.5 40.4336V106.434C426.5 110.576 429.858 113.934 434 113.934H510C514.142 113.934 517.5 110.576 517.5 106.434V40.4336C517.5 36.2915 514.142 32.9336 510 32.9336Z" stroke="url(#paint4_linear_8001_40035)"/>
<path d="M456 38.4336H436C433.791 38.4336 432 40.2245 432 42.4336V62.4336C432 64.6427 433.791 66.4336 436 66.4336H456C458.209 66.4336 460 64.6427 460 62.4336V42.4336C460 40.2245 458.209 38.4336 456 38.4336Z" fill="white"/>
<path d="M440 58.4336H452M444 49.7669H444.667M444 52.4336H444.667M444 55.1003H444.667M447.333 49.7669H448M447.333 52.4336H448M447.333 55.1003H448M441.333 58.4336V47.7669C441.333 47.4133 441.474 47.0742 441.724 46.8241C441.974 46.5741 442.313 46.4336 442.667 46.4336H449.333C449.687 46.4336 450.026 46.5741 450.276 46.8241C450.526 47.0742 450.667 47.4133 450.667 47.7669V58.4336" stroke="#27272A" stroke-linecap="round" stroke-linejoin="round"/>
<path d="M438.528 77.8736H433.98V80.7416H437.4V81.5816H433.98V84.5936H438.528V85.4336H433.02V77.0336H438.528V77.8736ZM440.237 79.4336H441.065L441.113 80.2856C441.305 79.9896 441.557 79.7616 441.869 79.6016C442.181 79.4336 442.545 79.3496 442.961 79.3496C443.417 79.3496 443.817 79.4496 444.161 79.6496C444.505 79.8416 444.773 80.1336 444.965 80.5256C445.157 80.9096 445.253 81.3936 445.253 81.9776V85.4336H444.353V82.0856C444.353 81.4616 444.217 80.9896 443.945 80.6696C443.681 80.3416 443.297 80.1776 442.793 80.1776C442.273 80.1776 441.865 80.3496 441.569 80.6936C441.281 81.0376 441.137 81.5456 441.137 82.2176V85.4336H440.237V79.4336ZM447.382 79.4336V77.7536H448.282V79.4336H449.878V80.2736H448.282V83.5016C448.282 83.8696 448.358 84.1376 448.51 84.3056C448.67 84.4736 448.87 84.5736 449.11 84.6056C449.358 84.6376 449.614 84.6376 449.878 84.6056V85.3856C449.566 85.4576 449.258 85.4776 448.954 85.4456C448.658 85.4136 448.39 85.3256 448.15 85.1816C447.918 85.0296 447.73 84.8176 447.586 84.5456C447.45 84.2736 447.382 83.9256 447.382 83.5016V80.2736H446.482V79.4336H447.382ZM451.397 79.4336H452.285V85.4336H451.397V79.4336ZM451.853 78.2336C451.669 78.2336 451.517 78.1736 451.397 78.0536C451.277 77.9336 451.217 77.7856 451.217 77.6096C451.217 77.4256 451.277 77.2736 451.397 77.1536C451.517 77.0336 451.669 76.9736 451.853 76.9736C452.021 76.9736 452.165 77.0336 452.285 77.1536C452.413 77.2736 452.477 77.4256 452.477 77.6096C452.477 77.7856 452.413 77.9336 452.285 78.0536C452.165 78.1736 452.021 78.2336 451.853 78.2336ZM454.695 79.4336V77.7536H455.595V79.4336H457.191V80.2736H455.595V83.5016C455.595 83.8696 455.671 84.1376 455.823 84.3056C455.983 84.4736 456.183 84.5736 456.423 84.6056C456.671 84.6376 456.927 84.6376 457.191 84.6056V85.3856C456.879 85.4576 456.571 85.4776 456.267 85.4456C455.971 85.4136 455.703 85.3256 455.463 85.1816C455.231 85.0296 455.043 84.8176 454.899 84.5456C454.763 84.2736 454.695 83.9256 454.695 83.5016V80.2736H453.795V79.4336H454.695ZM462.597 79.4336H463.533L460.101 87.8336H459.237L460.257 85.3496L457.833 79.4336H458.817L460.737 84.2816L462.597 79.4336ZM438.756 95.0336H439.776L436.584 103.434H435.48L432.336 95.0336H433.356L436.056 102.414L438.756 95.0336ZM444.801 103.434L444.729 102.354C444.561 102.722 444.313 103.01 443.985 103.218C443.657 103.418 443.241 103.518 442.737 103.518C442.305 103.518 441.937 103.45 441.633 103.314C441.329 103.178 441.093 102.986 440.925 102.738C440.765 102.482 440.685 102.182 440.685 101.838C440.685 101.334 440.873 100.922 441.249 100.602C441.625 100.274 442.169 100.074 442.881 100.002L444.729 99.7976V99.3176C444.729 98.9816 444.605 98.7136 444.357 98.5136C444.109 98.3056 443.773 98.2016 443.349 98.2016C442.933 98.2016 442.585 98.2976 442.305 98.4896C442.033 98.6816 441.845 98.9576 441.741 99.3176L440.925 99.0296C441.085 98.5016 441.377 98.0896 441.801 97.7936C442.233 97.4976 442.757 97.3496 443.373 97.3496C444.085 97.3496 444.637 97.5336 445.029 97.9016C445.429 98.2616 445.629 98.7536 445.629 99.3776V103.434H444.801ZM444.729 100.566L442.869 100.782C442.469 100.83 442.165 100.942 441.957 101.118C441.749 101.286 441.645 101.51 441.645 101.79C441.645 102.07 441.745 102.294 441.945 102.462C442.153 102.63 442.449 102.714 442.833 102.714C443.273 102.714 443.633 102.626 443.913 102.45C444.193 102.274 444.397 102.038 444.525 101.742C444.661 101.438 444.729 101.11 444.729 100.758V100.566ZM447.385 94.7936H448.285V103.434H447.385V94.7936ZM455.023 103.434H454.207L454.147 102.57C453.963 102.874 453.715 103.11 453.403 103.278C453.091 103.438 452.727 103.518 452.311 103.518C451.847 103.518 451.443 103.422 451.099 103.23C450.755 103.038 450.487 102.75 450.295 102.366C450.111 101.982 450.019 101.498 450.019 100.914V97.4336H450.907V100.818C450.907 101.434 451.039 101.902 451.303 102.222C451.575 102.534 451.963 102.69 452.467 102.69C452.979 102.69 453.383 102.526 453.679 102.198C453.983 101.862 454.135 101.358 454.135 100.686V97.4336H455.023V103.434ZM460.61 103.434L460.538 102.354C460.37 102.722 460.122 103.01 459.794 103.218C459.466 103.418 459.05 103.518 458.546 103.518C458.114 103.518 457.746 103.45 457.442 103.314C457.138 103.178 456.902 102.986 456.734 102.738C456.574 102.482 456.494 102.182 456.494 101.838C456.494 101.334 456.682 100.922 457.058 100.602C457.434 100.274 457.978 100.074 458.69 100.002L460.538 99.7976V99.3176C460.538 98.9816 460.414 98.7136 460.166 98.5136C459.918 98.3056 459.582 98.2016 459.158 98.2016C458.742 98.2016 458.394 98.2976 458.114 98.4896C457.842 98.6816 457.654 98.9576 457.55 99.3176L456.734 99.0296C456.894 98.5016 457.186 98.0896 457.61 97.7936C458.042 97.4976 458.566 97.3496 459.182 97.3496C459.894 97.3496 460.446 97.5336 460.838 97.9016C461.238 98.2616 461.438 98.7536 461.438 99.3776V103.434H460.61ZM460.538 100.566L458.678 100.782C458.278 100.83 457.974 100.942 457.766 101.118C457.558 101.286 457.454 101.51 457.454 101.79C457.454 102.07 457.554 102.294 457.754 102.462C457.962 102.63 458.258 102.714 458.642 102.714C459.082 102.714 459.442 102.626 459.722 102.45C460.002 102.274 460.206 102.038 460.334 101.742C460.47 101.438 460.538 101.11 460.538 100.758V100.566ZM463.578 97.4336V95.7536H464.478V97.4336H466.074V98.2736H464.478V101.502C464.478 101.87 464.554 102.138 464.706 102.306C464.866 102.474 465.066 102.574 465.306 102.606C465.554 102.638 465.81 102.638 466.074 102.606V103.386C465.762 103.458 465.454 103.478 465.15 103.446C464.854 103.414 464.586 103.326 464.346 103.182C464.114 103.03 463.926 102.818 463.782 102.546C463.646 102.274 463.578 101.926 463.578 101.502V98.2736H462.678V97.4336H463.578ZM467.592 97.4336H468.48V103.434H467.592V97.4336ZM468.048 96.2336C467.864 96.2336 467.712 96.1736 467.592 96.0536C467.472 95.9336 467.412 95.7856 467.412 95.6096C467.412 95.4256 467.472 95.2736 467.592 95.1536C467.712 95.0336 467.864 94.9736 468.048 94.9736C468.216 94.9736 468.36 95.0336 468.48 95.1536C468.608 95.2736 468.672 95.4256 468.672 95.6096C468.672 95.7856 468.608 95.9336 468.48 96.0536C468.36 96.1736 468.216 96.2336 468.048 96.2336ZM473.098 103.518C472.53 103.518 472.022 103.394 471.574 103.146C471.126 102.898 470.774 102.546 470.518 102.09C470.262 101.626 470.134 101.078 470.134 100.446C470.134 99.8056 470.262 99.2536 470.518 98.7896C470.782 98.3256 471.138 97.9696 471.586 97.7216C472.042 97.4736 472.554 97.3496 473.122 97.3496C473.69 97.3496 474.198 97.4736 474.646 97.7216C475.102 97.9696 475.458 98.3256 475.714 98.7896C475.978 99.2456 476.11 99.7896 476.11 100.422C476.11 101.062 475.978 101.614 475.714 102.078C475.45 102.542 475.09 102.898 474.634 103.146C474.178 103.394 473.666 103.518 473.098 103.518ZM473.086 102.666C473.438 102.666 473.77 102.59 474.082 102.438C474.394 102.278 474.646 102.034 474.838 101.706C475.038 101.37 475.138 100.946 475.138 100.434C475.138 99.9136 475.042 99.4896 474.85 99.1616C474.658 98.8336 474.406 98.5936 474.094 98.4416C473.79 98.2816 473.462 98.2016 473.11 98.2016C472.758 98.2016 472.43 98.2816 472.126 98.4416C471.822 98.5936 471.574 98.8376 471.382 99.1736C471.198 99.5016 471.106 99.9216 471.106 100.434C471.106 100.954 471.198 101.378 471.382 101.706C471.566 102.034 471.806 102.278 472.102 102.438C472.406 102.59 472.734 102.666 473.086 102.666ZM477.584 97.4336H478.412L478.46 98.2856C478.652 97.9896 478.904 97.7616 479.216 97.6016C479.528 97.4336 479.892 97.3496 480.308 97.3496C480.764 97.3496 481.164 97.4496 481.508 97.6496C481.852 97.8416 482.12 98.1336 482.312 98.5256C482.504 98.9096 482.6 99.3936 482.6 99.9776V103.434H481.7V100.086C481.7 99.4616 481.564 98.9896 481.292 98.6696C481.028 98.3416 480.644 98.1776 480.14 98.1776C479.62 98.1776 479.212 98.3496 478.916 98.6936C478.628 99.0376 478.484 99.5456 478.484 100.218V103.434H477.584V97.4336Z" fill="#18181B"/>
</g>
</g>
<defs>
<filter id="filter0_f_8001_40035" x="-73.8291" y="-185.854" width="853.659" height="656.708" filterUnits="userSpaceOnUse" color-interpolation-filters="sRGB">
<feFlood flood-opacity="0" result="BackgroundImageFix"/>
<feBlend mode="normal" in="SourceGraphic" in2="BackgroundImageFix" result="shape"/>
<feGaussianBlur stdDeviation="100" result="effect1_foregroundBlur_8001_40035"/>
</filter>
<filter id="filter1_dii_8001_40035" x="292.979" y="93.4336" width="118.043" height="118.132" filterUnits="userSpaceOnUse" color-interpolation-filters="sRGB">
<feFlood flood-opacity="0" result="BackgroundImageFix"/>
<feColorMatrix in="SourceAlpha" type="matrix" values="0 0 0 0 0 0 0 0 0 0 0 0 0 0 0 0 0 0 127 0" result="hardAlpha"/>
<feOffset dy="10"/>
<feGaussianBlur stdDeviation="16"/>
<feComposite in2="hardAlpha" operator="out"/>
<feColorMatrix type="matrix" values="0 0 0 0 0.0627451 0 0 0 0 0.0588235 0 0 0 0 0.141176 0 0 0 0.05 0"/>
<feBlend mode="normal" in2="BackgroundImageFix" result="effect1_dropShadow_8001_40035"/>
<feBlend mode="normal" in="SourceGraphic" in2="effect1_dropShadow_8001_40035" result="shape"/>
<feColorMatrix in="SourceAlpha" type="matrix" values="0 0 0 0 0 0 0 0 0 0 0 0 0 0 0 0 0 0 127 0" result="hardAlpha"/>
<feOffset dy="4"/>
<feGaussianBlur stdDeviation="8"/>
<feComposite in2="hardAlpha" operator="arithmetic" k2="-1" k3="1"/>
<feColorMatrix type="matrix" values="0 0 0 0 0.0588235 0 0 0 0 0.141176 0 0 0 0 0.0666667 0 0 0 0.02 0"/>
<feBlend mode="normal" in2="shape" result="effect2_innerShadow_8001_40035"/>
<feColorMatrix in="SourceAlpha" type="matrix" values="0 0 0 0 0 0 0 0 0 0 0 0 0 0 0 0 0 0 127 0" result="hardAlpha"/>
<feOffset dy="8"/>
<feGaussianBlur stdDeviation="4"/>
<feComposite in2="hardAlpha" operator="arithmetic" k2="-1" k3="1"/>
<feColorMatrix type="matrix" values="0 0 0 0 1 0 0 0 0 1 0 0 0 0 1 0 0 0 0.25 0"/>
<feBlend mode="normal" in2="effect2_innerShadow_8001_40035" result="effect3_innerShadow_8001_40035"/>
</filter>
<linearGradient id="paint0_linear_8001_40035" x1="219.471" y1="65.68" x2="339.71" y2="312.912" gradientUnits="userSpaceOnUse">
<stop stop-color="#5C85D5"/>
<stop offset="1" stop-color="#C3A7F3"/>
</linearGradient>
<linearGradient id="paint1_linear_8001_40035" x1="201.599" y1="36.7715" x2="293.599" y2="115.434" gradientUnits="userSpaceOnUse">
<stop stop-color="white" stop-opacity="0.8"/>
<stop offset="0.495192" stop-color="white" stop-opacity="0.2"/>
<stop offset="1" stop-color="white" stop-opacity="0.8"/>
</linearGradient>
<linearGradient id="paint2_linear_8001_40035" x1="201.599" y1="178.338" x2="293.599" y2="257" gradientUnits="userSpaceOnUse">
<stop stop-color="white" stop-opacity="0.8"/>
<stop offset="0.495192" stop-color="white" stop-opacity="0.2"/>
<stop offset="1" stop-color="white" stop-opacity="0.8"/>
</linearGradient>
<linearGradient id="paint3_linear_8001_40035" x1="406" y1="184.338" x2="498" y2="263" gradientUnits="userSpaceOnUse">
<stop stop-color="white" stop-opacity="0.8"/>
<stop offset="0.495192" stop-color="white" stop-opacity="0.2"/>
<stop offset="1" stop-color="white" stop-opacity="0.8"/>
</linearGradient>
<linearGradient id="paint4_linear_8001_40035" x1="426" y1="35.7715" x2="518" y2="114.434" gradientUnits="userSpaceOnUse">
<stop stop-color="white" stop-opacity="0.8"/>
<stop offset="0.495192" stop-color="white" stop-opacity="0.2"/>
<stop offset="1" stop-color="white" stop-opacity="0.8"/>
</linearGradient>
<clipPath id="clip0_8001_40035">
<rect width="704" height="285" fill="white"/>
</clipPath>
</defs>
</svg>
