<svg width="516" height="328" viewBox="0 0 516 328" fill="none" xmlns="http://www.w3.org/2000/svg">
<path d="M454 66V235" stroke="url(#paint0_linear_5204_63546)" stroke-opacity="0.3" stroke-linecap="round"/>
<path d="M118 146L118 315" stroke="url(#paint1_linear_5204_63546)" stroke-opacity="0.3" stroke-linecap="round"/>
<rect x="122.5" y="112.5" width="47" height="47" rx="11.5" fill="white"/>
<rect x="122.5" y="112.5" width="47" height="47" rx="11.5" stroke="#F7F7F7"/>
<path d="M142 131L146 127M146 127L150 131M146 127V132.394M146 132.394C146 133.503 145.726 134.595 145.203 135.573C144.68 136.551 143.923 137.385 143 138C142.077 138.615 141.32 139.449 140.797 140.427C140.274 141.405 140 142.497 140 143.606V145M146 132.394C146 133.503 146.274 134.595 146.797 135.573C147.32 136.551 148.077 137.385 149 138C149.923 138.615 150.68 139.449 151.203 140.427C151.726 141.405 152 142.497 152 143.606V145" stroke="#3F3F46" stroke-width="1.5" stroke-linecap="round" stroke-linejoin="round"/>
<rect x="66.5" y="224.5" width="47" height="47" rx="11.5" fill="white"/>
<rect x="66.5" y="224.5" width="47" height="47" rx="11.5" stroke="#F7F7F7"/>
<path d="M81 249V241C81 240.47 81.2107 239.961 81.5858 239.586C81.9609 239.211 82.4696 239 83 239H97C97.5304 239 98.0391 239.211 98.4142 239.586C98.7893 239.961 99 240.47 99 241V255C99 255.53 98.7893 256.039 98.4142 256.414C98.0391 256.789 97.5304 257 97 257H89M81 246H99M88 239V250M80 258L85 253M85 253V257.5M85 253H80.5" stroke="#3F3F46" stroke-width="1.5" stroke-linecap="round" stroke-linejoin="round"/>
<g filter="url(#filter0_i_5204_63546)">
<rect x="66" width="48" height="48" rx="12" fill="#F7F7F7"/>
<rect x="66.5" y="0.5" width="47" height="47" rx="11.5" stroke="#F5F5F5"/>
</g>
<rect x="10.5" y="112.5" width="47" height="47" rx="11.5" fill="white"/>
<rect x="10.5" y="112.5" width="47" height="47" rx="11.5" stroke="#F7F7F7"/>
<path d="M33.482 144.924C33.1957 144.84 32.9372 144.68 32.7337 144.462C32.5302 144.244 32.389 143.975 32.325 143.683C32.2611 143.419 32.1358 143.174 31.9593 142.968C31.7828 142.762 31.5601 142.6 31.3093 142.496C31.0586 142.392 30.7868 142.349 30.5162 142.37C30.2456 142.391 29.9838 142.476 29.752 142.617C28.209 143.557 26.442 141.791 27.382 140.247C27.5231 140.015 27.6076 139.754 27.6285 139.483C27.6494 139.213 27.6062 138.941 27.5025 138.691C27.3987 138.44 27.2373 138.217 27.0313 138.041C26.8253 137.864 26.5806 137.739 26.317 137.675C24.561 137.249 24.561 134.751 26.317 134.325C26.5808 134.261 26.8258 134.136 27.032 133.959C27.2382 133.783 27.3999 133.56 27.5037 133.309C27.6076 133.059 27.6509 132.787 27.6299 132.516C27.6089 132.246 27.5243 131.984 27.383 131.752C26.443 130.209 28.209 128.442 29.753 129.382C30.753 129.99 32.049 129.452 32.325 128.317C32.751 126.561 35.249 126.561 35.675 128.317C35.7389 128.581 35.8642 128.826 36.0407 129.032C36.2172 129.238 36.4399 129.4 36.6907 129.504C36.9414 129.608 37.2132 129.651 37.4838 129.63C37.7544 129.609 38.0162 129.524 38.248 129.383C39.791 128.443 41.558 130.209 40.618 131.753C40.4769 131.985 40.3924 132.246 40.3715 132.517C40.3506 132.787 40.3938 133.059 40.4975 133.309C40.6013 133.56 40.7627 133.783 40.9687 133.959C41.1747 134.136 41.4194 134.261 41.683 134.325C42.995 134.643 43.327 136.119 42.678 137.022M42 145L44 143L42 141M39 141L37 143L39 145M31 136C31 136.796 31.3161 137.559 31.8787 138.121C32.4413 138.684 33.2044 139 34 139C34.7956 139 35.5587 138.684 36.1213 138.121C36.6839 137.559 37 136.796 37 136C37 135.204 36.6839 134.441 36.1213 133.879C35.5587 133.316 34.7956 133 34 133C33.2044 133 32.4413 133.316 31.8787 133.879C31.3161 134.441 31 135.204 31 136Z" stroke="#3F3F46" stroke-width="1.5" stroke-linecap="round" stroke-linejoin="round"/>
<rect x="402.5" y="224.5" width="47" height="47" rx="11.5" fill="white"/>
<rect x="402.5" y="224.5" width="47" height="47" rx="11.5" stroke="#F7F7F7"/>
<path d="M423.615 256H421C420.47 256 419.961 255.789 419.586 255.414C419.211 255.039 419 254.53 419 254V242C419 241.47 419.211 240.961 419.586 240.586C419.961 240.211 420.47 240 421 240H429C429.53 240 430.039 240.211 430.414 240.586C430.789 240.961 431 241.47 431 242V250M428 255L430 257L434 253M423 244H427M423 248H425" stroke="#3F3F46" stroke-width="1.5" stroke-linecap="round" stroke-linejoin="round"/>
<rect x="178.5" y="56.5" width="47" height="47" rx="11.5" fill="white"/>
<rect x="178.5" y="56.5" width="47" height="47" rx="11.5" stroke="#F7F7F7"/>
<path d="M194 74C194 74.7956 194.843 75.5587 196.343 76.1213C197.843 76.6839 199.878 77 202 77C204.122 77 206.157 76.6839 207.657 76.1213C209.157 75.5587 210 74.7956 210 74M194 74C194 73.2044 194.843 72.4413 196.343 71.8787C197.843 71.3161 199.878 71 202 71C204.122 71 206.157 71.3161 207.657 71.8787C209.157 72.4413 210 73.2044 210 74M194 74V80M210 74V80M194 80C194 80.7956 194.843 81.5587 196.343 82.1213C197.843 82.6839 199.878 83 202 83C204.122 83 206.157 82.6839 207.657 82.1213C209.157 81.5587 210 80.7956 210 80M194 80V86C194 86.7956 194.843 87.5587 196.343 88.1213C197.843 88.6839 199.878 89 202 89C204.122 89 206.157 88.6839 207.657 88.1213C209.157 87.5587 210 86.7956 210 86V80" stroke="#3F3F46" stroke-width="1.5" stroke-linecap="round" stroke-linejoin="round"/>
<rect x="290.5" y="168.5" width="47" height="47" rx="11.5" fill="white"/>
<rect x="290.5" y="168.5" width="47" height="47" rx="11.5" stroke="#F7F7F7"/>
<path d="M306 192L314 196L322 192M306 196L314 200L322 196M314 184L306 188L314 192L322 188L314 184Z" stroke="#3F3F46" stroke-width="1.5" stroke-linecap="round" stroke-linejoin="round"/>
<g filter="url(#filter1_i_5204_63546)">
<rect x="66" y="112" width="48" height="104" rx="12" fill="#F7F7F7"/>
<rect x="66.5" y="112.5" width="47" height="103" rx="11.5" stroke="#F5F5F5"/>
</g>
<g filter="url(#filter2_i_5204_63546)">
<rect x="10" y="56" width="160" height="48" rx="12" fill="#F7F7F7"/>
<rect x="10.5" y="56.5" width="159" height="47" rx="11.5" stroke="#F5F5F5"/>
</g>
<g filter="url(#filter3_i_5204_63546)">
<rect x="66" y="280" width="160" height="48" rx="12" fill="#F7F7F7"/>
<rect x="66.5" y="280.5" width="159" height="47" rx="11.5" stroke="#F5F5F5"/>
</g>
<g filter="url(#filter4_i_5204_63546)">
<rect x="122" y="224" width="104" height="48" rx="12" fill="#F7F7F7"/>
<rect x="122.5" y="224.5" width="103" height="47" rx="11.5" stroke="#F5F5F5"/>
</g>
<g filter="url(#filter5_i_5204_63546)">
<rect x="402" y="280" width="104" height="48" rx="12" fill="#F7F7F7"/>
<rect x="402.5" y="280.5" width="103" height="47" rx="11.5" stroke="#F5F5F5"/>
</g>
<g filter="url(#filter6_i_5204_63546)">
<rect x="122" width="104" height="48" rx="12" fill="#F7F7F7"/>
<rect x="122.5" y="0.5" width="103" height="47" rx="11.5" stroke="#F5F5F5"/>
</g>
<g filter="url(#filter7_i_5204_63546)">
<rect x="402" y="168" width="48" height="48" rx="12" fill="#F7F7F7"/>
<rect x="402.5" y="168.5" width="47" height="47" rx="11.5" stroke="#F5F5F5"/>
</g>
<g filter="url(#filter8_i_5204_63546)">
<rect x="458" y="56" width="48" height="104" rx="12" fill="#F7F7F7"/>
<rect x="458.5" y="56.5" width="47" height="103" rx="11.5" stroke="#F5F5F5"/>
</g>
<g filter="url(#filter9_i_5204_63546)">
<rect x="10" y="168" width="48" height="48" rx="12" fill="#F7F7F7"/>
<rect x="10.5" y="168.5" width="47" height="47" rx="11.5" stroke="#F5F5F5"/>
</g>
<g filter="url(#filter10_i_5204_63546)">
<rect x="234" y="56" width="48" height="48" rx="12" fill="#F7F7F7"/>
<rect x="234.5" y="56.5" width="47" height="47" rx="11.5" stroke="#F5F5F5"/>
</g>
<g filter="url(#filter11_i_5204_63546)">
<rect x="290" y="224" width="104" height="48" rx="12" fill="#F7F7F7"/>
<rect x="290.5" y="224.5" width="103" height="47" rx="11.5" stroke="#F5F5F5"/>
</g>
<g filter="url(#filter12_i_5204_63546)">
<rect x="290" width="160" height="48" rx="12" fill="#F7F7F7"/>
<rect x="290.5" y="0.5" width="159" height="47" rx="11.5" stroke="#F5F5F5"/>
</g>
<g filter="url(#filter13_i_5204_63546)">
<rect x="178" y="112" width="48" height="48" rx="12" fill="#F7F7F7"/>
<rect x="178.5" y="112.5" width="47" height="47" rx="11.5" stroke="#F5F5F5"/>
</g>
<g filter="url(#filter14_i_5204_63546)">
<rect x="122" y="168" width="160" height="48" rx="12" fill="#F7F7F7"/>
<rect x="122.5" y="168.5" width="159" height="47" rx="11.5" stroke="#F5F5F5"/>
</g>
<g filter="url(#filter15_i_5204_63546)">
<rect x="10" y="224" width="48" height="104" rx="12" fill="#F7F7F7"/>
<rect x="10.5" y="224.5" width="47" height="103" rx="11.5" stroke="#F5F5F5"/>
</g>
<g filter="url(#filter16_i_5204_63546)">
<rect x="346" y="280" width="48" height="48" rx="12" fill="#F7F7F7"/>
<rect x="346.5" y="280.5" width="47" height="47" rx="11.5" stroke="#F5F5F5"/>
</g>
<g filter="url(#filter17_i_5204_63546)">
<rect x="290" y="280" width="48" height="48" rx="12" fill="#F7F7F7"/>
<rect x="290.5" y="280.5" width="47" height="47" rx="11.5" stroke="#F5F5F5"/>
</g>
<g filter="url(#filter18_i_5204_63546)">
<rect x="10" width="48" height="48" rx="12" fill="#F7F7F7"/>
<rect x="10.5" y="0.5" width="47" height="47" rx="11.5" stroke="#F5F5F5"/>
</g>
<g filter="url(#filter19_i_5204_63546)">
<rect x="234" y="224" width="48" height="104" rx="12" fill="#F7F7F7"/>
<rect x="234.5" y="224.5" width="47" height="103" rx="11.5" stroke="#F5F5F5"/>
</g>
<g filter="url(#filter20_i_5204_63546)">
<rect x="234" width="48" height="48" rx="12" fill="#F7F7F7"/>
<rect x="234.5" y="0.5" width="47" height="47" rx="11.5" stroke="#F5F5F5"/>
</g>
<g filter="url(#filter21_i_5204_63546)">
<rect x="290" y="56" width="48" height="104" rx="12" fill="#F7F7F7"/>
<rect x="290.5" y="56.5" width="47" height="103" rx="11.5" stroke="#F5F5F5"/>
</g>
<rect x="402.5" y="112.5" width="47" height="47" rx="11.5" fill="white"/>
<rect x="402.5" y="112.5" width="47" height="47" rx="11.5" stroke="#F7F7F7"/>
<path d="M431 130C431 130.53 431.211 131.039 431.586 131.414C431.961 131.789 432.47 132 433 132C433.53 132 434.039 131.789 434.414 131.414C434.789 131.039 435 130.53 435 130C435 129.47 434.789 128.961 434.414 128.586C434.039 128.211 433.53 128 433 128C432.47 128 431.961 128.211 431.586 128.586C431.211 128.961 431 129.47 431 130ZM431 130H427.5L424 136M431 142C431 142.53 431.211 143.039 431.586 143.414C431.961 143.789 432.47 144 433 144C433.53 144 434.039 143.789 434.414 143.414C434.789 143.039 435 142.53 435 142C435 141.47 434.789 140.961 434.414 140.586C434.039 140.211 433.53 140 433 140C432.47 140 431.961 140.211 431.586 140.586C431.211 140.961 431 141.47 431 142ZM431 142H427.5L424 136M421 136C421 136.53 420.789 137.039 420.414 137.414C420.039 137.789 419.53 138 419 138C418.47 138 417.961 137.789 417.586 137.414C417.211 137.039 417 136.53 417 136C417 135.47 417.211 134.961 417.586 134.586C417.961 134.211 418.47 134 419 134C419.53 134 420.039 134.211 420.414 134.586C420.789 134.961 421 135.47 421 136ZM421 136H424" stroke="#3F3F46" stroke-width="1.5" stroke-linecap="round" stroke-linejoin="round"/>
<rect x="346.5" y="56.5" width="47" height="47" rx="11.5" fill="white"/>
<rect x="346.5" y="56.5" width="47" height="47" rx="11.5" stroke="#F7F7F7"/>
<path d="M370 83H363.5C362.837 83 362.201 82.7366 361.732 82.2678C361.263 81.7989 361 81.163 361 80.5C361 79.837 361.263 79.2011 361.732 78.7322C362.201 78.2634 362.837 78 363.5 78H364M373 80V86.5C373 87.163 372.737 87.7989 372.268 88.2678C371.799 88.7366 371.163 89 370.5 89C369.837 89 369.201 88.7366 368.732 88.2678C368.263 87.7989 368 87.163 368 86.5V86M370 77H376.5C377.163 77 377.799 77.2634 378.268 77.7322C378.737 78.2011 379 78.837 379 79.5C379 80.163 378.737 80.7989 378.268 81.2678C377.799 81.7366 377.163 82 376.5 82H376M367 80V73.5C367 72.837 367.263 72.2011 367.732 71.7322C368.201 71.2634 368.837 71 369.5 71C370.163 71 370.799 71.2634 371.268 71.7322C371.737 72.2011 372 72.837 372 73.5V74" stroke="#3F3F46" stroke-width="1.5" stroke-linecap="round" stroke-linejoin="round"/>
<g filter="url(#filter22_i_5204_63546)">
<rect x="402" y="56" width="48" height="48" rx="12" fill="#F7F7F7"/>
<rect x="402.5" y="56.5" width="47" height="47" rx="11.5" stroke="#F5F5F5"/>
</g>
<g filter="url(#filter23_i_5204_63546)">
<rect x="458" y="168" width="48" height="48" rx="12" fill="#F7F7F7"/>
<rect x="458.5" y="168.5" width="47" height="47" rx="11.5" stroke="#F5F5F5"/>
</g>
<g filter="url(#filter24_i_5204_63546)">
<rect x="458" y="224" width="48" height="48" rx="12" fill="#F7F7F7"/>
<rect x="458.5" y="224.5" width="47" height="47" rx="11.5" stroke="#F5F5F5"/>
</g>
<g filter="url(#filter25_i_5204_63546)">
<rect x="458" width="48" height="48" rx="12" fill="#F7F7F7"/>
<rect x="458.5" y="0.5" width="47" height="47" rx="11.5" stroke="#F5F5F5"/>
</g>
<g filter="url(#filter26_i_5204_63546)">
<rect x="346" y="112" width="48" height="104" rx="12" fill="#F7F7F7"/>
<rect x="346.5" y="112.5" width="47" height="103" rx="11.5" stroke="#F5F5F5"/>
</g>
<g filter="url(#filter27_dd_5204_63546)">
<rect x="234" y="112" width="48" height="48" rx="12" fill="#27272A"/>
<rect x="234.5" y="112.5" width="47" height="47" rx="11.5" stroke="#52525B"/>
<path d="M247.648 136.716C248.265 137.342 249.102 137.736 250.027 137.757C249.678 138.285 249.474 138.922 249.474 139.611C249.474 139.951 249.523 140.276 249.615 140.583C249.368 140.69 249.096 140.75 248.809 140.75C247.642 140.75 246.691 139.763 246.691 138.549C246.691 138.107 246.818 137.699 247.033 137.356L247.036 137.353C247.277 137.183 247.487 136.965 247.651 136.715L247.648 136.716Z" fill="#F4F4F5"/>
<path d="M255.236 139.609C255.236 141.106 254.065 142.323 252.624 142.323C251.611 142.323 250.729 141.72 250.3 140.837C250.257 140.751 250.219 140.664 250.188 140.571C250.151 140.479 250.123 140.381 250.099 140.282C250.044 140.068 250.016 139.84 250.016 139.609C250.016 138.871 250.3 138.204 250.759 137.715L250.784 137.689C250.865 137.674 250.945 137.653 251.025 137.632C251.112 137.605 251.198 137.578 251.284 137.545C251.68 137.398 252.044 137.182 252.364 136.91C252.45 136.901 252.536 136.895 252.626 136.895C254.067 136.895 255.237 138.111 255.237 139.609H255.236Z" fill="#F4F4F5"/>
<path d="M262.193 140.664C261.801 142.015 260.592 142.999 259.166 142.999C257.421 142.999 256.004 141.527 256.004 139.714C256.004 138.652 256.489 137.709 257.241 137.108C257.365 137.123 257.491 137.131 257.617 137.131C258.355 137.131 259.038 136.881 259.589 136.457C260.143 136.531 260.654 136.762 261.081 137.098C261.01 137.378 260.972 137.673 260.972 137.975C260.972 139.057 261.448 140.024 262.195 140.666L262.193 140.664Z" fill="#F4F4F5"/>
<path d="M267.133 138.083C267.078 139.639 265.843 140.89 264.33 140.89C263.774 140.89 263.256 140.723 262.821 140.431C262.734 140.374 262.651 140.315 262.571 140.245C262.485 140.171 262.401 140.094 262.321 140.01C261.827 139.485 261.525 138.769 261.525 137.976C261.525 137.833 261.534 137.694 261.554 137.556C261.571 137.44 261.594 137.323 261.622 137.213C261.647 137.111 261.68 137.01 261.717 136.915C261.856 136.545 262.064 136.214 262.325 135.933C262.794 136.151 263.313 136.273 263.86 136.273C264.592 136.273 265.274 136.055 265.854 135.68C265.947 136.655 266.426 137.511 267.132 138.083H267.133Z" fill="#F4F4F5"/>
<path d="M272 135.333C272 136.941 270.744 138.25 269.197 138.25C268.639 138.25 268.117 138.08 267.681 137.785C267.577 137.717 267.481 137.642 267.386 137.559C267.259 137.448 267.142 137.322 267.036 137.191L267.033 137.188C266.786 136.879 266.602 136.517 266.496 136.122L266.493 136.118C266.447 135.953 266.419 135.782 266.401 135.605C266.392 135.516 266.391 135.426 266.391 135.333V135.262C266.391 135.262 266.404 135.25 266.41 135.244C267.036 134.653 267.466 133.845 267.598 132.939C268.052 132.61 268.605 132.42 269.197 132.42C270.744 132.42 272 133.726 272 135.333Z" fill="#F4F4F5"/>
<path d="M255.395 131.588C255.395 131.732 255.377 131.871 255.343 132.005C255.282 132.271 255.16 132.509 254.993 132.709C254.888 132.84 254.761 132.953 254.62 133.046C254.525 133.109 254.425 133.161 254.315 133.2C254.134 133.274 253.939 133.313 253.732 133.313C253.671 133.313 253.612 133.31 253.554 133.304C253.452 133.291 253.356 133.271 253.261 133.24C253.143 133.205 253.035 133.157 252.93 133.097C252.462 132.831 252.133 132.336 252.075 131.761C252.069 131.704 252.066 131.645 252.066 131.585C252.066 131.52 252.069 131.454 252.078 131.392C252.09 131.287 252.11 131.186 252.139 131.09C252.343 130.378 252.98 129.855 253.732 129.855C254.485 129.855 255.149 130.401 255.337 131.144C255.368 131.257 255.386 131.375 255.389 131.497C255.395 131.526 255.395 131.557 255.395 131.587V131.588Z" fill="#F4F4F5"/>
<path d="M267.086 132.351C267.086 132.447 267.083 132.539 267.075 132.632C267.063 132.78 267.039 132.93 267.011 133.073C267.011 133.076 267.008 133.076 267.008 133.076C266.879 133.694 266.584 134.246 266.177 134.682C266.1 134.765 266.018 134.845 265.933 134.916C265.906 134.94 265.881 134.961 265.853 134.981C265.801 135.026 265.749 135.068 265.691 135.107C265.603 135.173 265.508 135.233 265.413 135.289C264.951 135.555 264.421 135.703 263.857 135.703C263.493 135.703 263.14 135.641 262.813 135.522C262.71 135.487 262.609 135.445 262.51 135.397H262.507C262.414 135.352 262.325 135.301 262.239 135.247C261.68 134.91 261.226 134.4 260.945 133.79C260.744 133.354 260.633 132.864 260.633 132.351C260.633 132.304 260.633 132.253 260.633 132.206C260.709 130.425 262.126 129 263.855 129C265.585 129 267.084 130.502 267.084 132.351H267.086Z" fill="#F4F4F5"/>
<path d="M253.078 133.777C253.087 133.877 253.091 133.982 253.091 134.086C253.091 134.987 252.719 135.802 252.124 136.369C251.815 136.667 251.445 136.896 251.034 137.033C250.945 137.066 250.853 137.094 250.759 137.114C250.683 137.132 250.606 137.146 250.529 137.159C250.503 137.162 250.478 137.165 250.448 137.168C250.337 137.182 250.222 137.188 250.108 137.188C249.373 137.188 248.698 136.908 248.176 136.446C248.096 136.376 248.021 136.302 247.948 136.225C247.932 136.21 247.917 136.193 247.907 136.177C247.855 136.12 247.806 136.061 247.76 135.998C247.74 135.972 247.719 135.945 247.7 135.917C247.623 135.808 247.55 135.689 247.487 135.567C247.281 135.176 247.151 134.73 247.126 134.259C247.126 134.203 247.123 134.146 247.123 134.086C247.123 134.002 247.126 133.922 247.132 133.842C247.139 133.729 247.154 133.619 247.174 133.508C247.435 132.071 248.652 130.982 250.108 130.982C250.624 130.982 251.109 131.118 251.534 131.361C251.525 131.435 251.522 131.509 251.522 131.584C251.522 132.613 252.176 133.488 253.078 133.777Z" fill="#F4F4F5"/>
<path d="M260.084 132.354C260.084 132.904 260.193 133.425 260.39 133.899C260.334 134.686 259.97 135.387 259.421 135.873C259.306 135.975 259.183 136.068 259.053 136.148H259.037C259.037 136.148 259.034 136.148 259.034 136.151C258.615 136.414 258.145 136.565 257.618 136.565H257.553C257.398 136.562 257.25 136.545 257.102 136.514C255.814 136.261 254.836 135.083 254.836 133.675C254.836 133.643 254.836 133.613 254.839 133.581C255.501 133.183 255.945 132.44 255.945 131.59C255.945 131.519 255.944 131.445 255.935 131.374C256.402 131.003 256.988 130.783 257.618 130.783C258.689 130.783 259.619 131.415 260.084 132.34V132.354Z" fill="#F4F4F5"/>
<path d="M246.571 134.087C246.571 134.904 246.83 135.659 247.266 136.268C247.26 136.28 247.252 136.291 247.243 136.303C247.096 136.563 246.887 136.778 246.641 136.929C246.379 137.096 246.072 137.189 245.744 137.189C244.784 137.189 244 136.376 244 135.373C244 134.37 244.784 133.557 245.744 133.557C246.049 133.557 246.336 133.637 246.586 133.784C246.574 133.884 246.571 133.986 246.571 134.087Z" fill="#F4F4F5"/>
</g>
<path d="M84 52L253 52" stroke="url(#paint2_linear_5204_63546)" stroke-opacity="0.3" stroke-linecap="round"/>
<path d="M214 220L383 220" stroke="url(#paint3_linear_5204_63546)" stroke-opacity="0.3" stroke-linecap="round"/>
<defs>
<filter id="filter0_i_5204_63546" x="66" y="0" width="48" height="48" filterUnits="userSpaceOnUse" color-interpolation-filters="sRGB">
<feFlood flood-opacity="0" result="BackgroundImageFix"/>
<feBlend mode="normal" in="SourceGraphic" in2="BackgroundImageFix" result="shape"/>
<feColorMatrix in="SourceAlpha" type="matrix" values="0 0 0 0 0 0 0 0 0 0 0 0 0 0 0 0 0 0 127 0" result="hardAlpha"/>
<feOffset/>
<feGaussianBlur stdDeviation="2"/>
<feComposite in2="hardAlpha" operator="arithmetic" k2="-1" k3="1"/>
<feColorMatrix type="matrix" values="0 0 0 0 0.95 0 0 0 0 0.95 0 0 0 0 0.95 0 0 0 1 0"/>
<feBlend mode="normal" in2="shape" result="effect1_innerShadow_5204_63546"/>
</filter>
<filter id="filter1_i_5204_63546" x="66" y="112" width="48" height="104" filterUnits="userSpaceOnUse" color-interpolation-filters="sRGB">
<feFlood flood-opacity="0" result="BackgroundImageFix"/>
<feBlend mode="normal" in="SourceGraphic" in2="BackgroundImageFix" result="shape"/>
<feColorMatrix in="SourceAlpha" type="matrix" values="0 0 0 0 0 0 0 0 0 0 0 0 0 0 0 0 0 0 127 0" result="hardAlpha"/>
<feOffset/>
<feGaussianBlur stdDeviation="2"/>
<feComposite in2="hardAlpha" operator="arithmetic" k2="-1" k3="1"/>
<feColorMatrix type="matrix" values="0 0 0 0 0.95 0 0 0 0 0.95 0 0 0 0 0.95 0 0 0 1 0"/>
<feBlend mode="normal" in2="shape" result="effect1_innerShadow_5204_63546"/>
</filter>
<filter id="filter2_i_5204_63546" x="10" y="56" width="160" height="48" filterUnits="userSpaceOnUse" color-interpolation-filters="sRGB">
<feFlood flood-opacity="0" result="BackgroundImageFix"/>
<feBlend mode="normal" in="SourceGraphic" in2="BackgroundImageFix" result="shape"/>
<feColorMatrix in="SourceAlpha" type="matrix" values="0 0 0 0 0 0 0 0 0 0 0 0 0 0 0 0 0 0 127 0" result="hardAlpha"/>
<feOffset/>
<feGaussianBlur stdDeviation="2"/>
<feComposite in2="hardAlpha" operator="arithmetic" k2="-1" k3="1"/>
<feColorMatrix type="matrix" values="0 0 0 0 0.95 0 0 0 0 0.95 0 0 0 0 0.95 0 0 0 1 0"/>
<feBlend mode="normal" in2="shape" result="effect1_innerShadow_5204_63546"/>
</filter>
<filter id="filter3_i_5204_63546" x="66" y="280" width="160" height="48" filterUnits="userSpaceOnUse" color-interpolation-filters="sRGB">
<feFlood flood-opacity="0" result="BackgroundImageFix"/>
<feBlend mode="normal" in="SourceGraphic" in2="BackgroundImageFix" result="shape"/>
<feColorMatrix in="SourceAlpha" type="matrix" values="0 0 0 0 0 0 0 0 0 0 0 0 0 0 0 0 0 0 127 0" result="hardAlpha"/>
<feOffset/>
<feGaussianBlur stdDeviation="2"/>
<feComposite in2="hardAlpha" operator="arithmetic" k2="-1" k3="1"/>
<feColorMatrix type="matrix" values="0 0 0 0 0.95 0 0 0 0 0.95 0 0 0 0 0.95 0 0 0 1 0"/>
<feBlend mode="normal" in2="shape" result="effect1_innerShadow_5204_63546"/>
</filter>
<filter id="filter4_i_5204_63546" x="122" y="224" width="104" height="48" filterUnits="userSpaceOnUse" color-interpolation-filters="sRGB">
<feFlood flood-opacity="0" result="BackgroundImageFix"/>
<feBlend mode="normal" in="SourceGraphic" in2="BackgroundImageFix" result="shape"/>
<feColorMatrix in="SourceAlpha" type="matrix" values="0 0 0 0 0 0 0 0 0 0 0 0 0 0 0 0 0 0 127 0" result="hardAlpha"/>
<feOffset/>
<feGaussianBlur stdDeviation="2"/>
<feComposite in2="hardAlpha" operator="arithmetic" k2="-1" k3="1"/>
<feColorMatrix type="matrix" values="0 0 0 0 0.95 0 0 0 0 0.95 0 0 0 0 0.95 0 0 0 1 0"/>
<feBlend mode="normal" in2="shape" result="effect1_innerShadow_5204_63546"/>
</filter>
<filter id="filter5_i_5204_63546" x="402" y="280" width="104" height="48" filterUnits="userSpaceOnUse" color-interpolation-filters="sRGB">
<feFlood flood-opacity="0" result="BackgroundImageFix"/>
<feBlend mode="normal" in="SourceGraphic" in2="BackgroundImageFix" result="shape"/>
<feColorMatrix in="SourceAlpha" type="matrix" values="0 0 0 0 0 0 0 0 0 0 0 0 0 0 0 0 0 0 127 0" result="hardAlpha"/>
<feOffset/>
<feGaussianBlur stdDeviation="2"/>
<feComposite in2="hardAlpha" operator="arithmetic" k2="-1" k3="1"/>
<feColorMatrix type="matrix" values="0 0 0 0 0.95 0 0 0 0 0.95 0 0 0 0 0.95 0 0 0 1 0"/>
<feBlend mode="normal" in2="shape" result="effect1_innerShadow_5204_63546"/>
</filter>
<filter id="filter6_i_5204_63546" x="122" y="0" width="104" height="48" filterUnits="userSpaceOnUse" color-interpolation-filters="sRGB">
<feFlood flood-opacity="0" result="BackgroundImageFix"/>
<feBlend mode="normal" in="SourceGraphic" in2="BackgroundImageFix" result="shape"/>
<feColorMatrix in="SourceAlpha" type="matrix" values="0 0 0 0 0 0 0 0 0 0 0 0 0 0 0 0 0 0 127 0" result="hardAlpha"/>
<feOffset/>
<feGaussianBlur stdDeviation="2"/>
<feComposite in2="hardAlpha" operator="arithmetic" k2="-1" k3="1"/>
<feColorMatrix type="matrix" values="0 0 0 0 0.95 0 0 0 0 0.95 0 0 0 0 0.95 0 0 0 1 0"/>
<feBlend mode="normal" in2="shape" result="effect1_innerShadow_5204_63546"/>
</filter>
<filter id="filter7_i_5204_63546" x="402" y="168" width="48" height="48" filterUnits="userSpaceOnUse" color-interpolation-filters="sRGB">
<feFlood flood-opacity="0" result="BackgroundImageFix"/>
<feBlend mode="normal" in="SourceGraphic" in2="BackgroundImageFix" result="shape"/>
<feColorMatrix in="SourceAlpha" type="matrix" values="0 0 0 0 0 0 0 0 0 0 0 0 0 0 0 0 0 0 127 0" result="hardAlpha"/>
<feOffset/>
<feGaussianBlur stdDeviation="2"/>
<feComposite in2="hardAlpha" operator="arithmetic" k2="-1" k3="1"/>
<feColorMatrix type="matrix" values="0 0 0 0 0.95 0 0 0 0 0.95 0 0 0 0 0.95 0 0 0 1 0"/>
<feBlend mode="normal" in2="shape" result="effect1_innerShadow_5204_63546"/>
</filter>
<filter id="filter8_i_5204_63546" x="458" y="56" width="48" height="104" filterUnits="userSpaceOnUse" color-interpolation-filters="sRGB">
<feFlood flood-opacity="0" result="BackgroundImageFix"/>
<feBlend mode="normal" in="SourceGraphic" in2="BackgroundImageFix" result="shape"/>
<feColorMatrix in="SourceAlpha" type="matrix" values="0 0 0 0 0 0 0 0 0 0 0 0 0 0 0 0 0 0 127 0" result="hardAlpha"/>
<feOffset/>
<feGaussianBlur stdDeviation="2"/>
<feComposite in2="hardAlpha" operator="arithmetic" k2="-1" k3="1"/>
<feColorMatrix type="matrix" values="0 0 0 0 0.95 0 0 0 0 0.95 0 0 0 0 0.95 0 0 0 1 0"/>
<feBlend mode="normal" in2="shape" result="effect1_innerShadow_5204_63546"/>
</filter>
<filter id="filter9_i_5204_63546" x="10" y="168" width="48" height="48" filterUnits="userSpaceOnUse" color-interpolation-filters="sRGB">
<feFlood flood-opacity="0" result="BackgroundImageFix"/>
<feBlend mode="normal" in="SourceGraphic" in2="BackgroundImageFix" result="shape"/>
<feColorMatrix in="SourceAlpha" type="matrix" values="0 0 0 0 0 0 0 0 0 0 0 0 0 0 0 0 0 0 127 0" result="hardAlpha"/>
<feOffset/>
<feGaussianBlur stdDeviation="2"/>
<feComposite in2="hardAlpha" operator="arithmetic" k2="-1" k3="1"/>
<feColorMatrix type="matrix" values="0 0 0 0 0.95 0 0 0 0 0.95 0 0 0 0 0.95 0 0 0 1 0"/>
<feBlend mode="normal" in2="shape" result="effect1_innerShadow_5204_63546"/>
</filter>
<filter id="filter10_i_5204_63546" x="234" y="56" width="48" height="48" filterUnits="userSpaceOnUse" color-interpolation-filters="sRGB">
<feFlood flood-opacity="0" result="BackgroundImageFix"/>
<feBlend mode="normal" in="SourceGraphic" in2="BackgroundImageFix" result="shape"/>
<feColorMatrix in="SourceAlpha" type="matrix" values="0 0 0 0 0 0 0 0 0 0 0 0 0 0 0 0 0 0 127 0" result="hardAlpha"/>
<feOffset/>
<feGaussianBlur stdDeviation="2"/>
<feComposite in2="hardAlpha" operator="arithmetic" k2="-1" k3="1"/>
<feColorMatrix type="matrix" values="0 0 0 0 0.95 0 0 0 0 0.95 0 0 0 0 0.95 0 0 0 1 0"/>
<feBlend mode="normal" in2="shape" result="effect1_innerShadow_5204_63546"/>
</filter>
<filter id="filter11_i_5204_63546" x="290" y="224" width="104" height="48" filterUnits="userSpaceOnUse" color-interpolation-filters="sRGB">
<feFlood flood-opacity="0" result="BackgroundImageFix"/>
<feBlend mode="normal" in="SourceGraphic" in2="BackgroundImageFix" result="shape"/>
<feColorMatrix in="SourceAlpha" type="matrix" values="0 0 0 0 0 0 0 0 0 0 0 0 0 0 0 0 0 0 127 0" result="hardAlpha"/>
<feOffset/>
<feGaussianBlur stdDeviation="2"/>
<feComposite in2="hardAlpha" operator="arithmetic" k2="-1" k3="1"/>
<feColorMatrix type="matrix" values="0 0 0 0 0.95 0 0 0 0 0.95 0 0 0 0 0.95 0 0 0 1 0"/>
<feBlend mode="normal" in2="shape" result="effect1_innerShadow_5204_63546"/>
</filter>
<filter id="filter12_i_5204_63546" x="290" y="0" width="160" height="48" filterUnits="userSpaceOnUse" color-interpolation-filters="sRGB">
<feFlood flood-opacity="0" result="BackgroundImageFix"/>
<feBlend mode="normal" in="SourceGraphic" in2="BackgroundImageFix" result="shape"/>
<feColorMatrix in="SourceAlpha" type="matrix" values="0 0 0 0 0 0 0 0 0 0 0 0 0 0 0 0 0 0 127 0" result="hardAlpha"/>
<feOffset/>
<feGaussianBlur stdDeviation="2"/>
<feComposite in2="hardAlpha" operator="arithmetic" k2="-1" k3="1"/>
<feColorMatrix type="matrix" values="0 0 0 0 0.95 0 0 0 0 0.95 0 0 0 0 0.95 0 0 0 1 0"/>
<feBlend mode="normal" in2="shape" result="effect1_innerShadow_5204_63546"/>
</filter>
<filter id="filter13_i_5204_63546" x="178" y="112" width="48" height="48" filterUnits="userSpaceOnUse" color-interpolation-filters="sRGB">
<feFlood flood-opacity="0" result="BackgroundImageFix"/>
<feBlend mode="normal" in="SourceGraphic" in2="BackgroundImageFix" result="shape"/>
<feColorMatrix in="SourceAlpha" type="matrix" values="0 0 0 0 0 0 0 0 0 0 0 0 0 0 0 0 0 0 127 0" result="hardAlpha"/>
<feOffset/>
<feGaussianBlur stdDeviation="2"/>
<feComposite in2="hardAlpha" operator="arithmetic" k2="-1" k3="1"/>
<feColorMatrix type="matrix" values="0 0 0 0 0.95 0 0 0 0 0.95 0 0 0 0 0.95 0 0 0 1 0"/>
<feBlend mode="normal" in2="shape" result="effect1_innerShadow_5204_63546"/>
</filter>
<filter id="filter14_i_5204_63546" x="122" y="168" width="160" height="48" filterUnits="userSpaceOnUse" color-interpolation-filters="sRGB">
<feFlood flood-opacity="0" result="BackgroundImageFix"/>
<feBlend mode="normal" in="SourceGraphic" in2="BackgroundImageFix" result="shape"/>
<feColorMatrix in="SourceAlpha" type="matrix" values="0 0 0 0 0 0 0 0 0 0 0 0 0 0 0 0 0 0 127 0" result="hardAlpha"/>
<feOffset/>
<feGaussianBlur stdDeviation="2"/>
<feComposite in2="hardAlpha" operator="arithmetic" k2="-1" k3="1"/>
<feColorMatrix type="matrix" values="0 0 0 0 0.95 0 0 0 0 0.95 0 0 0 0 0.95 0 0 0 1 0"/>
<feBlend mode="normal" in2="shape" result="effect1_innerShadow_5204_63546"/>
</filter>
<filter id="filter15_i_5204_63546" x="10" y="224" width="48" height="104" filterUnits="userSpaceOnUse" color-interpolation-filters="sRGB">
<feFlood flood-opacity="0" result="BackgroundImageFix"/>
<feBlend mode="normal" in="SourceGraphic" in2="BackgroundImageFix" result="shape"/>
<feColorMatrix in="SourceAlpha" type="matrix" values="0 0 0 0 0 0 0 0 0 0 0 0 0 0 0 0 0 0 127 0" result="hardAlpha"/>
<feOffset/>
<feGaussianBlur stdDeviation="2"/>
<feComposite in2="hardAlpha" operator="arithmetic" k2="-1" k3="1"/>
<feColorMatrix type="matrix" values="0 0 0 0 0.95 0 0 0 0 0.95 0 0 0 0 0.95 0 0 0 1 0"/>
<feBlend mode="normal" in2="shape" result="effect1_innerShadow_5204_63546"/>
</filter>
<filter id="filter16_i_5204_63546" x="346" y="280" width="48" height="48" filterUnits="userSpaceOnUse" color-interpolation-filters="sRGB">
<feFlood flood-opacity="0" result="BackgroundImageFix"/>
<feBlend mode="normal" in="SourceGraphic" in2="BackgroundImageFix" result="shape"/>
<feColorMatrix in="SourceAlpha" type="matrix" values="0 0 0 0 0 0 0 0 0 0 0 0 0 0 0 0 0 0 127 0" result="hardAlpha"/>
<feOffset/>
<feGaussianBlur stdDeviation="2"/>
<feComposite in2="hardAlpha" operator="arithmetic" k2="-1" k3="1"/>
<feColorMatrix type="matrix" values="0 0 0 0 0.95 0 0 0 0 0.95 0 0 0 0 0.95 0 0 0 1 0"/>
<feBlend mode="normal" in2="shape" result="effect1_innerShadow_5204_63546"/>
</filter>
<filter id="filter17_i_5204_63546" x="290" y="280" width="48" height="48" filterUnits="userSpaceOnUse" color-interpolation-filters="sRGB">
<feFlood flood-opacity="0" result="BackgroundImageFix"/>
<feBlend mode="normal" in="SourceGraphic" in2="BackgroundImageFix" result="shape"/>
<feColorMatrix in="SourceAlpha" type="matrix" values="0 0 0 0 0 0 0 0 0 0 0 0 0 0 0 0 0 0 127 0" result="hardAlpha"/>
<feOffset/>
<feGaussianBlur stdDeviation="2"/>
<feComposite in2="hardAlpha" operator="arithmetic" k2="-1" k3="1"/>
<feColorMatrix type="matrix" values="0 0 0 0 0.95 0 0 0 0 0.95 0 0 0 0 0.95 0 0 0 1 0"/>
<feBlend mode="normal" in2="shape" result="effect1_innerShadow_5204_63546"/>
</filter>
<filter id="filter18_i_5204_63546" x="10" y="0" width="48" height="48" filterUnits="userSpaceOnUse" color-interpolation-filters="sRGB">
<feFlood flood-opacity="0" result="BackgroundImageFix"/>
<feBlend mode="normal" in="SourceGraphic" in2="BackgroundImageFix" result="shape"/>
<feColorMatrix in="SourceAlpha" type="matrix" values="0 0 0 0 0 0 0 0 0 0 0 0 0 0 0 0 0 0 127 0" result="hardAlpha"/>
<feOffset/>
<feGaussianBlur stdDeviation="2"/>
<feComposite in2="hardAlpha" operator="arithmetic" k2="-1" k3="1"/>
<feColorMatrix type="matrix" values="0 0 0 0 0.95 0 0 0 0 0.95 0 0 0 0 0.95 0 0 0 1 0"/>
<feBlend mode="normal" in2="shape" result="effect1_innerShadow_5204_63546"/>
</filter>
<filter id="filter19_i_5204_63546" x="234" y="224" width="48" height="104" filterUnits="userSpaceOnUse" color-interpolation-filters="sRGB">
<feFlood flood-opacity="0" result="BackgroundImageFix"/>
<feBlend mode="normal" in="SourceGraphic" in2="BackgroundImageFix" result="shape"/>
<feColorMatrix in="SourceAlpha" type="matrix" values="0 0 0 0 0 0 0 0 0 0 0 0 0 0 0 0 0 0 127 0" result="hardAlpha"/>
<feOffset/>
<feGaussianBlur stdDeviation="2"/>
<feComposite in2="hardAlpha" operator="arithmetic" k2="-1" k3="1"/>
<feColorMatrix type="matrix" values="0 0 0 0 0.95 0 0 0 0 0.95 0 0 0 0 0.95 0 0 0 1 0"/>
<feBlend mode="normal" in2="shape" result="effect1_innerShadow_5204_63546"/>
</filter>
<filter id="filter20_i_5204_63546" x="234" y="0" width="48" height="48" filterUnits="userSpaceOnUse" color-interpolation-filters="sRGB">
<feFlood flood-opacity="0" result="BackgroundImageFix"/>
<feBlend mode="normal" in="SourceGraphic" in2="BackgroundImageFix" result="shape"/>
<feColorMatrix in="SourceAlpha" type="matrix" values="0 0 0 0 0 0 0 0 0 0 0 0 0 0 0 0 0 0 127 0" result="hardAlpha"/>
<feOffset/>
<feGaussianBlur stdDeviation="2"/>
<feComposite in2="hardAlpha" operator="arithmetic" k2="-1" k3="1"/>
<feColorMatrix type="matrix" values="0 0 0 0 0.95 0 0 0 0 0.95 0 0 0 0 0.95 0 0 0 1 0"/>
<feBlend mode="normal" in2="shape" result="effect1_innerShadow_5204_63546"/>
</filter>
<filter id="filter21_i_5204_63546" x="290" y="56" width="48" height="104" filterUnits="userSpaceOnUse" color-interpolation-filters="sRGB">
<feFlood flood-opacity="0" result="BackgroundImageFix"/>
<feBlend mode="normal" in="SourceGraphic" in2="BackgroundImageFix" result="shape"/>
<feColorMatrix in="SourceAlpha" type="matrix" values="0 0 0 0 0 0 0 0 0 0 0 0 0 0 0 0 0 0 127 0" result="hardAlpha"/>
<feOffset/>
<feGaussianBlur stdDeviation="2"/>
<feComposite in2="hardAlpha" operator="arithmetic" k2="-1" k3="1"/>
<feColorMatrix type="matrix" values="0 0 0 0 0.95 0 0 0 0 0.95 0 0 0 0 0.95 0 0 0 1 0"/>
<feBlend mode="normal" in2="shape" result="effect1_innerShadow_5204_63546"/>
</filter>
<filter id="filter22_i_5204_63546" x="402" y="56" width="48" height="48" filterUnits="userSpaceOnUse" color-interpolation-filters="sRGB">
<feFlood flood-opacity="0" result="BackgroundImageFix"/>
<feBlend mode="normal" in="SourceGraphic" in2="BackgroundImageFix" result="shape"/>
<feColorMatrix in="SourceAlpha" type="matrix" values="0 0 0 0 0 0 0 0 0 0 0 0 0 0 0 0 0 0 127 0" result="hardAlpha"/>
<feOffset/>
<feGaussianBlur stdDeviation="2"/>
<feComposite in2="hardAlpha" operator="arithmetic" k2="-1" k3="1"/>
<feColorMatrix type="matrix" values="0 0 0 0 0.95 0 0 0 0 0.95 0 0 0 0 0.95 0 0 0 1 0"/>
<feBlend mode="normal" in2="shape" result="effect1_innerShadow_5204_63546"/>
</filter>
<filter id="filter23_i_5204_63546" x="458" y="168" width="48" height="48" filterUnits="userSpaceOnUse" color-interpolation-filters="sRGB">
<feFlood flood-opacity="0" result="BackgroundImageFix"/>
<feBlend mode="normal" in="SourceGraphic" in2="BackgroundImageFix" result="shape"/>
<feColorMatrix in="SourceAlpha" type="matrix" values="0 0 0 0 0 0 0 0 0 0 0 0 0 0 0 0 0 0 127 0" result="hardAlpha"/>
<feOffset/>
<feGaussianBlur stdDeviation="2"/>
<feComposite in2="hardAlpha" operator="arithmetic" k2="-1" k3="1"/>
<feColorMatrix type="matrix" values="0 0 0 0 0.95 0 0 0 0 0.95 0 0 0 0 0.95 0 0 0 1 0"/>
<feBlend mode="normal" in2="shape" result="effect1_innerShadow_5204_63546"/>
</filter>
<filter id="filter24_i_5204_63546" x="458" y="224" width="48" height="48" filterUnits="userSpaceOnUse" color-interpolation-filters="sRGB">
<feFlood flood-opacity="0" result="BackgroundImageFix"/>
<feBlend mode="normal" in="SourceGraphic" in2="BackgroundImageFix" result="shape"/>
<feColorMatrix in="SourceAlpha" type="matrix" values="0 0 0 0 0 0 0 0 0 0 0 0 0 0 0 0 0 0 127 0" result="hardAlpha"/>
<feOffset/>
<feGaussianBlur stdDeviation="2"/>
<feComposite in2="hardAlpha" operator="arithmetic" k2="-1" k3="1"/>
<feColorMatrix type="matrix" values="0 0 0 0 0.95 0 0 0 0 0.95 0 0 0 0 0.95 0 0 0 1 0"/>
<feBlend mode="normal" in2="shape" result="effect1_innerShadow_5204_63546"/>
</filter>
<filter id="filter25_i_5204_63546" x="458" y="0" width="48" height="48" filterUnits="userSpaceOnUse" color-interpolation-filters="sRGB">
<feFlood flood-opacity="0" result="BackgroundImageFix"/>
<feBlend mode="normal" in="SourceGraphic" in2="BackgroundImageFix" result="shape"/>
<feColorMatrix in="SourceAlpha" type="matrix" values="0 0 0 0 0 0 0 0 0 0 0 0 0 0 0 0 0 0 127 0" result="hardAlpha"/>
<feOffset/>
<feGaussianBlur stdDeviation="2"/>
<feComposite in2="hardAlpha" operator="arithmetic" k2="-1" k3="1"/>
<feColorMatrix type="matrix" values="0 0 0 0 0.95 0 0 0 0 0.95 0 0 0 0 0.95 0 0 0 1 0"/>
<feBlend mode="normal" in2="shape" result="effect1_innerShadow_5204_63546"/>
</filter>
<filter id="filter26_i_5204_63546" x="346" y="112" width="48" height="104" filterUnits="userSpaceOnUse" color-interpolation-filters="sRGB">
<feFlood flood-opacity="0" result="BackgroundImageFix"/>
<feBlend mode="normal" in="SourceGraphic" in2="BackgroundImageFix" result="shape"/>
<feColorMatrix in="SourceAlpha" type="matrix" values="0 0 0 0 0 0 0 0 0 0 0 0 0 0 0 0 0 0 127 0" result="hardAlpha"/>
<feOffset/>
<feGaussianBlur stdDeviation="2"/>
<feComposite in2="hardAlpha" operator="arithmetic" k2="-1" k3="1"/>
<feColorMatrix type="matrix" values="0 0 0 0 0.95 0 0 0 0 0.95 0 0 0 0 0.95 0 0 0 1 0"/>
<feBlend mode="normal" in2="shape" result="effect1_innerShadow_5204_63546"/>
</filter>
<filter id="filter27_dd_5204_63546" x="206" y="94" width="104" height="104" filterUnits="userSpaceOnUse" color-interpolation-filters="sRGB">
<feFlood flood-opacity="0" result="BackgroundImageFix"/>
<feColorMatrix in="SourceAlpha" type="matrix" values="0 0 0 0 0 0 0 0 0 0 0 0 0 0 0 0 0 0 127 0" result="hardAlpha"/>
<feMorphology radius="4" operator="erode" in="SourceAlpha" result="effect1_dropShadow_5204_63546"/>
<feOffset dy="4"/>
<feGaussianBlur stdDeviation="8"/>
<feComposite in2="hardAlpha" operator="out"/>
<feColorMatrix type="matrix" values="0 0 0 0 0.0627451 0 0 0 0 0.0588235 0 0 0 0 0.145098 0 0 0 0.45 0"/>
<feBlend mode="normal" in2="BackgroundImageFix" result="effect1_dropShadow_5204_63546"/>
<feColorMatrix in="SourceAlpha" type="matrix" values="0 0 0 0 0 0 0 0 0 0 0 0 0 0 0 0 0 0 127 0" result="hardAlpha"/>
<feMorphology radius="4" operator="erode" in="SourceAlpha" result="effect2_dropShadow_5204_63546"/>
<feOffset dy="10"/>
<feGaussianBlur stdDeviation="16"/>
<feComposite in2="hardAlpha" operator="out"/>
<feColorMatrix type="matrix" values="0 0 0 0 0.0627451 0 0 0 0 0.0588235 0 0 0 0 0.141176 0 0 0 0.4 0"/>
<feBlend mode="normal" in2="effect1_dropShadow_5204_63546" result="effect2_dropShadow_5204_63546"/>
<feBlend mode="normal" in="SourceGraphic" in2="effect2_dropShadow_5204_63546" result="shape"/>
</filter>
<linearGradient id="paint0_linear_5204_63546" x1="454" y1="193.5" x2="454" y2="66" gradientUnits="userSpaceOnUse">
<stop stop-color="#FAFAFA"/>
<stop offset="0.534678" stop-color="#266AE9"/>
<stop offset="1" stop-color="#FAFAFA"/>
</linearGradient>
<linearGradient id="paint1_linear_5204_63546" x1="118" y1="273.5" x2="118" y2="146" gradientUnits="userSpaceOnUse">
<stop stop-color="#FAFAFA"/>
<stop offset="0.534678" stop-color="#266AE9"/>
<stop offset="1" stop-color="#FAFAFA"/>
</linearGradient>
<linearGradient id="paint2_linear_5204_63546" x1="211.5" y1="52" x2="84" y2="52" gradientUnits="userSpaceOnUse">
<stop stop-color="#FAFAFA"/>
<stop offset="0.534678" stop-color="#266AE9"/>
<stop offset="1" stop-color="#FAFAFA"/>
</linearGradient>
<linearGradient id="paint3_linear_5204_63546" x1="341.5" y1="220" x2="214" y2="220" gradientUnits="userSpaceOnUse">
<stop stop-color="#FAFAFA"/>
<stop offset="0.534678" stop-color="#266AE9"/>
<stop offset="1" stop-color="#FAFAFA"/>
</linearGradient>
</defs>
</svg>
