<svg width="1044" height="438" viewBox="0 0 1044 438" fill="none" xmlns="http://www.w3.org/2000/svg">
<path d="M104 272L104 237C104 231.477 108.477 227 114 227H512C517.523 227 522 222.523 522 217V192" stroke="url(#paint0_linear_5204_63613)" stroke-linecap="round" stroke-linejoin="round"/>
<path d="M649 271.5V237C649 231.477 644.523 227 639 227H532C526.477 227 522 222.523 522 217V192" stroke="url(#paint1_linear_5204_63613)" stroke-linecap="round" stroke-linejoin="round"/>
<path d="M940 272L940 237C940 231.477 935.523 227 930 227H532C526.477 227 522 222.523 522 217V192" stroke="url(#paint2_linear_5204_63613)" stroke-linecap="round" stroke-linejoin="round"/>
<path d="M390.5 271.5V237C390.5 231.477 394.977 227 400.5 227H512C517.523 227 522 222.523 522 217V192" stroke="url(#paint3_linear_5204_63613)" stroke-linecap="round" stroke-linejoin="round"/>
<path d="M104 38L104 72.9999C104 78.5228 108.477 83 114 83H512C517.523 83 522 87.4772 522 93V118" stroke="url(#paint4_linear_5204_63613)" stroke-linecap="round" stroke-linejoin="round"/>
<path d="M649 38.5V73C649 78.5228 644.523 83 639 83H532C526.477 83 522 87.4772 522 93V118" stroke="url(#paint5_linear_5204_63613)" stroke-linecap="round" stroke-linejoin="round"/>
<path d="M940 38L940 72.9999C940 78.5228 935.523 83 930 83H532C526.477 83 522 87.4772 522 93V118" stroke="url(#paint6_linear_5204_63613)" stroke-linecap="round" stroke-linejoin="round"/>
<path d="M390.5 38.5V73C390.5 78.5228 394.977 83 400.5 83H512C517.523 83 522 87.4772 522 93V118" stroke="url(#paint7_linear_5204_63613)" stroke-linecap="round" stroke-linejoin="round"/>
<g filter="url(#filter0_d_5204_63613)">
<rect x="271" y="272" width="243" height="150" rx="12" fill="#FCFCFC" shape-rendering="crispEdges"/>
<rect x="271.5" y="272.5" width="242" height="149" rx="11.5" stroke="#F4F4F5" shape-rendering="crispEdges"/>
<rect x="287" y="288" width="122" height="16" rx="4" fill="#F4F4F5"/>
<rect x="450" y="288" width="20" height="20" rx="4" fill="#F4F4F5"/>
<rect x="478" y="288" width="20" height="20" rx="4" fill="#F4F4F5"/>
<rect x="287" y="312" width="80" height="20" rx="6" fill="#F4F4F5"/>
<rect x="418" y="312" width="80" height="20" rx="6" fill="#F4F4F5"/>
<rect x="287" y="344" width="40" height="16" rx="4" fill="#F4F4F5"/>
<rect x="335" y="344" width="76" height="16" rx="4" fill="#F4F4F5"/>
<rect x="419" y="344" width="78" height="16" rx="4" fill="#F4F4F5"/>
<rect x="287" y="368" width="76" height="16" rx="4" fill="#F4F4F5"/>
<rect x="371" y="368" width="40" height="16" rx="4" fill="#F4F4F5"/>
<rect x="419" y="368" width="78" height="16" rx="4" fill="#F4F4F5"/>
<g filter="url(#filter1_dd_5204_63613)">
<mask id="path-22-inside-1_5204_63613" fill="white">
<path d="M365 272C365 258.745 375.745 248 389 248C402.255 248 413 258.745 413 272C413 285.255 402.255 296 389 296C375.745 296 365 285.255 365 272Z"/>
</mask>
<path d="M365 272C365 258.745 375.745 248 389 248C402.255 248 413 258.745 413 272C413 285.255 402.255 296 389 296C375.745 296 365 285.255 365 272Z" fill="#FAFAFA"/>
<path d="M389 296V295C376.297 295 366 284.703 366 272H365H364C364 285.807 375.193 297 389 297V296ZM413 272H412C412 284.703 401.703 295 389 295V296V297C402.807 297 414 285.807 414 272H413ZM389 248V249C401.703 249 412 259.297 412 272H413H414C414 258.193 402.807 247 389 247V248ZM389 248V247C375.193 247 364 258.193 364 272H365H366C366 259.297 376.297 249 389 249V248Z" fill="#E4E4E7" mask="url(#path-22-inside-1_5204_63613)"/>
<path d="M392.909 280.665C392.712 280.666 392.519 280.61 392.349 280.504C392.179 280.398 392.039 280.245 391.943 280.061L390.064 276.589C389.989 276.45 389.969 276.285 390.008 276.13C390.047 275.975 390.141 275.843 390.272 275.763C390.402 275.683 390.556 275.662 390.701 275.703C390.846 275.745 390.97 275.846 391.045 275.985L392.924 279.457L393.392 278.232C393.489 277.997 393.654 277.801 393.863 277.673C394.072 277.546 394.315 277.493 394.554 277.523L395.791 277.685L393.528 273.52C393.49 273.451 393.466 273.375 393.457 273.296C393.447 273.218 393.452 273.138 393.471 273.061C393.49 272.984 393.524 272.913 393.569 272.85C393.614 272.787 393.671 272.734 393.735 272.694C393.8 272.655 393.871 272.629 393.944 272.618C394.018 272.608 394.093 272.613 394.165 272.634C394.237 272.655 394.304 272.69 394.363 272.738C394.422 272.787 394.471 272.847 394.509 272.916L396.772 277.088C396.875 277.282 396.926 277.502 396.919 277.725C396.912 277.947 396.847 278.163 396.732 278.349C396.618 278.535 396.457 278.683 396.268 278.778C396.08 278.872 395.87 278.909 395.663 278.885L394.426 278.716L393.95 279.932C393.869 280.139 393.734 280.318 393.562 280.448C393.39 280.577 393.187 280.653 392.977 280.665H392.909Z" fill="#18181B"/>
<path d="M384.755 280.665H384.689C384.459 280.651 384.237 280.571 384.048 280.433C383.86 280.295 383.712 280.104 383.623 279.883L383.086 278.577L381.747 278.757C381.52 278.788 381.29 278.752 381.082 278.653C380.875 278.555 380.698 278.397 380.573 278.199C380.454 277.997 380.391 277.765 380.391 277.529C380.391 277.292 380.454 277.06 380.573 276.858L383.053 272.399C383.135 272.251 383.27 272.143 383.429 272.098C383.588 272.054 383.757 272.077 383.9 272.162C384.042 272.248 384.146 272.389 384.189 272.554C384.232 272.719 384.209 272.895 384.127 273.043L381.647 277.494L382.995 277.314C383.257 277.278 383.524 277.333 383.753 277.47C383.983 277.606 384.164 277.817 384.268 278.07L384.805 279.376L386.822 275.673C386.904 275.524 387.04 275.416 387.198 275.372C387.357 275.328 387.527 275.351 387.669 275.436C387.812 275.522 387.916 275.663 387.958 275.828C388.001 275.993 387.979 276.169 387.896 276.317L385.813 280.02C385.709 280.216 385.555 280.379 385.369 280.493C385.183 280.606 384.971 280.666 384.755 280.665Z" fill="#18181B"/>
<path d="M388.927 277.444C388.362 277.444 387.821 277.221 387.419 276.822L386.674 276.072C386.596 275.991 386.502 275.927 386.399 275.883C386.296 275.839 386.185 275.816 386.073 275.816H385.226C384.663 275.814 384.123 275.587 383.725 275.187C383.327 274.786 383.102 274.243 383.1 273.676V272.824C383.102 272.704 383.079 272.585 383.032 272.475C382.986 272.365 382.916 272.266 382.829 272.185L382.075 271.434C381.679 271.03 381.457 270.485 381.457 269.917C381.455 269.638 381.508 269.36 381.612 269.101C381.717 268.843 381.872 268.607 382.067 268.408L382.829 267.65C382.908 267.57 382.97 267.476 383.012 267.372C383.054 267.268 383.075 267.157 383.075 267.044V266.192C383.071 265.909 383.123 265.628 383.228 265.366C383.333 265.104 383.488 264.864 383.685 264.663C383.881 264.461 384.116 264.3 384.374 264.189C384.633 264.079 384.911 264.021 385.192 264.018H386.039C386.15 264.019 386.261 263.997 386.364 263.955C386.467 263.913 386.561 263.85 386.64 263.771L387.419 263.029C387.826 262.635 388.37 262.414 388.935 262.414C389.501 262.414 390.044 262.635 390.451 263.029L391.196 263.78C391.275 263.859 391.369 263.921 391.473 263.964C391.576 264.006 391.686 264.027 391.798 264.027H392.645C393.209 264.029 393.75 264.256 394.148 264.659C394.547 265.062 394.77 265.607 394.77 266.175V267.027C394.77 267.14 394.791 267.251 394.833 267.355C394.875 267.458 394.937 267.553 395.016 267.633L395.77 268.391C396.164 268.795 396.385 269.338 396.385 269.904C396.385 270.47 396.164 271.014 395.77 271.417L395.016 272.167C394.936 272.248 394.874 272.344 394.831 272.449C394.789 272.555 394.768 272.668 394.77 272.781V273.634C394.775 273.916 394.724 274.197 394.62 274.46C394.516 274.723 394.362 274.963 394.166 275.166C393.97 275.368 393.736 275.53 393.478 275.642C393.22 275.753 392.942 275.813 392.661 275.816H391.815C391.703 275.816 391.592 275.839 391.488 275.883C391.385 275.927 391.292 275.991 391.213 276.072L390.468 276.822C390.265 277.023 390.024 277.182 389.76 277.289C389.495 277.396 389.212 277.449 388.927 277.444ZM385.192 265.297C384.967 265.297 384.752 265.387 384.593 265.547C384.434 265.706 384.345 265.923 384.345 266.149V267.002C384.346 267.282 384.292 267.559 384.186 267.818C384.08 268.077 383.924 268.313 383.727 268.511L382.981 269.269C382.901 269.348 382.838 269.442 382.794 269.546C382.751 269.65 382.728 269.762 382.727 269.874C382.727 269.989 382.749 270.102 382.793 270.207C382.836 270.313 382.9 270.408 382.981 270.488L383.727 271.238C383.925 271.437 384.081 271.674 384.187 271.934C384.293 272.195 384.347 272.474 384.345 272.756V273.608C384.345 273.834 384.434 274.051 384.593 274.211C384.752 274.371 384.967 274.46 385.192 274.46H386.039C386.318 274.459 386.594 274.514 386.852 274.623C387.109 274.731 387.343 274.89 387.538 275.091L388.283 275.841C388.448 275.998 388.666 276.085 388.893 276.085C389.119 276.085 389.338 275.998 389.503 275.841L390.248 275.091C390.443 274.89 390.676 274.731 390.934 274.623C391.191 274.514 391.468 274.459 391.747 274.46H392.594C392.818 274.46 393.034 274.371 393.193 274.211C393.351 274.051 393.441 273.834 393.441 273.608V272.756C393.439 272.474 393.492 272.195 393.598 271.934C393.704 271.674 393.861 271.437 394.059 271.238L394.813 270.488C394.893 270.409 394.957 270.314 395.001 270.209C395.045 270.105 395.067 269.992 395.067 269.879C395.067 269.765 395.045 269.653 395.001 269.548C394.957 269.443 394.893 269.349 394.813 269.269L394.059 268.511C393.862 268.313 393.706 268.077 393.6 267.818C393.494 267.559 393.44 267.282 393.441 267.002V266.149C393.441 265.923 393.351 265.706 393.193 265.547C393.034 265.387 392.818 265.297 392.594 265.297H391.747C391.469 265.298 391.193 265.243 390.936 265.137C390.678 265.03 390.445 264.873 390.248 264.675L389.503 263.925C389.424 263.842 389.329 263.776 389.224 263.732C389.119 263.687 389.007 263.664 388.893 263.664C388.779 263.664 388.666 263.687 388.562 263.732C388.457 263.776 388.362 263.842 388.283 263.925L387.538 264.675C387.341 264.873 387.107 265.03 386.85 265.137C386.593 265.243 386.317 265.298 386.039 265.297H385.192Z" fill="#18181B"/>
<path d="M388.236 272.076C388.071 272.074 387.912 272.004 387.793 271.88L386.434 270.397C386.319 270.272 386.254 270.103 386.254 269.927C386.254 269.75 386.319 269.581 386.434 269.456C386.551 269.333 386.708 269.264 386.872 269.264C387.035 269.264 387.192 269.333 387.31 269.456L388.236 270.468L390.529 267.973C390.647 267.85 390.804 267.781 390.968 267.781C391.131 267.781 391.288 267.85 391.406 267.973C391.521 268.098 391.585 268.267 391.585 268.444C391.585 268.62 391.521 268.79 391.406 268.914L388.67 271.88C388.554 272.004 388.398 272.074 388.236 272.076Z" fill="#18181B"/>
</g>
</g>
<g filter="url(#filter2_d_5204_63613)">
<rect x="12" y="272" width="243" height="150" rx="12" fill="#FCFCFC" shape-rendering="crispEdges"/>
<rect x="12.5" y="272.5" width="242" height="149" rx="11.5" stroke="#F4F4F5" shape-rendering="crispEdges"/>
<rect x="28" y="288" width="122" height="16" rx="4" fill="#F4F4F5"/>
<rect x="191" y="288" width="20" height="20" rx="4" fill="#F4F4F5"/>
<rect x="219" y="288" width="20" height="20" rx="4" fill="#F4F4F5"/>
<rect x="28" y="312" width="80" height="20" rx="6" fill="#F4F4F5"/>
<rect x="159" y="312" width="80" height="20" rx="6" fill="#F4F4F5"/>
<rect x="28" y="344" width="40" height="16" rx="4" fill="#F4F4F5"/>
<rect x="76" y="344" width="76" height="16" rx="4" fill="#F4F4F5"/>
<rect x="160" y="344" width="78" height="16" rx="4" fill="#F4F4F5"/>
<rect x="28" y="368" width="76" height="16" rx="4" fill="#F4F4F5"/>
<rect x="112" y="368" width="40" height="16" rx="4" fill="#F4F4F5"/>
<rect x="160" y="368" width="78" height="16" rx="4" fill="#F4F4F5"/>
<g filter="url(#filter3_dd_5204_63613)">
<mask id="path-41-inside-2_5204_63613" fill="white">
<path d="M106 272C106 258.745 116.745 248 130 248C143.255 248 154 258.745 154 272C154 285.255 143.255 296 130 296C116.745 296 106 285.255 106 272Z"/>
</mask>
<path d="M106 272C106 258.745 116.745 248 130 248C143.255 248 154 258.745 154 272C154 285.255 143.255 296 130 296C116.745 296 106 285.255 106 272Z" fill="white"/>
<path d="M130 296V295C117.297 295 107 284.703 107 272H106H105C105 285.807 116.193 297 130 297V296ZM154 272H153C153 284.703 142.703 295 130 295V296V297C143.807 297 155 285.807 155 272H154ZM130 248V249C142.703 249 153 259.297 153 272H154H155C155 258.193 143.807 247 130 247V248ZM130 248V247C116.193 247 105 258.193 105 272H106H107C107 259.297 117.297 249 130 249V248Z" fill="#F4F4F5" mask="url(#path-41-inside-2_5204_63613)"/>
<path d="M133.909 280.665C133.712 280.666 133.519 280.61 133.349 280.504C133.179 280.398 133.039 280.245 132.943 280.061L131.064 276.589C130.989 276.45 130.969 276.285 131.008 276.13C131.047 275.975 131.141 275.843 131.272 275.763C131.402 275.683 131.556 275.662 131.701 275.703C131.846 275.745 131.97 275.846 132.045 275.985L133.924 279.457L134.392 278.232C134.489 277.997 134.654 277.801 134.863 277.673C135.072 277.546 135.315 277.493 135.554 277.523L136.791 277.685L134.528 273.52C134.49 273.451 134.466 273.375 134.457 273.296C134.447 273.218 134.452 273.138 134.471 273.061C134.49 272.984 134.524 272.913 134.569 272.85C134.614 272.787 134.671 272.734 134.735 272.694C134.8 272.655 134.871 272.629 134.944 272.618C135.018 272.608 135.093 272.613 135.165 272.634C135.237 272.655 135.304 272.69 135.363 272.738C135.422 272.787 135.471 272.847 135.509 272.916L137.772 277.088C137.875 277.282 137.926 277.502 137.919 277.725C137.912 277.947 137.847 278.163 137.732 278.349C137.618 278.535 137.457 278.683 137.268 278.778C137.08 278.872 136.87 278.909 136.663 278.885L135.426 278.716L134.95 279.932C134.869 280.139 134.734 280.318 134.562 280.448C134.39 280.577 134.187 280.653 133.977 280.665H133.909Z" fill="#18181B"/>
<path d="M125.755 280.665H125.689C125.459 280.651 125.237 280.571 125.048 280.433C124.86 280.295 124.712 280.104 124.623 279.883L124.086 278.577L122.747 278.757C122.52 278.788 122.29 278.752 122.082 278.653C121.875 278.555 121.698 278.397 121.573 278.199C121.454 277.997 121.391 277.765 121.391 277.529C121.391 277.292 121.454 277.06 121.573 276.858L124.053 272.399C124.135 272.251 124.27 272.143 124.429 272.098C124.588 272.054 124.757 272.077 124.9 272.162C125.042 272.248 125.146 272.389 125.189 272.554C125.232 272.719 125.209 272.895 125.127 273.043L122.647 277.494L123.995 277.314C124.257 277.278 124.524 277.333 124.753 277.47C124.983 277.606 125.164 277.817 125.268 278.07L125.805 279.376L127.822 275.673C127.904 275.524 128.04 275.416 128.198 275.372C128.357 275.328 128.527 275.351 128.669 275.436C128.812 275.522 128.916 275.663 128.958 275.828C129.001 275.993 128.979 276.169 128.896 276.317L126.813 280.02C126.709 280.216 126.555 280.379 126.369 280.493C126.183 280.606 125.971 280.666 125.755 280.665Z" fill="#18181B"/>
<path d="M129.927 277.444C129.362 277.444 128.821 277.221 128.419 276.822L127.674 276.072C127.596 275.991 127.502 275.927 127.399 275.883C127.296 275.839 127.185 275.816 127.073 275.816H126.226C125.663 275.814 125.123 275.587 124.725 275.187C124.327 274.786 124.102 274.243 124.1 273.676V272.824C124.102 272.704 124.079 272.585 124.032 272.475C123.986 272.365 123.916 272.266 123.829 272.185L123.075 271.434C122.679 271.03 122.457 270.485 122.457 269.917C122.455 269.638 122.508 269.36 122.612 269.101C122.717 268.843 122.872 268.607 123.067 268.408L123.829 267.65C123.908 267.57 123.97 267.476 124.012 267.372C124.054 267.268 124.075 267.157 124.075 267.044V266.192C124.071 265.909 124.123 265.628 124.228 265.366C124.333 265.104 124.488 264.864 124.685 264.663C124.881 264.461 125.116 264.3 125.374 264.189C125.633 264.079 125.911 264.021 126.192 264.018H127.039C127.15 264.019 127.261 263.997 127.364 263.955C127.467 263.913 127.561 263.85 127.64 263.771L128.419 263.029C128.826 262.635 129.37 262.414 129.935 262.414C130.501 262.414 131.044 262.635 131.451 263.029L132.196 263.78C132.275 263.859 132.369 263.921 132.473 263.964C132.576 264.006 132.686 264.027 132.798 264.027H133.645C134.209 264.029 134.75 264.256 135.148 264.659C135.547 265.062 135.77 265.607 135.77 266.175V267.027C135.77 267.14 135.791 267.251 135.833 267.355C135.875 267.458 135.937 267.553 136.016 267.633L136.77 268.391C137.164 268.795 137.385 269.338 137.385 269.904C137.385 270.47 137.164 271.014 136.77 271.417L136.016 272.167C135.936 272.248 135.874 272.344 135.831 272.449C135.789 272.555 135.768 272.668 135.77 272.781V273.634C135.775 273.916 135.724 274.197 135.62 274.46C135.516 274.723 135.362 274.963 135.166 275.166C134.97 275.368 134.736 275.53 134.478 275.642C134.22 275.753 133.942 275.813 133.661 275.816H132.815C132.703 275.816 132.592 275.839 132.488 275.883C132.385 275.927 132.292 275.991 132.213 276.072L131.468 276.822C131.265 277.023 131.024 277.182 130.76 277.289C130.495 277.396 130.212 277.449 129.927 277.444ZM126.192 265.297C125.967 265.297 125.752 265.387 125.593 265.547C125.434 265.706 125.345 265.923 125.345 266.149V267.002C125.346 267.282 125.292 267.559 125.186 267.818C125.08 268.077 124.924 268.313 124.727 268.511L123.981 269.269C123.901 269.348 123.838 269.442 123.794 269.546C123.751 269.65 123.728 269.762 123.727 269.874C123.727 269.989 123.749 270.102 123.793 270.207C123.836 270.313 123.9 270.408 123.981 270.488L124.727 271.238C124.925 271.437 125.081 271.674 125.187 271.934C125.293 272.195 125.347 272.474 125.345 272.756V273.608C125.345 273.834 125.434 274.051 125.593 274.211C125.752 274.371 125.967 274.46 126.192 274.46H127.039C127.318 274.459 127.594 274.514 127.852 274.623C128.109 274.731 128.343 274.89 128.538 275.091L129.283 275.841C129.448 275.998 129.666 276.085 129.893 276.085C130.119 276.085 130.338 275.998 130.503 275.841L131.248 275.091C131.443 274.89 131.676 274.731 131.934 274.623C132.191 274.514 132.468 274.459 132.747 274.46H133.594C133.818 274.46 134.034 274.371 134.193 274.211C134.351 274.051 134.441 273.834 134.441 273.608V272.756C134.439 272.474 134.492 272.195 134.598 271.934C134.704 271.674 134.861 271.437 135.059 271.238L135.813 270.488C135.893 270.409 135.957 270.314 136.001 270.209C136.045 270.105 136.067 269.992 136.067 269.879C136.067 269.765 136.045 269.653 136.001 269.548C135.957 269.443 135.893 269.349 135.813 269.269L135.059 268.511C134.862 268.313 134.706 268.077 134.6 267.818C134.494 267.559 134.44 267.282 134.441 267.002V266.149C134.441 265.923 134.351 265.706 134.193 265.547C134.034 265.387 133.818 265.297 133.594 265.297H132.747C132.469 265.298 132.193 265.243 131.936 265.137C131.678 265.03 131.445 264.873 131.248 264.675L130.503 263.925C130.424 263.842 130.329 263.776 130.224 263.732C130.119 263.687 130.007 263.664 129.893 263.664C129.779 263.664 129.666 263.687 129.562 263.732C129.457 263.776 129.362 263.842 129.283 263.925L128.538 264.675C128.341 264.873 128.107 265.03 127.85 265.137C127.593 265.243 127.317 265.298 127.039 265.297H126.192Z" fill="#18181B"/>
<path d="M129.236 272.076C129.071 272.074 128.912 272.004 128.793 271.88L127.434 270.397C127.319 270.272 127.254 270.103 127.254 269.927C127.254 269.75 127.319 269.581 127.434 269.456C127.551 269.333 127.708 269.264 127.872 269.264C128.035 269.264 128.192 269.333 128.31 269.456L129.236 270.468L131.529 267.973C131.647 267.85 131.804 267.781 131.968 267.781C132.131 267.781 132.288 267.85 132.406 267.973C132.521 268.098 132.585 268.267 132.585 268.444C132.585 268.62 132.521 268.79 132.406 268.914L129.67 271.88C129.554 272.004 129.398 272.074 129.236 272.076Z" fill="#18181B"/>
</g>
</g>
<g filter="url(#filter4_d_5204_63613)">
<rect x="12" y="42" width="243" height="150" rx="12" fill="#FCFCFC" shape-rendering="crispEdges"/>
<rect x="12.5" y="42.5" width="242" height="149" rx="11.5" stroke="#F4F4F5" shape-rendering="crispEdges"/>
<rect x="28" y="58" width="122" height="16" rx="4" fill="#F4F4F5"/>
<rect x="191" y="58" width="20" height="20" rx="4" fill="#F4F4F5"/>
<rect x="219" y="58" width="20" height="20" rx="4" fill="#F4F4F5"/>
<rect x="28" y="82" width="80" height="20" rx="6" fill="#F4F4F5"/>
<rect x="159" y="82" width="80" height="20" rx="6" fill="#F4F4F5"/>
<rect x="28" y="114" width="40" height="16" rx="4" fill="#F4F4F5"/>
<rect x="76" y="114" width="76" height="16" rx="4" fill="#F4F4F5"/>
<rect x="160" y="114" width="78" height="16" rx="4" fill="#F4F4F5"/>
<rect x="28" y="138" width="76" height="16" rx="4" fill="#F4F4F5"/>
<rect x="112" y="138" width="40" height="16" rx="4" fill="#F4F4F5"/>
<rect x="160" y="138" width="78" height="16" rx="4" fill="#F4F4F5"/>
<g filter="url(#filter5_dd_5204_63613)">
<mask id="path-60-inside-3_5204_63613" fill="white">
<path d="M106 42C106 28.7452 116.745 18 130 18C143.255 18 154 28.7452 154 42C154 55.2548 143.255 66 130 66C116.745 66 106 55.2548 106 42Z"/>
</mask>
<path d="M106 42C106 28.7452 116.745 18 130 18C143.255 18 154 28.7452 154 42C154 55.2548 143.255 66 130 66C116.745 66 106 55.2548 106 42Z" fill="white"/>
<path d="M130 66V65C117.297 65 107 54.7025 107 42H106H105C105 55.8071 116.193 67 130 67V66ZM154 42H153C153 54.7025 142.703 65 130 65V66V67C143.807 67 155 55.8071 155 42H154ZM130 18V19C142.703 19 153 29.2975 153 42H154H155C155 28.1929 143.807 17 130 17V18ZM130 18V17C116.193 17 105 28.1929 105 42H106H107C107 29.2975 117.297 19 130 19V18Z" fill="#F4F4F5" mask="url(#path-60-inside-3_5204_63613)"/>
<path d="M133.909 50.6652C133.712 50.6658 133.519 50.6101 133.349 50.5038C133.179 50.3976 133.039 50.2446 132.943 50.061L131.064 46.589C130.989 46.4502 130.969 46.2852 131.008 46.1303C131.047 45.9755 131.141 45.8435 131.272 45.7633C131.402 45.6832 131.556 45.6616 131.701 45.7031C131.846 45.7446 131.97 45.846 132.045 45.9849L133.924 49.4568L134.392 48.2324C134.489 47.9969 134.654 47.8009 134.863 47.6732C135.072 47.5456 135.315 47.4931 135.554 47.5235L136.791 47.6846L134.528 43.5199C134.49 43.4511 134.466 43.3752 134.457 43.2965C134.447 43.2178 134.452 43.1378 134.471 43.0611C134.49 42.9845 134.524 42.9126 134.569 42.8496C134.614 42.7867 134.671 42.7338 134.735 42.6942C134.8 42.6545 134.871 42.6288 134.944 42.6184C135.018 42.6081 135.093 42.6134 135.165 42.6339C135.237 42.6545 135.304 42.69 135.363 42.7383C135.422 42.7867 135.471 42.8469 135.509 42.9157L137.772 47.0885C137.875 47.2821 137.926 47.5023 137.919 47.7247C137.912 47.9471 137.847 48.1631 137.732 48.3489C137.618 48.5347 137.457 48.683 137.268 48.7776C137.08 48.8722 136.87 48.9093 136.663 48.8849L135.426 48.7157L134.95 49.9321C134.869 50.1394 134.734 50.318 134.562 50.4476C134.39 50.5772 134.187 50.6526 133.977 50.6652H133.909Z" fill="#18181B"/>
<path d="M125.755 50.6648H125.689C125.459 50.6514 125.237 50.571 125.048 50.4327C124.86 50.2945 124.712 50.104 124.623 49.8829L124.086 48.5768L122.747 48.7573C122.52 48.7882 122.29 48.7522 122.082 48.6535C121.875 48.5547 121.698 48.3971 121.573 48.1988C121.454 47.9972 121.391 47.7652 121.391 47.5285C121.391 47.2919 121.454 47.0599 121.573 46.8583L124.053 42.3988C124.135 42.2506 124.27 42.1425 124.429 42.0982C124.588 42.0539 124.757 42.077 124.9 42.1625C125.042 42.2479 125.146 42.3887 125.189 42.5539C125.232 42.7191 125.209 42.8951 125.127 43.0432L122.647 47.4942L123.995 47.3137C124.257 47.2785 124.524 47.3333 124.753 47.4697C124.983 47.6062 125.164 47.8169 125.268 48.0699L125.805 49.376L127.822 45.6725C127.904 45.5244 128.04 45.4163 128.198 45.372C128.357 45.3277 128.527 45.3508 128.669 45.4362C128.812 45.5217 128.916 45.6625 128.958 45.8277C129.001 45.9928 128.979 46.1689 128.896 46.317L126.813 50.0204C126.709 50.2163 126.555 50.3794 126.369 50.4927C126.183 50.6061 125.971 50.6655 125.755 50.6648Z" fill="#18181B"/>
<path d="M129.927 47.444C129.362 47.4444 128.821 47.2208 128.419 46.8217L127.674 46.0716C127.596 45.991 127.502 45.9269 127.399 45.883C127.296 45.8391 127.185 45.8163 127.073 45.8158H126.226C125.663 45.8136 125.123 45.5875 124.725 45.1867C124.327 44.7859 124.102 44.243 124.1 43.6763V42.8238C124.102 42.7041 124.079 42.5853 124.032 42.4751C123.986 42.3649 123.916 42.2659 123.829 42.1845L123.075 41.4344C122.679 41.0303 122.457 40.485 122.457 39.9171C122.455 39.6375 122.508 39.3604 122.612 39.1015C122.717 38.8425 122.872 38.607 123.067 38.4083L123.829 37.6496C123.908 37.57 123.97 37.4755 124.012 37.3716C124.054 37.2678 124.075 37.1566 124.075 37.0444V36.192C124.071 35.9092 124.123 35.6285 124.228 35.366C124.333 35.1035 124.488 34.8645 124.685 34.6625C124.881 34.4605 125.116 34.2997 125.374 34.1891C125.633 34.0786 125.911 34.0205 126.192 34.0183H127.039C127.15 34.0189 127.261 33.9974 127.364 33.955C127.467 33.9126 127.561 33.8501 127.64 33.7711L128.419 33.0295C128.826 32.6347 129.37 32.4141 129.935 32.4141C130.501 32.4141 131.044 32.6347 131.451 33.0295L132.196 33.7796C132.275 33.8586 132.369 33.9211 132.473 33.9635C132.576 34.006 132.686 34.0275 132.798 34.0268H133.645C134.209 34.0291 134.75 34.2564 135.148 34.659C135.547 35.0616 135.77 35.6067 135.77 36.1749V37.0273C135.77 37.1395 135.791 37.2507 135.833 37.3546C135.875 37.4585 135.937 37.5529 136.016 37.6326L136.77 38.3912C137.164 38.7947 137.385 39.3381 137.385 39.9043C137.385 40.4704 137.164 41.0139 136.77 41.4173L136.016 42.1675C135.936 42.2481 135.874 42.344 135.831 42.4494C135.789 42.5548 135.768 42.6676 135.77 42.7812V43.6336C135.775 43.9164 135.724 44.1974 135.62 44.4603C135.516 44.7232 135.362 44.9629 135.166 45.1656C134.97 45.3684 134.736 45.5302 134.478 45.6418C134.22 45.7534 133.942 45.8125 133.661 45.8158H132.815C132.703 45.8163 132.592 45.8391 132.488 45.883C132.385 45.9269 132.292 45.991 132.213 46.0716L131.468 46.8217C131.265 47.0234 131.024 47.1824 130.76 47.2893C130.495 47.3961 130.212 47.4487 129.927 47.444ZM126.192 35.2969C125.967 35.2969 125.752 35.3867 125.593 35.5466C125.434 35.7065 125.345 35.9233 125.345 36.1494V37.0018C125.346 37.2819 125.292 37.5594 125.186 37.8184C125.08 38.0773 124.924 38.3126 124.727 38.5106L123.981 39.2692C123.901 39.3482 123.838 39.4423 123.794 39.5462C123.751 39.6501 123.728 39.7617 123.727 39.8744C123.727 39.9887 123.749 40.1018 123.793 40.2073C123.836 40.3127 123.9 40.4082 123.981 40.4882L124.727 41.2383C124.925 41.4373 125.081 41.674 125.187 41.9345C125.293 42.1949 125.347 42.4741 125.345 42.7556V43.6081C125.345 43.8341 125.434 44.051 125.593 44.2108C125.752 44.3707 125.967 44.4605 126.192 44.4605H127.039C127.318 44.4592 127.594 44.5144 127.852 44.6227C128.109 44.7311 128.343 44.8904 128.538 45.0913L129.283 45.8414C129.448 45.9979 129.666 46.085 129.893 46.085C130.119 46.085 130.338 45.9979 130.503 45.8414L131.248 45.0913C131.443 44.8904 131.676 44.7311 131.934 44.6227C132.191 44.5144 132.468 44.4592 132.747 44.4605H133.594C133.818 44.4605 134.034 44.3707 134.193 44.2108C134.351 44.051 134.441 43.8341 134.441 43.6081V42.7556C134.439 42.4741 134.492 42.1949 134.598 41.9345C134.704 41.674 134.861 41.4373 135.059 41.2383L135.813 40.4882C135.893 40.4088 135.957 40.314 136.001 40.2093C136.045 40.1047 136.067 39.9923 136.067 39.8787C136.067 39.7652 136.045 39.6527 136.001 39.5481C135.957 39.4434 135.893 39.3486 135.813 39.2692L135.059 38.5106C134.862 38.3126 134.706 38.0773 134.6 37.8184C134.494 37.5594 134.44 37.2819 134.441 37.0018V36.1494C134.441 35.9233 134.351 35.7065 134.193 35.5466C134.034 35.3867 133.818 35.2969 133.594 35.2969H132.747C132.469 35.2979 132.193 35.2434 131.936 35.1366C131.678 35.0298 131.445 34.8728 131.248 34.6747L130.503 33.9245C130.424 33.842 130.329 33.7764 130.224 33.7316C130.119 33.6868 130.007 33.6637 129.893 33.6637C129.779 33.6637 129.666 33.6868 129.562 33.7316C129.457 33.7764 129.362 33.842 129.283 33.9245L128.538 34.6747C128.341 34.8728 128.107 35.0298 127.85 35.1366C127.593 35.2434 127.317 35.2979 127.039 35.2969H126.192Z" fill="#18181B"/>
<path d="M129.236 42.0756C129.071 42.074 128.912 42.0041 128.793 41.8802L127.434 40.3974C127.319 40.2725 127.254 40.1032 127.254 39.9267C127.254 39.7503 127.319 39.581 127.434 39.4561C127.551 39.333 127.708 39.2641 127.872 39.2641C128.035 39.2641 128.192 39.333 128.31 39.4561L129.236 40.4684L131.529 37.9732C131.647 37.8501 131.804 37.7812 131.968 37.7812C132.131 37.7812 132.288 37.8501 132.406 37.9732C132.521 38.0981 132.585 38.2674 132.585 38.4439C132.585 38.6203 132.521 38.7896 132.406 38.9145L129.67 41.8802C129.554 42.0036 129.398 42.0735 129.236 42.0756Z" fill="#18181B"/>
</g>
</g>
<g filter="url(#filter6_d_5204_63613)">
<rect x="530" y="272" width="243" height="150" rx="12" fill="#FCFCFC" shape-rendering="crispEdges"/>
<rect x="530.5" y="272.5" width="242" height="149" rx="11.5" stroke="#F4F4F5" shape-rendering="crispEdges"/>
<rect x="546" y="288" width="122" height="16" rx="4" fill="#F4F4F5"/>
<rect x="709" y="288" width="20" height="20" rx="4" fill="#F4F4F5"/>
<rect x="737" y="288" width="20" height="20" rx="4" fill="#F4F4F5"/>
<rect x="546" y="312" width="80" height="20" rx="6" fill="#F4F4F5"/>
<rect x="677" y="312" width="80" height="20" rx="6" fill="#F4F4F5"/>
<rect x="546" y="344" width="41" height="16" rx="4" fill="#F4F4F5"/>
<rect x="595" y="344" width="77" height="16" rx="4" fill="#F4F4F5"/>
<rect x="680" y="344" width="79" height="16" rx="4" fill="#F4F4F5"/>
<rect x="546" y="368" width="77" height="16" rx="4" fill="#F4F4F5"/>
<rect x="631" y="368" width="41" height="16" rx="4" fill="#F4F4F5"/>
<rect x="680" y="368" width="79" height="16" rx="4" fill="#F4F4F5"/>
<g filter="url(#filter7_dd_5204_63613)">
<mask id="path-79-inside-4_5204_63613" fill="white">
<path d="M624 272C624 258.745 634.745 248 648 248C661.255 248 672 258.745 672 272C672 285.255 661.255 296 648 296C634.745 296 624 285.255 624 272Z"/>
</mask>
<path d="M624 272C624 258.745 634.745 248 648 248C661.255 248 672 258.745 672 272C672 285.255 661.255 296 648 296C634.745 296 624 285.255 624 272Z" fill="#FAFAFA"/>
<path d="M648 296V295C635.297 295 625 284.703 625 272H624H623C623 285.807 634.193 297 648 297V296ZM672 272H671C671 284.703 660.703 295 648 295V296V297C661.807 297 673 285.807 673 272H672ZM648 248V249C660.703 249 671 259.297 671 272H672H673C673 258.193 661.807 247 648 247V248ZM648 248V247C634.193 247 623 258.193 623 272H624H625C625 259.297 635.297 249 648 249V248Z" fill="#E4E4E7" mask="url(#path-79-inside-4_5204_63613)"/>
<path d="M651.909 280.665C651.712 280.666 651.519 280.61 651.349 280.504C651.179 280.398 651.039 280.245 650.943 280.061L649.064 276.589C648.989 276.45 648.969 276.285 649.008 276.13C649.047 275.975 649.141 275.843 649.272 275.763C649.402 275.683 649.556 275.662 649.701 275.703C649.846 275.745 649.97 275.846 650.045 275.985L651.924 279.457L652.392 278.232C652.489 277.997 652.654 277.801 652.863 277.673C653.072 277.546 653.315 277.493 653.554 277.523L654.791 277.685L652.528 273.52C652.49 273.451 652.466 273.375 652.457 273.296C652.447 273.218 652.452 273.138 652.471 273.061C652.49 272.984 652.524 272.913 652.569 272.85C652.614 272.787 652.671 272.734 652.735 272.694C652.8 272.655 652.871 272.629 652.944 272.618C653.018 272.608 653.093 272.613 653.165 272.634C653.237 272.655 653.304 272.69 653.363 272.738C653.422 272.787 653.471 272.847 653.509 272.916L655.772 277.088C655.875 277.282 655.926 277.502 655.919 277.725C655.912 277.947 655.847 278.163 655.732 278.349C655.618 278.535 655.457 278.683 655.268 278.778C655.08 278.872 654.87 278.909 654.663 278.885L653.426 278.716L652.95 279.932C652.869 280.139 652.734 280.318 652.562 280.448C652.39 280.577 652.187 280.653 651.977 280.665H651.909Z" fill="#18181B"/>
<path d="M643.755 280.665H643.689C643.459 280.651 643.237 280.571 643.048 280.433C642.86 280.295 642.712 280.104 642.623 279.883L642.086 278.577L640.747 278.757C640.52 278.788 640.29 278.752 640.082 278.653C639.875 278.555 639.698 278.397 639.573 278.199C639.454 277.997 639.391 277.765 639.391 277.529C639.391 277.292 639.454 277.06 639.573 276.858L642.053 272.399C642.135 272.251 642.27 272.143 642.429 272.098C642.588 272.054 642.757 272.077 642.9 272.162C643.042 272.248 643.146 272.389 643.189 272.554C643.232 272.719 643.209 272.895 643.127 273.043L640.647 277.494L641.995 277.314C642.257 277.278 642.524 277.333 642.753 277.47C642.983 277.606 643.164 277.817 643.268 278.07L643.805 279.376L645.822 275.673C645.904 275.524 646.04 275.416 646.198 275.372C646.357 275.328 646.527 275.351 646.669 275.436C646.812 275.522 646.916 275.663 646.958 275.828C647.001 275.993 646.979 276.169 646.896 276.317L644.813 280.02C644.709 280.216 644.555 280.379 644.369 280.493C644.183 280.606 643.971 280.666 643.755 280.665Z" fill="#18181B"/>
<path d="M647.927 277.444C647.362 277.444 646.821 277.221 646.419 276.822L645.674 276.072C645.596 275.991 645.502 275.927 645.399 275.883C645.296 275.839 645.185 275.816 645.073 275.816H644.226C643.663 275.814 643.123 275.587 642.725 275.187C642.327 274.786 642.102 274.243 642.1 273.676V272.824C642.102 272.704 642.079 272.585 642.032 272.475C641.986 272.365 641.916 272.266 641.829 272.185L641.075 271.434C640.679 271.03 640.457 270.485 640.457 269.917C640.455 269.638 640.508 269.36 640.612 269.101C640.717 268.843 640.872 268.607 641.067 268.408L641.829 267.65C641.908 267.57 641.97 267.476 642.012 267.372C642.054 267.268 642.075 267.157 642.075 267.044V266.192C642.071 265.909 642.123 265.628 642.228 265.366C642.333 265.104 642.488 264.864 642.685 264.663C642.881 264.461 643.116 264.3 643.374 264.189C643.633 264.079 643.911 264.021 644.192 264.018H645.039C645.15 264.019 645.261 263.997 645.364 263.955C645.467 263.913 645.561 263.85 645.64 263.771L646.419 263.029C646.826 262.635 647.37 262.414 647.935 262.414C648.501 262.414 649.044 262.635 649.451 263.029L650.196 263.78C650.275 263.859 650.369 263.921 650.473 263.964C650.576 264.006 650.686 264.027 650.798 264.027H651.645C652.209 264.029 652.75 264.256 653.148 264.659C653.547 265.062 653.77 265.607 653.77 266.175V267.027C653.77 267.14 653.791 267.251 653.833 267.355C653.875 267.458 653.937 267.553 654.016 267.633L654.77 268.391C655.164 268.795 655.385 269.338 655.385 269.904C655.385 270.47 655.164 271.014 654.77 271.417L654.016 272.167C653.936 272.248 653.874 272.344 653.831 272.449C653.789 272.555 653.768 272.668 653.77 272.781V273.634C653.775 273.916 653.724 274.197 653.62 274.46C653.516 274.723 653.362 274.963 653.166 275.166C652.97 275.368 652.736 275.53 652.478 275.642C652.22 275.753 651.942 275.813 651.661 275.816H650.815C650.703 275.816 650.592 275.839 650.488 275.883C650.385 275.927 650.292 275.991 650.213 276.072L649.468 276.822C649.265 277.023 649.024 277.182 648.76 277.289C648.495 277.396 648.212 277.449 647.927 277.444ZM644.192 265.297C643.967 265.297 643.752 265.387 643.593 265.547C643.434 265.706 643.345 265.923 643.345 266.149V267.002C643.346 267.282 643.292 267.559 643.186 267.818C643.08 268.077 642.924 268.313 642.727 268.511L641.981 269.269C641.901 269.348 641.838 269.442 641.794 269.546C641.751 269.65 641.728 269.762 641.727 269.874C641.727 269.989 641.749 270.102 641.793 270.207C641.836 270.313 641.9 270.408 641.981 270.488L642.727 271.238C642.925 271.437 643.081 271.674 643.187 271.934C643.293 272.195 643.347 272.474 643.345 272.756V273.608C643.345 273.834 643.434 274.051 643.593 274.211C643.752 274.371 643.967 274.46 644.192 274.46H645.039C645.318 274.459 645.594 274.514 645.852 274.623C646.109 274.731 646.343 274.89 646.538 275.091L647.283 275.841C647.448 275.998 647.666 276.085 647.893 276.085C648.119 276.085 648.338 275.998 648.503 275.841L649.248 275.091C649.443 274.89 649.676 274.731 649.934 274.623C650.191 274.514 650.468 274.459 650.747 274.46H651.594C651.818 274.46 652.034 274.371 652.193 274.211C652.351 274.051 652.441 273.834 652.441 273.608V272.756C652.439 272.474 652.492 272.195 652.598 271.934C652.704 271.674 652.861 271.437 653.059 271.238L653.813 270.488C653.893 270.409 653.957 270.314 654.001 270.209C654.045 270.105 654.067 269.992 654.067 269.879C654.067 269.765 654.045 269.653 654.001 269.548C653.957 269.443 653.893 269.349 653.813 269.269L653.059 268.511C652.862 268.313 652.706 268.077 652.6 267.818C652.494 267.559 652.44 267.282 652.441 267.002V266.149C652.441 265.923 652.351 265.706 652.193 265.547C652.034 265.387 651.818 265.297 651.594 265.297H650.747C650.469 265.298 650.193 265.243 649.936 265.137C649.678 265.03 649.445 264.873 649.248 264.675L648.503 263.925C648.424 263.842 648.329 263.776 648.224 263.732C648.119 263.687 648.007 263.664 647.893 263.664C647.779 263.664 647.666 263.687 647.562 263.732C647.457 263.776 647.362 263.842 647.283 263.925L646.538 264.675C646.341 264.873 646.107 265.03 645.85 265.137C645.593 265.243 645.317 265.298 645.039 265.297H644.192Z" fill="#18181B"/>
<path d="M647.236 272.076C647.071 272.074 646.912 272.004 646.793 271.88L645.434 270.397C645.319 270.272 645.254 270.103 645.254 269.927C645.254 269.75 645.319 269.581 645.434 269.456C645.551 269.333 645.708 269.264 645.872 269.264C646.035 269.264 646.192 269.333 646.31 269.456L647.236 270.468L649.529 267.973C649.647 267.85 649.804 267.781 649.968 267.781C650.131 267.781 650.288 267.85 650.406 267.973C650.521 268.098 650.585 268.267 650.585 268.444C650.585 268.62 650.521 268.79 650.406 268.914L647.67 271.88C647.554 272.004 647.398 272.074 647.236 272.076Z" fill="#18181B"/>
</g>
</g>
<g filter="url(#filter8_d_5204_63613)">
<rect x="789" y="272" width="243" height="150" rx="12" fill="#FCFCFC" shape-rendering="crispEdges"/>
<rect x="789.5" y="272.5" width="242" height="149" rx="11.5" stroke="#F4F4F5" shape-rendering="crispEdges"/>
<rect x="805" y="288" width="122" height="16" rx="4" fill="#F4F4F5"/>
<rect x="968" y="288" width="20" height="20" rx="4" fill="#F4F4F5"/>
<rect x="996" y="288" width="20" height="20" rx="4" fill="#F4F4F5"/>
<rect x="805" y="312" width="80" height="20" rx="6" fill="#F4F4F5"/>
<rect x="936" y="312" width="80" height="20" rx="6" fill="#F4F4F5"/>
<rect x="805" y="344" width="41" height="16" rx="4" fill="#F4F4F5"/>
<rect x="854" y="344" width="77" height="16" rx="4" fill="#F4F4F5"/>
<rect x="939" y="344" width="79" height="16" rx="4" fill="#F4F4F5"/>
<rect x="805" y="368" width="77" height="16" rx="4" fill="#F4F4F5"/>
<rect x="890" y="368" width="41" height="16" rx="4" fill="#F4F4F5"/>
<rect x="939" y="368" width="79" height="16" rx="4" fill="#F4F4F5"/>
<g filter="url(#filter9_dd_5204_63613)">
<mask id="path-98-inside-5_5204_63613" fill="white">
<path d="M883 272C883 258.745 893.745 248 907 248C920.255 248 931 258.745 931 272C931 285.255 920.255 296 907 296C893.745 296 883 285.255 883 272Z"/>
</mask>
<path d="M883 272C883 258.745 893.745 248 907 248C920.255 248 931 258.745 931 272C931 285.255 920.255 296 907 296C893.745 296 883 285.255 883 272Z" fill="white"/>
<path d="M907 296V295C894.297 295 884 284.703 884 272H883H882C882 285.807 893.193 297 907 297V296ZM931 272H930C930 284.703 919.703 295 907 295V296V297C920.807 297 932 285.807 932 272H931ZM907 248V249C919.703 249 930 259.297 930 272H931H932C932 258.193 920.807 247 907 247V248ZM907 248V247C893.193 247 882 258.193 882 272H883H884C884 259.297 894.297 249 907 249V248Z" fill="#F4F4F5" mask="url(#path-98-inside-5_5204_63613)"/>
<path d="M910.909 280.665C910.712 280.666 910.519 280.61 910.349 280.504C910.179 280.398 910.039 280.245 909.943 280.061L908.064 276.589C907.989 276.45 907.969 276.285 908.008 276.13C908.047 275.975 908.141 275.843 908.272 275.763C908.402 275.683 908.556 275.662 908.701 275.703C908.846 275.745 908.97 275.846 909.045 275.985L910.924 279.457L911.392 278.232C911.489 277.997 911.654 277.801 911.863 277.673C912.072 277.546 912.315 277.493 912.554 277.523L913.791 277.685L911.528 273.52C911.49 273.451 911.466 273.375 911.457 273.296C911.447 273.218 911.452 273.138 911.471 273.061C911.49 272.984 911.524 272.913 911.569 272.85C911.614 272.787 911.671 272.734 911.735 272.694C911.8 272.655 911.871 272.629 911.944 272.618C912.018 272.608 912.093 272.613 912.165 272.634C912.237 272.655 912.304 272.69 912.363 272.738C912.422 272.787 912.471 272.847 912.509 272.916L914.772 277.088C914.875 277.282 914.926 277.502 914.919 277.725C914.912 277.947 914.847 278.163 914.732 278.349C914.618 278.535 914.457 278.683 914.268 278.778C914.08 278.872 913.87 278.909 913.663 278.885L912.426 278.716L911.95 279.932C911.869 280.139 911.734 280.318 911.562 280.448C911.39 280.577 911.187 280.653 910.977 280.665H910.909Z" fill="#18181B"/>
<path d="M902.755 280.665H902.689C902.459 280.651 902.237 280.571 902.048 280.433C901.86 280.295 901.712 280.104 901.623 279.883L901.086 278.577L899.747 278.757C899.52 278.788 899.29 278.752 899.082 278.653C898.875 278.555 898.698 278.397 898.573 278.199C898.454 277.997 898.391 277.765 898.391 277.529C898.391 277.292 898.454 277.06 898.573 276.858L901.053 272.399C901.135 272.251 901.27 272.143 901.429 272.098C901.588 272.054 901.757 272.077 901.9 272.162C902.042 272.248 902.146 272.389 902.189 272.554C902.232 272.719 902.209 272.895 902.127 273.043L899.647 277.494L900.995 277.314C901.257 277.278 901.524 277.333 901.753 277.47C901.983 277.606 902.164 277.817 902.268 278.07L902.805 279.376L904.822 275.673C904.904 275.524 905.04 275.416 905.198 275.372C905.357 275.328 905.527 275.351 905.669 275.436C905.812 275.522 905.916 275.663 905.958 275.828C906.001 275.993 905.979 276.169 905.896 276.317L903.813 280.02C903.709 280.216 903.555 280.379 903.369 280.493C903.183 280.606 902.971 280.666 902.755 280.665Z" fill="#18181B"/>
<path d="M906.927 277.444C906.362 277.444 905.821 277.221 905.419 276.822L904.674 276.072C904.596 275.991 904.502 275.927 904.399 275.883C904.296 275.839 904.185 275.816 904.073 275.816H903.226C902.663 275.814 902.123 275.587 901.725 275.187C901.327 274.786 901.102 274.243 901.1 273.676V272.824C901.102 272.704 901.079 272.585 901.032 272.475C900.986 272.365 900.916 272.266 900.829 272.185L900.075 271.434C899.679 271.03 899.457 270.485 899.457 269.917C899.455 269.638 899.508 269.36 899.612 269.101C899.717 268.843 899.872 268.607 900.067 268.408L900.829 267.65C900.908 267.57 900.97 267.476 901.012 267.372C901.054 267.268 901.075 267.157 901.075 267.044V266.192C901.071 265.909 901.123 265.628 901.228 265.366C901.333 265.104 901.488 264.864 901.685 264.663C901.881 264.461 902.116 264.3 902.374 264.189C902.633 264.079 902.911 264.021 903.192 264.018H904.039C904.15 264.019 904.261 263.997 904.364 263.955C904.467 263.913 904.561 263.85 904.64 263.771L905.419 263.029C905.826 262.635 906.37 262.414 906.935 262.414C907.501 262.414 908.044 262.635 908.451 263.029L909.196 263.78C909.275 263.859 909.369 263.921 909.473 263.964C909.576 264.006 909.686 264.027 909.798 264.027H910.645C911.209 264.029 911.75 264.256 912.148 264.659C912.547 265.062 912.77 265.607 912.77 266.175V267.027C912.77 267.14 912.791 267.251 912.833 267.355C912.875 267.458 912.937 267.553 913.016 267.633L913.77 268.391C914.164 268.795 914.385 269.338 914.385 269.904C914.385 270.47 914.164 271.014 913.77 271.417L913.016 272.167C912.936 272.248 912.874 272.344 912.831 272.449C912.789 272.555 912.768 272.668 912.77 272.781V273.634C912.775 273.916 912.724 274.197 912.62 274.46C912.516 274.723 912.362 274.963 912.166 275.166C911.97 275.368 911.736 275.53 911.478 275.642C911.22 275.753 910.942 275.813 910.661 275.816H909.815C909.703 275.816 909.592 275.839 909.488 275.883C909.385 275.927 909.292 275.991 909.213 276.072L908.468 276.822C908.265 277.023 908.024 277.182 907.76 277.289C907.495 277.396 907.212 277.449 906.927 277.444ZM903.192 265.297C902.967 265.297 902.752 265.387 902.593 265.547C902.434 265.706 902.345 265.923 902.345 266.149V267.002C902.346 267.282 902.292 267.559 902.186 267.818C902.08 268.077 901.924 268.313 901.727 268.511L900.981 269.269C900.901 269.348 900.838 269.442 900.794 269.546C900.751 269.65 900.728 269.762 900.727 269.874C900.727 269.989 900.749 270.102 900.793 270.207C900.836 270.313 900.9 270.408 900.981 270.488L901.727 271.238C901.925 271.437 902.081 271.674 902.187 271.934C902.293 272.195 902.347 272.474 902.345 272.756V273.608C902.345 273.834 902.434 274.051 902.593 274.211C902.752 274.371 902.967 274.46 903.192 274.46H904.039C904.318 274.459 904.594 274.514 904.852 274.623C905.109 274.731 905.343 274.89 905.538 275.091L906.283 275.841C906.448 275.998 906.666 276.085 906.893 276.085C907.119 276.085 907.338 275.998 907.503 275.841L908.248 275.091C908.443 274.89 908.676 274.731 908.934 274.623C909.191 274.514 909.468 274.459 909.747 274.46H910.594C910.818 274.46 911.034 274.371 911.193 274.211C911.351 274.051 911.441 273.834 911.441 273.608V272.756C911.439 272.474 911.492 272.195 911.598 271.934C911.704 271.674 911.861 271.437 912.059 271.238L912.813 270.488C912.893 270.409 912.957 270.314 913.001 270.209C913.045 270.105 913.067 269.992 913.067 269.879C913.067 269.765 913.045 269.653 913.001 269.548C912.957 269.443 912.893 269.349 912.813 269.269L912.059 268.511C911.862 268.313 911.706 268.077 911.6 267.818C911.494 267.559 911.44 267.282 911.441 267.002V266.149C911.441 265.923 911.351 265.706 911.193 265.547C911.034 265.387 910.818 265.297 910.594 265.297H909.747C909.469 265.298 909.193 265.243 908.936 265.137C908.678 265.03 908.445 264.873 908.248 264.675L907.503 263.925C907.424 263.842 907.329 263.776 907.224 263.732C907.119 263.687 907.007 263.664 906.893 263.664C906.779 263.664 906.666 263.687 906.562 263.732C906.457 263.776 906.362 263.842 906.283 263.925L905.538 264.675C905.341 264.873 905.107 265.03 904.85 265.137C904.593 265.243 904.317 265.298 904.039 265.297H903.192Z" fill="#18181B"/>
<path d="M906.236 272.076C906.071 272.074 905.912 272.004 905.793 271.88L904.434 270.397C904.319 270.272 904.254 270.103 904.254 269.927C904.254 269.75 904.319 269.581 904.434 269.456C904.551 269.333 904.708 269.264 904.872 269.264C905.035 269.264 905.192 269.333 905.31 269.456L906.236 270.468L908.529 267.973C908.647 267.85 908.804 267.781 908.968 267.781C909.131 267.781 909.288 267.85 909.406 267.973C909.521 268.098 909.585 268.267 909.585 268.444C909.585 268.62 909.521 268.79 909.406 268.914L906.67 271.88C906.554 272.004 906.398 272.074 906.236 272.076Z" fill="#18181B"/>
</g>
</g>
<g filter="url(#filter10_d_5204_63613)">
<rect x="789" y="42" width="243" height="150" rx="12" fill="#FCFCFC" shape-rendering="crispEdges"/>
<rect x="789.5" y="42.5" width="242" height="149" rx="11.5" stroke="#F4F4F5" shape-rendering="crispEdges"/>
<rect x="805" y="58" width="122" height="16" rx="4" fill="#F4F4F5"/>
<rect x="968" y="58" width="20" height="20" rx="4" fill="#F4F4F5"/>
<rect x="996" y="58" width="20" height="20" rx="4" fill="#F4F4F5"/>
<rect x="805" y="82" width="80" height="20" rx="6" fill="#F4F4F5"/>
<rect x="936" y="82" width="80" height="20" rx="6" fill="#F4F4F5"/>
<rect x="805" y="114" width="41" height="16" rx="4" fill="#F4F4F5"/>
<rect x="854" y="114" width="77" height="16" rx="4" fill="#F4F4F5"/>
<rect x="939" y="114" width="79" height="16" rx="4" fill="#F4F4F5"/>
<rect x="805" y="138" width="77" height="16" rx="4" fill="#F4F4F5"/>
<rect x="890" y="138" width="41" height="16" rx="4" fill="#F4F4F5"/>
<rect x="939" y="138" width="79" height="16" rx="4" fill="#F4F4F5"/>
<g filter="url(#filter11_dd_5204_63613)">
<mask id="path-117-inside-6_5204_63613" fill="white">
<path d="M883 42C883 28.7452 893.745 18 907 18C920.255 18 931 28.7452 931 42C931 55.2548 920.255 66 907 66C893.745 66 883 55.2548 883 42Z"/>
</mask>
<path d="M883 42C883 28.7452 893.745 18 907 18C920.255 18 931 28.7452 931 42C931 55.2548 920.255 66 907 66C893.745 66 883 55.2548 883 42Z" fill="white"/>
<path d="M907 66V65C894.297 65 884 54.7025 884 42H883H882C882 55.8071 893.193 67 907 67V66ZM931 42H930C930 54.7025 919.703 65 907 65V66V67C920.807 67 932 55.8071 932 42H931ZM907 18V19C919.703 19 930 29.2975 930 42H931H932C932 28.1929 920.807 17 907 17V18ZM907 18V17C893.193 17 882 28.1929 882 42H883H884C884 29.2975 894.297 19 907 19V18Z" fill="#F4F4F5" mask="url(#path-117-inside-6_5204_63613)"/>
<path d="M910.909 50.6652C910.712 50.6658 910.519 50.6101 910.349 50.5038C910.179 50.3976 910.039 50.2446 909.943 50.061L908.064 46.589C907.989 46.4502 907.969 46.2852 908.008 46.1303C908.047 45.9755 908.141 45.8435 908.272 45.7633C908.402 45.6832 908.556 45.6616 908.701 45.7031C908.846 45.7446 908.97 45.846 909.045 45.9849L910.924 49.4568L911.392 48.2324C911.489 47.9969 911.654 47.8009 911.863 47.6732C912.072 47.5456 912.315 47.4931 912.554 47.5235L913.791 47.6846L911.528 43.5199C911.49 43.4511 911.466 43.3752 911.457 43.2965C911.447 43.2178 911.452 43.1378 911.471 43.0611C911.49 42.9845 911.524 42.9126 911.569 42.8496C911.614 42.7867 911.671 42.7338 911.735 42.6942C911.8 42.6545 911.871 42.6288 911.944 42.6184C912.018 42.6081 912.093 42.6134 912.165 42.6339C912.237 42.6545 912.304 42.69 912.363 42.7383C912.422 42.7867 912.471 42.8469 912.509 42.9157L914.772 47.0885C914.875 47.2821 914.926 47.5023 914.919 47.7247C914.912 47.9471 914.847 48.1631 914.732 48.3489C914.618 48.5347 914.457 48.683 914.268 48.7776C914.08 48.8722 913.87 48.9093 913.663 48.8849L912.426 48.7157L911.95 49.9321C911.869 50.1394 911.734 50.318 911.562 50.4476C911.39 50.5772 911.187 50.6526 910.977 50.6652H910.909Z" fill="#18181B"/>
<path d="M902.755 50.6648H902.689C902.459 50.6514 902.237 50.571 902.048 50.4327C901.86 50.2945 901.712 50.104 901.623 49.8829L901.086 48.5768L899.747 48.7573C899.52 48.7882 899.29 48.7522 899.082 48.6535C898.875 48.5547 898.698 48.3971 898.573 48.1988C898.454 47.9972 898.391 47.7652 898.391 47.5285C898.391 47.2919 898.454 47.0599 898.573 46.8583L901.053 42.3988C901.135 42.2506 901.27 42.1425 901.429 42.0982C901.588 42.0539 901.757 42.077 901.9 42.1625C902.042 42.2479 902.146 42.3887 902.189 42.5539C902.232 42.7191 902.209 42.8951 902.127 43.0432L899.647 47.4942L900.995 47.3137C901.257 47.2785 901.524 47.3333 901.753 47.4697C901.983 47.6062 902.164 47.8169 902.268 48.0699L902.805 49.376L904.822 45.6725C904.904 45.5244 905.04 45.4163 905.198 45.372C905.357 45.3277 905.527 45.3508 905.669 45.4362C905.812 45.5217 905.916 45.6625 905.958 45.8277C906.001 45.9928 905.979 46.1689 905.896 46.317L903.813 50.0204C903.709 50.2163 903.555 50.3794 903.369 50.4927C903.183 50.6061 902.971 50.6655 902.755 50.6648Z" fill="#18181B"/>
<path d="M906.927 47.444C906.362 47.4444 905.821 47.2208 905.419 46.8217L904.674 46.0716C904.596 45.991 904.502 45.9269 904.399 45.883C904.296 45.8391 904.185 45.8163 904.073 45.8158H903.226C902.663 45.8136 902.123 45.5875 901.725 45.1867C901.327 44.7859 901.102 44.243 901.1 43.6763V42.8238C901.102 42.7041 901.079 42.5853 901.032 42.4751C900.986 42.3649 900.916 42.2659 900.829 42.1845L900.075 41.4344C899.679 41.0303 899.457 40.485 899.457 39.9171C899.455 39.6375 899.508 39.3604 899.612 39.1015C899.717 38.8425 899.872 38.607 900.067 38.4083L900.829 37.6496C900.908 37.57 900.97 37.4755 901.012 37.3716C901.054 37.2678 901.075 37.1566 901.075 37.0444V36.192C901.071 35.9092 901.123 35.6285 901.228 35.366C901.333 35.1035 901.488 34.8645 901.685 34.6625C901.881 34.4605 902.116 34.2997 902.374 34.1891C902.633 34.0786 902.911 34.0205 903.192 34.0183H904.039C904.15 34.0189 904.261 33.9974 904.364 33.955C904.467 33.9126 904.561 33.8501 904.64 33.7711L905.419 33.0295C905.826 32.6347 906.37 32.4141 906.935 32.4141C907.501 32.4141 908.044 32.6347 908.451 33.0295L909.196 33.7796C909.275 33.8586 909.369 33.9211 909.473 33.9635C909.576 34.006 909.686 34.0275 909.798 34.0268H910.645C911.209 34.0291 911.75 34.2564 912.148 34.659C912.547 35.0616 912.77 35.6067 912.77 36.1749V37.0273C912.77 37.1395 912.791 37.2507 912.833 37.3546C912.875 37.4585 912.937 37.5529 913.016 37.6326L913.77 38.3912C914.164 38.7947 914.385 39.3381 914.385 39.9043C914.385 40.4704 914.164 41.0139 913.77 41.4173L913.016 42.1675C912.936 42.2481 912.874 42.344 912.831 42.4494C912.789 42.5548 912.768 42.6676 912.77 42.7812V43.6336C912.775 43.9164 912.724 44.1974 912.62 44.4603C912.516 44.7232 912.362 44.9629 912.166 45.1656C911.97 45.3684 911.736 45.5302 911.478 45.6418C911.22 45.7534 910.942 45.8125 910.661 45.8158H909.815C909.703 45.8163 909.592 45.8391 909.488 45.883C909.385 45.9269 909.292 45.991 909.213 46.0716L908.468 46.8217C908.265 47.0234 908.024 47.1824 907.76 47.2893C907.495 47.3961 907.212 47.4487 906.927 47.444ZM903.192 35.2969C902.967 35.2969 902.752 35.3867 902.593 35.5466C902.434 35.7065 902.345 35.9233 902.345 36.1494V37.0018C902.346 37.2819 902.292 37.5594 902.186 37.8184C902.08 38.0773 901.924 38.3126 901.727 38.5106L900.981 39.2692C900.901 39.3482 900.838 39.4423 900.794 39.5462C900.751 39.6501 900.728 39.7617 900.727 39.8744C900.727 39.9887 900.749 40.1018 900.793 40.2073C900.836 40.3127 900.9 40.4082 900.981 40.4882L901.727 41.2383C901.925 41.4373 902.081 41.674 902.187 41.9345C902.293 42.1949 902.347 42.4741 902.345 42.7556V43.6081C902.345 43.8341 902.434 44.051 902.593 44.2108C902.752 44.3707 902.967 44.4605 903.192 44.4605H904.039C904.318 44.4592 904.594 44.5144 904.852 44.6227C905.109 44.7311 905.343 44.8904 905.538 45.0913L906.283 45.8414C906.448 45.9979 906.666 46.085 906.893 46.085C907.119 46.085 907.338 45.9979 907.503 45.8414L908.248 45.0913C908.443 44.8904 908.676 44.7311 908.934 44.6227C909.191 44.5144 909.468 44.4592 909.747 44.4605H910.594C910.818 44.4605 911.034 44.3707 911.193 44.2108C911.351 44.051 911.441 43.8341 911.441 43.6081V42.7556C911.439 42.4741 911.492 42.1949 911.598 41.9345C911.704 41.674 911.861 41.4373 912.059 41.2383L912.813 40.4882C912.893 40.4088 912.957 40.314 913.001 40.2093C913.045 40.1047 913.067 39.9923 913.067 39.8787C913.067 39.7652 913.045 39.6527 913.001 39.5481C912.957 39.4434 912.893 39.3486 912.813 39.2692L912.059 38.5106C911.862 38.3126 911.706 38.0773 911.6 37.8184C911.494 37.5594 911.44 37.2819 911.441 37.0018V36.1494C911.441 35.9233 911.351 35.7065 911.193 35.5466C911.034 35.3867 910.818 35.2969 910.594 35.2969H909.747C909.469 35.2979 909.193 35.2434 908.936 35.1366C908.678 35.0298 908.445 34.8728 908.248 34.6747L907.503 33.9245C907.424 33.842 907.329 33.7764 907.224 33.7316C907.119 33.6868 907.007 33.6637 906.893 33.6637C906.779 33.6637 906.666 33.6868 906.562 33.7316C906.457 33.7764 906.362 33.842 906.283 33.9245L905.538 34.6747C905.341 34.8728 905.107 35.0298 904.85 35.1366C904.593 35.2434 904.317 35.2979 904.039 35.2969H903.192Z" fill="#18181B"/>
<path d="M906.236 42.0756C906.071 42.074 905.912 42.0041 905.793 41.8802L904.434 40.3974C904.319 40.2725 904.254 40.1032 904.254 39.9267C904.254 39.7503 904.319 39.581 904.434 39.4561C904.551 39.333 904.708 39.2641 904.872 39.2641C905.035 39.2641 905.192 39.333 905.31 39.4561L906.236 40.4684L908.529 37.9732C908.647 37.8501 908.804 37.7812 908.968 37.7812C909.131 37.7812 909.288 37.8501 909.406 37.9732C909.521 38.0981 909.585 38.2674 909.585 38.4439C909.585 38.6203 909.521 38.7896 909.406 38.9145L906.67 41.8802C906.554 42.0036 906.398 42.0735 906.236 42.0756Z" fill="#18181B"/>
</g>
</g>
<g filter="url(#filter12_di_5204_63613)">
<mask id="path-123-inside-7_5204_63613" fill="white">
<path d="M482 158C482 135.909 499.909 118 522 118C544.091 118 562 135.909 562 158C562 180.091 544.091 198 522 198C499.909 198 482 180.091 482 158Z"/>
</mask>
<path d="M482 158C482 135.909 499.909 118 522 118C544.091 118 562 135.909 562 158C562 180.091 544.091 198 522 198C499.909 198 482 180.091 482 158Z" fill="#F6F9FD"/>
<path d="M482 156.5C482 134.409 499.909 116.5 522 116.5C544.091 116.5 562 134.409 562 156.5V158C562 136.737 544.091 119.5 522 119.5C499.909 119.5 482 136.737 482 158V156.5ZM562 159.5C562 181.591 544.091 199.5 522 199.5C499.909 199.5 482 181.591 482 159.5V158C482 179.263 499.909 196.5 522 196.5C544.091 196.5 562 179.263 562 158V159.5ZM482 198V118V198ZM562 118V198V118Z" fill="#266AE9" fill-opacity="0.6" mask="url(#path-123-inside-7_5204_63613)"/>
<path d="M519.208 145.195C519.918 142.268 524.082 142.268 524.792 145.195C524.898 145.635 525.107 146.043 525.401 146.387C525.695 146.73 526.066 147 526.484 147.173C526.902 147.346 527.355 147.418 527.806 147.383C528.257 147.348 528.694 147.207 529.08 146.972C531.652 145.405 534.597 148.348 533.03 150.922C532.795 151.308 532.654 151.744 532.619 152.195C532.584 152.645 532.656 153.098 532.829 153.516C533.002 153.933 533.271 154.304 533.615 154.598C533.958 154.893 534.366 155.102 534.805 155.208C537.732 155.918 537.732 160.082 534.805 160.792C534.365 160.898 533.957 161.107 533.613 161.401C533.27 161.695 533 162.066 532.827 162.484C532.654 162.902 532.582 163.355 532.617 163.806C532.652 164.257 532.793 164.694 533.028 165.08C534.595 167.652 531.652 170.597 529.078 169.03C528.692 168.795 528.256 168.654 527.805 168.619C527.355 168.584 526.902 168.656 526.484 168.829C526.067 169.002 525.696 169.271 525.402 169.615C525.107 169.958 524.898 170.366 524.792 170.805C524.082 173.732 519.918 173.732 519.208 170.805C519.102 170.365 518.893 169.957 518.599 169.613C518.305 169.27 517.934 169 517.516 168.827C517.098 168.654 516.645 168.582 516.194 168.617C515.743 168.652 515.306 168.793 514.92 169.028C512.348 170.595 509.403 167.652 510.97 165.078C511.205 164.692 511.346 164.256 511.381 163.805C511.416 163.355 511.344 162.902 511.171 162.484C510.998 162.067 510.729 161.696 510.385 161.402C510.042 161.107 509.634 160.898 509.195 160.792C506.268 160.082 506.268 155.918 509.195 155.208C509.635 155.102 510.043 154.893 510.387 154.599C510.73 154.305 511 153.934 511.173 153.516C511.346 153.098 511.418 152.645 511.383 152.194C511.348 151.743 511.207 151.306 510.972 150.92C509.405 148.348 512.348 145.403 514.922 146.97C516.588 147.983 518.748 147.087 519.208 145.195Z" stroke="#266AE9" stroke-width="2" stroke-linecap="round" stroke-linejoin="round"/>
<path d="M517 158C517 159.326 517.527 160.598 518.464 161.536C519.402 162.473 520.674 163 522 163C523.326 163 524.598 162.473 525.536 161.536C526.473 160.598 527 159.326 527 158C527 156.674 526.473 155.402 525.536 154.464C524.598 153.527 523.326 153 522 153C520.674 153 519.402 153.527 518.464 154.464C517.527 155.402 517 156.674 517 158Z" stroke="#266AE9" stroke-width="2" stroke-linecap="round" stroke-linejoin="round"/>
</g>
<defs>
<filter id="filter0_d_5204_63613" x="259" y="240" width="267" height="198" filterUnits="userSpaceOnUse" color-interpolation-filters="sRGB">
<feFlood flood-opacity="0" result="BackgroundImageFix"/>
<feColorMatrix in="SourceAlpha" type="matrix" values="0 0 0 0 0 0 0 0 0 0 0 0 0 0 0 0 0 0 127 0" result="hardAlpha"/>
<feMorphology radius="4" operator="erode" in="SourceAlpha" result="effect1_dropShadow_5204_63613"/>
<feOffset dy="4"/>
<feGaussianBlur stdDeviation="8"/>
<feComposite in2="hardAlpha" operator="out"/>
<feColorMatrix type="matrix" values="0 0 0 0 0.0588235 0 0 0 0 0.141176 0 0 0 0 0.0666667 0 0 0 0.02 0"/>
<feBlend mode="normal" in2="BackgroundImageFix" result="effect1_dropShadow_5204_63613"/>
<feBlend mode="normal" in="SourceGraphic" in2="effect1_dropShadow_5204_63613" result="shape"/>
</filter>
<filter id="filter1_dd_5204_63613" x="337" y="230" width="104" height="104" filterUnits="userSpaceOnUse" color-interpolation-filters="sRGB">
<feFlood flood-opacity="0" result="BackgroundImageFix"/>
<feColorMatrix in="SourceAlpha" type="matrix" values="0 0 0 0 0 0 0 0 0 0 0 0 0 0 0 0 0 0 127 0" result="hardAlpha"/>
<feMorphology radius="4" operator="erode" in="SourceAlpha" result="effect1_dropShadow_5204_63613"/>
<feOffset dy="4"/>
<feGaussianBlur stdDeviation="8"/>
<feComposite in2="hardAlpha" operator="out"/>
<feColorMatrix type="matrix" values="0 0 0 0 0.0588235 0 0 0 0 0.141176 0 0 0 0 0.0666667 0 0 0 0.02 0"/>
<feBlend mode="normal" in2="BackgroundImageFix" result="effect1_dropShadow_5204_63613"/>
<feColorMatrix in="SourceAlpha" type="matrix" values="0 0 0 0 0 0 0 0 0 0 0 0 0 0 0 0 0 0 127 0" result="hardAlpha"/>
<feMorphology radius="4" operator="erode" in="SourceAlpha" result="effect2_dropShadow_5204_63613"/>
<feOffset dy="10"/>
<feGaussianBlur stdDeviation="16"/>
<feComposite in2="hardAlpha" operator="out"/>
<feColorMatrix type="matrix" values="0 0 0 0 0.0627451 0 0 0 0 0.0588235 0 0 0 0 0.141176 0 0 0 0.05 0"/>
<feBlend mode="normal" in2="effect1_dropShadow_5204_63613" result="effect2_dropShadow_5204_63613"/>
<feBlend mode="normal" in="SourceGraphic" in2="effect2_dropShadow_5204_63613" result="shape"/>
</filter>
<filter id="filter2_d_5204_63613" x="0" y="240" width="267" height="198" filterUnits="userSpaceOnUse" color-interpolation-filters="sRGB">
<feFlood flood-opacity="0" result="BackgroundImageFix"/>
<feColorMatrix in="SourceAlpha" type="matrix" values="0 0 0 0 0 0 0 0 0 0 0 0 0 0 0 0 0 0 127 0" result="hardAlpha"/>
<feMorphology radius="4" operator="erode" in="SourceAlpha" result="effect1_dropShadow_5204_63613"/>
<feOffset dy="4"/>
<feGaussianBlur stdDeviation="8"/>
<feComposite in2="hardAlpha" operator="out"/>
<feColorMatrix type="matrix" values="0 0 0 0 0.0588235 0 0 0 0 0.141176 0 0 0 0 0.0666667 0 0 0 0.02 0"/>
<feBlend mode="normal" in2="BackgroundImageFix" result="effect1_dropShadow_5204_63613"/>
<feBlend mode="normal" in="SourceGraphic" in2="effect1_dropShadow_5204_63613" result="shape"/>
</filter>
<filter id="filter3_dd_5204_63613" x="78" y="230" width="104" height="104" filterUnits="userSpaceOnUse" color-interpolation-filters="sRGB">
<feFlood flood-opacity="0" result="BackgroundImageFix"/>
<feColorMatrix in="SourceAlpha" type="matrix" values="0 0 0 0 0 0 0 0 0 0 0 0 0 0 0 0 0 0 127 0" result="hardAlpha"/>
<feMorphology radius="4" operator="erode" in="SourceAlpha" result="effect1_dropShadow_5204_63613"/>
<feOffset dy="4"/>
<feGaussianBlur stdDeviation="8"/>
<feComposite in2="hardAlpha" operator="out"/>
<feColorMatrix type="matrix" values="0 0 0 0 0.0588235 0 0 0 0 0.141176 0 0 0 0 0.0666667 0 0 0 0.02 0"/>
<feBlend mode="normal" in2="BackgroundImageFix" result="effect1_dropShadow_5204_63613"/>
<feColorMatrix in="SourceAlpha" type="matrix" values="0 0 0 0 0 0 0 0 0 0 0 0 0 0 0 0 0 0 127 0" result="hardAlpha"/>
<feMorphology radius="4" operator="erode" in="SourceAlpha" result="effect2_dropShadow_5204_63613"/>
<feOffset dy="10"/>
<feGaussianBlur stdDeviation="16"/>
<feComposite in2="hardAlpha" operator="out"/>
<feColorMatrix type="matrix" values="0 0 0 0 0.0627451 0 0 0 0 0.0588235 0 0 0 0 0.141176 0 0 0 0.05 0"/>
<feBlend mode="normal" in2="effect1_dropShadow_5204_63613" result="effect2_dropShadow_5204_63613"/>
<feBlend mode="normal" in="SourceGraphic" in2="effect2_dropShadow_5204_63613" result="shape"/>
</filter>
<filter id="filter4_d_5204_63613" x="0" y="10" width="267" height="198" filterUnits="userSpaceOnUse" color-interpolation-filters="sRGB">
<feFlood flood-opacity="0" result="BackgroundImageFix"/>
<feColorMatrix in="SourceAlpha" type="matrix" values="0 0 0 0 0 0 0 0 0 0 0 0 0 0 0 0 0 0 127 0" result="hardAlpha"/>
<feMorphology radius="4" operator="erode" in="SourceAlpha" result="effect1_dropShadow_5204_63613"/>
<feOffset dy="4"/>
<feGaussianBlur stdDeviation="8"/>
<feComposite in2="hardAlpha" operator="out"/>
<feColorMatrix type="matrix" values="0 0 0 0 0.0588235 0 0 0 0 0.141176 0 0 0 0 0.0666667 0 0 0 0.02 0"/>
<feBlend mode="normal" in2="BackgroundImageFix" result="effect1_dropShadow_5204_63613"/>
<feBlend mode="normal" in="SourceGraphic" in2="effect1_dropShadow_5204_63613" result="shape"/>
</filter>
<filter id="filter5_dd_5204_63613" x="78" y="0" width="104" height="104" filterUnits="userSpaceOnUse" color-interpolation-filters="sRGB">
<feFlood flood-opacity="0" result="BackgroundImageFix"/>
<feColorMatrix in="SourceAlpha" type="matrix" values="0 0 0 0 0 0 0 0 0 0 0 0 0 0 0 0 0 0 127 0" result="hardAlpha"/>
<feMorphology radius="4" operator="erode" in="SourceAlpha" result="effect1_dropShadow_5204_63613"/>
<feOffset dy="4"/>
<feGaussianBlur stdDeviation="8"/>
<feComposite in2="hardAlpha" operator="out"/>
<feColorMatrix type="matrix" values="0 0 0 0 0.0588235 0 0 0 0 0.141176 0 0 0 0 0.0666667 0 0 0 0.02 0"/>
<feBlend mode="normal" in2="BackgroundImageFix" result="effect1_dropShadow_5204_63613"/>
<feColorMatrix in="SourceAlpha" type="matrix" values="0 0 0 0 0 0 0 0 0 0 0 0 0 0 0 0 0 0 127 0" result="hardAlpha"/>
<feMorphology radius="4" operator="erode" in="SourceAlpha" result="effect2_dropShadow_5204_63613"/>
<feOffset dy="10"/>
<feGaussianBlur stdDeviation="16"/>
<feComposite in2="hardAlpha" operator="out"/>
<feColorMatrix type="matrix" values="0 0 0 0 0.0627451 0 0 0 0 0.0588235 0 0 0 0 0.141176 0 0 0 0.05 0"/>
<feBlend mode="normal" in2="effect1_dropShadow_5204_63613" result="effect2_dropShadow_5204_63613"/>
<feBlend mode="normal" in="SourceGraphic" in2="effect2_dropShadow_5204_63613" result="shape"/>
</filter>
<filter id="filter6_d_5204_63613" x="518" y="240" width="267" height="198" filterUnits="userSpaceOnUse" color-interpolation-filters="sRGB">
<feFlood flood-opacity="0" result="BackgroundImageFix"/>
<feColorMatrix in="SourceAlpha" type="matrix" values="0 0 0 0 0 0 0 0 0 0 0 0 0 0 0 0 0 0 127 0" result="hardAlpha"/>
<feMorphology radius="4" operator="erode" in="SourceAlpha" result="effect1_dropShadow_5204_63613"/>
<feOffset dy="4"/>
<feGaussianBlur stdDeviation="8"/>
<feComposite in2="hardAlpha" operator="out"/>
<feColorMatrix type="matrix" values="0 0 0 0 0.0588235 0 0 0 0 0.141176 0 0 0 0 0.0666667 0 0 0 0.02 0"/>
<feBlend mode="normal" in2="BackgroundImageFix" result="effect1_dropShadow_5204_63613"/>
<feBlend mode="normal" in="SourceGraphic" in2="effect1_dropShadow_5204_63613" result="shape"/>
</filter>
<filter id="filter7_dd_5204_63613" x="596" y="230" width="104" height="104" filterUnits="userSpaceOnUse" color-interpolation-filters="sRGB">
<feFlood flood-opacity="0" result="BackgroundImageFix"/>
<feColorMatrix in="SourceAlpha" type="matrix" values="0 0 0 0 0 0 0 0 0 0 0 0 0 0 0 0 0 0 127 0" result="hardAlpha"/>
<feMorphology radius="4" operator="erode" in="SourceAlpha" result="effect1_dropShadow_5204_63613"/>
<feOffset dy="4"/>
<feGaussianBlur stdDeviation="8"/>
<feComposite in2="hardAlpha" operator="out"/>
<feColorMatrix type="matrix" values="0 0 0 0 0.0588235 0 0 0 0 0.141176 0 0 0 0 0.0666667 0 0 0 0.02 0"/>
<feBlend mode="normal" in2="BackgroundImageFix" result="effect1_dropShadow_5204_63613"/>
<feColorMatrix in="SourceAlpha" type="matrix" values="0 0 0 0 0 0 0 0 0 0 0 0 0 0 0 0 0 0 127 0" result="hardAlpha"/>
<feMorphology radius="4" operator="erode" in="SourceAlpha" result="effect2_dropShadow_5204_63613"/>
<feOffset dy="10"/>
<feGaussianBlur stdDeviation="16"/>
<feComposite in2="hardAlpha" operator="out"/>
<feColorMatrix type="matrix" values="0 0 0 0 0.0627451 0 0 0 0 0.0588235 0 0 0 0 0.141176 0 0 0 0.05 0"/>
<feBlend mode="normal" in2="effect1_dropShadow_5204_63613" result="effect2_dropShadow_5204_63613"/>
<feBlend mode="normal" in="SourceGraphic" in2="effect2_dropShadow_5204_63613" result="shape"/>
</filter>
<filter id="filter8_d_5204_63613" x="777" y="240" width="267" height="198" filterUnits="userSpaceOnUse" color-interpolation-filters="sRGB">
<feFlood flood-opacity="0" result="BackgroundImageFix"/>
<feColorMatrix in="SourceAlpha" type="matrix" values="0 0 0 0 0 0 0 0 0 0 0 0 0 0 0 0 0 0 127 0" result="hardAlpha"/>
<feMorphology radius="4" operator="erode" in="SourceAlpha" result="effect1_dropShadow_5204_63613"/>
<feOffset dy="4"/>
<feGaussianBlur stdDeviation="8"/>
<feComposite in2="hardAlpha" operator="out"/>
<feColorMatrix type="matrix" values="0 0 0 0 0.0588235 0 0 0 0 0.141176 0 0 0 0 0.0666667 0 0 0 0.02 0"/>
<feBlend mode="normal" in2="BackgroundImageFix" result="effect1_dropShadow_5204_63613"/>
<feBlend mode="normal" in="SourceGraphic" in2="effect1_dropShadow_5204_63613" result="shape"/>
</filter>
<filter id="filter9_dd_5204_63613" x="855" y="230" width="104" height="104" filterUnits="userSpaceOnUse" color-interpolation-filters="sRGB">
<feFlood flood-opacity="0" result="BackgroundImageFix"/>
<feColorMatrix in="SourceAlpha" type="matrix" values="0 0 0 0 0 0 0 0 0 0 0 0 0 0 0 0 0 0 127 0" result="hardAlpha"/>
<feMorphology radius="4" operator="erode" in="SourceAlpha" result="effect1_dropShadow_5204_63613"/>
<feOffset dy="4"/>
<feGaussianBlur stdDeviation="8"/>
<feComposite in2="hardAlpha" operator="out"/>
<feColorMatrix type="matrix" values="0 0 0 0 0.0588235 0 0 0 0 0.141176 0 0 0 0 0.0666667 0 0 0 0.02 0"/>
<feBlend mode="normal" in2="BackgroundImageFix" result="effect1_dropShadow_5204_63613"/>
<feColorMatrix in="SourceAlpha" type="matrix" values="0 0 0 0 0 0 0 0 0 0 0 0 0 0 0 0 0 0 127 0" result="hardAlpha"/>
<feMorphology radius="4" operator="erode" in="SourceAlpha" result="effect2_dropShadow_5204_63613"/>
<feOffset dy="10"/>
<feGaussianBlur stdDeviation="16"/>
<feComposite in2="hardAlpha" operator="out"/>
<feColorMatrix type="matrix" values="0 0 0 0 0.0627451 0 0 0 0 0.0588235 0 0 0 0 0.141176 0 0 0 0.05 0"/>
<feBlend mode="normal" in2="effect1_dropShadow_5204_63613" result="effect2_dropShadow_5204_63613"/>
<feBlend mode="normal" in="SourceGraphic" in2="effect2_dropShadow_5204_63613" result="shape"/>
</filter>
<filter id="filter10_d_5204_63613" x="777" y="10" width="267" height="198" filterUnits="userSpaceOnUse" color-interpolation-filters="sRGB">
<feFlood flood-opacity="0" result="BackgroundImageFix"/>
<feColorMatrix in="SourceAlpha" type="matrix" values="0 0 0 0 0 0 0 0 0 0 0 0 0 0 0 0 0 0 127 0" result="hardAlpha"/>
<feMorphology radius="4" operator="erode" in="SourceAlpha" result="effect1_dropShadow_5204_63613"/>
<feOffset dy="4"/>
<feGaussianBlur stdDeviation="8"/>
<feComposite in2="hardAlpha" operator="out"/>
<feColorMatrix type="matrix" values="0 0 0 0 0.0588235 0 0 0 0 0.141176 0 0 0 0 0.0666667 0 0 0 0.02 0"/>
<feBlend mode="normal" in2="BackgroundImageFix" result="effect1_dropShadow_5204_63613"/>
<feBlend mode="normal" in="SourceGraphic" in2="effect1_dropShadow_5204_63613" result="shape"/>
</filter>
<filter id="filter11_dd_5204_63613" x="855" y="0" width="104" height="104" filterUnits="userSpaceOnUse" color-interpolation-filters="sRGB">
<feFlood flood-opacity="0" result="BackgroundImageFix"/>
<feColorMatrix in="SourceAlpha" type="matrix" values="0 0 0 0 0 0 0 0 0 0 0 0 0 0 0 0 0 0 127 0" result="hardAlpha"/>
<feMorphology radius="4" operator="erode" in="SourceAlpha" result="effect1_dropShadow_5204_63613"/>
<feOffset dy="4"/>
<feGaussianBlur stdDeviation="8"/>
<feComposite in2="hardAlpha" operator="out"/>
<feColorMatrix type="matrix" values="0 0 0 0 0.0588235 0 0 0 0 0.141176 0 0 0 0 0.0666667 0 0 0 0.02 0"/>
<feBlend mode="normal" in2="BackgroundImageFix" result="effect1_dropShadow_5204_63613"/>
<feColorMatrix in="SourceAlpha" type="matrix" values="0 0 0 0 0 0 0 0 0 0 0 0 0 0 0 0 0 0 127 0" result="hardAlpha"/>
<feMorphology radius="4" operator="erode" in="SourceAlpha" result="effect2_dropShadow_5204_63613"/>
<feOffset dy="10"/>
<feGaussianBlur stdDeviation="16"/>
<feComposite in2="hardAlpha" operator="out"/>
<feColorMatrix type="matrix" values="0 0 0 0 0.0627451 0 0 0 0 0.0588235 0 0 0 0 0.141176 0 0 0 0.05 0"/>
<feBlend mode="normal" in2="effect1_dropShadow_5204_63613" result="effect2_dropShadow_5204_63613"/>
<feBlend mode="normal" in="SourceGraphic" in2="effect2_dropShadow_5204_63613" result="shape"/>
</filter>
<filter id="filter12_di_5204_63613" x="430" y="90" width="184" height="184" filterUnits="userSpaceOnUse" color-interpolation-filters="sRGB">
<feFlood flood-opacity="0" result="BackgroundImageFix"/>
<feColorMatrix in="SourceAlpha" type="matrix" values="0 0 0 0 0 0 0 0 0 0 0 0 0 0 0 0 0 0 127 0" result="hardAlpha"/>
<feMorphology radius="12" operator="erode" in="SourceAlpha" result="effect1_dropShadow_5204_63613"/>
<feOffset dy="24"/>
<feGaussianBlur stdDeviation="32"/>
<feComposite in2="hardAlpha" operator="out"/>
<feColorMatrix type="matrix" values="0 0 0 0 0.0627451 0 0 0 0 0.0588235 0 0 0 0 0.141176 0 0 0 0.12 0"/>
<feBlend mode="normal" in2="BackgroundImageFix" result="effect1_dropShadow_5204_63613"/>
<feBlend mode="normal" in="SourceGraphic" in2="effect1_dropShadow_5204_63613" result="shape"/>
<feColorMatrix in="SourceAlpha" type="matrix" values="0 0 0 0 0 0 0 0 0 0 0 0 0 0 0 0 0 0 127 0" result="hardAlpha"/>
<feOffset dy="3"/>
<feGaussianBlur stdDeviation="6"/>
<feComposite in2="hardAlpha" operator="arithmetic" k2="-1" k3="1"/>
<feColorMatrix type="matrix" values="0 0 0 0 0.585337 0 0 0 0 0.717275 0 0 0 0 0.972356 0 0 0 0.16 0"/>
<feBlend mode="normal" in2="shape" result="effect2_innerShadow_5204_63613"/>
</filter>
<linearGradient id="paint0_linear_5204_63613" x1="522" y1="198.5" x2="522" y2="226.717" gradientUnits="userSpaceOnUse">
<stop offset="0.288462" stop-color="#78A2F1"/>
<stop offset="1" stop-color="#E4E4E7" stop-opacity="0.7"/>
</linearGradient>
<linearGradient id="paint1_linear_5204_63613" x1="522" y1="198.459" x2="522" y2="226.5" gradientUnits="userSpaceOnUse">
<stop offset="0.288462" stop-color="#78A2F1"/>
<stop offset="1" stop-color="#E4E4E7" stop-opacity="0.7"/>
</linearGradient>
<linearGradient id="paint2_linear_5204_63613" x1="522" y1="198.5" x2="522" y2="226.717" gradientUnits="userSpaceOnUse">
<stop offset="0.288462" stop-color="#78A2F1"/>
<stop offset="1" stop-color="#E4E4E7" stop-opacity="0.7"/>
</linearGradient>
<linearGradient id="paint3_linear_5204_63613" x1="522" y1="198.459" x2="522" y2="226.5" gradientUnits="userSpaceOnUse">
<stop offset="0.288462" stop-color="#78A2F1"/>
<stop offset="1" stop-color="#E4E4E7" stop-opacity="0.7"/>
</linearGradient>
<linearGradient id="paint4_linear_5204_63613" x1="522" y1="111.5" x2="522" y2="83.283" gradientUnits="userSpaceOnUse">
<stop offset="0.288462" stop-color="#78A2F1"/>
<stop offset="1" stop-color="#E4E4E7" stop-opacity="0.7"/>
</linearGradient>
<linearGradient id="paint5_linear_5204_63613" x1="522" y1="111.541" x2="522" y2="83.5" gradientUnits="userSpaceOnUse">
<stop offset="0.288462" stop-color="#78A2F1"/>
<stop offset="1" stop-color="#E4E4E7" stop-opacity="0.7"/>
</linearGradient>
<linearGradient id="paint6_linear_5204_63613" x1="522" y1="111.5" x2="522" y2="83.283" gradientUnits="userSpaceOnUse">
<stop offset="0.288462" stop-color="#78A2F1"/>
<stop offset="1" stop-color="#E4E4E7" stop-opacity="0.7"/>
</linearGradient>
<linearGradient id="paint7_linear_5204_63613" x1="522" y1="111.541" x2="522" y2="83.5" gradientUnits="userSpaceOnUse">
<stop offset="0.288462" stop-color="#78A2F1"/>
<stop offset="1" stop-color="#E4E4E7" stop-opacity="0.7"/>
</linearGradient>
</defs>
</svg>
