<svg width="724" height="346" viewBox="0 0 724 346" fill="none" xmlns="http://www.w3.org/2000/svg">
<g clip-path="url(#clip0_5453_67696)">
<g opacity="0.25" filter="url(#filter0_f_5453_67696)">
<path d="M337.445 108.683C231.27 140.768 140.399 241.547 140.399 241.547C140.399 241.547 91.813 210.696 73.0011 201.598C130.752 189.266 150.851 122.445 198.556 84.2545C227.343 81.1893 309.227 106.887 337.445 108.683Z" fill="url(#paint0_linear_5453_67696)"/>
</g>
<g opacity="0.3" filter="url(#filter1_f_5453_67696)">
<path d="M387.445 108.683C493.621 140.768 584.492 241.547 584.492 241.547C584.492 241.547 633.078 210.696 651.889 201.598C594.139 189.266 574.04 122.445 526.334 84.2545C497.547 81.1893 415.663 106.887 387.445 108.683Z" fill="url(#paint1_linear_5453_67696)"/>
</g>
<path d="M-55.9997 242L-55.9999 207C-56 201.477 -51.5228 197 -45.9999 197H352C357.523 197 362 192.523 362 187V162" stroke="url(#paint2_linear_5453_67696)" stroke-linecap="round" stroke-linejoin="round"/>
<path d="M489 241.5V207C489 201.477 484.523 197 479 197H372C366.477 197 362 192.523 362 187V162" stroke="url(#paint3_linear_5453_67696)" stroke-linecap="round" stroke-linejoin="round"/>
<path d="M780 242L780 207C780 201.477 775.523 197 770 197H372C366.477 197 362 192.523 362 187V162" stroke="url(#paint4_linear_5453_67696)" stroke-linecap="round" stroke-linejoin="round"/>
<path d="M230.5 241.5V207C230.5 201.477 234.977 197 240.5 197H352C357.523 197 362 192.523 362 187V162" stroke="url(#paint5_linear_5453_67696)" stroke-linecap="round" stroke-linejoin="round"/>
<path d="M-55.9997 8L-55.9999 42.9999C-56 48.5228 -51.5228 53 -45.9999 53H352C357.523 53 362 57.4772 362 63V88" stroke="url(#paint6_linear_5453_67696)" stroke-linecap="round" stroke-linejoin="round"/>
<path d="M489 8.5V43C489 48.5228 484.523 53 479 53H372C366.477 53 362 57.4772 362 63V88" stroke="url(#paint7_linear_5453_67696)" stroke-linecap="round" stroke-linejoin="round"/>
<path d="M780 8L780 42.9999C780 48.5228 775.523 53 770 53H372C366.477 53 362 57.4772 362 63V88" stroke="url(#paint8_linear_5453_67696)" stroke-linecap="round" stroke-linejoin="round"/>
<path d="M230.5 8.5V43C230.5 48.5228 234.977 53 240.5 53H352C357.523 53 362 57.4772 362 63V88" stroke="url(#paint9_linear_5453_67696)" stroke-linecap="round" stroke-linejoin="round"/>
<g filter="url(#filter2_d_5453_67696)">
<rect x="111" y="242" width="243" height="150" rx="12" fill="#FCFCFC" shape-rendering="crispEdges"/>
<rect x="111.5" y="242.5" width="242" height="149" rx="11.5" stroke="#F4F4F5" shape-rendering="crispEdges"/>
<rect x="127" y="258" width="122" height="16" rx="4" fill="#F4F4F5"/>
<rect x="290" y="258" width="20" height="20" rx="4" fill="#F4F4F5"/>
<rect x="318" y="258" width="20" height="20" rx="4" fill="#F4F4F5"/>
<rect x="127" y="282" width="80" height="20" rx="6" fill="#F4F4F5"/>
<rect x="258" y="282" width="80" height="20" rx="6" fill="#F4F4F5"/>
<rect x="127" y="314" width="40" height="16" rx="4" fill="#F4F4F5"/>
<rect x="175" y="314" width="76" height="16" rx="4" fill="#F4F4F5"/>
<rect x="259" y="314" width="78" height="16" rx="4" fill="#F4F4F5"/>
<rect x="127" y="338" width="76" height="16" rx="4" fill="#F4F4F5"/>
<rect x="211" y="338" width="40" height="16" rx="4" fill="#F4F4F5"/>
<rect x="259" y="338" width="78" height="16" rx="4" fill="#F4F4F5"/>
<g filter="url(#filter3_dd_5453_67696)">
<mask id="path-24-inside-1_5453_67696" fill="white">
<path d="M205 242C205 228.745 215.745 218 229 218C242.255 218 253 228.745 253 242C253 255.255 242.255 266 229 266C215.745 266 205 255.255 205 242Z"/>
</mask>
<path d="M205 242C205 228.745 215.745 218 229 218C242.255 218 253 228.745 253 242C253 255.255 242.255 266 229 266C215.745 266 205 255.255 205 242Z" fill="#FAFAFA"/>
<path d="M229 266V265C216.297 265 206 254.703 206 242H205H204C204 255.807 215.193 267 229 267V266ZM253 242H252C252 254.703 241.703 265 229 265V266V267C242.807 267 254 255.807 254 242H253ZM229 218V219C241.703 219 252 229.297 252 242H253H254C254 228.193 242.807 217 229 217V218ZM229 218V217C215.193 217 204 228.193 204 242H205H206C206 229.297 216.297 219 229 219V218Z" fill="#E4E4E7" mask="url(#path-24-inside-1_5453_67696)"/>
<path d="M232.909 250.665C232.712 250.666 232.519 250.61 232.349 250.504C232.179 250.398 232.039 250.245 231.943 250.061L230.064 246.589C229.989 246.45 229.969 246.285 230.008 246.13C230.047 245.975 230.141 245.843 230.272 245.763C230.402 245.683 230.556 245.662 230.701 245.703C230.846 245.745 230.97 245.846 231.045 245.985L232.924 249.457L233.392 248.232C233.489 247.997 233.654 247.801 233.863 247.673C234.072 247.546 234.315 247.493 234.554 247.523L235.791 247.685L233.528 243.52C233.49 243.451 233.466 243.375 233.457 243.296C233.447 243.218 233.452 243.138 233.471 243.061C233.49 242.984 233.524 242.913 233.569 242.85C233.614 242.787 233.671 242.734 233.735 242.694C233.8 242.655 233.871 242.629 233.944 242.618C234.018 242.608 234.093 242.613 234.165 242.634C234.237 242.655 234.304 242.69 234.363 242.738C234.422 242.787 234.471 242.847 234.509 242.916L236.772 247.088C236.875 247.282 236.926 247.502 236.919 247.725C236.912 247.947 236.847 248.163 236.732 248.349C236.618 248.535 236.457 248.683 236.268 248.778C236.08 248.872 235.87 248.909 235.663 248.885L234.426 248.716L233.95 249.932C233.869 250.139 233.734 250.318 233.562 250.448C233.39 250.577 233.187 250.653 232.977 250.665H232.909Z" fill="#18181B"/>
<path d="M224.755 250.665H224.689C224.459 250.651 224.237 250.571 224.048 250.433C223.86 250.295 223.712 250.104 223.623 249.883L223.086 248.577L221.747 248.757C221.52 248.788 221.29 248.752 221.082 248.653C220.875 248.555 220.698 248.397 220.573 248.199C220.454 247.997 220.391 247.765 220.391 247.529C220.391 247.292 220.454 247.06 220.573 246.858L223.053 242.399C223.135 242.251 223.27 242.143 223.429 242.098C223.588 242.054 223.757 242.077 223.9 242.162C224.042 242.248 224.146 242.389 224.189 242.554C224.232 242.719 224.209 242.895 224.127 243.043L221.647 247.494L222.995 247.314C223.257 247.278 223.524 247.333 223.753 247.47C223.983 247.606 224.164 247.817 224.268 248.07L224.805 249.376L226.822 245.673C226.904 245.524 227.04 245.416 227.198 245.372C227.357 245.328 227.527 245.351 227.669 245.436C227.812 245.522 227.916 245.663 227.958 245.828C228.001 245.993 227.979 246.169 227.896 246.317L225.813 250.02C225.709 250.216 225.555 250.379 225.369 250.493C225.183 250.606 224.971 250.666 224.755 250.665Z" fill="#18181B"/>
<path d="M228.927 247.444C228.362 247.444 227.821 247.221 227.419 246.822L226.674 246.072C226.596 245.991 226.502 245.927 226.399 245.883C226.296 245.839 226.185 245.816 226.073 245.816H225.226C224.663 245.814 224.123 245.587 223.725 245.187C223.327 244.786 223.102 244.243 223.1 243.676V242.824C223.102 242.704 223.079 242.585 223.032 242.475C222.986 242.365 222.916 242.266 222.829 242.185L222.075 241.434C221.679 241.03 221.457 240.485 221.457 239.917C221.455 239.638 221.508 239.36 221.612 239.101C221.717 238.843 221.872 238.607 222.067 238.408L222.829 237.65C222.908 237.57 222.97 237.476 223.012 237.372C223.054 237.268 223.075 237.157 223.075 237.044V236.192C223.071 235.909 223.123 235.628 223.228 235.366C223.333 235.104 223.488 234.864 223.685 234.663C223.881 234.461 224.116 234.3 224.374 234.189C224.633 234.079 224.911 234.021 225.192 234.018H226.039C226.15 234.019 226.261 233.997 226.364 233.955C226.467 233.913 226.561 233.85 226.64 233.771L227.419 233.029C227.826 232.635 228.37 232.414 228.935 232.414C229.501 232.414 230.044 232.635 230.451 233.029L231.196 233.78C231.275 233.859 231.369 233.921 231.473 233.964C231.576 234.006 231.686 234.027 231.798 234.027H232.645C233.209 234.029 233.75 234.256 234.148 234.659C234.547 235.062 234.77 235.607 234.77 236.175V237.027C234.77 237.14 234.791 237.251 234.833 237.355C234.875 237.458 234.937 237.553 235.016 237.633L235.77 238.391C236.164 238.795 236.385 239.338 236.385 239.904C236.385 240.47 236.164 241.014 235.77 241.417L235.016 242.167C234.936 242.248 234.874 242.344 234.831 242.449C234.789 242.555 234.768 242.668 234.77 242.781V243.634C234.775 243.916 234.724 244.197 234.62 244.46C234.516 244.723 234.362 244.963 234.166 245.166C233.97 245.368 233.736 245.53 233.478 245.642C233.22 245.753 232.942 245.813 232.661 245.816H231.815C231.703 245.816 231.592 245.839 231.488 245.883C231.385 245.927 231.292 245.991 231.213 246.072L230.468 246.822C230.265 247.023 230.024 247.182 229.76 247.289C229.495 247.396 229.212 247.449 228.927 247.444ZM225.192 235.297C224.967 235.297 224.752 235.387 224.593 235.547C224.434 235.706 224.345 235.923 224.345 236.149V237.002C224.346 237.282 224.292 237.559 224.186 237.818C224.08 238.077 223.924 238.313 223.727 238.511L222.981 239.269C222.901 239.348 222.838 239.442 222.794 239.546C222.751 239.65 222.728 239.762 222.727 239.874C222.727 239.989 222.749 240.102 222.793 240.207C222.836 240.313 222.9 240.408 222.981 240.488L223.727 241.238C223.925 241.437 224.081 241.674 224.187 241.934C224.293 242.195 224.347 242.474 224.345 242.756V243.608C224.345 243.834 224.434 244.051 224.593 244.211C224.752 244.371 224.967 244.46 225.192 244.46H226.039C226.318 244.459 226.594 244.514 226.852 244.623C227.109 244.731 227.343 244.89 227.538 245.091L228.283 245.841C228.448 245.998 228.666 246.085 228.893 246.085C229.119 246.085 229.338 245.998 229.503 245.841L230.248 245.091C230.443 244.89 230.676 244.731 230.934 244.623C231.191 244.514 231.468 244.459 231.747 244.46H232.594C232.818 244.46 233.034 244.371 233.193 244.211C233.351 244.051 233.441 243.834 233.441 243.608V242.756C233.439 242.474 233.492 242.195 233.598 241.934C233.704 241.674 233.861 241.437 234.059 241.238L234.813 240.488C234.893 240.409 234.957 240.314 235.001 240.209C235.045 240.105 235.067 239.992 235.067 239.879C235.067 239.765 235.045 239.653 235.001 239.548C234.957 239.443 234.893 239.349 234.813 239.269L234.059 238.511C233.862 238.313 233.706 238.077 233.6 237.818C233.494 237.559 233.44 237.282 233.441 237.002V236.149C233.441 235.923 233.351 235.706 233.193 235.547C233.034 235.387 232.818 235.297 232.594 235.297H231.747C231.469 235.298 231.193 235.243 230.936 235.137C230.678 235.03 230.445 234.873 230.248 234.675L229.503 233.925C229.424 233.842 229.329 233.776 229.224 233.732C229.119 233.687 229.007 233.664 228.893 233.664C228.779 233.664 228.666 233.687 228.562 233.732C228.457 233.776 228.362 233.842 228.283 233.925L227.538 234.675C227.341 234.873 227.107 235.03 226.85 235.137C226.593 235.243 226.317 235.298 226.039 235.297H225.192Z" fill="#18181B"/>
<path d="M228.236 242.076C228.071 242.074 227.912 242.004 227.793 241.88L226.434 240.397C226.319 240.272 226.254 240.103 226.254 239.927C226.254 239.75 226.319 239.581 226.434 239.456C226.551 239.333 226.708 239.264 226.872 239.264C227.035 239.264 227.192 239.333 227.31 239.456L228.236 240.468L230.529 237.973C230.647 237.85 230.804 237.781 230.968 237.781C231.131 237.781 231.288 237.85 231.406 237.973C231.521 238.098 231.585 238.267 231.585 238.444C231.585 238.62 231.521 238.79 231.406 238.914L228.67 241.88C228.554 242.004 228.398 242.074 228.236 242.076Z" fill="#18181B"/>
</g>
</g>
<g filter="url(#filter4_d_5453_67696)">
<rect x="-148" y="242" width="243" height="150" rx="12" fill="#FCFCFC" shape-rendering="crispEdges"/>
<rect x="-147.5" y="242.5" width="242" height="149" rx="11.5" stroke="#F4F4F5" shape-rendering="crispEdges"/>
<rect x="31" y="258" width="20" height="20" rx="4" fill="#F4F4F5"/>
<rect x="59" y="258" width="20" height="20" rx="4" fill="#F4F4F5"/>
<rect x="-1" y="282" width="80" height="20" rx="6" fill="#F4F4F5"/>
<rect y="314" width="78" height="16" rx="4" fill="#F4F4F5"/>
<rect y="338" width="78" height="16" rx="4" fill="#F4F4F5"/>
<g filter="url(#filter5_dd_5453_67696)">
<mask id="path-37-inside-2_5453_67696" fill="white">
<path d="M-54 242C-54 228.745 -43.2548 218 -30 218C-16.7452 218 -6 228.745 -6 242C-6 255.255 -16.7452 266 -30 266C-43.2548 266 -54 255.255 -54 242Z"/>
</mask>
<path d="M-54 242C-54 228.745 -43.2548 218 -30 218C-16.7452 218 -6 228.745 -6 242C-6 255.255 -16.7452 266 -30 266C-43.2548 266 -54 255.255 -54 242Z" fill="white"/>
<path d="M-30 266V265C-42.7025 265 -53 254.703 -53 242H-54H-55C-55 255.807 -43.8071 267 -30 267V266ZM-6 242H-7C-7 254.703 -17.2975 265 -30 265V266V267C-16.1929 267 -5 255.807 -5 242H-6ZM-30 218V219C-17.2975 219 -7 229.297 -7 242H-6H-5C-5 228.193 -16.1929 217 -30 217V218ZM-30 218V217C-43.8071 217 -55 228.193 -55 242H-54H-53C-53 229.297 -42.7025 219 -30 219V218Z" fill="#F4F4F5" mask="url(#path-37-inside-2_5453_67696)"/>
</g>
</g>
<g filter="url(#filter6_d_5453_67696)">
<rect x="-148" y="12" width="243" height="150" rx="12" fill="#FCFCFC" shape-rendering="crispEdges"/>
<rect x="-147.5" y="12.5" width="242" height="149" rx="11.5" stroke="#F4F4F5" shape-rendering="crispEdges"/>
<rect x="31" y="28" width="20" height="20" rx="4" fill="#F4F4F5"/>
<rect x="59" y="28" width="20" height="20" rx="4" fill="#F4F4F5"/>
<rect x="-1" y="52" width="80" height="20" rx="6" fill="#F4F4F5"/>
<rect y="84" width="78" height="16" rx="4" fill="#F4F4F5"/>
<rect y="108" width="78" height="16" rx="4" fill="#F4F4F5"/>
<g filter="url(#filter7_dd_5453_67696)">
<mask id="path-46-inside-3_5453_67696" fill="white">
<path d="M-54 12C-54 -1.25483 -43.2548 -12 -30 -12C-16.7452 -12 -6 -1.25483 -6 12C-6 25.2548 -16.7452 36 -30 36C-43.2548 36 -54 25.2548 -54 12Z"/>
</mask>
<path d="M-54 12C-54 -1.25483 -43.2548 -12 -30 -12C-16.7452 -12 -6 -1.25483 -6 12C-6 25.2548 -16.7452 36 -30 36C-43.2548 36 -54 25.2548 -54 12Z" fill="white"/>
<path d="M-30 36V35C-42.7025 35 -53 24.7025 -53 12H-54H-55C-55 25.8071 -43.8071 37 -30 37V36ZM-6 12H-7C-7 24.7025 -17.2975 35 -30 35V36V37C-16.1929 37 -5 25.8071 -5 12H-6ZM-30 -12V-11C-17.2975 -11 -7 -0.702549 -7 12H-6H-5C-5 -1.80712 -16.1929 -13 -30 -13V-12ZM-30 -12V-13C-43.8071 -13 -55 -1.80712 -55 12H-54H-53C-53 -0.702549 -42.7025 -11 -30 -11V-12Z" fill="#F4F4F5" mask="url(#path-46-inside-3_5453_67696)"/>
</g>
</g>
<g filter="url(#filter8_d_5453_67696)">
<rect x="370" y="242" width="243" height="150" rx="12" fill="#FCFCFC" shape-rendering="crispEdges"/>
<rect x="370.5" y="242.5" width="242" height="149" rx="11.5" stroke="#F4F4F5" shape-rendering="crispEdges"/>
<rect x="386" y="258" width="122" height="16" rx="4" fill="#F4F4F5"/>
<rect x="549" y="258" width="20" height="20" rx="4" fill="#F4F4F5"/>
<rect x="577" y="258" width="20" height="20" rx="4" fill="#F4F4F5"/>
<rect x="386" y="282" width="80" height="20" rx="6" fill="#F4F4F5"/>
<rect x="517" y="282" width="80" height="20" rx="6" fill="#F4F4F5"/>
<rect x="386" y="314" width="41" height="16" rx="4" fill="#F4F4F5"/>
<rect x="435" y="314" width="77" height="16" rx="4" fill="#F4F4F5"/>
<rect x="520" y="314" width="79" height="16" rx="4" fill="#F4F4F5"/>
<rect x="386" y="338" width="77" height="16" rx="4" fill="#F4F4F5"/>
<rect x="471" y="338" width="41" height="16" rx="4" fill="#F4F4F5"/>
<rect x="520" y="338" width="79" height="16" rx="4" fill="#F4F4F5"/>
<g filter="url(#filter9_dd_5453_67696)">
<mask id="path-61-inside-4_5453_67696" fill="white">
<path d="M464 242C464 228.745 474.745 218 488 218C501.255 218 512 228.745 512 242C512 255.255 501.255 266 488 266C474.745 266 464 255.255 464 242Z"/>
</mask>
<path d="M464 242C464 228.745 474.745 218 488 218C501.255 218 512 228.745 512 242C512 255.255 501.255 266 488 266C474.745 266 464 255.255 464 242Z" fill="#FAFAFA"/>
<path d="M488 266V265C475.297 265 465 254.703 465 242H464H463C463 255.807 474.193 267 488 267V266ZM512 242H511C511 254.703 500.703 265 488 265V266V267C501.807 267 513 255.807 513 242H512ZM488 218V219C500.703 219 511 229.297 511 242H512H513C513 228.193 501.807 217 488 217V218ZM488 218V217C474.193 217 463 228.193 463 242H464H465C465 229.297 475.297 219 488 219V218Z" fill="#E4E4E7" mask="url(#path-61-inside-4_5453_67696)"/>
<path d="M491.909 250.665C491.712 250.666 491.519 250.61 491.349 250.504C491.179 250.398 491.039 250.245 490.943 250.061L489.064 246.589C488.989 246.45 488.969 246.285 489.008 246.13C489.047 245.975 489.141 245.843 489.272 245.763C489.402 245.683 489.556 245.662 489.701 245.703C489.846 245.745 489.97 245.846 490.045 245.985L491.924 249.457L492.392 248.232C492.489 247.997 492.654 247.801 492.863 247.673C493.072 247.546 493.315 247.493 493.554 247.523L494.791 247.685L492.528 243.52C492.49 243.451 492.466 243.375 492.457 243.296C492.447 243.218 492.452 243.138 492.471 243.061C492.49 242.984 492.524 242.913 492.569 242.85C492.614 242.787 492.671 242.734 492.735 242.694C492.8 242.655 492.871 242.629 492.944 242.618C493.018 242.608 493.093 242.613 493.165 242.634C493.237 242.655 493.304 242.69 493.363 242.738C493.422 242.787 493.471 242.847 493.509 242.916L495.772 247.088C495.875 247.282 495.926 247.502 495.919 247.725C495.912 247.947 495.847 248.163 495.732 248.349C495.618 248.535 495.457 248.683 495.268 248.778C495.08 248.872 494.87 248.909 494.663 248.885L493.426 248.716L492.95 249.932C492.869 250.139 492.734 250.318 492.562 250.448C492.39 250.577 492.187 250.653 491.977 250.665H491.909Z" fill="#18181B"/>
<path d="M483.755 250.665H483.689C483.459 250.651 483.237 250.571 483.048 250.433C482.86 250.295 482.712 250.104 482.623 249.883L482.086 248.577L480.747 248.757C480.52 248.788 480.29 248.752 480.082 248.653C479.875 248.555 479.698 248.397 479.573 248.199C479.454 247.997 479.391 247.765 479.391 247.529C479.391 247.292 479.454 247.06 479.573 246.858L482.053 242.399C482.135 242.251 482.27 242.143 482.429 242.098C482.588 242.054 482.757 242.077 482.9 242.162C483.042 242.248 483.146 242.389 483.189 242.554C483.232 242.719 483.209 242.895 483.127 243.043L480.647 247.494L481.995 247.314C482.257 247.278 482.524 247.333 482.753 247.47C482.983 247.606 483.164 247.817 483.268 248.07L483.805 249.376L485.822 245.673C485.904 245.524 486.04 245.416 486.198 245.372C486.357 245.328 486.527 245.351 486.669 245.436C486.812 245.522 486.916 245.663 486.958 245.828C487.001 245.993 486.979 246.169 486.896 246.317L484.813 250.02C484.709 250.216 484.555 250.379 484.369 250.493C484.183 250.606 483.971 250.666 483.755 250.665Z" fill="#18181B"/>
<path d="M487.927 247.444C487.362 247.444 486.821 247.221 486.419 246.822L485.674 246.072C485.596 245.991 485.502 245.927 485.399 245.883C485.296 245.839 485.185 245.816 485.073 245.816H484.226C483.663 245.814 483.123 245.587 482.725 245.187C482.327 244.786 482.102 244.243 482.1 243.676V242.824C482.102 242.704 482.079 242.585 482.032 242.475C481.986 242.365 481.916 242.266 481.829 242.185L481.075 241.434C480.679 241.03 480.457 240.485 480.457 239.917C480.455 239.638 480.508 239.36 480.612 239.101C480.717 238.843 480.872 238.607 481.067 238.408L481.829 237.65C481.908 237.57 481.97 237.476 482.012 237.372C482.054 237.268 482.075 237.157 482.075 237.044V236.192C482.071 235.909 482.123 235.628 482.228 235.366C482.333 235.104 482.488 234.864 482.685 234.663C482.881 234.461 483.116 234.3 483.374 234.189C483.633 234.079 483.911 234.021 484.192 234.018H485.039C485.15 234.019 485.261 233.997 485.364 233.955C485.467 233.913 485.561 233.85 485.64 233.771L486.419 233.029C486.826 232.635 487.37 232.414 487.935 232.414C488.501 232.414 489.044 232.635 489.451 233.029L490.196 233.78C490.275 233.859 490.369 233.921 490.473 233.964C490.576 234.006 490.686 234.027 490.798 234.027H491.645C492.209 234.029 492.75 234.256 493.148 234.659C493.547 235.062 493.77 235.607 493.77 236.175V237.027C493.77 237.14 493.791 237.251 493.833 237.355C493.875 237.458 493.937 237.553 494.016 237.633L494.77 238.391C495.164 238.795 495.385 239.338 495.385 239.904C495.385 240.47 495.164 241.014 494.77 241.417L494.016 242.167C493.936 242.248 493.874 242.344 493.831 242.449C493.789 242.555 493.768 242.668 493.77 242.781V243.634C493.775 243.916 493.724 244.197 493.62 244.46C493.516 244.723 493.362 244.963 493.166 245.166C492.97 245.368 492.736 245.53 492.478 245.642C492.22 245.753 491.942 245.813 491.661 245.816H490.815C490.703 245.816 490.592 245.839 490.488 245.883C490.385 245.927 490.292 245.991 490.213 246.072L489.468 246.822C489.265 247.023 489.024 247.182 488.76 247.289C488.495 247.396 488.212 247.449 487.927 247.444ZM484.192 235.297C483.967 235.297 483.752 235.387 483.593 235.547C483.434 235.706 483.345 235.923 483.345 236.149V237.002C483.346 237.282 483.292 237.559 483.186 237.818C483.08 238.077 482.924 238.313 482.727 238.511L481.981 239.269C481.901 239.348 481.838 239.442 481.794 239.546C481.751 239.65 481.728 239.762 481.727 239.874C481.727 239.989 481.749 240.102 481.793 240.207C481.836 240.313 481.9 240.408 481.981 240.488L482.727 241.238C482.925 241.437 483.081 241.674 483.187 241.934C483.293 242.195 483.347 242.474 483.345 242.756V243.608C483.345 243.834 483.434 244.051 483.593 244.211C483.752 244.371 483.967 244.46 484.192 244.46H485.039C485.318 244.459 485.594 244.514 485.852 244.623C486.109 244.731 486.343 244.89 486.538 245.091L487.283 245.841C487.448 245.998 487.666 246.085 487.893 246.085C488.119 246.085 488.338 245.998 488.503 245.841L489.248 245.091C489.443 244.89 489.676 244.731 489.934 244.623C490.191 244.514 490.468 244.459 490.747 244.46H491.594C491.818 244.46 492.034 244.371 492.193 244.211C492.351 244.051 492.441 243.834 492.441 243.608V242.756C492.439 242.474 492.492 242.195 492.598 241.934C492.704 241.674 492.861 241.437 493.059 241.238L493.813 240.488C493.893 240.409 493.957 240.314 494.001 240.209C494.045 240.105 494.067 239.992 494.067 239.879C494.067 239.765 494.045 239.653 494.001 239.548C493.957 239.443 493.893 239.349 493.813 239.269L493.059 238.511C492.862 238.313 492.706 238.077 492.6 237.818C492.494 237.559 492.44 237.282 492.441 237.002V236.149C492.441 235.923 492.351 235.706 492.193 235.547C492.034 235.387 491.818 235.297 491.594 235.297H490.747C490.469 235.298 490.193 235.243 489.936 235.137C489.678 235.03 489.445 234.873 489.248 234.675L488.503 233.925C488.424 233.842 488.329 233.776 488.224 233.732C488.119 233.687 488.007 233.664 487.893 233.664C487.779 233.664 487.666 233.687 487.562 233.732C487.457 233.776 487.362 233.842 487.283 233.925L486.538 234.675C486.341 234.873 486.107 235.03 485.85 235.137C485.593 235.243 485.317 235.298 485.039 235.297H484.192Z" fill="#18181B"/>
<path d="M487.236 242.076C487.071 242.074 486.912 242.004 486.793 241.88L485.434 240.397C485.319 240.272 485.254 240.103 485.254 239.927C485.254 239.75 485.319 239.581 485.434 239.456C485.551 239.333 485.708 239.264 485.872 239.264C486.035 239.264 486.192 239.333 486.31 239.456L487.236 240.468L489.529 237.973C489.647 237.85 489.804 237.781 489.968 237.781C490.131 237.781 490.288 237.85 490.406 237.973C490.521 238.098 490.585 238.267 490.585 238.444C490.585 238.62 490.521 238.79 490.406 238.914L487.67 241.88C487.554 242.004 487.398 242.074 487.236 242.076Z" fill="#18181B"/>
</g>
</g>
<g filter="url(#filter10_d_5453_67696)">
<rect x="629" y="242" width="243" height="150" rx="12" fill="#FCFCFC" shape-rendering="crispEdges"/>
<rect x="629.5" y="242.5" width="242" height="149" rx="11.5" stroke="#F4F4F5" shape-rendering="crispEdges"/>
<rect x="645" y="258" width="122" height="16" rx="4" fill="#F4F4F5"/>
<rect x="645" y="282" width="80" height="20" rx="6" fill="#F4F4F5"/>
<rect x="645" y="314" width="41" height="16" rx="4" fill="#F4F4F5"/>
<rect x="694" y="314" width="77" height="16" rx="4" fill="#F4F4F5"/>
<rect x="645" y="338" width="77" height="16" rx="4" fill="#F4F4F5"/>
<g filter="url(#filter11_dd_5453_67696)">
<mask id="path-74-inside-5_5453_67696" fill="white">
<path d="M723 242C723 228.745 733.745 218 747 218C760.255 218 771 228.745 771 242C771 255.255 760.255 266 747 266C733.745 266 723 255.255 723 242Z"/>
</mask>
<path d="M723 242C723 228.745 733.745 218 747 218C760.255 218 771 228.745 771 242C771 255.255 760.255 266 747 266C733.745 266 723 255.255 723 242Z" fill="white"/>
<path d="M747 266V265C734.297 265 724 254.703 724 242H723H722C722 255.807 733.193 267 747 267V266ZM771 242H770C770 254.703 759.703 265 747 265V266V267C760.807 267 772 255.807 772 242H771ZM747 218V219C759.703 219 770 229.297 770 242H771H772C772 228.193 760.807 217 747 217V218ZM747 218V217C733.193 217 722 228.193 722 242H723H724C724 229.297 734.297 219 747 219V218Z" fill="#F4F4F5" mask="url(#path-74-inside-5_5453_67696)"/>
</g>
</g>
<g filter="url(#filter12_d_5453_67696)">
<rect x="629" y="12" width="243" height="150" rx="12" fill="#FCFCFC" shape-rendering="crispEdges"/>
<rect x="629.5" y="12.5" width="242" height="149" rx="11.5" stroke="#F4F4F5" shape-rendering="crispEdges"/>
<rect x="645" y="28" width="122" height="16" rx="4" fill="#F4F4F5"/>
<rect x="645" y="52" width="80" height="20" rx="6" fill="#F4F4F5"/>
<rect x="645" y="84" width="41" height="16" rx="4" fill="#F4F4F5"/>
<rect x="694" y="84" width="77" height="16" rx="4" fill="#F4F4F5"/>
<rect x="645" y="108" width="77" height="16" rx="4" fill="#F4F4F5"/>
<g filter="url(#filter13_dd_5453_67696)">
<mask id="path-83-inside-6_5453_67696" fill="white">
<path d="M723 12C723 -1.25483 733.745 -12 747 -12C760.255 -12 771 -1.25483 771 12C771 25.2548 760.255 36 747 36C733.745 36 723 25.2548 723 12Z"/>
</mask>
<path d="M723 12C723 -1.25483 733.745 -12 747 -12C760.255 -12 771 -1.25483 771 12C771 25.2548 760.255 36 747 36C733.745 36 723 25.2548 723 12Z" fill="white"/>
<path d="M747 36V35C734.297 35 724 24.7025 724 12H723H722C722 25.8071 733.193 37 747 37V36ZM771 12H770C770 24.7025 759.703 35 747 35V36V37C760.807 37 772 25.8071 772 12H771ZM747 -12V-11C759.703 -11 770 -0.702549 770 12H771H772C772 -1.80712 760.807 -13 747 -13V-12ZM747 -12V-13C733.193 -13 722 -1.80712 722 12H723H724C724 -0.702549 734.297 -11 747 -11V-12Z" fill="#F4F4F5" mask="url(#path-83-inside-6_5453_67696)"/>
</g>
</g>
<g filter="url(#filter14_di_5453_67696)">
<mask id="path-85-inside-7_5453_67696" fill="white">
<path d="M322 128C322 105.909 339.909 88 362 88C384.091 88 402 105.909 402 128C402 150.091 384.091 168 362 168C339.909 168 322 150.091 322 128Z"/>
</mask>
<path d="M322 128C322 105.909 339.909 88 362 88C384.091 88 402 105.909 402 128C402 150.091 384.091 168 362 168C339.909 168 322 150.091 322 128Z" fill="#F6F9FD"/>
<path d="M322 126.5C322 104.409 339.909 86.5 362 86.5C384.091 86.5 402 104.409 402 126.5V128C402 106.737 384.091 89.5 362 89.5C339.909 89.5 322 106.737 322 128V126.5ZM402 129.5C402 151.591 384.091 169.5 362 169.5C339.909 169.5 322 151.591 322 129.5V128C322 149.263 339.909 166.5 362 166.5C384.091 166.5 402 149.263 402 128V129.5ZM322 168V88V168ZM402 88V168V88Z" fill="#266AE9" fill-opacity="0.6" mask="url(#path-85-inside-7_5453_67696)"/>
<path d="M361.124 109.199C360.859 108.934 360.429 108.934 360.164 109.199C359.899 109.464 359.899 109.893 360.164 110.158L360.432 110.426C352.362 111.137 345.853 117.281 344.583 125.178C344.523 125.548 344.775 125.896 345.145 125.956C345.515 126.015 345.863 125.764 345.923 125.393C347.08 118.197 352.954 112.577 360.272 111.805L360.164 111.913C359.899 112.178 359.899 112.608 360.164 112.873C360.429 113.138 360.859 113.138 361.124 112.873L362.481 111.516C362.746 111.251 362.746 110.821 362.481 110.556L361.124 109.199Z" fill="#266AE9"/>
<path d="M364.822 110.581C364.452 110.521 364.103 110.773 364.044 111.143C363.984 111.513 364.236 111.861 364.606 111.921C371.803 113.078 377.422 118.952 378.195 126.27L378.087 126.162C377.822 125.897 377.392 125.897 377.127 126.162C376.862 126.427 376.862 126.857 377.127 127.122L378.484 128.479C378.749 128.744 379.179 128.744 379.444 128.479L380.801 127.122C381.066 126.857 381.066 126.427 380.801 126.162C380.536 125.897 380.106 125.897 379.841 126.162L379.574 126.43C378.862 118.36 372.718 111.851 364.822 110.581Z" fill="#266AE9"/>
<path d="M345.516 127.521C345.251 127.256 344.821 127.256 344.556 127.521L343.199 128.878C342.934 129.143 342.934 129.573 343.199 129.838C343.464 130.103 343.893 130.103 344.158 129.838L344.426 129.57C345.137 137.64 351.281 144.149 359.178 145.419C359.548 145.479 359.896 145.227 359.956 144.857C360.015 144.487 359.764 144.139 359.393 144.079C352.197 142.922 346.577 137.048 345.805 129.73L345.913 129.838C346.178 130.103 346.608 130.103 346.873 129.838C347.138 129.573 347.138 129.143 346.873 128.878L345.516 127.521Z" fill="#266AE9"/>
<path d="M379.516 130.117C379.561 129.745 379.295 129.407 378.923 129.362C378.551 129.318 378.213 129.583 378.168 129.956C377.271 137.462 371.266 143.4 363.728 144.195L363.836 144.087C364.101 143.822 364.101 143.393 363.836 143.128C363.571 142.863 363.141 142.863 362.876 143.128L361.519 144.485C361.254 144.75 361.254 145.179 361.519 145.444L362.876 146.802C363.141 147.067 363.571 147.067 363.836 146.802C364.101 146.537 364.101 146.107 363.836 145.842L363.568 145.574C371.877 144.842 378.531 138.351 379.516 130.117Z" fill="#266AE9"/>
<path d="M360.139 119.463C360.612 117.512 363.388 117.512 363.861 119.463C363.932 119.756 364.072 120.029 364.268 120.258C364.464 120.487 364.711 120.667 364.99 120.782C365.269 120.897 365.571 120.945 365.871 120.922C366.172 120.899 366.463 120.805 366.72 120.648C368.435 119.603 370.398 121.566 369.354 123.281C369.197 123.539 369.103 123.829 369.08 124.13C369.057 124.43 369.105 124.732 369.22 125.011C369.335 125.289 369.515 125.536 369.744 125.732C369.972 125.929 370.244 126.068 370.537 126.139C372.488 126.612 372.488 129.388 370.537 129.861C370.244 129.932 369.972 130.072 369.743 130.268C369.514 130.464 369.334 130.711 369.219 130.99C369.103 131.269 369.055 131.571 369.078 131.871C369.102 132.172 369.196 132.463 369.353 132.72C370.397 134.435 368.435 136.398 366.719 135.354C366.462 135.197 366.171 135.103 365.871 135.08C365.57 135.057 365.268 135.105 364.99 135.22C364.711 135.335 364.464 135.515 364.268 135.744C364.072 135.972 363.933 136.244 363.861 136.537C363.388 138.488 360.612 138.488 360.139 136.537C360.068 136.244 359.929 135.972 359.733 135.743C359.537 135.514 359.289 135.334 359.011 135.219C358.732 135.103 358.43 135.055 358.129 135.078C357.829 135.102 357.538 135.196 357.28 135.353C355.566 136.397 353.602 134.435 354.647 132.719C354.804 132.462 354.897 132.171 354.921 131.871C354.944 131.57 354.896 131.268 354.781 130.99C354.665 130.711 354.486 130.464 354.257 130.268C354.028 130.072 353.756 129.933 353.463 129.861C351.512 129.388 351.512 126.612 353.463 126.139C353.756 126.068 354.029 125.929 354.258 125.733C354.487 125.537 354.667 125.289 354.782 125.011C354.897 124.732 354.945 124.43 354.922 124.129C354.899 123.829 354.805 123.538 354.648 123.28C353.603 121.566 355.566 119.602 357.281 120.647C358.392 121.322 359.832 120.725 360.139 119.463Z" stroke="#266AE9" stroke-width="1.5" stroke-linecap="round" stroke-linejoin="round"/>
<path d="M358.667 128C358.667 128.884 359.018 129.732 359.643 130.357C360.268 130.982 361.116 131.334 362 131.334C362.884 131.334 363.732 130.982 364.357 130.357C364.982 129.732 365.334 128.884 365.334 128C365.334 127.116 364.982 126.268 364.357 125.643C363.732 125.018 362.884 124.667 362 124.667C361.116 124.667 360.268 125.018 359.643 125.643C359.018 126.268 358.667 127.116 358.667 128Z" stroke="#266AE9" stroke-width="1.5" stroke-linecap="round" stroke-linejoin="round"/>
</g>
<rect width="724" height="346" fill="url(#paint10_linear_5453_67696)"/>
<rect width="724" height="346" fill="url(#paint11_linear_5453_67696)"/>
<rect y="306" width="725" height="40" fill="url(#paint12_linear_5453_67696)"/>
<rect width="725" height="40" transform="matrix(1 0 0 -1 0 40)" fill="url(#paint13_linear_5453_67696)"/>
</g>
<defs>
<filter id="filter0_f_5453_67696" x="-127" y="-116" width="664.445" height="557.547" filterUnits="userSpaceOnUse" color-interpolation-filters="sRGB">
<feFlood flood-opacity="0" result="BackgroundImageFix"/>
<feBlend mode="normal" in="SourceGraphic" in2="BackgroundImageFix" result="shape"/>
<feGaussianBlur stdDeviation="100" result="effect1_foregroundBlur_5453_67696"/>
</filter>
<filter id="filter1_f_5453_67696" x="187.445" y="-116" width="664.445" height="557.547" filterUnits="userSpaceOnUse" color-interpolation-filters="sRGB">
<feFlood flood-opacity="0" result="BackgroundImageFix"/>
<feBlend mode="normal" in="SourceGraphic" in2="BackgroundImageFix" result="shape"/>
<feGaussianBlur stdDeviation="100" result="effect1_foregroundBlur_5453_67696"/>
</filter>
<filter id="filter2_d_5453_67696" x="99" y="210" width="267" height="198" filterUnits="userSpaceOnUse" color-interpolation-filters="sRGB">
<feFlood flood-opacity="0" result="BackgroundImageFix"/>
<feColorMatrix in="SourceAlpha" type="matrix" values="0 0 0 0 0 0 0 0 0 0 0 0 0 0 0 0 0 0 127 0" result="hardAlpha"/>
<feMorphology radius="4" operator="erode" in="SourceAlpha" result="effect1_dropShadow_5453_67696"/>
<feOffset dy="4"/>
<feGaussianBlur stdDeviation="8"/>
<feComposite in2="hardAlpha" operator="out"/>
<feColorMatrix type="matrix" values="0 0 0 0 0.0588235 0 0 0 0 0.141176 0 0 0 0 0.0666667 0 0 0 0.02 0"/>
<feBlend mode="normal" in2="BackgroundImageFix" result="effect1_dropShadow_5453_67696"/>
<feBlend mode="normal" in="SourceGraphic" in2="effect1_dropShadow_5453_67696" result="shape"/>
</filter>
<filter id="filter3_dd_5453_67696" x="177" y="200" width="104" height="104" filterUnits="userSpaceOnUse" color-interpolation-filters="sRGB">
<feFlood flood-opacity="0" result="BackgroundImageFix"/>
<feColorMatrix in="SourceAlpha" type="matrix" values="0 0 0 0 0 0 0 0 0 0 0 0 0 0 0 0 0 0 127 0" result="hardAlpha"/>
<feMorphology radius="4" operator="erode" in="SourceAlpha" result="effect1_dropShadow_5453_67696"/>
<feOffset dy="4"/>
<feGaussianBlur stdDeviation="8"/>
<feComposite in2="hardAlpha" operator="out"/>
<feColorMatrix type="matrix" values="0 0 0 0 0.0588235 0 0 0 0 0.141176 0 0 0 0 0.0666667 0 0 0 0.02 0"/>
<feBlend mode="normal" in2="BackgroundImageFix" result="effect1_dropShadow_5453_67696"/>
<feColorMatrix in="SourceAlpha" type="matrix" values="0 0 0 0 0 0 0 0 0 0 0 0 0 0 0 0 0 0 127 0" result="hardAlpha"/>
<feMorphology radius="4" operator="erode" in="SourceAlpha" result="effect2_dropShadow_5453_67696"/>
<feOffset dy="10"/>
<feGaussianBlur stdDeviation="16"/>
<feComposite in2="hardAlpha" operator="out"/>
<feColorMatrix type="matrix" values="0 0 0 0 0.0627451 0 0 0 0 0.0588235 0 0 0 0 0.141176 0 0 0 0.05 0"/>
<feBlend mode="normal" in2="effect1_dropShadow_5453_67696" result="effect2_dropShadow_5453_67696"/>
<feBlend mode="normal" in="SourceGraphic" in2="effect2_dropShadow_5453_67696" result="shape"/>
</filter>
<filter id="filter4_d_5453_67696" x="-160" y="210" width="267" height="198" filterUnits="userSpaceOnUse" color-interpolation-filters="sRGB">
<feFlood flood-opacity="0" result="BackgroundImageFix"/>
<feColorMatrix in="SourceAlpha" type="matrix" values="0 0 0 0 0 0 0 0 0 0 0 0 0 0 0 0 0 0 127 0" result="hardAlpha"/>
<feMorphology radius="4" operator="erode" in="SourceAlpha" result="effect1_dropShadow_5453_67696"/>
<feOffset dy="4"/>
<feGaussianBlur stdDeviation="8"/>
<feComposite in2="hardAlpha" operator="out"/>
<feColorMatrix type="matrix" values="0 0 0 0 0.0588235 0 0 0 0 0.141176 0 0 0 0 0.0666667 0 0 0 0.02 0"/>
<feBlend mode="normal" in2="BackgroundImageFix" result="effect1_dropShadow_5453_67696"/>
<feBlend mode="normal" in="SourceGraphic" in2="effect1_dropShadow_5453_67696" result="shape"/>
</filter>
<filter id="filter5_dd_5453_67696" x="-82" y="200" width="104" height="104" filterUnits="userSpaceOnUse" color-interpolation-filters="sRGB">
<feFlood flood-opacity="0" result="BackgroundImageFix"/>
<feColorMatrix in="SourceAlpha" type="matrix" values="0 0 0 0 0 0 0 0 0 0 0 0 0 0 0 0 0 0 127 0" result="hardAlpha"/>
<feMorphology radius="4" operator="erode" in="SourceAlpha" result="effect1_dropShadow_5453_67696"/>
<feOffset dy="4"/>
<feGaussianBlur stdDeviation="8"/>
<feComposite in2="hardAlpha" operator="out"/>
<feColorMatrix type="matrix" values="0 0 0 0 0.0588235 0 0 0 0 0.141176 0 0 0 0 0.0666667 0 0 0 0.02 0"/>
<feBlend mode="normal" in2="BackgroundImageFix" result="effect1_dropShadow_5453_67696"/>
<feColorMatrix in="SourceAlpha" type="matrix" values="0 0 0 0 0 0 0 0 0 0 0 0 0 0 0 0 0 0 127 0" result="hardAlpha"/>
<feMorphology radius="4" operator="erode" in="SourceAlpha" result="effect2_dropShadow_5453_67696"/>
<feOffset dy="10"/>
<feGaussianBlur stdDeviation="16"/>
<feComposite in2="hardAlpha" operator="out"/>
<feColorMatrix type="matrix" values="0 0 0 0 0.0627451 0 0 0 0 0.0588235 0 0 0 0 0.141176 0 0 0 0.05 0"/>
<feBlend mode="normal" in2="effect1_dropShadow_5453_67696" result="effect2_dropShadow_5453_67696"/>
<feBlend mode="normal" in="SourceGraphic" in2="effect2_dropShadow_5453_67696" result="shape"/>
</filter>
<filter id="filter6_d_5453_67696" x="-160" y="-20" width="267" height="198" filterUnits="userSpaceOnUse" color-interpolation-filters="sRGB">
<feFlood flood-opacity="0" result="BackgroundImageFix"/>
<feColorMatrix in="SourceAlpha" type="matrix" values="0 0 0 0 0 0 0 0 0 0 0 0 0 0 0 0 0 0 127 0" result="hardAlpha"/>
<feMorphology radius="4" operator="erode" in="SourceAlpha" result="effect1_dropShadow_5453_67696"/>
<feOffset dy="4"/>
<feGaussianBlur stdDeviation="8"/>
<feComposite in2="hardAlpha" operator="out"/>
<feColorMatrix type="matrix" values="0 0 0 0 0.0588235 0 0 0 0 0.141176 0 0 0 0 0.0666667 0 0 0 0.02 0"/>
<feBlend mode="normal" in2="BackgroundImageFix" result="effect1_dropShadow_5453_67696"/>
<feBlend mode="normal" in="SourceGraphic" in2="effect1_dropShadow_5453_67696" result="shape"/>
</filter>
<filter id="filter7_dd_5453_67696" x="-82" y="-30" width="104" height="104" filterUnits="userSpaceOnUse" color-interpolation-filters="sRGB">
<feFlood flood-opacity="0" result="BackgroundImageFix"/>
<feColorMatrix in="SourceAlpha" type="matrix" values="0 0 0 0 0 0 0 0 0 0 0 0 0 0 0 0 0 0 127 0" result="hardAlpha"/>
<feMorphology radius="4" operator="erode" in="SourceAlpha" result="effect1_dropShadow_5453_67696"/>
<feOffset dy="4"/>
<feGaussianBlur stdDeviation="8"/>
<feComposite in2="hardAlpha" operator="out"/>
<feColorMatrix type="matrix" values="0 0 0 0 0.0588235 0 0 0 0 0.141176 0 0 0 0 0.0666667 0 0 0 0.02 0"/>
<feBlend mode="normal" in2="BackgroundImageFix" result="effect1_dropShadow_5453_67696"/>
<feColorMatrix in="SourceAlpha" type="matrix" values="0 0 0 0 0 0 0 0 0 0 0 0 0 0 0 0 0 0 127 0" result="hardAlpha"/>
<feMorphology radius="4" operator="erode" in="SourceAlpha" result="effect2_dropShadow_5453_67696"/>
<feOffset dy="10"/>
<feGaussianBlur stdDeviation="16"/>
<feComposite in2="hardAlpha" operator="out"/>
<feColorMatrix type="matrix" values="0 0 0 0 0.0627451 0 0 0 0 0.0588235 0 0 0 0 0.141176 0 0 0 0.05 0"/>
<feBlend mode="normal" in2="effect1_dropShadow_5453_67696" result="effect2_dropShadow_5453_67696"/>
<feBlend mode="normal" in="SourceGraphic" in2="effect2_dropShadow_5453_67696" result="shape"/>
</filter>
<filter id="filter8_d_5453_67696" x="358" y="210" width="267" height="198" filterUnits="userSpaceOnUse" color-interpolation-filters="sRGB">
<feFlood flood-opacity="0" result="BackgroundImageFix"/>
<feColorMatrix in="SourceAlpha" type="matrix" values="0 0 0 0 0 0 0 0 0 0 0 0 0 0 0 0 0 0 127 0" result="hardAlpha"/>
<feMorphology radius="4" operator="erode" in="SourceAlpha" result="effect1_dropShadow_5453_67696"/>
<feOffset dy="4"/>
<feGaussianBlur stdDeviation="8"/>
<feComposite in2="hardAlpha" operator="out"/>
<feColorMatrix type="matrix" values="0 0 0 0 0.0588235 0 0 0 0 0.141176 0 0 0 0 0.0666667 0 0 0 0.02 0"/>
<feBlend mode="normal" in2="BackgroundImageFix" result="effect1_dropShadow_5453_67696"/>
<feBlend mode="normal" in="SourceGraphic" in2="effect1_dropShadow_5453_67696" result="shape"/>
</filter>
<filter id="filter9_dd_5453_67696" x="436" y="200" width="104" height="104" filterUnits="userSpaceOnUse" color-interpolation-filters="sRGB">
<feFlood flood-opacity="0" result="BackgroundImageFix"/>
<feColorMatrix in="SourceAlpha" type="matrix" values="0 0 0 0 0 0 0 0 0 0 0 0 0 0 0 0 0 0 127 0" result="hardAlpha"/>
<feMorphology radius="4" operator="erode" in="SourceAlpha" result="effect1_dropShadow_5453_67696"/>
<feOffset dy="4"/>
<feGaussianBlur stdDeviation="8"/>
<feComposite in2="hardAlpha" operator="out"/>
<feColorMatrix type="matrix" values="0 0 0 0 0.0588235 0 0 0 0 0.141176 0 0 0 0 0.0666667 0 0 0 0.02 0"/>
<feBlend mode="normal" in2="BackgroundImageFix" result="effect1_dropShadow_5453_67696"/>
<feColorMatrix in="SourceAlpha" type="matrix" values="0 0 0 0 0 0 0 0 0 0 0 0 0 0 0 0 0 0 127 0" result="hardAlpha"/>
<feMorphology radius="4" operator="erode" in="SourceAlpha" result="effect2_dropShadow_5453_67696"/>
<feOffset dy="10"/>
<feGaussianBlur stdDeviation="16"/>
<feComposite in2="hardAlpha" operator="out"/>
<feColorMatrix type="matrix" values="0 0 0 0 0.0627451 0 0 0 0 0.0588235 0 0 0 0 0.141176 0 0 0 0.05 0"/>
<feBlend mode="normal" in2="effect1_dropShadow_5453_67696" result="effect2_dropShadow_5453_67696"/>
<feBlend mode="normal" in="SourceGraphic" in2="effect2_dropShadow_5453_67696" result="shape"/>
</filter>
<filter id="filter10_d_5453_67696" x="617" y="210" width="267" height="198" filterUnits="userSpaceOnUse" color-interpolation-filters="sRGB">
<feFlood flood-opacity="0" result="BackgroundImageFix"/>
<feColorMatrix in="SourceAlpha" type="matrix" values="0 0 0 0 0 0 0 0 0 0 0 0 0 0 0 0 0 0 127 0" result="hardAlpha"/>
<feMorphology radius="4" operator="erode" in="SourceAlpha" result="effect1_dropShadow_5453_67696"/>
<feOffset dy="4"/>
<feGaussianBlur stdDeviation="8"/>
<feComposite in2="hardAlpha" operator="out"/>
<feColorMatrix type="matrix" values="0 0 0 0 0.0588235 0 0 0 0 0.141176 0 0 0 0 0.0666667 0 0 0 0.02 0"/>
<feBlend mode="normal" in2="BackgroundImageFix" result="effect1_dropShadow_5453_67696"/>
<feBlend mode="normal" in="SourceGraphic" in2="effect1_dropShadow_5453_67696" result="shape"/>
</filter>
<filter id="filter11_dd_5453_67696" x="695" y="200" width="104" height="104" filterUnits="userSpaceOnUse" color-interpolation-filters="sRGB">
<feFlood flood-opacity="0" result="BackgroundImageFix"/>
<feColorMatrix in="SourceAlpha" type="matrix" values="0 0 0 0 0 0 0 0 0 0 0 0 0 0 0 0 0 0 127 0" result="hardAlpha"/>
<feMorphology radius="4" operator="erode" in="SourceAlpha" result="effect1_dropShadow_5453_67696"/>
<feOffset dy="4"/>
<feGaussianBlur stdDeviation="8"/>
<feComposite in2="hardAlpha" operator="out"/>
<feColorMatrix type="matrix" values="0 0 0 0 0.0588235 0 0 0 0 0.141176 0 0 0 0 0.0666667 0 0 0 0.02 0"/>
<feBlend mode="normal" in2="BackgroundImageFix" result="effect1_dropShadow_5453_67696"/>
<feColorMatrix in="SourceAlpha" type="matrix" values="0 0 0 0 0 0 0 0 0 0 0 0 0 0 0 0 0 0 127 0" result="hardAlpha"/>
<feMorphology radius="4" operator="erode" in="SourceAlpha" result="effect2_dropShadow_5453_67696"/>
<feOffset dy="10"/>
<feGaussianBlur stdDeviation="16"/>
<feComposite in2="hardAlpha" operator="out"/>
<feColorMatrix type="matrix" values="0 0 0 0 0.0627451 0 0 0 0 0.0588235 0 0 0 0 0.141176 0 0 0 0.05 0"/>
<feBlend mode="normal" in2="effect1_dropShadow_5453_67696" result="effect2_dropShadow_5453_67696"/>
<feBlend mode="normal" in="SourceGraphic" in2="effect2_dropShadow_5453_67696" result="shape"/>
</filter>
<filter id="filter12_d_5453_67696" x="617" y="-20" width="267" height="198" filterUnits="userSpaceOnUse" color-interpolation-filters="sRGB">
<feFlood flood-opacity="0" result="BackgroundImageFix"/>
<feColorMatrix in="SourceAlpha" type="matrix" values="0 0 0 0 0 0 0 0 0 0 0 0 0 0 0 0 0 0 127 0" result="hardAlpha"/>
<feMorphology radius="4" operator="erode" in="SourceAlpha" result="effect1_dropShadow_5453_67696"/>
<feOffset dy="4"/>
<feGaussianBlur stdDeviation="8"/>
<feComposite in2="hardAlpha" operator="out"/>
<feColorMatrix type="matrix" values="0 0 0 0 0.0588235 0 0 0 0 0.141176 0 0 0 0 0.0666667 0 0 0 0.02 0"/>
<feBlend mode="normal" in2="BackgroundImageFix" result="effect1_dropShadow_5453_67696"/>
<feBlend mode="normal" in="SourceGraphic" in2="effect1_dropShadow_5453_67696" result="shape"/>
</filter>
<filter id="filter13_dd_5453_67696" x="695" y="-30" width="104" height="104" filterUnits="userSpaceOnUse" color-interpolation-filters="sRGB">
<feFlood flood-opacity="0" result="BackgroundImageFix"/>
<feColorMatrix in="SourceAlpha" type="matrix" values="0 0 0 0 0 0 0 0 0 0 0 0 0 0 0 0 0 0 127 0" result="hardAlpha"/>
<feMorphology radius="4" operator="erode" in="SourceAlpha" result="effect1_dropShadow_5453_67696"/>
<feOffset dy="4"/>
<feGaussianBlur stdDeviation="8"/>
<feComposite in2="hardAlpha" operator="out"/>
<feColorMatrix type="matrix" values="0 0 0 0 0.0588235 0 0 0 0 0.141176 0 0 0 0 0.0666667 0 0 0 0.02 0"/>
<feBlend mode="normal" in2="BackgroundImageFix" result="effect1_dropShadow_5453_67696"/>
<feColorMatrix in="SourceAlpha" type="matrix" values="0 0 0 0 0 0 0 0 0 0 0 0 0 0 0 0 0 0 127 0" result="hardAlpha"/>
<feMorphology radius="4" operator="erode" in="SourceAlpha" result="effect2_dropShadow_5453_67696"/>
<feOffset dy="10"/>
<feGaussianBlur stdDeviation="16"/>
<feComposite in2="hardAlpha" operator="out"/>
<feColorMatrix type="matrix" values="0 0 0 0 0.0627451 0 0 0 0 0.0588235 0 0 0 0 0.141176 0 0 0 0.05 0"/>
<feBlend mode="normal" in2="effect1_dropShadow_5453_67696" result="effect2_dropShadow_5453_67696"/>
<feBlend mode="normal" in="SourceGraphic" in2="effect2_dropShadow_5453_67696" result="shape"/>
</filter>
<filter id="filter14_di_5453_67696" x="270" y="60" width="184" height="184" filterUnits="userSpaceOnUse" color-interpolation-filters="sRGB">
<feFlood flood-opacity="0" result="BackgroundImageFix"/>
<feColorMatrix in="SourceAlpha" type="matrix" values="0 0 0 0 0 0 0 0 0 0 0 0 0 0 0 0 0 0 127 0" result="hardAlpha"/>
<feMorphology radius="12" operator="erode" in="SourceAlpha" result="effect1_dropShadow_5453_67696"/>
<feOffset dy="24"/>
<feGaussianBlur stdDeviation="32"/>
<feComposite in2="hardAlpha" operator="out"/>
<feColorMatrix type="matrix" values="0 0 0 0 0.0627451 0 0 0 0 0.0588235 0 0 0 0 0.141176 0 0 0 0.12 0"/>
<feBlend mode="normal" in2="BackgroundImageFix" result="effect1_dropShadow_5453_67696"/>
<feBlend mode="normal" in="SourceGraphic" in2="effect1_dropShadow_5453_67696" result="shape"/>
<feColorMatrix in="SourceAlpha" type="matrix" values="0 0 0 0 0 0 0 0 0 0 0 0 0 0 0 0 0 0 127 0" result="hardAlpha"/>
<feOffset dy="3"/>
<feGaussianBlur stdDeviation="6"/>
<feComposite in2="hardAlpha" operator="arithmetic" k2="-1" k3="1"/>
<feColorMatrix type="matrix" values="0 0 0 0 0.585337 0 0 0 0 0.717275 0 0 0 0 0.972356 0 0 0 0.16 0"/>
<feBlend mode="normal" in2="shape" result="effect2_innerShadow_5453_67696"/>
</filter>
<linearGradient id="paint0_linear_5453_67696" x1="-31.6064" y1="210.914" x2="-45.6644" y2="98.1575" gradientUnits="userSpaceOnUse">
<stop stop-color="#5C85D5"/>
<stop offset="1" stop-color="#C3A7F3"/>
</linearGradient>
<linearGradient id="paint1_linear_5453_67696" x1="756.497" y1="210.914" x2="770.555" y2="98.1575" gradientUnits="userSpaceOnUse">
<stop stop-color="#C3A7F3"/>
<stop offset="1" stop-color="#5C85D5"/>
</linearGradient>
<linearGradient id="paint2_linear_5453_67696" x1="362" y1="168.5" x2="362" y2="196.717" gradientUnits="userSpaceOnUse">
<stop offset="0.288462" stop-color="#78A2F1"/>
<stop offset="1" stop-color="#E4E4E7" stop-opacity="0.7"/>
</linearGradient>
<linearGradient id="paint3_linear_5453_67696" x1="362" y1="168.459" x2="362" y2="196.5" gradientUnits="userSpaceOnUse">
<stop offset="0.288462" stop-color="#78A2F1"/>
<stop offset="1" stop-color="#E4E4E7" stop-opacity="0.7"/>
</linearGradient>
<linearGradient id="paint4_linear_5453_67696" x1="362" y1="168.5" x2="362" y2="196.717" gradientUnits="userSpaceOnUse">
<stop offset="0.288462" stop-color="#78A2F1"/>
<stop offset="1" stop-color="#E4E4E7" stop-opacity="0.7"/>
</linearGradient>
<linearGradient id="paint5_linear_5453_67696" x1="362" y1="168.459" x2="362" y2="196.5" gradientUnits="userSpaceOnUse">
<stop offset="0.288462" stop-color="#78A2F1"/>
<stop offset="1" stop-color="#E4E4E7" stop-opacity="0.7"/>
</linearGradient>
<linearGradient id="paint6_linear_5453_67696" x1="362" y1="81.5" x2="362" y2="53.283" gradientUnits="userSpaceOnUse">
<stop offset="0.288462" stop-color="#78A2F1"/>
<stop offset="1" stop-color="#E4E4E7" stop-opacity="0.7"/>
</linearGradient>
<linearGradient id="paint7_linear_5453_67696" x1="362" y1="81.5406" x2="362" y2="53.5" gradientUnits="userSpaceOnUse">
<stop offset="0.288462" stop-color="#78A2F1"/>
<stop offset="1" stop-color="#E4E4E7" stop-opacity="0.7"/>
</linearGradient>
<linearGradient id="paint8_linear_5453_67696" x1="362" y1="81.5" x2="362" y2="53.283" gradientUnits="userSpaceOnUse">
<stop offset="0.288462" stop-color="#78A2F1"/>
<stop offset="1" stop-color="#E4E4E7" stop-opacity="0.7"/>
</linearGradient>
<linearGradient id="paint9_linear_5453_67696" x1="362" y1="81.5406" x2="362" y2="53.5" gradientUnits="userSpaceOnUse">
<stop offset="0.288462" stop-color="#78A2F1"/>
<stop offset="1" stop-color="#E4E4E7" stop-opacity="0.7"/>
</linearGradient>
<linearGradient id="paint10_linear_5453_67696" x1="370.791" y1="0" x2="370.791" y2="346" gradientUnits="userSpaceOnUse">
<stop stop-color="#FAFAFA"/>
<stop offset="0.25" stop-color="#FAFAFA" stop-opacity="0"/>
<stop offset="0.85" stop-color="#FAFAFA" stop-opacity="0.298077"/>
<stop offset="1" stop-color="#FAFAFA"/>
</linearGradient>
<linearGradient id="paint11_linear_5453_67696" x1="0" y1="155.488" x2="724" y2="155.488" gradientUnits="userSpaceOnUse">
<stop stop-color="#FAFAFA"/>
<stop offset="0.15" stop-color="#FAFAFA" stop-opacity="0"/>
<stop offset="0.85" stop-color="#FAFAFA" stop-opacity="0"/>
<stop offset="1" stop-color="#FAFAFA"/>
</linearGradient>
<linearGradient id="paint12_linear_5453_67696" x1="362.5" y1="306" x2="362.5" y2="346" gradientUnits="userSpaceOnUse">
<stop stop-color="#FAFAFA" stop-opacity="0"/>
<stop offset="1" stop-color="#FAFAFA"/>
</linearGradient>
<linearGradient id="paint13_linear_5453_67696" x1="362.5" y1="0" x2="362.5" y2="40" gradientUnits="userSpaceOnUse">
<stop stop-color="#FAFAFA" stop-opacity="0"/>
<stop offset="1" stop-color="#FAFAFA"/>
</linearGradient>
<clipPath id="clip0_5453_67696">
<rect width="724" height="346" fill="white"/>
</clipPath>
</defs>
</svg>
