<svg width="358" height="230" viewBox="0 0 358 230" fill="none" xmlns="http://www.w3.org/2000/svg">
<g clip-path="url(#clip0_5522_74225)">
<g filter="url(#filter0_dd_5522_74225)">
<mask id="mask0_5522_74225" style="mask-type:luminance" maskUnits="userSpaceOnUse" x="15" y="58" width="328" height="144">
<path d="M335.136 58.6289H22.8604C18.8558 58.6289 15.6094 61.8763 15.6094 65.8821V194.626C15.6094 198.632 18.8558 201.879 22.8604 201.879H335.136C339.141 201.879 342.387 198.632 342.387 194.626V65.8821C342.387 61.8763 339.141 58.6289 335.136 58.6289Z" fill="white"/>
</mask>
<g mask="url(#mask0_5522_74225)">
<path d="M335.136 58.6289H22.8604C18.8558 58.6289 15.6094 61.8763 15.6094 65.8821V194.626C15.6094 198.632 18.8558 201.879 22.8604 201.879H335.136C339.141 201.879 342.387 198.632 342.387 194.626V65.8821C342.387 61.8763 339.141 58.6289 335.136 58.6289Z" fill="#FAFAFA"/>
<path d="M342.387 76.1577V75.8555H15.6094V76.1577V76.4599H342.387V76.1577Z" fill="#F4F4F5"/>
<path d="M26.788 68.905C27.6223 68.905 28.2986 68.2284 28.2986 67.3939C28.2986 66.5593 27.6223 65.8828 26.788 65.8828C25.9537 65.8828 25.2773 66.5593 25.2773 67.3939C25.2773 68.2284 25.9537 68.905 26.788 68.905Z" fill="#D9D9D9"/>
<path d="M34.6435 68.905C35.4778 68.905 36.1541 68.2284 36.1541 67.3939C36.1541 66.5593 35.4778 65.8828 34.6435 65.8828C33.8091 65.8828 33.1328 66.5593 33.1328 67.3939C33.1328 68.2284 33.8091 68.905 34.6435 68.905Z" fill="#D9D9D9"/>
<path d="M42.4989 68.905C43.3332 68.905 44.0096 68.2284 44.0096 67.3939C44.0096 66.5593 43.3332 65.8828 42.4989 65.8828C41.6646 65.8828 40.9883 66.5593 40.9883 67.3939C40.9883 68.2284 41.6646 68.905 42.4989 68.905Z" fill="#D9D9D9"/>
<path d="M96.5795 83.4102H27.6944C26.3595 83.4102 25.2773 84.4926 25.2773 85.8279V90.6633C25.2773 91.9986 26.3595 93.081 27.6944 93.081H96.5795C97.9144 93.081 98.9965 91.9986 98.9965 90.6633V85.8279C98.9965 84.4926 97.9144 83.4102 96.5795 83.4102Z" fill="#F4F4F5"/>
<path d="M313.383 83.4102H306.132C304.797 83.4102 303.715 84.4926 303.715 85.8279V93.081C303.715 94.4163 304.797 95.4988 306.132 95.4988H313.383C314.718 95.4988 315.8 94.4163 315.8 93.081V85.8279C315.8 84.4926 314.718 83.4102 313.383 83.4102Z" fill="#F4F4F5"/>
<path d="M330.301 83.4102H323.05C321.715 83.4102 320.633 84.4926 320.633 85.8279V93.081C320.633 94.4163 321.715 95.4988 323.05 95.4988H330.301C331.636 95.4988 332.718 94.4163 332.718 93.081V85.8279C332.718 84.4926 331.636 83.4102 330.301 83.4102Z" fill="#F4F4F5"/>
<path d="M122.562 97.916H28.9029C26.9005 97.916 25.2773 99.5397 25.2773 101.543V108.796C25.2773 110.799 26.9005 112.422 28.9029 112.422H122.562C124.565 112.422 126.188 110.799 126.188 108.796V101.543C126.188 99.5397 124.565 97.916 122.562 97.916Z" fill="#F4F4F5"/>
<path d="M329.094 97.916H235.434C233.432 97.916 231.809 99.5397 231.809 101.543V108.796C231.809 110.799 233.432 112.422 235.434 112.422H329.094C331.096 112.422 332.719 110.799 332.719 108.796V101.543C332.719 99.5397 331.096 97.916 329.094 97.916Z" fill="#F4F4F5"/>
<path d="M168.726 119.676H32.5284C28.5238 119.676 25.2773 122.923 25.2773 126.929V160.777C25.2773 164.783 28.5238 168.03 32.5284 168.03H168.726C172.73 168.03 175.977 164.783 175.977 160.777V126.929C175.977 122.923 172.73 119.676 168.726 119.676Z" fill="#F7F7F8"/>
<path d="M77.2461 126.93H36.1568C34.1545 126.93 32.5312 128.553 32.5312 130.556V132.974C32.5312 134.977 34.1545 136.601 36.1568 136.601H77.2461C79.2485 136.601 80.8717 134.977 80.8717 132.974V130.556C80.8717 128.553 79.2485 126.93 77.2461 126.93Z" fill="#F2F2F3"/>
<path d="M148.548 141.436H37.3653C34.6955 141.436 32.5312 143.6 32.5312 146.271V155.942C32.5312 158.612 34.6955 160.777 37.3653 160.777H148.548C151.218 160.777 153.382 158.612 153.382 155.942V146.271C153.382 143.6 151.218 141.436 148.548 141.436Z" fill="#F2F2F3"/>
<path d="M325.468 119.676H189.271C185.266 119.676 182.02 122.923 182.02 126.929V160.777C182.02 164.783 185.266 168.03 189.271 168.03H325.468C329.473 168.03 332.719 164.783 332.719 160.777V126.929C332.719 122.923 329.473 119.676 325.468 119.676Z" fill="#F7F7F8"/>
<path d="M246.674 126.93H192.895C190.893 126.93 189.27 128.553 189.27 130.556V132.974C189.27 134.977 190.893 136.601 192.895 136.601H246.674C248.676 136.601 250.299 134.977 250.299 132.974V130.556C250.299 128.553 248.676 126.93 246.674 126.93Z" fill="#F2F2F3"/>
<path d="M281.116 141.436H194.104C191.434 141.436 189.27 143.6 189.27 146.271V155.942C189.27 158.612 191.434 160.777 194.104 160.777H281.116C283.786 160.777 285.95 158.612 285.95 155.942V146.271C285.95 143.6 283.786 141.436 281.116 141.436Z" fill="#F2F2F3"/>
<path d="M83.2859 175.283H27.6944C26.3595 175.283 25.2773 176.366 25.2773 177.701V187.372C25.2773 188.707 26.3595 189.79 27.6944 189.79H83.2859C84.6207 189.79 85.7029 188.707 85.7029 187.372V177.701C85.7029 176.366 84.6207 175.283 83.2859 175.283Z" fill="#F4F4F5"/>
<path d="M205.345 175.283H95.3701C94.0353 175.283 92.9531 176.366 92.9531 177.701V187.372C92.9531 188.707 94.0353 189.79 95.3701 189.79H205.345C206.68 189.79 207.762 188.707 207.762 187.372V177.701C207.762 176.366 206.68 175.283 205.345 175.283Z" fill="#F4F4F5"/>
<path d="M329.824 175.283H217.433C216.098 175.283 215.016 176.366 215.016 177.701V187.372C215.016 188.707 216.098 189.79 217.433 189.79H329.824C331.159 189.79 332.241 188.707 332.241 187.372V177.701C332.241 176.366 331.159 175.283 329.824 175.283Z" fill="#F4F4F5"/>
</g>
<path d="M335.055 59H22.9452C19.1095 59 16 62.7961 16 67.4788V224.521C16 229.204 19.1095 233 22.9452 233H335.055C338.891 233 342 229.204 342 224.521V67.4788C342 62.7961 338.891 59 335.055 59Z" stroke="url(#paint0_linear_5522_74225)"/>
</g>
<g filter="url(#filter1_i_5522_74225)">
<path d="M154.797 58.6303C154.797 45.2776 165.654 34.4531 179.003 34.4531C192.352 34.4531 203.209 45.2776 203.209 58.6303C203.209 71.9828 192.352 82.8076 179.003 82.8076C165.654 82.8076 154.797 71.9828 154.797 58.6303Z" fill="#F6F9FD"/>
<mask id="mask1_5522_74225" style="mask-type:luminance" maskUnits="userSpaceOnUse" x="154" y="34" width="50" height="49">
<path d="M154.797 58.6303C154.797 45.2776 165.654 34.4531 179.003 34.4531C192.352 34.4531 203.209 45.2776 203.209 58.6303C203.209 71.9828 192.352 82.8076 179.003 82.8076C165.654 82.8076 154.797 71.9828 154.797 58.6303Z" fill="white"/>
</mask>
<g mask="url(#mask1_5522_74225)">
<path d="M178.061 82.8076C164.712 82.8076 153.891 71.9828 153.891 58.6303C153.891 45.2776 164.712 34.4531 178.061 34.4531H178.967C166.119 34.4531 155.703 45.2776 155.703 58.6303C155.703 71.9828 166.119 82.8076 178.967 82.8076H178.061ZM179.945 34.4531C193.293 34.4531 204.115 45.2776 204.115 58.6303C204.115 71.9828 193.293 82.8076 179.945 82.8076H179.039C191.887 82.8076 202.302 71.9828 202.302 58.6303C202.302 45.2776 191.887 34.4531 179.039 34.4531H179.945Z" fill="#266AE9" fill-opacity="0.2"/>
</g>
<path d="M183.001 58.8542V57.7917C182.962 56.8928 182.692 56.0224 182.223 55.2738C181.753 54.5251 181.1 53.9263 180.335 53.5417C180.335 53.1659 180.194 52.8056 179.944 52.5399C179.694 52.2743 179.355 52.125 179.001 52.125C178.648 52.125 178.309 52.2743 178.058 52.5399C177.808 52.8056 177.668 53.1659 177.668 53.5417C176.902 53.9263 176.25 54.5251 175.78 55.2738C175.31 56.0224 175.041 56.8928 175.001 57.7917V59.9167C174.951 60.357 174.804 60.7787 174.573 61.1478C174.341 61.5169 174.031 61.8231 173.668 62.0417H181.001V62.75C181.001 63.3136 180.791 63.8541 180.416 64.2526C180.04 64.6511 179.532 64.875 179.001 64.875C178.471 64.875 177.962 64.6511 177.587 64.2526C177.212 63.8541 177.001 63.3136 177.001 62.75V62.0417M183.668 61.3333V63.4583M183.668 65.5833V65.5904" stroke="#266AE9" stroke-width="0.9" stroke-linecap="round" stroke-linejoin="round"/>
</g>
<rect width="358" height="40" transform="matrix(1 0 0 -1 0 40)" fill="url(#paint1_linear_5522_74225)"/>
<rect y="136" width="358" height="94" fill="url(#paint2_linear_5522_74225)"/>
</g>
<defs>
<filter id="filter0_dd_5522_74225" x="-16.5" y="36.5" width="391" height="239" filterUnits="userSpaceOnUse" color-interpolation-filters="sRGB">
<feFlood flood-opacity="0" result="BackgroundImageFix"/>
<feColorMatrix in="SourceAlpha" type="matrix" values="0 0 0 0 0 0 0 0 0 0 0 0 0 0 0 0 0 0 127 0" result="hardAlpha"/>
<feOffset dy="4"/>
<feGaussianBlur stdDeviation="8"/>
<feComposite in2="hardAlpha" operator="out"/>
<feColorMatrix type="matrix" values="0 0 0 0 0.0588235 0 0 0 0 0.141176 0 0 0 0 0.0666667 0 0 0 0.02 0"/>
<feBlend mode="normal" in2="BackgroundImageFix" result="effect1_dropShadow_5522_74225"/>
<feColorMatrix in="SourceAlpha" type="matrix" values="0 0 0 0 0 0 0 0 0 0 0 0 0 0 0 0 0 0 127 0" result="hardAlpha"/>
<feOffset dy="10"/>
<feGaussianBlur stdDeviation="16"/>
<feComposite in2="hardAlpha" operator="out"/>
<feColorMatrix type="matrix" values="0 0 0 0 0.0627451 0 0 0 0 0.0588235 0 0 0 0 0.141176 0 0 0 0.05 0"/>
<feBlend mode="normal" in2="effect1_dropShadow_5522_74225" result="effect2_dropShadow_5522_74225"/>
<feBlend mode="normal" in="SourceGraphic" in2="effect2_dropShadow_5522_74225" result="shape"/>
</filter>
<filter id="filter1_i_5522_74225" x="154.797" y="34.4531" width="48.4102" height="51.3535" filterUnits="userSpaceOnUse" color-interpolation-filters="sRGB">
<feFlood flood-opacity="0" result="BackgroundImageFix"/>
<feBlend mode="normal" in="SourceGraphic" in2="BackgroundImageFix" result="shape"/>
<feColorMatrix in="SourceAlpha" type="matrix" values="0 0 0 0 0 0 0 0 0 0 0 0 0 0 0 0 0 0 127 0" result="hardAlpha"/>
<feOffset dy="3"/>
<feGaussianBlur stdDeviation="6"/>
<feComposite in2="hardAlpha" operator="arithmetic" k2="-1" k3="1"/>
<feColorMatrix type="matrix" values="0 0 0 0 0.585337 0 0 0 0 0.717275 0 0 0 0 0.972356 0 0 0 0.16 0"/>
<feBlend mode="normal" in2="shape" result="effect1_innerShadow_5522_74225"/>
</filter>
<linearGradient id="paint0_linear_5522_74225" x1="342.302" y1="58.6314" x2="15.698" y2="58.6314" gradientUnits="userSpaceOnUse">
<stop stop-color="#F4F4F5"/>
<stop offset="0.506904" stop-color="#266AE9" stop-opacity="0.2"/>
<stop offset="1" stop-color="#F4F4F5"/>
</linearGradient>
<linearGradient id="paint1_linear_5522_74225" x1="179" y1="0" x2="179" y2="40" gradientUnits="userSpaceOnUse">
<stop stop-color="#FAFAFA" stop-opacity="0"/>
<stop offset="1" stop-color="#FAFAFA"/>
</linearGradient>
<linearGradient id="paint2_linear_5522_74225" x1="179" y1="136" x2="179" y2="230" gradientUnits="userSpaceOnUse">
<stop stop-color="#FAFAFA" stop-opacity="0"/>
<stop offset="1" stop-color="#FAFAFA"/>
</linearGradient>
<clipPath id="clip0_5522_74225">
<rect width="358" height="230" fill="white"/>
</clipPath>
</defs>
</svg>
