<svg width="705" height="290" viewBox="0 0 705 290" fill="none" xmlns="http://www.w3.org/2000/svg">
<g clip-path="url(#clip0_5522_75718)">
<path d="M355.5 83L746.5 83" stroke="url(#paint0_linear_5522_75718)" stroke-opacity="0.4" stroke-linecap="round"/>
<path d="M532.5 159L532.5 550" stroke="url(#paint1_linear_5522_75718)" stroke-opacity="0.4" stroke-linecap="round"/>
<path d="M332.5 198L332.5 589" stroke="url(#paint2_linear_5522_75718)" stroke-opacity="0.4" stroke-linecap="round"/>
<path d="M98.5 150L450.5 150" stroke="url(#paint3_linear_5522_75718)" stroke-opacity="0.4" stroke-linecap="round"/>
<g filter="url(#filter0_dd_5522_75718)">
<rect x="219.5" y="210" width="267" height="48" rx="16" fill="white"/>
<rect x="220" y="210.5" width="266" height="47" rx="15.5" stroke="#F3F4F7"/>
<path d="M254.14 240H252.86V228.8H254.268L258.428 238.24L262.572 228.8H263.964V240H262.684V231.328L258.876 240H257.964L254.14 231.328V240ZM271.568 240L271.472 238.56C271.248 239.051 270.917 239.435 270.48 239.712C270.043 239.979 269.488 240.112 268.816 240.112C268.24 240.112 267.749 240.021 267.344 239.84C266.939 239.659 266.624 239.403 266.4 239.072C266.187 238.731 266.08 238.331 266.08 237.872C266.08 237.2 266.331 236.651 266.832 236.224C267.333 235.787 268.059 235.52 269.008 235.424L271.472 235.152V234.512C271.472 234.064 271.307 233.707 270.976 233.44C270.645 233.163 270.197 233.024 269.632 233.024C269.077 233.024 268.613 233.152 268.24 233.408C267.877 233.664 267.627 234.032 267.488 234.512L266.4 234.128C266.613 233.424 267.003 232.875 267.568 232.48C268.144 232.085 268.843 231.888 269.664 231.888C270.613 231.888 271.349 232.133 271.872 232.624C272.405 233.104 272.672 233.76 272.672 234.592V240H271.568ZM271.472 236.176L268.992 236.464C268.459 236.528 268.053 236.677 267.776 236.912C267.499 237.136 267.36 237.435 267.36 237.808C267.36 238.181 267.493 238.48 267.76 238.704C268.037 238.928 268.432 239.04 268.944 239.04C269.531 239.04 270.011 238.923 270.384 238.688C270.757 238.453 271.029 238.139 271.2 237.744C271.381 237.339 271.472 236.901 271.472 236.432V236.176ZM275.013 232H276.117L276.181 233.136C276.437 232.741 276.773 232.437 277.189 232.224C277.605 232 278.091 231.888 278.645 231.888C279.253 231.888 279.787 232.021 280.245 232.288C280.704 232.544 281.061 232.933 281.317 233.456C281.573 233.968 281.701 234.613 281.701 235.392V240H280.501V235.536C280.501 234.704 280.32 234.075 279.957 233.648C279.605 233.211 279.093 232.992 278.421 232.992C277.728 232.992 277.184 233.221 276.789 233.68C276.405 234.139 276.213 234.816 276.213 235.712V240H275.013V232ZM290.573 240H289.485L289.405 238.848C289.16 239.253 288.829 239.568 288.413 239.792C287.997 240.005 287.512 240.112 286.957 240.112C286.338 240.112 285.8 239.984 285.341 239.728C284.882 239.472 284.525 239.088 284.269 238.576C284.024 238.064 283.901 237.419 283.901 236.64V232H285.085V236.512C285.085 237.333 285.261 237.957 285.613 238.384C285.976 238.8 286.493 239.008 287.165 239.008C287.848 239.008 288.386 238.789 288.781 238.352C289.186 237.904 289.389 237.232 289.389 236.336V232H290.573V240ZM298.021 240L297.925 238.56C297.701 239.051 297.371 239.435 296.933 239.712C296.496 239.979 295.941 240.112 295.269 240.112C294.693 240.112 294.203 240.021 293.797 239.84C293.392 239.659 293.077 239.403 292.853 239.072C292.64 238.731 292.533 238.331 292.533 237.872C292.533 237.2 292.784 236.651 293.285 236.224C293.787 235.787 294.512 235.52 295.461 235.424L297.925 235.152V234.512C297.925 234.064 297.76 233.707 297.429 233.44C297.099 233.163 296.651 233.024 296.085 233.024C295.531 233.024 295.067 233.152 294.693 233.408C294.331 233.664 294.08 234.032 293.941 234.512L292.853 234.128C293.067 233.424 293.456 232.875 294.021 232.48C294.597 232.085 295.296 231.888 296.117 231.888C297.067 231.888 297.803 232.133 298.325 232.624C298.859 233.104 299.125 233.76 299.125 234.592V240H298.021ZM297.925 236.176L295.445 236.464C294.912 236.528 294.507 236.677 294.229 236.912C293.952 237.136 293.813 237.435 293.813 237.808C293.813 238.181 293.947 238.48 294.213 238.704C294.491 238.928 294.885 239.04 295.397 239.04C295.984 239.04 296.464 238.923 296.837 238.688C297.211 238.453 297.483 238.139 297.653 237.744C297.835 237.339 297.925 236.901 297.925 236.432V236.176ZM301.466 228.48H302.666V240H301.466V228.48ZM314.599 240L314.503 238.56C314.279 239.051 313.949 239.435 313.511 239.712C313.074 239.979 312.519 240.112 311.847 240.112C311.271 240.112 310.781 240.021 310.375 239.84C309.97 239.659 309.655 239.403 309.431 239.072C309.218 238.731 309.111 238.331 309.111 237.872C309.111 237.2 309.362 236.651 309.863 236.224C310.365 235.787 311.09 235.52 312.039 235.424L314.503 235.152V234.512C314.503 234.064 314.338 233.707 314.007 233.44C313.677 233.163 313.229 233.024 312.663 233.024C312.109 233.024 311.645 233.152 311.271 233.408C310.909 233.664 310.658 234.032 310.519 234.512L309.431 234.128C309.645 233.424 310.034 232.875 310.599 232.48C311.175 232.085 311.874 231.888 312.695 231.888C313.645 231.888 314.381 232.133 314.903 232.624C315.437 233.104 315.703 233.76 315.703 234.592V240H314.599ZM314.503 236.176L312.023 236.464C311.49 236.528 311.085 236.677 310.807 236.912C310.53 237.136 310.391 237.435 310.391 237.808C310.391 238.181 310.525 238.48 310.791 238.704C311.069 238.928 311.463 239.04 311.975 239.04C312.562 239.04 313.042 238.923 313.415 238.688C313.789 238.453 314.061 238.139 314.231 237.744C314.413 237.339 314.503 236.901 314.503 236.432V236.176ZM319.117 238.384L319.245 238.368V243.2H318.045V232H319.149L319.229 233.488C319.474 233.04 319.837 232.661 320.317 232.352C320.797 232.043 321.399 231.888 322.125 231.888C322.818 231.888 323.442 232.059 323.997 232.4C324.551 232.731 324.989 233.205 325.309 233.824C325.629 234.432 325.789 235.157 325.789 236C325.789 236.832 325.634 237.557 325.325 238.176C325.026 238.784 324.599 239.259 324.045 239.6C323.501 239.941 322.861 240.112 322.125 240.112C321.357 240.112 320.722 239.947 320.221 239.616C319.719 239.285 319.351 238.875 319.117 238.384ZM324.493 236C324.493 235.083 324.253 234.357 323.773 233.824C323.303 233.28 322.669 233.008 321.869 233.008C321.367 233.008 320.914 233.125 320.509 233.36C320.114 233.595 319.805 233.936 319.581 234.384C319.357 234.832 319.245 235.371 319.245 236C319.245 236.619 319.357 237.152 319.581 237.6C319.805 238.048 320.114 238.395 320.509 238.64C320.914 238.875 321.367 238.992 321.869 238.992C322.669 238.992 323.303 238.725 323.773 238.192C324.253 237.648 324.493 236.917 324.493 236ZM328.82 238.384L328.948 238.368V243.2H327.748V232H328.852L328.932 233.488C329.177 233.04 329.54 232.661 330.02 232.352C330.5 232.043 331.102 231.888 331.828 231.888C332.521 231.888 333.145 232.059 333.7 232.4C334.254 232.731 334.692 233.205 335.012 233.824C335.332 234.432 335.492 235.157 335.492 236C335.492 236.832 335.337 237.557 335.028 238.176C334.729 238.784 334.302 239.259 333.748 239.6C333.204 239.941 332.564 240.112 331.828 240.112C331.06 240.112 330.425 239.947 329.924 239.616C329.422 239.285 329.054 238.875 328.82 238.384ZM334.196 236C334.196 235.083 333.956 234.357 333.476 233.824C333.006 233.28 332.372 233.008 331.572 233.008C331.07 233.008 330.617 233.125 330.212 233.36C329.817 233.595 329.508 233.936 329.284 234.384C329.06 234.832 328.948 235.371 328.948 236C328.948 236.619 329.06 237.152 329.284 237.6C329.508 238.048 329.817 238.395 330.212 238.64C330.617 238.875 331.07 238.992 331.572 238.992C332.372 238.992 333.006 238.725 333.476 238.192C333.956 237.648 334.196 236.917 334.196 236ZM337.451 228.48H338.651V240H337.451V228.48ZM341.331 232H342.515V240H341.331V232ZM341.939 230.4C341.694 230.4 341.491 230.32 341.331 230.16C341.171 230 341.091 229.803 341.091 229.568C341.091 229.323 341.171 229.12 341.331 228.96C341.491 228.8 341.694 228.72 341.939 228.72C342.163 228.72 342.355 228.8 342.515 228.96C342.686 229.12 342.771 229.323 342.771 229.568C342.771 229.803 342.686 230 342.515 230.16C342.355 230.32 342.163 230.4 341.939 230.4ZM348.624 240.112C347.846 240.112 347.163 239.941 346.576 239.6C345.99 239.259 345.531 238.784 345.2 238.176C344.88 237.557 344.72 236.843 344.72 236.032C344.72 235.211 344.88 234.491 345.2 233.872C345.531 233.243 345.99 232.757 346.576 232.416C347.163 232.064 347.846 231.888 348.624 231.888C349.446 231.888 350.166 232.08 350.784 232.464C351.403 232.837 351.851 233.36 352.128 234.032L351.024 234.416C350.864 233.989 350.571 233.653 350.144 233.408C349.728 233.152 349.243 233.024 348.688 233.024C348.144 233.024 347.67 233.147 347.264 233.392C346.87 233.637 346.56 233.984 346.336 234.432C346.123 234.88 346.016 235.408 346.016 236.016C346.016 236.912 346.256 237.632 346.736 238.176C347.216 238.709 347.856 238.976 348.656 238.976C349.2 238.976 349.686 238.853 350.112 238.608C350.539 238.363 350.854 238.032 351.056 237.616L352.144 238C351.856 238.661 351.403 239.179 350.784 239.552C350.166 239.925 349.446 240.112 348.624 240.112ZM359.115 240L359.019 238.56C358.795 239.051 358.464 239.435 358.027 239.712C357.59 239.979 357.035 240.112 356.363 240.112C355.787 240.112 355.296 240.021 354.891 239.84C354.486 239.659 354.171 239.403 353.947 239.072C353.734 238.731 353.627 238.331 353.627 237.872C353.627 237.2 353.878 236.651 354.379 236.224C354.88 235.787 355.606 235.52 356.555 235.424L359.019 235.152V234.512C359.019 234.064 358.854 233.707 358.523 233.44C358.192 233.163 357.744 233.024 357.179 233.024C356.624 233.024 356.16 233.152 355.787 233.408C355.424 233.664 355.174 234.032 355.035 234.512L353.947 234.128C354.16 233.424 354.55 232.875 355.115 232.48C355.691 232.085 356.39 231.888 357.211 231.888C358.16 231.888 358.896 232.133 359.419 232.624C359.952 233.104 360.219 233.76 360.219 234.592V240H359.115ZM359.019 236.176L356.539 236.464C356.006 236.528 355.6 236.677 355.323 236.912C355.046 237.136 354.907 237.435 354.907 237.808C354.907 238.181 355.04 238.48 355.307 238.704C355.584 238.928 355.979 239.04 356.491 239.04C357.078 239.04 357.558 238.923 357.931 238.688C358.304 238.453 358.576 238.139 358.747 237.744C358.928 237.339 359.019 236.901 359.019 236.432V236.176ZM363.072 232V229.76H364.272V232H366.4V233.12H364.272V237.424C364.272 237.915 364.373 238.272 364.576 238.496C364.789 238.72 365.056 238.853 365.376 238.896C365.707 238.939 366.048 238.939 366.4 238.896V239.936C365.984 240.032 365.573 240.059 365.168 240.016C364.773 239.973 364.416 239.856 364.096 239.664C363.787 239.461 363.536 239.179 363.344 238.816C363.163 238.453 363.072 237.989 363.072 237.424V233.12H361.872V232H363.072ZM368.425 232H369.609V240H368.425V232ZM369.033 230.4C368.788 230.4 368.585 230.32 368.425 230.16C368.265 230 368.185 229.803 368.185 229.568C368.185 229.323 368.265 229.12 368.425 228.96C368.585 228.8 368.788 228.72 369.033 228.72C369.257 228.72 369.449 228.8 369.609 228.96C369.78 229.12 369.865 229.323 369.865 229.568C369.865 229.803 369.78 230 369.609 230.16C369.449 230.32 369.257 230.4 369.033 230.4ZM375.766 240.112C375.009 240.112 374.331 239.947 373.734 239.616C373.137 239.285 372.667 238.816 372.326 238.208C371.985 237.589 371.814 236.859 371.814 236.016C371.814 235.163 371.985 234.427 372.326 233.808C372.678 233.189 373.153 232.715 373.75 232.384C374.358 232.053 375.041 231.888 375.798 231.888C376.555 231.888 377.233 232.053 377.83 232.384C378.438 232.715 378.913 233.189 379.254 233.808C379.606 234.416 379.782 235.141 379.782 235.984C379.782 236.837 379.606 237.573 379.254 238.192C378.902 238.811 378.422 239.285 377.814 239.616C377.206 239.947 376.523 240.112 375.766 240.112ZM375.75 238.976C376.219 238.976 376.662 238.875 377.078 238.672C377.494 238.459 377.83 238.133 378.086 237.696C378.353 237.248 378.486 236.683 378.486 236C378.486 235.307 378.358 234.741 378.102 234.304C377.846 233.867 377.51 233.547 377.094 233.344C376.689 233.131 376.251 233.024 375.782 233.024C375.313 233.024 374.875 233.131 374.47 233.344C374.065 233.547 373.734 233.872 373.478 234.32C373.233 234.757 373.11 235.317 373.11 236C373.11 236.693 373.233 237.259 373.478 237.696C373.723 238.133 374.043 238.459 374.438 238.672C374.843 238.875 375.281 238.976 375.75 238.976ZM381.748 232H382.852L382.916 233.136C383.172 232.741 383.508 232.437 383.924 232.224C384.34 232 384.825 231.888 385.38 231.888C385.988 231.888 386.521 232.021 386.98 232.288C387.438 232.544 387.796 232.933 388.052 233.456C388.308 233.968 388.436 234.613 388.436 235.392V240H387.236V235.536C387.236 234.704 387.054 234.075 386.692 233.648C386.34 233.211 385.828 232.992 385.156 232.992C384.462 232.992 383.918 233.221 383.524 233.68C383.14 234.139 382.948 234.816 382.948 235.712V240H381.748V232ZM395.76 232V229.76H396.96V232H399.088V233.12H396.96V237.424C396.96 237.915 397.061 238.272 397.264 238.496C397.477 238.72 397.744 238.853 398.064 238.896C398.394 238.939 398.736 238.939 399.088 238.896V239.936C398.672 240.032 398.261 240.059 397.856 240.016C397.461 239.973 397.104 239.856 396.784 239.664C396.474 239.461 396.224 239.179 396.032 238.816C395.85 238.453 395.76 237.989 395.76 237.424V233.12H394.56V232H395.76ZM400.873 232H401.977L402.041 233.168C402.254 232.88 402.51 232.635 402.809 232.432C403.118 232.229 403.454 232.091 403.817 232.016C404.19 231.931 404.585 231.925 405.001 232V233.2C404.553 233.115 404.147 233.115 403.785 233.2C403.433 233.285 403.129 233.445 402.873 233.68C402.617 233.915 402.419 234.213 402.281 234.576C402.142 234.928 402.073 235.339 402.073 235.808V240H400.873V232ZM411.646 240L411.55 238.56C411.326 239.051 410.996 239.435 410.558 239.712C410.121 239.979 409.566 240.112 408.894 240.112C408.318 240.112 407.828 240.021 407.422 239.84C407.017 239.659 406.702 239.403 406.478 239.072C406.265 238.731 406.158 238.331 406.158 237.872C406.158 237.2 406.409 236.651 406.91 236.224C407.412 235.787 408.137 235.52 409.086 235.424L411.55 235.152V234.512C411.55 234.064 411.385 233.707 411.054 233.44C410.724 233.163 410.276 233.024 409.71 233.024C409.156 233.024 408.692 233.152 408.318 233.408C407.956 233.664 407.705 234.032 407.566 234.512L406.478 234.128C406.692 233.424 407.081 232.875 407.646 232.48C408.222 232.085 408.921 231.888 409.742 231.888C410.692 231.888 411.428 232.133 411.95 232.624C412.484 233.104 412.75 233.76 412.75 234.592V240H411.646ZM411.55 236.176L409.07 236.464C408.537 236.528 408.132 236.677 407.854 236.912C407.577 237.136 407.438 237.435 407.438 237.808C407.438 238.181 407.572 238.48 407.838 238.704C408.116 238.928 408.51 239.04 409.022 239.04C409.609 239.04 410.089 238.923 410.462 238.688C410.836 238.453 411.108 238.139 411.278 237.744C411.46 237.339 411.55 236.901 411.55 236.432V236.176ZM418.499 240.112C417.721 240.112 417.038 239.941 416.451 239.6C415.865 239.259 415.406 238.784 415.075 238.176C414.755 237.557 414.595 236.843 414.595 236.032C414.595 235.211 414.755 234.491 415.075 233.872C415.406 233.243 415.865 232.757 416.451 232.416C417.038 232.064 417.721 231.888 418.499 231.888C419.321 231.888 420.041 232.08 420.659 232.464C421.278 232.837 421.726 233.36 422.003 234.032L420.899 234.416C420.739 233.989 420.446 233.653 420.019 233.408C419.603 233.152 419.118 233.024 418.563 233.024C418.019 233.024 417.545 233.147 417.139 233.392C416.745 233.637 416.435 233.984 416.211 234.432C415.998 234.88 415.891 235.408 415.891 236.016C415.891 236.912 416.131 237.632 416.611 238.176C417.091 238.709 417.731 238.976 418.531 238.976C419.075 238.976 419.561 238.853 419.987 238.608C420.414 238.363 420.729 238.032 420.931 237.616L422.019 238C421.731 238.661 421.278 239.179 420.659 239.552C420.041 239.925 419.321 240.112 418.499 240.112ZM423.982 228.48H425.198V235.472H425.934L429.086 232H430.782L427.006 236L430.798 240H429.086L425.934 236.512H425.198V240H423.982V228.48ZM432.503 232H433.687V240H432.503V232ZM433.111 230.4C432.866 230.4 432.663 230.32 432.503 230.16C432.343 230 432.263 229.803 432.263 229.568C432.263 229.323 432.343 229.12 432.503 228.96C432.663 228.8 432.866 228.72 433.111 228.72C433.335 228.72 433.527 228.8 433.687 228.96C433.858 229.12 433.943 229.323 433.943 229.568C433.943 229.803 433.858 230 433.687 230.16C433.527 230.32 433.335 230.4 433.111 230.4ZM436.388 232H437.492L437.556 233.136C437.812 232.741 438.148 232.437 438.564 232.224C438.98 232 439.466 231.888 440.02 231.888C440.628 231.888 441.162 232.021 441.62 232.288C442.079 232.544 442.436 232.933 442.692 233.456C442.948 233.968 443.076 234.613 443.076 235.392V240H441.876V235.536C441.876 234.704 441.695 234.075 441.332 233.648C440.98 233.211 440.468 232.992 439.796 232.992C439.103 232.992 438.559 233.221 438.164 233.68C437.78 234.139 437.588 234.816 437.588 235.712V240H436.388V232ZM451.548 232H452.652V238.528C452.652 239.509 452.433 240.347 451.996 241.04C451.559 241.744 450.924 242.277 450.092 242.64C449.26 243.013 448.247 243.2 447.052 243.2L446.86 242.096C448.364 242.075 449.505 241.76 450.284 241.152C451.063 240.555 451.452 239.68 451.452 238.528V238.352L451.58 238.384C451.335 238.853 450.967 239.259 450.476 239.6C449.985 239.931 449.351 240.101 448.572 240.112C447.836 240.112 447.191 239.947 446.636 239.616C446.092 239.275 445.665 238.795 445.356 238.176C445.057 237.557 444.908 236.832 444.908 236C444.908 235.168 445.057 234.448 445.356 233.84C445.665 233.221 446.092 232.741 446.636 232.4C447.191 232.059 447.836 231.888 448.572 231.888C449.052 231.888 449.479 231.963 449.852 232.112C450.225 232.251 450.545 232.443 450.812 232.688C451.079 232.923 451.297 233.189 451.468 233.488L451.548 232ZM446.204 236C446.204 236.917 446.439 237.648 446.908 238.192C447.388 238.725 448.033 238.992 448.844 238.992C449.335 238.992 449.777 238.875 450.172 238.64C450.567 238.405 450.876 238.064 451.1 237.616C451.335 237.168 451.452 236.629 451.452 236C451.452 235.371 451.335 234.837 451.1 234.4C450.876 233.952 450.567 233.611 450.172 233.376C449.777 233.131 449.335 233.008 448.844 233.008C448.044 233.008 447.404 233.28 446.924 233.824C446.444 234.368 446.204 235.093 446.204 236Z" fill="#9CA3AF"/>
<path d="M251.5 235.2H453.868V236H251.5V235.2Z" fill="#9CA3AF"/>
</g>
<g filter="url(#filter1_dd_5522_75718)">
<rect x="233.5" y="20" width="240" height="48" rx="16" fill="white"/>
<rect x="234" y="20.5" width="239" height="47" rx="15.5" stroke="#F3F4F7"/>
<path d="M268.14 50H266.86V38.8H268.268L272.428 48.24L276.572 38.8H277.964V50H276.684V41.328L272.876 50H271.964L268.14 41.328V50ZM280.8 42H281.984V50H280.8V42ZM281.408 40.4C281.163 40.4 280.96 40.32 280.8 40.16C280.64 40 280.56 39.8027 280.56 39.568C280.56 39.3227 280.64 39.12 280.8 38.96C280.96 38.8 281.163 38.72 281.408 38.72C281.632 38.72 281.824 38.8 281.984 38.96C282.155 39.12 282.24 39.3227 282.24 39.568C282.24 39.8027 282.155 40 281.984 40.16C281.824 40.32 281.632 40.4 281.408 40.4ZM285.341 47.552C285.405 47.872 285.522 48.1387 285.693 48.352C285.864 48.5547 286.082 48.7093 286.349 48.816C286.626 48.9227 286.946 48.976 287.309 48.976C287.874 48.976 288.301 48.8693 288.589 48.656C288.888 48.432 289.037 48.1547 289.037 47.824C289.037 47.5467 288.946 47.3227 288.765 47.152C288.594 46.9813 288.365 46.8427 288.077 46.736C287.789 46.6187 287.469 46.5173 287.117 46.432C286.84 46.368 286.541 46.2933 286.221 46.208C285.901 46.112 285.597 45.984 285.309 45.824C285.021 45.664 284.786 45.456 284.605 45.2C284.424 44.944 284.333 44.608 284.333 44.192C284.333 43.7333 284.456 43.3333 284.701 42.992C284.957 42.64 285.304 42.368 285.741 42.176C286.189 41.984 286.701 41.888 287.277 41.888C287.938 41.888 288.525 42.032 289.037 42.32C289.56 42.608 289.922 43.056 290.125 43.664L289.005 44.048C288.93 43.7707 288.792 43.5573 288.589 43.408C288.397 43.2587 288.178 43.1573 287.933 43.104C287.698 43.0507 287.464 43.024 287.229 43.024C286.749 43.024 286.36 43.12 286.061 43.312C285.773 43.4933 285.629 43.7707 285.629 44.144C285.629 44.3467 285.677 44.5173 285.773 44.656C285.869 44.784 286.002 44.8907 286.173 44.976C286.344 45.0613 286.546 45.136 286.781 45.2C287.016 45.2533 287.272 45.3173 287.549 45.392C287.858 45.4667 288.173 45.5627 288.493 45.68C288.813 45.7867 289.112 45.9307 289.389 46.112C289.666 46.2827 289.89 46.5067 290.061 46.784C290.242 47.0507 290.333 47.3867 290.333 47.792C290.333 48.2613 290.205 48.672 289.949 49.024C289.693 49.3653 289.336 49.632 288.877 49.824C288.429 50.016 287.906 50.112 287.309 50.112C286.488 50.112 285.805 49.9307 285.261 49.568C284.728 49.1947 284.37 48.6507 284.189 47.936L285.341 47.552ZM292.935 47.552C292.999 47.872 293.116 48.1387 293.287 48.352C293.458 48.5547 293.676 48.7093 293.943 48.816C294.22 48.9227 294.54 48.976 294.903 48.976C295.468 48.976 295.895 48.8693 296.183 48.656C296.482 48.432 296.631 48.1547 296.631 47.824C296.631 47.5467 296.54 47.3227 296.359 47.152C296.188 46.9813 295.959 46.8427 295.671 46.736C295.383 46.6187 295.063 46.5173 294.711 46.432C294.434 46.368 294.135 46.2933 293.815 46.208C293.495 46.112 293.191 45.984 292.903 45.824C292.615 45.664 292.38 45.456 292.199 45.2C292.018 44.944 291.927 44.608 291.927 44.192C291.927 43.7333 292.05 43.3333 292.295 42.992C292.551 42.64 292.898 42.368 293.335 42.176C293.783 41.984 294.295 41.888 294.871 41.888C295.532 41.888 296.119 42.032 296.631 42.32C297.154 42.608 297.516 43.056 297.719 43.664L296.599 44.048C296.524 43.7707 296.386 43.5573 296.183 43.408C295.991 43.2587 295.772 43.1573 295.527 43.104C295.292 43.0507 295.058 43.024 294.823 43.024C294.343 43.024 293.954 43.12 293.655 43.312C293.367 43.4933 293.223 43.7707 293.223 44.144C293.223 44.3467 293.271 44.5173 293.367 44.656C293.463 44.784 293.596 44.8907 293.767 44.976C293.938 45.0613 294.14 45.136 294.375 45.2C294.61 45.2533 294.866 45.3173 295.143 45.392C295.452 45.4667 295.767 45.5627 296.087 45.68C296.407 45.7867 296.706 45.9307 296.983 46.112C297.26 46.2827 297.484 46.5067 297.655 46.784C297.836 47.0507 297.927 47.3867 297.927 47.792C297.927 48.2613 297.799 48.672 297.543 49.024C297.287 49.3653 296.93 49.632 296.471 49.824C296.023 50.016 295.5 50.112 294.903 50.112C294.082 50.112 293.399 49.9307 292.855 49.568C292.322 49.1947 291.964 48.6507 291.783 47.936L292.935 47.552ZM300.113 42H301.297V50H300.113V42ZM300.721 40.4C300.475 40.4 300.273 40.32 300.113 40.16C299.953 40 299.873 39.8027 299.873 39.568C299.873 39.3227 299.953 39.12 300.113 38.96C300.273 38.8 300.475 38.72 300.721 38.72C300.945 38.72 301.137 38.8 301.297 38.96C301.467 39.12 301.553 39.3227 301.553 39.568C301.553 39.8027 301.467 40 301.297 40.16C301.137 40.32 300.945 40.4 300.721 40.4ZM303.998 42H305.102L305.166 43.136C305.422 42.7413 305.758 42.4373 306.174 42.224C306.59 42 307.075 41.888 307.63 41.888C308.238 41.888 308.771 42.0213 309.23 42.288C309.688 42.544 310.046 42.9333 310.302 43.456C310.558 43.968 310.686 44.6133 310.686 45.392V50H309.486V45.536C309.486 44.704 309.304 44.0747 308.942 43.648C308.59 43.2107 308.078 42.992 307.406 42.992C306.712 42.992 306.168 43.2213 305.774 43.68C305.39 44.1387 305.198 44.816 305.198 45.712V50H303.998V42ZM319.157 42H320.261V48.528C320.261 49.5093 320.043 50.3467 319.605 51.04C319.168 51.744 318.533 52.2773 317.701 52.64C316.869 53.0133 315.856 53.2 314.661 53.2L314.469 52.096C315.973 52.0747 317.115 51.76 317.893 51.152C318.672 50.5547 319.061 49.68 319.061 48.528V48.352L319.189 48.384C318.944 48.8533 318.576 49.2587 318.085 49.6C317.595 49.9307 316.96 50.1013 316.181 50.112C315.445 50.112 314.8 49.9467 314.245 49.616C313.701 49.2747 313.275 48.7947 312.965 48.176C312.667 47.5573 312.517 46.832 312.517 46C312.517 45.168 312.667 44.448 312.965 43.84C313.275 43.2213 313.701 42.7413 314.245 42.4C314.8 42.0587 315.445 41.888 316.181 41.888C316.661 41.888 317.088 41.9627 317.461 42.112C317.835 42.2507 318.155 42.4427 318.421 42.688C318.688 42.9227 318.907 43.1893 319.077 43.488L319.157 42ZM313.813 46C313.813 46.9173 314.048 47.648 314.517 48.192C314.997 48.7253 315.643 48.992 316.453 48.992C316.944 48.992 317.387 48.8747 317.781 48.64C318.176 48.4053 318.485 48.064 318.709 47.616C318.944 47.168 319.061 46.6293 319.061 46C319.061 45.3707 318.944 44.8373 318.709 44.4C318.485 43.952 318.176 43.6107 317.781 43.376C317.387 43.1307 316.944 43.008 316.453 43.008C315.653 43.008 315.013 43.28 314.533 43.824C314.053 44.368 313.813 45.0933 313.813 46ZM333.793 42.112C333.793 41.44 333.595 40.9067 333.201 40.512C332.806 40.1173 332.161 39.92 331.265 39.92H328.609V44.304H331.281C331.867 44.304 332.342 44.2133 332.705 44.032C333.078 43.8507 333.35 43.5947 333.521 43.264C333.702 42.9333 333.793 42.5493 333.793 42.112ZM331.265 38.8C332.139 38.8 332.854 38.9493 333.409 39.248C333.974 39.5467 334.395 39.9467 334.673 40.448C334.95 40.9387 335.089 41.4933 335.089 42.112C335.089 42.5493 335.014 42.9653 334.865 43.36C334.726 43.7547 334.502 44.1067 334.193 44.416C333.883 44.7253 333.489 44.9707 333.009 45.152C332.529 45.3333 331.953 45.424 331.281 45.424H328.609V50H327.329V38.8H331.265ZM332.193 44.944L335.297 50H333.841L330.817 44.944H332.193ZM342.593 40.48C342.379 40.2667 342.113 40.1067 341.793 40C341.483 39.8827 341.131 39.824 340.737 39.824C340.001 39.824 339.451 40.016 339.089 40.4C338.737 40.784 338.561 41.2693 338.561 41.856C338.561 42.2827 338.667 42.6347 338.881 42.912C339.105 43.1893 339.441 43.3973 339.889 43.536C340.347 43.6747 340.923 43.744 341.617 43.744H345.089V44.864H341.633C340.566 44.864 339.75 45.0187 339.185 45.328C338.63 45.6267 338.353 46.1653 338.353 46.944C338.353 47.3493 338.433 47.7067 338.593 48.016C338.753 48.3253 339.003 48.5653 339.345 48.736C339.686 48.896 340.129 48.976 340.673 48.976C341.494 48.976 342.075 48.7787 342.417 48.384C342.758 47.9893 342.929 47.3867 342.929 46.576V44.528H344.161V46.576C344.161 47.4187 344.022 48.1013 343.745 48.624C343.467 49.136 343.067 49.5147 342.545 49.76C342.022 49.9947 341.398 50.112 340.673 50.112C339.873 50.112 339.201 49.984 338.657 49.728C338.123 49.4613 337.723 49.0987 337.457 48.64C337.19 48.1707 337.057 47.6427 337.057 47.056C337.057 46.5227 337.158 46.0747 337.361 45.712C337.563 45.3387 337.841 45.04 338.193 44.816C338.555 44.5813 338.966 44.416 339.425 44.32V44.24C338.966 44.1547 338.577 43.9893 338.257 43.744C337.937 43.4987 337.691 43.2053 337.521 42.864C337.35 42.512 337.265 42.1333 337.265 41.728C337.265 41.1733 337.393 40.6667 337.649 40.208C337.915 39.7493 338.305 39.3813 338.817 39.104C339.329 38.8267 339.953 38.688 340.689 38.688C341.297 38.688 341.846 38.784 342.337 38.976C342.838 39.1573 343.259 39.4187 343.601 39.76L342.593 40.48ZM343.601 39.76L342.593 40.48L343.601 39.76ZM342.321 43.744C342.459 43.744 342.582 43.7173 342.689 43.664C342.795 43.6 342.875 43.5147 342.929 43.408C342.982 43.3013 343.009 43.1787 343.009 43.04V41.776H344.177V43.744H346.321V44.864H344.177V47.424C344.177 47.9467 344.315 48.3307 344.593 48.576C344.87 48.8213 345.238 48.944 345.697 48.944C345.793 48.944 345.889 48.9387 345.985 48.928C346.091 48.9173 346.203 48.9067 346.321 48.896V49.936C346.182 49.968 346.038 49.9947 345.889 50.016C345.75 50.0373 345.617 50.048 345.489 50.048C345.041 50.048 344.619 49.9573 344.225 49.776C343.841 49.5947 343.526 49.312 343.281 48.928C343.035 48.5333 342.913 48.032 342.913 47.424V44.864H341.713V43.744H342.321ZM352.29 38.8C353.528 38.8 354.584 39.0293 355.458 39.488C356.344 39.936 357.021 40.5813 357.49 41.424C357.97 42.2667 358.21 43.2693 358.21 44.432C358.21 45.584 357.97 46.576 357.49 47.408C357.021 48.24 356.344 48.88 355.458 49.328C354.584 49.776 353.528 50 352.29 50H348.594V38.8H352.29ZM352.29 48.88C353.816 48.88 354.968 48.4907 355.746 47.712C356.525 46.9333 356.914 45.84 356.914 44.432C356.914 43.0133 356.525 41.9093 355.746 41.12C354.968 40.32 353.816 39.92 352.29 39.92H349.874V48.88H352.29ZM365.119 42V39.76H366.319V42H368.447V43.12H366.319V47.424C366.319 47.9147 366.42 48.272 366.623 48.496C366.836 48.72 367.103 48.8533 367.423 48.896C367.754 48.9387 368.095 48.9387 368.447 48.896V49.936C368.031 50.032 367.62 50.0587 367.215 50.016C366.82 49.9733 366.463 49.856 366.143 49.664C365.834 49.4613 365.583 49.1787 365.391 48.816C365.21 48.4533 365.119 47.9893 365.119 47.424V43.12H363.919V42H365.119ZM375.24 50L375.144 48.56C374.92 49.0507 374.589 49.4347 374.152 49.712C373.715 49.9787 373.16 50.112 372.488 50.112C371.912 50.112 371.421 50.0213 371.016 49.84C370.611 49.6587 370.296 49.4027 370.072 49.072C369.859 48.7307 369.752 48.3307 369.752 47.872C369.752 47.2 370.003 46.6507 370.504 46.224C371.005 45.7867 371.731 45.52 372.68 45.424L375.144 45.152V44.512C375.144 44.064 374.979 43.7067 374.648 43.44C374.317 43.1627 373.869 43.024 373.304 43.024C372.749 43.024 372.285 43.152 371.912 43.408C371.549 43.664 371.299 44.032 371.16 44.512L370.072 44.128C370.285 43.424 370.675 42.8747 371.24 42.48C371.816 42.0853 372.515 41.888 373.336 41.888C374.285 41.888 375.021 42.1333 375.544 42.624C376.077 43.104 376.344 43.76 376.344 44.592V50H375.24ZM375.144 46.176L372.664 46.464C372.131 46.528 371.725 46.6773 371.448 46.912C371.171 47.136 371.032 47.4347 371.032 47.808C371.032 48.1813 371.165 48.48 371.432 48.704C371.709 48.928 372.104 49.04 372.616 49.04C373.203 49.04 373.683 48.9227 374.056 48.688C374.429 48.4533 374.701 48.1387 374.872 47.744C375.053 47.3387 375.144 46.9013 375.144 46.432V46.176ZM377.949 42H379.325L381.373 45.056L383.421 42H384.813L382.045 45.984L384.813 50H383.421L381.373 46.912L379.325 50H377.949L380.717 45.984L377.949 42ZM394.437 50.112C393.658 50.112 392.976 49.9413 392.389 49.6C391.802 49.2587 391.344 48.784 391.013 48.176C390.693 47.5573 390.533 46.8427 390.533 46.032C390.533 45.2107 390.693 44.4907 391.013 43.872C391.344 43.2427 391.802 42.7573 392.389 42.416C392.976 42.064 393.658 41.888 394.437 41.888C395.258 41.888 395.978 42.08 396.597 42.464C397.216 42.8373 397.664 43.36 397.941 44.032L396.837 44.416C396.677 43.9893 396.384 43.6533 395.957 43.408C395.541 43.152 395.056 43.024 394.501 43.024C393.957 43.024 393.482 43.1467 393.077 43.392C392.682 43.6373 392.373 43.984 392.149 44.432C391.936 44.88 391.829 45.408 391.829 46.016C391.829 46.912 392.069 47.632 392.549 48.176C393.029 48.7093 393.669 48.976 394.469 48.976C395.013 48.976 395.498 48.8533 395.925 48.608C396.352 48.3627 396.666 48.032 396.869 47.616L397.957 48C397.669 48.6613 397.216 49.1787 396.597 49.552C395.978 49.9253 395.258 50.112 394.437 50.112ZM399.92 42H401.024L401.088 43.168C401.301 42.88 401.557 42.6347 401.856 42.432C402.165 42.2293 402.501 42.0907 402.864 42.016C403.237 41.9307 403.632 41.9253 404.048 42V43.2C403.6 43.1147 403.194 43.1147 402.832 43.2C402.48 43.2853 402.176 43.4453 401.92 43.68C401.664 43.9147 401.466 44.2133 401.328 44.576C401.189 44.928 401.12 45.3387 401.12 45.808V50H399.92V42ZM409.045 50.112C408.298 50.112 407.632 49.9307 407.045 49.568C406.469 49.2053 406.016 48.7093 405.685 48.08C405.354 47.4507 405.189 46.7307 405.189 45.92C405.189 45.1413 405.354 44.448 405.685 43.84C406.016 43.232 406.469 42.7573 407.045 42.416C407.621 42.064 408.277 41.888 409.013 41.888C409.738 41.888 410.384 42.048 410.949 42.368C411.525 42.688 411.973 43.1307 412.293 43.696C412.613 44.2613 412.762 44.9067 412.741 45.632C412.741 45.7493 412.736 45.872 412.725 46C412.714 46.128 412.704 46.2667 412.693 46.416H406.501C406.522 46.9173 406.645 47.36 406.869 47.744C407.093 48.128 407.386 48.432 407.749 48.656C408.122 48.8693 408.544 48.976 409.013 48.976C409.632 48.976 410.154 48.8587 410.581 48.624C411.018 48.3893 411.333 48.0533 411.525 47.616L412.565 48.032C412.245 48.704 411.781 49.2213 411.173 49.584C410.565 49.936 409.856 50.112 409.045 50.112ZM411.429 45.376C411.44 44.9173 411.338 44.512 411.125 44.16C410.922 43.808 410.634 43.5307 410.261 43.328C409.888 43.1253 409.456 43.024 408.965 43.024C408.538 43.024 408.149 43.1253 407.797 43.328C407.445 43.5307 407.152 43.8133 406.917 44.176C406.693 44.528 406.56 44.928 406.517 45.376H411.429ZM420.892 43.616L420.764 43.632V38.48H421.964V50H420.86L420.78 48.512C420.535 48.96 420.167 49.3387 419.676 49.648C419.196 49.9573 418.599 50.112 417.884 50.112C417.148 50.112 416.503 49.9467 415.948 49.616C415.404 49.2747 414.978 48.7947 414.668 48.176C414.37 47.5573 414.22 46.832 414.22 46C414.22 45.168 414.37 44.448 414.668 43.84C414.978 43.2213 415.404 42.7413 415.948 42.4C416.503 42.0587 417.148 41.888 417.884 41.888C418.642 41.888 419.271 42.0533 419.772 42.384C420.274 42.7147 420.647 43.1253 420.892 43.616ZM415.516 46C415.516 46.9173 415.751 47.648 416.22 48.192C416.69 48.7253 417.33 48.992 418.14 48.992C418.642 48.992 419.09 48.8747 419.484 48.64C419.879 48.4053 420.188 48.064 420.412 47.616C420.647 47.168 420.764 46.6293 420.764 46C420.764 45.3707 420.647 44.8373 420.412 44.4C420.188 43.952 419.879 43.6107 419.484 43.376C419.09 43.1307 418.642 43.008 418.14 43.008C417.34 43.008 416.7 43.28 416.22 43.824C415.751 44.3573 415.516 45.0827 415.516 46ZM424.66 42H425.844V50H424.66V42ZM425.268 40.4C425.022 40.4 424.82 40.32 424.66 40.16C424.5 40 424.42 39.8027 424.42 39.568C424.42 39.3227 424.5 39.12 424.66 38.96C424.82 38.8 425.022 38.72 425.268 38.72C425.492 38.72 425.684 38.8 425.844 38.96C426.014 39.12 426.1 39.3227 426.1 39.568C426.1 39.8027 426.014 40 425.844 40.16C425.684 40.32 425.492 40.4 425.268 40.4ZM429.057 42V39.76H430.257V42H432.385V43.12H430.257V47.424C430.257 47.9147 430.358 48.272 430.561 48.496C430.774 48.72 431.041 48.8533 431.361 48.896C431.691 48.9387 432.033 48.9387 432.385 48.896V49.936C431.969 50.032 431.558 50.0587 431.153 50.016C430.758 49.9733 430.401 49.856 430.081 49.664C429.771 49.4613 429.521 49.1787 429.329 48.816C429.147 48.4533 429.057 47.9893 429.057 47.424V43.12H427.857V42H429.057ZM434.826 47.552C434.89 47.872 435.007 48.1387 435.178 48.352C435.348 48.5547 435.567 48.7093 435.834 48.816C436.111 48.9227 436.431 48.976 436.794 48.976C437.359 48.976 437.786 48.8693 438.074 48.656C438.372 48.432 438.522 48.1547 438.522 47.824C438.522 47.5467 438.431 47.3227 438.25 47.152C438.079 46.9813 437.85 46.8427 437.562 46.736C437.274 46.6187 436.954 46.5173 436.602 46.432C436.324 46.368 436.026 46.2933 435.706 46.208C435.386 46.112 435.082 45.984 434.794 45.824C434.506 45.664 434.271 45.456 434.09 45.2C433.908 44.944 433.818 44.608 433.818 44.192C433.818 43.7333 433.94 43.3333 434.186 42.992C434.442 42.64 434.788 42.368 435.226 42.176C435.674 41.984 436.186 41.888 436.762 41.888C437.423 41.888 438.01 42.032 438.522 42.32C439.044 42.608 439.407 43.056 439.61 43.664L438.49 44.048C438.415 43.7707 438.276 43.5573 438.074 43.408C437.882 43.2587 437.663 43.1573 437.418 43.104C437.183 43.0507 436.948 43.024 436.714 43.024C436.234 43.024 435.844 43.12 435.546 43.312C435.258 43.4933 435.114 43.7707 435.114 44.144C435.114 44.3467 435.162 44.5173 435.258 44.656C435.354 44.784 435.487 44.8907 435.658 44.976C435.828 45.0613 436.031 45.136 436.266 45.2C436.5 45.2533 436.756 45.3173 437.034 45.392C437.343 45.4667 437.658 45.5627 437.978 45.68C438.298 45.7867 438.596 45.9307 438.874 46.112C439.151 46.2827 439.375 46.5067 439.546 46.784C439.727 47.0507 439.818 47.3867 439.818 47.792C439.818 48.2613 439.69 48.672 439.434 49.024C439.178 49.3653 438.82 49.632 438.362 49.824C437.914 50.016 437.391 50.112 436.794 50.112C435.972 50.112 435.29 49.9307 434.746 49.568C434.212 49.1947 433.855 48.6507 433.674 47.936L434.826 47.552Z" fill="#9CA3AF"/>
<path d="M265.5 45.2H440.538V46H265.5V45.2Z" fill="#9CA3AF"/>
</g>
<g filter="url(#filter2_dd_5522_75718)">
<rect x="461.352" y="-4" width="40" height="40" rx="10" transform="rotate(15 461.352 -4)" fill="white" shape-rendering="crispEdges"/>
<rect x="460.998" y="-4.61237" width="41" height="41" rx="10.5" transform="rotate(15 460.998 -4.61237)" stroke="#F3F4F7" shape-rendering="crispEdges"/>
<g clip-path="url(#clip1_5522_75718)">
<path d="M474.409 12.9574L472.477 12.4397C471.964 12.3024 471.418 12.3743 470.959 12.6395C470.5 12.9047 470.165 13.3416 470.027 13.8539L466.921 25.445C466.784 25.9574 466.856 26.5033 467.121 26.9627C467.386 27.4221 467.823 27.7573 468.336 27.8945L477.995 30.4827C478.507 30.62 479.053 30.5481 479.513 30.2829C479.972 30.0177 480.307 29.5809 480.444 29.0685L483.55 17.4774C483.687 16.965 483.616 16.4191 483.35 15.9598C483.085 15.5004 482.648 15.1652 482.136 15.0279L480.204 14.5103M474.409 12.9574C474.546 12.445 474.881 12.0082 475.34 11.7429C475.8 11.4777 476.346 11.4059 476.858 11.5431L478.79 12.0608C479.302 12.1981 479.739 12.5333 480.004 12.9926C480.27 13.452 480.341 13.9979 480.204 14.5103M474.409 12.9574C474.271 13.4697 474.343 14.0156 474.608 14.475C474.874 14.9344 475.31 15.2696 475.823 15.4069L477.755 15.9245C478.267 16.0618 478.813 15.9899 479.272 15.7247C479.732 15.4595 480.067 15.0226 480.204 14.5103M471.303 24.5485L472.597 19.7188M474.201 25.3249L474.459 24.359M477.098 26.1014L477.875 23.2036" stroke="#71717A" stroke-width="1.2" stroke-linecap="round" stroke-linejoin="round"/>
</g>
</g>
<g filter="url(#filter3_dd_5522_75718)">
<rect x="206" y="242.281" width="32" height="32" rx="8" transform="rotate(-15 206 242.281)" fill="white" shape-rendering="crispEdges"/>
<rect x="205.388" y="241.928" width="33" height="33" rx="8.5" transform="rotate(-15 205.388 241.928)" stroke="#F3F4F7" shape-rendering="crispEdges"/>
<g clip-path="url(#clip2_5522_75718)">
<path d="M225.297 246.687L226.074 249.584C226.125 249.776 226.251 249.94 226.423 250.04C226.596 250.139 226.8 250.166 226.992 250.115L229.89 249.338M225.297 246.687L220.226 248.045C219.842 248.148 219.514 248.4 219.315 248.744C219.117 249.089 219.063 249.498 219.166 249.882L221.883 260.025C221.986 260.409 222.238 260.737 222.582 260.936C222.927 261.134 223.336 261.188 223.72 261.085L227.343 260.115M225.297 246.687L229.89 249.338M229.89 249.338L230.764 252.598M231.76 257.766L234.057 259.092M228.112 257.191C228.241 257.671 228.555 258.081 228.986 258.33C229.416 258.578 229.928 258.646 230.408 258.517C230.889 258.388 231.298 258.074 231.547 257.643C231.796 257.213 231.863 256.701 231.734 256.22C231.606 255.74 231.291 255.331 230.861 255.082C230.43 254.833 229.918 254.766 229.438 254.895C228.957 255.023 228.548 255.338 228.299 255.768C228.051 256.199 227.983 256.711 228.112 257.191Z" stroke="#71717A" stroke-width="1.2" stroke-linecap="round" stroke-linejoin="round"/>
</g>
</g>
<g opacity="0.2" filter="url(#filter4_f_5522_75718)">
<path d="M706.796 234.642C605.42 308.095 545.86 456.039 545.86 456.039C545.86 456.039 482.577 436.815 459.13 432.674C516.17 398.664 512.821 314.268 549.549 253.677C579.125 240.3 676.024 242.184 706.796 234.642Z" fill="url(#paint4_linear_5522_75718)"/>
</g>
<g opacity="0.2" filter="url(#filter5_f_5522_75718)">
<path d="M-133.866 298.029C-50.2919 225.103 -8.92903 95.8626 -8.92903 95.8626C-8.92903 95.8626 48.0465 103.993 68.9359 104.546C21.3723 139.545 30.5442 208.718 2.77468 263.154C-22.202 277.79 -107.408 288.056 -133.866 298.029Z" fill="url(#paint5_linear_5522_75718)"/>
</g>
<g filter="url(#filter6_dd_5522_75718)">
<rect x="152.5" y="84" width="400" height="110" rx="16" fill="white" shape-rendering="crispEdges"/>
<rect x="153" y="84.5" width="399" height="109" rx="15.5" stroke="#F3F4F7" shape-rendering="crispEdges"/>
<rect x="176.5" y="104" width="352" height="40" rx="12" fill="#18181B"/>
<path d="M288.28 119.2H289.68V125.43C289.68 125.99 289.788 126.457 290.002 126.83C290.217 127.194 290.511 127.465 290.884 127.642C291.258 127.81 291.678 127.894 292.144 127.894C292.62 127.894 293.04 127.81 293.404 127.642C293.778 127.465 294.072 127.194 294.286 126.83C294.501 126.457 294.608 125.99 294.608 125.43V119.2H296.008V125.402C296.008 126.037 295.901 126.587 295.686 127.054C295.481 127.511 295.192 127.894 294.818 128.202C294.454 128.501 294.039 128.725 293.572 128.874C293.115 129.023 292.634 129.098 292.13 129.098C291.458 129.098 290.828 128.967 290.24 128.706C289.652 128.435 289.176 128.029 288.812 127.488C288.458 126.937 288.28 126.242 288.28 125.402V119.2ZM298.069 122H299.273L299.357 122.812C299.581 122.523 299.865 122.299 300.211 122.14C300.556 121.981 300.939 121.902 301.359 121.902C301.9 121.902 302.367 122.019 302.759 122.252C303.16 122.476 303.468 122.812 303.683 123.26C303.907 123.708 304.019 124.268 304.019 124.94V129H302.703V125.108C302.703 124.455 302.563 123.96 302.283 123.624C302.012 123.279 301.615 123.106 301.093 123.106C300.551 123.106 300.131 123.283 299.833 123.638C299.534 123.983 299.385 124.497 299.385 125.178V129H298.069V122ZM305.916 118.92H307.232V129H305.916V118.92ZM312.304 129.098C311.642 129.098 311.044 128.953 310.512 128.664C309.99 128.365 309.579 127.95 309.28 127.418C308.982 126.877 308.832 126.242 308.832 125.514C308.832 124.777 308.986 124.137 309.294 123.596C309.602 123.055 310.022 122.639 310.554 122.35C311.086 122.051 311.684 121.902 312.346 121.902C313.009 121.902 313.606 122.051 314.138 122.35C314.68 122.639 315.104 123.055 315.412 123.596C315.72 124.128 315.874 124.758 315.874 125.486C315.874 126.223 315.716 126.863 315.398 127.404C315.09 127.945 314.666 128.365 314.124 128.664C313.583 128.953 312.976 129.098 312.304 129.098ZM312.29 127.894C312.664 127.894 313.014 127.81 313.34 127.642C313.667 127.465 313.933 127.199 314.138 126.844C314.353 126.489 314.46 126.037 314.46 125.486C314.46 124.945 314.358 124.501 314.152 124.156C313.956 123.801 313.695 123.54 313.368 123.372C313.042 123.195 312.692 123.106 312.318 123.106C311.954 123.106 311.614 123.195 311.296 123.372C310.988 123.54 310.736 123.801 310.54 124.156C310.344 124.511 310.246 124.963 310.246 125.514C310.246 126.055 310.34 126.503 310.526 126.858C310.722 127.203 310.974 127.465 311.282 127.642C311.59 127.81 311.926 127.894 312.29 127.894ZM320.479 129.098C319.807 129.098 319.214 128.949 318.701 128.65C318.187 128.342 317.786 127.922 317.497 127.39C317.217 126.858 317.077 126.237 317.077 125.528C317.077 124.809 317.221 124.179 317.511 123.638C317.8 123.097 318.201 122.672 318.715 122.364C319.228 122.056 319.825 121.902 320.507 121.902C321.225 121.902 321.855 122.07 322.397 122.406C322.947 122.742 323.344 123.195 323.587 123.764L322.397 124.184C322.257 123.857 322.019 123.596 321.683 123.4C321.356 123.204 320.983 123.106 320.563 123.106C320.133 123.106 319.765 123.209 319.457 123.414C319.149 123.61 318.911 123.89 318.743 124.254C318.575 124.609 318.491 125.029 318.491 125.514C318.491 126.242 318.677 126.821 319.051 127.25C319.424 127.679 319.928 127.894 320.563 127.894C320.983 127.894 321.356 127.801 321.683 127.614C322.019 127.427 322.271 127.171 322.439 126.844L323.615 127.264C323.353 127.824 322.943 128.272 322.383 128.608C321.823 128.935 321.188 129.098 320.479 129.098ZM325.221 118.92H326.551V124.926H327.125L329.743 122H331.535L328.287 125.5L331.549 129H329.743L327.125 126.06H326.551V129H325.221V118.92ZM344.49 119.2V129H343.062L338.176 121.412V129H336.776V119.2H338.204L343.09 126.76V119.2H344.49ZM349.642 129.098C348.97 129.098 348.372 128.944 347.85 128.636C347.336 128.319 346.93 127.885 346.632 127.334C346.342 126.783 346.198 126.153 346.198 125.444C346.198 124.763 346.342 124.156 346.632 123.624C346.921 123.092 347.318 122.672 347.822 122.364C348.335 122.056 348.914 121.902 349.558 121.902C350.211 121.902 350.79 122.047 351.294 122.336C351.798 122.616 352.19 123.013 352.47 123.526C352.75 124.03 352.885 124.613 352.876 125.276C352.876 125.388 352.871 125.505 352.862 125.626C352.852 125.738 352.838 125.864 352.82 126.004H347.64C347.668 126.377 347.77 126.709 347.948 126.998C348.134 127.278 348.368 127.497 348.648 127.656C348.937 127.815 349.264 127.894 349.628 127.894C350.094 127.894 350.5 127.805 350.846 127.628C351.191 127.441 351.434 127.194 351.574 126.886L352.722 127.292C352.442 127.861 352.031 128.305 351.49 128.622C350.958 128.939 350.342 129.098 349.642 129.098ZM351.434 124.87C351.434 124.534 351.35 124.231 351.182 123.96C351.014 123.689 350.785 123.479 350.496 123.33C350.216 123.171 349.898 123.092 349.544 123.092C349.226 123.092 348.932 123.171 348.662 123.33C348.4 123.479 348.176 123.689 347.99 123.96C347.812 124.221 347.7 124.525 347.654 124.87H351.434ZM357.278 129H356.018L353.82 122H355.164L356.634 127.432L358.202 122H359.462L360.974 127.404L362.43 122H363.732L361.562 129H360.288L358.79 123.918L357.278 129ZM369.936 126.41C369.992 126.671 370.104 126.914 370.272 127.138C370.45 127.362 370.688 127.544 370.986 127.684C371.285 127.824 371.654 127.894 372.092 127.894C372.746 127.894 373.226 127.745 373.534 127.446C373.852 127.138 374.01 126.779 374.01 126.368C374.01 126.032 373.912 125.757 373.716 125.542C373.53 125.318 373.268 125.131 372.932 124.982C372.606 124.823 372.228 124.683 371.798 124.562C371.425 124.45 371.056 124.333 370.692 124.212C370.338 124.081 370.016 123.923 369.726 123.736C369.437 123.54 369.208 123.293 369.04 122.994C368.872 122.686 368.788 122.303 368.788 121.846C368.788 121.277 368.924 120.787 369.194 120.376C369.465 119.965 369.843 119.653 370.328 119.438C370.823 119.214 371.392 119.102 372.036 119.102C372.578 119.102 373.063 119.181 373.492 119.34C373.922 119.489 374.281 119.709 374.57 119.998C374.869 120.278 375.088 120.619 375.228 121.02L373.954 121.482C373.898 121.277 373.782 121.085 373.604 120.908C373.427 120.721 373.203 120.572 372.932 120.46C372.662 120.348 372.358 120.292 372.022 120.292C371.677 120.283 371.364 120.339 371.084 120.46C370.814 120.572 370.594 120.735 370.426 120.95C370.268 121.165 370.188 121.421 370.188 121.72C370.188 122.047 370.282 122.303 370.468 122.49C370.655 122.677 370.902 122.831 371.21 122.952C371.528 123.073 371.873 123.19 372.246 123.302C372.638 123.423 373.021 123.554 373.394 123.694C373.768 123.834 374.104 124.011 374.402 124.226C374.71 124.441 374.958 124.711 375.144 125.038C375.331 125.355 375.424 125.757 375.424 126.242C375.424 126.765 375.303 127.241 375.06 127.67C374.818 128.099 374.449 128.445 373.954 128.706C373.469 128.967 372.858 129.098 372.12 129.098C371.514 129.098 370.968 129.005 370.482 128.818C369.997 128.631 369.596 128.375 369.278 128.048C368.97 127.712 368.765 127.325 368.662 126.886L369.936 126.41ZM381.362 129L381.25 127.978C381.035 128.333 380.755 128.608 380.41 128.804C380.074 128.991 379.635 129.084 379.094 129.084C378.59 129.084 378.161 129.005 377.806 128.846C377.451 128.678 377.176 128.449 376.98 128.16C376.793 127.861 376.7 127.516 376.7 127.124C376.7 126.536 376.919 126.051 377.358 125.668C377.797 125.276 378.431 125.033 379.262 124.94L381.25 124.716V124.17C381.25 123.871 381.129 123.619 380.886 123.414C380.643 123.199 380.293 123.092 379.836 123.092C379.407 123.092 379.043 123.195 378.744 123.4C378.445 123.596 378.245 123.89 378.142 124.282L376.966 123.862C377.143 123.246 377.489 122.765 378.002 122.42C378.525 122.075 379.155 121.902 379.892 121.902C380.769 121.902 381.437 122.121 381.894 122.56C382.351 122.999 382.58 123.577 382.58 124.296V129H381.362ZM381.25 125.794L379.332 126.032C378.921 126.088 378.613 126.205 378.408 126.382C378.203 126.55 378.1 126.774 378.1 127.054C378.1 127.315 378.198 127.535 378.394 127.712C378.599 127.88 378.884 127.964 379.248 127.964C379.696 127.964 380.069 127.88 380.368 127.712C380.667 127.544 380.886 127.311 381.026 127.012C381.175 126.704 381.25 126.349 381.25 125.948V125.794ZM385.231 122L387.247 127.586L389.277 122H390.677L387.947 129H386.519L383.803 122H385.231ZM392.218 122H393.548V129H392.218V122ZM392.89 120.768C392.638 120.768 392.428 120.684 392.26 120.516C392.092 120.348 392.008 120.143 392.008 119.9C392.008 119.648 392.092 119.438 392.26 119.27C392.428 119.093 392.638 119.004 392.89 119.004C393.133 119.004 393.338 119.093 393.506 119.27C393.683 119.438 393.772 119.648 393.772 119.9C393.772 120.143 393.683 120.348 393.506 120.516C393.338 120.684 393.133 120.768 392.89 120.768ZM395.754 122H396.958L397.042 122.812C397.266 122.523 397.551 122.299 397.896 122.14C398.241 121.981 398.624 121.902 399.044 121.902C399.585 121.902 400.052 122.019 400.444 122.252C400.845 122.476 401.153 122.812 401.368 123.26C401.592 123.708 401.704 124.268 401.704 124.94V129H400.388V125.108C400.388 124.455 400.248 123.96 399.968 123.624C399.697 123.279 399.301 123.106 398.778 123.106C398.237 123.106 397.817 123.283 397.518 123.638C397.219 123.983 397.07 124.497 397.07 125.178V129H395.754V122ZM408.852 122H410.056V127.852C410.056 128.673 409.86 129.378 409.468 129.966C409.076 130.554 408.511 131.007 407.774 131.324C407.046 131.641 406.164 131.8 405.128 131.8L404.918 130.638C406.168 130.61 407.116 130.358 407.76 129.882C408.404 129.415 408.726 128.739 408.726 127.852V127.782L408.88 127.796C408.656 128.151 408.334 128.459 407.914 128.72C407.503 128.972 406.99 129.098 406.374 129.098C405.748 129.098 405.193 128.949 404.708 128.65C404.232 128.351 403.858 127.931 403.588 127.39C403.326 126.849 403.196 126.219 403.196 125.5C403.196 124.781 403.326 124.151 403.588 123.61C403.858 123.069 404.232 122.649 404.708 122.35C405.193 122.051 405.748 121.902 406.374 121.902C406.756 121.902 407.097 121.953 407.396 122.056C407.704 122.159 407.97 122.299 408.194 122.476C408.418 122.644 408.604 122.835 408.754 123.05L408.852 122ZM404.61 125.5C404.61 126.219 404.796 126.797 405.17 127.236C405.552 127.675 406.061 127.894 406.696 127.894C407.069 127.894 407.41 127.801 407.718 127.614C408.026 127.418 408.268 127.143 408.446 126.788C408.632 126.424 408.726 125.995 408.726 125.5C408.726 124.996 408.632 124.567 408.446 124.212C408.268 123.857 408.021 123.587 407.704 123.4C407.396 123.204 407.06 123.106 406.696 123.106C406.061 123.106 405.552 123.325 405.17 123.764C404.796 124.203 404.61 124.781 404.61 125.5ZM412.835 126.788C412.9 127.068 413.012 127.287 413.171 127.446C413.33 127.605 413.516 127.721 413.731 127.796C413.955 127.861 414.188 127.894 414.431 127.894C414.851 127.894 415.178 127.81 415.411 127.642C415.644 127.474 415.761 127.264 415.761 127.012C415.761 126.797 415.686 126.629 415.537 126.508C415.397 126.377 415.206 126.275 414.963 126.2C414.73 126.125 414.478 126.055 414.207 125.99C413.964 125.925 413.698 125.85 413.409 125.766C413.129 125.682 412.863 125.57 412.611 125.43C412.368 125.281 412.168 125.094 412.009 124.87C411.85 124.637 411.771 124.343 411.771 123.988C411.771 123.568 411.883 123.204 412.107 122.896C412.34 122.579 412.658 122.336 413.059 122.168C413.47 121.991 413.932 121.902 414.445 121.902C415.042 121.902 415.565 122.033 416.013 122.294C416.47 122.546 416.802 122.929 417.007 123.442L415.817 123.834C415.752 123.657 415.644 123.512 415.495 123.4C415.346 123.288 415.173 123.213 414.977 123.176C414.79 123.129 414.604 123.106 414.417 123.106C414.062 123.106 413.768 123.176 413.535 123.316C413.302 123.456 413.185 123.661 413.185 123.932C413.185 124.081 413.222 124.207 413.297 124.31C413.372 124.403 413.474 124.483 413.605 124.548C413.745 124.604 413.908 124.655 414.095 124.702C414.282 124.749 414.482 124.8 414.697 124.856C414.977 124.94 415.262 125.033 415.551 125.136C415.84 125.229 416.106 125.351 416.349 125.5C416.592 125.649 416.788 125.845 416.937 126.088C417.086 126.331 417.166 126.629 417.175 126.984C417.175 127.395 417.058 127.759 416.825 128.076C416.601 128.393 416.279 128.645 415.859 128.832C415.448 129.009 414.958 129.098 414.389 129.098C413.698 129.098 413.11 128.944 412.625 128.636C412.14 128.328 411.813 127.852 411.645 127.208L412.835 126.788Z" fill="white"/>
<path d="M261.68 159.2V169H260.546L255.31 160.992V169H254.19V159.2H255.324L260.56 167.194V159.2H261.68ZM266.973 169.098C266.31 169.098 265.718 168.953 265.195 168.664C264.672 168.375 264.262 167.964 263.963 167.432C263.664 166.891 263.515 166.251 263.515 165.514C263.515 164.767 263.664 164.123 263.963 163.582C264.271 163.041 264.686 162.625 265.209 162.336C265.741 162.047 266.338 161.902 267.001 161.902C267.664 161.902 268.256 162.047 268.779 162.336C269.311 162.625 269.726 163.041 270.025 163.582C270.333 164.114 270.487 164.749 270.487 165.486C270.487 166.233 270.333 166.877 270.025 167.418C269.717 167.959 269.297 168.375 268.765 168.664C268.233 168.953 267.636 169.098 266.973 169.098ZM266.959 168.104C267.37 168.104 267.757 168.015 268.121 167.838C268.485 167.651 268.779 167.367 269.003 166.984C269.236 166.592 269.353 166.097 269.353 165.5C269.353 164.893 269.241 164.399 269.017 164.016C268.793 163.633 268.499 163.353 268.135 163.176C267.78 162.989 267.398 162.896 266.987 162.896C266.576 162.896 266.194 162.989 265.839 163.176C265.484 163.353 265.195 163.638 264.971 164.03C264.756 164.413 264.649 164.903 264.649 165.5C264.649 166.107 264.756 166.601 264.971 166.984C265.186 167.367 265.466 167.651 265.811 167.838C266.166 168.015 266.548 168.104 266.959 168.104ZM276.131 162H277.097L277.167 163.008C277.372 162.672 277.647 162.406 277.993 162.21C278.347 162.005 278.767 161.902 279.253 161.902C279.747 161.902 280.195 162.023 280.597 162.266C281.007 162.499 281.325 162.849 281.549 163.316C281.763 162.84 282.09 162.485 282.529 162.252C282.967 162.019 283.453 161.902 283.985 161.902C284.507 161.902 284.969 162.019 285.371 162.252C285.772 162.476 286.085 162.817 286.309 163.274C286.533 163.722 286.645 164.287 286.645 164.968V169H285.595V165.094C285.595 164.366 285.436 163.815 285.119 163.442C284.811 163.059 284.367 162.868 283.789 162.868C283.201 162.868 282.734 163.073 282.389 163.484C282.043 163.885 281.871 164.483 281.871 165.276V169H280.821V165.094C280.821 164.366 280.671 163.815 280.373 163.442C280.074 163.059 279.635 162.868 279.057 162.868C278.469 162.868 278.007 163.073 277.671 163.484C277.344 163.885 277.181 164.483 277.181 165.276V169H276.131V162ZM291.706 169.098C291.043 169.098 290.45 168.953 289.928 168.664C289.405 168.375 288.994 167.964 288.696 167.432C288.397 166.891 288.248 166.251 288.248 165.514C288.248 164.767 288.397 164.123 288.696 163.582C289.004 163.041 289.419 162.625 289.942 162.336C290.474 162.047 291.071 161.902 291.734 161.902C292.396 161.902 292.989 162.047 293.512 162.336C294.044 162.625 294.459 163.041 294.758 163.582C295.066 164.114 295.22 164.749 295.22 165.486C295.22 166.233 295.066 166.877 294.758 167.418C294.45 167.959 294.03 168.375 293.498 168.664C292.966 168.953 292.368 169.098 291.706 169.098ZM291.692 168.104C292.102 168.104 292.49 168.015 292.854 167.838C293.218 167.651 293.512 167.367 293.736 166.984C293.969 166.592 294.086 166.097 294.086 165.5C294.086 164.893 293.974 164.399 293.75 164.016C293.526 163.633 293.232 163.353 292.868 163.176C292.513 162.989 292.13 162.896 291.72 162.896C291.309 162.896 290.926 162.989 290.572 163.176C290.217 163.353 289.928 163.638 289.704 164.03C289.489 164.413 289.382 164.903 289.382 165.5C289.382 166.107 289.489 166.601 289.704 166.984C289.918 167.367 290.198 167.651 290.544 167.838C290.898 168.015 291.281 168.104 291.692 168.104ZM296.939 162H297.905L297.961 163.022C298.148 162.77 298.372 162.555 298.633 162.378C298.904 162.201 299.198 162.079 299.515 162.014C299.842 161.939 300.187 161.935 300.551 162V163.05C300.159 162.975 299.805 162.975 299.487 163.05C299.179 163.125 298.913 163.265 298.689 163.47C298.465 163.675 298.293 163.937 298.171 164.254C298.05 164.562 297.989 164.921 297.989 165.332V169H296.939V162ZM304.924 169.098C304.271 169.098 303.688 168.939 303.174 168.622C302.67 168.305 302.274 167.871 301.984 167.32C301.695 166.769 301.55 166.139 301.55 165.43C301.55 164.749 301.695 164.142 301.984 163.61C302.274 163.078 302.67 162.663 303.174 162.364C303.678 162.056 304.252 161.902 304.896 161.902C305.531 161.902 306.096 162.042 306.59 162.322C307.094 162.602 307.486 162.989 307.766 163.484C308.046 163.979 308.177 164.543 308.158 165.178C308.158 165.281 308.154 165.388 308.144 165.5C308.135 165.612 308.126 165.733 308.116 165.864H302.698C302.717 166.303 302.824 166.69 303.02 167.026C303.216 167.362 303.473 167.628 303.79 167.824C304.117 168.011 304.486 168.104 304.896 168.104C305.438 168.104 305.895 168.001 306.268 167.796C306.651 167.591 306.926 167.297 307.094 166.914L308.004 167.278C307.724 167.866 307.318 168.319 306.786 168.636C306.254 168.944 305.634 169.098 304.924 169.098ZM307.01 164.954C307.02 164.553 306.931 164.198 306.744 163.89C306.567 163.582 306.315 163.339 305.988 163.162C305.662 162.985 305.284 162.896 304.854 162.896C304.481 162.896 304.14 162.985 303.832 163.162C303.524 163.339 303.268 163.587 303.062 163.904C302.866 164.212 302.75 164.562 302.712 164.954H307.01ZM313.81 162H314.776L314.846 163.008C315.052 162.672 315.327 162.406 315.672 162.21C316.027 162.005 316.447 161.902 316.932 161.902C317.427 161.902 317.875 162.023 318.276 162.266C318.687 162.499 319.004 162.849 319.228 163.316C319.443 162.84 319.77 162.485 320.208 162.252C320.647 162.019 321.132 161.902 321.664 161.902C322.187 161.902 322.649 162.019 323.05 162.252C323.452 162.476 323.764 162.817 323.988 163.274C324.212 163.722 324.324 164.287 324.324 164.968V169H323.274V165.094C323.274 164.366 323.116 163.815 322.798 163.442C322.49 163.059 322.047 162.868 321.468 162.868C320.88 162.868 320.414 163.073 320.068 163.484C319.723 163.885 319.55 164.483 319.55 165.276V169H318.5V165.094C318.5 164.366 318.351 163.815 318.052 163.442C317.754 163.059 317.315 162.868 316.736 162.868C316.148 162.868 315.686 163.073 315.35 163.484C315.024 163.885 314.86 164.483 314.86 165.276V169H313.81V162ZM326.571 162H327.607V169H326.571V162ZM327.103 160.6C326.889 160.6 326.711 160.53 326.571 160.39C326.431 160.25 326.361 160.077 326.361 159.872C326.361 159.657 326.431 159.48 326.571 159.34C326.711 159.2 326.889 159.13 327.103 159.13C327.299 159.13 327.467 159.2 327.607 159.34C327.757 159.48 327.831 159.657 327.831 159.872C327.831 160.077 327.757 160.25 327.607 160.39C327.467 160.53 327.299 160.6 327.103 160.6ZM330.545 166.858C330.601 167.138 330.703 167.371 330.853 167.558C331.002 167.735 331.193 167.871 331.427 167.964C331.669 168.057 331.949 168.104 332.267 168.104C332.761 168.104 333.135 168.011 333.387 167.824C333.648 167.628 333.779 167.385 333.779 167.096C333.779 166.853 333.699 166.657 333.541 166.508C333.391 166.359 333.191 166.237 332.939 166.144C332.687 166.041 332.407 165.953 332.099 165.878C331.856 165.822 331.595 165.757 331.315 165.682C331.035 165.598 330.769 165.486 330.517 165.346C330.265 165.206 330.059 165.024 329.901 164.8C329.742 164.576 329.663 164.282 329.663 163.918C329.663 163.517 329.77 163.167 329.985 162.868C330.209 162.56 330.512 162.322 330.895 162.154C331.287 161.986 331.735 161.902 332.239 161.902C332.817 161.902 333.331 162.028 333.779 162.28C334.236 162.532 334.553 162.924 334.731 163.456L333.751 163.792C333.685 163.549 333.564 163.363 333.387 163.232C333.219 163.101 333.027 163.013 332.813 162.966C332.607 162.919 332.402 162.896 332.197 162.896C331.777 162.896 331.436 162.98 331.175 163.148C330.923 163.307 330.797 163.549 330.797 163.876C330.797 164.053 330.839 164.203 330.923 164.324C331.007 164.436 331.123 164.529 331.273 164.604C331.422 164.679 331.599 164.744 331.805 164.8C332.01 164.847 332.234 164.903 332.477 164.968C332.747 165.033 333.023 165.117 333.303 165.22C333.583 165.313 333.844 165.439 334.087 165.598C334.329 165.747 334.525 165.943 334.675 166.186C334.833 166.419 334.913 166.713 334.913 167.068C334.913 167.479 334.801 167.838 334.577 168.146C334.353 168.445 334.04 168.678 333.639 168.846C333.247 169.014 332.789 169.098 332.267 169.098C331.548 169.098 330.951 168.939 330.475 168.622C330.008 168.295 329.695 167.819 329.537 167.194L330.545 166.858ZM337.189 166.858C337.245 167.138 337.348 167.371 337.497 167.558C337.646 167.735 337.838 167.871 338.071 167.964C338.314 168.057 338.594 168.104 338.911 168.104C339.406 168.104 339.779 168.011 340.031 167.824C340.292 167.628 340.423 167.385 340.423 167.096C340.423 166.853 340.344 166.657 340.185 166.508C340.036 166.359 339.835 166.237 339.583 166.144C339.331 166.041 339.051 165.953 338.743 165.878C338.5 165.822 338.239 165.757 337.959 165.682C337.679 165.598 337.413 165.486 337.161 165.346C336.909 165.206 336.704 165.024 336.545 164.8C336.386 164.576 336.307 164.282 336.307 163.918C336.307 163.517 336.414 163.167 336.629 162.868C336.853 162.56 337.156 162.322 337.539 162.154C337.931 161.986 338.379 161.902 338.883 161.902C339.462 161.902 339.975 162.028 340.423 162.28C340.88 162.532 341.198 162.924 341.375 163.456L340.395 163.792C340.33 163.549 340.208 163.363 340.031 163.232C339.863 163.101 339.672 163.013 339.457 162.966C339.252 162.919 339.046 162.896 338.841 162.896C338.421 162.896 338.08 162.98 337.819 163.148C337.567 163.307 337.441 163.549 337.441 163.876C337.441 164.053 337.483 164.203 337.567 164.324C337.651 164.436 337.768 164.529 337.917 164.604C338.066 164.679 338.244 164.744 338.449 164.8C338.654 164.847 338.878 164.903 339.121 164.968C339.392 165.033 339.667 165.117 339.947 165.22C340.227 165.313 340.488 165.439 340.731 165.598C340.974 165.747 341.17 165.943 341.319 166.186C341.478 166.419 341.557 166.713 341.557 167.068C341.557 167.479 341.445 167.838 341.221 168.146C340.997 168.445 340.684 168.678 340.283 168.846C339.891 169.014 339.434 169.098 338.911 169.098C338.192 169.098 337.595 168.939 337.119 168.622C336.652 168.295 336.34 167.819 336.181 167.194L337.189 166.858ZM346.2 169.098C345.546 169.098 344.963 168.939 344.45 168.622C343.946 168.305 343.549 167.871 343.26 167.32C342.97 166.769 342.826 166.139 342.826 165.43C342.826 164.749 342.97 164.142 343.26 163.61C343.549 163.078 343.946 162.663 344.45 162.364C344.954 162.056 345.528 161.902 346.172 161.902C346.806 161.902 347.371 162.042 347.866 162.322C348.37 162.602 348.762 162.989 349.042 163.484C349.322 163.979 349.452 164.543 349.434 165.178C349.434 165.281 349.429 165.388 349.42 165.5C349.41 165.612 349.401 165.733 349.392 165.864H343.974C343.992 166.303 344.1 166.69 344.296 167.026C344.492 167.362 344.748 167.628 345.066 167.824C345.392 168.011 345.761 168.104 346.172 168.104C346.713 168.104 347.17 168.001 347.544 167.796C347.926 167.591 348.202 167.297 348.37 166.914L349.28 167.278C349 167.866 348.594 168.319 348.062 168.636C347.53 168.944 346.909 169.098 346.2 169.098ZM348.286 164.954C348.295 164.553 348.206 164.198 348.02 163.89C347.842 163.582 347.59 163.339 347.264 163.162C346.937 162.985 346.559 162.896 346.13 162.896C345.756 162.896 345.416 162.985 345.108 163.162C344.8 163.339 344.543 163.587 344.338 163.904C344.142 164.212 344.025 164.562 343.988 164.954H348.286ZM356.566 163.414L356.454 163.428V158.92H357.504V169H356.538L356.468 167.698C356.253 168.09 355.931 168.421 355.502 168.692C355.082 168.963 354.559 169.098 353.934 169.098C353.29 169.098 352.725 168.953 352.24 168.664C351.764 168.365 351.391 167.945 351.12 167.404C350.859 166.863 350.728 166.228 350.728 165.5C350.728 164.772 350.859 164.142 351.12 163.61C351.391 163.069 351.764 162.649 352.24 162.35C352.725 162.051 353.29 161.902 353.934 161.902C354.597 161.902 355.147 162.047 355.586 162.336C356.025 162.625 356.351 162.985 356.566 163.414ZM351.862 165.5C351.862 166.303 352.067 166.942 352.478 167.418C352.889 167.885 353.449 168.118 354.158 168.118C354.597 168.118 354.989 168.015 355.334 167.81C355.679 167.605 355.95 167.306 356.146 166.914C356.351 166.522 356.454 166.051 356.454 165.5C356.454 164.949 356.351 164.483 356.146 164.1C355.95 163.708 355.679 163.409 355.334 163.204C354.989 162.989 354.597 162.882 354.158 162.882C353.458 162.882 352.898 163.12 352.478 163.596C352.067 164.063 351.862 164.697 351.862 165.5ZM366.6 169.098C365.937 169.098 365.345 168.953 364.822 168.664C364.299 168.375 363.889 167.964 363.59 167.432C363.291 166.891 363.142 166.251 363.142 165.514C363.142 164.767 363.291 164.123 363.59 163.582C363.898 163.041 364.313 162.625 364.836 162.336C365.368 162.047 365.965 161.902 366.628 161.902C367.291 161.902 367.883 162.047 368.406 162.336C368.938 162.625 369.353 163.041 369.652 163.582C369.96 164.114 370.114 164.749 370.114 165.486C370.114 166.233 369.96 166.877 369.652 167.418C369.344 167.959 368.924 168.375 368.392 168.664C367.86 168.953 367.263 169.098 366.6 169.098ZM366.586 168.104C366.997 168.104 367.384 168.015 367.748 167.838C368.112 167.651 368.406 167.367 368.63 166.984C368.863 166.592 368.98 166.097 368.98 165.5C368.98 164.893 368.868 164.399 368.644 164.016C368.42 163.633 368.126 163.353 367.762 163.176C367.407 162.989 367.025 162.896 366.614 162.896C366.203 162.896 365.821 162.989 365.466 163.176C365.111 163.353 364.822 163.638 364.598 164.03C364.383 164.413 364.276 164.903 364.276 165.5C364.276 166.107 364.383 166.601 364.598 166.984C364.813 167.367 365.093 167.651 365.438 167.838C365.793 168.015 366.175 168.104 366.586 168.104ZM372.772 167.586L372.884 167.572V171.8H371.834V162H372.8L372.87 163.302C373.085 162.91 373.402 162.579 373.822 162.308C374.242 162.037 374.769 161.902 375.404 161.902C376.011 161.902 376.557 162.051 377.042 162.35C377.527 162.639 377.91 163.055 378.19 163.596C378.47 164.128 378.61 164.763 378.61 165.5C378.61 166.228 378.475 166.863 378.204 167.404C377.943 167.936 377.569 168.351 377.084 168.65C376.608 168.949 376.048 169.098 375.404 169.098C374.732 169.098 374.177 168.953 373.738 168.664C373.299 168.375 372.977 168.015 372.772 167.586ZM377.476 165.5C377.476 164.697 377.266 164.063 376.846 163.596C376.435 163.12 375.88 162.882 375.18 162.882C374.741 162.882 374.345 162.985 373.99 163.19C373.645 163.395 373.374 163.694 373.178 164.086C372.982 164.478 372.884 164.949 372.884 165.5C372.884 166.041 372.982 166.508 373.178 166.9C373.374 167.292 373.645 167.595 373.99 167.81C374.345 168.015 374.741 168.118 375.18 168.118C375.88 168.118 376.435 167.885 376.846 167.418C377.266 166.942 377.476 166.303 377.476 165.5ZM381.262 167.586L381.374 167.572V171.8H380.324V162H381.29L381.36 163.302C381.575 162.91 381.892 162.579 382.312 162.308C382.732 162.037 383.259 161.902 383.894 161.902C384.501 161.902 385.047 162.051 385.532 162.35C386.017 162.639 386.4 163.055 386.68 163.596C386.96 164.128 387.1 164.763 387.1 165.5C387.1 166.228 386.965 166.863 386.694 167.404C386.433 167.936 386.059 168.351 385.574 168.65C385.098 168.949 384.538 169.098 383.894 169.098C383.222 169.098 382.667 168.953 382.228 168.664C381.789 168.375 381.467 168.015 381.262 167.586ZM385.966 165.5C385.966 164.697 385.756 164.063 385.336 163.596C384.925 163.12 384.37 162.882 383.67 162.882C383.231 162.882 382.835 162.985 382.48 163.19C382.135 163.395 381.864 163.694 381.668 164.086C381.472 164.478 381.374 164.949 381.374 165.5C381.374 166.041 381.472 166.508 381.668 166.9C381.864 167.292 382.135 167.595 382.48 167.81C382.835 168.015 383.231 168.118 383.67 168.118C384.37 168.118 384.925 167.885 385.336 167.418C385.756 166.942 385.966 166.303 385.966 165.5ZM391.838 169.098C391.176 169.098 390.583 168.953 390.06 168.664C389.538 168.375 389.127 167.964 388.828 167.432C388.53 166.891 388.38 166.251 388.38 165.514C388.38 164.767 388.53 164.123 388.828 163.582C389.136 163.041 389.552 162.625 390.074 162.336C390.606 162.047 391.204 161.902 391.866 161.902C392.529 161.902 393.122 162.047 393.644 162.336C394.176 162.625 394.592 163.041 394.89 163.582C395.198 164.114 395.352 164.749 395.352 165.486C395.352 166.233 395.198 166.877 394.89 167.418C394.582 167.959 394.162 168.375 393.63 168.664C393.098 168.953 392.501 169.098 391.838 169.098ZM391.824 168.104C392.235 168.104 392.622 168.015 392.986 167.838C393.35 167.651 393.644 167.367 393.868 166.984C394.102 166.592 394.218 166.097 394.218 165.5C394.218 164.893 394.106 164.399 393.882 164.016C393.658 163.633 393.364 163.353 393 163.176C392.646 162.989 392.263 162.896 391.852 162.896C391.442 162.896 391.059 162.989 390.704 163.176C390.35 163.353 390.06 163.638 389.836 164.03C389.622 164.413 389.514 164.903 389.514 165.5C389.514 166.107 389.622 166.601 389.836 166.984C390.051 167.367 390.331 167.651 390.676 167.838C391.031 168.015 391.414 168.104 391.824 168.104ZM397.072 162H398.038L398.094 163.022C398.281 162.77 398.505 162.555 398.766 162.378C399.037 162.201 399.331 162.079 399.648 162.014C399.975 161.939 400.32 161.935 400.684 162V163.05C400.292 162.975 399.937 162.975 399.62 163.05C399.312 163.125 399.046 163.265 398.822 163.47C398.598 163.675 398.425 163.937 398.304 164.254C398.183 164.562 398.122 164.921 398.122 165.332V169H397.072V162ZM402.565 162V160.04H403.615V162H405.477V162.98H403.615V166.746C403.615 167.175 403.704 167.488 403.881 167.684C404.068 167.88 404.301 167.997 404.581 168.034C404.87 168.071 405.169 168.071 405.477 168.034V168.944C405.113 169.028 404.754 169.051 404.399 169.014C404.054 168.977 403.741 168.874 403.461 168.706C403.19 168.529 402.971 168.281 402.803 167.964C402.644 167.647 402.565 167.241 402.565 166.746V162.98H401.515V162H402.565ZM412.765 169H411.813L411.743 167.992C411.528 168.347 411.239 168.622 410.875 168.818C410.511 169.005 410.086 169.098 409.601 169.098C409.06 169.098 408.588 168.986 408.187 168.762C407.786 168.538 407.473 168.202 407.249 167.754C407.034 167.306 406.927 166.741 406.927 166.06V162H407.963V165.948C407.963 166.667 408.117 167.213 408.425 167.586C408.742 167.95 409.195 168.132 409.783 168.132C410.38 168.132 410.852 167.941 411.197 167.558C411.552 167.166 411.729 166.578 411.729 165.794V162H412.765V169ZM414.9 162H415.866L415.922 162.994C416.146 162.649 416.44 162.383 416.804 162.196C417.168 162 417.593 161.902 418.078 161.902C418.61 161.902 419.077 162.019 419.478 162.252C419.88 162.476 420.192 162.817 420.416 163.274C420.64 163.722 420.752 164.287 420.752 164.968V169H419.702V165.094C419.702 164.366 419.544 163.815 419.226 163.442C418.918 163.059 418.47 162.868 417.882 162.868C417.276 162.868 416.8 163.069 416.454 163.47C416.118 163.871 415.95 164.464 415.95 165.248V169H414.9V162ZM422.999 162H424.035V169H422.999V162ZM423.531 160.6C423.316 160.6 423.139 160.53 422.999 160.39C422.859 160.25 422.789 160.077 422.789 159.872C422.789 159.657 422.859 159.48 422.999 159.34C423.139 159.2 423.316 159.13 423.531 159.13C423.727 159.13 423.895 159.2 424.035 159.34C424.184 159.48 424.259 159.657 424.259 159.872C424.259 160.077 424.184 160.25 424.035 160.39C423.895 160.53 423.727 160.6 423.531 160.6ZM426.846 162V160.04H427.896V162H429.758V162.98H427.896V166.746C427.896 167.175 427.985 167.488 428.162 167.684C428.349 167.88 428.582 167.997 428.862 168.034C429.152 168.071 429.45 168.071 429.758 168.034V168.944C429.394 169.028 429.035 169.051 428.68 169.014C428.335 168.977 428.022 168.874 427.742 168.706C427.472 168.529 427.252 168.281 427.084 167.964C426.926 167.647 426.846 167.241 426.846 166.746V162.98H425.796V162H426.846ZM431.53 162H432.566V169H431.53V162ZM432.062 160.6C431.848 160.6 431.67 160.53 431.53 160.39C431.39 160.25 431.32 160.077 431.32 159.872C431.32 159.657 431.39 159.48 431.53 159.34C431.67 159.2 431.848 159.13 432.062 159.13C432.258 159.13 432.426 159.2 432.566 159.34C432.716 159.48 432.79 159.657 432.79 159.872C432.79 160.077 432.716 160.25 432.566 160.39C432.426 160.53 432.258 160.6 432.062 160.6ZM437.87 169.098C437.216 169.098 436.633 168.939 436.12 168.622C435.616 168.305 435.219 167.871 434.93 167.32C434.64 166.769 434.496 166.139 434.496 165.43C434.496 164.749 434.64 164.142 434.93 163.61C435.219 163.078 435.616 162.663 436.12 162.364C436.624 162.056 437.198 161.902 437.842 161.902C438.476 161.902 439.041 162.042 439.536 162.322C440.04 162.602 440.432 162.989 440.712 163.484C440.992 163.979 441.122 164.543 441.104 165.178C441.104 165.281 441.099 165.388 441.09 165.5C441.08 165.612 441.071 165.733 441.062 165.864H435.644C435.662 166.303 435.77 166.69 435.966 167.026C436.162 167.362 436.418 167.628 436.736 167.824C437.062 168.011 437.431 168.104 437.842 168.104C438.383 168.104 438.84 168.001 439.214 167.796C439.596 167.591 439.872 167.297 440.04 166.914L440.95 167.278C440.67 167.866 440.264 168.319 439.732 168.636C439.2 168.944 438.579 169.098 437.87 169.098ZM439.956 164.954C439.965 164.553 439.876 164.198 439.69 163.89C439.512 163.582 439.26 163.339 438.934 163.162C438.607 162.985 438.229 162.896 437.8 162.896C437.426 162.896 437.086 162.985 436.778 163.162C436.47 163.339 436.213 163.587 436.008 163.904C435.812 164.212 435.695 164.562 435.658 164.954H439.956ZM443.406 166.858C443.462 167.138 443.565 167.371 443.714 167.558C443.863 167.735 444.055 167.871 444.288 167.964C444.531 168.057 444.811 168.104 445.128 168.104C445.623 168.104 445.996 168.011 446.248 167.824C446.509 167.628 446.64 167.385 446.64 167.096C446.64 166.853 446.561 166.657 446.402 166.508C446.253 166.359 446.052 166.237 445.8 166.144C445.548 166.041 445.268 165.953 444.96 165.878C444.717 165.822 444.456 165.757 444.176 165.682C443.896 165.598 443.63 165.486 443.378 165.346C443.126 165.206 442.921 165.024 442.762 164.8C442.603 164.576 442.524 164.282 442.524 163.918C442.524 163.517 442.631 163.167 442.846 162.868C443.07 162.56 443.373 162.322 443.756 162.154C444.148 161.986 444.596 161.902 445.1 161.902C445.679 161.902 446.192 162.028 446.64 162.28C447.097 162.532 447.415 162.924 447.592 163.456L446.612 163.792C446.547 163.549 446.425 163.363 446.248 163.232C446.08 163.101 445.889 163.013 445.674 162.966C445.469 162.919 445.263 162.896 445.058 162.896C444.638 162.896 444.297 162.98 444.036 163.148C443.784 163.307 443.658 163.549 443.658 163.876C443.658 164.053 443.7 164.203 443.784 164.324C443.868 164.436 443.985 164.529 444.134 164.604C444.283 164.679 444.461 164.744 444.666 164.8C444.871 164.847 445.095 164.903 445.338 164.968C445.609 165.033 445.884 165.117 446.164 165.22C446.444 165.313 446.705 165.439 446.948 165.598C447.191 165.747 447.387 165.943 447.536 166.186C447.695 166.419 447.774 166.713 447.774 167.068C447.774 167.479 447.662 167.838 447.438 168.146C447.214 168.445 446.901 168.678 446.5 168.846C446.108 169.014 445.651 169.098 445.128 169.098C444.409 169.098 443.812 168.939 443.336 168.622C442.869 168.295 442.557 167.819 442.398 167.194L443.406 166.858ZM450.05 169.07C449.836 169.07 449.654 168.995 449.504 168.846C449.364 168.697 449.294 168.515 449.294 168.3C449.294 168.085 449.364 167.903 449.504 167.754C449.654 167.605 449.836 167.53 450.05 167.53C450.256 167.53 450.433 167.605 450.582 167.754C450.732 167.903 450.806 168.085 450.806 168.3C450.806 168.515 450.732 168.697 450.582 168.846C450.433 168.995 450.256 169.07 450.05 169.07Z" fill="#4B5563"/>
</g>
<g filter="url(#filter7_dd_5522_75718)">
<g filter="url(#filter8_dd_5522_75718)">
<path d="M407.227 136.912C407.196 136.483 407.285 136.055 407.484 135.674C407.683 135.294 407.984 134.976 408.353 134.757C408.723 134.538 409.146 134.426 409.575 134.433C410.005 134.441 410.423 134.568 410.785 134.8L430.23 147.314C432.098 148.515 431.36 151.406 429.146 151.565L420.042 152.222C419.689 152.247 419.346 152.353 419.04 152.532C418.734 152.711 418.473 152.958 418.278 153.253L413.125 161.079C411.911 162.924 409.047 162.177 408.888 159.972L407.227 136.912Z" fill="#27272A"/>
<path d="M407.227 136.912C407.196 136.483 407.285 136.055 407.484 135.674C407.683 135.294 407.984 134.976 408.353 134.757C408.723 134.538 409.146 134.426 409.575 134.433C410.005 134.441 410.423 134.568 410.785 134.8L430.23 147.314C432.098 148.515 431.36 151.406 429.146 151.565L420.042 152.222C419.689 152.247 419.346 152.353 419.04 152.532C418.734 152.711 418.473 152.958 418.278 153.253L413.125 161.079C411.911 162.924 409.047 162.177 408.888 159.972L407.227 136.912Z" stroke="#FAFAFA"/>
</g>
</g>
<rect x="0.5" width="704" height="290" fill="url(#paint6_linear_5522_75718)"/>
</g>
<defs>
<filter id="filter0_dd_5522_75718" x="203.5" y="209" width="299" height="80" filterUnits="userSpaceOnUse" color-interpolation-filters="sRGB">
<feFlood flood-opacity="0" result="BackgroundImageFix"/>
<feColorMatrix in="SourceAlpha" type="matrix" values="0 0 0 0 0 0 0 0 0 0 0 0 0 0 0 0 0 0 127 0" result="hardAlpha"/>
<feMorphology radius="4" operator="erode" in="SourceAlpha" result="effect1_dropShadow_5522_75718"/>
<feOffset dy="18"/>
<feGaussianBlur stdDeviation="8"/>
<feComposite in2="hardAlpha" operator="out"/>
<feColorMatrix type="matrix" values="0 0 0 0 0.0588235 0 0 0 0 0.141176 0 0 0 0 0.0666667 0 0 0 0.01 0"/>
<feBlend mode="normal" in2="BackgroundImageFix" result="effect1_dropShadow_5522_75718"/>
<feColorMatrix in="SourceAlpha" type="matrix" values="0 0 0 0 0 0 0 0 0 0 0 0 0 0 0 0 0 0 127 0" result="hardAlpha"/>
<feMorphology radius="4" operator="erode" in="SourceAlpha" result="effect2_dropShadow_5522_75718"/>
<feOffset dy="15"/>
<feGaussianBlur stdDeviation="10"/>
<feComposite in2="hardAlpha" operator="out"/>
<feColorMatrix type="matrix" values="0 0 0 0 0.0627451 0 0 0 0 0.0588235 0 0 0 0 0.141176 0 0 0 0.02 0"/>
<feBlend mode="normal" in2="effect1_dropShadow_5522_75718" result="effect2_dropShadow_5522_75718"/>
<feBlend mode="normal" in="SourceGraphic" in2="effect2_dropShadow_5522_75718" result="shape"/>
</filter>
<filter id="filter1_dd_5522_75718" x="217.5" y="19" width="272" height="80" filterUnits="userSpaceOnUse" color-interpolation-filters="sRGB">
<feFlood flood-opacity="0" result="BackgroundImageFix"/>
<feColorMatrix in="SourceAlpha" type="matrix" values="0 0 0 0 0 0 0 0 0 0 0 0 0 0 0 0 0 0 127 0" result="hardAlpha"/>
<feMorphology radius="4" operator="erode" in="SourceAlpha" result="effect1_dropShadow_5522_75718"/>
<feOffset dy="18"/>
<feGaussianBlur stdDeviation="8"/>
<feComposite in2="hardAlpha" operator="out"/>
<feColorMatrix type="matrix" values="0 0 0 0 0.0588235 0 0 0 0 0.141176 0 0 0 0 0.0666667 0 0 0 0.01 0"/>
<feBlend mode="normal" in2="BackgroundImageFix" result="effect1_dropShadow_5522_75718"/>
<feColorMatrix in="SourceAlpha" type="matrix" values="0 0 0 0 0 0 0 0 0 0 0 0 0 0 0 0 0 0 127 0" result="hardAlpha"/>
<feMorphology radius="4" operator="erode" in="SourceAlpha" result="effect2_dropShadow_5522_75718"/>
<feOffset dy="15"/>
<feGaussianBlur stdDeviation="10"/>
<feComposite in2="hardAlpha" operator="out"/>
<feColorMatrix type="matrix" values="0 0 0 0 0.0627451 0 0 0 0 0.0588235 0 0 0 0 0.141176 0 0 0 0.02 0"/>
<feBlend mode="normal" in2="effect1_dropShadow_5522_75718" result="effect2_dropShadow_5522_75718"/>
<feBlend mode="normal" in="SourceGraphic" in2="effect2_dropShadow_5522_75718" result="shape"/>
</filter>
<filter id="filter2_dd_5522_75718" x="439" y="-4" width="72.9883" height="72.9902" filterUnits="userSpaceOnUse" color-interpolation-filters="sRGB">
<feFlood flood-opacity="0" result="BackgroundImageFix"/>
<feColorMatrix in="SourceAlpha" type="matrix" values="0 0 0 0 0 0 0 0 0 0 0 0 0 0 0 0 0 0 127 0" result="hardAlpha"/>
<feMorphology radius="2" operator="erode" in="SourceAlpha" result="effect1_dropShadow_5522_75718"/>
<feOffset dy="4"/>
<feGaussianBlur stdDeviation="3"/>
<feComposite in2="hardAlpha" operator="out"/>
<feColorMatrix type="matrix" values="0 0 0 0 0.0627451 0 0 0 0 0.0588235 0 0 0 0 0.141176 0 0 0 0.03 0"/>
<feBlend mode="normal" in2="BackgroundImageFix" result="effect1_dropShadow_5522_75718"/>
<feColorMatrix in="SourceAlpha" type="matrix" values="0 0 0 0 0 0 0 0 0 0 0 0 0 0 0 0 0 0 127 0" result="hardAlpha"/>
<feMorphology radius="4" operator="erode" in="SourceAlpha" result="effect2_dropShadow_5522_75718"/>
<feOffset dy="12"/>
<feGaussianBlur stdDeviation="8"/>
<feComposite in2="hardAlpha" operator="out"/>
<feColorMatrix type="matrix" values="0 0 0 0 0.0627451 0 0 0 0 0.0588235 0 0 0 0 0.141176 0 0 0 0.08 0"/>
<feBlend mode="normal" in2="effect1_dropShadow_5522_75718" result="effect2_dropShadow_5522_75718"/>
<feBlend mode="normal" in="SourceGraphic" in2="effect2_dropShadow_5522_75718" result="shape"/>
</filter>
<filter id="filter3_dd_5522_75718" x="194" y="234" width="63.1914" height="63.1914" filterUnits="userSpaceOnUse" color-interpolation-filters="sRGB">
<feFlood flood-opacity="0" result="BackgroundImageFix"/>
<feColorMatrix in="SourceAlpha" type="matrix" values="0 0 0 0 0 0 0 0 0 0 0 0 0 0 0 0 0 0 127 0" result="hardAlpha"/>
<feMorphology radius="2" operator="erode" in="SourceAlpha" result="effect1_dropShadow_5522_75718"/>
<feOffset dy="4"/>
<feGaussianBlur stdDeviation="3"/>
<feComposite in2="hardAlpha" operator="out"/>
<feColorMatrix type="matrix" values="0 0 0 0 0.0627451 0 0 0 0 0.0588235 0 0 0 0 0.141176 0 0 0 0.03 0"/>
<feBlend mode="normal" in2="BackgroundImageFix" result="effect1_dropShadow_5522_75718"/>
<feColorMatrix in="SourceAlpha" type="matrix" values="0 0 0 0 0 0 0 0 0 0 0 0 0 0 0 0 0 0 127 0" result="hardAlpha"/>
<feMorphology radius="4" operator="erode" in="SourceAlpha" result="effect2_dropShadow_5522_75718"/>
<feOffset dy="12"/>
<feGaussianBlur stdDeviation="8"/>
<feComposite in2="hardAlpha" operator="out"/>
<feColorMatrix type="matrix" values="0 0 0 0 0.0627451 0 0 0 0 0.0588235 0 0 0 0 0.141176 0 0 0 0.08 0"/>
<feBlend mode="normal" in2="effect1_dropShadow_5522_75718" result="effect2_dropShadow_5522_75718"/>
<feBlend mode="normal" in="SourceGraphic" in2="effect2_dropShadow_5522_75718" result="shape"/>
</filter>
<filter id="filter4_f_5522_75718" x="259.129" y="34.6406" width="647.668" height="621.398" filterUnits="userSpaceOnUse" color-interpolation-filters="sRGB">
<feFlood flood-opacity="0" result="BackgroundImageFix"/>
<feBlend mode="normal" in="SourceGraphic" in2="BackgroundImageFix" result="shape"/>
<feGaussianBlur stdDeviation="100" result="effect1_foregroundBlur_5522_75718"/>
</filter>
<filter id="filter5_f_5522_75718" x="-303.867" y="-74.1367" width="542.805" height="542.166" filterUnits="userSpaceOnUse" color-interpolation-filters="sRGB">
<feFlood flood-opacity="0" result="BackgroundImageFix"/>
<feBlend mode="normal" in="SourceGraphic" in2="BackgroundImageFix" result="shape"/>
<feGaussianBlur stdDeviation="85" result="effect1_foregroundBlur_5522_75718"/>
</filter>
<filter id="filter6_dd_5522_75718" x="124.5" y="66" width="456" height="166" filterUnits="userSpaceOnUse" color-interpolation-filters="sRGB">
<feFlood flood-opacity="0" result="BackgroundImageFix"/>
<feColorMatrix in="SourceAlpha" type="matrix" values="0 0 0 0 0 0 0 0 0 0 0 0 0 0 0 0 0 0 127 0" result="hardAlpha"/>
<feMorphology radius="4" operator="erode" in="SourceAlpha" result="effect1_dropShadow_5522_75718"/>
<feOffset dy="4"/>
<feGaussianBlur stdDeviation="8"/>
<feComposite in2="hardAlpha" operator="out"/>
<feColorMatrix type="matrix" values="0 0 0 0 0.0588235 0 0 0 0 0.141176 0 0 0 0 0.0666667 0 0 0 0.02 0"/>
<feBlend mode="normal" in2="BackgroundImageFix" result="effect1_dropShadow_5522_75718"/>
<feColorMatrix in="SourceAlpha" type="matrix" values="0 0 0 0 0 0 0 0 0 0 0 0 0 0 0 0 0 0 127 0" result="hardAlpha"/>
<feMorphology radius="4" operator="erode" in="SourceAlpha" result="effect2_dropShadow_5522_75718"/>
<feOffset dy="10"/>
<feGaussianBlur stdDeviation="16"/>
<feComposite in2="hardAlpha" operator="out"/>
<feColorMatrix type="matrix" values="0 0 0 0 0.0627451 0 0 0 0 0.0588235 0 0 0 0 0.141176 0 0 0 0.05 0"/>
<feBlend mode="normal" in2="effect1_dropShadow_5522_75718" result="effect2_dropShadow_5522_75718"/>
<feBlend mode="normal" in="SourceGraphic" in2="effect2_dropShadow_5522_75718" result="shape"/>
</filter>
<filter id="filter7_dd_5522_75718" x="391.5" y="126" width="51.5664" height="51.5664" filterUnits="userSpaceOnUse" color-interpolation-filters="sRGB">
<feFlood flood-opacity="0" result="BackgroundImageFix"/>
<feColorMatrix in="SourceAlpha" type="matrix" values="0 0 0 0 0 0 0 0 0 0 0 0 0 0 0 0 0 0 127 0" result="hardAlpha"/>
<feMorphology radius="2" operator="erode" in="SourceAlpha" result="effect1_dropShadow_5522_75718"/>
<feOffset dy="2"/>
<feGaussianBlur stdDeviation="2"/>
<feComposite in2="hardAlpha" operator="out"/>
<feColorMatrix type="matrix" values="0 0 0 0 0.0627451 0 0 0 0 0.0588235 0 0 0 0 0.141176 0 0 0 0.06 0"/>
<feBlend mode="normal" in2="BackgroundImageFix" result="effect1_dropShadow_5522_75718"/>
<feColorMatrix in="SourceAlpha" type="matrix" values="0 0 0 0 0 0 0 0 0 0 0 0 0 0 0 0 0 0 127 0" result="hardAlpha"/>
<feMorphology radius="2" operator="erode" in="SourceAlpha" result="effect2_dropShadow_5522_75718"/>
<feOffset dy="4"/>
<feGaussianBlur stdDeviation="4"/>
<feComposite in2="hardAlpha" operator="out"/>
<feColorMatrix type="matrix" values="0 0 0 0 0.0627451 0 0 0 0 0.0588235 0 0 0 0 0.141176 0 0 0 0.1 0"/>
<feBlend mode="normal" in2="effect1_dropShadow_5522_75718" result="effect2_dropShadow_5522_75718"/>
<feBlend mode="normal" in="SourceGraphic" in2="effect2_dropShadow_5522_75718" result="shape"/>
</filter>
<filter id="filter8_dd_5522_75718" x="378.723" y="115.934" width="81.0703" height="84.6895" filterUnits="userSpaceOnUse" color-interpolation-filters="sRGB">
<feFlood flood-opacity="0" result="BackgroundImageFix"/>
<feColorMatrix in="SourceAlpha" type="matrix" values="0 0 0 0 0 0 0 0 0 0 0 0 0 0 0 0 0 0 127 0" result="hardAlpha"/>
<feMorphology radius="4" operator="erode" in="SourceAlpha" result="effect1_dropShadow_5522_75718"/>
<feOffset dy="4"/>
<feGaussianBlur stdDeviation="8"/>
<feComposite in2="hardAlpha" operator="out"/>
<feColorMatrix type="matrix" values="0 0 0 0 0.0588235 0 0 0 0 0.141176 0 0 0 0 0.0666667 0 0 0 0.02 0"/>
<feBlend mode="normal" in2="BackgroundImageFix" result="effect1_dropShadow_5522_75718"/>
<feColorMatrix in="SourceAlpha" type="matrix" values="0 0 0 0 0 0 0 0 0 0 0 0 0 0 0 0 0 0 127 0" result="hardAlpha"/>
<feMorphology radius="4" operator="erode" in="SourceAlpha" result="effect2_dropShadow_5522_75718"/>
<feOffset dy="10"/>
<feGaussianBlur stdDeviation="16"/>
<feComposite in2="hardAlpha" operator="out"/>
<feColorMatrix type="matrix" values="0 0 0 0 0.0627451 0 0 0 0 0.0588235 0 0 0 0 0.141176 0 0 0 0.05 0"/>
<feBlend mode="normal" in2="effect1_dropShadow_5522_75718" result="effect2_dropShadow_5522_75718"/>
<feBlend mode="normal" in="SourceGraphic" in2="effect2_dropShadow_5522_75718" result="shape"/>
</filter>
<linearGradient id="paint0_linear_5522_75718" x1="473.193" y1="83" x2="355.5" y2="83" gradientUnits="userSpaceOnUse">
<stop stop-color="#FAFAFA"/>
<stop offset="0.534678" stop-color="#266AE9"/>
<stop offset="1" stop-color="#FAFAFA"/>
</linearGradient>
<linearGradient id="paint1_linear_5522_75718" x1="532.5" y1="276.693" x2="532.5" y2="159" gradientUnits="userSpaceOnUse">
<stop stop-color="#FAFAFA"/>
<stop offset="0.534678" stop-color="#266AE9"/>
<stop offset="1" stop-color="#FAFAFA"/>
</linearGradient>
<linearGradient id="paint2_linear_5522_75718" x1="332.5" y1="315.693" x2="332.5" y2="198" gradientUnits="userSpaceOnUse">
<stop stop-color="#FAFAFA"/>
<stop offset="0.534678" stop-color="#266AE9"/>
<stop offset="1" stop-color="#FAFAFA"/>
</linearGradient>
<linearGradient id="paint3_linear_5522_75718" x1="204.454" y1="150" x2="98.5" y2="150" gradientUnits="userSpaceOnUse">
<stop stop-color="#FAFAFA"/>
<stop offset="0.534678" stop-color="#266AE9"/>
<stop offset="1" stop-color="#FAFAFA"/>
</linearGradient>
<linearGradient id="paint4_linear_5522_75718" x1="350.979" y1="479.172" x2="291.566" y2="354.352" gradientUnits="userSpaceOnUse">
<stop stop-color="#5C85D5"/>
<stop offset="1" stop-color="#C3A7F3"/>
</linearGradient>
<linearGradient id="paint5_linear_5522_75718" x1="160.448" y1="53.0182" x2="219.65" y2="150.007" gradientUnits="userSpaceOnUse">
<stop stop-color="#5C85D5"/>
<stop offset="1" stop-color="#C3A7F3"/>
</linearGradient>
<linearGradient id="paint6_linear_5522_75718" x1="352.5" y1="6.18902" x2="352.5" y2="300.573" gradientUnits="userSpaceOnUse">
<stop stop-color="#FAFAFA"/>
<stop offset="0.197621" stop-color="#FAFAFA" stop-opacity="0"/>
<stop offset="0.644231" stop-color="#FAFAFA" stop-opacity="0"/>
<stop offset="0.867519" stop-color="#FAFAFA"/>
</linearGradient>
<clipPath id="clip0_5522_75718">
<rect width="704" height="290" fill="white" transform="translate(0.5)"/>
</clipPath>
<clipPath id="clip1_5522_75718">
<rect width="24" height="24" fill="white" transform="translate(467.008 5.79883) rotate(15)"/>
</clipPath>
<clipPath id="clip2_5522_75718">
<rect width="18" height="18" fill="white" transform="translate(214.574 247.23) rotate(-15)"/>
</clipPath>
</defs>
</svg>
