<svg width="701" height="276" viewBox="0 0 701 276" fill="none" xmlns="http://www.w3.org/2000/svg">
<mask id="mask0_5006_10164" style="mask-type:luminance" maskUnits="userSpaceOnUse" x="0" y="0" width="701" height="276">
<path d="M691 0H10C4.47715 0 0 4.47715 0 10V266C0 271.523 4.47715 276 10 276H691C696.523 276 701 271.523 701 266V10C701 4.47715 696.523 0 691 0Z" fill="white"/>
</mask>
<g mask="url(#mask0_5006_10164)">
<path d="M691 0H10C4.47715 0 0 4.47715 0 10V266C0 271.523 4.47715 276 10 276H691C696.523 276 701 271.523 701 266V10C701 4.47715 696.523 0 691 0Z" fill="white"/>
<path d="M56 -65V252" stroke="#F9FAFB"/>
<path d="M168.75 -65V252" stroke="#F9FAFB"/>
<path d="M281.5 -65V252" stroke="#F9FAFB"/>
<path d="M394.25 -65V252" stroke="#F9FAFB"/>
<path d="M507 -65V252" stroke="#F9FAFB"/>
<path d="M17.2402 71.5V70.71H18.8902V65.24H19.3602L17.3902 66.46V65.55L19.1502 64.45H19.8202V70.71H21.3702V71.5H17.2402ZM23.0563 71.5L26.5263 64.87V65.25H22.6263V64.45H27.3763V65.14L24.0863 71.5H23.0563ZM28.6024 71.5V70.39H29.7124V71.5H28.6024ZM33.3264 71.59C32.513 71.59 31.883 71.417 31.4364 71.07C30.9897 70.723 30.7664 70.24 30.7664 69.62C30.7664 69.133 30.9164 68.73 31.2164 68.41C31.523 68.083 31.9197 67.887 32.4064 67.82V67.98C31.9597 67.887 31.603 67.683 31.3364 67.37C31.0764 67.057 30.9464 66.68 30.9464 66.24C30.9464 65.653 31.1564 65.193 31.5764 64.86C32.003 64.527 32.5864 64.36 33.3264 64.36C34.073 64.36 34.6564 64.527 35.0764 64.86C35.503 65.193 35.7164 65.653 35.7164 66.24C35.7164 66.68 35.5897 67.06 35.3364 67.38C35.0897 67.7 34.7464 67.9 34.3064 67.98V67.82C34.793 67.887 35.1764 68.083 35.4564 68.41C35.743 68.73 35.8864 69.133 35.8864 69.62C35.8864 70.24 35.663 70.723 35.2164 71.07C34.7764 71.417 34.1464 71.59 33.3264 71.59ZM33.3264 70.84C33.893 70.84 34.313 70.733 34.5864 70.52C34.8664 70.307 35.0064 69.99 35.0064 69.57C35.0064 69.143 34.8664 68.827 34.5864 68.62C34.313 68.413 33.893 68.31 33.3264 68.31C32.7664 68.31 32.3464 68.413 32.0664 68.62C31.7864 68.827 31.6464 69.143 31.6464 69.57C31.6464 69.99 31.7864 70.307 32.0664 70.52C32.3464 70.733 32.7664 70.84 33.3264 70.84ZM33.3264 67.55C33.813 67.55 34.183 67.443 34.4364 67.23C34.6964 67.01 34.8264 66.707 34.8264 66.32C34.8264 65.94 34.6964 65.643 34.4364 65.43C34.183 65.217 33.813 65.11 33.3264 65.11C32.8464 65.11 32.4764 65.217 32.2164 65.43C31.9564 65.643 31.8264 65.94 31.8264 66.32C31.8264 66.707 31.9564 67.01 32.2164 67.23C32.4764 67.443 32.8464 67.55 33.3264 67.55ZM39.3325 71.5H38.5325L42.7125 64.45H43.5225L39.3325 71.5ZM38.5625 68.67C38.0158 68.67 37.5858 68.48 37.2725 68.1C36.9658 67.713 36.8125 67.183 36.8125 66.51C36.8125 65.83 36.9691 65.303 37.2825 64.93C37.5958 64.55 38.0225 64.36 38.5625 64.36C39.1158 64.36 39.5458 64.553 39.8525 64.94C40.1658 65.32 40.3225 65.843 40.3225 66.51C40.3225 67.183 40.1658 67.713 39.8525 68.1C39.5458 68.48 39.1158 68.67 38.5625 68.67ZM38.5625 68.05C38.8691 68.05 39.1091 67.923 39.2825 67.67C39.4558 67.417 39.5425 67.03 39.5425 66.51C39.5425 65.997 39.4558 65.617 39.2825 65.37C39.1091 65.117 38.8691 64.99 38.5625 64.99C38.2625 64.99 38.0258 65.113 37.8525 65.36C37.6791 65.607 37.5925 65.99 37.5925 66.51C37.5925 67.037 37.6791 67.427 37.8525 67.68C38.0258 67.927 38.2625 68.05 38.5625 68.05ZM43.4825 71.59C42.9358 71.59 42.5058 71.4 42.1925 71.02C41.8858 70.633 41.7325 70.103 41.7325 69.43C41.7325 68.75 41.8891 68.223 42.2025 67.85C42.5158 67.47 42.9425 67.28 43.4825 67.28C44.0291 67.28 44.4591 67.47 44.7725 67.85C45.0858 68.23 45.2425 68.757 45.2425 69.43C45.2425 70.103 45.0858 70.633 44.7725 71.02C44.4591 71.4 44.0291 71.59 43.4825 71.59ZM43.4825 70.96C43.7891 70.96 44.0291 70.837 44.2025 70.59C44.3758 70.337 44.4625 69.95 44.4625 69.43C44.4625 68.91 44.3758 68.527 44.2025 68.28C44.0291 68.033 43.7891 67.91 43.4825 67.91C43.1825 67.91 42.9458 68.033 42.7725 68.28C42.5991 68.527 42.5125 68.91 42.5125 69.43C42.5125 69.95 42.5991 70.337 42.7725 70.59C42.9458 70.837 43.1825 70.96 43.4825 70.96Z" fill="#9CA3AF"/>
<path d="M56 67.5H529" stroke="#F9FAFB"/>
<path d="M19.0014 163.59C18.1881 163.59 17.5581 163.417 17.1114 163.07C16.6647 162.723 16.4414 162.24 16.4414 161.62C16.4414 161.133 16.5914 160.73 16.8914 160.41C17.1981 160.083 17.5947 159.887 18.0814 159.82V159.98C17.6347 159.887 17.2781 159.683 17.0114 159.37C16.7514 159.057 16.6214 158.68 16.6214 158.24C16.6214 157.653 16.8314 157.193 17.2514 156.86C17.6781 156.527 18.2614 156.36 19.0014 156.36C19.7481 156.36 20.3314 156.527 20.7514 156.86C21.1781 157.193 21.3914 157.653 21.3914 158.24C21.3914 158.68 21.2647 159.06 21.0114 159.38C20.7647 159.7 20.4214 159.9 19.9814 159.98V159.82C20.4681 159.887 20.8514 160.083 21.1314 160.41C21.4181 160.73 21.5614 161.133 21.5614 161.62C21.5614 162.24 21.3381 162.723 20.8914 163.07C20.4514 163.417 19.8214 163.59 19.0014 163.59ZM19.0014 162.84C19.5681 162.84 19.9881 162.733 20.2614 162.52C20.5414 162.307 20.6814 161.99 20.6814 161.57C20.6814 161.143 20.5414 160.827 20.2614 160.62C19.9881 160.413 19.5681 160.31 19.0014 160.31C18.4414 160.31 18.0214 160.413 17.7414 160.62C17.4614 160.827 17.3214 161.143 17.3214 161.57C17.3214 161.99 17.4614 162.307 17.7414 162.52C18.0214 162.733 18.4414 162.84 19.0014 162.84ZM19.0014 159.55C19.4881 159.55 19.8581 159.443 20.1114 159.23C20.3714 159.01 20.5014 158.707 20.5014 158.32C20.5014 157.94 20.3714 157.643 20.1114 157.43C19.8581 157.217 19.4881 157.11 19.0014 157.11C18.5214 157.11 18.1514 157.217 17.8914 157.43C17.6314 157.643 17.5014 157.94 17.5014 158.32C17.5014 158.707 17.6314 159.01 17.8914 159.23C18.1514 159.443 18.5214 159.55 19.0014 159.55ZM22.6075 163.5V162.39H23.7175V163.5H22.6075ZM26.8515 163.59C26.4781 163.59 26.1048 163.513 25.7315 163.36C25.3581 163.207 25.0481 163.003 24.8015 162.75L25.1415 162.04C25.3881 162.287 25.6581 162.473 25.9515 162.6C26.2515 162.727 26.5548 162.79 26.8615 162.79C27.5148 162.79 28.0181 162.557 28.3715 162.09C28.7248 161.617 28.9015 160.917 28.9015 159.99V159.1H29.0015C28.9615 159.467 28.8448 159.787 28.6515 160.06C28.4648 160.327 28.2281 160.533 27.9415 160.68C27.6548 160.827 27.3281 160.9 26.9615 160.9C26.5415 160.9 26.1681 160.803 25.8415 160.61C25.5148 160.417 25.2581 160.153 25.0715 159.82C24.8848 159.48 24.7915 159.093 24.7915 158.66C24.7915 158.213 24.8881 157.817 25.0815 157.47C25.2815 157.123 25.5548 156.853 25.9015 156.66C26.2481 156.46 26.6481 156.36 27.1015 156.36C27.9681 156.36 28.6348 156.663 29.1015 157.27C29.5681 157.87 29.8015 158.717 29.8015 159.81C29.8015 160.617 29.6815 161.303 29.4415 161.87C29.2081 162.43 28.8715 162.857 28.4315 163.15C27.9915 163.443 27.4648 163.59 26.8515 163.59ZM27.1615 160.13C27.4548 160.13 27.7115 160.067 27.9315 159.94C28.1581 159.813 28.3348 159.637 28.4615 159.41C28.5881 159.183 28.6515 158.923 28.6515 158.63C28.6515 158.33 28.5881 158.07 28.4615 157.85C28.3348 157.623 28.1581 157.447 27.9315 157.32C27.7115 157.187 27.4548 157.12 27.1615 157.12C26.8681 157.12 26.6081 157.187 26.3815 157.32C26.1615 157.447 25.9881 157.623 25.8615 157.85C25.7415 158.07 25.6815 158.33 25.6815 158.63C25.6815 158.923 25.7415 159.183 25.8615 159.41C25.9881 159.637 26.1615 159.813 26.3815 159.94C26.6081 160.067 26.8681 160.13 27.1615 160.13ZM33.3376 163.5H32.5376L36.7176 156.45H37.5276L33.3376 163.5ZM32.5676 160.67C32.0209 160.67 31.5909 160.48 31.2776 160.1C30.9709 159.713 30.8176 159.183 30.8176 158.51C30.8176 157.83 30.9742 157.303 31.2876 156.93C31.6009 156.55 32.0276 156.36 32.5676 156.36C33.1209 156.36 33.5509 156.553 33.8576 156.94C34.1709 157.32 34.3276 157.843 34.3276 158.51C34.3276 159.183 34.1709 159.713 33.8576 160.1C33.5509 160.48 33.1209 160.67 32.5676 160.67ZM32.5676 160.05C32.8742 160.05 33.1142 159.923 33.2876 159.67C33.4609 159.417 33.5476 159.03 33.5476 158.51C33.5476 157.997 33.4609 157.617 33.2876 157.37C33.1142 157.117 32.8742 156.99 32.5676 156.99C32.2676 156.99 32.0309 157.113 31.8576 157.36C31.6842 157.607 31.5976 157.99 31.5976 158.51C31.5976 159.037 31.6842 159.427 31.8576 159.68C32.0309 159.927 32.2676 160.05 32.5676 160.05ZM37.4876 163.59C36.9409 163.59 36.5109 163.4 36.1976 163.02C35.8909 162.633 35.7376 162.103 35.7376 161.43C35.7376 160.75 35.8942 160.223 36.2076 159.85C36.5209 159.47 36.9476 159.28 37.4876 159.28C38.0342 159.28 38.4642 159.47 38.7776 159.85C39.0909 160.23 39.2476 160.757 39.2476 161.43C39.2476 162.103 39.0909 162.633 38.7776 163.02C38.4642 163.4 38.0342 163.59 37.4876 163.59ZM37.4876 162.96C37.7942 162.96 38.0342 162.837 38.2076 162.59C38.3809 162.337 38.4676 161.95 38.4676 161.43C38.4676 160.91 38.3809 160.527 38.2076 160.28C38.0342 160.033 37.7942 159.91 37.4876 159.91C37.1876 159.91 36.9509 160.033 36.7776 160.28C36.6042 160.527 36.5176 160.91 36.5176 161.43C36.5176 161.95 36.6042 162.337 36.7776 162.59C36.9509 162.837 37.1876 162.96 37.4876 162.96Z" fill="#9CA3AF"/>
<path d="M56 159.5H529" stroke="#F9FAFB"/>
<path d="M19.0002 255.59C18.1935 255.59 17.5735 255.28 17.1402 254.66C16.7069 254.033 16.4902 253.137 16.4902 251.97C16.4902 250.783 16.7069 249.887 17.1402 249.28C17.5735 248.667 18.1935 248.36 19.0002 248.36C19.8135 248.36 20.4335 248.667 20.8602 249.28C21.2935 249.887 21.5102 250.78 21.5102 251.96C21.5102 253.133 21.2935 254.033 20.8602 254.66C20.4269 255.28 19.8069 255.59 19.0002 255.59ZM19.0002 254.8C19.5335 254.8 19.9302 254.57 20.1902 254.11C20.4569 253.65 20.5902 252.933 20.5902 251.96C20.5902 250.987 20.4569 250.277 20.1902 249.83C19.9302 249.377 19.5335 249.15 19.0002 249.15C18.4735 249.15 18.0769 249.377 17.8102 249.83C17.5435 250.277 17.4102 250.987 17.4102 251.96C17.4102 252.933 17.5435 253.65 17.8102 254.11C18.0769 254.57 18.4735 254.8 19.0002 254.8ZM25.0063 255.5H24.2063L28.3863 248.45H29.1963L25.0063 255.5ZM24.2363 252.67C23.6896 252.67 23.2596 252.48 22.9463 252.1C22.6396 251.713 22.4863 251.183 22.4863 250.51C22.4863 249.83 22.643 249.303 22.9563 248.93C23.2696 248.55 23.6963 248.36 24.2363 248.36C24.7896 248.36 25.2196 248.553 25.5263 248.94C25.8396 249.32 25.9963 249.843 25.9963 250.51C25.9963 251.183 25.8396 251.713 25.5263 252.1C25.2196 252.48 24.7896 252.67 24.2363 252.67ZM24.2363 252.05C24.543 252.05 24.783 251.923 24.9563 251.67C25.1296 251.417 25.2163 251.03 25.2163 250.51C25.2163 249.997 25.1296 249.617 24.9563 249.37C24.783 249.117 24.543 248.99 24.2363 248.99C23.9363 248.99 23.6996 249.113 23.5263 249.36C23.353 249.607 23.2663 249.99 23.2663 250.51C23.2663 251.037 23.353 251.427 23.5263 251.68C23.6996 251.927 23.9363 252.05 24.2363 252.05ZM29.1563 255.59C28.6096 255.59 28.1796 255.4 27.8663 255.02C27.5596 254.633 27.4063 254.103 27.4063 253.43C27.4063 252.75 27.563 252.223 27.8763 251.85C28.1896 251.47 28.6163 251.28 29.1563 251.28C29.703 251.28 30.133 251.47 30.4463 251.85C30.7596 252.23 30.9163 252.757 30.9163 253.43C30.9163 254.103 30.7596 254.633 30.4463 255.02C30.133 255.4 29.703 255.59 29.1563 255.59ZM29.1563 254.96C29.463 254.96 29.703 254.837 29.8763 254.59C30.0496 254.337 30.1363 253.95 30.1363 253.43C30.1363 252.91 30.0496 252.527 29.8763 252.28C29.703 252.033 29.463 251.91 29.1563 251.91C28.8563 251.91 28.6196 252.033 28.4463 252.28C28.273 252.527 28.1863 252.91 28.1863 253.43C28.1863 253.95 28.273 254.337 28.4463 254.59C28.6196 254.837 28.8563 254.96 29.1563 254.96Z" fill="#9CA3AF"/>
<path d="M56 251.5H529" stroke="#F9FAFB"/>
<path d="M56 168H536" stroke="#5C85D5" stroke-width="2" stroke-linecap="round" stroke-dasharray="5 5"/>
<path d="M191 160.5H125C118.096 160.5 112.5 166.096 112.5 173V239C112.5 245.904 118.096 251.5 125 251.5H191C197.904 251.5 203.5 245.904 203.5 239V173C203.5 166.096 197.904 160.5 191 160.5Z" fill="url(#paint0_linear_5006_10164)" stroke="#A7BBE1"/>
<path d="M147.85 266V265.31L150.31 262.73C150.63 262.403 150.867 262.09 151.02 261.79C151.18 261.49 151.26 261.18 151.26 260.86C151.26 260.467 151.137 260.17 150.89 259.97C150.65 259.763 150.297 259.66 149.83 259.66C149.47 259.66 149.13 259.727 148.81 259.86C148.497 259.987 148.197 260.183 147.91 260.45L147.58 259.74C147.853 259.473 148.197 259.26 148.61 259.1C149.03 258.94 149.47 258.86 149.93 258.86C150.65 258.86 151.207 259.027 151.6 259.36C151.993 259.687 152.19 260.157 152.19 260.77C152.19 261.217 152.08 261.643 151.86 262.05C151.647 262.45 151.33 262.863 150.91 263.29L148.76 265.47V265.21H152.48V266H147.85ZM156.116 266.09C155.809 266.09 155.506 266.057 155.206 265.99C154.913 265.923 154.636 265.83 154.376 265.71C154.116 265.583 153.889 265.43 153.696 265.25L154.026 264.53C154.353 264.79 154.686 264.983 155.026 265.11C155.366 265.23 155.723 265.29 156.096 265.29C156.589 265.29 156.976 265.16 157.256 264.9C157.536 264.64 157.676 264.293 157.676 263.86C157.676 263.413 157.543 263.053 157.276 262.78C157.009 262.5 156.639 262.36 156.166 262.36C155.839 262.36 155.543 262.427 155.276 262.56C155.016 262.687 154.786 262.89 154.586 263.17H153.926V258.95H158.156V259.74H154.826V262.41H154.586C154.766 262.143 155.009 261.937 155.316 261.79C155.629 261.643 155.979 261.57 156.366 261.57C156.819 261.57 157.209 261.663 157.536 261.85C157.869 262.037 158.126 262.3 158.306 262.64C158.493 262.973 158.586 263.363 158.586 263.81C158.586 264.257 158.486 264.653 158.286 265C158.086 265.34 157.799 265.607 157.426 265.8C157.059 265.993 156.623 266.09 156.116 266.09ZM162.002 266H161.202L165.382 258.95H166.192L162.002 266ZM161.232 263.17C160.686 263.17 160.256 262.98 159.942 262.6C159.636 262.213 159.482 261.683 159.482 261.01C159.482 260.33 159.639 259.803 159.952 259.43C160.266 259.05 160.692 258.86 161.232 258.86C161.786 258.86 162.216 259.053 162.522 259.44C162.836 259.82 162.992 260.343 162.992 261.01C162.992 261.683 162.836 262.213 162.522 262.6C162.216 262.98 161.786 263.17 161.232 263.17ZM161.232 262.55C161.539 262.55 161.779 262.423 161.952 262.17C162.126 261.917 162.212 261.53 162.212 261.01C162.212 260.497 162.126 260.117 161.952 259.87C161.779 259.617 161.539 259.49 161.232 259.49C160.932 259.49 160.696 259.613 160.522 259.86C160.349 260.107 160.262 260.49 160.262 261.01C160.262 261.537 160.349 261.927 160.522 262.18C160.696 262.427 160.932 262.55 161.232 262.55ZM166.152 266.09C165.606 266.09 165.176 265.9 164.862 265.52C164.556 265.133 164.402 264.603 164.402 263.93C164.402 263.25 164.559 262.723 164.872 262.35C165.186 261.97 165.612 261.78 166.152 261.78C166.699 261.78 167.129 261.97 167.442 262.35C167.756 262.73 167.912 263.257 167.912 263.93C167.912 264.603 167.756 265.133 167.442 265.52C167.129 265.9 166.699 266.09 166.152 266.09ZM166.152 265.46C166.459 265.46 166.699 265.337 166.872 265.09C167.046 264.837 167.132 264.45 167.132 263.93C167.132 263.41 167.046 263.027 166.872 262.78C166.699 262.533 166.459 262.41 166.152 262.41C165.852 262.41 165.616 262.533 165.442 262.78C165.269 263.027 165.182 263.41 165.182 263.93C165.182 264.45 165.269 264.837 165.442 265.09C165.616 265.337 165.852 265.46 166.152 265.46Z" fill="#9CA3AF"/>
<path d="M313 123.5H247C240.096 123.5 234.5 129.096 234.5 136V239C234.5 245.904 240.096 251.5 247 251.5H313C319.904 251.5 325.5 245.904 325.5 239V136C325.5 129.096 319.904 123.5 313 123.5Z" fill="url(#paint1_linear_5006_10164)" stroke="#A7BBE1"/>
<path d="M263.859 266V258.95H264.679L267.459 265.21H267.159L269.939 258.95H270.749V266H269.899V260.19H270.209L267.599 266H267.009L264.399 260.19H264.709V266H263.859ZM274.662 266.09C273.862 266.09 273.229 265.86 272.762 265.4C272.302 264.94 272.072 264.307 272.072 263.5C272.072 262.967 272.172 262.507 272.372 262.12C272.579 261.727 272.862 261.423 273.222 261.21C273.582 260.99 274.002 260.88 274.482 260.88C274.942 260.88 275.332 260.98 275.652 261.18C275.972 261.373 276.216 261.65 276.382 262.01C276.549 262.37 276.632 262.797 276.632 263.29V263.59H272.782V263.05H276.012L275.842 263.18C275.842 262.66 275.726 262.257 275.492 261.97C275.266 261.683 274.929 261.54 274.482 261.54C273.996 261.54 273.619 261.71 273.352 262.05C273.086 262.383 272.952 262.84 272.952 263.42V263.51C272.952 264.123 273.102 264.587 273.402 264.9C273.709 265.213 274.132 265.37 274.672 265.37C274.972 265.37 275.252 265.327 275.512 265.24C275.772 265.153 276.022 265.01 276.262 264.81L276.562 265.44C276.336 265.647 276.052 265.807 275.712 265.92C275.379 266.033 275.029 266.09 274.662 266.09ZM279.742 266.09C279.302 266.09 278.915 265.987 278.582 265.78C278.248 265.573 277.988 265.273 277.802 264.88C277.615 264.487 277.522 264.02 277.522 263.48C277.522 262.94 277.615 262.477 277.802 262.09C277.988 261.697 278.248 261.397 278.582 261.19C278.915 260.983 279.302 260.88 279.742 260.88C280.182 260.88 280.565 260.99 280.892 261.21C281.225 261.43 281.448 261.733 281.562 262.12H281.442V258.64H282.352V266H281.452V264.83H281.562C281.455 265.223 281.235 265.533 280.902 265.76C280.575 265.98 280.188 266.09 279.742 266.09ZM279.952 265.37C280.405 265.37 280.768 265.21 281.042 264.89C281.322 264.57 281.462 264.1 281.462 263.48C281.462 262.86 281.322 262.393 281.042 262.08C280.768 261.767 280.405 261.61 279.952 261.61C279.498 261.61 279.132 261.767 278.852 262.08C278.578 262.393 278.442 262.86 278.442 263.48C278.442 264.1 278.578 264.57 278.852 264.89C279.132 265.21 279.498 265.37 279.952 265.37ZM283.876 266V260.97H284.786V266H283.876ZM283.796 259.87V258.89H284.876V259.87H283.796ZM288.228 266.09C287.788 266.09 287.401 265.987 287.068 265.78C286.734 265.573 286.474 265.273 286.288 264.88C286.101 264.487 286.008 264.02 286.008 263.48C286.008 262.94 286.101 262.477 286.288 262.09C286.474 261.697 286.734 261.397 287.068 261.19C287.401 260.983 287.788 260.88 288.228 260.88C288.674 260.88 289.061 260.993 289.388 261.22C289.721 261.44 289.941 261.743 290.048 262.13H289.928L290.038 260.97H290.918C290.898 261.17 290.878 261.37 290.858 261.57C290.844 261.77 290.838 261.967 290.838 262.16V266H289.928V264.85H290.038C289.931 265.23 289.711 265.533 289.378 265.76C289.051 265.98 288.668 266.09 288.228 266.09ZM288.438 265.37C288.891 265.37 289.254 265.21 289.528 264.89C289.801 264.57 289.938 264.1 289.938 263.48C289.938 262.86 289.801 262.393 289.528 262.08C289.254 261.767 288.891 261.61 288.438 261.61C287.984 261.61 287.618 261.767 287.338 262.08C287.064 262.393 286.928 262.86 286.928 263.48C286.928 264.1 287.064 264.57 287.338 264.89C287.611 265.21 287.978 265.37 288.438 265.37ZM292.363 266V262.16C292.363 261.967 292.356 261.77 292.343 261.57C292.329 261.37 292.309 261.17 292.283 260.97H293.163L293.263 262.05H293.143C293.296 261.67 293.533 261.38 293.853 261.18C294.173 260.98 294.546 260.88 294.973 260.88C295.566 260.88 296.013 261.043 296.313 261.37C296.613 261.69 296.763 262.19 296.763 262.87V266H295.853V262.92C295.853 262.46 295.763 262.13 295.583 261.93C295.403 261.723 295.123 261.62 294.743 261.62C294.289 261.62 293.929 261.757 293.663 262.03C293.403 262.303 293.273 262.673 293.273 263.14V266H292.363Z" fill="#9CA3AF"/>
<path d="M435 79.5H369C362.096 79.5 356.5 85.0964 356.5 92V239C356.5 245.904 362.096 251.5 369 251.5H435C441.904 251.5 447.5 245.904 447.5 239V92C447.5 85.0964 441.904 79.5 435 79.5Z" fill="url(#paint2_linear_5006_10164)" stroke="#A7BBE1"/>
<path d="M392.061 266L395.531 259.37V259.75H391.631V258.95H396.381V259.64L393.091 266H392.061ZM400.117 266.09C399.81 266.09 399.507 266.057 399.207 265.99C398.914 265.923 398.637 265.83 398.377 265.71C398.117 265.583 397.89 265.43 397.697 265.25L398.027 264.53C398.354 264.79 398.687 264.983 399.027 265.11C399.367 265.23 399.724 265.29 400.097 265.29C400.59 265.29 400.977 265.16 401.257 264.9C401.537 264.64 401.677 264.293 401.677 263.86C401.677 263.413 401.544 263.053 401.277 262.78C401.01 262.5 400.64 262.36 400.167 262.36C399.84 262.36 399.544 262.427 399.277 262.56C399.017 262.687 398.787 262.89 398.587 263.17H397.927V258.95H402.157V259.74H398.827V262.41H398.587C398.767 262.143 399.01 261.937 399.317 261.79C399.63 261.643 399.98 261.57 400.367 261.57C400.82 261.57 401.21 261.663 401.537 261.85C401.87 262.037 402.127 262.3 402.307 262.64C402.494 262.973 402.587 263.363 402.587 263.81C402.587 264.257 402.487 264.653 402.287 265C402.087 265.34 401.8 265.607 401.427 265.8C401.06 265.993 400.624 266.09 400.117 266.09ZM406.003 266H405.203L409.383 258.95H410.193L406.003 266ZM405.233 263.17C404.687 263.17 404.257 262.98 403.943 262.6C403.637 262.213 403.483 261.683 403.483 261.01C403.483 260.33 403.64 259.803 403.953 259.43C404.267 259.05 404.693 258.86 405.233 258.86C405.787 258.86 406.217 259.053 406.523 259.44C406.837 259.82 406.993 260.343 406.993 261.01C406.993 261.683 406.837 262.213 406.523 262.6C406.217 262.98 405.787 263.17 405.233 263.17ZM405.233 262.55C405.54 262.55 405.78 262.423 405.953 262.17C406.127 261.917 406.213 261.53 406.213 261.01C406.213 260.497 406.127 260.117 405.953 259.87C405.78 259.617 405.54 259.49 405.233 259.49C404.933 259.49 404.697 259.613 404.523 259.86C404.35 260.107 404.263 260.49 404.263 261.01C404.263 261.537 404.35 261.927 404.523 262.18C404.697 262.427 404.933 262.55 405.233 262.55ZM410.153 266.09C409.607 266.09 409.177 265.9 408.863 265.52C408.557 265.133 408.403 264.603 408.403 263.93C408.403 263.25 408.56 262.723 408.873 262.35C409.187 261.97 409.613 261.78 410.153 261.78C410.7 261.78 411.13 261.97 411.443 262.35C411.757 262.73 411.913 263.257 411.913 263.93C411.913 264.603 411.757 265.133 411.443 265.52C411.13 265.9 410.7 266.09 410.153 266.09ZM410.153 265.46C410.46 265.46 410.7 265.337 410.873 265.09C411.047 264.837 411.133 264.45 411.133 263.93C411.133 263.41 411.047 263.027 410.873 262.78C410.7 262.533 410.46 262.41 410.153 262.41C409.853 262.41 409.617 262.533 409.443 262.78C409.27 263.027 409.183 263.41 409.183 263.93C409.183 264.45 409.27 264.837 409.443 265.09C409.617 265.337 409.853 265.46 410.153 265.46Z" fill="#9CA3AF"/>
</g>
<defs>
<linearGradient id="paint0_linear_5006_10164" x1="158" y1="161" x2="158" y2="251" gradientUnits="userSpaceOnUse">
<stop stop-color="#EBF0FA"/>
<stop offset="1" stop-color="#BECEEE"/>
</linearGradient>
<linearGradient id="paint1_linear_5006_10164" x1="280" y1="124" x2="280" y2="251" gradientUnits="userSpaceOnUse">
<stop stop-color="#EBF0FA"/>
<stop offset="1" stop-color="#BECEEE"/>
</linearGradient>
<linearGradient id="paint2_linear_5006_10164" x1="402" y1="80" x2="402" y2="251" gradientUnits="userSpaceOnUse">
<stop stop-color="#EBF0FA"/>
<stop offset="1" stop-color="#BECEEE"/>
</linearGradient>
</defs>
</svg>
