<svg width="701" height="356" viewBox="0 0 701 356" fill="none" xmlns="http://www.w3.org/2000/svg">
<rect x="0.5" y="0.5" width="700" height="355" rx="9.5" fill="white"/>
<rect x="0.5" y="0.5" width="700" height="355" rx="9.5" stroke="#F3F4F6"/>
<path d="M56 19V336" stroke="#F9FAFB"/>
<path d="M168.75 19V336" stroke="#F9FAFB"/>
<path d="M281.5 19V336" stroke="#F9FAFB"/>
<path d="M394.25 19V336" stroke="#F9FAFB"/>
<path d="M507 19V336" stroke="#F9FAFB"/>
<path d="M18.95 23.59C18.47 23.59 18.01 23.5167 17.57 23.37C17.1367 23.2233 16.7733 23.0167 16.48 22.75L16.81 22.03C17.1367 22.2967 17.4733 22.49 17.82 22.61C18.1667 22.73 18.5333 22.79 18.92 22.79C19.4333 22.79 19.8233 22.6833 20.09 22.47C20.3567 22.25 20.49 21.9367 20.49 21.53C20.49 21.13 20.3533 20.8267 20.08 20.62C19.8133 20.4133 19.42 20.31 18.9 20.31H17.82V19.54H18.83C19.27 19.54 19.6233 19.4267 19.89 19.2C20.1567 18.9733 20.29 18.6633 20.29 18.27C20.29 17.91 20.1667 17.6367 19.92 17.45C19.68 17.2567 19.3367 17.16 18.89 17.16C18.1367 17.16 17.4833 17.4233 16.93 17.95L16.6 17.24C16.88 16.96 17.2267 16.7433 17.64 16.59C18.0533 16.4367 18.49 16.36 18.95 16.36C19.65 16.36 20.2 16.52 20.6 16.84C21 17.16 21.2 17.6067 21.2 18.18C21.2 18.6133 21.0767 18.9867 20.83 19.3C20.59 19.6067 20.26 19.81 19.84 19.91V19.8C20.3333 19.8867 20.7167 20.09 20.99 20.41C21.2633 20.7233 21.4 21.1167 21.4 21.59C21.4 22.21 21.18 22.7 20.74 23.06C20.3067 23.4133 19.71 23.59 18.95 23.59ZM25.1161 23.59C24.8094 23.59 24.5061 23.5567 24.2061 23.49C23.9128 23.4233 23.6361 23.33 23.3761 23.21C23.1161 23.0833 22.8894 22.93 22.6961 22.75L23.0261 22.03C23.3528 22.29 23.6861 22.4833 24.0261 22.61C24.3661 22.73 24.7228 22.79 25.0961 22.79C25.5894 22.79 25.9761 22.66 26.2561 22.4C26.5361 22.14 26.6761 21.7933 26.6761 21.36C26.6761 20.9133 26.5428 20.5533 26.2761 20.28C26.0094 20 25.6394 19.86 25.1661 19.86C24.8394 19.86 24.5428 19.9267 24.2761 20.06C24.0161 20.1867 23.7861 20.39 23.5861 20.67H22.9261V16.45H27.1561V17.24H23.8261V19.91H23.5861C23.7661 19.6433 24.0094 19.4367 24.3161 19.29C24.6294 19.1433 24.9794 19.07 25.3661 19.07C25.8194 19.07 26.2094 19.1633 26.5361 19.35C26.8694 19.5367 27.1261 19.8 27.3061 20.14C27.4928 20.4733 27.5861 20.8633 27.5861 21.31C27.5861 21.7567 27.4861 22.1533 27.2861 22.5C27.0861 22.84 26.7994 23.1067 26.4261 23.3C26.0594 23.4933 25.6228 23.59 25.1161 23.59ZM28.6022 23.5V22.39H29.7122V23.5H28.6022ZM33.5562 23.59C32.6962 23.59 32.0328 23.2867 31.5662 22.68C31.0995 22.0733 30.8662 21.2267 30.8662 20.14C30.8662 19.3267 30.9828 18.64 31.2162 18.08C31.4562 17.52 31.7962 17.0933 32.2362 16.8C32.6762 16.5067 33.2028 16.36 33.8162 16.36C34.1895 16.36 34.5628 16.4333 34.9362 16.58C35.3095 16.7267 35.6195 16.93 35.8662 17.19L35.5262 17.91C35.2795 17.6567 35.0062 17.47 34.7062 17.35C34.4128 17.2233 34.1128 17.16 33.8062 17.16C33.1462 17.16 32.6395 17.3967 32.2862 17.87C31.9395 18.3367 31.7662 19.0333 31.7662 19.96V20.85H31.6662C31.7128 20.4767 31.8262 20.1567 32.0062 19.89C32.1928 19.6233 32.4295 19.4167 32.7162 19.27C33.0095 19.1233 33.3395 19.05 33.7062 19.05C34.1262 19.05 34.4995 19.1467 34.8262 19.34C35.1528 19.5333 35.4095 19.7967 35.5962 20.13C35.7828 20.4633 35.8762 20.85 35.8762 21.29C35.8762 21.73 35.7762 22.1267 35.5762 22.48C35.3762 22.8267 35.1028 23.1 34.7562 23.3C34.4095 23.4933 34.0095 23.59 33.5562 23.59ZM33.5062 22.82C33.7995 22.82 34.0562 22.7567 34.2762 22.63C34.5028 22.5033 34.6762 22.3267 34.7962 22.1C34.9228 21.8733 34.9862 21.6133 34.9862 21.32C34.9862 21.0267 34.9228 20.7667 34.7962 20.54C34.6762 20.3133 34.5028 20.1367 34.2762 20.01C34.0562 19.8833 33.7995 19.82 33.5062 19.82C33.2128 19.82 32.9528 19.8833 32.7262 20.01C32.5062 20.1367 32.3328 20.3133 32.2062 20.54C32.0795 20.7667 32.0162 21.0267 32.0162 21.32C32.0162 21.6133 32.0795 21.8733 32.2062 22.1C32.3328 22.3267 32.5062 22.5033 32.7262 22.63C32.9528 22.7567 33.2128 22.82 33.5062 22.82ZM39.3323 23.5H38.5323L42.7123 16.45H43.5223L39.3323 23.5ZM38.5623 20.67C38.0156 20.67 37.5856 20.48 37.2723 20.1C36.9656 19.7133 36.8123 19.1833 36.8123 18.51C36.8123 17.83 36.9689 17.3033 37.2823 16.93C37.5956 16.55 38.0223 16.36 38.5623 16.36C39.1156 16.36 39.5456 16.5533 39.8523 16.94C40.1656 17.32 40.3223 17.8433 40.3223 18.51C40.3223 19.1833 40.1656 19.7133 39.8523 20.1C39.5456 20.48 39.1156 20.67 38.5623 20.67ZM38.5623 20.05C38.8689 20.05 39.1089 19.9233 39.2823 19.67C39.4556 19.4167 39.5423 19.03 39.5423 18.51C39.5423 17.9967 39.4556 17.6167 39.2823 17.37C39.1089 17.1167 38.8689 16.99 38.5623 16.99C38.2623 16.99 38.0256 17.1133 37.8523 17.36C37.6789 17.6067 37.5923 17.99 37.5923 18.51C37.5923 19.0367 37.6789 19.4267 37.8523 19.68C38.0256 19.9267 38.2623 20.05 38.5623 20.05ZM43.4823 23.59C42.9356 23.59 42.5056 23.4 42.1923 23.02C41.8856 22.6333 41.7323 22.1033 41.7323 21.43C41.7323 20.75 41.8889 20.2233 42.2023 19.85C42.5156 19.47 42.9423 19.28 43.4823 19.28C44.0289 19.28 44.4589 19.47 44.7723 19.85C45.0856 20.23 45.2423 20.7567 45.2423 21.43C45.2423 22.1033 45.0856 22.6333 44.7723 23.02C44.4589 23.4 44.0289 23.59 43.4823 23.59ZM43.4823 22.96C43.7889 22.96 44.0289 22.8367 44.2023 22.59C44.3756 22.3367 44.4623 21.95 44.4623 21.43C44.4623 20.91 44.3756 20.5267 44.2023 20.28C44.0289 20.0333 43.7889 19.91 43.4823 19.91C43.1823 19.91 42.9456 20.0333 42.7723 20.28C42.5989 20.5267 42.5123 20.91 42.5123 21.43C42.5123 21.95 42.5989 22.3367 42.7723 22.59C42.9456 22.8367 43.1823 22.96 43.4823 22.96Z" fill="#9CA3AF"/>
<line x1="56" y1="19.5" x2="529" y2="19.5" stroke="#F9FAFB"/>
<path d="M16.85 102.5V101.81L19.31 99.23C19.63 98.9033 19.8667 98.59 20.02 98.29C20.18 97.99 20.26 97.68 20.26 97.36C20.26 96.9667 20.1367 96.67 19.89 96.47C19.65 96.2633 19.2967 96.16 18.83 96.16C18.47 96.16 18.13 96.2267 17.81 96.36C17.4967 96.4867 17.1967 96.6833 16.91 96.95L16.58 96.24C16.8533 95.9733 17.1967 95.76 17.61 95.6C18.03 95.44 18.47 95.36 18.93 95.36C19.65 95.36 20.2067 95.5267 20.6 95.86C20.9933 96.1867 21.19 96.6567 21.19 97.27C21.19 97.7167 21.08 98.1433 20.86 98.55C20.6467 98.95 20.33 99.3633 19.91 99.79L17.76 101.97V101.71H21.48V102.5H16.85ZM25.2261 102.59C24.3661 102.59 23.7028 102.287 23.2361 101.68C22.7694 101.073 22.5361 100.227 22.5361 99.14C22.5361 98.3267 22.6528 97.64 22.8861 97.08C23.1261 96.52 23.4661 96.0933 23.9061 95.8C24.3461 95.5067 24.8728 95.36 25.4861 95.36C25.8594 95.36 26.2328 95.4333 26.6061 95.58C26.9794 95.7267 27.2894 95.93 27.5361 96.19L27.1961 96.91C26.9494 96.6567 26.6761 96.47 26.3761 96.35C26.0828 96.2233 25.7828 96.16 25.4761 96.16C24.8161 96.16 24.3094 96.3967 23.9561 96.87C23.6094 97.3367 23.4361 98.0333 23.4361 98.96V99.85H23.3361C23.3828 99.4767 23.4961 99.1567 23.6761 98.89C23.8628 98.6233 24.0994 98.4167 24.3861 98.27C24.6794 98.1233 25.0094 98.05 25.3761 98.05C25.7961 98.05 26.1694 98.1467 26.4961 98.34C26.8228 98.5333 27.0794 98.7967 27.2661 99.13C27.4528 99.4633 27.5461 99.85 27.5461 100.29C27.5461 100.73 27.4461 101.127 27.2461 101.48C27.0461 101.827 26.7728 102.1 26.4261 102.3C26.0794 102.493 25.6794 102.59 25.2261 102.59ZM25.1761 101.82C25.4694 101.82 25.7261 101.757 25.9461 101.63C26.1728 101.503 26.3461 101.327 26.4661 101.1C26.5928 100.873 26.6561 100.613 26.6561 100.32C26.6561 100.027 26.5928 99.7667 26.4661 99.54C26.3461 99.3133 26.1728 99.1367 25.9461 99.01C25.7261 98.8833 25.4694 98.82 25.1761 98.82C24.8828 98.82 24.6228 98.8833 24.3961 99.01C24.1761 99.1367 24.0028 99.3133 23.8761 99.54C23.7494 99.7667 23.6861 100.027 23.6861 100.32C23.6861 100.613 23.7494 100.873 23.8761 101.1C24.0028 101.327 24.1761 101.503 24.3961 101.63C24.6228 101.757 24.8828 101.82 25.1761 101.82ZM29.0622 103.69L28.6522 103.37C28.8389 103.177 28.9655 102.993 29.0322 102.82C29.0989 102.653 29.1322 102.48 29.1322 102.3L29.3322 102.5H28.6022V101.39H29.7122V102.16C29.7122 102.447 29.6655 102.71 29.5722 102.95C29.4789 103.197 29.3089 103.443 29.0622 103.69ZM31.3862 102.5L34.8562 95.87V96.25H30.9562V95.45H35.7062V96.14L32.4162 102.5H31.3862ZM39.3323 102.5H38.5323L42.7123 95.45H43.5223L39.3323 102.5ZM38.5623 99.67C38.0156 99.67 37.5856 99.48 37.2723 99.1C36.9656 98.7133 36.8123 98.1833 36.8123 97.51C36.8123 96.83 36.9689 96.3033 37.2823 95.93C37.5956 95.55 38.0223 95.36 38.5623 95.36C39.1156 95.36 39.5456 95.5533 39.8523 95.94C40.1656 96.32 40.3223 96.8433 40.3223 97.51C40.3223 98.1833 40.1656 98.7133 39.8523 99.1C39.5456 99.48 39.1156 99.67 38.5623 99.67ZM38.5623 99.05C38.8689 99.05 39.1089 98.9233 39.2823 98.67C39.4556 98.4167 39.5423 98.03 39.5423 97.51C39.5423 96.9967 39.4556 96.6167 39.2823 96.37C39.1089 96.1167 38.8689 95.99 38.5623 95.99C38.2623 95.99 38.0256 96.1133 37.8523 96.36C37.6789 96.6067 37.5923 96.99 37.5923 97.51C37.5923 98.0367 37.6789 98.4267 37.8523 98.68C38.0256 98.9267 38.2623 99.05 38.5623 99.05ZM43.4823 102.59C42.9356 102.59 42.5056 102.4 42.1923 102.02C41.8856 101.633 41.7323 101.103 41.7323 100.43C41.7323 99.75 41.8889 99.2233 42.2023 98.85C42.5156 98.47 42.9423 98.28 43.4823 98.28C44.0289 98.28 44.4589 98.47 44.7723 98.85C45.0856 99.23 45.2423 99.7567 45.2423 100.43C45.2423 101.103 45.0856 101.633 44.7723 102.02C44.4589 102.4 44.0289 102.59 43.4823 102.59ZM43.4823 101.96C43.7889 101.96 44.0289 101.837 44.2023 101.59C44.3756 101.337 44.4623 100.95 44.4623 100.43C44.4623 99.91 44.3756 99.5267 44.2023 99.28C44.0289 99.0333 43.7889 98.91 43.4823 98.91C43.1823 98.91 42.9456 99.0333 42.7723 99.28C42.5989 99.5267 42.5123 99.91 42.5123 100.43C42.5123 100.95 42.5989 101.337 42.7723 101.59C42.9456 101.837 43.1823 101.96 43.4823 101.96Z" fill="#9CA3AF"/>
<line x1="56" y1="98.5" x2="529" y2="98.5" stroke="#F9FAFB"/>
<path d="M17.24 181.5V180.71H18.89V175.24H19.36L17.39 176.46V175.55L19.15 174.45H19.82V180.71H21.37V181.5H17.24ZM23.0561 181.5L26.5261 174.87V175.25H22.6261V174.45H27.3761V175.14L24.0861 181.5H23.0561ZM28.6022 181.5V180.39H29.7122V181.5H28.6022ZM33.3262 181.59C32.5128 181.59 31.8828 181.417 31.4362 181.07C30.9895 180.723 30.7662 180.24 30.7662 179.62C30.7662 179.133 30.9162 178.73 31.2162 178.41C31.5228 178.083 31.9195 177.887 32.4062 177.82V177.98C31.9595 177.887 31.6028 177.683 31.3362 177.37C31.0762 177.057 30.9462 176.68 30.9462 176.24C30.9462 175.653 31.1562 175.193 31.5762 174.86C32.0028 174.527 32.5862 174.36 33.3262 174.36C34.0728 174.36 34.6562 174.527 35.0762 174.86C35.5028 175.193 35.7162 175.653 35.7162 176.24C35.7162 176.68 35.5895 177.06 35.3362 177.38C35.0895 177.7 34.7462 177.9 34.3062 177.98V177.82C34.7928 177.887 35.1762 178.083 35.4562 178.41C35.7428 178.73 35.8862 179.133 35.8862 179.62C35.8862 180.24 35.6628 180.723 35.2162 181.07C34.7762 181.417 34.1462 181.59 33.3262 181.59ZM33.3262 180.84C33.8928 180.84 34.3128 180.733 34.5862 180.52C34.8662 180.307 35.0062 179.99 35.0062 179.57C35.0062 179.143 34.8662 178.827 34.5862 178.62C34.3128 178.413 33.8928 178.31 33.3262 178.31C32.7662 178.31 32.3462 178.413 32.0662 178.62C31.7862 178.827 31.6462 179.143 31.6462 179.57C31.6462 179.99 31.7862 180.307 32.0662 180.52C32.3462 180.733 32.7662 180.84 33.3262 180.84ZM33.3262 177.55C33.8128 177.55 34.1828 177.443 34.4362 177.23C34.6962 177.01 34.8262 176.707 34.8262 176.32C34.8262 175.94 34.6962 175.643 34.4362 175.43C34.1828 175.217 33.8128 175.11 33.3262 175.11C32.8462 175.11 32.4762 175.217 32.2162 175.43C31.9562 175.643 31.8262 175.94 31.8262 176.32C31.8262 176.707 31.9562 177.01 32.2162 177.23C32.4762 177.443 32.8462 177.55 33.3262 177.55ZM39.3323 181.5H38.5323L42.7123 174.45H43.5223L39.3323 181.5ZM38.5623 178.67C38.0156 178.67 37.5856 178.48 37.2723 178.1C36.9656 177.713 36.8123 177.183 36.8123 176.51C36.8123 175.83 36.9689 175.303 37.2823 174.93C37.5956 174.55 38.0223 174.36 38.5623 174.36C39.1156 174.36 39.5456 174.553 39.8523 174.94C40.1656 175.32 40.3223 175.843 40.3223 176.51C40.3223 177.183 40.1656 177.713 39.8523 178.1C39.5456 178.48 39.1156 178.67 38.5623 178.67ZM38.5623 178.05C38.8689 178.05 39.1089 177.923 39.2823 177.67C39.4556 177.417 39.5423 177.03 39.5423 176.51C39.5423 175.997 39.4556 175.617 39.2823 175.37C39.1089 175.117 38.8689 174.99 38.5623 174.99C38.2623 174.99 38.0256 175.113 37.8523 175.36C37.6789 175.607 37.5923 175.99 37.5923 176.51C37.5923 177.037 37.6789 177.427 37.8523 177.68C38.0256 177.927 38.2623 178.05 38.5623 178.05ZM43.4823 181.59C42.9356 181.59 42.5056 181.4 42.1923 181.02C41.8856 180.633 41.7323 180.103 41.7323 179.43C41.7323 178.75 41.8889 178.223 42.2023 177.85C42.5156 177.47 42.9423 177.28 43.4823 177.28C44.0289 177.28 44.4589 177.47 44.7723 177.85C45.0856 178.23 45.2423 178.757 45.2423 179.43C45.2423 180.103 45.0856 180.633 44.7723 181.02C44.4589 181.4 44.0289 181.59 43.4823 181.59ZM43.4823 180.96C43.7889 180.96 44.0289 180.837 44.2023 180.59C44.3756 180.337 44.4623 179.95 44.4623 179.43C44.4623 178.91 44.3756 178.527 44.2023 178.28C44.0289 178.033 43.7889 177.91 43.4823 177.91C43.1823 177.91 42.9456 178.033 42.7723 178.28C42.5989 178.527 42.5123 178.91 42.5123 179.43C42.5123 179.95 42.5989 180.337 42.7723 180.59C42.9456 180.837 43.1823 180.96 43.4823 180.96Z" fill="#9CA3AF"/>
<line x1="56" y1="177.5" x2="529" y2="177.5" stroke="#F9FAFB"/>
<path d="M19 260.59C18.1867 260.59 17.5567 260.417 17.11 260.07C16.6633 259.723 16.44 259.24 16.44 258.62C16.44 258.133 16.59 257.73 16.89 257.41C17.1967 257.083 17.5933 256.887 18.08 256.82V256.98C17.6333 256.887 17.2767 256.683 17.01 256.37C16.75 256.057 16.62 255.68 16.62 255.24C16.62 254.653 16.83 254.193 17.25 253.86C17.6767 253.527 18.26 253.36 19 253.36C19.7467 253.36 20.33 253.527 20.75 253.86C21.1767 254.193 21.39 254.653 21.39 255.24C21.39 255.68 21.2633 256.06 21.01 256.38C20.7633 256.7 20.42 256.9 19.98 256.98V256.82C20.4667 256.887 20.85 257.083 21.13 257.41C21.4167 257.73 21.56 258.133 21.56 258.62C21.56 259.24 21.3367 259.723 20.89 260.07C20.45 260.417 19.82 260.59 19 260.59ZM19 259.84C19.5667 259.84 19.9867 259.733 20.26 259.52C20.54 259.307 20.68 258.99 20.68 258.57C20.68 258.143 20.54 257.827 20.26 257.62C19.9867 257.413 19.5667 257.31 19 257.31C18.44 257.31 18.02 257.413 17.74 257.62C17.46 257.827 17.32 258.143 17.32 258.57C17.32 258.99 17.46 259.307 17.74 259.52C18.02 259.733 18.44 259.84 19 259.84ZM19 256.55C19.4867 256.55 19.8567 256.443 20.11 256.23C20.37 256.01 20.5 255.707 20.5 255.32C20.5 254.94 20.37 254.643 20.11 254.43C19.8567 254.217 19.4867 254.11 19 254.11C18.52 254.11 18.15 254.217 17.89 254.43C17.63 254.643 17.5 254.94 17.5 255.32C17.5 255.707 17.63 256.01 17.89 256.23C18.15 256.443 18.52 256.55 19 256.55ZM22.6061 260.5V259.39H23.7161V260.5H22.6061ZM26.8501 260.59C26.4767 260.59 26.1034 260.513 25.7301 260.36C25.3567 260.207 25.0467 260.003 24.8001 259.75L25.1401 259.04C25.3867 259.287 25.6567 259.473 25.9501 259.6C26.2501 259.727 26.5534 259.79 26.8601 259.79C27.5134 259.79 28.0167 259.557 28.3701 259.09C28.7234 258.617 28.9001 257.917 28.9001 256.99V256.1H29.0001C28.9601 256.467 28.8434 256.787 28.6501 257.06C28.4634 257.327 28.2267 257.533 27.9401 257.68C27.6534 257.827 27.3267 257.9 26.9601 257.9C26.5401 257.9 26.1667 257.803 25.8401 257.61C25.5134 257.417 25.2567 257.153 25.0701 256.82C24.8834 256.48 24.7901 256.093 24.7901 255.66C24.7901 255.213 24.8867 254.817 25.0801 254.47C25.2801 254.123 25.5534 253.853 25.9001 253.66C26.2467 253.46 26.6467 253.36 27.1001 253.36C27.9667 253.36 28.6334 253.663 29.1001 254.27C29.5667 254.87 29.8001 255.717 29.8001 256.81C29.8001 257.617 29.6801 258.303 29.4401 258.87C29.2067 259.43 28.8701 259.857 28.4301 260.15C27.9901 260.443 27.4634 260.59 26.8501 260.59ZM27.1601 257.13C27.4534 257.13 27.7101 257.067 27.9301 256.94C28.1567 256.813 28.3334 256.637 28.4601 256.41C28.5867 256.183 28.6501 255.923 28.6501 255.63C28.6501 255.33 28.5867 255.07 28.4601 254.85C28.3334 254.623 28.1567 254.447 27.9301 254.32C27.7101 254.187 27.4534 254.12 27.1601 254.12C26.8667 254.12 26.6067 254.187 26.3801 254.32C26.1601 254.447 25.9867 254.623 25.8601 254.85C25.7401 255.07 25.6801 255.33 25.6801 255.63C25.6801 255.923 25.7401 256.183 25.8601 256.41C25.9867 256.637 26.1601 256.813 26.3801 256.94C26.6067 257.067 26.8667 257.13 27.1601 257.13ZM33.3362 260.5H32.5362L36.7162 253.45H37.5262L33.3362 260.5ZM32.5662 257.67C32.0195 257.67 31.5895 257.48 31.2762 257.1C30.9695 256.713 30.8162 256.183 30.8162 255.51C30.8162 254.83 30.9728 254.303 31.2862 253.93C31.5995 253.55 32.0262 253.36 32.5662 253.36C33.1195 253.36 33.5495 253.553 33.8562 253.94C34.1695 254.32 34.3262 254.843 34.3262 255.51C34.3262 256.183 34.1695 256.713 33.8562 257.1C33.5495 257.48 33.1195 257.67 32.5662 257.67ZM32.5662 257.05C32.8728 257.05 33.1128 256.923 33.2862 256.67C33.4595 256.417 33.5462 256.03 33.5462 255.51C33.5462 254.997 33.4595 254.617 33.2862 254.37C33.1128 254.117 32.8728 253.99 32.5662 253.99C32.2662 253.99 32.0295 254.113 31.8562 254.36C31.6828 254.607 31.5962 254.99 31.5962 255.51C31.5962 256.037 31.6828 256.427 31.8562 256.68C32.0295 256.927 32.2662 257.05 32.5662 257.05ZM37.4862 260.59C36.9395 260.59 36.5095 260.4 36.1962 260.02C35.8895 259.633 35.7362 259.103 35.7362 258.43C35.7362 257.75 35.8928 257.223 36.2062 256.85C36.5195 256.47 36.9462 256.28 37.4862 256.28C38.0328 256.28 38.4628 256.47 38.7762 256.85C39.0895 257.23 39.2462 257.757 39.2462 258.43C39.2462 259.103 39.0895 259.633 38.7762 260.02C38.4628 260.4 38.0328 260.59 37.4862 260.59ZM37.4862 259.96C37.7928 259.96 38.0328 259.837 38.2062 259.59C38.3795 259.337 38.4662 258.95 38.4662 258.43C38.4662 257.91 38.3795 257.527 38.2062 257.28C38.0328 257.033 37.7928 256.91 37.4862 256.91C37.1862 256.91 36.9495 257.033 36.7762 257.28C36.6028 257.527 36.5162 257.91 36.5162 258.43C36.5162 258.95 36.6028 259.337 36.7762 259.59C36.9495 259.837 37.1862 259.96 37.4862 259.96Z" fill="#9CA3AF"/>
<line x1="56" y1="256.5" x2="529" y2="256.5" stroke="#F9FAFB"/>
<path d="M19 339.59C18.1933 339.59 17.5733 339.28 17.14 338.66C16.7067 338.033 16.49 337.137 16.49 335.97C16.49 334.783 16.7067 333.887 17.14 333.28C17.5733 332.667 18.1933 332.36 19 332.36C19.8133 332.36 20.4333 332.667 20.86 333.28C21.2933 333.887 21.51 334.78 21.51 335.96C21.51 337.133 21.2933 338.033 20.86 338.66C20.4267 339.28 19.8067 339.59 19 339.59ZM19 338.8C19.5333 338.8 19.93 338.57 20.19 338.11C20.4567 337.65 20.59 336.933 20.59 335.96C20.59 334.987 20.4567 334.277 20.19 333.83C19.93 333.377 19.5333 333.15 19 333.15C18.4733 333.15 18.0767 333.377 17.81 333.83C17.5433 334.277 17.41 334.987 17.41 335.96C17.41 336.933 17.5433 337.65 17.81 338.11C18.0767 338.57 18.4733 338.8 19 338.8ZM25.0061 339.5H24.2061L28.3861 332.45H29.1961L25.0061 339.5ZM24.2361 336.67C23.6894 336.67 23.2594 336.48 22.9461 336.1C22.6394 335.713 22.4861 335.183 22.4861 334.51C22.4861 333.83 22.6428 333.303 22.9561 332.93C23.2694 332.55 23.6961 332.36 24.2361 332.36C24.7894 332.36 25.2194 332.553 25.5261 332.94C25.8394 333.32 25.9961 333.843 25.9961 334.51C25.9961 335.183 25.8394 335.713 25.5261 336.1C25.2194 336.48 24.7894 336.67 24.2361 336.67ZM24.2361 336.05C24.5428 336.05 24.7828 335.923 24.9561 335.67C25.1294 335.417 25.2161 335.03 25.2161 334.51C25.2161 333.997 25.1294 333.617 24.9561 333.37C24.7828 333.117 24.5428 332.99 24.2361 332.99C23.9361 332.99 23.6994 333.113 23.5261 333.36C23.3528 333.607 23.2661 333.99 23.2661 334.51C23.2661 335.037 23.3528 335.427 23.5261 335.68C23.6994 335.927 23.9361 336.05 24.2361 336.05ZM29.1561 339.59C28.6094 339.59 28.1794 339.4 27.8661 339.02C27.5594 338.633 27.4061 338.103 27.4061 337.43C27.4061 336.75 27.5628 336.223 27.8761 335.85C28.1894 335.47 28.6161 335.28 29.1561 335.28C29.7028 335.28 30.1328 335.47 30.4461 335.85C30.7594 336.23 30.9161 336.757 30.9161 337.43C30.9161 338.103 30.7594 338.633 30.4461 339.02C30.1328 339.4 29.7028 339.59 29.1561 339.59ZM29.1561 338.96C29.4628 338.96 29.7028 338.837 29.8761 338.59C30.0494 338.337 30.1361 337.95 30.1361 337.43C30.1361 336.91 30.0494 336.527 29.8761 336.28C29.7028 336.033 29.4628 335.91 29.1561 335.91C28.8561 335.91 28.6194 336.033 28.4461 336.28C28.2728 336.527 28.1861 336.91 28.1861 337.43C28.1861 337.95 28.2728 338.337 28.4461 338.59C28.6194 338.837 28.8561 338.96 29.1561 338.96Z" fill="#9CA3AF"/>
<line x1="56" y1="335.5" x2="529" y2="335.5" stroke="#F9FAFB"/>
<path d="M56 168L536 168" stroke="#5C85D5" stroke-width="2" stroke-linecap="round" stroke-dasharray="5 5"/>
<rect x="112.5" y="244.5" width="91" height="91" rx="12.5" fill="url(#paint0_linear_5002_7219)" stroke="#A7BBE1"/>
<path d="M147.85 350V349.31L150.31 346.73C150.63 346.403 150.867 346.09 151.02 345.79C151.18 345.49 151.26 345.18 151.26 344.86C151.26 344.467 151.137 344.17 150.89 343.97C150.65 343.763 150.297 343.66 149.83 343.66C149.47 343.66 149.13 343.727 148.81 343.86C148.497 343.987 148.197 344.183 147.91 344.45L147.58 343.74C147.853 343.473 148.197 343.26 148.61 343.1C149.03 342.94 149.47 342.86 149.93 342.86C150.65 342.86 151.207 343.027 151.6 343.36C151.993 343.687 152.19 344.157 152.19 344.77C152.19 345.217 152.08 345.643 151.86 346.05C151.647 346.45 151.33 346.863 150.91 347.29L148.76 349.47V349.21H152.48V350H147.85ZM156.116 350.09C155.809 350.09 155.506 350.057 155.206 349.99C154.913 349.923 154.636 349.83 154.376 349.71C154.116 349.583 153.889 349.43 153.696 349.25L154.026 348.53C154.353 348.79 154.686 348.983 155.026 349.11C155.366 349.23 155.723 349.29 156.096 349.29C156.589 349.29 156.976 349.16 157.256 348.9C157.536 348.64 157.676 348.293 157.676 347.86C157.676 347.413 157.543 347.053 157.276 346.78C157.009 346.5 156.639 346.36 156.166 346.36C155.839 346.36 155.543 346.427 155.276 346.56C155.016 346.687 154.786 346.89 154.586 347.17H153.926V342.95H158.156V343.74H154.826V346.41H154.586C154.766 346.143 155.009 345.937 155.316 345.79C155.629 345.643 155.979 345.57 156.366 345.57C156.819 345.57 157.209 345.663 157.536 345.85C157.869 346.037 158.126 346.3 158.306 346.64C158.493 346.973 158.586 347.363 158.586 347.81C158.586 348.257 158.486 348.653 158.286 349C158.086 349.34 157.799 349.607 157.426 349.8C157.059 349.993 156.623 350.09 156.116 350.09ZM162.002 350H161.202L165.382 342.95H166.192L162.002 350ZM161.232 347.17C160.686 347.17 160.256 346.98 159.942 346.6C159.636 346.213 159.482 345.683 159.482 345.01C159.482 344.33 159.639 343.803 159.952 343.43C160.266 343.05 160.692 342.86 161.232 342.86C161.786 342.86 162.216 343.053 162.522 343.44C162.836 343.82 162.992 344.343 162.992 345.01C162.992 345.683 162.836 346.213 162.522 346.6C162.216 346.98 161.786 347.17 161.232 347.17ZM161.232 346.55C161.539 346.55 161.779 346.423 161.952 346.17C162.126 345.917 162.212 345.53 162.212 345.01C162.212 344.497 162.126 344.117 161.952 343.87C161.779 343.617 161.539 343.49 161.232 343.49C160.932 343.49 160.696 343.613 160.522 343.86C160.349 344.107 160.262 344.49 160.262 345.01C160.262 345.537 160.349 345.927 160.522 346.18C160.696 346.427 160.932 346.55 161.232 346.55ZM166.152 350.09C165.606 350.09 165.176 349.9 164.862 349.52C164.556 349.133 164.402 348.603 164.402 347.93C164.402 347.25 164.559 346.723 164.872 346.35C165.186 345.97 165.612 345.78 166.152 345.78C166.699 345.78 167.129 345.97 167.442 346.35C167.756 346.73 167.912 347.257 167.912 347.93C167.912 348.603 167.756 349.133 167.442 349.52C167.129 349.9 166.699 350.09 166.152 350.09ZM166.152 349.46C166.459 349.46 166.699 349.337 166.872 349.09C167.046 348.837 167.132 348.45 167.132 347.93C167.132 347.41 167.046 347.027 166.872 346.78C166.699 346.533 166.459 346.41 166.152 346.41C165.852 346.41 165.616 346.533 165.442 346.78C165.269 347.027 165.182 347.41 165.182 347.93C165.182 348.45 165.269 348.837 165.442 349.09C165.616 349.337 165.852 349.46 166.152 349.46Z" fill="#9CA3AF"/>
<rect x="234.5" y="207.5" width="91" height="128" rx="12.5" fill="url(#paint1_linear_5002_7219)" stroke="#A7BBE1"/>
<path d="M263.86 350V342.95H264.68L267.46 349.21H267.16L269.94 342.95H270.75V350H269.9V344.19H270.21L267.6 350H267.01L264.4 344.19H264.71V350H263.86ZM274.663 350.09C273.863 350.09 273.23 349.86 272.763 349.4C272.303 348.94 272.073 348.307 272.073 347.5C272.073 346.967 272.173 346.507 272.373 346.12C272.58 345.727 272.863 345.423 273.223 345.21C273.583 344.99 274.003 344.88 274.483 344.88C274.943 344.88 275.333 344.98 275.653 345.18C275.973 345.373 276.217 345.65 276.383 346.01C276.55 346.37 276.633 346.797 276.633 347.29V347.59H272.783V347.05H276.013L275.843 347.18C275.843 346.66 275.727 346.257 275.493 345.97C275.267 345.683 274.93 345.54 274.483 345.54C273.997 345.54 273.62 345.71 273.353 346.05C273.087 346.383 272.953 346.84 272.953 347.42V347.51C272.953 348.123 273.103 348.587 273.403 348.9C273.71 349.213 274.133 349.37 274.673 349.37C274.973 349.37 275.253 349.327 275.513 349.24C275.773 349.153 276.023 349.01 276.263 348.81L276.563 349.44C276.337 349.647 276.053 349.807 275.713 349.92C275.38 350.033 275.03 350.09 274.663 350.09ZM279.743 350.09C279.303 350.09 278.916 349.987 278.583 349.78C278.249 349.573 277.989 349.273 277.803 348.88C277.616 348.487 277.523 348.02 277.523 347.48C277.523 346.94 277.616 346.477 277.803 346.09C277.989 345.697 278.249 345.397 278.583 345.19C278.916 344.983 279.303 344.88 279.743 344.88C280.183 344.88 280.566 344.99 280.893 345.21C281.226 345.43 281.449 345.733 281.563 346.12H281.443V342.64H282.353V350H281.453V348.83H281.563C281.456 349.223 281.236 349.533 280.903 349.76C280.576 349.98 280.189 350.09 279.743 350.09ZM279.953 349.37C280.406 349.37 280.769 349.21 281.043 348.89C281.323 348.57 281.463 348.1 281.463 347.48C281.463 346.86 281.323 346.393 281.043 346.08C280.769 345.767 280.406 345.61 279.953 345.61C279.499 345.61 279.133 345.767 278.853 346.08C278.579 346.393 278.443 346.86 278.443 347.48C278.443 348.1 278.579 348.57 278.853 348.89C279.133 349.21 279.499 349.37 279.953 349.37ZM283.877 350V344.97H284.787V350H283.877ZM283.797 343.87V342.89H284.877V343.87H283.797ZM288.229 350.09C287.789 350.09 287.402 349.987 287.069 349.78C286.735 349.573 286.475 349.273 286.289 348.88C286.102 348.487 286.009 348.02 286.009 347.48C286.009 346.94 286.102 346.477 286.289 346.09C286.475 345.697 286.735 345.397 287.069 345.19C287.402 344.983 287.789 344.88 288.229 344.88C288.675 344.88 289.062 344.993 289.389 345.22C289.722 345.44 289.942 345.743 290.049 346.13H289.929L290.039 344.97H290.919C290.899 345.17 290.879 345.37 290.859 345.57C290.845 345.77 290.839 345.967 290.839 346.16V350H289.929V348.85H290.039C289.932 349.23 289.712 349.533 289.379 349.76C289.052 349.98 288.669 350.09 288.229 350.09ZM288.439 349.37C288.892 349.37 289.255 349.21 289.529 348.89C289.802 348.57 289.939 348.1 289.939 347.48C289.939 346.86 289.802 346.393 289.529 346.08C289.255 345.767 288.892 345.61 288.439 345.61C287.985 345.61 287.619 345.767 287.339 346.08C287.065 346.393 286.929 346.86 286.929 347.48C286.929 348.1 287.065 348.57 287.339 348.89C287.612 349.21 287.979 349.37 288.439 349.37ZM292.364 350V346.16C292.364 345.967 292.357 345.77 292.344 345.57C292.33 345.37 292.31 345.17 292.284 344.97H293.164L293.264 346.05H293.144C293.297 345.67 293.534 345.38 293.854 345.18C294.174 344.98 294.547 344.88 294.974 344.88C295.567 344.88 296.014 345.043 296.314 345.37C296.614 345.69 296.764 346.19 296.764 346.87V350H295.854V346.92C295.854 346.46 295.764 346.13 295.584 345.93C295.404 345.723 295.124 345.62 294.744 345.62C294.29 345.62 293.93 345.757 293.664 346.03C293.404 346.303 293.274 346.673 293.274 347.14V350H292.364Z" fill="#9CA3AF"/>
<rect x="356.5" y="163.5" width="91" height="172" rx="12.5" fill="url(#paint2_linear_5002_7219)" stroke="#A7BBE1"/>
<path d="M392.06 350L395.53 343.37V343.75H391.63V342.95H396.38V343.64L393.09 350H392.06ZM400.116 350.09C399.809 350.09 399.506 350.057 399.206 349.99C398.913 349.923 398.636 349.83 398.376 349.71C398.116 349.583 397.889 349.43 397.696 349.25L398.026 348.53C398.353 348.79 398.686 348.983 399.026 349.11C399.366 349.23 399.723 349.29 400.096 349.29C400.589 349.29 400.976 349.16 401.256 348.9C401.536 348.64 401.676 348.293 401.676 347.86C401.676 347.413 401.543 347.053 401.276 346.78C401.009 346.5 400.639 346.36 400.166 346.36C399.839 346.36 399.543 346.427 399.276 346.56C399.016 346.687 398.786 346.89 398.586 347.17H397.926V342.95H402.156V343.74H398.826V346.41H398.586C398.766 346.143 399.009 345.937 399.316 345.79C399.629 345.643 399.979 345.57 400.366 345.57C400.819 345.57 401.209 345.663 401.536 345.85C401.869 346.037 402.126 346.3 402.306 346.64C402.493 346.973 402.586 347.363 402.586 347.81C402.586 348.257 402.486 348.653 402.286 349C402.086 349.34 401.799 349.607 401.426 349.8C401.059 349.993 400.623 350.09 400.116 350.09ZM406.002 350H405.202L409.382 342.95H410.192L406.002 350ZM405.232 347.17C404.686 347.17 404.256 346.98 403.942 346.6C403.636 346.213 403.482 345.683 403.482 345.01C403.482 344.33 403.639 343.803 403.952 343.43C404.266 343.05 404.692 342.86 405.232 342.86C405.786 342.86 406.216 343.053 406.522 343.44C406.836 343.82 406.992 344.343 406.992 345.01C406.992 345.683 406.836 346.213 406.522 346.6C406.216 346.98 405.786 347.17 405.232 347.17ZM405.232 346.55C405.539 346.55 405.779 346.423 405.952 346.17C406.126 345.917 406.212 345.53 406.212 345.01C406.212 344.497 406.126 344.117 405.952 343.87C405.779 343.617 405.539 343.49 405.232 343.49C404.932 343.49 404.696 343.613 404.522 343.86C404.349 344.107 404.262 344.49 404.262 345.01C404.262 345.537 404.349 345.927 404.522 346.18C404.696 346.427 404.932 346.55 405.232 346.55ZM410.152 350.09C409.606 350.09 409.176 349.9 408.862 349.52C408.556 349.133 408.402 348.603 408.402 347.93C408.402 347.25 408.559 346.723 408.872 346.35C409.186 345.97 409.612 345.78 410.152 345.78C410.699 345.78 411.129 345.97 411.442 346.35C411.756 346.73 411.912 347.257 411.912 347.93C411.912 348.603 411.756 349.133 411.442 349.52C411.129 349.9 410.699 350.09 410.152 350.09ZM410.152 349.46C410.459 349.46 410.699 349.337 410.872 349.09C411.046 348.837 411.132 348.45 411.132 347.93C411.132 347.41 411.046 347.027 410.872 346.78C410.699 346.533 410.459 346.41 410.152 346.41C409.852 346.41 409.616 346.533 409.442 346.78C409.269 347.027 409.182 347.41 409.182 347.93C409.182 348.45 409.269 348.837 409.442 349.09C409.616 349.337 409.852 349.46 410.152 349.46Z" fill="#9CA3AF"/>
<defs>
<linearGradient id="paint0_linear_5002_7219" x1="158" y1="245" x2="158" y2="335" gradientUnits="userSpaceOnUse">
<stop stop-color="#EBF0FA"/>
<stop offset="1" stop-color="#BECEEE"/>
</linearGradient>
<linearGradient id="paint1_linear_5002_7219" x1="280" y1="208" x2="280" y2="335" gradientUnits="userSpaceOnUse">
<stop stop-color="#EBF0FA"/>
<stop offset="1" stop-color="#BECEEE"/>
</linearGradient>
<linearGradient id="paint2_linear_5002_7219" x1="402" y1="164" x2="402" y2="335" gradientUnits="userSpaceOnUse">
<stop stop-color="#EBF0FA"/>
<stop offset="1" stop-color="#BECEEE"/>
</linearGradient>
</defs>
</svg>
