<svg width="56" height="28" viewBox="0 0 56 28" fill="none" xmlns="http://www.w3.org/2000/svg">
<path d="M7.37491 15.1734C8.60454 16.3734 10.2727 17.1289 12.1157 17.1674C11.4194 18.1808 11.0134 19.4015 11.0134 20.723C11.0134 21.3749 11.1112 21.9971 11.2949 22.5867C10.8031 22.7912 10.2608 22.9067 9.68898 22.9067C7.36306 22.9067 5.46973 21.0134 5.46973 18.6874C5.46973 17.84 5.72157 17.0578 6.1512 16.4L6.15713 16.3941C6.63713 16.0682 7.05491 15.6504 7.38084 15.1704L7.37491 15.1734Z" fill="url(#paint0_linear_3746_11149)"/>
<path d="M22.504 20.7259C22.504 23.597 20.1721 25.9289 17.301 25.9289C15.2833 25.9289 13.5262 24.7733 12.6699 23.0815C12.584 22.9155 12.5099 22.7496 12.4477 22.5718C12.3736 22.3941 12.3173 22.2074 12.2699 22.0178C12.1603 21.6059 12.104 21.1704 12.104 20.7259C12.104 19.3126 12.6699 18.0326 13.5855 17.0963L13.6359 17.0459C13.7959 17.0163 13.9559 16.9778 14.1159 16.9363C14.2877 16.8859 14.4596 16.8326 14.6314 16.7704C15.4196 16.4889 16.1455 16.0741 16.7825 15.5526C16.9544 15.5348 17.1262 15.5229 17.304 15.5229C20.1751 15.5229 22.507 17.8548 22.507 20.7259H22.504Z" fill="url(#paint1_linear_3746_11149)"/>
<path d="M36.3616 22.7498C35.5794 25.3394 33.1705 27.2268 30.329 27.2268C26.8535 27.2268 24.0298 24.4031 24.0298 20.9275C24.0298 18.892 24.9957 17.0846 26.495 15.932C26.7409 15.9616 26.9927 15.9764 27.2446 15.9764C28.7142 15.9764 30.0742 15.4964 31.1735 14.6846C32.2757 14.8268 33.295 15.2683 34.1453 15.9142C34.0031 16.4505 33.929 17.0164 33.929 17.5942C33.929 19.6683 34.8772 21.5231 36.3646 22.7527L36.3616 22.7498Z" fill="url(#paint2_linear_3746_11149)"/>
<path d="M46.1899 17.7986C46.0803 20.7823 43.6181 23.1793 40.6048 23.1793C39.4966 23.1793 38.4655 22.8593 37.5973 22.2993C37.4255 22.1897 37.2596 22.0771 37.0996 21.9438C36.9277 21.8015 36.7618 21.6534 36.6018 21.4934C35.6181 20.486 35.0166 19.1141 35.0166 17.5941C35.0166 17.3186 35.0344 17.0519 35.0729 16.7882C35.1085 16.566 35.1529 16.3408 35.2092 16.1304C35.2596 15.9349 35.3248 15.7423 35.3988 15.5586C35.6744 14.8504 36.0892 14.2163 36.6107 13.6771C37.544 14.0949 38.5781 14.3289 39.6685 14.3289C41.1262 14.3289 42.4862 13.9112 43.6418 13.1912C43.8255 15.0608 44.7796 16.7023 46.187 17.7986H46.1899Z" fill="url(#paint3_linear_3746_11149)"/>
<path d="M55.8814 12.5276C55.8814 15.609 53.3777 18.1187 50.2962 18.1187C49.1851 18.1187 48.1451 17.7928 47.2769 17.2268C47.0695 17.0965 46.8769 16.9542 46.6873 16.7942C46.4354 16.5809 46.2014 16.3409 45.991 16.089L45.9851 16.0831C45.4932 15.4905 45.1258 14.7972 44.9154 14.0387L44.9095 14.0328C44.8177 13.7157 44.7614 13.3868 44.7258 13.049C44.708 12.8772 44.7051 12.7053 44.7051 12.5276V12.3913C44.7051 12.3913 44.7317 12.3676 44.7436 12.3557C45.991 11.2239 46.8473 9.67423 47.111 7.93794C48.0147 7.30683 49.1169 6.94238 50.2962 6.94238C53.3777 6.94238 55.8814 9.44609 55.8814 12.5276Z" fill="url(#paint4_linear_3746_11149)"/>
<path d="M22.8181 5.34516C22.8181 5.62072 22.7826 5.88739 22.7144 6.14516C22.5929 6.65479 22.35 7.11109 22.0181 7.49331C21.8078 7.74516 21.5559 7.96146 21.2744 8.13924C21.0848 8.26072 20.8863 8.36146 20.667 8.43553C20.3055 8.57776 19.9174 8.65183 19.5055 8.65183C19.384 8.65183 19.2655 8.6459 19.15 8.63405C18.9485 8.61035 18.7559 8.57183 18.5663 8.51257C18.3322 8.44442 18.1159 8.35257 17.9085 8.23701C16.9752 7.72739 16.3203 6.77924 16.2048 5.67702C16.1929 5.56739 16.187 5.45479 16.187 5.33924C16.187 5.21479 16.1929 5.08739 16.2107 4.96887C16.2344 4.76739 16.2729 4.57479 16.3322 4.39109C16.7381 3.02516 18.0063 2.02368 19.5055 2.02368C21.0048 2.02368 22.3292 3.06961 22.7026 4.49479C22.7648 4.71109 22.8003 4.93627 22.8063 5.17035C22.8181 5.22664 22.8181 5.2859 22.8181 5.3422V5.34516Z" fill="url(#paint5_linear_3746_11149)"/>
<path d="M46.1039 6.80896C46.1039 6.99266 46.0979 7.17044 46.0831 7.34822C46.0594 7.63266 46.012 7.92007 45.9557 8.19266C45.9557 8.19859 45.9498 8.19859 45.9498 8.19859C45.692 9.38377 45.1053 10.4416 44.2935 11.2771C44.1394 11.4371 43.9764 11.5912 43.8076 11.7275C43.7542 11.7719 43.7039 11.8134 43.6476 11.8519C43.5439 11.9378 43.4402 12.0178 43.3246 12.0919C43.1498 12.2193 42.9602 12.3349 42.7705 12.4416C41.852 12.9512 40.7942 13.2356 39.6713 13.2356C38.9453 13.2356 38.2431 13.1171 37.5913 12.889C37.3868 12.8208 37.1853 12.7408 36.9868 12.649H36.9809C36.7972 12.563 36.6194 12.4653 36.4476 12.3616C35.3335 11.7156 34.4298 10.7378 33.8698 9.56748C33.4698 8.73192 33.2476 7.79266 33.2476 6.80896C33.2476 6.72007 33.2476 6.62229 33.2476 6.53044C33.3987 3.11711 36.2224 0.385254 39.6683 0.385254C43.1142 0.385254 46.1009 3.26525 46.1009 6.80896H46.1039Z" fill="url(#paint6_linear_3746_11149)"/>
<path d="M18.1987 9.54966C18.2164 9.74226 18.2253 9.94374 18.2253 10.1423C18.2253 11.8697 17.4846 13.4311 16.2994 14.5186C15.6831 15.0904 14.9453 15.5289 14.1276 15.7926C13.9498 15.8548 13.7661 15.9082 13.5794 15.9467C13.4283 15.9823 13.2742 16.0089 13.1201 16.0326C13.0698 16.0386 13.0194 16.0445 12.9601 16.0504C12.7379 16.0771 12.5098 16.0889 12.2816 16.0889C10.8179 16.0889 9.47274 15.5526 8.43274 14.6667C8.27274 14.5334 8.12459 14.3911 7.9794 14.243C7.94681 14.2134 7.91718 14.1808 7.89644 14.1511C7.79274 14.0415 7.69496 13.9289 7.60311 13.8074C7.56459 13.7571 7.52311 13.7067 7.48459 13.6534C7.33051 13.443 7.18533 13.2148 7.06089 12.9808C6.64903 12.2311 6.39125 11.3778 6.34088 10.4741C6.34088 10.3674 6.33496 10.2578 6.33496 10.1423C6.33496 9.98226 6.34089 9.82818 6.35274 9.67411C6.36755 9.45781 6.39718 9.24744 6.4357 9.03411C6.95718 6.27855 9.38088 4.19263 12.2816 4.19263C13.3098 4.19263 14.2757 4.45337 15.1231 4.91855C15.1053 5.06077 15.0994 5.203 15.0994 5.34522C15.0994 7.31855 16.4031 8.99559 18.1987 9.54966Z" fill="url(#paint7_linear_3746_11149)"/>
<path d="M32.1541 6.80895C32.1541 7.86377 32.3703 8.86229 32.7644 9.77192C32.6518 11.2801 31.9259 12.6253 30.8326 13.5556C30.6044 13.7512 30.3585 13.929 30.1007 14.083H30.0681C30.0681 14.083 30.0622 14.083 30.0622 14.089C29.2266 14.5927 28.2903 14.883 27.2415 14.883H27.1111C26.8029 14.8771 26.5066 14.8445 26.2133 14.7853C23.6474 14.2993 21.6978 12.0415 21.6978 9.34229C21.6978 9.28007 21.6978 9.22377 21.7037 9.16155C23.0222 8.40007 23.9081 6.97488 23.9081 5.34525C23.9081 5.20895 23.9052 5.06673 23.8874 4.93044C24.8178 4.21932 25.9852 3.79858 27.2415 3.79858C29.3748 3.79858 31.2266 5.01044 32.1541 6.78229V6.80895Z" fill="url(#paint8_linear_3746_11149)"/>
<path d="M5.24162 10.1423C5.24162 11.7097 5.75717 13.1556 6.62532 14.323C6.61347 14.3467 6.59865 14.3675 6.58088 14.3912C6.28754 14.8889 5.86976 15.3008 5.38087 15.5912C4.85939 15.9112 4.24606 16.0889 3.59421 16.0889C1.68013 16.0889 0.118652 14.5304 0.118652 12.6075C0.118652 10.6845 1.68013 9.12598 3.59421 9.12598C4.20162 9.12598 4.77346 9.28005 5.27124 9.56153C5.24754 9.75413 5.24162 9.94968 5.24162 10.1423Z" fill="url(#paint9_linear_3746_11149)"/>
<defs>
<linearGradient id="paint0_linear_3746_11149" x1="5.21722" y1="18.3739" x2="12.4873" y2="18.3739" gradientUnits="userSpaceOnUse">
<stop stop-color="#52C2E6"/>
<stop offset="1" stop-color="#457ABD"/>
</linearGradient>
<linearGradient id="paint1_linear_3746_11149" x1="11.7088" y1="19.8319" x2="23.0887" y2="19.8319" gradientUnits="userSpaceOnUse">
<stop stop-color="#52C2E6"/>
<stop offset="1" stop-color="#457ABD"/>
</linearGradient>
<linearGradient id="paint2_linear_3746_11149" x1="23.5611" y1="19.8782" x2="37.0544" y2="19.8782" gradientUnits="userSpaceOnUse">
<stop stop-color="#52C2E6"/>
<stop offset="1" stop-color="#457ABD"/>
</linearGradient>
<linearGradient id="paint3_linear_3746_11149" x1="34.5921" y1="17.3271" x2="46.8148" y2="17.3271" gradientUnits="userSpaceOnUse">
<stop stop-color="#52C2E6"/>
<stop offset="1" stop-color="#457ABD"/>
</linearGradient>
<linearGradient id="paint4_linear_3746_11149" x1="44.2804" y1="11.5704" x2="56.5064" y2="11.5704" gradientUnits="userSpaceOnUse">
<stop stop-color="#52C2E6"/>
<stop offset="1" stop-color="#457ABD"/>
</linearGradient>
<linearGradient id="paint5_linear_3746_11149" x1="15.9351" y1="4.76832" x2="23.1889" y2="4.76832" gradientUnits="userSpaceOnUse">
<stop stop-color="#52C2E6"/>
<stop offset="1" stop-color="#457ABD"/>
</linearGradient>
<linearGradient id="paint6_linear_3746_11149" x1="32.7591" y1="5.70644" x2="46.8228" y2="5.70644" gradientUnits="userSpaceOnUse">
<stop stop-color="#52C2E6"/>
<stop offset="1" stop-color="#457ABD"/>
</linearGradient>
<linearGradient id="paint7_linear_3746_11149" x1="5.8832" y1="9.11875" x2="18.8903" y2="9.11875" gradientUnits="userSpaceOnUse">
<stop stop-color="#52C2E6"/>
<stop offset="1" stop-color="#457ABD"/>
</linearGradient>
<linearGradient id="paint8_linear_3746_11149" x1="21.2773" y1="8.38853" x2="33.3833" y2="8.38853" gradientUnits="userSpaceOnUse">
<stop stop-color="#52C2E6"/>
<stop offset="1" stop-color="#457ABD"/>
</linearGradient>
<linearGradient id="paint9_linear_3746_11149" x1="-0.128561" y1="12.0093" x2="6.98918" y2="12.0093" gradientUnits="userSpaceOnUse">
<stop stop-color="#52C2E6"/>
<stop offset="1" stop-color="#457ABD"/>
</linearGradient>
</defs>
</svg>
