<svg width="140" height="28" viewBox="0 0 140 28" fill="none" xmlns="http://www.w3.org/2000/svg">
<path d="M0 13.933V0.157434H5.80037C7.26849 0.157434 8.55964 0.446066 9.67384 1.02333C10.8011 1.60059 11.6728 2.40745 12.2889 3.44389C12.9181 4.48034 13.2327 5.68078 13.2327 7.04522C13.2327 8.40966 12.9181 9.61011 12.2889 10.6466C11.6728 11.683 10.8011 12.4899 9.67384 13.0671C8.55964 13.6444 7.26849 13.933 5.80037 13.933H0ZM1.96623 12.2209H5.6824C6.82281 12.2209 7.80592 12.0044 8.63174 11.5715C9.47066 11.1385 10.1195 10.535 10.5783 9.76098C11.0371 8.9738 11.2665 8.06855 11.2665 7.04522C11.2665 6.00877 11.0371 5.10352 10.5783 4.32947C10.1195 3.55541 9.47066 2.95191 8.63174 2.51896C7.80592 2.08602 6.82281 1.86954 5.6824 1.86954H1.96623V12.2209Z" fill="#266AE9"/>
<path d="M14.3778 13.933L20.6108 0.157434H22.5573L28.8099 13.933H26.7454L21.181 1.25948H21.9675L16.403 13.933H14.3778ZM17.0322 10.4891L17.5631 8.91477H25.3101L25.8803 10.4891H17.0322Z" fill="#266AE9"/>
<path d="M31.2727 13.933V0.157434H32.885L39.059 10.5678H38.1939L44.2892 0.157434H45.9015L45.9211 13.933H44.0336L44.0139 3.12902H44.4661L39.0393 12.2603H38.1349L32.6688 3.12902H33.1603V13.933H31.2727Z" fill="#266AE9"/>
<path d="M56.6746 14.0904C55.626 14.0904 54.6494 13.9133 53.745 13.5591C52.8536 13.2049 52.0802 12.7129 51.4248 12.0831C50.7694 11.4403 50.2582 10.6925 49.8912 9.8397C49.5241 8.98692 49.3406 8.05543 49.3406 7.04522C49.3406 6.03501 49.5241 5.10352 49.8912 4.25075C50.2582 3.39798 50.7694 2.65672 51.4248 2.02698C52.0802 1.38412 52.8536 0.885572 53.745 0.531343C54.6363 0.177114 55.6129 0 56.6746 0C57.7233 0 58.6868 0.177114 59.565 0.531343C60.4564 0.872453 61.2297 1.36444 61.8852 2.0073C62.5537 2.63704 63.0649 3.3783 63.4188 4.23107C63.7858 5.08384 63.9694 6.02189 63.9694 7.04522C63.9694 8.06855 63.7858 9.0066 63.4188 9.85938C63.0649 10.7122 62.5537 11.46 61.8852 12.1028C61.2297 12.7326 60.4564 13.2246 59.565 13.5788C58.6868 13.9199 57.7233 14.0904 56.6746 14.0904ZM56.6746 12.339C57.4349 12.339 58.1362 12.2078 58.7785 11.9454C59.4339 11.683 59.9976 11.3157 60.4695 10.8433C60.9545 10.3579 61.3281 9.79378 61.5902 9.15092C61.8655 8.50806 62.0031 7.80616 62.0031 7.04522C62.0031 6.28429 61.8655 5.58239 61.5902 4.93953C61.3281 4.29667 60.9545 3.73908 60.4695 3.26678C59.9976 2.78135 59.4339 2.40745 58.7785 2.14505C58.1362 1.88266 57.4349 1.75147 56.6746 1.75147C55.9013 1.75147 55.1869 1.88266 54.5315 2.14505C53.8892 2.40745 53.3255 2.78135 52.8405 3.26678C52.3555 3.73908 51.9754 4.29667 51.7001 4.93953C51.4379 5.58239 51.3069 6.28429 51.3069 7.04522C51.3069 7.80616 51.4379 8.50806 51.7001 9.15092C51.9754 9.79378 52.3555 10.3579 52.8405 10.8433C53.3255 11.3157 53.8892 11.683 54.5315 11.9454C55.1869 12.2078 55.9013 12.339 56.6746 12.339Z" fill="#266AE9"/>
<path d="M67.3842 13.933V0.157434H73.1846C74.6527 0.157434 75.9439 0.446066 77.0581 1.02333C78.1854 1.60059 79.0571 2.40745 79.6732 3.44389C80.3024 4.48034 80.6169 5.68078 80.6169 7.04522C80.6169 8.40966 80.3024 9.61011 79.6732 10.6466C79.0571 11.683 78.1854 12.4899 77.0581 13.0671C75.9439 13.6444 74.6527 13.933 73.1846 13.933H67.3842ZM69.3505 12.2209H73.0666C74.207 12.2209 75.1902 12.0044 76.016 11.5715C76.8549 11.1385 77.5038 10.535 77.9625 9.76098C78.4213 8.9738 78.6507 8.06855 78.6507 7.04522C78.6507 6.00877 78.4213 5.10352 77.9625 4.32947C77.5038 3.55541 76.8549 2.95191 76.016 2.51896C75.1902 2.08602 74.207 1.86954 73.0666 1.86954H69.3505V12.2209Z" fill="#266AE9"/>
<path d="M81.7621 13.933L87.995 0.157434H89.9416L96.1942 13.933H94.1296L88.5652 1.25948H89.3517L83.7873 13.933H81.7621ZM84.4165 10.4891L84.9474 8.91477H92.6943L93.2645 10.4891H84.4165Z" fill="#266AE9"/>
<path d="M98.657 13.933V0.157434H104.025C105.231 0.157434 106.26 0.347669 107.112 0.728138C107.964 1.10861 108.619 1.65963 109.078 2.38121C109.537 3.10278 109.766 3.96212 109.766 4.95921C109.766 5.9563 109.537 6.81563 109.078 7.53721C108.619 8.24567 107.964 8.79013 107.112 9.1706C106.26 9.55107 105.231 9.7413 104.025 9.7413H99.7384L100.623 8.83605V13.933H98.657ZM107.859 13.933L104.359 8.93445H106.463L110.002 13.933H107.859ZM100.623 9.03284L99.7384 8.06855H103.966C105.224 8.06855 106.175 7.7996 106.817 7.2617C107.472 6.71067 107.8 5.94318 107.8 4.95921C107.8 3.97524 107.472 3.2143 106.817 2.6764C106.175 2.13849 105.224 1.86954 103.966 1.86954H99.7384L100.623 0.885572V9.03284Z" fill="#266AE9"/>
<path d="M111.268 13.933L117.501 0.157434H119.448L125.7 13.933H123.636L118.071 1.25948H118.858L113.293 13.933H111.268ZM113.923 10.4891L114.454 8.91477H122.201L122.771 10.4891H113.923Z" fill="#266AE9"/>
<path d="M128.163 13.933V0.157434H129.775L138.879 11.4731H138.034V0.157434H140V13.933H138.388L129.284 2.61736H130.129V13.933H128.163Z" fill="#266AE9"/>
<path d="M63.0435 25.0756V25.3296L60.7783 24.2898L63.0435 23.2361V23.542H66.2907V21.8638H62.503V20.4228H66.4169V18.6465H60.3281V26.8505H66.5387V25.0742H63.042L63.0435 25.0756Z" fill="#18181B"/>
<path d="M76.021 18.6465L72.3308 22.8432L68.6291 18.6465H67.4922V26.8505H69.5696V22.491L71.9824 25.2818H72.6849L75.0978 22.491V26.8505H77.1751V18.6465H76.021Z" fill="#18181B"/>
<path d="M83.2364 18.5977H82.3518L78.0996 26.8508H80.3605L81.0028 25.5291H84.597L85.2306 26.8508H87.4987L83.2378 18.5977H83.2364ZM81.7282 24.0207L82.7905 21.8038L83.8672 24.0207H81.7282Z" fill="#18181B"/>
<path d="M65.6159 26.8352L65.5859 26.8496V26.8223L65.6159 26.8352Z" fill="#18181B"/>
<path d="M59.3527 25.0742V26.8491H53.1406V18.6465H59.2308V20.4214H55.3155V21.8624H56.8667V21.6576L57.314 21.8624L59.1032 22.6833V22.7113L57.3126 23.542L56.8667 23.7496V23.542H55.3155V25.0742H59.3527Z" fill="#18181B"/>
<path d="M52.1992 24.9292C52.1992 25.8974 51.8307 26.6621 51.1082 27.1994C50.3913 27.7298 49.4523 28.0006 48.3125 28.0006C47.1728 28.0006 46.2079 27.7298 45.4008 27.198C44.9922 26.9286 44.6753 26.5933 44.4517 26.1934C44.2266 25.7921 44.0947 25.3263 44.0546 24.8015L44.0488 24.7089H46.0803L46.0904 24.7847C46.1592 25.3431 46.4043 25.7318 46.8416 25.9731C47.2875 26.2173 47.7821 26.3435 48.3111 26.3435C48.8401 26.3435 49.2688 26.2313 49.6387 26.0124C50.0014 25.7977 50.1749 25.4848 50.1749 25.0569C50.1749 24.8296 50.1218 24.6261 50.0157 24.4507C49.9096 24.2767 49.729 24.1182 49.481 23.9821C49.2229 23.8404 48.9835 23.7309 48.7684 23.651C48.5534 23.5738 48.2351 23.47 47.8208 23.3479C46.6509 22.9873 45.7621 22.579 45.1771 22.1314C44.5793 21.6726 44.2739 21.0117 44.2739 20.16C44.2739 19.2297 44.6309 18.4973 45.3391 17.9838C46.0373 17.4744 46.9635 17.2148 48.0903 17.2148C49.1441 17.2148 50.053 17.4646 50.7885 17.9571C51.5325 18.4566 51.9526 19.2325 52.0343 20.2638L52.0429 20.3564H50.0487L50.0387 20.2835C49.9612 19.7938 49.739 19.4276 49.3763 19.196C49.005 18.9603 48.5735 18.8411 48.0932 18.8411C47.6129 18.8411 47.1814 18.9477 46.8187 19.1582C46.466 19.3616 46.2939 19.6647 46.2939 20.0828C46.2939 20.2596 46.3355 20.4238 46.4187 20.5655C46.5061 20.7156 46.6022 20.8391 46.7054 20.9345C46.8058 21.0299 46.9778 21.1253 47.2201 21.2236C47.4667 21.3232 47.6616 21.3975 47.8007 21.4453C47.9398 21.4916 48.172 21.5645 48.5118 21.6641C49.0294 21.8283 49.415 21.956 49.6587 22.043C49.9053 22.1314 50.225 22.2703 50.6121 22.4597C51.0064 22.6519 51.2988 22.8484 51.4795 23.042C51.6601 23.2356 51.8264 23.4966 51.9727 23.8193C52.1189 24.1449 52.1949 24.5167 52.1949 24.925L52.1992 24.9292Z" fill="#18181B"/>
<path d="M95.6626 24.9292C95.6626 25.8974 95.297 26.6621 94.5716 27.1994C93.8548 27.7298 92.9157 28.0006 91.7788 28.0006C90.6419 28.0006 89.6742 27.7298 88.867 27.198C88.0499 26.6606 87.5983 25.8539 87.5208 24.8015L87.5137 24.7089H89.5466L89.5552 24.7847C89.624 25.3431 89.8706 25.7318 90.3079 25.9731C90.7509 26.2173 91.2455 26.3435 91.7774 26.3435C92.3093 26.3435 92.7336 26.2313 93.1049 26.0124C93.4662 25.7977 93.6411 25.4848 93.6411 25.0569C93.6411 24.8296 93.5867 24.6261 93.4806 24.4507C93.3745 24.2767 93.1953 24.1182 92.9458 23.9821C92.6892 23.8404 92.4483 23.7309 92.2347 23.651C92.0182 23.5738 91.7 23.47 91.2856 23.3479C90.1172 22.9873 89.2283 22.579 88.642 22.1314C88.0441 21.6726 87.7388 21.0117 87.7388 20.16C87.7388 19.2297 88.0972 18.4973 88.804 17.9838C89.5022 17.4744 90.4283 17.2148 91.5552 17.2148C92.6118 17.2148 93.5193 17.4646 94.2547 17.9571C94.9974 18.4566 95.4189 19.2325 95.5006 20.2638L95.5078 20.3564H93.515L93.5021 20.2835C93.4246 19.7868 93.2082 19.4304 92.8397 19.196C92.4698 18.9603 92.0383 18.8411 91.558 18.8411C91.0777 18.8411 90.6462 18.9477 90.2835 19.1582C89.9294 19.3616 89.7588 19.6647 89.7588 20.0828C89.7588 20.2596 89.8004 20.4238 89.8835 20.5655C89.9695 20.7156 90.067 20.8391 90.1688 20.9345C90.2706 21.0299 90.4441 21.1253 90.6835 21.2236C90.9315 21.3232 91.1265 21.3975 91.2656 21.4453C91.4032 21.4916 91.6412 21.5645 91.9752 21.6641C92.4928 21.8283 92.8784 21.956 93.1221 22.043C93.3687 22.1314 93.6913 22.2703 94.0784 22.4597C94.4727 22.6519 94.7651 22.8484 94.9458 23.042C95.1264 23.2356 95.2927 23.4966 95.4375 23.8193C95.5852 24.1449 95.6597 24.5167 95.6597 24.925L95.6626 24.9292Z" fill="#18181B"/>
</svg>
