<svg width="133" height="27" viewBox="0 0 133 27" fill="none" xmlns="http://www.w3.org/2000/svg">
<path d="M0 13.216V0.149333H5.4931C6.88345 0.149333 8.10621 0.42311 9.16138 0.970666C10.229 1.51822 11.0545 2.28355 11.6379 3.26667C12.2338 4.24978 12.5317 5.38844 12.5317 6.68267C12.5317 7.97689 12.2338 9.11556 11.6379 10.0987C11.0545 11.0818 10.229 11.8471 9.16138 12.3947C8.10621 12.9422 6.88345 13.216 5.4931 13.216H0ZM1.86207 11.592H5.38138C6.46138 11.592 7.39241 11.3867 8.17448 10.976C8.96897 10.5653 9.58345 9.99289 10.0179 9.25867C10.4524 8.512 10.6697 7.65333 10.6697 6.68267C10.6697 5.69955 10.4524 4.84089 10.0179 4.10667C9.58345 3.37244 8.96897 2.8 8.17448 2.38933C7.39241 1.97867 6.46138 1.77333 5.38138 1.77333H1.86207V11.592Z" fill="#266AE9"/>
<path d="M13.6162 13.216L19.5189 0.149333H21.3624L27.2838 13.216H25.3286L20.0589 1.19467H20.8038L15.5341 13.216H13.6162ZM16.13 9.94933L16.6327 8.456H23.9693L24.5093 9.94933H16.13Z" fill="#266AE9"/>
<path d="M29.6161 13.216V0.149333H31.143L36.9899 10.024H36.1706L41.943 0.149333H43.4699L43.4885 13.216H41.7009L41.6823 2.968H42.1106L36.9713 11.6293H36.1147L30.9382 2.968H31.4037V13.216H29.6161Z" fill="#266AE9"/>
<path d="M53.6724 13.3653C52.6793 13.3653 51.7545 13.1973 50.8979 12.8613C50.0538 12.5253 49.3214 12.0587 48.7007 11.4613C48.08 10.8516 47.5958 10.1422 47.2483 9.33333C46.9007 8.52444 46.7269 7.64089 46.7269 6.68267C46.7269 5.72444 46.9007 4.84089 47.2483 4.032C47.5958 3.22311 48.08 2.52 48.7007 1.92267C49.3214 1.31289 50.0538 0.839999 50.8979 0.503999C51.742 0.168 52.6669 0 53.6724 0C54.6655 0 55.5779 0.168 56.4096 0.503999C57.2538 0.827555 57.9862 1.29422 58.6069 1.904C59.24 2.50133 59.7241 3.20444 60.0593 4.01333C60.4069 4.82222 60.5807 5.712 60.5807 6.68267C60.5807 7.65333 60.4069 8.54311 60.0593 9.352C59.7241 10.1609 59.24 10.8702 58.6069 11.48C57.9862 12.0773 57.2538 12.544 56.4096 12.88C55.5779 13.2036 54.6655 13.3653 53.6724 13.3653ZM53.6724 11.704C54.3924 11.704 55.0565 11.5796 55.6648 11.3307C56.2855 11.0818 56.8193 10.7333 57.2662 10.2853C57.7255 9.82489 58.0793 9.28978 58.3276 8.68C58.5883 8.07022 58.7186 7.40444 58.7186 6.68267C58.7186 5.96089 58.5883 5.29511 58.3276 4.68533C58.0793 4.07555 57.7255 3.54667 57.2662 3.09867C56.8193 2.63822 56.2855 2.28355 55.6648 2.03467C55.0565 1.78578 54.3924 1.66133 53.6724 1.66133C52.94 1.66133 52.2634 1.78578 51.6427 2.03467C51.0345 2.28355 50.5007 2.63822 50.0414 3.09867C49.582 3.54667 49.222 4.07555 48.9614 4.68533C48.7131 5.29511 48.5889 5.96089 48.5889 6.68267C48.5889 7.40444 48.7131 8.07022 48.9614 8.68C49.222 9.28978 49.582 9.82489 50.0414 10.2853C50.5007 10.7333 51.0345 11.0818 51.6427 11.3307C52.2634 11.5796 52.94 11.704 53.6724 11.704Z" fill="#266AE9"/>
<path d="M63.8147 13.216V0.149333H69.3078C70.6981 0.149333 71.9209 0.42311 72.976 0.970666C74.0436 1.51822 74.8691 2.28355 75.4526 3.26667C76.0484 4.24978 76.3464 5.38844 76.3464 6.68267C76.3464 7.97689 76.0484 9.11556 75.4526 10.0987C74.8691 11.0818 74.0436 11.8471 72.976 12.3947C71.9209 12.9422 70.6981 13.216 69.3078 13.216H63.8147ZM65.6767 11.592H69.196C70.276 11.592 71.2071 11.3867 71.9891 10.976C72.7836 10.5653 73.3981 9.99289 73.8326 9.25867C74.2671 8.512 74.4843 7.65333 74.4843 6.68267C74.4843 5.69955 74.2671 4.84089 73.8326 4.10667C73.3981 3.37244 72.7836 2.8 71.9891 2.38933C71.2071 1.97867 70.276 1.77333 69.196 1.77333H65.6767V11.592Z" fill="#266AE9"/>
<path d="M77.4308 13.216L83.3336 0.149333H85.177L91.0984 13.216H89.1432L83.8736 1.19467H84.6184L79.3488 13.216H77.4308ZM79.9446 9.94933L80.4474 8.456H87.7839L88.3239 9.94933H79.9446Z" fill="#266AE9"/>
<path d="M93.4308 13.216V0.149333H98.5142C99.6563 0.149333 100.631 0.329777 101.438 0.690667C102.245 1.05156 102.865 1.57422 103.3 2.25867C103.734 2.94311 103.951 3.75822 103.951 4.704C103.951 5.64978 103.734 6.46489 103.3 7.14933C102.865 7.82133 102.245 8.33778 101.438 8.69867C100.631 9.05956 99.6563 9.24 98.5142 9.24H94.4549L95.2928 8.38133V13.216H93.4308ZM102.145 13.216L98.8308 8.47467H100.823L104.175 13.216H102.145ZM95.2928 8.568L94.4549 7.65333H98.4584C99.6501 7.65333 100.55 7.39822 101.158 6.888C101.779 6.36533 102.089 5.63733 102.089 4.704C102.089 3.77067 101.779 3.04889 101.158 2.53867C100.55 2.02844 99.6501 1.77333 98.4584 1.77333H94.4549L95.2928 0.839999V8.568Z" fill="#266AE9"/>
<path d="M105.374 13.216L111.277 0.149333H113.12L119.042 13.216H117.086L111.817 1.19467H112.562L107.292 13.216H105.374ZM107.888 9.94933L108.391 8.456H115.727L116.267 9.94933H107.888Z" fill="#266AE9"/>
<path d="M121.374 13.216V0.149333H122.901L131.522 10.8827H130.722V0.149333H132.584V13.216H131.057L122.435 2.48267H123.236V13.216H121.374Z" fill="#266AE9"/>
<path d="M18.3625 23.7838V24.0247L16.2173 23.0385L18.3625 22.039V22.3291H21.4377V20.7373H17.8507V19.3705H21.5572V17.6855H15.791V25.4674H21.6726V23.7825H18.3612L18.3625 23.7838Z" fill="#18181B"/>
<path d="M30.6513 17.6855L27.1565 21.6663L23.6509 17.6855H22.5742V25.4674H24.5415V21.3323L26.8266 23.9794H27.4919L29.7769 21.3323V25.4674H31.7442V17.6855H30.6513Z" fill="#18181B"/>
<path d="M37.4838 17.6406H36.6461L32.6191 25.4691H34.7603L35.3685 24.2153H38.7723L39.3724 25.4691H41.5203L37.4852 17.6406H37.4838ZM36.0555 22.7846L37.0616 20.6818L38.0812 22.7846H36.0555Z" fill="#18181B"/>
<path d="M20.7982 25.4557L20.7695 25.4693V25.4434L20.7982 25.4557Z" fill="#18181B"/>
<path d="M14.8654 23.7825V25.4661H8.98242V17.6855H14.75V19.3692H11.0421V20.736H12.5111V20.5417L12.9347 20.736L14.6292 21.5146V21.5412L12.9334 22.3291L12.5111 22.5261V22.3291H11.0421V23.7825H14.8654Z" fill="#18181B"/>
<path d="M8.09165 23.6452C8.09165 24.5636 7.74271 25.2889 7.05843 25.7987C6.37957 26.3017 5.49027 26.5586 4.41089 26.5586C3.3315 26.5586 2.41776 26.3017 1.65337 25.7973C1.26642 25.5418 0.966367 25.2237 0.754564 24.8444C0.541403 24.4638 0.416493 24.0219 0.378477 23.5241L0.373047 23.4363H2.29693L2.30643 23.5082C2.3716 24.0379 2.60377 24.4065 3.01787 24.6354C3.44012 24.867 3.90853 24.9868 4.40953 24.9868C4.91052 24.9868 5.31648 24.8803 5.66677 24.6727C6.01027 24.4691 6.17456 24.1723 6.17456 23.7664C6.17456 23.5507 6.12432 23.3578 6.02385 23.1914C5.92338 23.0264 5.75231 22.876 5.51742 22.7469C5.27303 22.6125 5.0463 22.5086 4.84264 22.4328C4.63898 22.3596 4.33757 22.2611 3.94519 22.1453C2.8373 21.8033 1.99551 21.416 1.44157 20.9914C0.875401 20.5562 0.586208 19.9293 0.586208 19.1215C0.586208 18.2391 0.924278 17.5443 1.59499 17.0572C2.2562 16.5741 3.13328 16.3279 4.20044 16.3279C5.19836 16.3279 6.05915 16.5648 6.75566 17.0319C7.46031 17.5057 7.85812 18.2417 7.93551 19.22L7.94366 19.3078H6.05508L6.04557 19.2386C5.97226 18.7741 5.76181 18.4267 5.41831 18.2071C5.06666 17.9835 4.65799 17.8704 4.20316 17.8704C3.74832 17.8704 3.33965 17.9716 2.99615 18.1712C2.66215 18.3642 2.49923 18.6517 2.49923 19.0483C2.49923 19.216 2.5386 19.3717 2.61735 19.5061C2.70017 19.6485 2.79113 19.7656 2.88889 19.8561C2.98393 19.9466 3.14686 20.0371 3.37631 20.1303C3.60984 20.2248 3.79448 20.2953 3.92618 20.3406C4.05788 20.3845 4.27783 20.4537 4.59961 20.5482C5.08974 20.7039 5.45497 20.825 5.68578 20.9076C5.91931 20.9914 6.22208 21.1232 6.58866 21.3028C6.96203 21.4852 7.239 21.6715 7.41007 21.8552C7.58115 22.0388 7.73864 22.2864 7.87713 22.5925C8.01562 22.9013 8.08757 23.254 8.08757 23.6413L8.09165 23.6452Z" fill="#18181B"/>
<path d="M49.2524 23.6452C49.2524 24.5636 48.9062 25.2889 48.2192 25.7987C47.5403 26.3017 46.651 26.5586 45.5744 26.5586C44.4977 26.5586 43.5812 26.3017 42.8168 25.7973C42.0429 25.2876 41.6153 24.5223 41.5419 23.5241L41.5352 23.4363H43.4604L43.4685 23.5082C43.5337 24.0379 43.7672 24.4065 44.1813 24.6354C44.6009 24.867 45.0693 24.9868 45.573 24.9868C46.0767 24.9868 46.4786 24.8803 46.8302 24.6727C47.1724 24.4691 47.338 24.1723 47.338 23.7664C47.338 23.5507 47.2864 23.3578 47.186 23.1914C47.0855 23.0264 46.9158 22.876 46.6795 22.7469C46.4365 22.6125 46.2084 22.5086 46.0061 22.4328C45.8011 22.3596 45.4997 22.2611 45.1073 22.1453C44.0008 21.8033 43.159 21.416 42.6037 20.9914C42.0375 20.5562 41.7483 19.9293 41.7483 19.1215C41.7483 18.2391 42.0877 17.5443 42.7571 17.0572C43.4183 16.5741 44.2954 16.3279 45.3626 16.3279C46.3632 16.3279 47.2226 16.5648 47.9191 17.0319C48.6224 17.5057 49.0216 18.2417 49.099 19.22L49.1058 19.3078H47.2185L47.2063 19.2386C47.133 18.7674 46.928 18.4294 46.5791 18.2071C46.2288 17.9835 45.8201 17.8704 45.3653 17.8704C44.9104 17.8704 44.5018 17.9716 44.1583 18.1712C43.8229 18.3642 43.6613 18.6517 43.6613 19.0483C43.6613 19.216 43.7007 19.3717 43.7795 19.5061C43.8609 19.6485 43.9532 19.7656 44.0496 19.8561C44.146 19.9466 44.3103 20.0371 44.5371 20.1303C44.7719 20.2248 44.9566 20.2953 45.0883 20.3406C45.2186 20.3845 45.444 20.4537 45.7604 20.5482C46.2505 20.7039 46.6157 20.825 46.8465 20.9076C47.0801 20.9914 47.3855 21.1232 47.7521 21.3028C48.1255 21.4852 48.4025 21.6715 48.5735 21.8552C48.7446 22.0388 48.9021 22.2864 49.0392 22.5925C49.1791 22.9013 49.2497 23.254 49.2497 23.6413L49.2524 23.6452Z" fill="#18181B"/>
</svg>
