<svg width="90" height="40" viewBox="0 0 90 40" fill="none" xmlns="http://www.w3.org/2000/svg">
<g clip-path="url(#clip0_7365_42953)">
<mask id="path-1-inside-1_7365_42953" fill="white">
<path fill-rule="evenodd" clip-rule="evenodd" d="M15.1009 39.3181H14.8502C6.38661 38.5044 9.36311 25.5137 17.6699 29.2641L17.858 29.3269L17.2313 30.8978L16.9179 30.7721C10.1745 27.7026 10.0074 39.9496 17.1686 37.3073L17.4193 37.1816L17.8579 38.6269L17.7325 38.6898C17.3858 39.0113 15.764 39.3359 15.2888 39.3181H15.1009ZM21.931 32.9715H21.8056L21.6803 33.0343H21.4922L21.367 33.0972H21.3043L21.1789 33.1601L21.1162 33.2229L20.991 33.2858L20.9283 33.3486H20.8656L20.8029 33.4742L20.615 33.6628L20.5523 33.7884L20.427 33.9141V34.0398L20.3644 34.1026V34.2283L20.3017 34.354V34.4168L20.239 34.5425C20.1471 35.2755 20.1482 35.5102 20.239 36.2391L20.3017 36.3648V36.4277L20.3644 36.5533V36.679L20.4271 36.7418V36.8675L20.4897 36.9303L20.5524 36.9932L20.6151 37.1189L20.6778 37.1816L20.7404 37.2445L20.803 37.3073L20.8657 37.3702C21.0662 37.5712 21.3315 37.7398 21.6176 37.7471H22.3069C22.5356 37.7251 22.7664 37.6257 22.9335 37.433L23.0588 37.3701L23.1215 37.3072L23.1842 37.2444L23.2469 37.1816L23.3095 37.1188L23.3722 36.9931V36.9302L23.4348 36.8674L23.4975 36.7417V36.6789L23.5602 36.5532V36.4276L23.6228 36.3647V36.239C23.793 35.4986 23.7585 35.4389 23.6855 34.731L23.6228 34.5424V34.4168L23.5602 34.3539V34.2282L23.4975 34.1025V34.0397L23.4348 33.914L23.3721 33.8512V33.7883L23.3094 33.6627L23.1214 33.4741L23.0588 33.3485H22.9335L22.8081 33.2228L22.6828 33.16L22.6202 33.0971H22.4948L22.4321 33.0343H22.1816L22.0562 32.9715H21.931ZM21.931 39.3181H21.3043L21.1162 39.2553L20.9283 39.1924H20.7403L20.5523 39.1296L20.3644 39.0667L20.239 38.941L20.051 38.8782L19.863 38.8154L19.7377 38.6897L19.5497 38.5641L19.4244 38.4384L18.9231 37.9357C18.5064 37.2948 18.2088 36.5616 18.1712 35.7992V35.1708C18.2391 33.0773 19.438 31.7525 21.4922 31.4005H22.1816C26.9594 31.7252 26.8697 38.9422 22.3696 39.3181H21.931Z"/>
</mask>
<path fill-rule="evenodd" clip-rule="evenodd" d="M15.1009 39.3181H14.8502C6.38661 38.5044 9.36311 25.5137 17.6699 29.2641L17.858 29.3269L17.2313 30.8978L16.9179 30.7721C10.1745 27.7026 10.0074 39.9496 17.1686 37.3073L17.4193 37.1816L17.8579 38.6269L17.7325 38.6898C17.3858 39.0113 15.764 39.3359 15.2888 39.3181H15.1009ZM21.931 32.9715H21.8056L21.6803 33.0343H21.4922L21.367 33.0972H21.3043L21.1789 33.1601L21.1162 33.2229L20.991 33.2858L20.9283 33.3486H20.8656L20.8029 33.4742L20.615 33.6628L20.5523 33.7884L20.427 33.9141V34.0398L20.3644 34.1026V34.2283L20.3017 34.354V34.4168L20.239 34.5425C20.1471 35.2755 20.1482 35.5102 20.239 36.2391L20.3017 36.3648V36.4277L20.3644 36.5533V36.679L20.4271 36.7418V36.8675L20.4897 36.9303L20.5524 36.9932L20.6151 37.1189L20.6778 37.1816L20.7404 37.2445L20.803 37.3073L20.8657 37.3702C21.0662 37.5712 21.3315 37.7398 21.6176 37.7471H22.3069C22.5356 37.7251 22.7664 37.6257 22.9335 37.433L23.0588 37.3701L23.1215 37.3072L23.1842 37.2444L23.2469 37.1816L23.3095 37.1188L23.3722 36.9931V36.9302L23.4348 36.8674L23.4975 36.7417V36.6789L23.5602 36.5532V36.4276L23.6228 36.3647V36.239C23.793 35.4986 23.7585 35.4389 23.6855 34.731L23.6228 34.5424V34.4168L23.5602 34.3539V34.2282L23.4975 34.1025V34.0397L23.4348 33.914L23.3721 33.8512V33.7883L23.3094 33.6627L23.1214 33.4741L23.0588 33.3485H22.9335L22.8081 33.2228L22.6828 33.16L22.6202 33.0971H22.4948L22.4321 33.0343H22.1816L22.0562 32.9715H21.931ZM21.931 39.3181H21.3043L21.1162 39.2553L20.9283 39.1924H20.7403L20.5523 39.1296L20.3644 39.0667L20.239 38.941L20.051 38.8782L19.863 38.8154L19.7377 38.6897L19.5497 38.5641L19.4244 38.4384L18.9231 37.9357C18.5064 37.2948 18.2088 36.5616 18.1712 35.7992V35.1708C18.2391 33.0773 19.438 31.7525 21.4922 31.4005H22.1816C26.9594 31.7252 26.8697 38.9422 22.3696 39.3181H21.931Z" fill="#A1A1AA" stroke="#A1A1AA" stroke-width="5.6165" mask="url(#path-1-inside-1_7365_42953)"/>
<mask id="path-2-inside-2_7365_42953" fill="white">
<path fill-rule="evenodd" clip-rule="evenodd" d="M31.6435 39.1926V33.9771L31.5808 33.9142V33.7885L31.5181 33.7258V33.6629L31.4555 33.6001V33.5372H31.3928L31.3302 33.4743V33.4115L31.2675 33.3487L30.6409 33.0346H30.3275C29.9005 33.0126 29.4085 33.068 29.0117 33.2231L28.8237 33.286L28.6357 33.3488V33.6629L28.6983 39.1926H26.8812V33.0974L26.8185 32.9088V32.5947L26.7559 32.2805V32.1548L27.1319 32.0292C29.3062 31.2029 33.5265 30.6823 33.4606 34.1028V39.1926H31.6435ZM37.6591 39.444H37.1577L37.0324 39.3811H36.8444L36.7191 39.3182H36.5937L36.531 39.2555L36.4058 39.1926H36.3431L36.2177 39.1298L36.0925 39.0041L35.9671 38.9413L35.9044 38.8785L35.8418 38.8156L35.7792 38.7527L35.7165 38.627L35.6538 38.5643L35.5911 38.5014L35.5285 38.3757V38.3129L35.4032 38.0616V37.8731L35.3405 37.7473V33.1603L34.4633 33.0974V31.6521L35.3405 31.5893V29.5156H37.1577V31.5893H39.2883V33.1603H37.1577V37.4332L37.2204 37.496V37.6217L37.2831 37.6846H37.3458V37.7474H37.4085L37.4711 37.8103H37.5964L37.7218 37.8732H38.035L38.1603 37.8103H38.3484L38.5363 37.7474L38.7243 37.6846H38.8497L39.0376 37.6217L39.163 37.5589L39.7269 39.0042L39.4762 39.1299C38.8819 39.2859 38.3911 39.4168 37.7843 39.444H37.6591ZM44.6771 33.1603L44.5518 33.0974C43.6056 32.9308 43.4343 32.9277 42.484 33.1603L42.296 33.2231H42.3587V39.1926H40.5414V33.4116C40.506 33.0733 40.4715 32.7351 40.4161 32.4062V32.2805L40.7922 32.0919L41.2307 31.9034C41.8657 31.672 42.3242 31.6238 42.9226 31.4637H43.1733L43.3612 31.4008C43.8103 31.3809 44.5037 31.4207 44.9277 31.5265H45.0531L45.2411 31.5894L44.6771 33.1603ZM48.9381 32.9717H48.8128L48.6874 33.0346H48.4995L48.3741 33.0974H48.2488L48.1861 33.1603L48.0608 33.2231L47.9355 33.3488H47.8728L47.8102 33.4744L47.7475 33.5373L47.6222 33.663L47.5595 33.7886L47.4342 33.9143V34.0401L47.3716 34.1028L47.3089 34.2285V34.3542L47.2462 34.417V34.5427L47.1835 34.7313V36.0507L47.2462 36.2393V36.365L47.3089 36.4279V36.5535L47.3716 36.6792L47.4342 36.7421V36.8677L47.4969 36.9305L47.5596 36.9934L47.6223 37.1191L47.685 37.1818L47.7476 37.2447L47.8102 37.3076L47.8729 37.3704L48.0609 37.5589L48.1862 37.6217L48.2489 37.6846H48.3742L48.4995 37.7474H49.3767L49.5021 37.6846H49.6274L49.6901 37.6217L49.8155 37.5589L50.0034 37.3703L50.0661 37.3075L50.1915 37.2446L50.254 37.1818L50.3167 37.119V36.9933L50.3794 36.9304L50.4421 36.8676L50.5048 36.742V36.6791L50.5673 36.5534V36.4278L50.63 36.3649V36.2392L50.6927 36.0507V34.7312L50.63 34.5426V34.417L50.5673 34.3541V34.2284L50.5047 34.1027V34.04L50.442 33.9142L50.3166 33.7885V33.6629L50.1914 33.5372L50.066 33.4743L50.0033 33.3487H49.9406L49.8154 33.223L49.69 33.1602L49.6273 33.0973H49.5022L49.3768 33.0346H49.1888L49.0634 32.9717H48.9381ZM48.9381 39.3183H48.3116C46.4233 38.9989 45.2087 37.5159 45.1785 35.6108V35.1711C45.2369 33.067 46.4526 31.7474 48.4995 31.4007H49.1261C53.9333 31.6448 53.8758 38.9455 49.3768 39.3183H48.9381Z"/>
</mask>
<path fill-rule="evenodd" clip-rule="evenodd" d="M31.6435 39.1926V33.9771L31.5808 33.9142V33.7885L31.5181 33.7258V33.6629L31.4555 33.6001V33.5372H31.3928L31.3302 33.4743V33.4115L31.2675 33.3487L30.6409 33.0346H30.3275C29.9005 33.0126 29.4085 33.068 29.0117 33.2231L28.8237 33.286L28.6357 33.3488V33.6629L28.6983 39.1926H26.8812V33.0974L26.8185 32.9088V32.5947L26.7559 32.2805V32.1548L27.1319 32.0292C29.3062 31.2029 33.5265 30.6823 33.4606 34.1028V39.1926H31.6435ZM37.6591 39.444H37.1577L37.0324 39.3811H36.8444L36.7191 39.3182H36.5937L36.531 39.2555L36.4058 39.1926H36.3431L36.2177 39.1298L36.0925 39.0041L35.9671 38.9413L35.9044 38.8785L35.8418 38.8156L35.7792 38.7527L35.7165 38.627L35.6538 38.5643L35.5911 38.5014L35.5285 38.3757V38.3129L35.4032 38.0616V37.8731L35.3405 37.7473V33.1603L34.4633 33.0974V31.6521L35.3405 31.5893V29.5156H37.1577V31.5893H39.2883V33.1603H37.1577V37.4332L37.2204 37.496V37.6217L37.2831 37.6846H37.3458V37.7474H37.4085L37.4711 37.8103H37.5964L37.7218 37.8732H38.035L38.1603 37.8103H38.3484L38.5363 37.7474L38.7243 37.6846H38.8497L39.0376 37.6217L39.163 37.5589L39.7269 39.0042L39.4762 39.1299C38.8819 39.2859 38.3911 39.4168 37.7843 39.444H37.6591ZM44.6771 33.1603L44.5518 33.0974C43.6056 32.9308 43.4343 32.9277 42.484 33.1603L42.296 33.2231H42.3587V39.1926H40.5414V33.4116C40.506 33.0733 40.4715 32.7351 40.4161 32.4062V32.2805L40.7922 32.0919L41.2307 31.9034C41.8657 31.672 42.3242 31.6238 42.9226 31.4637H43.1733L43.3612 31.4008C43.8103 31.3809 44.5037 31.4207 44.9277 31.5265H45.0531L45.2411 31.5894L44.6771 33.1603ZM48.9381 32.9717H48.8128L48.6874 33.0346H48.4995L48.3741 33.0974H48.2488L48.1861 33.1603L48.0608 33.2231L47.9355 33.3488H47.8728L47.8102 33.4744L47.7475 33.5373L47.6222 33.663L47.5595 33.7886L47.4342 33.9143V34.0401L47.3716 34.1028L47.3089 34.2285V34.3542L47.2462 34.417V34.5427L47.1835 34.7313V36.0507L47.2462 36.2393V36.365L47.3089 36.4279V36.5535L47.3716 36.6792L47.4342 36.7421V36.8677L47.4969 36.9305L47.5596 36.9934L47.6223 37.1191L47.685 37.1818L47.7476 37.2447L47.8102 37.3076L47.8729 37.3704L48.0609 37.5589L48.1862 37.6217L48.2489 37.6846H48.3742L48.4995 37.7474H49.3767L49.5021 37.6846H49.6274L49.6901 37.6217L49.8155 37.5589L50.0034 37.3703L50.0661 37.3075L50.1915 37.2446L50.254 37.1818L50.3167 37.119V36.9933L50.3794 36.9304L50.4421 36.8676L50.5048 36.742V36.6791L50.5673 36.5534V36.4278L50.63 36.3649V36.2392L50.6927 36.0507V34.7312L50.63 34.5426V34.417L50.5673 34.3541V34.2284L50.5047 34.1027V34.04L50.442 33.9142L50.3166 33.7885V33.6629L50.1914 33.5372L50.066 33.4743L50.0033 33.3487H49.9406L49.8154 33.223L49.69 33.1602L49.6273 33.0973H49.5022L49.3768 33.0346H49.1888L49.0634 32.9717H48.9381ZM48.9381 39.3183H48.3116C46.4233 38.9989 45.2087 37.5159 45.1785 35.6108V35.1711C45.2369 33.067 46.4526 31.7474 48.4995 31.4007H49.1261C53.9333 31.6448 53.8758 38.9455 49.3768 39.3183H48.9381Z" fill="#A1A1AA" stroke="#A1A1AA" stroke-width="5.6165" mask="url(#path-2-inside-2_7365_42953)"/>
<mask id="path-3-inside-3_7365_42953" fill="white">
<path fill-rule="evenodd" clip-rule="evenodd" d="M55.6436 39.1928V28.0077H53.8264V39.1928H55.6436ZM59.2153 39.3185H59.0273C58.4613 39.3394 57.4608 39.1603 56.9595 38.9414L56.7089 38.8157L57.2102 37.4333L57.3982 37.4962L57.6488 37.559L57.8995 37.6847L58.0875 37.7476L58.338 37.8104H58.5888L58.7141 37.8732H59.3406L59.466 37.8103H59.5286C59.8451 37.7077 60.054 37.5716 60.1553 37.2448V36.9306C60.0414 35.9084 57.7563 35.8488 57.2102 34.7313L57.0848 34.6056L56.8968 34.0401V33.1604L56.9595 33.0347L57.0222 32.9718V32.8461L57.2102 32.4692L57.2729 32.4063L57.3356 32.2806L57.4608 32.2178L57.5235 32.1549L57.6489 32.0921L57.7115 31.9664L57.9621 31.8407L58.0247 31.7779H58.1501L58.5261 31.5894H58.5888L58.7141 31.5266H58.8394L58.9647 31.4637H59.2154L59.3407 31.4008H59.9673C60.478 31.4387 60.926 31.5748 61.4084 31.6523L61.6592 31.778L61.7219 31.8408L61.8472 31.9037L61.3458 33.286L61.1578 33.2232L60.9698 33.1603L60.7192 33.0975L60.5311 33.0347L60.2806 32.9718H59.9045L59.654 32.909H59.5913L59.5286 32.9718H59.2153L59.09 33.0347L59.0273 33.0976H58.9646L58.902 33.1604V33.2233L58.7767 33.349V33.5374L58.714 33.6003L58.7767 33.7259V33.8516L58.8394 33.9145L58.9021 34.0402L58.9647 34.1029L59.0901 34.1658L59.1527 34.2287L59.4034 34.3544L59.5286 34.4171L59.7167 34.48L59.8419 34.5428L60.4685 34.7942L60.6566 34.857L60.782 34.9199L60.9699 35.0456C61.6321 35.2927 62.1771 36.119 62.1604 36.805L62.2231 37.0564L62.1604 37.2448V37.4963L62.0977 37.6219V37.7476L61.8471 38.2502L61.7844 38.3131L61.7217 38.4388L61.5964 38.5017L61.5338 38.6273L61.4084 38.6901L61.2831 38.753L61.2204 38.8158L61.0951 38.8787C60.7714 39.0922 59.9599 39.3195 59.5913 39.3185H59.2153ZM2.00516 26.4367L1.81722 26.4996C1.40676 26.6504 0.977507 26.7383 0.56402 26.8766L0.3133 26.9395L0 25.3056L0.12536 25.2428H0.313401L0.43866 25.1799H0.56402L0.752061 25.1172H0.87732L1.00268 25.0543H1.12794L1.2533 24.9914L1.31598 24.9286H1.37866L1.50392 24.8657L1.5666 24.8029H1.62928L1.69196 24.7401L1.75464 24.6773L1.81722 24.6144L1.8799 24.5516V24.4887L2.00526 24.3631V24.3002L2.06794 24.2374V24.1745L2.13062 24.0489C2.19835 23.8457 2.28297 23.322 2.25588 23.1064V14.9375H4.13558V22.3523C4.23485 23.9494 3.88182 25.8021 2.1931 26.3739L2.00516 26.4367Z"/>
</mask>
<path fill-rule="evenodd" clip-rule="evenodd" d="M55.6436 39.1928V28.0077H53.8264V39.1928H55.6436ZM59.2153 39.3185H59.0273C58.4613 39.3394 57.4608 39.1603 56.9595 38.9414L56.7089 38.8157L57.2102 37.4333L57.3982 37.4962L57.6488 37.559L57.8995 37.6847L58.0875 37.7476L58.338 37.8104H58.5888L58.7141 37.8732H59.3406L59.466 37.8103H59.5286C59.8451 37.7077 60.054 37.5716 60.1553 37.2448V36.9306C60.0414 35.9084 57.7563 35.8488 57.2102 34.7313L57.0848 34.6056L56.8968 34.0401V33.1604L56.9595 33.0347L57.0222 32.9718V32.8461L57.2102 32.4692L57.2729 32.4063L57.3356 32.2806L57.4608 32.2178L57.5235 32.1549L57.6489 32.0921L57.7115 31.9664L57.9621 31.8407L58.0247 31.7779H58.1501L58.5261 31.5894H58.5888L58.7141 31.5266H58.8394L58.9647 31.4637H59.2154L59.3407 31.4008H59.9673C60.478 31.4387 60.926 31.5748 61.4084 31.6523L61.6592 31.778L61.7219 31.8408L61.8472 31.9037L61.3458 33.286L61.1578 33.2232L60.9698 33.1603L60.7192 33.0975L60.5311 33.0347L60.2806 32.9718H59.9045L59.654 32.909H59.5913L59.5286 32.9718H59.2153L59.09 33.0347L59.0273 33.0976H58.9646L58.902 33.1604V33.2233L58.7767 33.349V33.5374L58.714 33.6003L58.7767 33.7259V33.8516L58.8394 33.9145L58.9021 34.0402L58.9647 34.1029L59.0901 34.1658L59.1527 34.2287L59.4034 34.3544L59.5286 34.4171L59.7167 34.48L59.8419 34.5428L60.4685 34.7942L60.6566 34.857L60.782 34.9199L60.9699 35.0456C61.6321 35.2927 62.1771 36.119 62.1604 36.805L62.2231 37.0564L62.1604 37.2448V37.4963L62.0977 37.6219V37.7476L61.8471 38.2502L61.7844 38.3131L61.7217 38.4388L61.5964 38.5017L61.5338 38.6273L61.4084 38.6901L61.2831 38.753L61.2204 38.8158L61.0951 38.8787C60.7714 39.0922 59.9599 39.3195 59.5913 39.3185H59.2153ZM2.00516 26.4367L1.81722 26.4996C1.40676 26.6504 0.977507 26.7383 0.56402 26.8766L0.3133 26.9395L0 25.3056L0.12536 25.2428H0.313401L0.43866 25.1799H0.56402L0.752061 25.1172H0.87732L1.00268 25.0543H1.12794L1.2533 24.9914L1.31598 24.9286H1.37866L1.50392 24.8657L1.5666 24.8029H1.62928L1.69196 24.7401L1.75464 24.6773L1.81722 24.6144L1.8799 24.5516V24.4887L2.00526 24.3631V24.3002L2.06794 24.2374V24.1745L2.13062 24.0489C2.19835 23.8457 2.28297 23.322 2.25588 23.1064V14.9375H4.13558V22.3523C4.23485 23.9494 3.88182 25.8021 2.1931 26.3739L2.00516 26.4367Z" fill="#A1A1AA" stroke="#A1A1AA" stroke-width="5.6165" mask="url(#path-3-inside-3_7365_42953)"/>
<mask id="path-4-inside-4_7365_42953" fill="white">
<path fill-rule="evenodd" clip-rule="evenodd" d="M9.08623 19.0853H8.71015L8.58489 19.1482C8.24864 19.1826 8.05332 19.4278 7.77035 19.6508L7.70767 19.7137V19.8394L7.64499 19.9022L7.58231 20.0278L7.51963 20.0907V20.2164L7.45695 20.2793V20.4049L7.39427 20.4677V20.5935L7.33159 20.7819V21.0332L7.26901 21.2218V21.6616L7.33169 21.913C7.35151 22.3256 7.47586 22.7654 7.70767 23.1069V23.1697L7.77035 23.2326L7.83303 23.2955L7.89571 23.4211L8.02097 23.4839L8.08365 23.5468H8.14633L8.20901 23.6096L8.33427 23.6725L8.39695 23.7353H8.52231L8.58499 23.7981H8.83561L8.96097 23.861H9.21149L9.33685 23.7981H9.52489L9.65025 23.7352H9.71283L9.83819 23.6724L9.90087 23.6095L10.0262 23.5467H10.0888L10.2142 23.4211L10.2769 23.2954L10.3395 23.2325L10.4021 23.1696L10.4648 23.1068L10.5275 22.9812L10.5902 22.9183V22.7926L10.6528 22.7299L10.7155 22.6041V22.5413L10.7781 22.4156V22.29L10.8408 22.1014V20.8447L10.7781 20.5934V20.5305L10.7154 20.4048V20.2792L10.6527 20.2163L10.5901 20.0906V20.0277L10.5274 19.9021L10.4647 19.8393L10.4021 19.7764C10.2215 19.4498 9.87681 19.168 9.52489 19.1481L9.46221 19.0852L9.08623 19.0853ZM9.08623 25.369H8.64757C4.0701 25.014 4.19334 17.6012 8.83561 17.5143L9.08623 17.4515L9.27427 17.5143C13.9446 17.5133 14.1065 25.0381 9.52489 25.369H9.08623ZM18.8614 25.2434V20.1535L18.7987 20.0277V19.8393L18.736 19.7764L18.6108 19.5251L18.3601 19.2737L18.1095 19.1481H17.9842L17.8588 19.0852C17.2646 19.0455 16.7685 19.1512 16.2296 19.3995L16.0416 19.5252L15.8537 19.588V25.2434H14.0364V14.1211H15.8537V17.9542L16.1044 17.8913L16.4176 17.7656C17.3899 17.4703 18.4123 17.3573 19.3627 17.7028L19.4254 17.7656L19.5508 17.8285C20.312 18.2171 20.7309 19.2025 20.6786 20.0278V25.2434H18.8614ZM27.0075 25.2434V19.965L26.9448 19.9021V19.8393L26.8821 19.7764V19.7136C26.5553 19.4225 26.7955 19.5481 26.6314 19.3995H26.5687L26.4435 19.2738H26.3808L26.1302 19.1481H26.0048L25.8795 19.0852H25.5663C25.2947 19.0612 24.8206 19.1282 24.5637 19.2109L24.3756 19.2738L24.1876 19.3366L23.9997 19.3995V19.4623L24.0623 19.5252V25.2434H22.2451V19.2738C22.2702 19.0162 22.1501 18.6107 22.1198 18.3312V18.2055L22.5585 18.0798L22.9344 17.9541L23.3732 17.8285C23.748 17.7165 24.7422 17.4735 25.1276 17.5143H25.5663C26.1156 17.5185 26.3412 17.4849 26.8821 17.5772L27.1329 17.7029H27.2581L27.4462 17.7657L27.6968 17.8913L27.7595 17.9542L27.8848 18.0171L28.0101 18.1428L28.1354 18.2055L28.1981 18.3312L28.3234 18.3941L28.5114 18.771L28.6367 18.8967V19.0225L28.762 19.2738V19.4623L28.8247 19.6508V19.7765L28.8874 19.965V25.2434H27.0075ZM32.3964 25.369H32.2083C31.517 25.4067 30.857 25.2119 30.2032 24.992L29.8899 24.9291L30.4539 23.4839L30.6419 23.5468L30.8925 23.6725L31.0805 23.7353L31.3312 23.7981C31.9004 23.9803 31.9128 23.9133 32.4591 23.9238H32.6471L32.7724 23.861H32.835L32.9604 23.7981L33.0231 23.7352H33.0857L33.211 23.6724L33.2737 23.6095V23.4838L33.3364 23.4211L33.3991 23.2954V22.8556L33.3364 22.7927L33.211 22.5413L33.0857 22.4784L33.023 22.4156L32.8976 22.3528L32.5217 22.1642L32.3337 22.1014C31.8168 21.6815 31.2141 21.736 30.7672 21.159L30.3911 20.7818L30.3285 20.6562L30.2032 20.2792C29.9923 19.3178 30.0852 19.787 30.2032 19.0225L30.3285 18.771C30.6199 18.3144 30.574 18.2611 31.0805 18.0171L31.1432 17.8913L31.2685 17.8285H31.3938L31.5192 17.7656L31.5818 17.7028H31.7071L31.9578 17.5771H32.0831L32.2084 17.5143H32.647L32.8977 17.4515L33.0857 17.5143H33.6496L33.7749 17.5772H34.0883L34.3389 17.7029L34.5896 17.7657H34.7149L35.0908 17.9542L34.5896 19.3366L34.4015 19.2738L34.1508 19.2109L33.9629 19.1481L33.7123 19.0852C33.3112 19.0895 33.447 18.9785 32.835 19.0224H32.459L32.3964 19.0852H32.3337L32.271 19.1481H32.2083L32.1457 19.2109L32.083 19.2738L32.0204 19.3366V19.3995L31.9577 19.5252V19.7765L32.0204 19.9022V19.965L32.0831 20.0907L32.2084 20.1536L32.2711 20.2164L32.8977 20.5305L33.0857 20.5934L33.3991 20.7191C34.3462 21.1212 34.9666 21.3987 35.3414 22.4157V22.6671L35.4041 22.8556C35.4094 23.7531 35.3258 24.1458 34.6522 24.7406L34.5268 24.8035L34.4015 24.8664L34.3389 24.9921H34.2135L33.7123 25.2434H33.5869L33.4615 25.3062H33.3363C32.9969 25.3481 33.1274 25.3921 32.647 25.3691L32.3964 25.369Z"/>
</mask>
<path fill-rule="evenodd" clip-rule="evenodd" d="M9.08623 19.0853H8.71015L8.58489 19.1482C8.24864 19.1826 8.05332 19.4278 7.77035 19.6508L7.70767 19.7137V19.8394L7.64499 19.9022L7.58231 20.0278L7.51963 20.0907V20.2164L7.45695 20.2793V20.4049L7.39427 20.4677V20.5935L7.33159 20.7819V21.0332L7.26901 21.2218V21.6616L7.33169 21.913C7.35151 22.3256 7.47586 22.7654 7.70767 23.1069V23.1697L7.77035 23.2326L7.83303 23.2955L7.89571 23.4211L8.02097 23.4839L8.08365 23.5468H8.14633L8.20901 23.6096L8.33427 23.6725L8.39695 23.7353H8.52231L8.58499 23.7981H8.83561L8.96097 23.861H9.21149L9.33685 23.7981H9.52489L9.65025 23.7352H9.71283L9.83819 23.6724L9.90087 23.6095L10.0262 23.5467H10.0888L10.2142 23.4211L10.2769 23.2954L10.3395 23.2325L10.4021 23.1696L10.4648 23.1068L10.5275 22.9812L10.5902 22.9183V22.7926L10.6528 22.7299L10.7155 22.6041V22.5413L10.7781 22.4156V22.29L10.8408 22.1014V20.8447L10.7781 20.5934V20.5305L10.7154 20.4048V20.2792L10.6527 20.2163L10.5901 20.0906V20.0277L10.5274 19.9021L10.4647 19.8393L10.4021 19.7764C10.2215 19.4498 9.87681 19.168 9.52489 19.1481L9.46221 19.0852L9.08623 19.0853ZM9.08623 25.369H8.64757C4.0701 25.014 4.19334 17.6012 8.83561 17.5143L9.08623 17.4515L9.27427 17.5143C13.9446 17.5133 14.1065 25.0381 9.52489 25.369H9.08623ZM18.8614 25.2434V20.1535L18.7987 20.0277V19.8393L18.736 19.7764L18.6108 19.5251L18.3601 19.2737L18.1095 19.1481H17.9842L17.8588 19.0852C17.2646 19.0455 16.7685 19.1512 16.2296 19.3995L16.0416 19.5252L15.8537 19.588V25.2434H14.0364V14.1211H15.8537V17.9542L16.1044 17.8913L16.4176 17.7656C17.3899 17.4703 18.4123 17.3573 19.3627 17.7028L19.4254 17.7656L19.5508 17.8285C20.312 18.2171 20.7309 19.2025 20.6786 20.0278V25.2434H18.8614ZM27.0075 25.2434V19.965L26.9448 19.9021V19.8393L26.8821 19.7764V19.7136C26.5553 19.4225 26.7955 19.5481 26.6314 19.3995H26.5687L26.4435 19.2738H26.3808L26.1302 19.1481H26.0048L25.8795 19.0852H25.5663C25.2947 19.0612 24.8206 19.1282 24.5637 19.2109L24.3756 19.2738L24.1876 19.3366L23.9997 19.3995V19.4623L24.0623 19.5252V25.2434H22.2451V19.2738C22.2702 19.0162 22.1501 18.6107 22.1198 18.3312V18.2055L22.5585 18.0798L22.9344 17.9541L23.3732 17.8285C23.748 17.7165 24.7422 17.4735 25.1276 17.5143H25.5663C26.1156 17.5185 26.3412 17.4849 26.8821 17.5772L27.1329 17.7029H27.2581L27.4462 17.7657L27.6968 17.8913L27.7595 17.9542L27.8848 18.0171L28.0101 18.1428L28.1354 18.2055L28.1981 18.3312L28.3234 18.3941L28.5114 18.771L28.6367 18.8967V19.0225L28.762 19.2738V19.4623L28.8247 19.6508V19.7765L28.8874 19.965V25.2434H27.0075ZM32.3964 25.369H32.2083C31.517 25.4067 30.857 25.2119 30.2032 24.992L29.8899 24.9291L30.4539 23.4839L30.6419 23.5468L30.8925 23.6725L31.0805 23.7353L31.3312 23.7981C31.9004 23.9803 31.9128 23.9133 32.4591 23.9238H32.6471L32.7724 23.861H32.835L32.9604 23.7981L33.0231 23.7352H33.0857L33.211 23.6724L33.2737 23.6095V23.4838L33.3364 23.4211L33.3991 23.2954V22.8556L33.3364 22.7927L33.211 22.5413L33.0857 22.4784L33.023 22.4156L32.8976 22.3528L32.5217 22.1642L32.3337 22.1014C31.8168 21.6815 31.2141 21.736 30.7672 21.159L30.3911 20.7818L30.3285 20.6562L30.2032 20.2792C29.9923 19.3178 30.0852 19.787 30.2032 19.0225L30.3285 18.771C30.6199 18.3144 30.574 18.2611 31.0805 18.0171L31.1432 17.8913L31.2685 17.8285H31.3938L31.5192 17.7656L31.5818 17.7028H31.7071L31.9578 17.5771H32.0831L32.2084 17.5143H32.647L32.8977 17.4515L33.0857 17.5143H33.6496L33.7749 17.5772H34.0883L34.3389 17.7029L34.5896 17.7657H34.7149L35.0908 17.9542L34.5896 19.3366L34.4015 19.2738L34.1508 19.2109L33.9629 19.1481L33.7123 19.0852C33.3112 19.0895 33.447 18.9785 32.835 19.0224H32.459L32.3964 19.0852H32.3337L32.271 19.1481H32.2083L32.1457 19.2109L32.083 19.2738L32.0204 19.3366V19.3995L31.9577 19.5252V19.7765L32.0204 19.9022V19.965L32.0831 20.0907L32.2084 20.1536L32.2711 20.2164L32.8977 20.5305L33.0857 20.5934L33.3991 20.7191C34.3462 21.1212 34.9666 21.3987 35.3414 22.4157V22.6671L35.4041 22.8556C35.4094 23.7531 35.3258 24.1458 34.6522 24.7406L34.5268 24.8035L34.4015 24.8664L34.3389 24.9921H34.2135L33.7123 25.2434H33.5869L33.4615 25.3062H33.3363C32.9969 25.3481 33.1274 25.3921 32.647 25.3691L32.3964 25.369Z" fill="#A1A1AA" stroke="#A1A1AA" stroke-width="5.6165" mask="url(#path-4-inside-4_7365_42953)"/>
<mask id="path-5-inside-5_7365_42953" fill="white">
<path fill-rule="evenodd" clip-rule="evenodd" d="M40.0413 19.087H39.6652L39.54 19.1498H39.4773L39.3519 19.2127H39.2267L39.164 19.2754L39.1013 19.3383L38.9759 19.4012L38.6627 19.7153L38.6001 19.8411L38.5374 19.9039V20.0295L38.4747 20.0924L38.412 20.2181V20.2809L38.3493 20.4066V20.5951L38.2867 20.7836L38.224 21.0349V21.9146L38.3493 22.2917V22.5431L38.412 22.6059V22.7315L38.4747 22.7944L38.5374 22.9201V22.9829L38.6001 23.1086L38.6627 23.1714L38.7254 23.2343L38.7881 23.2971L38.8508 23.4227L38.976 23.5484H39.1014L39.1641 23.6113L39.2267 23.6742L39.352 23.737H39.4774L39.5401 23.7998H39.7906L39.9159 23.8626H40.104L40.2293 23.7998H40.4799L40.6052 23.7369H40.6679L40.7933 23.6741L40.9186 23.5483H41.0439L41.1692 23.4227L41.2319 23.297L41.2945 23.2342L41.3572 23.1713L41.4199 23.1085L41.4825 22.9828V22.92L41.5452 22.7943L41.6079 22.7315V22.6058L41.6705 22.543V22.4172L41.7332 22.2916V22.1031L41.7958 21.9146V21.0349L41.7332 20.8463V20.595L41.6705 20.5322V20.4065L41.6078 20.2808V20.218L41.5451 20.0923L41.4824 20.0294V19.9038L41.4198 19.8409L41.3571 19.7781L41.2945 19.6524L41.0438 19.4012L40.9185 19.3383L40.7932 19.2126H40.6678L40.6052 19.1497H40.4799L40.3545 19.0869L40.0413 19.087ZM40.0413 25.4335L39.7906 25.3707H39.6025C34.9928 25.0712 35.1078 17.5621 39.7906 17.516L40.0413 17.4531L40.2293 17.516H40.6679C41.6047 17.6626 41.9326 17.9329 42.6731 18.4585L42.7984 18.5842L42.9238 18.7099L42.9865 18.8985L43.1117 19.0241L43.2371 19.2127L43.2998 19.3383L43.425 19.5269L43.4877 19.7153L43.5504 19.8411L43.6757 20.218V20.4066L43.7383 20.5951L43.801 20.8463V21.6633C43.8073 22.3649 43.5451 23.2887 43.1117 23.8626L42.9864 23.9883L42.9237 24.1768C42.4057 24.6795 41.6078 25.2659 40.8558 25.3078L40.6678 25.3707H40.2292L40.0413 25.4335ZM49.8165 25.2451V20.2808L49.7538 20.1551V19.9666L49.6911 19.9038V19.7781L49.6284 19.7152V19.6524H49.5658L49.5032 19.5896V19.5268L49.3778 19.4011H49.3151V19.3382L49.2525 19.2753H49.1899L48.9392 19.1497H48.7512L48.6259 19.0869H48.3127C48.0453 19.0607 47.3634 19.1739 47.122 19.2754L46.934 19.3383L46.8086 19.4012V25.2451H44.9915V19.2754C45.0364 18.6334 44.8902 18.8659 44.9288 18.3329L44.8662 18.2072L45.7435 17.9558L46.1195 17.8302C46.4944 17.7181 47.4886 17.4751 47.874 17.516H48.1247L48.3127 17.4531L48.5006 17.516H49.3152L49.4406 17.5788H49.6285L49.8792 17.7045H50.0672C51.0426 18.1077 51.5804 18.9236 51.6337 19.9667V25.2451H49.8165Z"/>
</mask>
<path fill-rule="evenodd" clip-rule="evenodd" d="M40.0413 19.087H39.6652L39.54 19.1498H39.4773L39.3519 19.2127H39.2267L39.164 19.2754L39.1013 19.3383L38.9759 19.4012L38.6627 19.7153L38.6001 19.8411L38.5374 19.9039V20.0295L38.4747 20.0924L38.412 20.2181V20.2809L38.3493 20.4066V20.5951L38.2867 20.7836L38.224 21.0349V21.9146L38.3493 22.2917V22.5431L38.412 22.6059V22.7315L38.4747 22.7944L38.5374 22.9201V22.9829L38.6001 23.1086L38.6627 23.1714L38.7254 23.2343L38.7881 23.2971L38.8508 23.4227L38.976 23.5484H39.1014L39.1641 23.6113L39.2267 23.6742L39.352 23.737H39.4774L39.5401 23.7998H39.7906L39.9159 23.8626H40.104L40.2293 23.7998H40.4799L40.6052 23.7369H40.6679L40.7933 23.6741L40.9186 23.5483H41.0439L41.1692 23.4227L41.2319 23.297L41.2945 23.2342L41.3572 23.1713L41.4199 23.1085L41.4825 22.9828V22.92L41.5452 22.7943L41.6079 22.7315V22.6058L41.6705 22.543V22.4172L41.7332 22.2916V22.1031L41.7958 21.9146V21.0349L41.7332 20.8463V20.595L41.6705 20.5322V20.4065L41.6078 20.2808V20.218L41.5451 20.0923L41.4824 20.0294V19.9038L41.4198 19.8409L41.3571 19.7781L41.2945 19.6524L41.0438 19.4012L40.9185 19.3383L40.7932 19.2126H40.6678L40.6052 19.1497H40.4799L40.3545 19.0869L40.0413 19.087ZM40.0413 25.4335L39.7906 25.3707H39.6025C34.9928 25.0712 35.1078 17.5621 39.7906 17.516L40.0413 17.4531L40.2293 17.516H40.6679C41.6047 17.6626 41.9326 17.9329 42.6731 18.4585L42.7984 18.5842L42.9238 18.7099L42.9865 18.8985L43.1117 19.0241L43.2371 19.2127L43.2998 19.3383L43.425 19.5269L43.4877 19.7153L43.5504 19.8411L43.6757 20.218V20.4066L43.7383 20.5951L43.801 20.8463V21.6633C43.8073 22.3649 43.5451 23.2887 43.1117 23.8626L42.9864 23.9883L42.9237 24.1768C42.4057 24.6795 41.6078 25.2659 40.8558 25.3078L40.6678 25.3707H40.2292L40.0413 25.4335ZM49.8165 25.2451V20.2808L49.7538 20.1551V19.9666L49.6911 19.9038V19.7781L49.6284 19.7152V19.6524H49.5658L49.5032 19.5896V19.5268L49.3778 19.4011H49.3151V19.3382L49.2525 19.2753H49.1899L48.9392 19.1497H48.7512L48.6259 19.0869H48.3127C48.0453 19.0607 47.3634 19.1739 47.122 19.2754L46.934 19.3383L46.8086 19.4012V25.2451H44.9915V19.2754C45.0364 18.6334 44.8902 18.8659 44.9288 18.3329L44.8662 18.2072L45.7435 17.9558L46.1195 17.8302C46.4944 17.7181 47.4886 17.4751 47.874 17.516H48.1247L48.3127 17.4531L48.5006 17.516H49.3152L49.4406 17.5788H49.6285L49.8792 17.7045H50.0672C51.0426 18.1077 51.5804 18.9236 51.6337 19.9667V25.2451H49.8165Z" fill="#A1A1AA" stroke="#A1A1AA" stroke-width="5.6165" mask="url(#path-5-inside-5_7365_42953)"/>
<mask id="path-6-inside-6_7365_42953" fill="white">
<path fill-rule="evenodd" clip-rule="evenodd" d="M85.5348 4.31977L85.4094 4.1313L85.2215 4.00559L85.0961 3.81702L84.9081 3.69141L84.5322 3.87997C82.7735 4.79849 81.0899 5.83105 79.7699 7.33605L79.4565 7.58737L79.5819 8.09012C80.1657 13.0375 79.9955 17.4697 78.266 22.1657L78.1406 22.4171L78.3287 22.7312C79.0681 24.0268 80.5333 25.6323 81.7751 26.4387L82.0885 26.69L82.2764 26.5642C82.6356 26.3046 83.0941 26.1726 83.279 25.936L83.467 25.8103L83.2163 25.5589C78.0101 19.0741 78.8467 9.96992 85.2215 4.57119L85.5348 4.31977Z"/>
</mask>
<path fill-rule="evenodd" clip-rule="evenodd" d="M85.5348 4.31977L85.4094 4.1313L85.2215 4.00559L85.0961 3.81702L84.9081 3.69141L84.5322 3.87997C82.7735 4.79849 81.0899 5.83105 79.7699 7.33605L79.4565 7.58737L79.5819 8.09012C80.1657 13.0375 79.9955 17.4697 78.266 22.1657L78.1406 22.4171L78.3287 22.7312C79.0681 24.0268 80.5333 25.6323 81.7751 26.4387L82.0885 26.69L82.2764 26.5642C82.6356 26.3046 83.0941 26.1726 83.279 25.936L83.467 25.8103L83.2163 25.5589C78.0101 19.0741 78.8467 9.96992 85.2215 4.57119L85.5348 4.31977Z" fill="#A1A1AA"/>
<path d="M85.5348 4.31977L87.2924 6.50996L89.2952 4.90268L87.873 2.76448L85.5348 4.31977ZM85.4094 4.1313L87.7476 2.57601L87.437 2.10896L86.9707 1.79709L85.4094 4.1313ZM85.2215 4.00559L82.8828 5.56029L83.1936 6.02772L83.6601 6.33979L85.2215 4.00559ZM85.0961 3.81702L87.4347 2.26231L87.1235 1.79414L86.656 1.48186L85.0961 3.81702ZM84.9081 3.69141L86.468 1.35625L85.1093 0.448638L83.6488 1.18131L84.9081 3.69141ZM84.5322 3.87997L83.2729 1.36988L83.2525 1.38016L83.2321 1.39077L84.5322 3.87997ZM79.7699 7.33605L81.5268 9.52686L81.7188 9.37286L81.8811 9.1878L79.7699 7.33605ZM79.4565 7.58737L77.6996 5.39656L76.2966 6.52173L76.7317 8.2668L79.4565 7.58737ZM79.5819 8.09012L82.3708 7.761L82.3499 7.58381L82.3067 7.41069L79.5819 8.09012ZM78.266 22.1657L80.779 23.4192L80.8479 23.2811L80.9012 23.1362L78.266 22.1657ZM78.1406 22.4171L75.6276 21.1636L74.9412 22.5397L75.731 23.8592L78.1406 22.4171ZM78.3287 22.7312L80.7676 21.3392L80.7532 21.314L80.7383 21.2891L78.3287 22.7312ZM81.7751 26.4387L83.5315 24.2476L83.4222 24.1599L83.3046 24.0836L81.7751 26.4387ZM82.0885 26.69L80.332 28.8811L81.9385 30.1689L83.6498 29.0242L82.0885 26.69ZM82.2764 26.5642L83.8377 28.8985L83.8801 28.8701L83.9215 28.8402L82.2764 26.5642ZM83.279 25.936L81.7182 23.6014L81.3436 23.8518L81.0662 24.2069L83.279 25.936ZM83.467 25.8103L85.0278 28.1448L87.8677 26.2462L85.4555 23.8273L83.467 25.8103ZM83.2163 25.5589L81.0265 27.3169L81.1211 27.4348L81.2278 27.5418L83.2163 25.5589ZM85.2215 4.57119L83.4638 2.38099L83.4349 2.40421L83.4066 2.42819L85.2215 4.57119ZM85.5348 4.31977L87.873 2.76448L87.7476 2.57601L85.4094 4.1313L83.0712 5.68658L83.1965 5.87505L85.5348 4.31977ZM85.4094 4.1313L86.9707 1.79709L86.7828 1.67138L85.2215 4.00559L83.6601 6.33979L83.8481 6.4655L85.4094 4.1313ZM85.2215 4.00559L87.5601 2.45088L87.4347 2.26231L85.0961 3.81702L82.7575 5.37172L82.8828 5.56029L85.2215 4.00559ZM85.0961 3.81702L86.656 1.48186L86.468 1.35625L84.9081 3.69141L83.3482 6.02657L83.5362 6.15218L85.0961 3.81702ZM84.9081 3.69141L83.6488 1.18131L83.2729 1.36988L84.5322 3.87997L85.7914 6.39007L86.1673 6.2015L84.9081 3.69141ZM84.5322 3.87997L83.2321 1.39077C81.3911 2.3523 79.33 3.57878 77.6587 5.4843L79.7699 7.33605L81.8811 9.1878C82.8499 8.08332 84.1559 7.24467 85.8322 6.36918L84.5322 3.87997ZM79.7699 7.33605L78.013 5.14524L77.6996 5.39656L79.4565 7.58737L81.2134 9.77819L81.5268 9.52686L79.7699 7.33605ZM79.4565 7.58737L76.7317 8.2668L76.857 8.76955L79.5819 8.09012L82.3067 7.41069L82.1813 6.90794L79.4565 7.58737ZM79.5819 8.09012L76.793 8.41923C77.3432 13.0823 77.1613 17.0393 75.6308 21.1952L78.266 22.1657L80.9012 23.1362C82.8296 17.9 82.9882 12.9927 82.3708 7.761L79.5819 8.09012ZM78.266 22.1657L75.753 20.9123L75.6276 21.1636L78.1406 22.4171L80.6536 23.6705L80.779 23.4192L78.266 22.1657ZM78.1406 22.4171L75.731 23.8592L75.919 24.1734L78.3287 22.7312L80.7383 21.2891L80.5503 20.9749L78.1406 22.4171ZM78.3287 22.7312L75.8897 24.1233C76.8305 25.7717 78.5948 27.7218 80.2455 28.7939L81.7751 26.4387L83.3046 24.0836C82.4718 23.5427 81.3056 22.2819 80.7676 21.3392L78.3287 22.7312ZM81.7751 26.4387L80.0186 28.6299L80.332 28.8811L82.0885 26.69L83.8449 24.4988L83.5315 24.2476L81.7751 26.4387ZM82.0885 26.69L83.6498 29.0242L83.8377 28.8985L82.2764 26.5642L80.7151 24.23L80.5271 24.3558L82.0885 26.69ZM82.2764 26.5642L83.9215 28.8402C83.8871 28.8651 83.8354 28.8908 84.1393 28.7327C84.2442 28.6781 84.4436 28.5733 84.652 28.4344C84.856 28.2985 85.1891 28.0525 85.4917 27.6651L83.279 25.936L81.0662 24.2069C81.1762 24.0661 81.282 23.9641 81.3602 23.8965C81.4382 23.829 81.5021 23.7842 81.5376 23.7605C81.5564 23.748 81.5708 23.739 81.5797 23.7336C81.5843 23.7309 81.5878 23.7288 81.59 23.7275C81.5923 23.7262 81.5935 23.7255 81.5936 23.7255C81.5936 23.7254 81.5927 23.7259 81.5907 23.727C81.5887 23.7281 81.5857 23.7297 81.5817 23.7319C81.5735 23.7363 81.5623 23.7422 81.5468 23.7503C81.5048 23.7722 81.4833 23.7829 81.4157 23.8178C81.3611 23.846 81.2903 23.8828 81.2136 23.9246C81.0631 24.0067 80.8541 24.1273 80.6313 24.2883L82.2764 26.5642ZM83.279 25.936L84.8398 28.2706L85.0278 28.1448L83.467 25.8103L81.9062 23.4757L81.7182 23.6014L83.279 25.936ZM83.467 25.8103L85.4555 23.8273L85.2048 23.5759L83.2163 25.5589L81.2278 27.5418L81.4785 27.7932L83.467 25.8103ZM83.2163 25.5589L85.4061 23.8008C81.1475 18.4963 81.8299 11.1235 87.0363 6.71419L85.2215 4.57119L83.4066 2.42819C75.8635 8.81634 74.8727 19.652 81.0265 27.3169L83.2163 25.5589ZM85.2215 4.57119L86.9791 6.76139L87.2924 6.50996L85.5348 4.31977L83.7771 2.12957L83.4638 2.38099L85.2215 4.57119Z" fill="#A1A1AA" mask="url(#path-6-inside-6_7365_42953)"/>
<mask id="path-8-inside-7_7365_42953" fill="white">
<path fill-rule="evenodd" clip-rule="evenodd" d="M82.2742 1.80708L81.8981 1.55565L81.7102 1.4928L81.5221 1.36719L81.0836 1.55576C80.3316 1.99768 79.5348 2.35687 78.8278 2.87533L78.5144 3.0639L78.5771 3.31512L78.9531 4.82326L79.0158 5.07469L79.3917 4.63469C80.129 3.74356 81.0105 2.98736 81.8355 2.18411L82.2742 1.80708ZM78.1385 28.0732L78.3891 28.0104C78.9342 27.9265 79.1787 27.8418 79.705 27.6961L79.893 27.6333L79.5796 27.1935C78.8403 26.3965 78.1259 25.5649 77.5745 24.6172L77.2612 24.1772L77.0732 24.4286C76.9354 24.9375 76.3276 25.5493 76.1332 25.9367L75.9453 26.1881L76.196 26.4395C76.7379 27.0457 77.2757 27.3695 77.8878 27.8847L78.1385 28.0732Z"/>
</mask>
<path fill-rule="evenodd" clip-rule="evenodd" d="M82.2742 1.80708L81.8981 1.55565L81.7102 1.4928L81.5221 1.36719L81.0836 1.55576C80.3316 1.99768 79.5348 2.35687 78.8278 2.87533L78.5144 3.0639L78.5771 3.31512L78.9531 4.82326L79.0158 5.07469L79.3917 4.63469C80.129 3.74356 81.0105 2.98736 81.8355 2.18411L82.2742 1.80708ZM78.1385 28.0732L78.3891 28.0104C78.9342 27.9265 79.1787 27.8418 79.705 27.6961L79.893 27.6333L79.5796 27.1935C78.8403 26.3965 78.1259 25.5649 77.5745 24.6172L77.2612 24.1772L77.0732 24.4286C76.9354 24.9375 76.3276 25.5493 76.1332 25.9367L75.9453 26.1881L76.196 26.4395C76.7379 27.0457 77.2757 27.3695 77.8878 27.8847L78.1385 28.0732Z" fill="#A1A1AA"/>
<path d="M82.2742 1.80708L84.1047 3.93676L86.9082 1.52707L83.8349 -0.527513L82.2742 1.80708ZM81.8981 1.55565L83.4589 -0.778938L83.1459 -0.988181L82.7888 -1.10759L81.8981 1.55565ZM81.7102 1.4928L80.1503 3.82796L80.4629 4.0368L80.8194 4.15605L81.7102 1.4928ZM81.5221 1.36719L83.082 -0.967975L81.8139 -1.8151L80.4128 -1.21269L81.5221 1.36719ZM81.0836 1.55576L79.9743 -1.02412L79.8125 -0.954567L79.6607 -0.865348L81.0836 1.55576ZM78.8278 2.87533L80.2756 5.28159L80.3853 5.21559L80.4885 5.13989L78.8278 2.87533ZM78.5144 3.0639L77.0666 0.657639L75.2869 1.72847L75.7897 3.74371L78.5144 3.0639ZM78.5771 3.31512L81.3019 2.63565L81.3018 2.6353L78.5771 3.31512ZM78.9531 4.82326L81.678 4.14396L81.678 4.14379L78.9531 4.82326ZM79.0158 5.07469L76.291 5.75399L77.6098 11.044L81.151 6.89875L79.0158 5.07469ZM79.3917 4.63469L81.5269 6.45876L81.5413 6.44193L81.5554 6.42487L79.3917 4.63469ZM81.8355 2.18411L80.005 0.0544342L79.939 0.111206L79.8766 0.171962L81.8355 2.18411ZM78.1385 28.0732L76.4505 30.3176L77.5217 31.1232L78.8217 30.7971L78.1385 28.0732ZM78.3891 28.0104L77.9622 25.2348L77.8329 25.2547L77.706 25.2865L78.3891 28.0104ZM79.705 27.6961L80.4542 30.4026L80.5253 30.3829L80.5953 30.3595L79.705 27.6961ZM79.893 27.6333L80.7833 30.2966L84.3821 29.0937L82.18 26.0035L79.893 27.6333ZM79.5796 27.1935L81.8666 25.5637L81.7616 25.4163L81.6384 25.2836L79.5796 27.1935ZM77.5745 24.6172L80.0018 23.2049L79.9369 23.0934L79.8621 22.9883L77.5745 24.6172ZM77.2612 24.1772L79.5488 22.5483L77.3169 19.4139L75.0123 22.4953L77.2612 24.1772ZM77.0732 24.4286L74.8243 22.7467L74.5028 23.1766L74.3625 23.6947L77.0732 24.4286ZM76.1332 25.9367L78.3822 27.6185L78.5317 27.4187L78.6435 27.1956L76.1332 25.9367ZM75.9453 26.1881L73.6963 24.5063L72.2419 26.4513L73.9568 28.171L75.9453 26.1881ZM76.196 26.4395L78.2898 24.568L78.2387 24.5109L78.1846 24.4566L76.196 26.4395ZM77.8878 27.8847L76.0793 30.0331L76.1382 30.0827L76.1998 30.129L77.8878 27.8847ZM82.2742 1.80708L83.8349 -0.527513L83.4589 -0.778938L81.8981 1.55565L80.3373 3.89025L80.7134 4.14167L82.2742 1.80708ZM81.8981 1.55565L82.7888 -1.10759L82.6009 -1.17045L81.7102 1.4928L80.8194 4.15605L81.0074 4.2189L81.8981 1.55565ZM81.7102 1.4928L83.2701 -0.842364L83.082 -0.967975L81.5221 1.36719L79.9622 3.70235L80.1503 3.82796L81.7102 1.4928ZM81.5221 1.36719L80.4128 -1.21269L79.9743 -1.02412L81.0836 1.55576L82.1928 4.13564L82.6314 3.94707L81.5221 1.36719ZM81.0836 1.55576L79.6607 -0.865348C79.3272 -0.669361 79.0542 -0.531599 78.5856 -0.273854C78.1716 -0.0461949 77.6691 0.242588 77.1671 0.610767L78.8278 2.87533L80.4885 5.13989C80.6934 4.98961 80.9429 4.83956 81.292 4.64753C81.5865 4.48559 82.0879 4.22279 82.5064 3.97686L81.0836 1.55576ZM78.8278 2.87533L77.38 0.46907L77.0666 0.657639L78.5144 3.0639L79.9622 5.47016L80.2756 5.28159L78.8278 2.87533ZM78.5144 3.0639L75.7897 3.74371L75.8523 3.99494L78.5771 3.31512L81.3018 2.6353L81.2391 2.38408L78.5144 3.0639ZM78.5771 3.31512L75.8523 3.99459L76.2283 5.50273L78.9531 4.82326L81.678 4.14379L81.3019 2.63565L78.5771 3.31512ZM78.9531 4.82326L76.2283 5.50256L76.291 5.75399L79.0158 5.07469L81.7407 4.39539L81.678 4.14396L78.9531 4.82326ZM79.0158 5.07469L81.151 6.89875L81.5269 6.45876L79.3917 4.63469L77.2565 2.81063L76.8806 3.25062L79.0158 5.07469ZM79.3917 4.63469L81.5554 6.42487C82.1647 5.68846 82.7989 5.16548 83.7945 4.19627L81.8355 2.18411L79.8766 0.171962C79.222 0.809227 78.0933 1.79865 77.228 2.84452L79.3917 4.63469ZM81.8355 2.18411L83.666 4.3138L84.1047 3.93676L82.2742 1.80708L80.4437 -0.322601L80.005 0.0544342L81.8355 2.18411ZM78.1385 28.0732L78.8217 30.7971L79.0723 30.7343L78.3891 28.0104L77.706 25.2865L77.4554 25.3494L78.1385 28.0732ZM78.3891 28.0104L78.816 30.786C79.5665 30.6706 80.0098 30.5256 80.4542 30.4026L79.705 27.6961L78.9558 24.9896C78.3475 25.158 78.302 25.1825 77.9622 25.2348L78.3891 28.0104ZM79.705 27.6961L80.5953 30.3595L80.7833 30.2966L79.893 27.6333L79.0028 24.9699L78.8147 25.0327L79.705 27.6961ZM79.893 27.6333L82.18 26.0035L81.8666 25.5637L79.5796 27.1935L77.2927 28.8232L77.6061 29.263L79.893 27.6333ZM79.5796 27.1935L81.6384 25.2836C80.9323 24.5224 80.3918 23.8752 80.0018 23.2049L77.5745 24.6172L75.1472 26.0294C75.86 27.2545 76.7483 28.2706 77.5209 29.1034L79.5796 27.1935ZM77.5745 24.6172L79.8621 22.9883L79.5488 22.5483L77.2612 24.1772L74.9736 25.8061L75.2869 26.2461L77.5745 24.6172ZM77.2612 24.1772L75.0123 22.4953L74.8243 22.7467L77.0732 24.4286L79.322 26.1105L79.5101 25.8591L77.2612 24.1772ZM77.0732 24.4286L74.3625 23.6947C74.4197 23.4834 74.4907 23.3738 74.4749 23.4006C74.4661 23.4158 74.4352 23.4642 74.3563 23.5723C74.3183 23.6243 74.2793 23.6766 74.2287 23.7444C74.1822 23.8067 74.1235 23.8855 74.0656 23.9657C73.9683 24.1005 73.7795 24.3657 73.6229 24.6779L76.1332 25.9367L78.6435 27.1956C78.5841 27.314 78.5442 27.3575 78.6198 27.2527C78.6484 27.2131 78.6821 27.1676 78.7307 27.1026C78.7752 27.0429 78.8337 26.9646 78.8925 26.8841C79.007 26.7272 79.1661 26.5031 79.316 26.2483C79.459 26.0052 79.6577 25.6283 79.7838 25.1625L77.0732 24.4286ZM76.1332 25.9367L73.8843 24.255L73.6963 24.5063L75.9453 26.1881L78.1943 27.8698L78.3822 27.6185L76.1332 25.9367ZM75.9453 26.1881L73.9568 28.171L74.2075 28.4224L76.196 26.4395L78.1846 24.4566L77.9338 24.2051L75.9453 26.1881ZM76.196 26.4395L74.1022 28.3109C74.5218 28.7803 74.9278 29.1246 75.2702 29.3962C75.6737 29.7163 75.8014 29.7991 76.0793 30.0331L77.8878 27.8847L79.6963 25.7363C79.3621 25.455 78.9149 25.1183 78.761 24.9963C78.546 24.8256 78.4122 24.7049 78.2898 24.568L76.196 26.4395ZM77.8878 27.8847L76.1998 30.129L76.4505 30.3176L78.1385 28.0732L79.8265 25.8289L79.5758 25.6403L77.8878 27.8847Z" fill="#A1A1AA" mask="url(#path-8-inside-7_7365_42953)"/>
<path d="M88.1338 14.6504C88.0927 15.5702 87.9479 16.5054 87.7129 17.4092C87.6322 16.4628 87.7752 15.5296 88.1338 14.6504Z" fill="#A1A1AA" stroke="#A1A1AA" stroke-width="2.80825"/>
<path d="M84.1992 11.6582C83.8462 12.7399 83.602 13.8474 83.4541 14.9424L83.4414 15.0361V15.2109L83.4209 15.2939L83.3906 15.4141L83.3818 15.5381C83.2743 17.1254 83.3603 18.5786 83.6553 19.999C82.9156 18.4192 82.6739 16.78 82.875 15.2236C83.0338 13.9955 83.4728 12.7822 84.1992 11.6582Z" fill="#A1A1AA" stroke="#A1A1AA" stroke-width="2.80825"/>
<mask id="path-12-inside-8_7365_42953" fill="white">
<path fill-rule="evenodd" clip-rule="evenodd" d="M65.6067 4.00781L65.4187 4.19628C63.1639 6.43223 61.587 9.68727 61.4084 12.8679L61.3457 13.1821L61.5337 12.9935C63.8021 10.7147 65.0522 7.44594 65.6067 4.32189V4.00781Z"/>
</mask>
<path fill-rule="evenodd" clip-rule="evenodd" d="M65.6067 4.00781L65.4187 4.19628C63.1639 6.43223 61.587 9.68727 61.4084 12.8679L61.3457 13.1821L61.5337 12.9935C63.8021 10.7147 65.0522 7.44594 65.6067 4.32189V4.00781Z" fill="#A1A1AA"/>
<path d="M65.6067 4.00781H68.415V-2.78281L63.6188 2.02434L65.6067 4.00781ZM65.4187 4.19628L67.3961 6.19031L67.4014 6.18505L67.4067 6.17975L65.4187 4.19628ZM61.4084 12.8679L64.1624 13.4173L64.2011 13.2231L64.2122 13.0254L61.4084 12.8679ZM61.3457 13.1821L58.5917 12.6326L56.7741 21.7437L63.3342 15.165L61.3457 13.1821ZM61.5337 12.9935L63.5223 14.9764L63.5241 14.9746L61.5337 12.9935ZM65.6067 4.32189L68.3718 4.81268L68.415 4.56919V4.32189H65.6067ZM65.6067 4.00781L63.6188 2.02434L63.4307 2.2128L65.4187 4.19628L67.4067 6.17975L67.5947 5.99129L65.6067 4.00781ZM65.4187 4.19628L63.4413 2.20225C60.7378 4.88321 58.8255 8.7766 58.6046 12.7104L61.4084 12.8679L64.2122 13.0254C64.3485 10.5979 65.5901 7.98126 67.3961 6.19031L65.4187 4.19628ZM61.4084 12.8679L58.6544 12.3185L58.5917 12.6326L61.3457 13.1821L64.0997 13.7315L64.1624 13.4173L61.4084 12.8679ZM61.3457 13.1821L63.3342 15.165L63.5223 14.9764L61.5337 12.9935L59.5452 11.0106L59.3572 11.1991L61.3457 13.1821ZM61.5337 12.9935L63.5241 14.9746C66.3467 12.1389 67.7622 8.24702 68.3718 4.81268L65.6067 4.32189L62.8417 3.8311C62.3423 6.64487 61.2574 9.29046 59.5434 11.0124L61.5337 12.9935ZM65.6067 4.32189H68.415V4.00781H65.6067H62.7985V4.32189H65.6067Z" fill="#A1A1AA" mask="url(#path-12-inside-8_7365_42953)"/>
<mask id="path-14-inside-9_7365_42953" fill="white">
<path fill-rule="evenodd" clip-rule="evenodd" d="M68.4279 1.86719L68.2399 1.9929L68.1145 2.05565L67.9266 2.18137C67.537 2.54786 67.253 4.87394 66.924 5.63744L66.736 6.14009L66.6107 6.64284C66.1146 7.87654 65.8452 9.22653 65.1069 10.3502L64.7308 11.2299L64.5429 11.6071L64.2922 11.984C63.8692 12.8847 63.2499 13.6576 62.7257 14.4975L62.475 14.8746L62.2244 15.1887C61.1487 16.568 61.4203 15.8181 61.7232 17.4508L61.9111 18.2049L62.4124 17.8279C67.113 14.7468 68.8655 7.69111 68.4279 2.36983V1.86719Z"/>
</mask>
<path fill-rule="evenodd" clip-rule="evenodd" d="M68.4279 1.86719L68.2399 1.9929L68.1145 2.05565L67.9266 2.18137C67.537 2.54786 67.253 4.87394 66.924 5.63744L66.736 6.14009L66.6107 6.64284C66.1146 7.87654 65.8452 9.22653 65.1069 10.3502L64.7308 11.2299L64.5429 11.6071L64.2922 11.984C63.8692 12.8847 63.2499 13.6576 62.7257 14.4975L62.475 14.8746L62.2244 15.1887C61.1487 16.568 61.4203 15.8181 61.7232 17.4508L61.9111 18.2049L62.4124 17.8279C67.113 14.7468 68.8655 7.69111 68.4279 2.36983V1.86719Z" fill="#A1A1AA"/>
<path d="M68.4279 1.86719H71.2362V-3.38827L66.8671 -0.467394L68.4279 1.86719ZM68.2399 1.9929L69.497 4.50407L69.6543 4.42529L69.8006 4.32748L68.2399 1.9929ZM68.1145 2.05565L66.8574 -0.455518L66.6997 -0.376584L66.5532 -0.278548L68.1145 2.05565ZM67.9266 2.18137L66.3652 -0.152835L66.1718 -0.0234215L66.0022 0.13608L67.9266 2.18137ZM66.924 5.63744L64.345 4.52621L64.3177 4.58944L64.2936 4.65393L66.924 5.63744ZM66.736 6.14009L64.1057 5.15658L64.0498 5.30594L64.0112 5.46066L66.736 6.14009ZM66.6107 6.64284L69.2162 7.69053L69.2886 7.51052L69.3355 7.32226L66.6107 6.64284ZM65.1069 10.3502L62.7599 8.80818L62.6228 9.0168L62.5247 9.24631L65.1069 10.3502ZM64.7308 11.2299L67.2442 12.4825L67.2808 12.4091L67.313 12.3338L64.7308 11.2299ZM64.5429 11.6071L66.8814 13.1619L66.9783 13.0162L67.0563 12.8596L64.5429 11.6071ZM64.2922 11.984L61.9537 10.4291L61.8387 10.6021L61.7503 10.7902L64.2922 11.984ZM62.7257 14.4975L65.0641 16.0525L65.0866 16.0187L65.1081 15.9843L62.7257 14.4975ZM62.475 14.8746L64.6703 16.6258L64.7461 16.5308L64.8134 16.4296L62.475 14.8746ZM62.2244 15.1887L60.0291 13.4375L60.0194 13.4496L60.0099 13.4617L62.2244 15.1887ZM61.7232 17.4508L58.962 17.9631L58.9776 18.0471L58.9983 18.13L61.7232 17.4508ZM61.9111 18.2049L59.1862 18.884L60.2113 22.997L63.599 20.4493L61.9111 18.2049ZM62.4124 17.8279L60.873 15.4792L60.7971 15.5289L60.7245 15.5835L62.4124 17.8279ZM68.4279 2.36983H65.6197V2.4851L65.6291 2.59997L68.4279 2.36983ZM68.4279 1.86719L66.8671 -0.467394L66.6791 -0.341681L68.2399 1.9929L69.8006 4.32748L69.9887 4.20177L68.4279 1.86719ZM68.2399 1.9929L66.9828 -0.518273L66.8574 -0.455518L68.1145 2.05565L69.3716 4.56683L69.497 4.50407L68.2399 1.9929ZM68.1145 2.05565L66.5532 -0.278548L66.3652 -0.152835L67.9266 2.18137L69.4879 4.51557L69.6758 4.38986L68.1145 2.05565ZM67.9266 2.18137L66.0022 0.13608C65.5485 0.562962 65.3191 1.04332 65.2301 1.23838C65.114 1.49298 65.0288 1.74435 64.9676 1.94343C64.845 2.34205 64.7421 2.78794 64.6614 3.15055C64.5701 3.56079 64.5058 3.87014 64.433 4.17539C64.3523 4.51376 64.3199 4.58446 64.345 4.52621L66.924 5.63744L69.503 6.74867C69.6926 6.30867 69.819 5.8023 69.8963 5.47834C69.9814 5.12126 70.0742 4.68303 70.1438 4.37051C70.2239 4.01035 70.2856 3.75827 70.3361 3.59382C70.3615 3.51136 70.3649 3.51491 70.3402 3.56917C70.3267 3.59879 70.2916 3.67257 70.2301 3.77021C70.1734 3.86007 70.053 4.03654 69.8509 4.22665L67.9266 2.18137ZM66.924 5.63744L64.2936 4.65393L64.1057 5.15658L66.736 6.14009L69.3664 7.1236L69.5544 6.62095L66.924 5.63744ZM66.736 6.14009L64.0112 5.46066L63.8859 5.96341L66.6107 6.64284L69.3355 7.32226L69.4609 6.81952L66.736 6.14009ZM66.6107 6.64284L64.0052 5.59514C63.7313 6.27621 63.4547 7.16611 63.2995 7.6086C63.1018 8.17251 62.9396 8.53465 62.7599 8.80818L65.1069 10.3502L67.4539 11.8923C68.0125 11.0421 68.3541 10.1674 68.5997 9.46696C68.8879 8.64511 68.994 8.24316 69.2162 7.69053L66.6107 6.64284ZM65.1069 10.3502L62.5247 9.24631L62.1486 10.126L64.7308 11.2299L67.313 12.3338L67.689 11.4542L65.1069 10.3502ZM64.7308 11.2299L62.2173 9.97738L62.0294 10.3545L64.5429 11.6071L67.0563 12.8596L67.2442 12.4825L64.7308 11.2299ZM64.5429 11.6071L62.2043 10.0522L61.9537 10.4291L64.2922 11.984L66.6308 13.5388L66.8814 13.1619L64.5429 11.6071ZM64.2922 11.984L61.7503 10.7902C61.6274 11.052 61.4573 11.3345 61.2086 11.7083C61.0014 12.0199 60.6302 12.5512 60.3434 13.0107L62.7257 14.4975L65.1081 15.9843C65.3455 15.6039 65.546 15.3287 65.8852 14.8187C66.1831 14.3709 66.5341 13.8167 66.8341 13.1778L64.2922 11.984ZM62.7257 14.4975L60.3873 12.9425L60.1366 13.3195L62.475 14.8746L64.8134 16.4296L65.0641 16.0525L62.7257 14.4975ZM62.475 14.8746L60.2797 13.1233L60.0291 13.4375L62.2244 15.1887L64.4197 16.94L64.6703 16.6258L62.475 14.8746ZM62.2244 15.1887L60.0099 13.4617C59.7525 13.7918 59.6698 13.8776 59.4693 14.1247C59.4062 14.2024 58.8256 14.847 58.6804 15.8031C58.6064 16.2904 58.6641 16.6917 58.7094 16.9226C58.7483 17.1205 58.8056 17.3154 58.8205 17.3681C58.8635 17.5197 58.9098 17.6818 58.962 17.9631L61.7232 17.4508L64.4843 16.9386C64.4358 16.6771 64.3864 16.4557 64.3394 16.2659C64.2928 16.0778 64.2501 15.9281 64.2243 15.837C64.2177 15.8137 64.2132 15.7976 64.2093 15.7836C64.2054 15.7699 64.2037 15.7634 64.2031 15.7612C64.2025 15.759 64.2042 15.7651 64.207 15.7771C64.2099 15.7891 64.2149 15.8108 64.2206 15.8399C64.2263 15.8692 64.2335 15.9094 64.2402 15.9584C64.2469 16.0076 64.2535 16.0679 64.2574 16.1374C64.2615 16.2074 64.2629 16.2864 64.2594 16.373C64.2559 16.46 64.2476 16.5515 64.2332 16.6464C64.2188 16.7415 64.199 16.8349 64.1742 16.926C64.1495 17.0169 64.1211 17.1011 64.0909 17.1781C64.0311 17.331 63.9671 17.4486 63.9208 17.5257C63.8975 17.5646 63.877 17.5958 63.8617 17.6184C63.8464 17.6409 63.8344 17.6574 63.8274 17.6668C63.8205 17.6761 63.8168 17.6808 63.8177 17.6797C63.8186 17.6785 63.8223 17.6738 63.8301 17.6642C63.8378 17.6547 63.848 17.6424 63.8616 17.6259C63.8752 17.6094 63.8907 17.5908 63.9094 17.5684C63.9451 17.5256 63.9931 17.4682 64.0449 17.4056C64.1519 17.2763 64.2833 17.1152 64.4388 16.9157L62.2244 15.1887ZM61.7232 17.4508L58.9983 18.13L59.1862 18.884L61.9111 18.2049L64.636 17.5258L64.4481 16.7717L61.7232 17.4508ZM61.9111 18.2049L63.599 20.4493L64.1003 20.0723L62.4124 17.8279L60.7245 15.5835L60.2232 15.9605L61.9111 18.2049ZM62.4124 17.8279L63.9519 20.1766C66.9872 18.187 68.9032 15.0385 70.0017 11.8549C71.1055 8.65551 71.4758 5.16963 71.2267 2.1397L68.4279 2.36983L65.6291 2.59997C65.8175 4.89132 65.5304 7.59393 64.6923 10.023C63.8488 12.4678 62.5382 14.3877 60.873 15.4792L62.4124 17.8279ZM68.4279 2.36983H71.2362V1.86719H68.4279H65.6197V2.36983H68.4279Z" fill="#A1A1AA" mask="url(#path-14-inside-9_7365_42953)"/>
<path d="M78.4316 10.7383L78.4473 10.834L78.4912 11.0986V12.8301C78.5679 16.8191 77.7493 20.8295 75.6963 24.125L75.6816 24.1484L75.668 24.1719L75.4512 24.5508L75.207 24.8936L73.7588 26.6348L73.5703 26.7939H73.5439L73.3564 26.7314H73.0791C73.0583 26.7256 73.038 26.7184 73.0176 26.7129C76.5913 22.0973 78.043 16.4103 78.4307 10.7344L78.4316 10.7383Z" fill="#A1A1AA" stroke="#A1A1AA" stroke-width="2.80825"/>
<path d="M74.2881 10.5039C74.0562 15.748 72.3164 20.703 68.2998 24.0605C71.6247 20.3589 73.4078 15.4551 74.2881 10.5039Z" fill="#A1A1AA" stroke="#A1A1AA" stroke-width="2.80825"/>
<path d="M68.7314 14.9219C68.184 16.1883 67.4977 17.3696 66.6641 18.4238C67.4635 17.3098 68.1469 16.1371 68.7314 14.9219Z" fill="#A1A1AA" stroke="#A1A1AA" stroke-width="2.80825"/>
</g>
<defs>
<clipPath id="clip0_7365_42953">
<rect width="90" height="40" fill="white"/>
</clipPath>
</defs>
</svg>
