<svg width="705" height="314" viewBox="0 0 705 314" fill="none" xmlns="http://www.w3.org/2000/svg">
<g clip-path="url(#clip0_5522_88633)">
<g opacity="0.25" filter="url(#filter0_f_5522_88633)">
<path d="M320.945 108.683C214.77 140.768 123.899 241.547 123.899 241.547C123.899 241.547 75.313 210.696 56.5011 201.598C114.252 189.266 134.351 122.445 182.056 84.2545C210.843 81.1893 292.727 106.887 320.945 108.683Z" fill="url(#paint0_linear_5522_88633)"/>
</g>
<g opacity="0.3" filter="url(#filter1_f_5522_88633)">
<path d="M384.945 108.683C491.121 140.768 581.992 241.547 581.992 241.547C581.992 241.547 630.578 210.696 649.389 201.598C591.639 189.266 571.54 122.445 523.834 84.2545C495.047 81.1893 413.163 106.887 384.945 108.683Z" fill="url(#paint1_linear_5522_88633)"/>
</g>
<path d="M-65.9997 54L-65.9999 88.9999C-66 94.5228 -61.5228 99 -55.9999 99H342C347.523 99 352 103.477 352 109V134" stroke="url(#paint2_linear_5522_88633)" stroke-linecap="round" stroke-linejoin="round"/>
<path d="M459 54V88.7799C459 94.3027 454.523 98.7799 449 98.7799H362C356.477 98.7799 352 103.257 352 108.78V134" stroke="url(#paint3_linear_5522_88633)" stroke-linecap="round" stroke-linejoin="round"/>
<path d="M770 54L770 88.9999C770 94.5228 765.523 99 760 99H362C356.477 99 352 103.477 352 109V134" stroke="url(#paint4_linear_5522_88633)" stroke-linecap="round" stroke-linejoin="round"/>
<path d="M245 54V88.7799C245 94.3027 249.477 98.7799 255 98.7799H342C347.523 98.7799 352 103.257 352 108.78V134" stroke="url(#paint5_linear_5522_88633)" stroke-linecap="round" stroke-linejoin="round"/>
<path d="M-65.9997 252L-65.9999 217C-66 211.477 -61.5228 207 -55.9999 207H342C347.523 207 352 202.523 352 197V172" stroke="url(#paint6_linear_5522_88633)" stroke-linecap="round" stroke-linejoin="round"/>
<path d="M459 252V217.22C459 211.697 454.523 207.22 449 207.22H362C356.477 207.22 352 202.743 352 197.22V172" stroke="url(#paint7_linear_5522_88633)" stroke-linecap="round" stroke-linejoin="round"/>
<path d="M770 252L770 217C770 211.477 765.523 207 760 207H362C356.477 207 352 202.523 352 197V172" stroke="url(#paint8_linear_5522_88633)" stroke-linecap="round" stroke-linejoin="round"/>
<path d="M245 252V217.22C245 211.697 249.477 207.22 255 207.22H342C347.523 207.22 352 202.743 352 197.22V172" stroke="url(#paint9_linear_5522_88633)" stroke-linecap="round" stroke-linejoin="round"/>
<g filter="url(#filter2_d_5522_88633)">
<rect x="-65.5" y="252" width="200" height="130" rx="12" fill="#FCFCFC" shape-rendering="crispEdges"/>
<rect x="-65" y="252.5" width="199" height="129" rx="11.5" stroke="#F4F4F5" shape-rendering="crispEdges"/>
<g opacity="0.6">
<rect x="-53.5" y="268" width="122" height="16" rx="4" fill="#F4F4F5"/>
<rect x="82.5" y="268" width="16" height="16" rx="4" fill="#F4F4F5"/>
<rect x="106.5" y="268" width="16" height="16" rx="4" fill="#F4F4F5"/>
<rect x="-53.5" y="288" width="80" height="20" rx="6" fill="#F4F4F5"/>
<rect x="42.5" y="288" width="80" height="20" rx="6" fill="#F4F4F5"/>
</g>
<g filter="url(#filter3_dd_5522_88633)">
<mask id="path-18-inside-1_5522_88633" fill="white">
<path d="M14.5 252C14.5 240.954 23.4543 232 34.5 232C45.5457 232 54.5 240.954 54.5 252C54.5 263.046 45.5457 272 34.5 272C23.4543 272 14.5 263.046 14.5 252Z"/>
</mask>
<path d="M14.5 252C14.5 240.954 23.4543 232 34.5 232C45.5457 232 54.5 240.954 54.5 252C54.5 263.046 45.5457 272 34.5 272C23.4543 272 14.5 263.046 14.5 252Z" fill="#FAFAFA"/>
<path d="M34.5 272V271C24.0066 271 15.5 262.493 15.5 252H14.5H13.5C13.5 263.598 22.902 273 34.5 273V272ZM54.5 252H53.5C53.5 262.493 44.9934 271 34.5 271V272V273C46.098 273 55.5 263.598 55.5 252H54.5ZM34.5 232V233C44.9934 233 53.5 241.507 53.5 252H54.5H55.5C55.5 240.402 46.098 231 34.5 231V232ZM34.5 232V231C22.902 231 13.5 240.402 13.5 252H14.5H15.5C15.5 241.507 24.0066 233 34.5 233V232Z" fill="#E4E4E7" mask="url(#path-18-inside-1_5522_88633)"/>
<path d="M37.758 259.22C37.594 259.22 37.4328 259.174 37.2912 259.085C37.1497 258.997 37.0329 258.869 36.9531 258.716L35.3874 255.823C35.3248 255.707 35.3079 255.57 35.3403 255.441C35.3728 255.312 35.4519 255.202 35.5603 255.135C35.6687 255.068 35.7975 255.05 35.9184 255.085C36.0393 255.119 36.1423 255.204 36.2048 255.319L37.7706 258.213L38.1605 257.192C38.2413 256.996 38.379 256.833 38.5534 256.726C38.7277 256.62 38.9295 256.576 39.1289 256.602L40.1602 256.736L38.2737 253.265C38.2427 253.208 38.2226 253.145 38.2146 253.079C38.2065 253.014 38.2106 252.947 38.2267 252.883C38.2427 252.819 38.2704 252.759 38.3081 252.707C38.3459 252.654 38.3929 252.61 38.4466 252.577C38.5003 252.544 38.5595 252.523 38.621 252.514C38.6824 252.505 38.7448 252.51 38.8047 252.527C38.8645 252.544 38.9206 252.574 38.9698 252.614C39.0189 252.654 39.0602 252.704 39.0912 252.762L40.9776 256.239C41.0632 256.4 41.1054 256.584 41.0995 256.769C41.0937 256.955 41.04 257.135 40.9444 257.289C40.8488 257.444 40.715 257.568 40.5577 257.647C40.4005 257.726 40.2259 257.756 40.0533 257.736L39.022 257.595L38.6258 258.609C38.5578 258.781 38.4457 258.93 38.3022 259.038C38.1588 259.146 37.9899 259.209 37.8146 259.22H37.758Z" fill="#18181B"/>
<path d="M30.9615 259.22H30.9064C30.7145 259.209 30.5294 259.142 30.3723 259.026C30.2152 258.911 30.0924 258.752 30.0179 258.568L29.5701 257.48L28.4542 257.63C28.2656 257.656 28.0738 257.626 27.9008 257.544C27.7278 257.461 27.5806 257.33 27.4761 257.165C27.3768 256.997 27.3242 256.803 27.3242 256.606C27.3242 256.409 27.3768 256.216 27.4761 256.048L29.5426 252.331C29.6111 252.208 29.7239 252.118 29.8564 252.081C29.9888 252.044 30.1299 252.063 30.2486 252.134C30.3674 252.206 30.454 252.323 30.4895 252.461C30.5251 252.598 30.5065 252.745 30.438 252.868L28.3716 256.578L29.4943 256.427C29.713 256.398 29.935 256.443 30.1265 256.557C30.3179 256.671 30.4684 256.846 30.5551 257.057L31.0029 258.146L32.6836 255.059C32.7521 254.936 32.865 254.846 32.9974 254.809C33.1298 254.772 33.2709 254.791 33.3897 254.863C33.5084 254.934 33.5951 255.051 33.6306 255.189C33.6661 255.326 33.6476 255.473 33.5791 255.597L31.8432 258.683C31.7558 258.846 31.628 258.982 31.4729 259.076C31.3178 259.171 31.1413 259.22 30.9615 259.22Z" fill="#18181B"/>
<path d="M34.4396 256.537C33.9693 256.537 33.5179 256.351 33.1833 256.018L32.5623 255.393C32.4969 255.326 32.419 255.272 32.333 255.236C32.2469 255.199 32.1546 255.18 32.0612 255.18H31.3555C30.8862 255.178 30.4367 254.99 30.1049 254.656C29.7731 254.322 29.5859 253.869 29.584 253.397V252.687C29.5857 252.587 29.5664 252.488 29.5275 252.396C29.4886 252.304 29.4309 252.222 29.3582 252.154L28.7301 251.529C28.3996 251.192 28.2145 250.738 28.2149 250.264C28.2132 250.031 28.2572 249.8 28.3444 249.585C28.4316 249.369 28.5602 249.172 28.723 249.007L29.3582 248.375C29.4236 248.308 29.4754 248.23 29.5105 248.143C29.5456 248.056 29.5634 247.964 29.5629 247.87V247.16C29.5601 246.924 29.6035 246.69 29.6908 246.472C29.778 246.253 29.9073 246.054 30.0713 245.885C30.2352 245.717 30.4305 245.583 30.646 245.491C30.8616 245.399 31.0931 245.35 31.3272 245.349H32.033C32.1258 245.349 32.2179 245.331 32.3039 245.296C32.3899 245.26 32.4681 245.208 32.534 245.143L33.1833 244.525C33.5226 244.196 33.9755 244.012 34.4466 244.012C34.9178 244.012 35.3706 244.196 35.7099 244.525L36.3309 245.15C36.3969 245.216 36.4751 245.268 36.5611 245.303C36.6471 245.338 36.7391 245.356 36.832 245.356H37.5378C38.0082 245.358 38.4588 245.547 38.7908 245.882C39.1228 246.218 39.3092 246.672 39.3092 247.146V247.856C39.3086 247.95 39.3264 248.042 39.3616 248.129C39.3967 248.215 39.4484 248.294 39.5138 248.36L40.142 248.993C40.4708 249.329 40.6551 249.782 40.6551 250.254C40.6551 250.725 40.4708 251.178 40.142 251.514L39.5138 252.14C39.4476 252.207 39.3953 252.287 39.3602 252.374C39.3251 252.462 39.3077 252.556 39.3092 252.651V253.361C39.3129 253.597 39.2704 253.831 39.184 254.05C39.0976 254.269 38.9691 254.469 38.8058 254.638C38.6425 254.807 38.4477 254.942 38.2325 255.035C38.0174 255.128 37.786 255.177 37.5519 255.18H36.8461C36.7528 255.18 36.6604 255.199 36.5744 255.236C36.4884 255.272 36.4104 255.326 36.3451 255.393L35.724 256.018C35.555 256.186 35.3543 256.319 35.1337 256.408C34.9132 256.497 34.6772 256.541 34.4396 256.537ZM31.3272 246.414C31.14 246.414 30.9605 246.489 30.8282 246.622C30.6958 246.755 30.6215 246.936 30.6215 247.124V247.835C30.6223 248.068 30.5772 248.3 30.4887 248.515C30.4003 248.731 30.2703 248.927 30.1063 249.092L29.4852 249.724C29.4185 249.79 29.3655 249.869 29.3292 249.955C29.2928 250.042 29.2739 250.135 29.2735 250.229C29.273 250.324 29.2914 250.418 29.3278 250.506C29.3642 250.594 29.4177 250.674 29.4852 250.74L30.1063 251.365C30.2712 251.531 30.4017 251.728 30.4901 251.945C30.5786 252.162 30.6232 252.395 30.6215 252.63V253.34C30.6215 253.528 30.6958 253.709 30.8282 253.842C30.9605 253.976 31.14 254.05 31.3272 254.05H32.033C32.2655 254.049 32.496 254.095 32.7106 254.186C32.9251 254.276 33.1195 254.409 33.2821 254.576L33.9032 255.201C34.0407 255.332 34.2224 255.404 34.4113 255.404C34.6002 255.404 34.782 255.332 34.9195 255.201L35.5405 254.576C35.7031 254.409 35.8975 254.276 36.1121 254.186C36.3267 254.095 36.5571 254.049 36.7897 254.05H37.4954C37.6826 254.05 37.8621 253.976 37.9945 253.842C38.1268 253.709 38.2012 253.528 38.2012 253.34V252.63C38.1994 252.395 38.2441 252.162 38.3325 251.945C38.421 251.728 38.5515 251.531 38.7164 251.365L39.3445 250.74C39.4117 250.674 39.4651 250.595 39.5016 250.508C39.538 250.421 39.5568 250.327 39.5568 250.232C39.5568 250.138 39.538 250.044 39.5016 249.957C39.4651 249.87 39.4117 249.791 39.3445 249.724L38.7164 249.092C38.5523 248.927 38.4223 248.731 38.3339 248.515C38.2455 248.3 38.2004 248.068 38.2012 247.835V247.124C38.2012 246.936 38.1268 246.755 37.9945 246.622C37.8621 246.489 37.6826 246.414 37.4954 246.414H36.7897C36.5578 246.415 36.328 246.37 36.1136 246.281C35.8992 246.192 35.7044 246.061 35.5405 245.896L34.9195 245.27C34.8536 245.202 34.7747 245.147 34.6874 245.11C34.6001 245.072 34.5062 245.053 34.4113 245.053C34.3165 245.053 34.2226 245.072 34.1353 245.11C34.048 245.147 33.969 245.202 33.9032 245.27L33.2821 245.896C33.1182 246.061 32.9234 246.192 32.709 246.281C32.4947 246.37 32.2649 246.415 32.033 246.414H31.3272Z" fill="#18181B"/>
<path d="M33.8624 252.063C33.7249 252.062 33.593 252.003 33.4938 251.9L32.3607 250.664C32.2648 250.56 32.2109 250.419 32.2109 250.272C32.2109 250.125 32.2648 249.984 32.3607 249.88C32.4587 249.777 32.5896 249.72 32.7259 249.72C32.8621 249.72 32.9931 249.777 33.0911 249.88L33.8624 250.724L35.7738 248.644C35.8718 248.542 36.0027 248.484 36.139 248.484C36.2752 248.484 36.4062 248.542 36.5042 248.644C36.6 248.748 36.6539 248.889 36.6539 249.037C36.6539 249.184 36.6 249.325 36.5042 249.429L34.2242 251.9C34.1275 252.003 33.9979 252.061 33.8624 252.063Z" fill="#18181B"/>
</g>
</g>
<g filter="url(#filter4_d_5522_88633)">
<rect x="146.5" y="252" width="200" height="130" rx="12" fill="#FCFCFC" shape-rendering="crispEdges"/>
<rect x="147" y="252.5" width="199" height="129" rx="11.5" stroke="#F4F4F5" shape-rendering="crispEdges"/>
<g opacity="0.6">
<rect x="158.5" y="268" width="122" height="16" rx="4" fill="#F4F4F5"/>
<rect x="294.5" y="268" width="16" height="16" rx="4" fill="#F4F4F5"/>
<rect x="318.5" y="268" width="16" height="16" rx="4" fill="#F4F4F5"/>
<rect x="158.5" y="288" width="80" height="20" rx="6" fill="#F4F4F5"/>
<rect x="254.5" y="288" width="80" height="20" rx="6" fill="#F4F4F5"/>
</g>
<g filter="url(#filter5_dd_5522_88633)">
<mask id="path-31-inside-2_5522_88633" fill="white">
<path d="M226.5 252C226.5 240.954 235.454 232 246.5 232C257.546 232 266.5 240.954 266.5 252C266.5 263.046 257.546 272 246.5 272C235.454 272 226.5 263.046 226.5 252Z"/>
</mask>
<path d="M226.5 252C226.5 240.954 235.454 232 246.5 232C257.546 232 266.5 240.954 266.5 252C266.5 263.046 257.546 272 246.5 272C235.454 272 226.5 263.046 226.5 252Z" fill="#FAFAFA"/>
<path d="M246.5 272V271C236.007 271 227.5 262.493 227.5 252H226.5H225.5C225.5 263.598 234.902 273 246.5 273V272ZM266.5 252H265.5C265.5 262.493 256.993 271 246.5 271V272V273C258.098 273 267.5 263.598 267.5 252H266.5ZM246.5 232V233C256.993 233 265.5 241.507 265.5 252H266.5H267.5C267.5 240.402 258.098 231 246.5 231V232ZM246.5 232V231C234.902 231 225.5 240.402 225.5 252H226.5H227.5C227.5 241.507 236.007 233 246.5 233V232Z" fill="#E4E4E7" mask="url(#path-31-inside-2_5522_88633)"/>
<path d="M248.168 244.5V247.833C248.168 248.054 248.256 248.266 248.412 248.423C248.568 248.579 248.78 248.667 249.001 248.667H252.335M248.168 244.5H242.335C241.893 244.5 241.469 244.676 241.156 244.988C240.844 245.301 240.668 245.725 240.668 246.167V257.833C240.668 258.275 240.844 258.699 241.156 259.012C241.469 259.324 241.893 259.5 242.335 259.5H250.668C251.11 259.5 251.534 259.324 251.846 259.012C252.159 258.699 252.335 258.275 252.335 257.833V248.667M248.168 244.5L252.335 248.667M244.001 256.167V252M246.501 256.167V255.333M249.001 256.167V253.667" stroke="#27272A" stroke-width="1.2" stroke-linecap="round" stroke-linejoin="round"/>
</g>
</g>
<g filter="url(#filter6_d_5522_88633)">
<rect x="358.5" y="252" width="200" height="130" rx="12" fill="#FCFCFC" shape-rendering="crispEdges"/>
<rect x="359" y="252.5" width="199" height="129" rx="11.5" stroke="#F4F4F5" shape-rendering="crispEdges"/>
<g opacity="0.6">
<rect x="370.5" y="268" width="122" height="16" rx="4" fill="#F4F4F5"/>
<rect x="506.5" y="268" width="16" height="16" rx="4" fill="#F4F4F5"/>
<rect x="530.5" y="268" width="16" height="16" rx="4" fill="#F4F4F5"/>
<rect x="370.5" y="288" width="80" height="20" rx="6" fill="#F4F4F5"/>
<rect x="466.5" y="288" width="80" height="20" rx="6" fill="#F4F4F5"/>
</g>
<g filter="url(#filter7_dd_5522_88633)">
<mask id="path-41-inside-3_5522_88633" fill="white">
<path d="M438.5 252C438.5 240.954 447.454 232 458.5 232C469.546 232 478.5 240.954 478.5 252C478.5 263.046 469.546 272 458.5 272C447.454 272 438.5 263.046 438.5 252Z"/>
</mask>
<path d="M438.5 252C438.5 240.954 447.454 232 458.5 232C469.546 232 478.5 240.954 478.5 252C478.5 263.046 469.546 272 458.5 272C447.454 272 438.5 263.046 438.5 252Z" fill="#FAFAFA"/>
<path d="M458.5 272V271C448.007 271 439.5 262.493 439.5 252H438.5H437.5C437.5 263.598 446.902 273 458.5 273V272ZM478.5 252H477.5C477.5 262.493 468.993 271 458.5 271V272V273C470.098 273 479.5 263.598 479.5 252H478.5ZM458.5 232V233C468.993 233 477.5 241.507 477.5 252H478.5H479.5C479.5 240.402 470.098 231 458.5 231V232ZM458.5 232V231C446.902 231 437.5 240.402 437.5 252H438.5H439.5C439.5 241.507 448.007 233 458.5 233V232Z" fill="#E4E4E7" mask="url(#path-41-inside-3_5522_88633)"/>
<path d="M455.168 252.417V255.542C455.168 256.347 456.66 257 458.501 257C460.343 257 461.835 256.347 461.835 255.542V252.417M460.168 244.5V247.833C460.168 248.054 460.256 248.266 460.412 248.423C460.568 248.579 460.78 248.667 461.001 248.667H464.335M460.168 244.5H454.335C453.893 244.5 453.469 244.676 453.156 244.988C452.844 245.301 452.668 245.725 452.668 246.167V257.833C452.668 258.275 452.844 258.699 453.156 259.012C453.469 259.324 453.893 259.5 454.335 259.5H462.668C463.11 259.5 463.534 259.324 463.846 259.012C464.159 258.699 464.335 258.275 464.335 257.833V248.667M460.168 244.5L464.335 248.667M455.168 252.625C455.168 253.012 455.519 253.383 456.144 253.656C456.769 253.93 457.617 254.083 458.501 254.083C459.385 254.083 460.233 253.93 460.858 253.656C461.483 253.383 461.835 253.012 461.835 252.625C461.835 252.238 461.483 251.867 460.858 251.594C460.233 251.32 459.385 251.167 458.501 251.167C457.617 251.167 456.769 251.32 456.144 251.594C455.519 251.867 455.168 252.238 455.168 252.625Z" stroke="#27272A" stroke-width="1.2" stroke-linecap="round" stroke-linejoin="round"/>
</g>
</g>
<g filter="url(#filter8_d_5522_88633)">
<rect x="570.5" y="252" width="200" height="130" rx="12" fill="#FCFCFC" shape-rendering="crispEdges"/>
<rect x="571" y="252.5" width="199" height="129" rx="11.5" stroke="#F4F4F5" shape-rendering="crispEdges"/>
<g opacity="0.6">
<rect x="582.5" y="268" width="122" height="16" rx="4" fill="#F4F4F5"/>
<rect x="582.5" y="288" width="80" height="20" rx="6" fill="#F4F4F5"/>
<rect x="678.5" y="288" width="80" height="20" rx="6" fill="#F4F4F5"/>
</g>
<g filter="url(#filter9_dd_5522_88633)">
<mask id="path-49-inside-4_5522_88633" fill="white">
<path d="M650.5 252C650.5 240.954 659.454 232 670.5 232C681.546 232 690.5 240.954 690.5 252C690.5 263.046 681.546 272 670.5 272C659.454 272 650.5 263.046 650.5 252Z"/>
</mask>
<path d="M650.5 252C650.5 240.954 659.454 232 670.5 232C681.546 232 690.5 240.954 690.5 252C690.5 263.046 681.546 272 670.5 272C659.454 272 650.5 263.046 650.5 252Z" fill="#FAFAFA"/>
<path d="M670.5 272V271C660.007 271 651.5 262.493 651.5 252H650.5H649.5C649.5 263.598 658.902 273 670.5 273V272ZM690.5 252H689.5C689.5 262.493 680.993 271 670.5 271V272V273C682.098 273 691.5 263.598 691.5 252H690.5ZM670.5 232V233C680.993 233 689.5 241.507 689.5 252H690.5H691.5C691.5 240.402 682.098 231 670.5 231V232ZM670.5 232V231C658.902 231 649.5 240.402 649.5 252H650.5H651.5C651.5 241.507 660.007 233 670.5 233V232Z" fill="#E4E4E7" mask="url(#path-49-inside-4_5522_88633)"/>
<path d="M673.758 259.22C673.594 259.22 673.433 259.174 673.291 259.085C673.15 258.997 673.033 258.869 672.953 258.716L671.387 255.823C671.325 255.707 671.308 255.57 671.34 255.441C671.373 255.312 671.452 255.202 671.56 255.135C671.669 255.068 671.798 255.05 671.918 255.085C672.039 255.119 672.142 255.204 672.205 255.319L673.771 258.213L674.16 257.192C674.241 256.996 674.379 256.833 674.553 256.726C674.728 256.62 674.929 256.576 675.129 256.602L676.16 256.736L674.274 253.265C674.243 253.208 674.223 253.145 674.215 253.079C674.206 253.014 674.211 252.947 674.227 252.883C674.243 252.819 674.27 252.759 674.308 252.707C674.346 252.654 674.393 252.61 674.447 252.577C674.5 252.544 674.56 252.523 674.621 252.514C674.682 252.505 674.745 252.51 674.805 252.527C674.865 252.544 674.921 252.574 674.97 252.614C675.019 252.654 675.06 252.704 675.091 252.762L676.978 256.239C677.063 256.4 677.105 256.584 677.1 256.769C677.094 256.955 677.04 257.135 676.944 257.289C676.849 257.444 676.715 257.568 676.558 257.647C676.4 257.726 676.226 257.756 676.053 257.736L675.022 257.595L674.626 258.609C674.558 258.781 674.446 258.93 674.302 259.038C674.159 259.146 673.99 259.209 673.815 259.22H673.758Z" fill="#18181B"/>
<path d="M666.962 259.22H666.906C666.714 259.209 666.529 259.142 666.372 259.026C666.215 258.911 666.092 258.752 666.018 258.568L665.57 257.48L664.454 257.63C664.266 257.656 664.074 257.626 663.901 257.544C663.728 257.461 663.581 257.33 663.476 257.165C663.377 256.997 663.324 256.803 663.324 256.606C663.324 256.409 663.377 256.216 663.476 256.048L665.543 252.331C665.611 252.208 665.724 252.118 665.856 252.081C665.989 252.044 666.13 252.063 666.249 252.134C666.367 252.206 666.454 252.323 666.49 252.461C666.525 252.598 666.507 252.745 666.438 252.868L664.372 256.578L665.494 256.427C665.713 256.398 665.935 256.443 666.126 256.557C666.318 256.671 666.468 256.846 666.555 257.057L667.003 258.146L668.684 255.059C668.752 254.936 668.865 254.846 668.997 254.809C669.13 254.772 669.271 254.791 669.39 254.863C669.508 254.934 669.595 255.051 669.631 255.189C669.666 255.326 669.648 255.473 669.579 255.597L667.843 258.683C667.756 258.846 667.628 258.982 667.473 259.076C667.318 259.171 667.141 259.22 666.962 259.22Z" fill="#18181B"/>
<path d="M670.44 256.537C669.969 256.537 669.518 256.351 669.183 256.018L668.562 255.393C668.497 255.326 668.419 255.272 668.333 255.236C668.247 255.199 668.155 255.18 668.061 255.18H667.355C666.886 255.178 666.437 254.99 666.105 254.656C665.773 254.322 665.586 253.869 665.584 253.397V252.687C665.586 252.587 665.566 252.488 665.528 252.396C665.489 252.304 665.431 252.222 665.358 252.154L664.73 251.529C664.4 251.192 664.215 250.738 664.215 250.264C664.213 250.031 664.257 249.8 664.344 249.585C664.432 249.369 664.56 249.172 664.723 249.007L665.358 248.375C665.424 248.308 665.475 248.23 665.51 248.143C665.546 248.056 665.563 247.964 665.563 247.87V247.16C665.56 246.924 665.604 246.69 665.691 246.472C665.778 246.253 665.907 246.054 666.071 245.885C666.235 245.717 666.431 245.583 666.646 245.491C666.862 245.399 667.093 245.35 667.327 245.349H668.033C668.126 245.349 668.218 245.331 668.304 245.296C668.39 245.26 668.468 245.208 668.534 245.143L669.183 244.525C669.523 244.196 669.975 244.012 670.447 244.012C670.918 244.012 671.371 244.196 671.71 244.525L672.331 245.15C672.397 245.216 672.475 245.268 672.561 245.303C672.647 245.338 672.739 245.356 672.832 245.356H673.538C674.008 245.358 674.459 245.547 674.791 245.882C675.123 246.218 675.309 246.672 675.309 247.146V247.856C675.309 247.95 675.326 248.042 675.362 248.129C675.397 248.215 675.448 248.294 675.514 248.36L676.142 248.993C676.471 249.329 676.655 249.782 676.655 250.254C676.655 250.725 676.471 251.178 676.142 251.514L675.514 252.14C675.448 252.207 675.395 252.287 675.36 252.374C675.325 252.462 675.308 252.556 675.309 252.651V253.361C675.313 253.597 675.27 253.831 675.184 254.05C675.098 254.269 674.969 254.469 674.806 254.638C674.643 254.807 674.448 254.942 674.233 255.035C674.017 255.128 673.786 255.177 673.552 255.18H672.846C672.753 255.18 672.66 255.199 672.574 255.236C672.488 255.272 672.41 255.326 672.345 255.393L671.724 256.018C671.555 256.186 671.354 256.319 671.134 256.408C670.913 256.497 670.677 256.541 670.44 256.537ZM667.327 246.414C667.14 246.414 666.961 246.489 666.828 246.622C666.696 246.755 666.621 246.936 666.621 247.124V247.835C666.622 248.068 666.577 248.3 666.489 248.515C666.4 248.731 666.27 248.927 666.106 249.092L665.485 249.724C665.419 249.79 665.365 249.869 665.329 249.955C665.293 250.042 665.274 250.135 665.274 250.229C665.273 250.324 665.291 250.418 665.328 250.506C665.364 250.594 665.418 250.674 665.485 250.74L666.106 251.365C666.271 251.531 666.402 251.728 666.49 251.945C666.579 252.162 666.623 252.395 666.621 252.63V253.34C666.621 253.528 666.696 253.709 666.828 253.842C666.961 253.976 667.14 254.05 667.327 254.05H668.033C668.266 254.049 668.496 254.095 668.711 254.186C668.925 254.276 669.12 254.409 669.282 254.576L669.903 255.201C670.041 255.332 670.222 255.404 670.411 255.404C670.6 255.404 670.782 255.332 670.919 255.201L671.541 254.576C671.703 254.409 671.898 254.276 672.112 254.186C672.327 254.095 672.557 254.049 672.79 254.05H673.495C673.683 254.05 673.862 253.976 673.994 253.842C674.127 253.709 674.201 253.528 674.201 253.34V252.63C674.199 252.395 674.244 252.162 674.333 251.945C674.421 251.728 674.551 251.531 674.716 251.365L675.344 250.74C675.412 250.674 675.465 250.595 675.502 250.508C675.538 250.421 675.557 250.327 675.557 250.232C675.557 250.138 675.538 250.044 675.502 249.957C675.465 249.87 675.412 249.791 675.344 249.724L674.716 249.092C674.552 248.927 674.422 248.731 674.334 248.515C674.245 248.3 674.2 248.068 674.201 247.835V247.124C674.201 246.936 674.127 246.755 673.994 246.622C673.862 246.489 673.683 246.414 673.495 246.414H672.79C672.558 246.415 672.328 246.37 672.114 246.281C671.899 246.192 671.704 246.061 671.541 245.896L670.919 245.27C670.854 245.202 670.775 245.147 670.687 245.11C670.6 245.072 670.506 245.053 670.411 245.053C670.316 245.053 670.223 245.072 670.135 245.11C670.048 245.147 669.969 245.202 669.903 245.27L669.282 245.896C669.118 246.061 668.923 246.192 668.709 246.281C668.495 246.37 668.265 246.415 668.033 246.414H667.327Z" fill="#18181B"/>
<path d="M669.862 252.063C669.725 252.062 669.593 252.003 669.494 251.9L668.361 250.664C668.265 250.56 668.211 250.419 668.211 250.272C668.211 250.125 668.265 249.984 668.361 249.88C668.459 249.777 668.59 249.72 668.726 249.72C668.862 249.72 668.993 249.777 669.091 249.88L669.862 250.724L671.774 248.644C671.872 248.542 672.003 248.484 672.139 248.484C672.275 248.484 672.406 248.542 672.504 248.644C672.6 248.748 672.654 248.889 672.654 249.037C672.654 249.184 672.6 249.325 672.504 249.429L670.224 251.9C670.127 252.003 669.998 252.061 669.862 252.063Z" fill="#18181B"/>
</g>
</g>
<g filter="url(#filter10_di_5522_88633)">
<mask id="path-55-inside-5_5522_88633" fill="white">
<path d="M325 157C325 141.536 337.536 129 353 129C368.464 129 381 141.536 381 157C381 172.464 368.464 185 353 185C337.536 185 325 172.464 325 157Z"/>
</mask>
<path d="M325 157C325 141.536 337.536 129 353 129C368.464 129 381 141.536 381 157C381 172.464 368.464 185 353 185C337.536 185 325 172.464 325 157Z" fill="#F6F9FD"/>
<path d="M325 155.5C325 140.036 337.536 127.5 353 127.5C368.464 127.5 381 140.036 381 155.5V157C381 142.364 368.464 130.5 353 130.5C337.536 130.5 325 142.364 325 157V155.5ZM381 158.5C381 173.964 368.464 186.5 353 186.5C337.536 186.5 325 173.964 325 158.5V157C325 171.636 337.536 183.5 353 183.5C368.464 183.5 381 171.636 381 157V158.5ZM325 185V129V185ZM381 129V185V129Z" fill="#266AE9" fill-opacity="0.6" mask="url(#path-55-inside-5_5522_88633)"/>
<path d="M352.371 167.32C348.858 166.232 345.915 163.804 344.177 160.564C342.44 157.323 342.047 153.528 343.084 150C346.719 150.166 350.275 148.911 353.001 146.5C355.726 148.911 359.282 150.166 362.917 150C363.709 152.694 363.672 155.564 362.812 158.237M356.501 165.167L358.834 167.5L363.501 162.833" stroke="#266AE9" stroke-width="1.5" stroke-linecap="round" stroke-linejoin="round"/>
</g>
<g filter="url(#filter11_d_5522_88633)">
<rect x="-55.5" y="86" width="200" height="130" rx="12" fill="#FCFCFC" shape-rendering="crispEdges"/>
<rect x="-55" y="86.5" width="199" height="129" rx="11.5" stroke="#F4F4F5" shape-rendering="crispEdges"/>
<g opacity="0.6">
<rect x="-43.5" y="102" width="122" height="16" rx="4" fill="#F4F4F5"/>
<rect x="92.5" y="102" width="16" height="16" rx="4" fill="#F4F4F5"/>
<rect x="116.5" y="102" width="16" height="16" rx="4" fill="#F4F4F5"/>
<rect x="-43.5" y="122" width="80" height="20" rx="6" fill="#F4F4F5"/>
<rect x="52.5" y="122" width="80" height="20" rx="6" fill="#F4F4F5"/>
</g>
<g opacity="0.6">
<g clip-path="url(#clip1_5522_88633)">
<rect x="-31.5" y="154" width="40" height="16" rx="4" fill="#F4F4F5"/>
<rect x="16.5" y="154" width="76" height="16" rx="4" fill="#F4F4F5"/>
<rect x="100.5" y="154" width="78" height="16" rx="4" fill="#F4F4F5"/>
</g>
<g clip-path="url(#clip2_5522_88633)">
<rect x="-31.5" y="178" width="76" height="16" rx="4" fill="#F4F4F5"/>
<rect x="52.5" y="178" width="40" height="16" rx="4" fill="#F4F4F5"/>
<rect x="100.5" y="178" width="78" height="16" rx="4" fill="#F4F4F5"/>
</g>
</g>
<g filter="url(#filter12_dd_5522_88633)">
<mask id="path-71-inside-6_5522_88633" fill="white">
<path d="M24.5 86C24.5 74.9543 33.4543 66 44.5 66C55.5457 66 64.5 74.9543 64.5 86C64.5 97.0457 55.5457 106 44.5 106C33.4543 106 24.5 97.0457 24.5 86Z"/>
</mask>
<path d="M24.5 86C24.5 74.9543 33.4543 66 44.5 66C55.5457 66 64.5 74.9543 64.5 86C64.5 97.0457 55.5457 106 44.5 106C33.4543 106 24.5 97.0457 24.5 86Z" fill="#FAFAFA"/>
<path d="M44.5 106V105C34.0066 105 25.5 96.4934 25.5 86H24.5H23.5C23.5 97.598 32.902 107 44.5 107V106ZM64.5 86H63.5C63.5 96.4934 54.9934 105 44.5 105V106V107C56.098 107 65.5 97.598 65.5 86H64.5ZM44.5 66V67C54.9934 67 63.5 75.5066 63.5 86H64.5H65.5C65.5 74.402 56.098 65 44.5 65V66ZM44.5 66V65C32.902 65 23.5 74.402 23.5 86H24.5H25.5C25.5 75.5066 34.0066 67 44.5 67V66Z" fill="#E4E4E7" mask="url(#path-71-inside-6_5522_88633)"/>
<path d="M47.758 93.2197C47.594 93.2202 47.4328 93.1737 47.2912 93.0852C47.1497 92.9967 47.0329 92.8692 46.9531 92.7162L45.3874 89.8229C45.3248 89.7072 45.3079 89.5697 45.3403 89.4406C45.3728 89.3116 45.4519 89.2016 45.5603 89.1348C45.6687 89.0681 45.7975 89.05 45.9184 89.0846C46.0393 89.1192 46.1423 89.2037 46.2048 89.3194L47.7706 92.2127L48.1605 91.1923C48.2413 90.9961 48.379 90.8328 48.5534 90.7264C48.7277 90.62 48.9295 90.5763 49.1289 90.6016L50.1602 90.7359L48.2737 87.2653C48.2427 87.208 48.2226 87.1447 48.2146 87.0791C48.2065 87.0135 48.2106 86.9469 48.2267 86.883C48.2427 86.8191 48.2704 86.7592 48.3081 86.7067C48.3459 86.6543 48.3929 86.6102 48.4466 86.5772C48.5003 86.5441 48.5595 86.5227 48.621 86.5141C48.6824 86.5054 48.7448 86.5098 48.8047 86.527C48.8645 86.5441 48.9206 86.5737 48.9698 86.614C49.0189 86.6543 49.0602 86.7045 49.0912 86.7618L50.9776 90.2391C51.0632 90.4005 51.1054 90.5839 51.0995 90.7693C51.0937 90.9546 51.04 91.1346 50.9444 91.2894C50.8488 91.4443 50.715 91.5679 50.5577 91.6467C50.4005 91.7255 50.2259 91.7565 50.0533 91.7361L49.022 91.5951L48.6258 92.6088C48.5578 92.7815 48.4457 92.9303 48.3022 93.0383C48.1588 93.1463 47.9899 93.2092 47.8146 93.2197H47.758Z" fill="#18181B"/>
<path d="M40.9615 93.2197H40.9064C40.7145 93.2085 40.5294 93.1415 40.3723 93.0263C40.2152 92.9111 40.0924 92.7524 40.0179 92.5681L39.5701 91.4797L38.4542 91.6301C38.2656 91.6559 38.0738 91.6259 37.9008 91.5436C37.7278 91.4613 37.5806 91.3299 37.4761 91.1647C37.3768 90.9967 37.3242 90.8033 37.3242 90.6061C37.3242 90.409 37.3768 90.2156 37.4761 90.0476L39.5426 86.3313C39.6111 86.2079 39.7239 86.1178 39.8564 86.0809C39.9888 86.0439 40.1299 86.0632 40.2486 86.1344C40.3674 86.2056 40.454 86.323 40.4895 86.4606C40.5251 86.5982 40.5065 86.7449 40.438 86.8684L38.3716 90.5775L39.4943 90.4271C39.713 90.3978 39.935 90.4434 40.1265 90.5571C40.3179 90.6709 40.4684 90.8465 40.5551 91.0573L41.0029 92.1457L42.6836 89.0595C42.7521 88.936 42.865 88.8459 42.9974 88.809C43.1298 88.7721 43.2709 88.7913 43.3897 88.8626C43.5084 88.9338 43.5951 89.0511 43.6306 89.1888C43.6661 89.3264 43.6476 89.4731 43.5791 89.5965L41.8432 92.6827C41.7558 92.8459 41.628 92.9819 41.4729 93.0763C41.3178 93.1707 41.1413 93.2203 40.9615 93.2197Z" fill="#18181B"/>
<path d="M44.4396 90.5366C43.9693 90.537 43.5179 90.3507 43.1833 90.0181L42.5623 89.393C42.4969 89.3258 42.419 89.2725 42.333 89.2359C42.2469 89.1993 42.1546 89.1803 42.0612 89.1799H41.3555C40.8862 89.178 40.4367 88.9895 40.1049 88.6556C39.7731 88.3216 39.5859 87.8692 39.584 87.3969V86.6865C39.5857 86.5867 39.5664 86.4877 39.5275 86.3959C39.4886 86.3041 39.4309 86.2216 39.3582 86.1538L38.7301 85.5286C38.3996 85.1919 38.2145 84.7375 38.2149 84.2642C38.2132 84.0313 38.2572 83.8003 38.3444 83.5845C38.4316 83.3688 38.5602 83.1725 38.723 83.0069L39.3582 82.3747C39.4236 82.3083 39.4754 82.2296 39.5105 82.143C39.5456 82.0565 39.5634 81.9638 39.5629 81.8703V81.16C39.5601 80.9243 39.6035 80.6904 39.6908 80.4717C39.778 80.2529 39.9073 80.0537 40.0713 79.8854C40.2352 79.7171 40.4305 79.5831 40.646 79.4909C40.8616 79.3988 41.0931 79.3504 41.3272 79.3486H42.033C42.1258 79.3491 42.2179 79.3312 42.3039 79.2958C42.3899 79.2605 42.4681 79.2084 42.534 79.1426L43.1833 78.5246C43.5226 78.1955 43.9755 78.0117 44.4466 78.0117C44.9178 78.0117 45.3706 78.1955 45.7099 78.5246L46.3309 79.1497C46.3969 79.2155 46.4751 79.2676 46.5611 79.303C46.6471 79.3383 46.7391 79.3562 46.832 79.3557H47.5378C48.0082 79.3576 48.4588 79.547 48.7908 79.8825C49.1228 80.218 49.3092 80.6722 49.3092 81.1458V81.8561C49.3086 81.9496 49.3264 82.0423 49.3616 82.1288C49.3967 82.2154 49.4484 82.2941 49.5138 82.3605L50.142 82.9927C50.4708 83.3289 50.6551 83.7818 50.6551 84.2536C50.6551 84.7254 50.4708 85.1782 50.142 85.5144L49.5138 86.1396C49.4476 86.2068 49.3953 86.2866 49.3602 86.3745C49.3251 86.4623 49.3077 86.5563 49.3092 86.651V87.3614C49.3129 87.597 49.2704 87.8311 49.184 88.0502C49.0976 88.2693 48.9691 88.4691 48.8058 88.638C48.6425 88.807 48.4477 88.9418 48.2325 89.0348C48.0174 89.1278 47.786 89.1771 47.5519 89.1799H46.8461C46.7528 89.1803 46.6604 89.1993 46.5744 89.2359C46.4884 89.2725 46.4104 89.3258 46.3451 89.393L45.724 90.0181C45.555 90.1862 45.3543 90.3187 45.1337 90.4077C44.9132 90.4968 44.6772 90.5406 44.4396 90.5366ZM41.3272 80.4141C41.14 80.4141 40.9605 80.4889 40.8282 80.6222C40.6958 80.7554 40.6215 80.9361 40.6215 81.1245V81.8348C40.6223 82.0682 40.5772 82.2995 40.4887 82.5153C40.4003 82.7311 40.2703 82.9271 40.1063 83.0921L39.4852 83.7244C39.4185 83.7901 39.3655 83.8686 39.3292 83.9552C39.2928 84.0417 39.2739 84.1347 39.2735 84.2287C39.273 84.3239 39.2914 84.4182 39.3278 84.5061C39.3642 84.5939 39.4177 84.6735 39.4852 84.7402L40.1063 85.3653C40.2712 85.5311 40.4017 85.7283 40.4901 85.9454C40.5786 86.1625 40.6232 86.3951 40.6215 86.6297V87.34C40.6215 87.5284 40.6958 87.7091 40.8282 87.8423C40.9605 87.9756 41.14 88.0504 41.3272 88.0504H42.033C42.2655 88.0493 42.496 88.0953 42.7106 88.1856C42.9251 88.2759 43.1195 88.4087 43.2821 88.5761L43.9032 89.2012C44.0407 89.3315 44.2224 89.4041 44.4113 89.4041C44.6002 89.4041 44.782 89.3315 44.9195 89.2012L45.5405 88.5761C45.7031 88.4087 45.8975 88.2759 46.1121 88.1856C46.3267 88.0953 46.5571 88.0493 46.7897 88.0504H47.4954C47.6826 88.0504 47.8621 87.9756 47.9945 87.8423C48.1268 87.7091 48.2012 87.5284 48.2012 87.34V86.6297C48.1994 86.3951 48.2441 86.1625 48.3325 85.9454C48.421 85.7283 48.5515 85.5311 48.7164 85.3653L49.3445 84.7402C49.4117 84.674 49.4651 84.595 49.5016 84.5078C49.538 84.4206 49.5568 84.3269 49.5568 84.2323C49.5568 84.1376 49.538 84.044 49.5016 83.9567C49.4651 83.8695 49.4117 83.7905 49.3445 83.7244L48.7164 83.0921C48.5523 82.9271 48.4223 82.7311 48.3339 82.5153C48.2455 82.2995 48.2004 82.0682 48.2012 81.8348V81.1245C48.2012 80.9361 48.1268 80.7554 47.9945 80.6222C47.8621 80.4889 47.6826 80.4141 47.4954 80.4141H46.7897C46.5578 80.4149 46.328 80.3695 46.1136 80.2805C45.8992 80.1915 45.7044 80.0607 45.5405 79.8955L44.9195 79.2704C44.8536 79.2017 44.7747 79.147 44.6874 79.1097C44.6001 79.0723 44.5062 79.0531 44.4113 79.0531C44.3165 79.0531 44.2226 79.0723 44.1353 79.1097C44.048 79.147 43.969 79.2017 43.9032 79.2704L43.2821 79.8955C43.1182 80.0607 42.9234 80.1915 42.709 80.2805C42.4947 80.3695 42.2649 80.4149 42.033 80.4141H41.3272Z" fill="#18181B"/>
<path d="M43.8624 86.063C43.7249 86.0617 43.593 86.0034 43.4938 85.9002L42.3607 84.6645C42.2648 84.5604 42.2109 84.4194 42.2109 84.2723C42.2109 84.1252 42.2648 83.9842 42.3607 83.8801C42.4587 83.7775 42.5896 83.7201 42.7259 83.7201C42.8621 83.7201 42.9931 83.7775 43.0911 83.8801L43.8624 84.7237L45.7738 82.6444C45.8718 82.5417 46.0027 82.4844 46.139 82.4844C46.2752 82.4844 46.4062 82.5417 46.5042 82.6444C46.6 82.7484 46.6539 82.8895 46.6539 83.0365C46.6539 83.1836 46.6 83.3247 46.5042 83.4287L44.2242 85.9002C44.1275 86.003 43.9979 86.0613 43.8624 86.063Z" fill="#18181B"/>
</g>
</g>
<g filter="url(#filter13_d_5522_88633)">
<rect x="560.5" y="86" width="200" height="130" rx="12" fill="#FCFCFC" shape-rendering="crispEdges"/>
<rect x="561" y="86.5" width="199" height="129" rx="11.5" stroke="#F4F4F5" shape-rendering="crispEdges"/>
<g opacity="0.6">
<rect x="572.5" y="102" width="122" height="16" rx="4" fill="#F4F4F5"/>
<rect x="572.5" y="122" width="80" height="20" rx="6" fill="#F4F4F5"/>
<rect x="668.5" y="122" width="80" height="20" rx="6" fill="#F4F4F5"/>
</g>
<g opacity="0.6">
<g clip-path="url(#clip3_5522_88633)">
<rect x="584.5" y="154" width="40" height="16" rx="4" fill="#F4F4F5"/>
<rect x="632.5" y="154" width="76" height="16" rx="4" fill="#F4F4F5"/>
</g>
<g clip-path="url(#clip4_5522_88633)">
<rect x="584.5" y="178" width="76" height="16" rx="4" fill="#F4F4F5"/>
<rect x="668.5" y="178" width="40" height="16" rx="4" fill="#F4F4F5"/>
</g>
</g>
<g filter="url(#filter14_dd_5522_88633)">
<mask id="path-86-inside-7_5522_88633" fill="white">
<path d="M640.5 86C640.5 74.9543 649.454 66 660.5 66C671.546 66 680.5 74.9543 680.5 86C680.5 97.0457 671.546 106 660.5 106C649.454 106 640.5 97.0457 640.5 86Z"/>
</mask>
<path d="M640.5 86C640.5 74.9543 649.454 66 660.5 66C671.546 66 680.5 74.9543 680.5 86C680.5 97.0457 671.546 106 660.5 106C649.454 106 640.5 97.0457 640.5 86Z" fill="#FAFAFA"/>
<path d="M660.5 106V105C650.007 105 641.5 96.4934 641.5 86H640.5H639.5C639.5 97.598 648.902 107 660.5 107V106ZM680.5 86H679.5C679.5 96.4934 670.993 105 660.5 105V106V107C672.098 107 681.5 97.598 681.5 86H680.5ZM660.5 66V67C670.993 67 679.5 75.5066 679.5 86H680.5H681.5C681.5 74.402 672.098 65 660.5 65V66ZM660.5 66V65C648.902 65 639.5 74.402 639.5 86H640.5H641.5C641.5 75.5066 650.007 67 660.5 67V66Z" fill="#E4E4E7" mask="url(#path-86-inside-7_5522_88633)"/>
<path d="M663.758 93.2197C663.594 93.2202 663.433 93.1737 663.291 93.0852C663.15 92.9967 663.033 92.8692 662.953 92.7162L661.387 89.8229C661.325 89.7072 661.308 89.5697 661.34 89.4406C661.373 89.3116 661.452 89.2016 661.56 89.1348C661.669 89.0681 661.798 89.05 661.918 89.0846C662.039 89.1192 662.142 89.2037 662.205 89.3194L663.771 92.2127L664.16 91.1923C664.241 90.9961 664.379 90.8328 664.553 90.7264C664.728 90.62 664.929 90.5763 665.129 90.6016L666.16 90.7359L664.274 87.2653C664.243 87.208 664.223 87.1447 664.215 87.0791C664.206 87.0135 664.211 86.9469 664.227 86.883C664.243 86.8191 664.27 86.7592 664.308 86.7067C664.346 86.6543 664.393 86.6102 664.447 86.5772C664.5 86.5441 664.56 86.5227 664.621 86.5141C664.682 86.5054 664.745 86.5098 664.805 86.527C664.865 86.5441 664.921 86.5737 664.97 86.614C665.019 86.6543 665.06 86.7045 665.091 86.7618L666.978 90.2391C667.063 90.4005 667.105 90.5839 667.1 90.7693C667.094 90.9546 667.04 91.1346 666.944 91.2894C666.849 91.4443 666.715 91.5679 666.558 91.6467C666.4 91.7255 666.226 91.7565 666.053 91.7361L665.022 91.5951L664.626 92.6088C664.558 92.7815 664.446 92.9303 664.302 93.0383C664.159 93.1463 663.99 93.2092 663.815 93.2197H663.758Z" fill="#18181B"/>
<path d="M656.962 93.2197H656.906C656.714 93.2085 656.529 93.1415 656.372 93.0263C656.215 92.9111 656.092 92.7524 656.018 92.5681L655.57 91.4797L654.454 91.6301C654.266 91.6559 654.074 91.6259 653.901 91.5436C653.728 91.4613 653.581 91.3299 653.476 91.1647C653.377 90.9967 653.324 90.8033 653.324 90.6061C653.324 90.409 653.377 90.2156 653.476 90.0476L655.543 86.3313C655.611 86.2079 655.724 86.1178 655.856 86.0809C655.989 86.0439 656.13 86.0632 656.249 86.1344C656.367 86.2056 656.454 86.323 656.49 86.4606C656.525 86.5982 656.507 86.7449 656.438 86.8684L654.372 90.5775L655.494 90.4271C655.713 90.3978 655.935 90.4434 656.126 90.5571C656.318 90.6709 656.468 90.8465 656.555 91.0573L657.003 92.1457L658.684 89.0595C658.752 88.936 658.865 88.8459 658.997 88.809C659.13 88.7721 659.271 88.7913 659.39 88.8626C659.508 88.9338 659.595 89.0511 659.631 89.1888C659.666 89.3264 659.648 89.4731 659.579 89.5965L657.843 92.6827C657.756 92.8459 657.628 92.9819 657.473 93.0763C657.318 93.1707 657.141 93.2203 656.962 93.2197Z" fill="#18181B"/>
<path d="M660.44 90.5366C659.969 90.537 659.518 90.3507 659.183 90.0181L658.562 89.393C658.497 89.3258 658.419 89.2725 658.333 89.2359C658.247 89.1993 658.155 89.1803 658.061 89.1799H657.355C656.886 89.178 656.437 88.9895 656.105 88.6556C655.773 88.3216 655.586 87.8692 655.584 87.3969V86.6865C655.586 86.5867 655.566 86.4877 655.528 86.3959C655.489 86.3041 655.431 86.2216 655.358 86.1538L654.73 85.5286C654.4 85.1919 654.215 84.7375 654.215 84.2642C654.213 84.0313 654.257 83.8003 654.344 83.5845C654.432 83.3688 654.56 83.1725 654.723 83.0069L655.358 82.3747C655.424 82.3083 655.475 82.2296 655.51 82.143C655.546 82.0565 655.563 81.9638 655.563 81.8703V81.16C655.56 80.9243 655.604 80.6904 655.691 80.4717C655.778 80.2529 655.907 80.0537 656.071 79.8854C656.235 79.7171 656.431 79.5831 656.646 79.4909C656.862 79.3988 657.093 79.3504 657.327 79.3486H658.033C658.126 79.3491 658.218 79.3312 658.304 79.2958C658.39 79.2605 658.468 79.2084 658.534 79.1426L659.183 78.5246C659.523 78.1955 659.975 78.0117 660.447 78.0117C660.918 78.0117 661.371 78.1955 661.71 78.5246L662.331 79.1497C662.397 79.2155 662.475 79.2676 662.561 79.303C662.647 79.3383 662.739 79.3562 662.832 79.3557H663.538C664.008 79.3576 664.459 79.547 664.791 79.8825C665.123 80.218 665.309 80.6722 665.309 81.1458V81.8561C665.309 81.9496 665.326 82.0423 665.362 82.1288C665.397 82.2154 665.448 82.2941 665.514 82.3605L666.142 82.9927C666.471 83.3289 666.655 83.7818 666.655 84.2536C666.655 84.7254 666.471 85.1782 666.142 85.5144L665.514 86.1396C665.448 86.2068 665.395 86.2866 665.36 86.3745C665.325 86.4623 665.308 86.5563 665.309 86.651V87.3614C665.313 87.597 665.27 87.8311 665.184 88.0502C665.098 88.2693 664.969 88.4691 664.806 88.638C664.643 88.807 664.448 88.9418 664.233 89.0348C664.017 89.1278 663.786 89.1771 663.552 89.1799H662.846C662.753 89.1803 662.66 89.1993 662.574 89.2359C662.488 89.2725 662.41 89.3258 662.345 89.393L661.724 90.0181C661.555 90.1862 661.354 90.3187 661.134 90.4077C660.913 90.4968 660.677 90.5406 660.44 90.5366ZM657.327 80.4141C657.14 80.4141 656.961 80.4889 656.828 80.6222C656.696 80.7554 656.621 80.9361 656.621 81.1245V81.8348C656.622 82.0682 656.577 82.2995 656.489 82.5153C656.4 82.7311 656.27 82.9271 656.106 83.0921L655.485 83.7244C655.419 83.7901 655.365 83.8686 655.329 83.9552C655.293 84.0417 655.274 84.1347 655.274 84.2287C655.273 84.3239 655.291 84.4182 655.328 84.5061C655.364 84.5939 655.418 84.6735 655.485 84.7402L656.106 85.3653C656.271 85.5311 656.402 85.7283 656.49 85.9454C656.579 86.1625 656.623 86.3951 656.621 86.6297V87.34C656.621 87.5284 656.696 87.7091 656.828 87.8423C656.961 87.9756 657.14 88.0504 657.327 88.0504H658.033C658.266 88.0493 658.496 88.0953 658.711 88.1856C658.925 88.2759 659.12 88.4087 659.282 88.5761L659.903 89.2012C660.041 89.3315 660.222 89.4041 660.411 89.4041C660.6 89.4041 660.782 89.3315 660.919 89.2012L661.541 88.5761C661.703 88.4087 661.898 88.2759 662.112 88.1856C662.327 88.0953 662.557 88.0493 662.79 88.0504H663.495C663.683 88.0504 663.862 87.9756 663.994 87.8423C664.127 87.7091 664.201 87.5284 664.201 87.34V86.6297C664.199 86.3951 664.244 86.1625 664.333 85.9454C664.421 85.7283 664.551 85.5311 664.716 85.3653L665.344 84.7402C665.412 84.674 665.465 84.595 665.502 84.5078C665.538 84.4206 665.557 84.3269 665.557 84.2323C665.557 84.1376 665.538 84.044 665.502 83.9567C665.465 83.8695 665.412 83.7905 665.344 83.7244L664.716 83.0921C664.552 82.9271 664.422 82.7311 664.334 82.5153C664.245 82.2995 664.2 82.0682 664.201 81.8348V81.1245C664.201 80.9361 664.127 80.7554 663.994 80.6222C663.862 80.4889 663.683 80.4141 663.495 80.4141H662.79C662.558 80.4149 662.328 80.3695 662.114 80.2805C661.899 80.1915 661.704 80.0607 661.541 79.8955L660.919 79.2704C660.854 79.2017 660.775 79.147 660.687 79.1097C660.6 79.0723 660.506 79.0531 660.411 79.0531C660.316 79.0531 660.223 79.0723 660.135 79.1097C660.048 79.147 659.969 79.2017 659.903 79.2704L659.282 79.8955C659.118 80.0607 658.923 80.1915 658.709 80.2805C658.495 80.3695 658.265 80.4149 658.033 80.4141H657.327Z" fill="#18181B"/>
<path d="M659.862 86.063C659.725 86.0617 659.593 86.0034 659.494 85.9002L658.361 84.6645C658.265 84.5604 658.211 84.4194 658.211 84.2723C658.211 84.1252 658.265 83.9842 658.361 83.8801C658.459 83.7775 658.59 83.7201 658.726 83.7201C658.862 83.7201 658.993 83.7775 659.091 83.8801L659.862 84.7237L661.774 82.6444C661.872 82.5417 662.003 82.4844 662.139 82.4844C662.275 82.4844 662.406 82.5417 662.504 82.6444C662.6 82.7484 662.654 82.8895 662.654 83.0365C662.654 83.1836 662.6 83.3247 662.504 83.4287L660.224 85.9002C660.127 86.003 659.998 86.0613 659.862 86.063Z" fill="#18181B"/>
</g>
</g>
<g filter="url(#filter15_d_5522_88633)">
<rect width="200" height="130" rx="12" transform="matrix(1 0 0 -1 -65.5 54)" fill="#FCFCFC" shape-rendering="crispEdges"/>
<rect x="0.5" y="-0.5" width="199" height="129" rx="11.5" transform="matrix(1 0 0 -1 -65.5 53)" stroke="#F4F4F5" shape-rendering="crispEdges"/>
<g opacity="0.6">
<rect width="122" height="16" rx="4" transform="matrix(1 0 0 -1 -53.5 38)" fill="#F4F4F5"/>
<rect width="16" height="16" rx="4" transform="matrix(1 0 0 -1 82.5 38)" fill="#F4F4F5"/>
<rect width="16" height="16" rx="4" transform="matrix(1 0 0 -1 106.5 38)" fill="#F4F4F5"/>
<rect width="80" height="20" rx="6" transform="matrix(1 0 0 -1 -53.5 18)" fill="#F4F4F5"/>
<rect width="80" height="20" rx="6" transform="matrix(1 0 0 -1 42.5 18)" fill="#F4F4F5"/>
</g>
<g filter="url(#filter16_dd_5522_88633)">
<mask id="path-99-inside-8_5522_88633" fill="white">
<path d="M14.5 54C14.5 65.0457 23.4543 74 34.5 74C45.5457 74 54.5 65.0457 54.5 54C54.5 42.9543 45.5457 34 34.5 34C23.4543 34 14.5 42.9543 14.5 54Z"/>
</mask>
<path d="M14.5 54C14.5 65.0457 23.4543 74 34.5 74C45.5457 74 54.5 65.0457 54.5 54C54.5 42.9543 45.5457 34 34.5 34C23.4543 34 14.5 42.9543 14.5 54Z" fill="#FAFAFA"/>
<path d="M34.5 34V35C24.0066 35 15.5 43.5066 15.5 54H14.5H13.5C13.5 42.402 22.902 33 34.5 33V34ZM54.5 54H53.5C53.5 43.5066 44.9934 35 34.5 35V34V33C46.098 33 55.5 42.402 55.5 54H54.5ZM34.5 74V73C44.9934 73 53.5 64.4934 53.5 54H54.5H55.5C55.5 65.598 46.098 75 34.5 75V74ZM34.5 74V75C22.902 75 13.5 65.598 13.5 54H14.5H15.5C15.5 64.4934 24.0066 73 34.5 73V74Z" fill="#E4E4E7" mask="url(#path-99-inside-8_5522_88633)"/>
<path d="M37.758 46.7803C37.594 46.7798 37.4328 46.8263 37.2912 46.9148C37.1497 47.0033 37.0329 47.1308 36.9531 47.2838L35.3874 50.1771C35.3248 50.2928 35.3079 50.4303 35.3403 50.5594C35.3728 50.6884 35.4519 50.7984 35.5603 50.8652C35.6687 50.9319 35.7975 50.95 35.9184 50.9154C36.0393 50.8808 36.1423 50.7963 36.2048 50.6806L37.7706 47.7873L38.1605 48.8077C38.2413 49.0039 38.379 49.1672 38.5534 49.2736C38.7277 49.38 38.9295 49.4237 39.1289 49.3984L40.1602 49.2641L38.2737 52.7347C38.2427 52.792 38.2226 52.8553 38.2146 52.9209C38.2065 52.9865 38.2106 53.0531 38.2267 53.117C38.2427 53.1809 38.2704 53.2408 38.3081 53.2933C38.3459 53.3457 38.3929 53.3898 38.4466 53.4228C38.5003 53.4559 38.5595 53.4773 38.621 53.4859C38.6824 53.4946 38.7448 53.4902 38.8047 53.473C38.8645 53.4559 38.9206 53.4263 38.9698 53.386C39.0189 53.3457 39.0602 53.2955 39.0912 53.2382L40.9776 49.7609C41.0632 49.5995 41.1054 49.4161 41.0995 49.2307C41.0937 49.0454 41.04 48.8654 40.9444 48.7106C40.8488 48.5557 40.715 48.4321 40.5577 48.3533C40.4005 48.2745 40.2259 48.2435 40.0533 48.2639L39.022 48.4049L38.6258 47.3912C38.5578 47.2185 38.4457 47.0697 38.3022 46.9617C38.1588 46.8537 37.9899 46.7908 37.8146 46.7803H37.758Z" fill="#18181B"/>
<path d="M30.9615 46.7803H30.9064C30.7145 46.7915 30.5294 46.8585 30.3723 46.9737C30.2152 47.0889 30.0924 47.2476 30.0179 47.4319L29.5701 48.5203L28.4542 48.3699C28.2656 48.3441 28.0738 48.3741 27.9008 48.4564C27.7278 48.5387 27.5806 48.6701 27.4761 48.8353C27.3768 49.0033 27.3242 49.1967 27.3242 49.3939C27.3242 49.591 27.3768 49.7844 27.4761 49.9524L29.5426 53.6687C29.6111 53.7921 29.7239 53.8822 29.8564 53.9191C29.9888 53.9561 30.1299 53.9368 30.2486 53.8656C30.3674 53.7944 30.454 53.677 30.4895 53.5394C30.5251 53.4018 30.5065 53.2551 30.438 53.1316L28.3716 49.4225L29.4943 49.5729C29.713 49.6022 29.935 49.5566 30.1265 49.4429C30.3179 49.3291 30.4684 49.1535 30.5551 48.9427L31.0029 47.8543L32.6836 50.9405C32.7521 51.064 32.865 51.1541 32.9974 51.191C33.1298 51.2279 33.2709 51.2087 33.3897 51.1374C33.5084 51.0662 33.5951 50.9489 33.6306 50.8112C33.6661 50.6736 33.6476 50.5269 33.5791 50.4035L31.8432 47.3173C31.7558 47.1541 31.628 47.0181 31.4729 46.9237C31.3178 46.8293 31.1413 46.7797 30.9615 46.7803Z" fill="#18181B"/>
<path d="M34.4396 49.4634C33.9693 49.463 33.5179 49.6493 33.1833 49.9819L32.5623 50.607C32.4969 50.6742 32.419 50.7275 32.333 50.7641C32.2469 50.8007 32.1546 50.8197 32.0612 50.8201H31.3555C30.8862 50.822 30.4367 51.0105 30.1049 51.3444C29.7731 51.6784 29.5859 52.1308 29.584 52.6031V53.3135C29.5857 53.4133 29.5664 53.5123 29.5275 53.6041C29.4886 53.6959 29.4309 53.7784 29.3582 53.8462L28.7301 54.4714C28.3996 54.8081 28.2145 55.2625 28.2149 55.7358C28.2132 55.9687 28.2572 56.1997 28.3444 56.4155C28.4316 56.6312 28.5602 56.8275 28.723 56.9931L29.3582 57.6253C29.4236 57.6917 29.4754 57.7704 29.5105 57.857C29.5456 57.9435 29.5634 58.0362 29.5629 58.1297V58.84C29.5601 59.0757 29.6035 59.3096 29.6908 59.5283C29.778 59.7471 29.9073 59.9463 30.0713 60.1146C30.2352 60.2829 30.4305 60.4169 30.646 60.5091C30.8616 60.6012 31.0931 60.6496 31.3272 60.6514H32.033C32.1258 60.6509 32.2179 60.6688 32.3039 60.7042C32.3899 60.7395 32.4681 60.7916 32.534 60.8574L33.1833 61.4754C33.5226 61.8045 33.9755 61.9883 34.4466 61.9883C34.9178 61.9883 35.3706 61.8045 35.7099 61.4754L36.3309 60.8503C36.3969 60.7845 36.4751 60.7324 36.5611 60.697C36.6471 60.6617 36.7391 60.6438 36.832 60.6443H37.5378C38.0082 60.6424 38.4588 60.453 38.7908 60.1175C39.1228 59.782 39.3092 59.3278 39.3092 58.8542V58.1439C39.3086 58.0504 39.3264 57.9577 39.3616 57.8712C39.3967 57.7846 39.4484 57.7059 39.5138 57.6395L40.142 57.0073C40.4708 56.6711 40.6551 56.2182 40.6551 55.7464C40.6551 55.2746 40.4708 54.8218 40.142 54.4856L39.5138 53.8604C39.4476 53.7932 39.3953 53.7134 39.3602 53.6255C39.3251 53.5377 39.3077 53.4437 39.3092 53.349V52.6386C39.3129 52.403 39.2704 52.1689 39.184 51.9498C39.0976 51.7307 38.9691 51.5309 38.8058 51.362C38.6425 51.193 38.4477 51.0582 38.2325 50.9652C38.0174 50.8722 37.786 50.8229 37.5519 50.8201H36.8461C36.7528 50.8197 36.6604 50.8007 36.5744 50.7641C36.4884 50.7275 36.4104 50.6742 36.3451 50.607L35.724 49.9819C35.555 49.8138 35.3543 49.6813 35.1337 49.5923C34.9132 49.5032 34.6772 49.4594 34.4396 49.4634ZM31.3272 59.5859C31.14 59.5859 30.9605 59.5111 30.8282 59.3778C30.6958 59.2446 30.6215 59.0639 30.6215 58.8755V58.1652C30.6223 57.9318 30.5772 57.7005 30.4887 57.4847C30.4003 57.2689 30.2703 57.0729 30.1063 56.9079L29.4852 56.2756C29.4185 56.2099 29.3655 56.1314 29.3292 56.0448C29.2928 55.9583 29.2739 55.8653 29.2735 55.7713C29.273 55.6761 29.2914 55.5818 29.3278 55.4939C29.3642 55.4061 29.4177 55.3265 29.4852 55.2598L30.1063 54.6347C30.2712 54.4689 30.4017 54.2717 30.4901 54.0546C30.5786 53.8375 30.6232 53.6049 30.6215 53.3703V52.66C30.6215 52.4716 30.6958 52.2909 30.8282 52.1577C30.9605 52.0244 31.14 51.9496 31.3272 51.9496H32.033C32.2655 51.9507 32.496 51.9047 32.7106 51.8144C32.9251 51.7241 33.1195 51.5913 33.2821 51.4239L33.9032 50.7988C34.0407 50.6685 34.2224 50.5959 34.4113 50.5959C34.6002 50.5959 34.782 50.6685 34.9195 50.7988L35.5405 51.4239C35.7031 51.5913 35.8975 51.7241 36.1121 51.8144C36.3267 51.9047 36.5571 51.9507 36.7897 51.9496H37.4954C37.6826 51.9496 37.8621 52.0244 37.9945 52.1577C38.1268 52.2909 38.2012 52.4716 38.2012 52.66V53.3703C38.1994 53.6049 38.2441 53.8375 38.3325 54.0546C38.421 54.2717 38.5515 54.4689 38.7164 54.6347L39.3445 55.2598C39.4117 55.326 39.4651 55.405 39.5016 55.4922C39.538 55.5794 39.5568 55.6731 39.5568 55.7677C39.5568 55.8624 39.538 55.956 39.5016 56.0433C39.4651 56.1305 39.4117 56.2095 39.3445 56.2756L38.7164 56.9079C38.5523 57.0729 38.4223 57.2689 38.3339 57.4847C38.2455 57.7005 38.2004 57.9318 38.2012 58.1652V58.8755C38.2012 59.0639 38.1268 59.2446 37.9945 59.3778C37.8621 59.5111 37.6826 59.5859 37.4954 59.5859H36.7897C36.5578 59.5851 36.328 59.6305 36.1136 59.7195C35.8992 59.8085 35.7044 59.9393 35.5405 60.1045L34.9195 60.7296C34.8536 60.7983 34.7747 60.853 34.6874 60.8903C34.6001 60.9277 34.5062 60.9469 34.4113 60.9469C34.3165 60.9469 34.2226 60.9277 34.1353 60.8903C34.048 60.853 33.969 60.7983 33.9032 60.7296L33.2821 60.1045C33.1182 59.9393 32.9234 59.8085 32.709 59.7195C32.4947 59.6305 32.2649 59.5851 32.033 59.5859H31.3272Z" fill="#18181B"/>
<path d="M33.8624 53.937C33.7249 53.9383 33.593 53.9966 33.4938 54.0998L32.3607 55.3355C32.2648 55.4396 32.2109 55.5806 32.2109 55.7277C32.2109 55.8748 32.2648 56.0158 32.3607 56.1199C32.4587 56.2225 32.5896 56.2799 32.7259 56.2799C32.8621 56.2799 32.9931 56.2225 33.0911 56.1199L33.8624 55.2763L35.7738 57.3556C35.8718 57.4583 36.0027 57.5156 36.139 57.5156C36.2752 57.5156 36.4062 57.4583 36.5042 57.3556C36.6 57.2516 36.6539 57.1105 36.6539 56.9635C36.6539 56.8164 36.6 56.6753 36.5042 56.5713L34.2242 54.0998C34.1275 53.997 33.9979 53.9387 33.8624 53.937Z" fill="#18181B"/>
</g>
</g>
<g filter="url(#filter17_d_5522_88633)">
<rect width="200" height="130" rx="12" transform="matrix(1 0 0 -1 146.5 54)" fill="#FCFCFC" shape-rendering="crispEdges"/>
<rect x="0.5" y="-0.5" width="199" height="129" rx="11.5" transform="matrix(1 0 0 -1 146.5 53)" stroke="#F4F4F5" shape-rendering="crispEdges"/>
<g opacity="0.6">
<rect width="122" height="16" rx="4" transform="matrix(1 0 0 -1 158.5 38)" fill="#F4F4F5"/>
<rect width="16" height="16" rx="4" transform="matrix(1 0 0 -1 294.5 38)" fill="#F4F4F5"/>
<rect width="16" height="16" rx="4" transform="matrix(1 0 0 -1 318.5 38)" fill="#F4F4F5"/>
<rect width="80" height="20" rx="6" transform="matrix(1 0 0 -1 158.5 18)" fill="#F4F4F5"/>
<rect width="80" height="20" rx="6" transform="matrix(1 0 0 -1 254.5 18)" fill="#F4F4F5"/>
</g>
<g filter="url(#filter18_dd_5522_88633)">
<mask id="path-112-inside-9_5522_88633" fill="white">
<path d="M226.5 54C226.5 42.9543 235.454 34 246.5 34C257.546 34 266.5 42.9543 266.5 54C266.5 65.0457 257.546 74 246.5 74C235.454 74 226.5 65.0457 226.5 54Z"/>
</mask>
<path d="M226.5 54C226.5 42.9543 235.454 34 246.5 34C257.546 34 266.5 42.9543 266.5 54C266.5 65.0457 257.546 74 246.5 74C235.454 74 226.5 65.0457 226.5 54Z" fill="#FAFAFA"/>
<path d="M246.5 74V73C236.007 73 227.5 64.4934 227.5 54H226.5H225.5C225.5 65.598 234.902 75 246.5 75V74ZM266.5 54H265.5C265.5 64.4934 256.993 73 246.5 73V74V75C258.098 75 267.5 65.598 267.5 54H266.5ZM246.5 34V35C256.993 35 265.5 43.5066 265.5 54H266.5H267.5C267.5 42.402 258.098 33 246.5 33V34ZM246.5 34V33C234.902 33 225.5 42.402 225.5 54H226.5H227.5C227.5 43.5066 236.007 35 246.5 35V34Z" fill="#E4E4E7" mask="url(#path-112-inside-9_5522_88633)"/>
<path d="M248.168 46.5V49.8333C248.168 50.0543 248.256 50.2663 248.412 50.4226C248.568 50.5789 248.78 50.6667 249.001 50.6667H252.335M248.168 46.5H242.335C241.893 46.5 241.469 46.6756 241.156 46.9882C240.844 47.3007 240.668 47.7246 240.668 48.1667V59.8333C240.668 60.2754 240.844 60.6993 241.156 61.0118C241.469 61.3244 241.893 61.5 242.335 61.5H250.668C251.11 61.5 251.534 61.3244 251.846 61.0118C252.159 60.6993 252.335 60.2754 252.335 59.8333V50.6667M248.168 46.5L252.335 50.6667M244.001 51.5H244.835M244.001 54.8333H249.001M244.001 58.1667H249.001" stroke="#27272A" stroke-width="1.2" stroke-linecap="round" stroke-linejoin="round"/>
</g>
</g>
<g filter="url(#filter19_d_5522_88633)">
<rect width="200" height="130" rx="12" transform="matrix(1 0 0 -1 358.5 54)" fill="#FCFCFC" shape-rendering="crispEdges"/>
<rect x="0.5" y="-0.5" width="199" height="129" rx="11.5" transform="matrix(1 0 0 -1 358.5 53)" stroke="#F4F4F5" shape-rendering="crispEdges"/>
<g opacity="0.6">
<rect width="122" height="16" rx="4" transform="matrix(1 0 0 -1 370.5 38)" fill="#F4F4F5"/>
<rect width="16" height="16" rx="4" transform="matrix(1 0 0 -1 506.5 38)" fill="#F4F4F5"/>
<rect width="16" height="16" rx="4" transform="matrix(1 0 0 -1 530.5 38)" fill="#F4F4F5"/>
<rect width="80" height="20" rx="6" transform="matrix(1 0 0 -1 370.5 18)" fill="#F4F4F5"/>
<rect width="80" height="20" rx="6" transform="matrix(1 0 0 -1 466.5 18)" fill="#F4F4F5"/>
</g>
<g filter="url(#filter20_dd_5522_88633)">
<mask id="path-122-inside-10_5522_88633" fill="white">
<path d="M438.5 54C438.5 42.9543 447.454 34 458.5 34C469.546 34 478.5 42.9543 478.5 54C478.5 65.0457 469.546 74 458.5 74C447.454 74 438.5 65.0457 438.5 54Z"/>
</mask>
<path d="M438.5 54C438.5 42.9543 447.454 34 458.5 34C469.546 34 478.5 42.9543 478.5 54C478.5 65.0457 469.546 74 458.5 74C447.454 74 438.5 65.0457 438.5 54Z" fill="#FAFAFA"/>
<path d="M458.5 74V73C448.007 73 439.5 64.4934 439.5 54H438.5H437.5C437.5 65.598 446.902 75 458.5 75V74ZM478.5 54H477.5C477.5 64.4934 468.993 73 458.5 73V74V75C470.098 75 479.5 65.598 479.5 54H478.5ZM458.5 34V35C468.993 35 477.5 43.5066 477.5 54H478.5H479.5C479.5 42.402 470.098 33 458.5 33V34ZM458.5 34V33C446.902 33 437.5 42.402 437.5 54H438.5H439.5C439.5 43.5066 448.007 35 458.5 35V34Z" fill="#E4E4E7" mask="url(#path-122-inside-10_5522_88633)"/>
<path d="M460.168 46.5V49.8333C460.168 50.0543 460.256 50.2663 460.412 50.4226C460.568 50.5789 460.78 50.6667 461.001 50.6667H464.335M460.168 46.5H454.335C453.893 46.5 453.469 46.6756 453.156 46.9882C452.844 47.3007 452.668 47.7246 452.668 48.1667V59.8333C452.668 60.2754 452.844 60.6993 453.156 61.0118C453.469 61.3244 453.893 61.5 454.335 61.5H462.668C463.11 61.5 463.534 61.3244 463.846 61.0118C464.159 60.6993 464.335 60.2754 464.335 59.8333V50.6667M460.168 46.5L464.335 50.6667M455.168 56.5H461.835M457.668 53.1667V59M455.168 53.1667H461.835V59H455.168V53.1667Z" stroke="#27272A" stroke-width="1.2" stroke-linecap="round" stroke-linejoin="round"/>
</g>
</g>
<g filter="url(#filter21_d_5522_88633)">
<rect width="200" height="130" rx="12" transform="matrix(1 0 0 -1 570.5 54)" fill="#FCFCFC" shape-rendering="crispEdges"/>
<rect x="0.5" y="-0.5" width="199" height="129" rx="11.5" transform="matrix(1 0 0 -1 570.5 53)" stroke="#F4F4F5" shape-rendering="crispEdges"/>
<g opacity="0.6">
<rect width="122" height="16" rx="4" transform="matrix(1 0 0 -1 582.5 38)" fill="#F4F4F5"/>
<rect width="80" height="20" rx="6" transform="matrix(1 0 0 -1 582.5 18)" fill="#F4F4F5"/>
<rect width="80" height="20" rx="6" transform="matrix(1 0 0 -1 678.5 18)" fill="#F4F4F5"/>
</g>
<g filter="url(#filter22_dd_5522_88633)">
<mask id="path-130-inside-11_5522_88633" fill="white">
<path d="M650.5 54C650.5 65.0457 659.454 74 670.5 74C681.546 74 690.5 65.0457 690.5 54C690.5 42.9543 681.546 34 670.5 34C659.454 34 650.5 42.9543 650.5 54Z"/>
</mask>
<path d="M650.5 54C650.5 65.0457 659.454 74 670.5 74C681.546 74 690.5 65.0457 690.5 54C690.5 42.9543 681.546 34 670.5 34C659.454 34 650.5 42.9543 650.5 54Z" fill="#FAFAFA"/>
<path d="M670.5 34V35C660.007 35 651.5 43.5066 651.5 54H650.5H649.5C649.5 42.402 658.902 33 670.5 33V34ZM690.5 54H689.5C689.5 43.5066 680.993 35 670.5 35V34V33C682.098 33 691.5 42.402 691.5 54H690.5ZM670.5 74V73C680.993 73 689.5 64.4934 689.5 54H690.5H691.5C691.5 65.598 682.098 75 670.5 75V74ZM670.5 74V75C658.902 75 649.5 65.598 649.5 54H650.5H651.5C651.5 64.4934 660.007 73 670.5 73V74Z" fill="#E4E4E7" mask="url(#path-130-inside-11_5522_88633)"/>
<path d="M673.758 46.7803C673.594 46.7798 673.433 46.8263 673.291 46.9148C673.15 47.0033 673.033 47.1308 672.953 47.2838L671.387 50.1771C671.325 50.2928 671.308 50.4303 671.34 50.5594C671.373 50.6884 671.452 50.7984 671.56 50.8652C671.669 50.9319 671.798 50.95 671.918 50.9154C672.039 50.8808 672.142 50.7963 672.205 50.6806L673.771 47.7873L674.16 48.8077C674.241 49.0039 674.379 49.1672 674.553 49.2736C674.728 49.38 674.929 49.4237 675.129 49.3984L676.16 49.2641L674.274 52.7347C674.243 52.792 674.223 52.8553 674.215 52.9209C674.206 52.9865 674.211 53.0531 674.227 53.117C674.243 53.1809 674.27 53.2408 674.308 53.2933C674.346 53.3457 674.393 53.3898 674.447 53.4228C674.5 53.4559 674.56 53.4773 674.621 53.4859C674.682 53.4946 674.745 53.4902 674.805 53.473C674.865 53.4559 674.921 53.4263 674.97 53.386C675.019 53.3457 675.06 53.2955 675.091 53.2382L676.978 49.7609C677.063 49.5995 677.105 49.4161 677.1 49.2307C677.094 49.0454 677.04 48.8654 676.944 48.7106C676.849 48.5557 676.715 48.4321 676.558 48.3533C676.4 48.2745 676.226 48.2435 676.053 48.2639L675.022 48.4049L674.626 47.3912C674.558 47.2185 674.446 47.0697 674.302 46.9617C674.159 46.8537 673.99 46.7908 673.815 46.7803H673.758Z" fill="#18181B"/>
<path d="M666.962 46.7803H666.906C666.714 46.7915 666.529 46.8585 666.372 46.9737C666.215 47.0889 666.092 47.2476 666.018 47.4319L665.57 48.5203L664.454 48.3699C664.266 48.3441 664.074 48.3741 663.901 48.4564C663.728 48.5387 663.581 48.6701 663.476 48.8353C663.377 49.0033 663.324 49.1967 663.324 49.3939C663.324 49.591 663.377 49.7844 663.476 49.9524L665.543 53.6687C665.611 53.7921 665.724 53.8822 665.856 53.9191C665.989 53.9561 666.13 53.9368 666.249 53.8656C666.367 53.7944 666.454 53.677 666.49 53.5394C666.525 53.4018 666.507 53.2551 666.438 53.1316L664.372 49.4225L665.494 49.5729C665.713 49.6022 665.935 49.5566 666.126 49.4429C666.318 49.3291 666.468 49.1535 666.555 48.9427L667.003 47.8543L668.684 50.9405C668.752 51.064 668.865 51.1541 668.997 51.191C669.13 51.2279 669.271 51.2087 669.39 51.1374C669.508 51.0662 669.595 50.9489 669.631 50.8112C669.666 50.6736 669.648 50.5269 669.579 50.4035L667.843 47.3173C667.756 47.1541 667.628 47.0181 667.473 46.9237C667.318 46.8293 667.141 46.7797 666.962 46.7803Z" fill="#18181B"/>
<path d="M670.44 49.4634C669.969 49.463 669.518 49.6493 669.183 49.9819L668.562 50.607C668.497 50.6742 668.419 50.7275 668.333 50.7641C668.247 50.8007 668.155 50.8197 668.061 50.8201H667.355C666.886 50.822 666.437 51.0105 666.105 51.3444C665.773 51.6784 665.586 52.1308 665.584 52.6031V53.3135C665.586 53.4133 665.566 53.5123 665.528 53.6041C665.489 53.6959 665.431 53.7784 665.358 53.8462L664.73 54.4714C664.4 54.8081 664.215 55.2625 664.215 55.7358C664.213 55.9687 664.257 56.1997 664.344 56.4155C664.432 56.6312 664.56 56.8275 664.723 56.9931L665.358 57.6253C665.424 57.6917 665.475 57.7704 665.51 57.857C665.546 57.9435 665.563 58.0362 665.563 58.1297V58.84C665.56 59.0757 665.604 59.3096 665.691 59.5283C665.778 59.7471 665.907 59.9463 666.071 60.1146C666.235 60.2829 666.431 60.4169 666.646 60.5091C666.862 60.6012 667.093 60.6496 667.327 60.6514H668.033C668.126 60.6509 668.218 60.6688 668.304 60.7042C668.39 60.7395 668.468 60.7916 668.534 60.8574L669.183 61.4754C669.523 61.8045 669.975 61.9883 670.447 61.9883C670.918 61.9883 671.371 61.8045 671.71 61.4754L672.331 60.8503C672.397 60.7845 672.475 60.7324 672.561 60.697C672.647 60.6617 672.739 60.6438 672.832 60.6443H673.538C674.008 60.6424 674.459 60.453 674.791 60.1175C675.123 59.782 675.309 59.3278 675.309 58.8542V58.1439C675.309 58.0504 675.326 57.9577 675.362 57.8712C675.397 57.7846 675.448 57.7059 675.514 57.6395L676.142 57.0073C676.471 56.6711 676.655 56.2182 676.655 55.7464C676.655 55.2746 676.471 54.8218 676.142 54.4856L675.514 53.8604C675.448 53.7932 675.395 53.7134 675.36 53.6255C675.325 53.5377 675.308 53.4437 675.309 53.349V52.6386C675.313 52.403 675.27 52.1689 675.184 51.9498C675.098 51.7307 674.969 51.5309 674.806 51.362C674.643 51.193 674.448 51.0582 674.233 50.9652C674.017 50.8722 673.786 50.8229 673.552 50.8201H672.846C672.753 50.8197 672.66 50.8007 672.574 50.7641C672.488 50.7275 672.41 50.6742 672.345 50.607L671.724 49.9819C671.555 49.8138 671.354 49.6813 671.134 49.5923C670.913 49.5032 670.677 49.4594 670.44 49.4634ZM667.327 59.5859C667.14 59.5859 666.961 59.5111 666.828 59.3778C666.696 59.2446 666.621 59.0639 666.621 58.8755V58.1652C666.622 57.9318 666.577 57.7005 666.489 57.4847C666.4 57.2689 666.27 57.0729 666.106 56.9079L665.485 56.2756C665.419 56.2099 665.365 56.1314 665.329 56.0448C665.293 55.9583 665.274 55.8653 665.274 55.7713C665.273 55.6761 665.291 55.5818 665.328 55.4939C665.364 55.4061 665.418 55.3265 665.485 55.2598L666.106 54.6347C666.271 54.4689 666.402 54.2717 666.49 54.0546C666.579 53.8375 666.623 53.6049 666.621 53.3703V52.66C666.621 52.4716 666.696 52.2909 666.828 52.1577C666.961 52.0244 667.14 51.9496 667.327 51.9496H668.033C668.266 51.9507 668.496 51.9047 668.711 51.8144C668.925 51.7241 669.12 51.5913 669.282 51.4239L669.903 50.7988C670.041 50.6685 670.222 50.5959 670.411 50.5959C670.6 50.5959 670.782 50.6685 670.919 50.7988L671.541 51.4239C671.703 51.5913 671.898 51.7241 672.112 51.8144C672.327 51.9047 672.557 51.9507 672.79 51.9496H673.495C673.683 51.9496 673.862 52.0244 673.994 52.1577C674.127 52.2909 674.201 52.4716 674.201 52.66V53.3703C674.199 53.6049 674.244 53.8375 674.333 54.0546C674.421 54.2717 674.551 54.4689 674.716 54.6347L675.344 55.2598C675.412 55.326 675.465 55.405 675.502 55.4922C675.538 55.5794 675.557 55.6731 675.557 55.7677C675.557 55.8624 675.538 55.956 675.502 56.0433C675.465 56.1305 675.412 56.2095 675.344 56.2756L674.716 56.9079C674.552 57.0729 674.422 57.2689 674.334 57.4847C674.245 57.7005 674.2 57.9318 674.201 58.1652V58.8755C674.201 59.0639 674.127 59.2446 673.994 59.3778C673.862 59.5111 673.683 59.5859 673.495 59.5859H672.79C672.558 59.5851 672.328 59.6305 672.114 59.7195C671.899 59.8085 671.704 59.9393 671.541 60.1045L670.919 60.7296C670.854 60.7983 670.775 60.853 670.687 60.8903C670.6 60.9277 670.506 60.9469 670.411 60.9469C670.316 60.9469 670.223 60.9277 670.135 60.8903C670.048 60.853 669.969 60.7983 669.903 60.7296L669.282 60.1045C669.118 59.9393 668.923 59.8085 668.709 59.7195C668.495 59.6305 668.265 59.5851 668.033 59.5859H667.327Z" fill="#18181B"/>
<path d="M669.862 53.937C669.725 53.9383 669.593 53.9966 669.494 54.0998L668.361 55.3355C668.265 55.4396 668.211 55.5806 668.211 55.7277C668.211 55.8748 668.265 56.0158 668.361 56.1199C668.459 56.2225 668.59 56.2799 668.726 56.2799C668.862 56.2799 668.993 56.2225 669.091 56.1199L669.862 55.2763L671.774 57.3556C671.872 57.4583 672.003 57.5156 672.139 57.5156C672.275 57.5156 672.406 57.4583 672.504 57.3556C672.6 57.2516 672.654 57.1105 672.654 56.9635C672.654 56.8164 672.6 56.6753 672.504 56.5713L670.224 54.0998C670.127 53.997 669.998 53.9387 669.862 53.937Z" fill="#18181B"/>
</g>
</g>
<rect width="705" height="314" fill="url(#paint10_linear_5522_88633)"/>
<rect width="705" height="314" fill="url(#paint11_linear_5522_88633)"/>
<rect x="1" y="274" width="704" height="40" fill="url(#paint12_linear_5522_88633)"/>
<rect width="704" height="40" transform="matrix(1 0 0 -1 1 40)" fill="url(#paint13_linear_5522_88633)"/>
</g>
<defs>
<filter id="filter0_f_5522_88633" x="-143.5" y="-116" width="664.445" height="557.547" filterUnits="userSpaceOnUse" color-interpolation-filters="sRGB">
<feFlood flood-opacity="0" result="BackgroundImageFix"/>
<feBlend mode="normal" in="SourceGraphic" in2="BackgroundImageFix" result="shape"/>
<feGaussianBlur stdDeviation="100" result="effect1_foregroundBlur_5522_88633"/>
</filter>
<filter id="filter1_f_5522_88633" x="184.945" y="-116" width="664.445" height="557.547" filterUnits="userSpaceOnUse" color-interpolation-filters="sRGB">
<feFlood flood-opacity="0" result="BackgroundImageFix"/>
<feBlend mode="normal" in="SourceGraphic" in2="BackgroundImageFix" result="shape"/>
<feGaussianBlur stdDeviation="100" result="effect1_foregroundBlur_5522_88633"/>
</filter>
<filter id="filter2_d_5522_88633" x="-77.5" y="224" width="224" height="174" filterUnits="userSpaceOnUse" color-interpolation-filters="sRGB">
<feFlood flood-opacity="0" result="BackgroundImageFix"/>
<feColorMatrix in="SourceAlpha" type="matrix" values="0 0 0 0 0 0 0 0 0 0 0 0 0 0 0 0 0 0 127 0" result="hardAlpha"/>
<feMorphology radius="4" operator="erode" in="SourceAlpha" result="effect1_dropShadow_5522_88633"/>
<feOffset dy="4"/>
<feGaussianBlur stdDeviation="8"/>
<feComposite in2="hardAlpha" operator="out"/>
<feColorMatrix type="matrix" values="0 0 0 0 0.0588235 0 0 0 0 0.141176 0 0 0 0 0.0666667 0 0 0 0.02 0"/>
<feBlend mode="normal" in2="BackgroundImageFix" result="effect1_dropShadow_5522_88633"/>
<feBlend mode="normal" in="SourceGraphic" in2="effect1_dropShadow_5522_88633" result="shape"/>
</filter>
<filter id="filter3_dd_5522_88633" x="-13.5" y="214" width="96" height="96" filterUnits="userSpaceOnUse" color-interpolation-filters="sRGB">
<feFlood flood-opacity="0" result="BackgroundImageFix"/>
<feColorMatrix in="SourceAlpha" type="matrix" values="0 0 0 0 0 0 0 0 0 0 0 0 0 0 0 0 0 0 127 0" result="hardAlpha"/>
<feMorphology radius="4" operator="erode" in="SourceAlpha" result="effect1_dropShadow_5522_88633"/>
<feOffset dy="4"/>
<feGaussianBlur stdDeviation="8"/>
<feComposite in2="hardAlpha" operator="out"/>
<feColorMatrix type="matrix" values="0 0 0 0 0.0588235 0 0 0 0 0.141176 0 0 0 0 0.0666667 0 0 0 0.02 0"/>
<feBlend mode="normal" in2="BackgroundImageFix" result="effect1_dropShadow_5522_88633"/>
<feColorMatrix in="SourceAlpha" type="matrix" values="0 0 0 0 0 0 0 0 0 0 0 0 0 0 0 0 0 0 127 0" result="hardAlpha"/>
<feMorphology radius="4" operator="erode" in="SourceAlpha" result="effect2_dropShadow_5522_88633"/>
<feOffset dy="10"/>
<feGaussianBlur stdDeviation="16"/>
<feComposite in2="hardAlpha" operator="out"/>
<feColorMatrix type="matrix" values="0 0 0 0 0.0627451 0 0 0 0 0.0588235 0 0 0 0 0.141176 0 0 0 0.05 0"/>
<feBlend mode="normal" in2="effect1_dropShadow_5522_88633" result="effect2_dropShadow_5522_88633"/>
<feBlend mode="normal" in="SourceGraphic" in2="effect2_dropShadow_5522_88633" result="shape"/>
</filter>
<filter id="filter4_d_5522_88633" x="134.5" y="224" width="224" height="174" filterUnits="userSpaceOnUse" color-interpolation-filters="sRGB">
<feFlood flood-opacity="0" result="BackgroundImageFix"/>
<feColorMatrix in="SourceAlpha" type="matrix" values="0 0 0 0 0 0 0 0 0 0 0 0 0 0 0 0 0 0 127 0" result="hardAlpha"/>
<feMorphology radius="4" operator="erode" in="SourceAlpha" result="effect1_dropShadow_5522_88633"/>
<feOffset dy="4"/>
<feGaussianBlur stdDeviation="8"/>
<feComposite in2="hardAlpha" operator="out"/>
<feColorMatrix type="matrix" values="0 0 0 0 0.0588235 0 0 0 0 0.141176 0 0 0 0 0.0666667 0 0 0 0.02 0"/>
<feBlend mode="normal" in2="BackgroundImageFix" result="effect1_dropShadow_5522_88633"/>
<feBlend mode="normal" in="SourceGraphic" in2="effect1_dropShadow_5522_88633" result="shape"/>
</filter>
<filter id="filter5_dd_5522_88633" x="198.5" y="214" width="96" height="96" filterUnits="userSpaceOnUse" color-interpolation-filters="sRGB">
<feFlood flood-opacity="0" result="BackgroundImageFix"/>
<feColorMatrix in="SourceAlpha" type="matrix" values="0 0 0 0 0 0 0 0 0 0 0 0 0 0 0 0 0 0 127 0" result="hardAlpha"/>
<feMorphology radius="4" operator="erode" in="SourceAlpha" result="effect1_dropShadow_5522_88633"/>
<feOffset dy="4"/>
<feGaussianBlur stdDeviation="8"/>
<feComposite in2="hardAlpha" operator="out"/>
<feColorMatrix type="matrix" values="0 0 0 0 0.0588235 0 0 0 0 0.141176 0 0 0 0 0.0666667 0 0 0 0.02 0"/>
<feBlend mode="normal" in2="BackgroundImageFix" result="effect1_dropShadow_5522_88633"/>
<feColorMatrix in="SourceAlpha" type="matrix" values="0 0 0 0 0 0 0 0 0 0 0 0 0 0 0 0 0 0 127 0" result="hardAlpha"/>
<feMorphology radius="4" operator="erode" in="SourceAlpha" result="effect2_dropShadow_5522_88633"/>
<feOffset dy="10"/>
<feGaussianBlur stdDeviation="16"/>
<feComposite in2="hardAlpha" operator="out"/>
<feColorMatrix type="matrix" values="0 0 0 0 0.0627451 0 0 0 0 0.0588235 0 0 0 0 0.141176 0 0 0 0.05 0"/>
<feBlend mode="normal" in2="effect1_dropShadow_5522_88633" result="effect2_dropShadow_5522_88633"/>
<feBlend mode="normal" in="SourceGraphic" in2="effect2_dropShadow_5522_88633" result="shape"/>
</filter>
<filter id="filter6_d_5522_88633" x="346.5" y="224" width="224" height="174" filterUnits="userSpaceOnUse" color-interpolation-filters="sRGB">
<feFlood flood-opacity="0" result="BackgroundImageFix"/>
<feColorMatrix in="SourceAlpha" type="matrix" values="0 0 0 0 0 0 0 0 0 0 0 0 0 0 0 0 0 0 127 0" result="hardAlpha"/>
<feMorphology radius="4" operator="erode" in="SourceAlpha" result="effect1_dropShadow_5522_88633"/>
<feOffset dy="4"/>
<feGaussianBlur stdDeviation="8"/>
<feComposite in2="hardAlpha" operator="out"/>
<feColorMatrix type="matrix" values="0 0 0 0 0.0588235 0 0 0 0 0.141176 0 0 0 0 0.0666667 0 0 0 0.02 0"/>
<feBlend mode="normal" in2="BackgroundImageFix" result="effect1_dropShadow_5522_88633"/>
<feBlend mode="normal" in="SourceGraphic" in2="effect1_dropShadow_5522_88633" result="shape"/>
</filter>
<filter id="filter7_dd_5522_88633" x="410.5" y="214" width="96" height="96" filterUnits="userSpaceOnUse" color-interpolation-filters="sRGB">
<feFlood flood-opacity="0" result="BackgroundImageFix"/>
<feColorMatrix in="SourceAlpha" type="matrix" values="0 0 0 0 0 0 0 0 0 0 0 0 0 0 0 0 0 0 127 0" result="hardAlpha"/>
<feMorphology radius="4" operator="erode" in="SourceAlpha" result="effect1_dropShadow_5522_88633"/>
<feOffset dy="4"/>
<feGaussianBlur stdDeviation="8"/>
<feComposite in2="hardAlpha" operator="out"/>
<feColorMatrix type="matrix" values="0 0 0 0 0.0588235 0 0 0 0 0.141176 0 0 0 0 0.0666667 0 0 0 0.02 0"/>
<feBlend mode="normal" in2="BackgroundImageFix" result="effect1_dropShadow_5522_88633"/>
<feColorMatrix in="SourceAlpha" type="matrix" values="0 0 0 0 0 0 0 0 0 0 0 0 0 0 0 0 0 0 127 0" result="hardAlpha"/>
<feMorphology radius="4" operator="erode" in="SourceAlpha" result="effect2_dropShadow_5522_88633"/>
<feOffset dy="10"/>
<feGaussianBlur stdDeviation="16"/>
<feComposite in2="hardAlpha" operator="out"/>
<feColorMatrix type="matrix" values="0 0 0 0 0.0627451 0 0 0 0 0.0588235 0 0 0 0 0.141176 0 0 0 0.05 0"/>
<feBlend mode="normal" in2="effect1_dropShadow_5522_88633" result="effect2_dropShadow_5522_88633"/>
<feBlend mode="normal" in="SourceGraphic" in2="effect2_dropShadow_5522_88633" result="shape"/>
</filter>
<filter id="filter8_d_5522_88633" x="558.5" y="224" width="224" height="174" filterUnits="userSpaceOnUse" color-interpolation-filters="sRGB">
<feFlood flood-opacity="0" result="BackgroundImageFix"/>
<feColorMatrix in="SourceAlpha" type="matrix" values="0 0 0 0 0 0 0 0 0 0 0 0 0 0 0 0 0 0 127 0" result="hardAlpha"/>
<feMorphology radius="4" operator="erode" in="SourceAlpha" result="effect1_dropShadow_5522_88633"/>
<feOffset dy="4"/>
<feGaussianBlur stdDeviation="8"/>
<feComposite in2="hardAlpha" operator="out"/>
<feColorMatrix type="matrix" values="0 0 0 0 0.0588235 0 0 0 0 0.141176 0 0 0 0 0.0666667 0 0 0 0.02 0"/>
<feBlend mode="normal" in2="BackgroundImageFix" result="effect1_dropShadow_5522_88633"/>
<feBlend mode="normal" in="SourceGraphic" in2="effect1_dropShadow_5522_88633" result="shape"/>
</filter>
<filter id="filter9_dd_5522_88633" x="622.5" y="214" width="96" height="96" filterUnits="userSpaceOnUse" color-interpolation-filters="sRGB">
<feFlood flood-opacity="0" result="BackgroundImageFix"/>
<feColorMatrix in="SourceAlpha" type="matrix" values="0 0 0 0 0 0 0 0 0 0 0 0 0 0 0 0 0 0 127 0" result="hardAlpha"/>
<feMorphology radius="4" operator="erode" in="SourceAlpha" result="effect1_dropShadow_5522_88633"/>
<feOffset dy="4"/>
<feGaussianBlur stdDeviation="8"/>
<feComposite in2="hardAlpha" operator="out"/>
<feColorMatrix type="matrix" values="0 0 0 0 0.0588235 0 0 0 0 0.141176 0 0 0 0 0.0666667 0 0 0 0.02 0"/>
<feBlend mode="normal" in2="BackgroundImageFix" result="effect1_dropShadow_5522_88633"/>
<feColorMatrix in="SourceAlpha" type="matrix" values="0 0 0 0 0 0 0 0 0 0 0 0 0 0 0 0 0 0 127 0" result="hardAlpha"/>
<feMorphology radius="4" operator="erode" in="SourceAlpha" result="effect2_dropShadow_5522_88633"/>
<feOffset dy="10"/>
<feGaussianBlur stdDeviation="16"/>
<feComposite in2="hardAlpha" operator="out"/>
<feColorMatrix type="matrix" values="0 0 0 0 0.0627451 0 0 0 0 0.0588235 0 0 0 0 0.141176 0 0 0 0.05 0"/>
<feBlend mode="normal" in2="effect1_dropShadow_5522_88633" result="effect2_dropShadow_5522_88633"/>
<feBlend mode="normal" in="SourceGraphic" in2="effect2_dropShadow_5522_88633" result="shape"/>
</filter>
<filter id="filter10_di_5522_88633" x="273" y="101" width="160" height="160" filterUnits="userSpaceOnUse" color-interpolation-filters="sRGB">
<feFlood flood-opacity="0" result="BackgroundImageFix"/>
<feColorMatrix in="SourceAlpha" type="matrix" values="0 0 0 0 0 0 0 0 0 0 0 0 0 0 0 0 0 0 127 0" result="hardAlpha"/>
<feMorphology radius="12" operator="erode" in="SourceAlpha" result="effect1_dropShadow_5522_88633"/>
<feOffset dy="24"/>
<feGaussianBlur stdDeviation="32"/>
<feComposite in2="hardAlpha" operator="out"/>
<feColorMatrix type="matrix" values="0 0 0 0 0.0627451 0 0 0 0 0.0588235 0 0 0 0 0.141176 0 0 0 0.12 0"/>
<feBlend mode="normal" in2="BackgroundImageFix" result="effect1_dropShadow_5522_88633"/>
<feBlend mode="normal" in="SourceGraphic" in2="effect1_dropShadow_5522_88633" result="shape"/>
<feColorMatrix in="SourceAlpha" type="matrix" values="0 0 0 0 0 0 0 0 0 0 0 0 0 0 0 0 0 0 127 0" result="hardAlpha"/>
<feOffset dy="3"/>
<feGaussianBlur stdDeviation="6"/>
<feComposite in2="hardAlpha" operator="arithmetic" k2="-1" k3="1"/>
<feColorMatrix type="matrix" values="0 0 0 0 0.585337 0 0 0 0 0.717275 0 0 0 0 0.972356 0 0 0 0.16 0"/>
<feBlend mode="normal" in2="shape" result="effect2_innerShadow_5522_88633"/>
</filter>
<filter id="filter11_d_5522_88633" x="-67.5" y="58" width="224" height="174" filterUnits="userSpaceOnUse" color-interpolation-filters="sRGB">
<feFlood flood-opacity="0" result="BackgroundImageFix"/>
<feColorMatrix in="SourceAlpha" type="matrix" values="0 0 0 0 0 0 0 0 0 0 0 0 0 0 0 0 0 0 127 0" result="hardAlpha"/>
<feMorphology radius="4" operator="erode" in="SourceAlpha" result="effect1_dropShadow_5522_88633"/>
<feOffset dy="4"/>
<feGaussianBlur stdDeviation="8"/>
<feComposite in2="hardAlpha" operator="out"/>
<feColorMatrix type="matrix" values="0 0 0 0 0.0588235 0 0 0 0 0.141176 0 0 0 0 0.0666667 0 0 0 0.02 0"/>
<feBlend mode="normal" in2="BackgroundImageFix" result="effect1_dropShadow_5522_88633"/>
<feBlend mode="normal" in="SourceGraphic" in2="effect1_dropShadow_5522_88633" result="shape"/>
</filter>
<filter id="filter12_dd_5522_88633" x="-3.5" y="48" width="96" height="96" filterUnits="userSpaceOnUse" color-interpolation-filters="sRGB">
<feFlood flood-opacity="0" result="BackgroundImageFix"/>
<feColorMatrix in="SourceAlpha" type="matrix" values="0 0 0 0 0 0 0 0 0 0 0 0 0 0 0 0 0 0 127 0" result="hardAlpha"/>
<feMorphology radius="4" operator="erode" in="SourceAlpha" result="effect1_dropShadow_5522_88633"/>
<feOffset dy="4"/>
<feGaussianBlur stdDeviation="8"/>
<feComposite in2="hardAlpha" operator="out"/>
<feColorMatrix type="matrix" values="0 0 0 0 0.0588235 0 0 0 0 0.141176 0 0 0 0 0.0666667 0 0 0 0.02 0"/>
<feBlend mode="normal" in2="BackgroundImageFix" result="effect1_dropShadow_5522_88633"/>
<feColorMatrix in="SourceAlpha" type="matrix" values="0 0 0 0 0 0 0 0 0 0 0 0 0 0 0 0 0 0 127 0" result="hardAlpha"/>
<feMorphology radius="4" operator="erode" in="SourceAlpha" result="effect2_dropShadow_5522_88633"/>
<feOffset dy="10"/>
<feGaussianBlur stdDeviation="16"/>
<feComposite in2="hardAlpha" operator="out"/>
<feColorMatrix type="matrix" values="0 0 0 0 0.0627451 0 0 0 0 0.0588235 0 0 0 0 0.141176 0 0 0 0.05 0"/>
<feBlend mode="normal" in2="effect1_dropShadow_5522_88633" result="effect2_dropShadow_5522_88633"/>
<feBlend mode="normal" in="SourceGraphic" in2="effect2_dropShadow_5522_88633" result="shape"/>
</filter>
<filter id="filter13_d_5522_88633" x="548.5" y="58" width="224" height="174" filterUnits="userSpaceOnUse" color-interpolation-filters="sRGB">
<feFlood flood-opacity="0" result="BackgroundImageFix"/>
<feColorMatrix in="SourceAlpha" type="matrix" values="0 0 0 0 0 0 0 0 0 0 0 0 0 0 0 0 0 0 127 0" result="hardAlpha"/>
<feMorphology radius="4" operator="erode" in="SourceAlpha" result="effect1_dropShadow_5522_88633"/>
<feOffset dy="4"/>
<feGaussianBlur stdDeviation="8"/>
<feComposite in2="hardAlpha" operator="out"/>
<feColorMatrix type="matrix" values="0 0 0 0 0.0588235 0 0 0 0 0.141176 0 0 0 0 0.0666667 0 0 0 0.02 0"/>
<feBlend mode="normal" in2="BackgroundImageFix" result="effect1_dropShadow_5522_88633"/>
<feBlend mode="normal" in="SourceGraphic" in2="effect1_dropShadow_5522_88633" result="shape"/>
</filter>
<filter id="filter14_dd_5522_88633" x="612.5" y="48" width="96" height="96" filterUnits="userSpaceOnUse" color-interpolation-filters="sRGB">
<feFlood flood-opacity="0" result="BackgroundImageFix"/>
<feColorMatrix in="SourceAlpha" type="matrix" values="0 0 0 0 0 0 0 0 0 0 0 0 0 0 0 0 0 0 127 0" result="hardAlpha"/>
<feMorphology radius="4" operator="erode" in="SourceAlpha" result="effect1_dropShadow_5522_88633"/>
<feOffset dy="4"/>
<feGaussianBlur stdDeviation="8"/>
<feComposite in2="hardAlpha" operator="out"/>
<feColorMatrix type="matrix" values="0 0 0 0 0.0588235 0 0 0 0 0.141176 0 0 0 0 0.0666667 0 0 0 0.02 0"/>
<feBlend mode="normal" in2="BackgroundImageFix" result="effect1_dropShadow_5522_88633"/>
<feColorMatrix in="SourceAlpha" type="matrix" values="0 0 0 0 0 0 0 0 0 0 0 0 0 0 0 0 0 0 127 0" result="hardAlpha"/>
<feMorphology radius="4" operator="erode" in="SourceAlpha" result="effect2_dropShadow_5522_88633"/>
<feOffset dy="10"/>
<feGaussianBlur stdDeviation="16"/>
<feComposite in2="hardAlpha" operator="out"/>
<feColorMatrix type="matrix" values="0 0 0 0 0.0627451 0 0 0 0 0.0588235 0 0 0 0 0.141176 0 0 0 0.05 0"/>
<feBlend mode="normal" in2="effect1_dropShadow_5522_88633" result="effect2_dropShadow_5522_88633"/>
<feBlend mode="normal" in="SourceGraphic" in2="effect2_dropShadow_5522_88633" result="shape"/>
</filter>
<filter id="filter15_d_5522_88633" x="-77.5" y="-84" width="224" height="174" filterUnits="userSpaceOnUse" color-interpolation-filters="sRGB">
<feFlood flood-opacity="0" result="BackgroundImageFix"/>
<feColorMatrix in="SourceAlpha" type="matrix" values="0 0 0 0 0 0 0 0 0 0 0 0 0 0 0 0 0 0 127 0" result="hardAlpha"/>
<feMorphology radius="4" operator="erode" in="SourceAlpha" result="effect1_dropShadow_5522_88633"/>
<feOffset dy="4"/>
<feGaussianBlur stdDeviation="8"/>
<feComposite in2="hardAlpha" operator="out"/>
<feColorMatrix type="matrix" values="0 0 0 0 0.0588235 0 0 0 0 0.141176 0 0 0 0 0.0666667 0 0 0 0.02 0"/>
<feBlend mode="normal" in2="BackgroundImageFix" result="effect1_dropShadow_5522_88633"/>
<feBlend mode="normal" in="SourceGraphic" in2="effect1_dropShadow_5522_88633" result="shape"/>
</filter>
<filter id="filter16_dd_5522_88633" x="-13.5" y="16" width="96" height="96" filterUnits="userSpaceOnUse" color-interpolation-filters="sRGB">
<feFlood flood-opacity="0" result="BackgroundImageFix"/>
<feColorMatrix in="SourceAlpha" type="matrix" values="0 0 0 0 0 0 0 0 0 0 0 0 0 0 0 0 0 0 127 0" result="hardAlpha"/>
<feMorphology radius="4" operator="erode" in="SourceAlpha" result="effect1_dropShadow_5522_88633"/>
<feOffset dy="4"/>
<feGaussianBlur stdDeviation="8"/>
<feComposite in2="hardAlpha" operator="out"/>
<feColorMatrix type="matrix" values="0 0 0 0 0.0588235 0 0 0 0 0.141176 0 0 0 0 0.0666667 0 0 0 0.02 0"/>
<feBlend mode="normal" in2="BackgroundImageFix" result="effect1_dropShadow_5522_88633"/>
<feColorMatrix in="SourceAlpha" type="matrix" values="0 0 0 0 0 0 0 0 0 0 0 0 0 0 0 0 0 0 127 0" result="hardAlpha"/>
<feMorphology radius="4" operator="erode" in="SourceAlpha" result="effect2_dropShadow_5522_88633"/>
<feOffset dy="10"/>
<feGaussianBlur stdDeviation="16"/>
<feComposite in2="hardAlpha" operator="out"/>
<feColorMatrix type="matrix" values="0 0 0 0 0.0627451 0 0 0 0 0.0588235 0 0 0 0 0.141176 0 0 0 0.05 0"/>
<feBlend mode="normal" in2="effect1_dropShadow_5522_88633" result="effect2_dropShadow_5522_88633"/>
<feBlend mode="normal" in="SourceGraphic" in2="effect2_dropShadow_5522_88633" result="shape"/>
</filter>
<filter id="filter17_d_5522_88633" x="134.5" y="-84" width="224" height="174" filterUnits="userSpaceOnUse" color-interpolation-filters="sRGB">
<feFlood flood-opacity="0" result="BackgroundImageFix"/>
<feColorMatrix in="SourceAlpha" type="matrix" values="0 0 0 0 0 0 0 0 0 0 0 0 0 0 0 0 0 0 127 0" result="hardAlpha"/>
<feMorphology radius="4" operator="erode" in="SourceAlpha" result="effect1_dropShadow_5522_88633"/>
<feOffset dy="4"/>
<feGaussianBlur stdDeviation="8"/>
<feComposite in2="hardAlpha" operator="out"/>
<feColorMatrix type="matrix" values="0 0 0 0 0.0588235 0 0 0 0 0.141176 0 0 0 0 0.0666667 0 0 0 0.02 0"/>
<feBlend mode="normal" in2="BackgroundImageFix" result="effect1_dropShadow_5522_88633"/>
<feBlend mode="normal" in="SourceGraphic" in2="effect1_dropShadow_5522_88633" result="shape"/>
</filter>
<filter id="filter18_dd_5522_88633" x="198.5" y="16" width="96" height="96" filterUnits="userSpaceOnUse" color-interpolation-filters="sRGB">
<feFlood flood-opacity="0" result="BackgroundImageFix"/>
<feColorMatrix in="SourceAlpha" type="matrix" values="0 0 0 0 0 0 0 0 0 0 0 0 0 0 0 0 0 0 127 0" result="hardAlpha"/>
<feMorphology radius="4" operator="erode" in="SourceAlpha" result="effect1_dropShadow_5522_88633"/>
<feOffset dy="4"/>
<feGaussianBlur stdDeviation="8"/>
<feComposite in2="hardAlpha" operator="out"/>
<feColorMatrix type="matrix" values="0 0 0 0 0.0588235 0 0 0 0 0.141176 0 0 0 0 0.0666667 0 0 0 0.02 0"/>
<feBlend mode="normal" in2="BackgroundImageFix" result="effect1_dropShadow_5522_88633"/>
<feColorMatrix in="SourceAlpha" type="matrix" values="0 0 0 0 0 0 0 0 0 0 0 0 0 0 0 0 0 0 127 0" result="hardAlpha"/>
<feMorphology radius="4" operator="erode" in="SourceAlpha" result="effect2_dropShadow_5522_88633"/>
<feOffset dy="10"/>
<feGaussianBlur stdDeviation="16"/>
<feComposite in2="hardAlpha" operator="out"/>
<feColorMatrix type="matrix" values="0 0 0 0 0.0627451 0 0 0 0 0.0588235 0 0 0 0 0.141176 0 0 0 0.05 0"/>
<feBlend mode="normal" in2="effect1_dropShadow_5522_88633" result="effect2_dropShadow_5522_88633"/>
<feBlend mode="normal" in="SourceGraphic" in2="effect2_dropShadow_5522_88633" result="shape"/>
</filter>
<filter id="filter19_d_5522_88633" x="346.5" y="-84" width="224" height="174" filterUnits="userSpaceOnUse" color-interpolation-filters="sRGB">
<feFlood flood-opacity="0" result="BackgroundImageFix"/>
<feColorMatrix in="SourceAlpha" type="matrix" values="0 0 0 0 0 0 0 0 0 0 0 0 0 0 0 0 0 0 127 0" result="hardAlpha"/>
<feMorphology radius="4" operator="erode" in="SourceAlpha" result="effect1_dropShadow_5522_88633"/>
<feOffset dy="4"/>
<feGaussianBlur stdDeviation="8"/>
<feComposite in2="hardAlpha" operator="out"/>
<feColorMatrix type="matrix" values="0 0 0 0 0.0588235 0 0 0 0 0.141176 0 0 0 0 0.0666667 0 0 0 0.02 0"/>
<feBlend mode="normal" in2="BackgroundImageFix" result="effect1_dropShadow_5522_88633"/>
<feBlend mode="normal" in="SourceGraphic" in2="effect1_dropShadow_5522_88633" result="shape"/>
</filter>
<filter id="filter20_dd_5522_88633" x="410.5" y="16" width="96" height="96" filterUnits="userSpaceOnUse" color-interpolation-filters="sRGB">
<feFlood flood-opacity="0" result="BackgroundImageFix"/>
<feColorMatrix in="SourceAlpha" type="matrix" values="0 0 0 0 0 0 0 0 0 0 0 0 0 0 0 0 0 0 127 0" result="hardAlpha"/>
<feMorphology radius="4" operator="erode" in="SourceAlpha" result="effect1_dropShadow_5522_88633"/>
<feOffset dy="4"/>
<feGaussianBlur stdDeviation="8"/>
<feComposite in2="hardAlpha" operator="out"/>
<feColorMatrix type="matrix" values="0 0 0 0 0.0588235 0 0 0 0 0.141176 0 0 0 0 0.0666667 0 0 0 0.02 0"/>
<feBlend mode="normal" in2="BackgroundImageFix" result="effect1_dropShadow_5522_88633"/>
<feColorMatrix in="SourceAlpha" type="matrix" values="0 0 0 0 0 0 0 0 0 0 0 0 0 0 0 0 0 0 127 0" result="hardAlpha"/>
<feMorphology radius="4" operator="erode" in="SourceAlpha" result="effect2_dropShadow_5522_88633"/>
<feOffset dy="10"/>
<feGaussianBlur stdDeviation="16"/>
<feComposite in2="hardAlpha" operator="out"/>
<feColorMatrix type="matrix" values="0 0 0 0 0.0627451 0 0 0 0 0.0588235 0 0 0 0 0.141176 0 0 0 0.05 0"/>
<feBlend mode="normal" in2="effect1_dropShadow_5522_88633" result="effect2_dropShadow_5522_88633"/>
<feBlend mode="normal" in="SourceGraphic" in2="effect2_dropShadow_5522_88633" result="shape"/>
</filter>
<filter id="filter21_d_5522_88633" x="558.5" y="-84" width="224" height="174" filterUnits="userSpaceOnUse" color-interpolation-filters="sRGB">
<feFlood flood-opacity="0" result="BackgroundImageFix"/>
<feColorMatrix in="SourceAlpha" type="matrix" values="0 0 0 0 0 0 0 0 0 0 0 0 0 0 0 0 0 0 127 0" result="hardAlpha"/>
<feMorphology radius="4" operator="erode" in="SourceAlpha" result="effect1_dropShadow_5522_88633"/>
<feOffset dy="4"/>
<feGaussianBlur stdDeviation="8"/>
<feComposite in2="hardAlpha" operator="out"/>
<feColorMatrix type="matrix" values="0 0 0 0 0.0588235 0 0 0 0 0.141176 0 0 0 0 0.0666667 0 0 0 0.02 0"/>
<feBlend mode="normal" in2="BackgroundImageFix" result="effect1_dropShadow_5522_88633"/>
<feBlend mode="normal" in="SourceGraphic" in2="effect1_dropShadow_5522_88633" result="shape"/>
</filter>
<filter id="filter22_dd_5522_88633" x="622.5" y="16" width="96" height="96" filterUnits="userSpaceOnUse" color-interpolation-filters="sRGB">
<feFlood flood-opacity="0" result="BackgroundImageFix"/>
<feColorMatrix in="SourceAlpha" type="matrix" values="0 0 0 0 0 0 0 0 0 0 0 0 0 0 0 0 0 0 127 0" result="hardAlpha"/>
<feMorphology radius="4" operator="erode" in="SourceAlpha" result="effect1_dropShadow_5522_88633"/>
<feOffset dy="4"/>
<feGaussianBlur stdDeviation="8"/>
<feComposite in2="hardAlpha" operator="out"/>
<feColorMatrix type="matrix" values="0 0 0 0 0.0588235 0 0 0 0 0.141176 0 0 0 0 0.0666667 0 0 0 0.02 0"/>
<feBlend mode="normal" in2="BackgroundImageFix" result="effect1_dropShadow_5522_88633"/>
<feColorMatrix in="SourceAlpha" type="matrix" values="0 0 0 0 0 0 0 0 0 0 0 0 0 0 0 0 0 0 127 0" result="hardAlpha"/>
<feMorphology radius="4" operator="erode" in="SourceAlpha" result="effect2_dropShadow_5522_88633"/>
<feOffset dy="10"/>
<feGaussianBlur stdDeviation="16"/>
<feComposite in2="hardAlpha" operator="out"/>
<feColorMatrix type="matrix" values="0 0 0 0 0.0627451 0 0 0 0 0.0588235 0 0 0 0 0.141176 0 0 0 0.05 0"/>
<feBlend mode="normal" in2="effect1_dropShadow_5522_88633" result="effect2_dropShadow_5522_88633"/>
<feBlend mode="normal" in="SourceGraphic" in2="effect2_dropShadow_5522_88633" result="shape"/>
</filter>
<linearGradient id="paint0_linear_5522_88633" x1="-48.1064" y1="210.914" x2="-62.1644" y2="98.1575" gradientUnits="userSpaceOnUse">
<stop stop-color="#5C85D5"/>
<stop offset="1" stop-color="#C3A7F3"/>
</linearGradient>
<linearGradient id="paint1_linear_5522_88633" x1="753.997" y1="210.914" x2="768.055" y2="98.1575" gradientUnits="userSpaceOnUse">
<stop stop-color="#C3A7F3"/>
<stop offset="1" stop-color="#5C85D5"/>
</linearGradient>
<linearGradient id="paint2_linear_5522_88633" x1="352" y1="127.5" x2="352" y2="99.283" gradientUnits="userSpaceOnUse">
<stop offset="0.288462" stop-color="#78A2F1"/>
<stop offset="1" stop-color="#E4E4E7" stop-opacity="0.7"/>
</linearGradient>
<linearGradient id="paint3_linear_5522_88633" x1="352" y1="127.5" x2="352" y2="99.283" gradientUnits="userSpaceOnUse">
<stop offset="0.288462" stop-color="#78A2F1"/>
<stop offset="1" stop-color="#E4E4E7" stop-opacity="0.7"/>
</linearGradient>
<linearGradient id="paint4_linear_5522_88633" x1="352" y1="127.5" x2="352" y2="99.283" gradientUnits="userSpaceOnUse">
<stop offset="0.288462" stop-color="#78A2F1"/>
<stop offset="1" stop-color="#E4E4E7" stop-opacity="0.7"/>
</linearGradient>
<linearGradient id="paint5_linear_5522_88633" x1="352" y1="127.5" x2="352" y2="99.283" gradientUnits="userSpaceOnUse">
<stop offset="0.288462" stop-color="#78A2F1"/>
<stop offset="1" stop-color="#E4E4E7" stop-opacity="0.7"/>
</linearGradient>
<linearGradient id="paint6_linear_5522_88633" x1="352" y1="178.5" x2="352" y2="206.717" gradientUnits="userSpaceOnUse">
<stop offset="0.288462" stop-color="#78A2F1"/>
<stop offset="1" stop-color="#E4E4E7" stop-opacity="0.7"/>
</linearGradient>
<linearGradient id="paint7_linear_5522_88633" x1="352" y1="178.5" x2="352" y2="206.717" gradientUnits="userSpaceOnUse">
<stop offset="0.288462" stop-color="#78A2F1"/>
<stop offset="1" stop-color="#E4E4E7" stop-opacity="0.7"/>
</linearGradient>
<linearGradient id="paint8_linear_5522_88633" x1="352" y1="178.5" x2="352" y2="206.717" gradientUnits="userSpaceOnUse">
<stop offset="0.288462" stop-color="#78A2F1"/>
<stop offset="1" stop-color="#E4E4E7" stop-opacity="0.7"/>
</linearGradient>
<linearGradient id="paint9_linear_5522_88633" x1="352" y1="178.5" x2="352" y2="206.717" gradientUnits="userSpaceOnUse">
<stop offset="0.288462" stop-color="#78A2F1"/>
<stop offset="1" stop-color="#E4E4E7" stop-opacity="0.7"/>
</linearGradient>
<linearGradient id="paint10_linear_5522_88633" x1="361.061" y1="0" x2="361.061" y2="314" gradientUnits="userSpaceOnUse">
<stop stop-color="#FAFAFA"/>
<stop offset="0.25" stop-color="#FAFAFA" stop-opacity="0"/>
<stop offset="0.85" stop-color="#FAFAFA" stop-opacity="0.298077"/>
<stop offset="1" stop-color="#FAFAFA"/>
</linearGradient>
<linearGradient id="paint11_linear_5522_88633" x1="62" y1="141.107" x2="658.5" y2="141.107" gradientUnits="userSpaceOnUse">
<stop stop-color="#FAFAFA"/>
<stop offset="0.15" stop-color="#FAFAFA" stop-opacity="0"/>
<stop offset="0.85" stop-color="#FAFAFA" stop-opacity="0"/>
<stop offset="1" stop-color="#FAFAFA"/>
</linearGradient>
<linearGradient id="paint12_linear_5522_88633" x1="353" y1="274" x2="353" y2="314" gradientUnits="userSpaceOnUse">
<stop stop-color="#FAFAFA" stop-opacity="0"/>
<stop offset="1" stop-color="#FAFAFA"/>
</linearGradient>
<linearGradient id="paint13_linear_5522_88633" x1="352" y1="0" x2="352" y2="40" gradientUnits="userSpaceOnUse">
<stop stop-color="#FAFAFA" stop-opacity="0"/>
<stop offset="1" stop-color="#FAFAFA"/>
</linearGradient>
<clipPath id="clip0_5522_88633">
<rect width="704" height="314" fill="white" transform="translate(0.5)"/>
</clipPath>
<clipPath id="clip1_5522_88633">
<rect width="176" height="16" fill="white" transform="translate(-43.5 154)"/>
</clipPath>
<clipPath id="clip2_5522_88633">
<rect width="176" height="16" fill="white" transform="translate(-43.5 178)"/>
</clipPath>
<clipPath id="clip3_5522_88633">
<rect width="176" height="16" fill="white" transform="translate(572.5 154)"/>
</clipPath>
<clipPath id="clip4_5522_88633">
<rect width="176" height="16" fill="white" transform="translate(572.5 178)"/>
</clipPath>
</defs>
</svg>
