<svg width="705" height="338" viewBox="0 0 705 338" fill="none" xmlns="http://www.w3.org/2000/svg">
<g clip-path="url(#clip0_5041_67927)">
<g clip-path="url(#clip1_5041_67927)">
<g opacity="0.1" filter="url(#filter0_f_5041_67927)">
<path d="M748.746 253.268C735.632 348.32 648.334 414.798 553.76 401.751C459.185 388.704 478.016 412.899 491.129 317.846C504.242 222.794 568.036 180.127 662.61 193.174C757.185 206.221 761.859 158.216 748.746 253.268Z" fill="#A1A6FE" fill-opacity="0.8"/>
</g>
<g opacity="0.25">
<path d="M575.5 17H555.5C549.977 17 545.5 21.4772 545.5 27V47C545.5 52.5228 549.977 57 555.5 57H575.5C581.023 57 585.5 52.5228 585.5 47V27C585.5 21.4772 581.023 17 575.5 17Z" fill="#EBEBEB"/>
</g>
<g opacity="0.25">
<path d="M523.5 17H503.5C497.977 17 493.5 21.4772 493.5 27V47C493.5 52.5228 497.977 57 503.5 57H523.5C529.023 57 533.5 52.5228 533.5 47V27C533.5 21.4772 529.023 17 523.5 17Z" fill="#EBEBEB"/>
</g>
<g opacity="0.25">
<path d="M471.5 17H346.5C340.977 17 336.5 21.4772 336.5 27V47C336.5 52.5228 340.977 57 346.5 57H471.5C477.023 57 481.5 52.5228 481.5 47V27C481.5 21.4772 477.023 17 471.5 17Z" fill="#EBEBEB"/>
</g>
<g opacity="0.25">
<path d="M264.5 17H56.5C50.9772 17 46.5 21.4772 46.5 27V47C46.5 52.5228 50.9772 57 56.5 57H264.5C270.023 57 274.5 52.5228 274.5 47V27C274.5 21.4772 270.023 17 264.5 17Z" fill="#EBEBEB"/>
</g>
<g opacity="0.4">
<path d="M1.5 145C1.5 140.582 5.0817 137 9.5 137H253.5C257.918 137 261.5 140.582 261.5 145V161C261.5 165.418 257.918 169 253.5 169H9.5C5.0817 169 1.5 165.418 1.5 161V145Z" fill="#EBEBEB"/>
<path d="M117.5 173H5.5C3.29086 173 1.5 174.791 1.5 177V185C1.5 187.209 3.29086 189 5.5 189H117.5C119.709 189 121.5 187.209 121.5 185V177C121.5 174.791 119.709 173 117.5 173Z" fill="#EBEBEB"/>
</g>
<g opacity="0.45">
<path d="M341.167 213H18.5C9.66344 213 2.5 220.163 2.5 229V311C2.5 319.837 9.66344 327 18.5 327H341.167C350.004 327 357.167 319.837 357.167 311V229C357.167 220.163 350.004 213 341.167 213Z" fill="#F2F2F2"/>
<path d="M100.5 231H32.5C29.1863 231 26.5 233.686 26.5 237V247C26.5 250.314 29.1863 253 32.5 253H100.5C103.814 253 106.5 250.314 106.5 247V237C106.5 233.686 103.814 231 100.5 231Z" fill="#EBEBEB"/>
<path d="M290.5 269H34.5C30.0817 269 26.5 272.582 26.5 277V301C26.5 305.418 30.0817 309 34.5 309H290.5C294.918 309 298.5 305.418 298.5 301V277C298.5 272.582 294.918 269 290.5 269Z" fill="#EBEBEB"/>
<path d="M711.833 213H389.166C380.329 213 373.166 220.163 373.166 229V311C373.166 319.837 380.329 327 389.166 327H711.833C720.67 327 727.833 319.837 727.833 311V229C727.833 220.163 720.67 213 711.833 213Z" fill="#F2F2F2"/>
<path d="M516.166 231H403.166C399.852 231 397.166 233.686 397.166 237V247C397.166 250.314 399.852 253 403.166 253H516.166C519.48 253 522.166 250.314 522.166 247V237C522.166 233.686 519.48 231 516.166 231Z" fill="#EBEBEB"/>
<path d="M567.166 269H405.166C400.748 269 397.166 272.582 397.166 277V301C397.166 305.418 400.748 309 405.166 309H567.166C571.584 309 575.166 305.418 575.166 301V277C575.166 272.582 571.584 269 567.166 269Z" fill="#EBEBEB"/>
</g>
<g opacity="0.2" filter="url(#filter1_f_5041_67927)">
<path d="M497.715 355.323C615.325 312.423 713.105 186.432 713.105 186.432C713.105 186.432 768.71 222.244 790.128 232.644C725.957 249.743 706.078 331.832 654.167 380.056C622.059 384.827 529.377 356.491 497.715 355.323Z" fill="url(#paint0_linear_5041_67927)"/>
</g>
<g opacity="0.2" filter="url(#filter2_f_5041_67927)">
<path d="M143.947 112.789C50.1773 172.034 -10.5168 293.402 -10.5168 293.402C-10.5168 293.402 -65.5715 276.631 -86.1289 272.88C-33.7605 245.59 -32.2154 175.829 3.57399 126.296C30.4999 115.662 116.272 118.585 143.947 112.789Z" fill="url(#paint1_linear_5041_67927)"/>
</g>
<path d="M66.5 201L171.5 201" stroke="url(#paint2_linear_5041_67927)" stroke-opacity="0.3" stroke-linecap="round"/>
<path d="M480.5 134L871.5 134" stroke="url(#paint3_linear_5041_67927)" stroke-opacity="0.3" stroke-linecap="round"/>
<path d="M163.5 67L163.5 131" stroke="url(#paint4_linear_5041_67927)" stroke-opacity="0.3" stroke-linecap="round"/>
<path d="M417.5 128L417.5 198" stroke="url(#paint5_linear_5041_67927)" stroke-opacity="0.3" stroke-linecap="round"/>
<mask id="mask0_5041_67927" style="mask-type:luminance" maskUnits="userSpaceOnUse" x="149" y="93" width="287" height="196">
<path d="M435.5 93H149.5V289H435.5V93Z" fill="white"/>
</mask>
<g mask="url(#mask0_5041_67927)">
<g filter="url(#filter3_d_5041_67927)">
<path d="M387.5 113H197.5C190.873 113 185.5 118.373 185.5 125V225C185.5 231.627 190.873 237 197.5 237H387.5C394.127 237 399.5 231.627 399.5 225V125C399.5 118.373 394.127 113 387.5 113Z" fill="white"/>
<path d="M387.5 113.5H197.5C191.149 113.5 186 118.649 186 125V225C186 231.351 191.149 236.5 197.5 236.5H387.5C393.851 236.5 399 231.351 399 225V125C399 118.649 393.851 113.5 387.5 113.5Z" stroke="#F3F4F6"/>
<path d="M387.5 117H197.5C193.082 117 189.5 120.582 189.5 125V145C189.5 149.418 193.082 153 197.5 153H387.5C391.918 153 395.5 149.418 395.5 145V125C395.5 120.582 391.918 117 387.5 117Z" fill="#EBF1FF"/>
<path d="M198.703 140V130.13H202.721C203.785 130.13 204.602 130.354 205.171 130.802C205.74 131.25 206.025 131.88 206.025 132.692C206.025 133.308 205.838 133.821 205.465 134.232C205.101 134.643 204.602 134.918 203.967 135.058V134.848C204.695 134.932 205.26 135.184 205.661 135.604C206.072 136.024 206.277 136.579 206.277 137.27C206.277 138.147 205.983 138.824 205.395 139.3C204.807 139.767 203.976 140 202.903 140H198.703ZM199.963 138.964H202.777C203.468 138.964 204.009 138.833 204.401 138.572C204.802 138.301 205.003 137.858 205.003 137.242C205.003 136.617 204.802 136.173 204.401 135.912C204.009 135.651 203.468 135.52 202.777 135.52H199.963V138.964ZM199.963 134.484H202.539C203.276 134.484 203.827 134.344 204.191 134.064C204.555 133.775 204.737 133.359 204.737 132.818C204.737 132.277 204.555 131.866 204.191 131.586C203.827 131.297 203.276 131.152 202.539 131.152H199.963V134.484ZM210.808 140.126C210.192 140.126 209.65 139.981 209.184 139.692C208.717 139.403 208.353 138.983 208.092 138.432C207.83 137.881 207.7 137.228 207.7 136.472C207.7 135.716 207.83 135.067 208.092 134.526C208.353 133.975 208.717 133.555 209.184 133.266C209.65 132.977 210.192 132.832 210.808 132.832C211.433 132.832 211.974 132.991 212.432 133.308C212.898 133.616 213.206 134.041 213.356 134.582H213.188L213.342 132.958H214.574C214.546 133.238 214.518 133.518 214.49 133.798C214.471 134.078 214.462 134.353 214.462 134.624V140H213.188V138.39H213.342C213.192 138.922 212.884 139.347 212.418 139.664C211.96 139.972 211.424 140.126 210.808 140.126ZM211.102 139.118C211.736 139.118 212.245 138.894 212.628 138.446C213.01 137.998 213.202 137.34 213.202 136.472C213.202 135.604 213.01 134.951 212.628 134.512C212.245 134.073 211.736 133.854 211.102 133.854C210.467 133.854 209.954 134.073 209.562 134.512C209.179 134.951 208.988 135.604 208.988 136.472C208.988 137.34 209.179 137.998 209.562 138.446C209.944 138.894 210.458 139.118 211.102 139.118ZM218.976 140.126C218.407 140.126 217.875 140.051 217.38 139.902C216.895 139.753 216.494 139.538 216.176 139.258L216.582 138.376C216.928 138.637 217.306 138.838 217.716 138.978C218.136 139.109 218.566 139.174 219.004 139.174C219.536 139.174 219.938 139.076 220.208 138.88C220.488 138.684 220.628 138.423 220.628 138.096C220.628 137.835 220.54 137.625 220.362 137.466C220.185 137.307 219.905 137.191 219.522 137.116L218.192 136.85C217.595 136.71 217.142 136.486 216.834 136.178C216.536 135.861 216.386 135.455 216.386 134.96C216.386 134.549 216.498 134.185 216.722 133.868C216.946 133.541 217.264 133.289 217.674 133.112C218.094 132.925 218.584 132.832 219.144 132.832C219.658 132.832 220.134 132.907 220.572 133.056C221.02 133.205 221.389 133.425 221.678 133.714L221.258 134.568C220.969 134.316 220.642 134.125 220.278 133.994C219.924 133.854 219.56 133.784 219.186 133.784C218.645 133.784 218.244 133.891 217.982 134.106C217.721 134.311 217.59 134.582 217.59 134.918C217.59 135.17 217.67 135.38 217.828 135.548C217.987 135.707 218.244 135.828 218.598 135.912L219.928 136.178C220.554 136.309 221.025 136.523 221.342 136.822C221.66 137.121 221.818 137.517 221.818 138.012C221.818 138.451 221.697 138.829 221.454 139.146C221.221 139.463 220.89 139.706 220.46 139.874C220.04 140.042 219.546 140.126 218.976 140.126ZM226.761 140.126C225.641 140.126 224.755 139.804 224.101 139.16C223.457 138.516 223.135 137.629 223.135 136.5C223.135 135.753 223.275 135.109 223.555 134.568C223.845 134.017 224.241 133.593 224.745 133.294C225.249 132.986 225.837 132.832 226.509 132.832C227.153 132.832 227.699 132.972 228.147 133.252C228.595 133.523 228.936 133.91 229.169 134.414C229.403 134.918 229.519 135.515 229.519 136.206V136.626H224.129V135.87H228.651L228.413 136.052C228.413 135.324 228.25 134.759 227.923 134.358C227.606 133.957 227.135 133.756 226.509 133.756C225.828 133.756 225.301 133.994 224.927 134.47C224.554 134.937 224.367 135.576 224.367 136.388V136.514C224.367 137.373 224.577 138.021 224.997 138.46C225.427 138.899 226.019 139.118 226.775 139.118C227.195 139.118 227.587 139.057 227.951 138.936C228.315 138.815 228.665 138.614 229.001 138.334L229.421 139.216C229.104 139.505 228.707 139.729 228.231 139.888C227.765 140.047 227.275 140.126 226.761 140.126ZM238.278 140.126C237.484 140.126 236.77 140.023 236.136 139.818C235.501 139.613 234.95 139.323 234.484 138.95L234.932 137.914C235.258 138.157 235.59 138.362 235.926 138.53C236.262 138.689 236.621 138.81 237.004 138.894C237.396 138.969 237.82 139.006 238.278 139.006C239.09 139.006 239.687 138.861 240.07 138.572C240.462 138.273 240.658 137.881 240.658 137.396C240.658 136.976 240.522 136.654 240.252 136.43C239.981 136.206 239.51 136.029 238.838 135.898L237.34 135.59C236.434 135.403 235.758 135.1 235.31 134.68C234.871 134.251 234.652 133.672 234.652 132.944C234.652 132.356 234.806 131.843 235.114 131.404C235.431 130.956 235.865 130.611 236.416 130.368C236.976 130.125 237.629 130.004 238.376 130.004C239.066 130.004 239.706 130.107 240.294 130.312C240.882 130.517 241.376 130.821 241.778 131.222L241.33 132.216C240.91 131.833 240.457 131.558 239.972 131.39C239.496 131.213 238.954 131.124 238.348 131.124C237.61 131.124 237.027 131.283 236.598 131.6C236.168 131.917 235.954 132.347 235.954 132.888C235.954 133.317 236.089 133.658 236.36 133.91C236.63 134.153 237.078 134.339 237.704 134.47L239.202 134.764C240.154 134.951 240.849 135.245 241.288 135.646C241.736 136.047 241.96 136.603 241.96 137.312C241.96 137.872 241.81 138.367 241.512 138.796C241.213 139.216 240.788 139.543 240.238 139.776C239.687 140.009 239.034 140.126 238.278 140.126ZM246.691 140.126C245.991 140.126 245.384 139.981 244.871 139.692C244.357 139.393 243.956 138.969 243.667 138.418C243.387 137.858 243.247 137.195 243.247 136.43C243.247 135.674 243.391 135.03 243.681 134.498C243.97 133.957 244.371 133.546 244.885 133.266C245.398 132.977 246 132.832 246.691 132.832C247.148 132.832 247.591 132.911 248.021 133.07C248.45 133.219 248.8 133.439 249.071 133.728L248.637 134.624C248.366 134.363 248.067 134.171 247.741 134.05C247.414 133.919 247.092 133.854 246.775 133.854C246.084 133.854 245.543 134.078 245.151 134.526C244.759 134.965 244.563 135.604 244.563 136.444C244.563 137.293 244.759 137.947 245.151 138.404C245.543 138.861 246.084 139.09 246.775 139.09C247.083 139.09 247.4 139.029 247.727 138.908C248.053 138.787 248.357 138.595 248.637 138.334L249.071 139.216C248.791 139.515 248.431 139.743 247.993 139.902C247.563 140.051 247.129 140.126 246.691 140.126ZM253.695 140.126C252.575 140.126 251.688 139.804 251.035 139.16C250.391 138.516 250.069 137.629 250.069 136.5C250.069 135.753 250.209 135.109 250.489 134.568C250.778 134.017 251.175 133.593 251.679 133.294C252.183 132.986 252.771 132.832 253.443 132.832C254.087 132.832 254.633 132.972 255.081 133.252C255.529 133.523 255.869 133.91 256.103 134.414C256.336 134.918 256.453 135.515 256.453 136.206V136.626H251.063V135.87H255.585L255.347 136.052C255.347 135.324 255.183 134.759 254.857 134.358C254.539 133.957 254.068 133.756 253.443 133.756C252.761 133.756 252.234 133.994 251.861 134.47C251.487 134.937 251.301 135.576 251.301 136.388V136.514C251.301 137.373 251.511 138.021 251.931 138.46C252.36 138.899 252.953 139.118 253.709 139.118C254.129 139.118 254.521 139.057 254.885 138.936C255.249 138.815 255.599 138.614 255.935 138.334L256.355 139.216C256.037 139.505 255.641 139.729 255.165 139.888C254.698 140.047 254.208 140.126 253.695 140.126ZM258.118 140V134.624C258.118 134.353 258.108 134.078 258.09 133.798C258.071 133.518 258.043 133.238 258.006 132.958H259.238L259.378 134.47H259.21C259.424 133.938 259.756 133.532 260.204 133.252C260.652 132.972 261.174 132.832 261.772 132.832C262.602 132.832 263.228 133.061 263.648 133.518C264.068 133.966 264.278 134.666 264.278 135.618V140H263.004V135.688C263.004 135.044 262.878 134.582 262.626 134.302C262.374 134.013 261.982 133.868 261.45 133.868C260.815 133.868 260.311 134.059 259.938 134.442C259.574 134.825 259.392 135.343 259.392 135.996V140H258.118ZM269.05 140.126C268.434 140.126 267.892 139.981 267.426 139.692C266.959 139.403 266.595 138.983 266.334 138.432C266.072 137.881 265.942 137.228 265.942 136.472C265.942 135.716 266.072 135.067 266.334 134.526C266.595 133.975 266.959 133.555 267.426 133.266C267.892 132.977 268.434 132.832 269.05 132.832C269.675 132.832 270.216 132.991 270.674 133.308C271.14 133.616 271.448 134.041 271.598 134.582H271.43L271.584 132.958H272.816C272.788 133.238 272.76 133.518 272.732 133.798C272.713 134.078 272.704 134.353 272.704 134.624V140H271.43V138.39H271.584C271.434 138.922 271.126 139.347 270.66 139.664C270.202 139.972 269.666 140.126 269.05 140.126ZM269.344 139.118C269.978 139.118 270.487 138.894 270.87 138.446C271.252 137.998 271.444 137.34 271.444 136.472C271.444 135.604 271.252 134.951 270.87 134.512C270.487 134.073 269.978 133.854 269.344 133.854C268.709 133.854 268.196 134.073 267.804 134.512C267.421 134.951 267.23 135.604 267.23 136.472C267.23 137.34 267.421 137.998 267.804 138.446C268.186 138.894 268.7 139.118 269.344 139.118ZM274.824 140V134.68C274.824 134.4 274.815 134.115 274.796 133.826C274.787 133.527 274.764 133.238 274.726 132.958H275.958L276.112 134.722L275.902 134.736C275.996 134.307 276.154 133.952 276.378 133.672C276.612 133.383 276.887 133.173 277.204 133.042C277.531 132.902 277.867 132.832 278.212 132.832C278.362 132.832 278.488 132.837 278.59 132.846C278.693 132.855 278.796 132.879 278.898 132.916L278.87 134.05C278.73 133.994 278.6 133.961 278.478 133.952C278.366 133.933 278.226 133.924 278.058 133.924C277.648 133.924 277.293 134.017 276.994 134.204C276.705 134.391 276.481 134.638 276.322 134.946C276.173 135.254 276.098 135.585 276.098 135.94V140H274.824ZM280.02 140V132.958H281.294V140H280.02ZM279.908 131.418V130.046H281.42V131.418H279.908ZM286.392 140.126C285.702 140.126 285.104 139.981 284.6 139.692C284.096 139.393 283.704 138.973 283.424 138.432C283.144 137.881 283.004 137.228 283.004 136.472C283.004 135.725 283.144 135.081 283.424 134.54C283.704 133.989 284.096 133.569 284.6 133.28C285.104 132.981 285.702 132.832 286.392 132.832C287.083 132.832 287.68 132.981 288.184 133.28C288.698 133.569 289.09 133.989 289.36 134.54C289.64 135.081 289.78 135.725 289.78 136.472C289.78 137.228 289.64 137.881 289.36 138.432C289.09 138.973 288.698 139.393 288.184 139.692C287.68 139.981 287.083 140.126 286.392 140.126ZM286.392 139.118C287.027 139.118 287.536 138.894 287.918 138.446C288.301 137.998 288.492 137.34 288.492 136.472C288.492 135.604 288.301 134.951 287.918 134.512C287.536 134.073 287.027 133.854 286.392 133.854C285.748 133.854 285.235 134.073 284.852 134.512C284.479 134.951 284.292 135.604 284.292 136.472C284.292 137.34 284.479 137.998 284.852 138.446C285.235 138.894 285.748 139.118 286.392 139.118Z" fill="#1F2937"/>
<path d="M384.833 131L377.499 138.333L374.166 135" stroke="#083CA1" stroke-width="1.33" stroke-linecap="round" stroke-linejoin="round"/>
<path d="M186.5 156.5H398.5" stroke="#F3F4F6"/>
<path d="M201.125 184V179.38L201.405 180.234L197.289 174.13H198.801L201.965 178.946H201.643L204.807 174.13H206.277L202.161 180.234L202.427 179.38V184H201.125ZM208.982 184.126C208.292 184.126 207.694 183.981 207.19 183.692C206.686 183.393 206.294 182.973 206.014 182.432C205.734 181.881 205.594 181.228 205.594 180.472C205.594 179.725 205.734 179.081 206.014 178.54C206.294 177.989 206.686 177.569 207.19 177.28C207.694 176.981 208.292 176.832 208.982 176.832C209.673 176.832 210.27 176.981 210.774 177.28C211.288 177.569 211.68 177.989 211.95 178.54C212.23 179.081 212.37 179.725 212.37 180.472C212.37 181.228 212.23 181.881 211.95 182.432C211.68 182.973 211.288 183.393 210.774 183.692C210.27 183.981 209.673 184.126 208.982 184.126ZM208.982 183.118C209.617 183.118 210.126 182.894 210.508 182.446C210.891 181.998 211.082 181.34 211.082 180.472C211.082 179.604 210.891 178.951 210.508 178.512C210.126 178.073 209.617 177.854 208.982 177.854C208.338 177.854 207.825 178.073 207.442 178.512C207.069 178.951 206.882 179.604 206.882 180.472C206.882 181.34 207.069 181.998 207.442 182.446C207.825 182.894 208.338 183.118 208.982 183.118ZM216.587 184.126C215.737 184.126 215.098 183.897 214.669 183.44C214.249 182.983 214.039 182.278 214.039 181.326V176.958H215.313V181.298C215.313 181.914 215.439 182.367 215.691 182.656C215.943 182.945 216.335 183.09 216.867 183.09C217.445 183.09 217.912 182.899 218.267 182.516C218.631 182.124 218.813 181.606 218.813 180.962V176.958H220.087V184H218.855V182.446H219.037C218.841 182.978 218.528 183.393 218.099 183.692C217.669 183.981 217.165 184.126 216.587 184.126ZM222.215 184V178.68C222.215 178.4 222.206 178.115 222.187 177.826C222.178 177.527 222.154 177.238 222.117 176.958H223.349L223.503 178.722L223.293 178.736C223.386 178.307 223.545 177.952 223.769 177.672C224.002 177.383 224.278 177.173 224.595 177.042C224.922 176.902 225.258 176.832 225.603 176.832C225.752 176.832 225.878 176.837 225.981 176.846C226.084 176.855 226.186 176.879 226.289 176.916L226.261 178.05C226.121 177.994 225.99 177.961 225.869 177.952C225.757 177.933 225.617 177.924 225.449 177.924C225.038 177.924 224.684 178.017 224.385 178.204C224.096 178.391 223.872 178.638 223.713 178.946C223.564 179.254 223.489 179.585 223.489 179.94V184H222.215ZM234.504 184.126C233.711 184.126 232.997 184.023 232.362 183.818C231.727 183.613 231.177 183.323 230.71 182.95L231.158 181.914C231.485 182.157 231.816 182.362 232.152 182.53C232.488 182.689 232.847 182.81 233.23 182.894C233.622 182.969 234.047 183.006 234.504 183.006C235.316 183.006 235.913 182.861 236.296 182.572C236.688 182.273 236.884 181.881 236.884 181.396C236.884 180.976 236.749 180.654 236.478 180.43C236.207 180.206 235.736 180.029 235.064 179.898L233.566 179.59C232.661 179.403 231.984 179.1 231.536 178.68C231.097 178.251 230.878 177.672 230.878 176.944C230.878 176.356 231.032 175.843 231.34 175.404C231.657 174.956 232.091 174.611 232.642 174.368C233.202 174.125 233.855 174.004 234.602 174.004C235.293 174.004 235.932 174.107 236.52 174.312C237.108 174.517 237.603 174.821 238.004 175.222L237.556 176.216C237.136 175.833 236.683 175.558 236.198 175.39C235.722 175.213 235.181 175.124 234.574 175.124C233.837 175.124 233.253 175.283 232.824 175.6C232.395 175.917 232.18 176.347 232.18 176.888C232.18 177.317 232.315 177.658 232.586 177.91C232.857 178.153 233.305 178.339 233.93 178.47L235.428 178.764C236.38 178.951 237.075 179.245 237.514 179.646C237.962 180.047 238.186 180.603 238.186 181.312C238.186 181.872 238.037 182.367 237.738 182.796C237.439 183.216 237.015 183.543 236.464 183.776C235.913 184.009 235.26 184.126 234.504 184.126ZM242.917 184.126C242.217 184.126 241.61 183.981 241.097 183.692C240.584 183.393 240.182 182.969 239.893 182.418C239.613 181.858 239.473 181.195 239.473 180.43C239.473 179.674 239.618 179.03 239.907 178.498C240.196 177.957 240.598 177.546 241.111 177.266C241.624 176.977 242.226 176.832 242.917 176.832C243.374 176.832 243.818 176.911 244.247 177.07C244.676 177.219 245.026 177.439 245.297 177.728L244.863 178.624C244.592 178.363 244.294 178.171 243.967 178.05C243.64 177.919 243.318 177.854 243.001 177.854C242.31 177.854 241.769 178.078 241.377 178.526C240.985 178.965 240.789 179.604 240.789 180.444C240.789 181.293 240.985 181.947 241.377 182.404C241.769 182.861 242.31 183.09 243.001 183.09C243.309 183.09 243.626 183.029 243.953 182.908C244.28 182.787 244.583 182.595 244.863 182.334L245.297 183.216C245.017 183.515 244.658 183.743 244.219 183.902C243.79 184.051 243.356 184.126 242.917 184.126ZM249.921 184.126C248.801 184.126 247.915 183.804 247.261 183.16C246.617 182.516 246.295 181.629 246.295 180.5C246.295 179.753 246.435 179.109 246.715 178.568C247.005 178.017 247.401 177.593 247.905 177.294C248.409 176.986 248.997 176.832 249.669 176.832C250.313 176.832 250.859 176.972 251.307 177.252C251.755 177.523 252.096 177.91 252.329 178.414C252.563 178.918 252.679 179.515 252.679 180.206V180.626H247.289V179.87H251.811L251.573 180.052C251.573 179.324 251.41 178.759 251.083 178.358C250.766 177.957 250.295 177.756 249.669 177.756C248.988 177.756 248.461 177.994 248.087 178.47C247.714 178.937 247.527 179.576 247.527 180.388V180.514C247.527 181.373 247.737 182.021 248.157 182.46C248.587 182.899 249.179 183.118 249.935 183.118C250.355 183.118 250.747 183.057 251.111 182.936C251.475 182.815 251.825 182.614 252.161 182.334L252.581 183.216C252.264 183.505 251.867 183.729 251.391 183.888C250.925 184.047 250.435 184.126 249.921 184.126ZM254.344 184V178.624C254.344 178.353 254.335 178.078 254.316 177.798C254.298 177.518 254.27 177.238 254.232 176.958H255.464L255.604 178.47H255.436C255.651 177.938 255.982 177.532 256.43 177.252C256.878 176.972 257.401 176.832 257.998 176.832C258.829 176.832 259.454 177.061 259.874 177.518C260.294 177.966 260.504 178.666 260.504 179.618V184H259.23V179.688C259.23 179.044 259.104 178.582 258.852 178.302C258.6 178.013 258.208 177.868 257.676 177.868C257.042 177.868 256.538 178.059 256.164 178.442C255.8 178.825 255.618 179.343 255.618 179.996V184H254.344ZM265.276 184.126C264.66 184.126 264.119 183.981 263.652 183.692C263.186 183.403 262.822 182.983 262.56 182.432C262.299 181.881 262.168 181.228 262.168 180.472C262.168 179.716 262.299 179.067 262.56 178.526C262.822 177.975 263.186 177.555 263.652 177.266C264.119 176.977 264.66 176.832 265.276 176.832C265.902 176.832 266.443 176.991 266.9 177.308C267.367 177.616 267.675 178.041 267.824 178.582H267.656L267.81 176.958H269.042C269.014 177.238 268.986 177.518 268.958 177.798C268.94 178.078 268.93 178.353 268.93 178.624V184H267.656V182.39H267.81C267.661 182.922 267.353 183.347 266.886 183.664C266.429 183.972 265.892 184.126 265.276 184.126ZM265.57 183.118C266.205 183.118 266.714 182.894 267.096 182.446C267.479 181.998 267.67 181.34 267.67 180.472C267.67 179.604 267.479 178.951 267.096 178.512C266.714 178.073 266.205 177.854 265.57 177.854C264.936 177.854 264.422 178.073 264.03 178.512C263.648 178.951 263.456 179.604 263.456 180.472C263.456 181.34 263.648 181.998 264.03 182.446C264.413 182.894 264.926 183.118 265.57 183.118ZM271.051 184V178.68C271.051 178.4 271.042 178.115 271.023 177.826C271.014 177.527 270.99 177.238 270.953 176.958H272.185L272.339 178.722L272.129 178.736C272.222 178.307 272.381 177.952 272.605 177.672C272.838 177.383 273.114 177.173 273.431 177.042C273.758 176.902 274.094 176.832 274.439 176.832C274.588 176.832 274.714 176.837 274.817 176.846C274.92 176.855 275.022 176.879 275.125 176.916L275.097 178.05C274.957 177.994 274.826 177.961 274.705 177.952C274.593 177.933 274.453 177.924 274.285 177.924C273.874 177.924 273.52 178.017 273.221 178.204C272.932 178.391 272.708 178.638 272.549 178.946C272.4 179.254 272.325 179.585 272.325 179.94V184H271.051ZM276.247 184V176.958H277.521V184H276.247ZM276.135 175.418V174.046H277.647V175.418H276.135ZM282.619 184.126C281.928 184.126 281.331 183.981 280.827 183.692C280.323 183.393 279.931 182.973 279.651 182.432C279.371 181.881 279.231 181.228 279.231 180.472C279.231 179.725 279.371 179.081 279.651 178.54C279.931 177.989 280.323 177.569 280.827 177.28C281.331 176.981 281.928 176.832 282.619 176.832C283.31 176.832 283.907 176.981 284.411 177.28C284.924 177.569 285.316 177.989 285.587 178.54C285.867 179.081 286.007 179.725 286.007 180.472C286.007 181.228 285.867 181.881 285.587 182.432C285.316 182.973 284.924 183.393 284.411 183.692C283.907 183.981 283.31 184.126 282.619 184.126ZM282.619 183.118C283.254 183.118 283.762 182.894 284.145 182.446C284.528 181.998 284.719 181.34 284.719 180.472C284.719 179.604 284.528 178.951 284.145 178.512C283.762 178.073 283.254 177.854 282.619 177.854C281.975 177.854 281.462 178.073 281.079 178.512C280.706 178.951 280.519 179.604 280.519 180.472C280.519 181.34 280.706 181.998 281.079 182.446C281.462 182.894 281.975 183.118 282.619 183.118Z" fill="#1F2937"/>
<path d="M205.501 210.332V219.665M200.834 214.999H210.167" stroke="#71717A" stroke-width="1.2" stroke-linecap="round" stroke-linejoin="round"/>
<path d="M227.058 220.126C226.069 220.126 225.219 219.921 224.51 219.51C223.81 219.099 223.273 218.516 222.9 217.76C222.527 216.995 222.34 216.094 222.34 215.058C222.34 214.022 222.527 213.126 222.9 212.37C223.273 211.614 223.81 211.031 224.51 210.62C225.219 210.209 226.069 210.004 227.058 210.004C227.767 210.004 228.397 210.111 228.948 210.326C229.499 210.531 229.979 210.835 230.39 211.236L229.914 212.286C229.466 211.894 229.023 211.614 228.584 211.446C228.155 211.269 227.655 211.18 227.086 211.18C225.994 211.18 225.159 211.516 224.58 212.188C224.001 212.86 223.712 213.817 223.712 215.058C223.712 216.299 224.001 217.261 224.58 217.942C225.159 218.614 225.994 218.95 227.086 218.95C227.655 218.95 228.155 218.866 228.584 218.698C229.023 218.521 229.466 218.236 229.914 217.844L230.39 218.88C229.979 219.281 229.494 219.589 228.934 219.804C228.383 220.019 227.758 220.126 227.058 220.126ZM232.134 220V214.68C232.134 214.4 232.125 214.115 232.106 213.826C232.097 213.527 232.073 213.238 232.036 212.958H233.268L233.422 214.722L233.212 214.736C233.305 214.307 233.464 213.952 233.688 213.672C233.921 213.383 234.197 213.173 234.514 213.042C234.841 212.902 235.177 212.832 235.522 212.832C235.671 212.832 235.797 212.837 235.9 212.846C236.003 212.855 236.105 212.879 236.208 212.916L236.18 214.05C236.04 213.994 235.909 213.961 235.788 213.952C235.676 213.933 235.536 213.924 235.368 213.924C234.957 213.924 234.603 214.017 234.304 214.204C234.015 214.391 233.791 214.638 233.632 214.946C233.483 215.254 233.408 215.585 233.408 215.94V220H232.134ZM240.44 220.126C239.32 220.126 238.433 219.804 237.78 219.16C237.136 218.516 236.814 217.629 236.814 216.5C236.814 215.753 236.954 215.109 237.234 214.568C237.523 214.017 237.92 213.593 238.424 213.294C238.928 212.986 239.516 212.832 240.188 212.832C240.832 212.832 241.378 212.972 241.826 213.252C242.274 213.523 242.614 213.91 242.848 214.414C243.081 214.918 243.198 215.515 243.198 216.206V216.626H237.808V215.87H242.33L242.092 216.052C242.092 215.324 241.928 214.759 241.602 214.358C241.284 213.957 240.813 213.756 240.188 213.756C239.506 213.756 238.979 213.994 238.606 214.47C238.232 214.937 238.046 215.576 238.046 216.388V216.514C238.046 217.373 238.256 218.021 238.676 218.46C239.105 218.899 239.698 219.118 240.454 219.118C240.874 219.118 241.266 219.057 241.63 218.936C241.994 218.815 242.344 218.614 242.68 218.334L243.1 219.216C242.782 219.505 242.386 219.729 241.91 219.888C241.443 220.047 240.953 220.126 240.44 220.126ZM247.551 220.126C246.935 220.126 246.393 219.981 245.927 219.692C245.46 219.403 245.096 218.983 244.835 218.432C244.573 217.881 244.443 217.228 244.443 216.472C244.443 215.716 244.573 215.067 244.835 214.526C245.096 213.975 245.46 213.555 245.927 213.266C246.393 212.977 246.935 212.832 247.551 212.832C248.176 212.832 248.717 212.991 249.175 213.308C249.641 213.616 249.949 214.041 250.099 214.582H249.931L250.085 212.958H251.317C251.289 213.238 251.261 213.518 251.233 213.798C251.214 214.078 251.205 214.353 251.205 214.624V220H249.931V218.39H250.085C249.935 218.922 249.627 219.347 249.161 219.664C248.703 219.972 248.167 220.126 247.551 220.126ZM247.845 219.118C248.479 219.118 248.988 218.894 249.371 218.446C249.753 217.998 249.945 217.34 249.945 216.472C249.945 215.604 249.753 214.951 249.371 214.512C248.988 214.073 248.479 213.854 247.845 213.854C247.21 213.854 246.697 214.073 246.305 214.512C245.922 214.951 245.731 215.604 245.731 216.472C245.731 217.34 245.922 217.998 246.305 218.446C246.687 218.894 247.201 219.118 247.845 219.118ZM255.971 220.126C255.234 220.126 254.674 219.925 254.291 219.524C253.918 219.113 253.731 218.497 253.731 217.676V213.938H252.359V212.958H253.731V211.068L255.005 210.718V212.958H256.993V213.938H255.005V217.564C255.005 218.105 255.099 218.493 255.285 218.726C255.481 218.95 255.761 219.062 256.125 219.062C256.312 219.062 256.471 219.048 256.601 219.02C256.741 218.983 256.867 218.941 256.979 218.894V219.944C256.839 220 256.676 220.042 256.489 220.07C256.312 220.107 256.139 220.126 255.971 220.126ZM261.467 220.126C260.347 220.126 259.461 219.804 258.807 219.16C258.163 218.516 257.841 217.629 257.841 216.5C257.841 215.753 257.981 215.109 258.261 214.568C258.551 214.017 258.947 213.593 259.451 213.294C259.955 212.986 260.543 212.832 261.215 212.832C261.859 212.832 262.405 212.972 262.853 213.252C263.301 213.523 263.642 213.91 263.875 214.414C264.109 214.918 264.225 215.515 264.225 216.206V216.626H258.835V215.87H263.357L263.119 216.052C263.119 215.324 262.956 214.759 262.629 214.358C262.312 213.957 261.841 213.756 261.215 213.756C260.534 213.756 260.007 213.994 259.633 214.47C259.26 214.937 259.073 215.576 259.073 216.388V216.514C259.073 217.373 259.283 218.021 259.703 218.46C260.133 218.899 260.725 219.118 261.481 219.118C261.901 219.118 262.293 219.057 262.657 218.936C263.021 218.815 263.371 218.614 263.707 218.334L264.127 219.216C263.81 219.505 263.413 219.729 262.937 219.888C262.471 220.047 261.981 220.126 261.467 220.126ZM272.606 220.126C271.906 220.126 271.299 219.981 270.786 219.692C270.272 219.393 269.871 218.969 269.582 218.418C269.302 217.858 269.162 217.195 269.162 216.43C269.162 215.674 269.306 215.03 269.596 214.498C269.885 213.957 270.286 213.546 270.8 213.266C271.313 212.977 271.915 212.832 272.606 212.832C273.063 212.832 273.506 212.911 273.936 213.07C274.365 213.219 274.715 213.439 274.986 213.728L274.552 214.624C274.281 214.363 273.982 214.171 273.656 214.05C273.329 213.919 273.007 213.854 272.69 213.854C271.999 213.854 271.458 214.078 271.066 214.526C270.674 214.965 270.478 215.604 270.478 216.444C270.478 217.293 270.674 217.947 271.066 218.404C271.458 218.861 271.999 219.09 272.69 219.09C272.998 219.09 273.315 219.029 273.642 218.908C273.968 218.787 274.272 218.595 274.552 218.334L274.986 219.216C274.706 219.515 274.346 219.743 273.908 219.902C273.478 220.051 273.044 220.126 272.606 220.126ZM279.047 220.126C278.197 220.126 277.558 219.897 277.129 219.44C276.709 218.983 276.499 218.278 276.499 217.326V212.958H277.773V217.298C277.773 217.914 277.899 218.367 278.151 218.656C278.403 218.945 278.795 219.09 279.327 219.09C279.905 219.09 280.372 218.899 280.727 218.516C281.091 218.124 281.273 217.606 281.273 216.962V212.958H282.547V220H281.315V218.446H281.497C281.301 218.978 280.988 219.393 280.559 219.692C280.129 219.981 279.625 220.126 279.047 220.126ZM287.069 220.126C286.5 220.126 285.968 220.051 285.473 219.902C284.988 219.753 284.586 219.538 284.269 219.258L284.675 218.376C285.02 218.637 285.398 218.838 285.809 218.978C286.229 219.109 286.658 219.174 287.097 219.174C287.629 219.174 288.03 219.076 288.301 218.88C288.581 218.684 288.721 218.423 288.721 218.096C288.721 217.835 288.632 217.625 288.455 217.466C288.278 217.307 287.998 217.191 287.615 217.116L286.285 216.85C285.688 216.71 285.235 216.486 284.927 216.178C284.628 215.861 284.479 215.455 284.479 214.96C284.479 214.549 284.591 214.185 284.815 213.868C285.039 213.541 285.356 213.289 285.767 213.112C286.187 212.925 286.677 212.832 287.237 212.832C287.75 212.832 288.226 212.907 288.665 213.056C289.113 213.205 289.482 213.425 289.771 213.714L289.351 214.568C289.062 214.316 288.735 214.125 288.371 213.994C288.016 213.854 287.652 213.784 287.279 213.784C286.738 213.784 286.336 213.891 286.075 214.106C285.814 214.311 285.683 214.582 285.683 214.918C285.683 215.17 285.762 215.38 285.921 215.548C286.08 215.707 286.336 215.828 286.691 215.912L288.021 216.178C288.646 216.309 289.118 216.523 289.435 216.822C289.752 217.121 289.911 217.517 289.911 218.012C289.911 218.451 289.79 218.829 289.547 219.146C289.314 219.463 288.982 219.706 288.553 219.874C288.133 220.042 287.638 220.126 287.069 220.126ZM294.212 220.126C293.474 220.126 292.914 219.925 292.532 219.524C292.158 219.113 291.972 218.497 291.972 217.676V213.938H290.6V212.958H291.972V211.068L293.246 210.718V212.958H295.234V213.938H293.246V217.564C293.246 218.105 293.339 218.493 293.526 218.726C293.722 218.95 294.002 219.062 294.366 219.062C294.552 219.062 294.711 219.048 294.842 219.02C294.982 218.983 295.108 218.941 295.22 218.894V219.944C295.08 220 294.916 220.042 294.73 220.07C294.552 220.107 294.38 220.126 294.212 220.126ZM299.47 220.126C298.779 220.126 298.182 219.981 297.678 219.692C297.174 219.393 296.782 218.973 296.502 218.432C296.222 217.881 296.082 217.228 296.082 216.472C296.082 215.725 296.222 215.081 296.502 214.54C296.782 213.989 297.174 213.569 297.678 213.28C298.182 212.981 298.779 212.832 299.47 212.832C300.16 212.832 300.758 212.981 301.262 213.28C301.775 213.569 302.167 213.989 302.438 214.54C302.718 215.081 302.858 215.725 302.858 216.472C302.858 217.228 302.718 217.881 302.438 218.432C302.167 218.973 301.775 219.393 301.262 219.692C300.758 219.981 300.16 220.126 299.47 220.126ZM299.47 219.118C300.104 219.118 300.613 218.894 300.996 218.446C301.378 217.998 301.57 217.34 301.57 216.472C301.57 215.604 301.378 214.951 300.996 214.512C300.613 214.073 300.104 213.854 299.47 213.854C298.826 213.854 298.312 214.073 297.93 214.512C297.556 214.951 297.37 215.604 297.37 216.472C297.37 217.34 297.556 217.998 297.93 218.446C298.312 218.894 298.826 219.118 299.47 219.118ZM304.568 220V214.624C304.568 214.353 304.559 214.078 304.54 213.798C304.521 213.518 304.493 213.238 304.456 212.958H305.688L305.828 214.47H305.66C305.847 213.947 306.145 213.546 306.556 213.266C306.967 212.977 307.457 212.832 308.026 212.832C308.605 212.832 309.081 212.972 309.454 213.252C309.827 213.523 310.079 213.952 310.21 214.54H310C310.177 214.017 310.49 213.602 310.938 213.294C311.386 212.986 311.909 212.832 312.506 212.832C313.281 212.832 313.864 213.061 314.256 213.518C314.648 213.966 314.844 214.666 314.844 215.618V220H313.57V215.688C313.57 215.044 313.458 214.582 313.234 214.302C313.01 214.013 312.655 213.868 312.17 213.868C311.601 213.868 311.153 214.064 310.826 214.456C310.499 214.839 310.336 215.361 310.336 216.024V220H309.062V215.688C309.062 215.044 308.95 214.582 308.726 214.302C308.511 214.013 308.157 213.868 307.662 213.868C307.093 213.868 306.645 214.064 306.318 214.456C306.001 214.839 305.842 215.361 305.842 216.024V220H304.568ZM322.999 220.126C322.429 220.126 321.897 220.051 321.403 219.902C320.917 219.753 320.516 219.538 320.199 219.258L320.605 218.376C320.95 218.637 321.328 218.838 321.739 218.978C322.159 219.109 322.588 219.174 323.027 219.174C323.559 219.174 323.96 219.076 324.231 218.88C324.511 218.684 324.651 218.423 324.651 218.096C324.651 217.835 324.562 217.625 324.385 217.466C324.207 217.307 323.927 217.191 323.545 217.116L322.215 216.85C321.617 216.71 321.165 216.486 320.857 216.178C320.558 215.861 320.409 215.455 320.409 214.96C320.409 214.549 320.521 214.185 320.745 213.868C320.969 213.541 321.286 213.289 321.697 213.112C322.117 212.925 322.607 212.832 323.167 212.832C323.68 212.832 324.156 212.907 324.595 213.056C325.043 213.205 325.411 213.425 325.701 213.714L325.281 214.568C324.991 214.316 324.665 214.125 324.301 213.994C323.946 213.854 323.582 213.784 323.209 213.784C322.667 213.784 322.266 213.891 322.005 214.106C321.743 214.311 321.613 214.582 321.613 214.918C321.613 215.17 321.692 215.38 321.851 215.548C322.009 215.707 322.266 215.828 322.621 215.912L323.951 216.178C324.576 216.309 325.047 216.523 325.365 216.822C325.682 217.121 325.841 217.517 325.841 218.012C325.841 218.451 325.719 218.829 325.477 219.146C325.243 219.463 324.912 219.706 324.483 219.874C324.063 220.042 323.568 220.126 322.999 220.126ZM330.602 220.126C329.902 220.126 329.295 219.981 328.782 219.692C328.268 219.393 327.867 218.969 327.578 218.418C327.298 217.858 327.158 217.195 327.158 216.43C327.158 215.674 327.302 215.03 327.592 214.498C327.881 213.957 328.282 213.546 328.796 213.266C329.309 212.977 329.911 212.832 330.602 212.832C331.059 212.832 331.502 212.911 331.932 213.07C332.361 213.219 332.711 213.439 332.982 213.728L332.548 214.624C332.277 214.363 331.978 214.171 331.652 214.05C331.325 213.919 331.003 213.854 330.686 213.854C329.995 213.854 329.454 214.078 329.062 214.526C328.67 214.965 328.474 215.604 328.474 216.444C328.474 217.293 328.67 217.947 329.062 218.404C329.454 218.861 329.995 219.09 330.686 219.09C330.994 219.09 331.311 219.029 331.638 218.908C331.964 218.787 332.268 218.595 332.548 218.334L332.982 219.216C332.702 219.515 332.342 219.743 331.904 219.902C331.474 220.051 331.04 220.126 330.602 220.126ZM337.606 220.126C336.486 220.126 335.599 219.804 334.946 219.16C334.302 218.516 333.98 217.629 333.98 216.5C333.98 215.753 334.12 215.109 334.4 214.568C334.689 214.017 335.086 213.593 335.59 213.294C336.094 212.986 336.682 212.832 337.354 212.832C337.998 212.832 338.544 212.972 338.992 213.252C339.44 213.523 339.781 213.91 340.014 214.414C340.247 214.918 340.364 215.515 340.364 216.206V216.626H334.974V215.87H339.496L339.258 216.052C339.258 215.324 339.095 214.759 338.768 214.358C338.451 213.957 337.979 213.756 337.354 213.756C336.673 213.756 336.145 213.994 335.772 214.47C335.399 214.937 335.212 215.576 335.212 216.388V216.514C335.212 217.373 335.422 218.021 335.842 218.46C336.271 218.899 336.864 219.118 337.62 219.118C338.04 219.118 338.432 219.057 338.796 218.936C339.16 218.815 339.51 218.614 339.846 218.334L340.266 219.216C339.949 219.505 339.552 219.729 339.076 219.888C338.609 220.047 338.119 220.126 337.606 220.126ZM342.029 220V214.624C342.029 214.353 342.02 214.078 342.001 213.798C341.982 213.518 341.954 213.238 341.917 212.958H343.149L343.289 214.47H343.121C343.336 213.938 343.667 213.532 344.115 213.252C344.563 212.972 345.086 212.832 345.683 212.832C346.514 212.832 347.139 213.061 347.559 213.518C347.979 213.966 348.189 214.666 348.189 215.618V220H346.915V215.688C346.915 215.044 346.789 214.582 346.537 214.302C346.285 214.013 345.893 213.868 345.361 213.868C344.726 213.868 344.222 214.059 343.849 214.442C343.485 214.825 343.303 215.343 343.303 215.996V220H342.029ZM352.961 220.126C352.345 220.126 351.804 219.981 351.337 219.692C350.87 219.403 350.506 218.983 350.245 218.432C349.984 217.881 349.853 217.228 349.853 216.472C349.853 215.716 349.984 215.067 350.245 214.526C350.506 213.975 350.87 213.555 351.337 213.266C351.804 212.977 352.345 212.832 352.961 212.832C353.586 212.832 354.128 212.991 354.585 213.308C355.052 213.616 355.36 214.041 355.509 214.582H355.341L355.495 212.958H356.727C356.699 213.238 356.671 213.518 356.643 213.798C356.624 214.078 356.615 214.353 356.615 214.624V220H355.341V218.39H355.495C355.346 218.922 355.038 219.347 354.571 219.664C354.114 219.972 353.577 220.126 352.961 220.126ZM353.255 219.118C353.89 219.118 354.398 218.894 354.781 218.446C355.164 217.998 355.355 217.34 355.355 216.472C355.355 215.604 355.164 214.951 354.781 214.512C354.398 214.073 353.89 213.854 353.255 213.854C352.62 213.854 352.107 214.073 351.715 214.512C351.332 214.951 351.141 215.604 351.141 216.472C351.141 217.34 351.332 217.998 351.715 218.446C352.098 218.894 352.611 219.118 353.255 219.118ZM358.736 220V214.68C358.736 214.4 358.726 214.115 358.708 213.826C358.698 213.527 358.675 213.238 358.638 212.958H359.87L360.024 214.722L359.814 214.736C359.907 214.307 360.066 213.952 360.29 213.672C360.523 213.383 360.798 213.173 361.116 213.042C361.442 212.902 361.778 212.832 362.124 212.832C362.273 212.832 362.399 212.837 362.502 212.846C362.604 212.855 362.707 212.879 362.81 212.916L362.782 214.05C362.642 213.994 362.511 213.961 362.39 213.952C362.278 213.933 362.138 213.924 361.97 213.924C361.559 213.924 361.204 214.017 360.906 214.204C360.616 214.391 360.392 214.638 360.234 214.946C360.084 215.254 360.01 215.585 360.01 215.94V220H358.736ZM363.931 220V212.958H365.205V220H363.931ZM363.819 211.418V210.046H365.331V211.418H363.819ZM370.303 220.126C369.613 220.126 369.015 219.981 368.511 219.692C368.007 219.393 367.615 218.973 367.335 218.432C367.055 217.881 366.915 217.228 366.915 216.472C366.915 215.725 367.055 215.081 367.335 214.54C367.615 213.989 368.007 213.569 368.511 213.28C369.015 212.981 369.613 212.832 370.303 212.832C370.994 212.832 371.591 212.981 372.095 213.28C372.609 213.569 373.001 213.989 373.271 214.54C373.551 215.081 373.691 215.725 373.691 216.472C373.691 217.228 373.551 217.881 373.271 218.432C373.001 218.973 372.609 219.393 372.095 219.692C371.591 219.981 370.994 220.126 370.303 220.126ZM370.303 219.118C370.938 219.118 371.447 218.894 371.829 218.446C372.212 217.998 372.403 217.34 372.403 216.472C372.403 215.604 372.212 214.951 371.829 214.512C371.447 214.073 370.938 213.854 370.303 213.854C369.659 213.854 369.146 214.073 368.763 214.512C368.39 214.951 368.203 215.604 368.203 216.472C368.203 217.34 368.39 217.998 368.763 218.446C369.146 218.894 369.659 219.118 370.303 219.118Z" fill="#1F2937"/>
</g>
</g>
<g opacity="0.4">
<path d="M131.5 73H-428.5C-434.023 73 -438.5 77.4772 -438.5 83V103C-438.5 108.523 -434.023 113 -428.5 113H131.5C137.023 113 141.5 108.523 141.5 103V83C141.5 77.4772 137.023 73 131.5 73Z" fill="#EBEBEB"/>
</g>
<mask id="mask1_5041_67927" style="mask-type:luminance" maskUnits="userSpaceOnUse" x="181" y="73" width="477" height="40">
<path d="M657.5 73H181.5V113H657.5V73Z" fill="white"/>
</mask>
<g mask="url(#mask1_5041_67927)">
<path d="M647.5 73H191.5C185.977 73 181.5 77.4772 181.5 83V103C181.5 108.523 185.977 113 191.5 113H647.5C653.023 113 657.5 108.523 657.5 103V83C657.5 77.4772 653.023 73 647.5 73Z" fill="#F5F5F5"/>
<path d="M391.5 77.5H193.5C189.358 77.5 186 80.8579 186 85V101C186 105.142 189.358 108.5 193.5 108.5H391.5C395.642 108.5 399 105.142 399 101V85C399 80.8579 395.642 77.5 391.5 77.5Z" fill="white"/>
<path d="M391.5 77.5H193.5C189.358 77.5 186 80.8579 186 85V101C186 105.142 189.358 108.5 193.5 108.5H391.5C395.642 108.5 399 105.142 399 101V85C399 80.8579 395.642 77.5 391.5 77.5Z" stroke="#E4E4E7"/>
<path d="M201.328 98.1076C200.648 98.1076 200.036 98.0196 199.492 97.8436C198.948 97.6676 198.476 97.4196 198.076 97.0996L198.46 96.2116C198.74 96.4196 199.024 96.5956 199.312 96.7396C199.6 96.8756 199.908 96.9796 200.236 97.0516C200.572 97.1156 200.936 97.1476 201.328 97.1476C202.024 97.1476 202.536 97.0236 202.864 96.7756C203.2 96.5196 203.368 96.1836 203.368 95.7676C203.368 95.4076 203.252 95.1316 203.02 94.9396C202.788 94.7476 202.384 94.5956 201.808 94.4836L200.524 94.2196C199.748 94.0596 199.168 93.7996 198.784 93.4396C198.408 93.0716 198.22 92.5756 198.22 91.9516C198.22 91.4476 198.352 91.0076 198.616 90.6316C198.888 90.2476 199.26 89.9516 199.732 89.7436C200.212 89.5356 200.772 89.4316 201.412 89.4316C202.004 89.4316 202.552 89.5196 203.056 89.6956C203.56 89.8716 203.984 90.1316 204.328 90.4756L203.944 91.3276C203.584 90.9996 203.196 90.7636 202.78 90.6196C202.372 90.4676 201.908 90.3916 201.388 90.3916C200.756 90.3916 200.256 90.5276 199.888 90.7996C199.52 91.0716 199.336 91.4396 199.336 91.9036C199.336 92.2716 199.452 92.5636 199.684 92.7796C199.916 92.9876 200.3 93.1476 200.836 93.2596L202.12 93.5116C202.936 93.6716 203.532 93.9236 203.908 94.2676C204.292 94.6116 204.484 95.0876 204.484 95.6956C204.484 96.1756 204.356 96.5996 204.1 96.9676C203.844 97.3276 203.48 97.6076 203.008 97.8076C202.536 98.0076 201.976 98.1076 201.328 98.1076ZM208.539 98.1076C207.939 98.1076 207.419 97.9836 206.979 97.7356C206.539 97.4796 206.195 97.1156 205.947 96.6436C205.707 96.1636 205.587 95.5956 205.587 94.9396C205.587 94.2916 205.711 93.7396 205.959 93.2836C206.207 92.8196 206.551 92.4676 206.991 92.2276C207.431 91.9796 207.947 91.8556 208.539 91.8556C208.931 91.8556 209.311 91.9236 209.679 92.0596C210.047 92.1876 210.347 92.3756 210.579 92.6236L210.207 93.3916C209.975 93.1676 209.719 93.0036 209.439 92.8996C209.159 92.7876 208.883 92.7316 208.611 92.7316C208.019 92.7316 207.555 92.9236 207.219 93.3076C206.883 93.6836 206.715 94.2316 206.715 94.9516C206.715 95.6796 206.883 96.2396 207.219 96.6316C207.555 97.0236 208.019 97.2196 208.611 97.2196C208.875 97.2196 209.147 97.1676 209.427 97.0636C209.707 96.9596 209.967 96.7956 210.207 96.5716L210.579 97.3276C210.339 97.5836 210.031 97.7796 209.655 97.9156C209.287 98.0436 208.915 98.1076 208.539 98.1076ZM214.543 98.1076C213.583 98.1076 212.823 97.8316 212.263 97.2796C211.711 96.7276 211.435 95.9676 211.435 94.9996C211.435 94.3596 211.555 93.8076 211.795 93.3436C212.043 92.8716 212.383 92.5076 212.815 92.2516C213.247 91.9876 213.751 91.8556 214.327 91.8556C214.879 91.8556 215.347 91.9756 215.731 92.2156C216.115 92.4476 216.407 92.7796 216.607 93.2116C216.807 93.6436 216.907 94.1556 216.907 94.7476V95.1076H212.287V94.4596H216.163L215.959 94.6156C215.959 93.9916 215.819 93.5076 215.539 93.1636C215.267 92.8196 214.863 92.6476 214.327 92.6476C213.743 92.6476 213.291 92.8516 212.971 93.2596C212.651 93.6596 212.491 94.2076 212.491 94.9036V95.0116C212.491 95.7476 212.671 96.3036 213.031 96.6796C213.399 97.0556 213.907 97.2436 214.555 97.2436C214.915 97.2436 215.251 97.1916 215.563 97.0876C215.875 96.9836 216.175 96.8116 216.463 96.5716L216.823 97.3276C216.551 97.5756 216.211 97.7676 215.803 97.9036C215.403 98.0396 214.983 98.1076 214.543 98.1076ZM218.334 97.9996V93.3916C218.334 93.1596 218.326 92.9236 218.31 92.6836C218.294 92.4436 218.27 92.2036 218.238 91.9636H219.294L219.414 93.2596H219.27C219.454 92.8036 219.738 92.4556 220.122 92.2156C220.506 91.9756 220.954 91.8556 221.466 91.8556C222.178 91.8556 222.714 92.0516 223.074 92.4436C223.434 92.8276 223.614 93.4276 223.614 94.2436V97.9996H222.522V94.3036C222.522 93.7516 222.414 93.3556 222.198 93.1156C221.982 92.8676 221.646 92.7436 221.19 92.7436C220.646 92.7436 220.214 92.9076 219.894 93.2356C219.582 93.5636 219.426 94.0076 219.426 94.5676V97.9996H218.334ZM227.704 98.1076C227.176 98.1076 226.712 97.9836 226.312 97.7356C225.912 97.4876 225.6 97.1276 225.376 96.6556C225.152 96.1836 225.04 95.6236 225.04 94.9756C225.04 94.3276 225.152 93.7716 225.376 93.3076C225.6 92.8356 225.912 92.4756 226.312 92.2276C226.712 91.9796 227.176 91.8556 227.704 91.8556C228.24 91.8556 228.704 91.9916 229.096 92.2636C229.496 92.5276 229.76 92.8916 229.888 93.3556H229.744L229.876 91.9636H230.932C230.908 92.2036 230.884 92.4436 230.86 92.6836C230.844 92.9236 230.836 93.1596 230.836 93.3916V97.9996H229.744V96.6196H229.876C229.748 97.0756 229.484 97.4396 229.084 97.7116C228.692 97.9756 228.232 98.1076 227.704 98.1076ZM227.956 97.2436C228.5 97.2436 228.936 97.0516 229.264 96.6676C229.592 96.2836 229.756 95.7196 229.756 94.9756C229.756 94.2316 229.592 93.6716 229.264 93.2956C228.936 92.9196 228.5 92.7316 227.956 92.7316C227.412 92.7316 226.972 92.9196 226.636 93.2956C226.308 93.6716 226.144 94.2316 226.144 94.9756C226.144 95.7196 226.308 96.2836 226.636 96.6676C226.964 97.0516 227.404 97.2436 227.956 97.2436ZM232.654 97.9996V93.4396C232.654 93.1996 232.646 92.9556 232.63 92.7076C232.622 92.4516 232.602 92.2036 232.57 91.9636H233.626L233.758 93.4756L233.578 93.4876C233.658 93.1196 233.794 92.8156 233.986 92.5756C234.186 92.3276 234.422 92.1476 234.694 92.0356C234.974 91.9156 235.262 91.8556 235.558 91.8556C235.686 91.8556 235.794 91.8596 235.882 91.8676C235.97 91.8756 236.058 91.8956 236.146 91.9276L236.122 92.8996C236.002 92.8516 235.89 92.8236 235.786 92.8156C235.69 92.7996 235.57 92.7916 235.426 92.7916C235.074 92.7916 234.77 92.8716 234.514 93.0316C234.266 93.1916 234.074 93.4036 233.938 93.6676C233.81 93.9316 233.746 94.2156 233.746 94.5196V97.9996H232.654ZM237.107 97.9996V91.9636H238.199V97.9996H237.107ZM237.011 90.6436V89.4676H238.307V90.6436H237.011ZM242.569 98.1076C241.977 98.1076 241.465 97.9836 241.033 97.7356C240.601 97.4796 240.265 97.1196 240.025 96.6556C239.785 96.1836 239.665 95.6236 239.665 94.9756C239.665 94.3356 239.785 93.7836 240.025 93.3196C240.265 92.8476 240.601 92.4876 241.033 92.2396C241.465 91.9836 241.977 91.8556 242.569 91.8556C243.161 91.8556 243.673 91.9836 244.105 92.2396C244.545 92.4876 244.881 92.8476 245.113 93.3196C245.353 93.7836 245.473 94.3356 245.473 94.9756C245.473 95.6236 245.353 96.1836 245.113 96.6556C244.881 97.1196 244.545 97.4796 244.105 97.7356C243.673 97.9836 243.161 98.1076 242.569 98.1076ZM242.569 97.2436C243.113 97.2436 243.549 97.0516 243.877 96.6676C244.205 96.2836 244.369 95.7196 244.369 94.9756C244.369 94.2316 244.205 93.6716 243.877 93.2956C243.549 92.9196 243.113 92.7316 242.569 92.7316C242.017 92.7316 241.577 92.9196 241.249 93.2956C240.929 93.6716 240.769 94.2316 240.769 94.9756C240.769 95.7196 240.929 96.2836 241.249 96.6676C241.577 97.0516 242.017 97.2436 242.569 97.2436ZM246.759 93.2836V91.9636H248.091V93.2836H246.759ZM246.759 97.9996V96.6676H248.091V97.9996H246.759Z" fill="#9CA3AF"/>
<path d="M253.023 97.9996V89.5396H256.467C257.379 89.5396 258.079 89.7316 258.567 90.1156C259.055 90.4996 259.299 91.0396 259.299 91.7356C259.299 92.2636 259.139 92.7036 258.819 93.0556C258.507 93.4076 258.079 93.6436 257.535 93.7636V93.5836C258.159 93.6556 258.643 93.8716 258.987 94.2316C259.339 94.5916 259.515 95.0676 259.515 95.6596C259.515 96.4116 259.263 96.9916 258.759 97.3996C258.255 97.7996 257.543 97.9996 256.623 97.9996H253.023ZM254.103 97.1116H256.515C257.107 97.1116 257.571 96.9996 257.907 96.7756C258.251 96.5436 258.423 96.1636 258.423 95.6356C258.423 95.0996 258.251 94.7196 257.907 94.4956C257.571 94.2716 257.107 94.1596 256.515 94.1596H254.103V97.1116ZM254.103 93.2716H256.311C256.943 93.2716 257.415 93.1516 257.727 92.9116C258.039 92.6636 258.195 92.3076 258.195 91.8436C258.195 91.3796 258.039 91.0276 257.727 90.7876C257.415 90.5396 256.943 90.4156 256.311 90.4156H254.103V93.2716ZM263.399 98.1076C262.871 98.1076 262.407 97.9836 262.007 97.7356C261.607 97.4876 261.295 97.1276 261.071 96.6556C260.847 96.1836 260.735 95.6236 260.735 94.9756C260.735 94.3276 260.847 93.7716 261.071 93.3076C261.295 92.8356 261.607 92.4756 262.007 92.2276C262.407 91.9796 262.871 91.8556 263.399 91.8556C263.935 91.8556 264.399 91.9916 264.791 92.2636C265.191 92.5276 265.455 92.8916 265.583 93.3556H265.439L265.571 91.9636H266.627C266.603 92.2036 266.579 92.4436 266.555 92.6836C266.539 92.9236 266.531 93.1596 266.531 93.3916V97.9996H265.439V96.6196H265.571C265.443 97.0756 265.179 97.4396 264.779 97.7116C264.387 97.9756 263.927 98.1076 263.399 98.1076ZM263.651 97.2436C264.195 97.2436 264.631 97.0516 264.959 96.6676C265.287 96.2836 265.451 95.7196 265.451 94.9756C265.451 94.2316 265.287 93.6716 264.959 93.2956C264.631 92.9196 264.195 92.7316 263.651 92.7316C263.107 92.7316 262.667 92.9196 262.331 93.2956C262.003 93.6716 261.839 94.2316 261.839 94.9756C261.839 95.7196 262.003 96.2836 262.331 96.6676C262.659 97.0516 263.099 97.2436 263.651 97.2436ZM270.4 98.1076C269.912 98.1076 269.456 98.0436 269.032 97.9156C268.616 97.7876 268.272 97.6036 268 97.3636L268.348 96.6076C268.644 96.8316 268.968 97.0036 269.32 97.1236C269.68 97.2356 270.048 97.2916 270.424 97.2916C270.88 97.2916 271.224 97.2076 271.456 97.0396C271.696 96.8716 271.816 96.6476 271.816 96.3676C271.816 96.1436 271.74 95.9636 271.588 95.8276C271.436 95.6916 271.196 95.5916 270.868 95.5276L269.728 95.2996C269.216 95.1796 268.828 94.9876 268.564 94.7236C268.308 94.4516 268.18 94.1036 268.18 93.6796C268.18 93.3276 268.276 93.0156 268.468 92.7436C268.66 92.4636 268.932 92.2476 269.284 92.0956C269.644 91.9356 270.064 91.8556 270.544 91.8556C270.984 91.8556 271.392 91.9196 271.768 92.0476C272.152 92.1756 272.468 92.3636 272.716 92.6116L272.356 93.3436C272.108 93.1276 271.828 92.9636 271.516 92.8516C271.212 92.7316 270.9 92.6716 270.58 92.6716C270.116 92.6716 269.772 92.7636 269.548 92.9476C269.324 93.1236 269.212 93.3556 269.212 93.6436C269.212 93.8596 269.28 94.0396 269.416 94.1836C269.552 94.3196 269.772 94.4236 270.076 94.4956L271.216 94.7236C271.752 94.8356 272.156 95.0196 272.428 95.2756C272.7 95.5316 272.836 95.8716 272.836 96.2956C272.836 96.6716 272.732 96.9956 272.524 97.2676C272.324 97.5396 272.04 97.7476 271.672 97.8916C271.312 98.0356 270.888 98.1076 270.4 98.1076ZM277.073 98.1076C276.113 98.1076 275.353 97.8316 274.793 97.2796C274.241 96.7276 273.965 95.9676 273.965 94.9996C273.965 94.3596 274.085 93.8076 274.325 93.3436C274.573 92.8716 274.913 92.5076 275.345 92.2516C275.777 91.9876 276.281 91.8556 276.857 91.8556C277.409 91.8556 277.877 91.9756 278.261 92.2156C278.645 92.4476 278.937 92.7796 279.137 93.2116C279.337 93.6436 279.437 94.1556 279.437 94.7476V95.1076H274.817V94.4596H278.693L278.489 94.6156C278.489 93.9916 278.349 93.5076 278.069 93.1636C277.797 92.8196 277.393 92.6476 276.857 92.6476C276.273 92.6476 275.821 92.8516 275.501 93.2596C275.181 93.6596 275.021 94.2076 275.021 94.9036V95.0116C275.021 95.7476 275.201 96.3036 275.561 96.6796C275.929 97.0556 276.437 97.2436 277.085 97.2436C277.445 97.2436 277.781 97.1916 278.093 97.0876C278.405 96.9836 278.705 96.8116 278.993 96.5716L279.353 97.3276C279.081 97.5756 278.741 97.7676 278.333 97.9036C277.933 98.0396 277.513 98.1076 277.073 98.1076ZM286.944 98.1076C286.264 98.1076 285.652 98.0196 285.108 97.8436C284.564 97.6676 284.092 97.4196 283.692 97.0996L284.076 96.2116C284.356 96.4196 284.64 96.5956 284.928 96.7396C285.216 96.8756 285.524 96.9796 285.852 97.0516C286.188 97.1156 286.552 97.1476 286.944 97.1476C287.64 97.1476 288.152 97.0236 288.48 96.7756C288.816 96.5196 288.984 96.1836 288.984 95.7676C288.984 95.4076 288.868 95.1316 288.636 94.9396C288.404 94.7476 288 94.5956 287.424 94.4836L286.14 94.2196C285.364 94.0596 284.784 93.7996 284.4 93.4396C284.024 93.0716 283.836 92.5756 283.836 91.9516C283.836 91.4476 283.968 91.0076 284.232 90.6316C284.504 90.2476 284.876 89.9516 285.348 89.7436C285.828 89.5356 286.388 89.4316 287.028 89.4316C287.62 89.4316 288.168 89.5196 288.672 89.6956C289.176 89.8716 289.6 90.1316 289.944 90.4756L289.56 91.3276C289.2 90.9996 288.812 90.7636 288.396 90.6196C287.988 90.4676 287.524 90.3916 287.004 90.3916C286.372 90.3916 285.872 90.5276 285.504 90.7996C285.136 91.0716 284.952 91.4396 284.952 91.9036C284.952 92.2716 285.068 92.5636 285.3 92.7796C285.532 92.9876 285.916 93.1476 286.452 93.2596L287.736 93.5116C288.552 93.6716 289.148 93.9236 289.524 94.2676C289.908 94.6116 290.1 95.0876 290.1 95.6956C290.1 96.1756 289.972 96.5996 289.716 96.9676C289.46 97.3276 289.096 97.6076 288.624 97.8076C288.152 98.0076 287.592 98.1076 286.944 98.1076ZM294.155 98.1076C293.555 98.1076 293.035 97.9836 292.595 97.7356C292.155 97.4796 291.811 97.1156 291.563 96.6436C291.323 96.1636 291.203 95.5956 291.203 94.9396C291.203 94.2916 291.327 93.7396 291.575 93.2836C291.823 92.8196 292.167 92.4676 292.607 92.2276C293.047 91.9796 293.563 91.8556 294.155 91.8556C294.547 91.8556 294.927 91.9236 295.295 92.0596C295.663 92.1876 295.963 92.3756 296.195 92.6236L295.823 93.3916C295.591 93.1676 295.335 93.0036 295.055 92.8996C294.775 92.7876 294.499 92.7316 294.227 92.7316C293.635 92.7316 293.171 92.9236 292.835 93.3076C292.499 93.6836 292.331 94.2316 292.331 94.9516C292.331 95.6796 292.499 96.2396 292.835 96.6316C293.171 97.0236 293.635 97.2196 294.227 97.2196C294.491 97.2196 294.763 97.1676 295.043 97.0636C295.323 96.9596 295.583 96.7956 295.823 96.5716L296.195 97.3276C295.955 97.5836 295.647 97.7796 295.271 97.9156C294.903 98.0436 294.531 98.1076 294.155 98.1076ZM300.159 98.1076C299.199 98.1076 298.439 97.8316 297.879 97.2796C297.327 96.7276 297.051 95.9676 297.051 94.9996C297.051 94.3596 297.171 93.8076 297.411 93.3436C297.659 92.8716 297.999 92.5076 298.431 92.2516C298.863 91.9876 299.367 91.8556 299.943 91.8556C300.495 91.8556 300.963 91.9756 301.347 92.2156C301.731 92.4476 302.023 92.7796 302.223 93.2116C302.423 93.6436 302.523 94.1556 302.523 94.7476V95.1076H297.903V94.4596H301.779L301.575 94.6156C301.575 93.9916 301.435 93.5076 301.155 93.1636C300.883 92.8196 300.479 92.6476 299.943 92.6476C299.359 92.6476 298.907 92.8516 298.587 93.2596C298.267 93.6596 298.107 94.2076 298.107 94.9036V95.0116C298.107 95.7476 298.287 96.3036 298.647 96.6796C299.015 97.0556 299.523 97.2436 300.171 97.2436C300.531 97.2436 300.867 97.1916 301.179 97.0876C301.491 96.9836 301.791 96.8116 302.079 96.5716L302.439 97.3276C302.167 97.5756 301.827 97.7676 301.419 97.9036C301.019 98.0396 300.599 98.1076 300.159 98.1076ZM303.95 97.9996V93.3916C303.95 93.1596 303.942 92.9236 303.926 92.6836C303.91 92.4436 303.886 92.2036 303.854 91.9636H304.91L305.03 93.2596H304.886C305.07 92.8036 305.354 92.4556 305.738 92.2156C306.122 91.9756 306.57 91.8556 307.082 91.8556C307.794 91.8556 308.33 92.0516 308.69 92.4436C309.05 92.8276 309.23 93.4276 309.23 94.2436V97.9996H308.138V94.3036C308.138 93.7516 308.03 93.3556 307.814 93.1156C307.598 92.8676 307.262 92.7436 306.806 92.7436C306.262 92.7436 305.83 92.9076 305.51 93.2356C305.198 93.5636 305.042 94.0076 305.042 94.5676V97.9996H303.95ZM313.32 98.1076C312.792 98.1076 312.328 97.9836 311.928 97.7356C311.528 97.4876 311.216 97.1276 310.992 96.6556C310.768 96.1836 310.656 95.6236 310.656 94.9756C310.656 94.3276 310.768 93.7716 310.992 93.3076C311.216 92.8356 311.528 92.4756 311.928 92.2276C312.328 91.9796 312.792 91.8556 313.32 91.8556C313.856 91.8556 314.32 91.9916 314.712 92.2636C315.112 92.5276 315.376 92.8916 315.504 93.3556H315.36L315.492 91.9636H316.548C316.524 92.2036 316.5 92.4436 316.476 92.6836C316.46 92.9236 316.452 93.1596 316.452 93.3916V97.9996H315.36V96.6196H315.492C315.364 97.0756 315.1 97.4396 314.7 97.7116C314.308 97.9756 313.848 98.1076 313.32 98.1076ZM313.572 97.2436C314.116 97.2436 314.552 97.0516 314.88 96.6676C315.208 96.2836 315.372 95.7196 315.372 94.9756C315.372 94.2316 315.208 93.6716 314.88 93.2956C314.552 92.9196 314.116 92.7316 313.572 92.7316C313.028 92.7316 312.588 92.9196 312.252 93.2956C311.924 93.6716 311.76 94.2316 311.76 94.9756C311.76 95.7196 311.924 96.2836 312.252 96.6676C312.58 97.0516 313.02 97.2436 313.572 97.2436ZM318.27 97.9996V93.4396C318.27 93.1996 318.262 92.9556 318.246 92.7076C318.238 92.4516 318.218 92.2036 318.186 91.9636H319.242L319.374 93.4756L319.194 93.4876C319.274 93.1196 319.41 92.8156 319.602 92.5756C319.802 92.3276 320.038 92.1476 320.31 92.0356C320.59 91.9156 320.878 91.8556 321.174 91.8556C321.302 91.8556 321.41 91.8596 321.498 91.8676C321.586 91.8756 321.674 91.8956 321.762 91.9276L321.738 92.8996C321.618 92.8516 321.506 92.8236 321.402 92.8156C321.306 92.7996 321.186 92.7916 321.042 92.7916C320.69 92.7916 320.386 92.8716 320.13 93.0316C319.882 93.1916 319.69 93.4036 319.554 93.6676C319.426 93.9316 319.362 94.2156 319.362 94.5196V97.9996H318.27ZM322.724 97.9996V91.9636H323.816V97.9996H322.724ZM322.628 90.6436V89.4676H323.924V90.6436H322.628ZM328.185 98.1076C327.593 98.1076 327.081 97.9836 326.649 97.7356C326.217 97.4796 325.881 97.1196 325.641 96.6556C325.401 96.1836 325.281 95.6236 325.281 94.9756C325.281 94.3356 325.401 93.7836 325.641 93.3196C325.881 92.8476 326.217 92.4876 326.649 92.2396C327.081 91.9836 327.593 91.8556 328.185 91.8556C328.777 91.8556 329.289 91.9836 329.721 92.2396C330.161 92.4876 330.497 92.8476 330.729 93.3196C330.969 93.7836 331.089 94.3356 331.089 94.9756C331.089 95.6236 330.969 96.1836 330.729 96.6556C330.497 97.1196 330.161 97.4796 329.721 97.7356C329.289 97.9836 328.777 98.1076 328.185 98.1076ZM328.185 97.2436C328.729 97.2436 329.165 97.0516 329.493 96.6676C329.821 96.2836 329.985 95.7196 329.985 94.9756C329.985 94.2316 329.821 93.6716 329.493 93.2956C329.165 92.9196 328.729 92.7316 328.185 92.7316C327.633 92.7316 327.193 92.9196 326.865 93.2956C326.545 93.6716 326.385 94.2316 326.385 94.9756C326.385 95.7196 326.545 96.2836 326.865 96.6676C327.193 97.0516 327.633 97.2436 328.185 97.2436Z" fill="#374151"/>
<path d="M383.5 95L379.5 91L375.5 95" stroke="#27272A" stroke-width="1.2" stroke-linecap="round" stroke-linejoin="round"/>
<path d="M609.5 77.5H411.5C407.358 77.5 404 80.8579 404 85V101C404 105.142 407.358 108.5 411.5 108.5H609.5C613.642 108.5 617 105.142 617 101V85C617 80.8579 613.642 77.5 609.5 77.5Z" fill="white"/>
<path d="M609.5 77.5H411.5C407.358 77.5 404 80.8579 404 85V101C404 105.142 407.358 108.5 411.5 108.5H609.5C613.642 108.5 617 105.142 617 101V85C617 80.8579 613.642 77.5 609.5 77.5Z" stroke="#F3F4F6"/>
<path d="M416.531 98V89.54H419.975C420.887 89.54 421.587 89.732 422.075 90.116C422.563 90.5 422.807 91.04 422.807 91.736C422.807 92.264 422.647 92.704 422.327 93.056C422.015 93.408 421.587 93.644 421.043 93.764V93.584C421.667 93.656 422.151 93.872 422.495 94.232C422.847 94.592 423.023 95.068 423.023 95.66C423.023 96.412 422.771 96.992 422.267 97.4C421.763 97.8 421.051 98 420.131 98H416.531ZM417.611 97.112H420.023C420.615 97.112 421.079 97 421.415 96.776C421.759 96.544 421.931 96.164 421.931 95.636C421.931 95.1 421.759 94.72 421.415 94.496C421.079 94.272 420.615 94.16 420.023 94.16H417.611V97.112ZM417.611 93.272H419.819C420.451 93.272 420.923 93.152 421.235 92.912C421.547 92.664 421.703 92.308 421.703 91.844C421.703 91.38 421.547 91.028 421.235 90.788C420.923 90.54 420.451 90.416 419.819 90.416H417.611V93.272ZM427.35 98.108C426.39 98.108 425.63 97.832 425.07 97.28C424.518 96.728 424.242 95.968 424.242 95C424.242 94.36 424.362 93.808 424.602 93.344C424.85 92.872 425.19 92.508 425.622 92.252C426.054 91.988 426.558 91.856 427.134 91.856C427.686 91.856 428.154 91.976 428.538 92.216C428.922 92.448 429.214 92.78 429.414 93.212C429.614 93.644 429.714 94.156 429.714 94.748V95.108H425.094V94.46H428.97L428.766 94.616C428.766 93.992 428.626 93.508 428.346 93.164C428.074 92.82 427.67 92.648 427.134 92.648C426.55 92.648 426.098 92.852 425.778 93.26C425.458 93.66 425.298 94.208 425.298 94.904V95.012C425.298 95.748 425.478 96.304 425.838 96.68C426.206 97.056 426.714 97.244 427.362 97.244C427.722 97.244 428.058 97.192 428.37 97.088C428.682 96.984 428.982 96.812 429.27 96.572L429.63 97.328C429.358 97.576 429.018 97.768 428.61 97.904C428.21 98.04 427.79 98.108 427.35 98.108ZM431.141 98V93.392C431.141 93.16 431.133 92.924 431.117 92.684C431.101 92.444 431.077 92.204 431.045 91.964H432.101L432.221 93.26H432.077C432.261 92.804 432.545 92.456 432.929 92.216C433.313 91.976 433.761 91.856 434.273 91.856C434.985 91.856 435.521 92.052 435.881 92.444C436.241 92.828 436.421 93.428 436.421 94.244V98H435.329V94.304C435.329 93.752 435.221 93.356 435.005 93.116C434.789 92.868 434.453 92.744 433.997 92.744C433.453 92.744 433.021 92.908 432.701 93.236C432.389 93.564 432.233 94.008 432.233 94.568V98H431.141ZM440.8 98.108C440.2 98.108 439.68 97.984 439.24 97.736C438.8 97.48 438.456 97.116 438.208 96.644C437.968 96.164 437.848 95.596 437.848 94.94C437.848 94.292 437.972 93.74 438.22 93.284C438.468 92.82 438.812 92.468 439.252 92.228C439.692 91.98 440.208 91.856 440.8 91.856C441.192 91.856 441.572 91.924 441.94 92.06C442.308 92.188 442.608 92.376 442.84 92.624L442.468 93.392C442.236 93.168 441.98 93.004 441.7 92.9C441.42 92.788 441.144 92.732 440.872 92.732C440.28 92.732 439.816 92.924 439.48 93.308C439.144 93.684 438.976 94.232 438.976 94.952C438.976 95.68 439.144 96.24 439.48 96.632C439.816 97.024 440.28 97.22 440.872 97.22C441.136 97.22 441.408 97.168 441.688 97.064C441.968 96.96 442.228 96.796 442.468 96.572L442.84 97.328C442.6 97.584 442.292 97.78 441.916 97.916C441.548 98.044 441.176 98.108 440.8 98.108ZM444.173 98V89.168H445.265V93.272H445.109C445.285 92.808 445.569 92.456 445.961 92.216C446.353 91.976 446.805 91.856 447.317 91.856C448.045 91.856 448.581 92.052 448.925 92.444C449.277 92.836 449.453 93.428 449.453 94.22V98H448.361V94.28C448.361 93.744 448.257 93.356 448.049 93.116C447.841 92.868 447.501 92.744 447.029 92.744C446.501 92.744 446.073 92.908 445.745 93.236C445.425 93.564 445.265 94 445.265 94.544V98H444.173ZM451.239 98V93.392C451.239 93.16 451.231 92.924 451.215 92.684C451.199 92.444 451.175 92.204 451.143 91.964H452.199L452.319 93.26H452.175C452.335 92.812 452.591 92.468 452.943 92.228C453.295 91.98 453.715 91.856 454.203 91.856C454.699 91.856 455.107 91.976 455.427 92.216C455.747 92.448 455.963 92.816 456.075 93.32H455.895C456.047 92.872 456.315 92.516 456.699 92.252C457.083 91.988 457.531 91.856 458.043 91.856C458.707 91.856 459.207 92.052 459.543 92.444C459.879 92.828 460.047 93.428 460.047 94.244V98H458.955V94.304C458.955 93.752 458.859 93.356 458.667 93.116C458.475 92.868 458.171 92.744 457.755 92.744C457.267 92.744 456.883 92.912 456.603 93.248C456.323 93.576 456.183 94.024 456.183 94.592V98H455.091V94.304C455.091 93.752 454.995 93.356 454.803 93.116C454.619 92.868 454.315 92.744 453.891 92.744C453.403 92.744 453.019 92.912 452.739 93.248C452.467 93.576 452.331 94.024 452.331 94.592V98H451.239ZM464.137 98.108C463.609 98.108 463.145 97.984 462.745 97.736C462.345 97.488 462.033 97.128 461.809 96.656C461.585 96.184 461.473 95.624 461.473 94.976C461.473 94.328 461.585 93.772 461.809 93.308C462.033 92.836 462.345 92.476 462.745 92.228C463.145 91.98 463.609 91.856 464.137 91.856C464.673 91.856 465.137 91.992 465.529 92.264C465.929 92.528 466.193 92.892 466.321 93.356H466.177L466.309 91.964H467.365C467.341 92.204 467.317 92.444 467.293 92.684C467.277 92.924 467.269 93.16 467.269 93.392V98H466.177V96.62H466.309C466.181 97.076 465.917 97.44 465.517 97.712C465.125 97.976 464.665 98.108 464.137 98.108ZM464.389 97.244C464.933 97.244 465.369 97.052 465.697 96.668C466.025 96.284 466.189 95.72 466.189 94.976C466.189 94.232 466.025 93.672 465.697 93.296C465.369 92.92 464.933 92.732 464.389 92.732C463.845 92.732 463.405 92.92 463.069 93.296C462.741 93.672 462.577 94.232 462.577 94.976C462.577 95.72 462.741 96.284 463.069 96.668C463.397 97.052 463.837 97.244 464.389 97.244ZM469.087 98V93.44C469.087 93.2 469.079 92.956 469.063 92.708C469.055 92.452 469.035 92.204 469.003 91.964H470.059L470.191 93.476L470.011 93.488C470.091 93.12 470.227 92.816 470.419 92.576C470.619 92.328 470.855 92.148 471.127 92.036C471.407 91.916 471.695 91.856 471.991 91.856C472.119 91.856 472.227 91.86 472.315 91.868C472.403 91.876 472.491 91.896 472.579 91.928L472.555 92.9C472.435 92.852 472.323 92.824 472.219 92.816C472.123 92.8 472.003 92.792 471.859 92.792C471.507 92.792 471.203 92.872 470.947 93.032C470.699 93.192 470.507 93.404 470.371 93.668C470.243 93.932 470.179 94.216 470.179 94.52V98H469.087ZM473.54 98V89.168H474.632V94.628H474.656L477.38 91.964H478.736L475.496 95.132L475.508 94.616L479.024 98H477.632L474.656 95.192H474.632V98H473.54ZM485.901 98.108C485.221 98.108 484.609 98.02 484.065 97.844C483.521 97.668 483.049 97.42 482.649 97.1L483.033 96.212C483.313 96.42 483.597 96.596 483.885 96.74C484.173 96.876 484.481 96.98 484.809 97.052C485.145 97.116 485.509 97.148 485.901 97.148C486.597 97.148 487.109 97.024 487.437 96.776C487.773 96.52 487.941 96.184 487.941 95.768C487.941 95.408 487.825 95.132 487.593 94.94C487.361 94.748 486.957 94.596 486.381 94.484L485.097 94.22C484.321 94.06 483.741 93.8 483.357 93.44C482.981 93.072 482.793 92.576 482.793 91.952C482.793 91.448 482.925 91.008 483.189 90.632C483.461 90.248 483.833 89.952 484.305 89.744C484.785 89.536 485.345 89.432 485.985 89.432C486.577 89.432 487.125 89.52 487.629 89.696C488.133 89.872 488.557 90.132 488.901 90.476L488.517 91.328C488.157 91 487.769 90.764 487.353 90.62C486.945 90.468 486.481 90.392 485.961 90.392C485.329 90.392 484.829 90.528 484.461 90.8C484.093 91.072 483.909 91.44 483.909 91.904C483.909 92.272 484.025 92.564 484.257 92.78C484.489 92.988 484.873 93.148 485.409 93.26L486.693 93.512C487.509 93.672 488.105 93.924 488.481 94.268C488.865 94.612 489.057 95.088 489.057 95.696C489.057 96.176 488.929 96.6 488.673 96.968C488.417 97.328 488.053 97.608 487.581 97.808C487.109 98.008 486.549 98.108 485.901 98.108ZM493.268 98.108C492.308 98.108 491.548 97.832 490.988 97.28C490.436 96.728 490.16 95.968 490.16 95C490.16 94.36 490.28 93.808 490.52 93.344C490.768 92.872 491.108 92.508 491.54 92.252C491.972 91.988 492.476 91.856 493.052 91.856C493.604 91.856 494.072 91.976 494.456 92.216C494.84 92.448 495.132 92.78 495.332 93.212C495.532 93.644 495.632 94.156 495.632 94.748V95.108H491.012V94.46H494.888L494.684 94.616C494.684 93.992 494.544 93.508 494.264 93.164C493.992 92.82 493.588 92.648 493.052 92.648C492.468 92.648 492.016 92.852 491.696 93.26C491.376 93.66 491.216 94.208 491.216 94.904V95.012C491.216 95.748 491.396 96.304 491.756 96.68C492.124 97.056 492.632 97.244 493.28 97.244C493.64 97.244 493.976 97.192 494.288 97.088C494.6 96.984 494.9 96.812 495.188 96.572L495.548 97.328C495.276 97.576 494.936 97.768 494.528 97.904C494.128 98.04 493.708 98.108 493.268 98.108ZM499.304 98.108C498.672 98.108 498.192 97.936 497.864 97.592C497.544 97.24 497.384 96.712 497.384 96.008V92.804H496.208V91.964H497.384V90.344L498.476 90.044V91.964H500.18V92.804H498.476V95.912C498.476 96.376 498.556 96.708 498.716 96.908C498.884 97.1 499.124 97.196 499.436 97.196C499.596 97.196 499.732 97.184 499.844 97.16C499.964 97.128 500.072 97.092 500.168 97.052V97.952C500.048 98 499.908 98.036 499.748 98.06C499.596 98.092 499.448 98.108 499.304 98.108ZM501.157 93.284V91.964H502.489V93.284H501.157ZM501.157 98V96.668H502.489V98H501.157Z" fill="#9CA3AF"/>
<path d="M510.219 98.1076C509.539 98.1076 508.927 98.0196 508.383 97.8436C507.839 97.6676 507.367 97.4196 506.967 97.0996L507.351 96.2116C507.631 96.4196 507.915 96.5956 508.203 96.7396C508.491 96.8756 508.799 96.9796 509.127 97.0516C509.463 97.1156 509.827 97.1476 510.219 97.1476C510.915 97.1476 511.427 97.0236 511.755 96.7756C512.091 96.5196 512.259 96.1836 512.259 95.7676C512.259 95.4076 512.143 95.1316 511.911 94.9396C511.679 94.7476 511.275 94.5956 510.699 94.4836L509.415 94.2196C508.639 94.0596 508.059 93.7996 507.675 93.4396C507.299 93.0716 507.111 92.5756 507.111 91.9516C507.111 91.4476 507.243 91.0076 507.507 90.6316C507.779 90.2476 508.151 89.9516 508.623 89.7436C509.103 89.5356 509.663 89.4316 510.303 89.4316C510.895 89.4316 511.443 89.5196 511.947 89.6956C512.451 89.8716 512.875 90.1316 513.219 90.4756L512.835 91.3276C512.475 90.9996 512.087 90.7636 511.671 90.6196C511.263 90.4676 510.799 90.3916 510.279 90.3916C509.647 90.3916 509.147 90.5276 508.779 90.7996C508.411 91.0716 508.227 91.4396 508.227 91.9036C508.227 92.2716 508.343 92.5636 508.575 92.7796C508.807 92.9876 509.191 93.1476 509.727 93.2596L511.011 93.5116C511.827 93.6716 512.423 93.9236 512.799 94.2676C513.183 94.6116 513.375 95.0876 513.375 95.6956C513.375 96.1756 513.247 96.5996 512.991 96.9676C512.735 97.3276 512.371 97.6076 511.899 97.8076C511.427 98.0076 510.867 98.1076 510.219 98.1076ZM517.586 98.1076C516.626 98.1076 515.866 97.8316 515.306 97.2796C514.754 96.7276 514.478 95.9676 514.478 94.9996C514.478 94.3596 514.598 93.8076 514.838 93.3436C515.086 92.8716 515.426 92.5076 515.858 92.2516C516.29 91.9876 516.794 91.8556 517.37 91.8556C517.922 91.8556 518.39 91.9756 518.774 92.2156C519.158 92.4476 519.45 92.7796 519.65 93.2116C519.85 93.6436 519.95 94.1556 519.95 94.7476V95.1076H515.33V94.4596H519.206L519.002 94.6156C519.002 93.9916 518.862 93.5076 518.582 93.1636C518.31 92.8196 517.906 92.6476 517.37 92.6476C516.786 92.6476 516.334 92.8516 516.014 93.2596C515.694 93.6596 515.534 94.2076 515.534 94.9036V95.0116C515.534 95.7476 515.714 96.3036 516.074 96.6796C516.442 97.0556 516.95 97.2436 517.598 97.2436C517.958 97.2436 518.294 97.1916 518.606 97.0876C518.918 96.9836 519.218 96.8116 519.506 96.5716L519.866 97.3276C519.594 97.5756 519.254 97.7676 518.846 97.9036C518.446 98.0396 518.026 98.1076 517.586 98.1076ZM524.125 98.1076C523.165 98.1076 522.405 97.8316 521.845 97.2796C521.293 96.7276 521.017 95.9676 521.017 94.9996C521.017 94.3596 521.137 93.8076 521.377 93.3436C521.625 92.8716 521.965 92.5076 522.397 92.2516C522.829 91.9876 523.333 91.8556 523.909 91.8556C524.461 91.8556 524.929 91.9756 525.313 92.2156C525.697 92.4476 525.989 92.7796 526.189 93.2116C526.389 93.6436 526.489 94.1556 526.489 94.7476V95.1076H521.869V94.4596H525.745L525.541 94.6156C525.541 93.9916 525.401 93.5076 525.121 93.1636C524.849 92.8196 524.445 92.6476 523.909 92.6476C523.325 92.6476 522.873 92.8516 522.553 93.2596C522.233 93.6596 522.073 94.2076 522.073 94.9036V95.0116C522.073 95.7476 522.253 96.3036 522.613 96.6796C522.981 97.0556 523.489 97.2436 524.137 97.2436C524.497 97.2436 524.833 97.1916 525.145 97.0876C525.457 96.9836 525.757 96.8116 526.045 96.5716L526.405 97.3276C526.133 97.5756 525.793 97.7676 525.385 97.9036C524.985 98.0396 524.565 98.1076 524.125 98.1076ZM527.916 97.9996V93.3916C527.916 93.1596 527.908 92.9236 527.892 92.6836C527.876 92.4436 527.852 92.2036 527.82 91.9636H528.876L528.996 93.2596H528.852C529.012 92.8116 529.268 92.4676 529.62 92.2276C529.972 91.9796 530.392 91.8556 530.88 91.8556C531.376 91.8556 531.784 91.9756 532.104 92.2156C532.424 92.4476 532.64 92.8156 532.752 93.3196H532.572C532.724 92.8716 532.992 92.5156 533.376 92.2516C533.76 91.9876 534.208 91.8556 534.72 91.8556C535.384 91.8556 535.884 92.0516 536.22 92.4436C536.556 92.8276 536.724 93.4276 536.724 94.2436V97.9996H535.632V94.3036C535.632 93.7516 535.536 93.3556 535.344 93.1156C535.152 92.8676 534.848 92.7436 534.432 92.7436C533.944 92.7436 533.56 92.9116 533.28 93.2476C533 93.5756 532.86 94.0236 532.86 94.5916V97.9996H531.768V94.3036C531.768 93.7516 531.672 93.3556 531.48 93.1156C531.296 92.8676 530.992 92.7436 530.568 92.7436C530.08 92.7436 529.696 92.9116 529.416 93.2476C529.144 93.5756 529.008 94.0236 529.008 94.5916V97.9996H527.916ZM540.814 98.1076C540.286 98.1076 539.822 97.9836 539.422 97.7356C539.022 97.4876 538.71 97.1276 538.486 96.6556C538.262 96.1836 538.15 95.6236 538.15 94.9756C538.15 94.3276 538.262 93.7716 538.486 93.3076C538.71 92.8356 539.022 92.4756 539.422 92.2276C539.822 91.9796 540.286 91.8556 540.814 91.8556C541.35 91.8556 541.814 91.9916 542.206 92.2636C542.606 92.5276 542.87 92.8916 542.998 93.3556H542.854L542.986 91.9636H544.042C544.018 92.2036 543.994 92.4436 543.97 92.6836C543.954 92.9236 543.946 93.1596 543.946 93.3916V97.9996H542.854V96.6196H542.986C542.858 97.0756 542.594 97.4396 542.194 97.7116C541.802 97.9756 541.342 98.1076 540.814 98.1076ZM541.066 97.2436C541.61 97.2436 542.046 97.0516 542.374 96.6676C542.702 96.2836 542.866 95.7196 542.866 94.9756C542.866 94.2316 542.702 93.6716 542.374 93.2956C542.046 92.9196 541.61 92.7316 541.066 92.7316C540.522 92.7316 540.082 92.9196 539.746 93.2956C539.418 93.6716 539.254 94.2316 539.254 94.9756C539.254 95.7196 539.418 96.2836 539.746 96.6676C540.074 97.0516 540.514 97.2436 541.066 97.2436ZM548.691 98.1076C548.011 98.1076 547.399 98.0196 546.855 97.8436C546.311 97.6676 545.839 97.4196 545.439 97.0996L545.823 96.2116C546.103 96.4196 546.387 96.5956 546.675 96.7396C546.963 96.8756 547.271 96.9796 547.599 97.0516C547.935 97.1156 548.299 97.1476 548.691 97.1476C549.387 97.1476 549.899 97.0236 550.227 96.7756C550.563 96.5196 550.731 96.1836 550.731 95.7676C550.731 95.4076 550.615 95.1316 550.383 94.9396C550.151 94.7476 549.747 94.5956 549.171 94.4836L547.887 94.2196C547.111 94.0596 546.531 93.7996 546.147 93.4396C545.771 93.0716 545.583 92.5756 545.583 91.9516C545.583 91.4476 545.715 91.0076 545.979 90.6316C546.251 90.2476 546.623 89.9516 547.095 89.7436C547.575 89.5356 548.135 89.4316 548.775 89.4316C549.367 89.4316 549.915 89.5196 550.419 89.6956C550.923 89.8716 551.347 90.1316 551.691 90.4756L551.307 91.3276C550.947 90.9996 550.559 90.7636 550.143 90.6196C549.735 90.4676 549.271 90.3916 548.751 90.3916C548.119 90.3916 547.619 90.5276 547.251 90.7996C546.883 91.0716 546.699 91.4396 546.699 91.9036C546.699 92.2716 546.815 92.5636 547.047 92.7796C547.279 92.9876 547.663 93.1476 548.199 93.2596L549.483 93.5116C550.299 93.6716 550.895 93.9236 551.271 94.2676C551.655 94.6116 551.847 95.0876 551.847 95.6956C551.847 96.1756 551.719 96.5996 551.463 96.9676C551.207 97.3276 550.843 97.6076 550.371 97.8076C549.899 98.0076 549.339 98.1076 548.691 98.1076ZM556.595 97.9996V89.5396H560.039C560.951 89.5396 561.651 89.7316 562.139 90.1156C562.627 90.4996 562.871 91.0396 562.871 91.7356C562.871 92.2636 562.711 92.7036 562.391 93.0556C562.079 93.4076 561.651 93.6436 561.107 93.7636V93.5836C561.731 93.6556 562.215 93.8716 562.559 94.2316C562.911 94.5916 563.087 95.0676 563.087 95.6596C563.087 96.4116 562.835 96.9916 562.331 97.3996C561.827 97.7996 561.115 97.9996 560.195 97.9996H556.595ZM557.675 97.1116H560.087C560.679 97.1116 561.143 96.9996 561.479 96.7756C561.823 96.5436 561.995 96.1636 561.995 95.6356C561.995 95.0996 561.823 94.7196 561.479 94.4956C561.143 94.2716 560.679 94.1596 560.087 94.1596H557.675V97.1116ZM557.675 93.2716H559.883C560.515 93.2716 560.987 93.1516 561.299 92.9116C561.611 92.6636 561.767 92.3076 561.767 91.8436C561.767 91.3796 561.611 91.0276 561.299 90.7876C560.987 90.5396 560.515 90.4156 559.883 90.4156H557.675V93.2716ZM566.97 98.1076C566.442 98.1076 565.978 97.9836 565.578 97.7356C565.178 97.4876 564.866 97.1276 564.642 96.6556C564.418 96.1836 564.306 95.6236 564.306 94.9756C564.306 94.3276 564.418 93.7716 564.642 93.3076C564.866 92.8356 565.178 92.4756 565.578 92.2276C565.978 91.9796 566.442 91.8556 566.97 91.8556C567.506 91.8556 567.97 91.9916 568.362 92.2636C568.762 92.5276 569.026 92.8916 569.154 93.3556H569.01L569.142 91.9636H570.198C570.174 92.2036 570.15 92.4436 570.126 92.6836C570.11 92.9236 570.102 93.1596 570.102 93.3916V97.9996H569.01V96.6196H569.142C569.014 97.0756 568.75 97.4396 568.35 97.7116C567.958 97.9756 567.498 98.1076 566.97 98.1076ZM567.222 97.2436C567.766 97.2436 568.202 97.0516 568.53 96.6676C568.858 96.2836 569.022 95.7196 569.022 94.9756C569.022 94.2316 568.858 93.6716 568.53 93.2956C568.202 92.9196 567.766 92.7316 567.222 92.7316C566.678 92.7316 566.238 92.9196 565.902 93.2956C565.574 93.6716 565.41 94.2316 565.41 94.9756C565.41 95.7196 565.574 96.2836 565.902 96.6676C566.23 97.0516 566.67 97.2436 567.222 97.2436ZM573.972 98.1076C573.484 98.1076 573.028 98.0436 572.604 97.9156C572.188 97.7876 571.844 97.6036 571.572 97.3636L571.92 96.6076C572.216 96.8316 572.54 97.0036 572.892 97.1236C573.252 97.2356 573.62 97.2916 573.996 97.2916C574.452 97.2916 574.796 97.2076 575.028 97.0396C575.268 96.8716 575.388 96.6476 575.388 96.3676C575.388 96.1436 575.312 95.9636 575.16 95.8276C575.008 95.6916 574.768 95.5916 574.44 95.5276L573.3 95.2996C572.788 95.1796 572.4 94.9876 572.136 94.7236C571.88 94.4516 571.752 94.1036 571.752 93.6796C571.752 93.3276 571.848 93.0156 572.04 92.7436C572.232 92.4636 572.504 92.2476 572.856 92.0956C573.216 91.9356 573.636 91.8556 574.116 91.8556C574.556 91.8556 574.964 91.9196 575.34 92.0476C575.724 92.1756 576.04 92.3636 576.288 92.6116L575.928 93.3436C575.68 93.1276 575.4 92.9636 575.088 92.8516C574.784 92.7316 574.472 92.6716 574.152 92.6716C573.688 92.6716 573.344 92.7636 573.12 92.9476C572.896 93.1236 572.784 93.3556 572.784 93.6436C572.784 93.8596 572.852 94.0396 572.988 94.1836C573.124 94.3196 573.344 94.4236 573.648 94.4956L574.788 94.7236C575.324 94.8356 575.728 95.0196 576 95.2756C576.272 95.5316 576.408 95.8716 576.408 96.2956C576.408 96.6716 576.304 96.9956 576.096 97.2676C575.896 97.5396 575.612 97.7476 575.244 97.8916C574.884 98.0356 574.46 98.1076 573.972 98.1076ZM580.524 97.9996V96.6676H581.856V97.9996H580.524ZM583.32 97.9996V96.6676H584.652V97.9996H583.32ZM577.716 97.9996V96.6676H579.048V97.9996H577.716Z" fill="#374151"/>
<path d="M593.5 91L597.5 95L601.5 91" stroke="#9CA3AF" stroke-width="1.2" stroke-linecap="round" stroke-linejoin="round"/>
<path d="M645.5 77.5H629.5C625.358 77.5 622 80.8579 622 85V101C622 105.142 625.358 108.5 629.5 108.5H645.5C649.642 108.5 653 105.142 653 101V85C653 80.8579 649.642 77.5 645.5 77.5Z" fill="white"/>
<path d="M645.5 77.5H629.5C625.358 77.5 622 80.8579 622 85V101C622 105.142 625.358 108.5 629.5 108.5H645.5C649.642 108.5 653 105.142 653 101V85C653 80.8579 649.642 77.5 645.5 77.5Z" stroke="#F3F4F6"/>
<path d="M634.168 89.6667H633.501C633.147 89.6667 632.808 89.8072 632.558 90.0573C632.308 90.3073 632.168 90.6464 632.168 91.0001V97.0001C632.168 97.3537 632.308 97.6928 632.558 97.9429C632.808 98.1929 633.147 98.3334 633.501 98.3334H639.501C639.855 98.3334 640.194 98.1929 640.444 97.9429C640.694 97.6928 640.834 97.3537 640.834 97.0001V96.3334M640.168 88.3334L642.168 90.3334M643.091 89.3901C643.354 89.1275 643.501 88.7714 643.501 88.4001C643.501 88.0287 643.354 87.6726 643.091 87.4101C642.829 87.1475 642.472 87 642.101 87C641.73 87 641.374 87.1475 641.111 87.4101L635.501 93.0001V95.0001H637.501L643.091 89.3901Z" stroke="#374151" stroke-width="1.2" stroke-linecap="round" stroke-linejoin="round"/>
</g>
<g filter="url(#filter4_dd_5041_67927)">
<g filter="url(#filter5_dd_5041_67927)">
<path d="M368.229 96.9104C368.198 96.4821 368.287 96.0536 368.486 95.673C368.685 95.2924 368.986 94.9747 369.355 94.7555C369.725 94.5363 370.148 94.4243 370.577 94.432C371.007 94.4397 371.425 94.5668 371.787 94.7991L391.232 107.313C393.1 108.514 392.362 111.405 390.148 111.564L381.044 112.221C380.691 112.246 380.348 112.352 380.042 112.531C379.736 112.71 379.475 112.957 379.28 113.252L374.127 121.078C372.913 122.923 370.049 122.177 369.89 119.971L368.229 96.9104Z" fill="#27272A"/>
<path d="M368.229 96.9104C368.198 96.4821 368.287 96.0536 368.486 95.673C368.685 95.2924 368.986 94.9747 369.355 94.7555C369.725 94.5363 370.148 94.4243 370.577 94.432C371.007 94.4397 371.425 94.5668 371.787 94.7991L391.232 107.313C393.1 108.514 392.362 111.405 390.148 111.564L381.044 112.221C380.691 112.246 380.348 112.352 380.042 112.531C379.736 112.71 379.475 112.957 379.28 113.252L374.127 121.078C372.913 122.923 370.049 122.177 369.89 119.971L368.229 96.9104Z" stroke="#FAFAFA"/>
</g>
</g>
<g opacity="0.3">
<path d="M645.5 157H533.5C531.291 157 529.5 158.791 529.5 161V169C529.5 171.209 531.291 173 533.5 173H645.5C647.709 173 649.5 171.209 649.5 169V161C649.5 158.791 647.709 157 645.5 157Z" fill="#EBEBEB"/>
</g>
</g>
</g>
<defs>
<filter id="filter0_f_5041_67927" x="330.238" y="40.877" width="573.882" height="512.508" filterUnits="userSpaceOnUse" color-interpolation-filters="sRGB">
<feFlood flood-opacity="0" result="BackgroundImageFix"/>
<feBlend mode="normal" in="SourceGraphic" in2="BackgroundImageFix" result="shape"/>
<feGaussianBlur stdDeviation="75" result="effect1_foregroundBlur_5041_67927"/>
</filter>
<filter id="filter1_f_5041_67927" x="297.715" y="-13.5684" width="692.413" height="594.164" filterUnits="userSpaceOnUse" color-interpolation-filters="sRGB">
<feFlood flood-opacity="0" result="BackgroundImageFix"/>
<feBlend mode="normal" in="SourceGraphic" in2="BackgroundImageFix" result="shape"/>
<feGaussianBlur stdDeviation="100" result="effect1_foregroundBlur_5041_67927"/>
</filter>
<filter id="filter2_f_5041_67927" x="-246.129" y="-47.2109" width="550.076" height="500.613" filterUnits="userSpaceOnUse" color-interpolation-filters="sRGB">
<feFlood flood-opacity="0" result="BackgroundImageFix"/>
<feBlend mode="normal" in="SourceGraphic" in2="BackgroundImageFix" result="shape"/>
<feGaussianBlur stdDeviation="80" result="effect1_foregroundBlur_5041_67927"/>
</filter>
<filter id="filter3_d_5041_67927" x="137.5" y="81" width="310" height="220" filterUnits="userSpaceOnUse" color-interpolation-filters="sRGB">
<feFlood flood-opacity="0" result="BackgroundImageFix"/>
<feColorMatrix in="SourceAlpha" type="matrix" values="0 0 0 0 0 0 0 0 0 0 0 0 0 0 0 0 0 0 127 0" result="hardAlpha"/>
<feOffset dy="16"/>
<feGaussianBlur stdDeviation="24"/>
<feComposite in2="hardAlpha" operator="out"/>
<feColorMatrix type="matrix" values="0 0 0 0 0.0627451 0 0 0 0 0.0588235 0 0 0 0 0.141176 0 0 0 0.07 0"/>
<feBlend mode="normal" in2="BackgroundImageFix" result="effect1_dropShadow_5041_67927"/>
<feBlend mode="normal" in="SourceGraphic" in2="effect1_dropShadow_5041_67927" result="shape"/>
</filter>
<filter id="filter4_dd_5041_67927" x="359.723" y="89.9316" width="41.0732" height="44.6895" filterUnits="userSpaceOnUse" color-interpolation-filters="sRGB">
<feFlood flood-opacity="0" result="BackgroundImageFix"/>
<feColorMatrix in="SourceAlpha" type="matrix" values="0 0 0 0 0 0 0 0 0 0 0 0 0 0 0 0 0 0 127 0" result="hardAlpha"/>
<feOffset dy="2"/>
<feGaussianBlur stdDeviation="2"/>
<feComposite in2="hardAlpha" operator="out"/>
<feColorMatrix type="matrix" values="0 0 0 0 0.0627451 0 0 0 0 0.0588235 0 0 0 0 0.141176 0 0 0 0.06 0"/>
<feBlend mode="normal" in2="BackgroundImageFix" result="effect1_dropShadow_5041_67927"/>
<feColorMatrix in="SourceAlpha" type="matrix" values="0 0 0 0 0 0 0 0 0 0 0 0 0 0 0 0 0 0 127 0" result="hardAlpha"/>
<feOffset dy="4"/>
<feGaussianBlur stdDeviation="4"/>
<feComposite in2="hardAlpha" operator="out"/>
<feColorMatrix type="matrix" values="0 0 0 0 0.0627451 0 0 0 0 0.0588235 0 0 0 0 0.141176 0 0 0 0.1 0"/>
<feBlend mode="normal" in2="effect1_dropShadow_5041_67927" result="effect2_dropShadow_5041_67927"/>
<feBlend mode="normal" in="SourceGraphic" in2="effect2_dropShadow_5041_67927" result="shape"/>
</filter>
<filter id="filter5_dd_5041_67927" x="335.723" y="71.9316" width="89.0732" height="92.6895" filterUnits="userSpaceOnUse" color-interpolation-filters="sRGB">
<feFlood flood-opacity="0" result="BackgroundImageFix"/>
<feColorMatrix in="SourceAlpha" type="matrix" values="0 0 0 0 0 0 0 0 0 0 0 0 0 0 0 0 0 0 127 0" result="hardAlpha"/>
<feOffset dy="4"/>
<feGaussianBlur stdDeviation="8"/>
<feComposite in2="hardAlpha" operator="out"/>
<feColorMatrix type="matrix" values="0 0 0 0 0.0588235 0 0 0 0 0.141176 0 0 0 0 0.0666667 0 0 0 0.02 0"/>
<feBlend mode="normal" in2="BackgroundImageFix" result="effect1_dropShadow_5041_67927"/>
<feColorMatrix in="SourceAlpha" type="matrix" values="0 0 0 0 0 0 0 0 0 0 0 0 0 0 0 0 0 0 127 0" result="hardAlpha"/>
<feOffset dy="10"/>
<feGaussianBlur stdDeviation="16"/>
<feComposite in2="hardAlpha" operator="out"/>
<feColorMatrix type="matrix" values="0 0 0 0 0.0627451 0 0 0 0 0.0588235 0 0 0 0 0.141176 0 0 0 0.05 0"/>
<feBlend mode="normal" in2="effect1_dropShadow_5041_67927" result="effect2_dropShadow_5041_67927"/>
<feBlend mode="normal" in="SourceGraphic" in2="effect2_dropShadow_5041_67927" result="shape"/>
</filter>
<linearGradient id="paint0_linear_5041_67927" x1="906.877" y1="217.525" x2="929.854" y2="353.841" gradientUnits="userSpaceOnUse">
<stop stop-color="#5C85D5"/>
<stop offset="1" stop-color="#C3A7F3"/>
</linearGradient>
<linearGradient id="paint1_linear_5041_67927" x1="-184.46" y1="309.764" x2="-228.088" y2="204.844" gradientUnits="userSpaceOnUse">
<stop stop-color="#5C85D5"/>
<stop offset="1" stop-color="#C3A7F3"/>
</linearGradient>
<linearGradient id="paint2_linear_5041_67927" x1="171.5" y1="201" x2="66.5" y2="201" gradientUnits="userSpaceOnUse">
<stop stop-color="#FAFAFA"/>
<stop offset="0.534678" stop-color="#266AE9"/>
<stop offset="1" stop-color="#FAFAFA"/>
</linearGradient>
<linearGradient id="paint3_linear_5041_67927" x1="598.193" y1="134" x2="480.5" y2="134" gradientUnits="userSpaceOnUse">
<stop stop-color="#FAFAFA"/>
<stop offset="0.534678" stop-color="#266AE9"/>
<stop offset="1" stop-color="#FAFAFA"/>
</linearGradient>
<linearGradient id="paint4_linear_5041_67927" x1="163.5" y1="131" x2="163.5" y2="67" gradientUnits="userSpaceOnUse">
<stop stop-color="#FAFAFA"/>
<stop offset="0.534678" stop-color="#266AE9"/>
<stop offset="1" stop-color="#FAFAFA"/>
</linearGradient>
<linearGradient id="paint5_linear_5041_67927" x1="417.5" y1="198" x2="417.5" y2="129" gradientUnits="userSpaceOnUse">
<stop stop-color="#FAFAFA"/>
<stop offset="0.534678" stop-color="#266AE9"/>
<stop offset="1" stop-color="#FAFAFA"/>
</linearGradient>
<clipPath id="clip0_5041_67927">
<rect width="704" height="338" fill="white" transform="translate(0.5)"/>
</clipPath>
<clipPath id="clip1_5041_67927">
<rect width="704" height="338" fill="white" transform="translate(0.5)"/>
</clipPath>
</defs>
</svg>
