<svg width="358" height="230" viewBox="0 0 358 230" fill="none" xmlns="http://www.w3.org/2000/svg">
<g clip-path="url(#clip0_6210_56170)">
<g clip-path="url(#clip1_6210_56170)">
<g opacity="0.25" filter="url(#filter0_f_6210_56170)">
<path d="M113 145.703C36.714 168.716 -28.5758 241 -28.5758 241C-28.5758 241 -63.4839 218.872 -77 212.346C-35.5069 203.502 -21.0661 155.574 13.21 128.182C33.893 125.983 92.7258 144.415 113 145.703Z" fill="url(#paint0_linear_6210_56170)"/>
</g>
<mask id="mask0_6210_56170" style="mask-type:luminance" maskUnits="userSpaceOnUse" x="-43" y="0" width="444" height="211">
<path d="M400.089 0H-42.0938V211H400.089V0Z" fill="white"/>
</mask>
<g mask="url(#mask0_6210_56170)">
<mask id="mask1_6210_56170" style="mask-type:luminance" maskUnits="userSpaceOnUse" x="-49" y="0" width="456" height="213">
<path d="M406.37 0H-48.375V212.256H406.37V0Z" fill="white"/>
</mask>
<g mask="url(#mask1_6210_56170)">
<g opacity="0.35" filter="url(#filter1_f_6210_56170)">
<path d="M238.668 141.965C313.369 166.511 377.302 243.612 377.302 243.612C377.302 243.612 411.484 220.01 424.719 213.048C384.089 203.615 369.948 152.493 336.384 123.276C316.131 120.931 258.521 140.591 238.668 141.965Z" fill="url(#paint1_linear_6210_56170)"/>
</g>
<g opacity="0.35" filter="url(#filter2_f_6210_56170)">
<path d="M92.2818 131.979C31.0828 165.263 -11.9305 238.831 -11.9305 238.831C-11.9305 238.831 -45.7495 226.066 -58.4805 222.873C-24.5398 207.917 -20.713 164.265 3.74794 134.693C21.0596 129.132 74.6987 134.477 92.2818 131.979Z" fill="url(#paint2_linear_6210_56170)"/>
</g>
<g filter="url(#filter3_dd_6210_56170)">
<path d="M341.047 60.9141H16.9474C12.7847 60.9141 9.41016 64.2879 9.41016 68.4498V202.209C9.41016 206.371 12.7847 209.744 16.9474 209.744H341.047C345.21 209.744 348.584 206.371 348.584 202.209V68.4498C348.584 64.2879 345.21 60.9141 341.047 60.9141Z" fill="black" fill-opacity="0.01"/>
<path d="M341.046 61.2266H16.9458C12.9566 61.2266 9.72266 64.4598 9.72266 68.4483V202.207C9.72266 206.196 12.9566 209.429 16.9458 209.429H341.046C345.035 209.429 348.269 206.196 348.269 202.207V68.4483C348.269 64.4598 345.035 61.2266 341.046 61.2266Z" stroke="url(#paint3_linear_6210_56170)"/>
<path d="M341.046 61.2266H16.9458C12.9566 61.2266 9.72266 64.4598 9.72266 68.4483V202.207C9.72266 206.196 12.9566 209.429 16.9458 209.429H341.046C345.035 209.429 348.269 206.196 348.269 202.207V68.4483C348.269 64.4598 345.035 61.2266 341.046 61.2266Z" stroke="white" stroke-opacity="0.2"/>
<path d="M348.584 79.1245V78.8105H9.41016V79.1245V79.4385H348.584V79.1245Z" fill="#F4F4F5"/>
<path d="M21.0312 71.5891C21.8984 71.5891 22.6014 70.8862 22.6014 70.0192C22.6014 69.1521 21.8984 68.4492 21.0312 68.4492C20.164 68.4492 19.4609 69.1521 19.4609 70.0192C19.4609 70.8862 20.164 71.5891 21.0312 71.5891Z" fill="#266AE9"/>
<path d="M29.1953 71.5891C30.0625 71.5891 30.7655 70.8862 30.7655 70.0192C30.7655 69.1521 30.0625 68.4492 29.1953 68.4492C28.328 68.4492 27.625 69.1521 27.625 70.0192C27.625 70.8862 28.328 71.5891 29.1953 71.5891Z" fill="#D9D9D9"/>
<path d="M37.3593 71.5891C38.2265 71.5891 38.9296 70.8862 38.9296 70.0192C38.9296 69.1521 38.2265 68.4492 37.3593 68.4492C36.4921 68.4492 35.7891 69.1521 35.7891 70.0192C35.7891 70.8862 36.4921 71.5891 37.3593 71.5891Z" fill="#D9D9D9"/>
<path d="M93.5768 86.6621H21.9733C20.5858 86.6621 19.4609 87.7867 19.4609 89.174V94.1978C19.4609 95.5851 20.5858 96.7097 21.9733 96.7097H93.5768C94.9643 96.7097 96.0892 95.5851 96.0892 94.1978V89.174C96.0892 87.7867 94.9643 86.6621 93.5768 86.6621Z" fill="white"/>
<path d="M318.436 86.6621H310.899C309.512 86.6621 308.387 87.7867 308.387 89.174V96.7097C308.387 98.097 309.512 99.2216 310.899 99.2216H318.436C319.824 99.2216 320.949 98.097 320.949 96.7097V89.174C320.949 87.7867 319.824 86.6621 318.436 86.6621Z" fill="white"/>
<path d="M336.022 86.6621H328.485C327.097 86.6621 325.973 87.7867 325.973 89.174V96.7097C325.973 98.097 327.097 99.2216 328.485 99.2216H336.022C337.41 99.2216 338.535 98.097 338.535 96.7097V89.174C338.535 87.7867 337.41 86.6621 336.022 86.6621Z" fill="white"/>
<path d="M120.585 101.732H23.2295C21.1482 101.732 19.4609 103.419 19.4609 105.5V113.036C19.4609 115.117 21.1482 116.804 23.2295 116.804H120.585C122.666 116.804 124.354 115.117 124.354 113.036V105.5C124.354 103.419 122.666 101.732 120.585 101.732Z" fill="white"/>
<path d="M334.765 101.732H237.409C235.328 101.732 233.641 103.419 233.641 105.5V113.036C233.641 115.117 235.328 116.804 237.409 116.804H334.765C336.846 116.804 338.533 115.117 338.533 113.036V105.5C338.533 103.419 336.846 101.732 334.765 101.732Z" fill="white"/>
<path opacity="0.6" d="M168.321 124.338H26.9981C22.8355 124.338 19.4609 127.712 19.4609 131.874V167.04C19.4609 171.202 22.8355 174.576 26.9981 174.576H168.321C172.483 174.576 175.858 171.202 175.858 167.04V131.874C175.858 127.712 172.483 124.338 168.321 124.338Z" fill="white"/>
<path opacity="0.6" d="M73.4755 131.875H30.7647C28.6834 131.875 26.9961 133.562 26.9961 135.643V138.155C26.9961 140.236 28.6834 141.923 30.7647 141.923H73.4755C75.5569 141.923 77.2441 140.236 77.2441 138.155V135.643C77.2441 133.562 75.5569 131.875 73.4755 131.875Z" fill="#F3F4F6"/>
<path opacity="0.6" d="M147.591 146.945H32.0209C29.2458 146.945 26.9961 149.195 26.9961 151.969V162.017C26.9961 164.791 29.2458 167.041 32.0209 167.041H147.591C150.366 167.041 152.616 164.791 152.616 162.017V151.969C152.616 149.195 150.366 146.945 147.591 146.945Z" fill="#F3F4F6"/>
<path opacity="0.6" d="M330.996 124.338H189.674C185.511 124.338 182.137 127.712 182.137 131.874V167.04C182.137 171.202 185.511 174.576 189.674 174.576H330.996C335.159 174.576 338.534 171.202 338.534 167.04V131.874C338.534 127.712 335.159 124.338 330.996 124.338Z" fill="white"/>
<path opacity="0.6" d="M249.345 131.875H193.444C191.363 131.875 189.676 133.562 189.676 135.643V138.155C189.676 140.236 191.363 141.923 193.444 141.923H249.345C251.427 141.923 253.114 140.236 253.114 138.155V135.643C253.114 133.562 251.427 131.875 249.345 131.875Z" fill="#F3F4F6"/>
<path opacity="0.6" d="M285.147 146.945H194.701C191.925 146.945 189.676 149.195 189.676 151.969V162.017C189.676 164.791 191.925 167.041 194.701 167.041H285.147C287.922 167.041 290.172 164.791 290.172 162.017V151.969C290.172 149.195 287.922 146.945 285.147 146.945Z" fill="#F3F4F6"/>
<path d="M79.7586 182.113H21.9733C20.5858 182.113 19.4609 183.238 19.4609 184.625V194.673C19.4609 196.06 20.5858 197.185 21.9733 197.185H79.7586C81.1461 197.185 82.271 196.06 82.271 194.673V184.625C82.271 183.238 81.1461 182.113 79.7586 182.113Z" fill="white"/>
<path d="M206.635 182.113H92.321C90.9334 182.113 89.8086 183.238 89.8086 184.625V194.673C89.8086 196.06 90.9334 197.185 92.321 197.185H206.635C208.023 197.185 209.148 196.06 209.148 194.673V184.625C209.148 183.238 208.023 182.113 206.635 182.113Z" fill="white"/>
<path d="M336.023 182.113H219.196C217.808 182.113 216.684 183.238 216.684 184.625V194.673C216.684 196.06 217.808 197.185 219.196 197.185H336.023C337.41 197.185 338.535 196.06 338.535 194.673V184.625C338.535 183.238 337.41 182.113 336.023 182.113Z" fill="white"/>
</g>
<g filter="url(#filter4_i_6210_56170)">
<mask id="path-26-inside-1_6210_56170" fill="white">
<path d="M151.473 60.5471C151.473 45.3473 163.795 33.0254 178.994 33.0254C194.194 33.0254 206.516 45.3473 206.516 60.5471C206.516 75.747 194.194 88.0689 178.994 88.0689C163.795 88.0689 151.473 75.747 151.473 60.5471Z"/>
</mask>
<path d="M151.473 60.5471C151.473 45.3473 163.795 33.0254 178.994 33.0254C194.194 33.0254 206.516 45.3473 206.516 60.5471C206.516 75.747 194.194 88.0689 178.994 88.0689C163.795 88.0689 151.473 75.747 151.473 60.5471Z" fill="#F6F9FD" fill-opacity="0.2"/>
<path d="M151.473 33.0254H206.516H151.473ZM206.516 88.0689H151.473H206.516ZM177.494 88.0689C162.295 88.0689 149.973 75.747 149.973 60.5471C149.973 45.3473 162.295 33.0254 177.494 33.0254H178.994C164.623 33.0254 152.973 45.3473 152.973 60.5471C152.973 75.747 164.623 88.0689 178.994 88.0689H177.494ZM180.494 33.0254C195.694 33.0254 208.016 45.3473 208.016 60.5471C208.016 75.747 195.694 88.0689 180.494 88.0689H178.994C193.366 88.0689 205.016 75.747 205.016 60.5471C205.016 45.3473 193.366 33.0254 178.994 33.0254H180.494Z" fill="#266AE9" fill-opacity="0.2" mask="url(#path-26-inside-1_6210_56170)"/>
<path d="M184.996 61.0469V59.5469C184.937 58.2779 184.533 57.0491 183.828 55.9922C183.123 54.9352 182.145 54.0899 180.996 53.5469C180.996 53.0164 180.785 52.5077 180.41 52.1327C180.035 51.7576 179.527 51.5469 178.996 51.5469C178.466 51.5469 177.957 51.7576 177.582 52.1327C177.207 52.5077 176.996 53.0164 176.996 53.5469C175.848 54.0899 174.869 54.9352 174.164 55.9922C173.459 57.0491 173.056 58.2779 172.996 59.5469V62.5469C172.921 63.1686 172.701 63.7639 172.353 64.285C172.006 64.8061 171.541 65.2383 170.996 65.5469H181.996V66.5469C181.996 67.3425 181.68 68.1056 181.117 68.6682C180.555 69.2308 179.792 69.5469 178.996 69.5469C178.2 69.5469 177.437 69.2308 176.875 68.6682C176.312 68.1056 175.996 67.3425 175.996 66.5469V65.5469M185.996 64.5469V67.5469M185.996 70.5469V70.5569" stroke="#266AE9" stroke-width="1.2" stroke-linecap="round" stroke-linejoin="round"/>
</g>
<path d="M318.438 43.3281H424.586" stroke="url(#paint4_linear_6210_56170)" stroke-opacity="0.3" stroke-linecap="round"/>
<path d="M406.998 155.738H-48.375V212.256H406.998V155.738Z" fill="url(#paint5_linear_6210_56170)"/>
</g>
<path d="M412.963 173.32H-42.4102V210.999H412.963V173.32Z" fill="url(#paint6_linear_6210_56170)"/>
</g>
<g opacity="0.3" filter="url(#filter5_f_6210_56170)">
<path d="M244 122.45C314.665 143.834 375.144 211 375.144 211C375.144 211 407.48 190.439 420 184.375C381.564 176.156 368.188 131.622 336.437 106.169C317.278 104.126 262.78 121.253 244 122.45Z" fill="url(#paint7_linear_6210_56170)"/>
</g>
</g>
<rect width="358" height="40" transform="matrix(1 0 0 -1 0 40)" fill="url(#paint8_linear_6210_56170)"/>
<rect y="152" width="358" height="78" fill="url(#paint9_linear_6210_56170)"/>
</g>
<defs>
<filter id="filter0_f_6210_56170" x="-277" y="-72" width="590" height="513" filterUnits="userSpaceOnUse" color-interpolation-filters="sRGB">
<feFlood flood-opacity="0" result="BackgroundImageFix"/>
<feBlend mode="normal" in="SourceGraphic" in2="BackgroundImageFix" result="shape"/>
<feGaussianBlur stdDeviation="100" result="effect1_foregroundBlur_6210_56170"/>
</filter>
<filter id="filter1_f_6210_56170" x="38.668" y="-76.918" width="586.051" height="520.529" filterUnits="userSpaceOnUse" color-interpolation-filters="sRGB">
<feFlood flood-opacity="0" result="BackgroundImageFix"/>
<feBlend mode="normal" in="SourceGraphic" in2="BackgroundImageFix" result="shape"/>
<feGaussianBlur stdDeviation="100" result="effect1_foregroundBlur_6210_56170"/>
</filter>
<filter id="filter2_f_6210_56170" x="-258.48" y="-68.0215" width="550.762" height="506.852" filterUnits="userSpaceOnUse" color-interpolation-filters="sRGB">
<feFlood flood-opacity="0" result="BackgroundImageFix"/>
<feBlend mode="normal" in="SourceGraphic" in2="BackgroundImageFix" result="shape"/>
<feGaussianBlur stdDeviation="100" result="effect1_foregroundBlur_6210_56170"/>
</filter>
<filter id="filter3_dd_6210_56170" x="-22.7773" y="38.7266" width="403.547" height="213.203" filterUnits="userSpaceOnUse" color-interpolation-filters="sRGB">
<feFlood flood-opacity="0" result="BackgroundImageFix"/>
<feColorMatrix in="SourceAlpha" type="matrix" values="0 0 0 0 0 0 0 0 0 0 0 0 0 0 0 0 0 0 127 0" result="hardAlpha"/>
<feOffset dy="4"/>
<feGaussianBlur stdDeviation="8"/>
<feComposite in2="hardAlpha" operator="out"/>
<feColorMatrix type="matrix" values="0 0 0 0 0.0588235 0 0 0 0 0.141176 0 0 0 0 0.0666667 0 0 0 0.02 0"/>
<feBlend mode="normal" in2="BackgroundImageFix" result="effect1_dropShadow_6210_56170"/>
<feColorMatrix in="SourceAlpha" type="matrix" values="0 0 0 0 0 0 0 0 0 0 0 0 0 0 0 0 0 0 127 0" result="hardAlpha"/>
<feOffset dy="10"/>
<feGaussianBlur stdDeviation="16"/>
<feComposite in2="hardAlpha" operator="out"/>
<feColorMatrix type="matrix" values="0 0 0 0 0.0627451 0 0 0 0 0.0588235 0 0 0 0 0.141176 0 0 0 0.05 0"/>
<feBlend mode="normal" in2="effect1_dropShadow_6210_56170" result="effect2_dropShadow_6210_56170"/>
<feBlend mode="normal" in="SourceGraphic" in2="effect2_dropShadow_6210_56170" result="shape"/>
</filter>
<filter id="filter4_i_6210_56170" x="151.473" y="33.0254" width="55.043" height="58.043" filterUnits="userSpaceOnUse" color-interpolation-filters="sRGB">
<feFlood flood-opacity="0" result="BackgroundImageFix"/>
<feBlend mode="normal" in="SourceGraphic" in2="BackgroundImageFix" result="shape"/>
<feColorMatrix in="SourceAlpha" type="matrix" values="0 0 0 0 0 0 0 0 0 0 0 0 0 0 0 0 0 0 127 0" result="hardAlpha"/>
<feOffset dy="3"/>
<feGaussianBlur stdDeviation="6"/>
<feComposite in2="hardAlpha" operator="arithmetic" k2="-1" k3="1"/>
<feColorMatrix type="matrix" values="0 0 0 0 0.585337 0 0 0 0 0.717275 0 0 0 0 0.972356 0 0 0 0.16 0"/>
<feBlend mode="normal" in2="shape" result="effect1_innerShadow_6210_56170"/>
</filter>
<filter id="filter5_f_6210_56170" x="44" y="-94" width="576" height="505" filterUnits="userSpaceOnUse" color-interpolation-filters="sRGB">
<feFlood flood-opacity="0" result="BackgroundImageFix"/>
<feBlend mode="normal" in="SourceGraphic" in2="BackgroundImageFix" result="shape"/>
<feGaussianBlur stdDeviation="100" result="effect1_foregroundBlur_6210_56170"/>
</filter>
<linearGradient id="paint0_linear_6210_56170" x1="-152.159" y1="219.029" x2="-162.226" y2="138.15" gradientUnits="userSpaceOnUse">
<stop stop-color="#5C85D5"/>
<stop offset="1" stop-color="#C3A7F3"/>
</linearGradient>
<linearGradient id="paint1_linear_6210_56170" x1="350.918" y1="205.975" x2="342.516" y2="144.675" gradientUnits="userSpaceOnUse">
<stop stop-color="#5C85D5"/>
<stop offset="1" stop-color="#C3A7F3"/>
</linearGradient>
<linearGradient id="paint2_linear_6210_56170" x1="-121.622" y1="241.958" x2="-144.66" y2="174.421" gradientUnits="userSpaceOnUse">
<stop stop-color="#5C85D5"/>
<stop offset="1" stop-color="#C3A7F3"/>
</linearGradient>
<linearGradient id="paint3_linear_6210_56170" x1="348.583" y1="60.9126" x2="9.40862" y2="60.9126" gradientUnits="userSpaceOnUse">
<stop stop-color="#F4F4F5"/>
<stop offset="0.506904" stop-color="#266AE9" stop-opacity="0.2"/>
<stop offset="1" stop-color="#F4F4F5"/>
</linearGradient>
<linearGradient id="paint4_linear_6210_56170" x1="-nan" y1="-nan" x2="-nan" y2="-nan" gradientUnits="userSpaceOnUse">
<stop stop-color="#FAFAFA"/>
<stop offset="0.534678" stop-color="#266AE9"/>
<stop offset="1" stop-color="#FAFAFA"/>
</linearGradient>
<linearGradient id="paint5_linear_6210_56170" x1="179.311" y1="155.738" x2="179.311" y2="212.256" gradientUnits="userSpaceOnUse">
<stop stop-color="#FAFAFA" stop-opacity="0"/>
<stop offset="1" stop-color="#FAFAFA"/>
</linearGradient>
<linearGradient id="paint6_linear_6210_56170" x1="185.276" y1="173.32" x2="185.276" y2="210.999" gradientUnits="userSpaceOnUse">
<stop stop-color="#FAFAFA" stop-opacity="0"/>
<stop offset="1" stop-color="#FAFAFA"/>
</linearGradient>
<linearGradient id="paint7_linear_6210_56170" x1="489.621" y1="190.584" x2="499.003" y2="115.438" gradientUnits="userSpaceOnUse">
<stop stop-color="#C3A7F3"/>
<stop offset="1" stop-color="#5C85D5"/>
</linearGradient>
<linearGradient id="paint8_linear_6210_56170" x1="179" y1="0" x2="179" y2="40" gradientUnits="userSpaceOnUse">
<stop stop-color="#FAFAFA" stop-opacity="0"/>
<stop offset="1" stop-color="#FAFAFA"/>
</linearGradient>
<linearGradient id="paint9_linear_6210_56170" x1="179" y1="152" x2="179" y2="230" gradientUnits="userSpaceOnUse">
<stop stop-color="#FAFAFA" stop-opacity="0"/>
<stop offset="1" stop-color="#FAFAFA"/>
</linearGradient>
<clipPath id="clip0_6210_56170">
<rect width="358" height="230" fill="white"/>
</clipPath>
<clipPath id="clip1_6210_56170">
<rect width="482" height="230" fill="white" transform="translate(-62)"/>
</clipPath>
</defs>
</svg>
