<svg width="704" height="326" viewBox="0 0 704 326" fill="none" xmlns="http://www.w3.org/2000/svg">
<g clip-path="url(#clip0_5204_64228)">
<path d="M548 65V234" stroke="url(#paint0_linear_5204_64228)" stroke-opacity="0.3" stroke-linecap="round"/>
<path d="M212 145L212 314" stroke="url(#paint1_linear_5204_64228)" stroke-opacity="0.3" stroke-linecap="round"/>
<rect x="216.5" y="111.5" width="47" height="47" rx="11.5" fill="white"/>
<rect x="216.5" y="111.5" width="47" height="47" rx="11.5" stroke="#F7F7F7"/>
<path d="M236 130L240 126M240 126L244 130M240 126V131.394M240 131.394C240 132.503 239.726 133.595 239.203 134.573C238.68 135.551 237.923 136.385 237 137C236.077 137.615 235.32 138.449 234.797 139.427C234.274 140.405 234 141.497 234 142.606V144M240 131.394C240 132.503 240.274 133.595 240.797 134.573C241.32 135.551 242.077 136.385 243 137C243.923 137.615 244.68 138.449 245.203 139.427C245.726 140.405 246 141.497 246 142.606V144" stroke="#3F3F46" stroke-width="1.5" stroke-linecap="round" stroke-linejoin="round"/>
<rect x="160.5" y="223.5" width="47" height="47" rx="11.5" fill="white"/>
<rect x="160.5" y="223.5" width="47" height="47" rx="11.5" stroke="#F7F7F7"/>
<path d="M175 248V240C175 239.47 175.211 238.961 175.586 238.586C175.961 238.211 176.47 238 177 238H191C191.53 238 192.039 238.211 192.414 238.586C192.789 238.961 193 239.47 193 240V254C193 254.53 192.789 255.039 192.414 255.414C192.039 255.789 191.53 256 191 256H183M175 245H193M182 238V249M174 257L179 252M179 252V256.5M179 252H174.5" stroke="#3F3F46" stroke-width="1.5" stroke-linecap="round" stroke-linejoin="round"/>
<g filter="url(#filter0_i_5204_64228)">
<rect x="160" y="-1" width="48" height="48" rx="12" fill="#F7F7F7"/>
<rect x="160.5" y="-0.5" width="47" height="47" rx="11.5" stroke="#F5F5F5"/>
</g>
<rect x="104.5" y="111.5" width="47" height="47" rx="11.5" fill="white"/>
<rect x="104.5" y="111.5" width="47" height="47" rx="11.5" stroke="#F7F7F7"/>
<path d="M127.482 143.924C127.196 143.84 126.937 143.68 126.734 143.462C126.53 143.244 126.389 142.975 126.325 142.683C126.261 142.419 126.136 142.174 125.959 141.968C125.783 141.762 125.56 141.6 125.309 141.496C125.059 141.392 124.787 141.349 124.516 141.37C124.246 141.391 123.984 141.476 123.752 141.617C122.209 142.557 120.442 140.791 121.382 139.247C121.523 139.015 121.608 138.754 121.628 138.483C121.649 138.213 121.606 137.941 121.502 137.691C121.399 137.44 121.237 137.217 121.031 137.041C120.825 136.864 120.581 136.739 120.317 136.675C118.561 136.249 118.561 133.751 120.317 133.325C120.581 133.261 120.826 133.136 121.032 132.959C121.238 132.783 121.4 132.56 121.504 132.309C121.608 132.059 121.651 131.787 121.63 131.516C121.609 131.246 121.524 130.984 121.383 130.752C120.443 129.209 122.209 127.442 123.753 128.382C124.753 128.99 126.049 128.452 126.325 127.317C126.751 125.561 129.249 125.561 129.675 127.317C129.739 127.581 129.864 127.826 130.041 128.032C130.217 128.238 130.44 128.4 130.691 128.504C130.941 128.608 131.213 128.651 131.484 128.63C131.754 128.609 132.016 128.524 132.248 128.383C133.791 127.443 135.558 129.209 134.618 130.753C134.477 130.985 134.392 131.246 134.372 131.517C134.351 131.787 134.394 132.059 134.498 132.309C134.601 132.56 134.763 132.783 134.969 132.959C135.175 133.136 135.419 133.261 135.683 133.325C136.995 133.643 137.327 135.119 136.678 136.022M136 144L138 142L136 140M133 140L131 142L133 144M125 135C125 135.796 125.316 136.559 125.879 137.121C126.441 137.684 127.204 138 128 138C128.796 138 129.559 137.684 130.121 137.121C130.684 136.559 131 135.796 131 135C131 134.204 130.684 133.441 130.121 132.879C129.559 132.316 128.796 132 128 132C127.204 132 126.441 132.316 125.879 132.879C125.316 133.441 125 134.204 125 135Z" stroke="#3F3F46" stroke-width="1.5" stroke-linecap="round" stroke-linejoin="round"/>
<rect x="496.5" y="223.5" width="47" height="47" rx="11.5" fill="white"/>
<rect x="496.5" y="223.5" width="47" height="47" rx="11.5" stroke="#F7F7F7"/>
<path d="M517.615 255H515C514.47 255 513.961 254.789 513.586 254.414C513.211 254.039 513 253.53 513 253V241C513 240.47 513.211 239.961 513.586 239.586C513.961 239.211 514.47 239 515 239H523C523.53 239 524.039 239.211 524.414 239.586C524.789 239.961 525 240.47 525 241V249M522 254L524 256L528 252M517 243H521M517 247H519" stroke="#3F3F46" stroke-width="1.5" stroke-linecap="round" stroke-linejoin="round"/>
<rect x="272.5" y="55.5" width="47" height="47" rx="11.5" fill="white"/>
<rect x="272.5" y="55.5" width="47" height="47" rx="11.5" stroke="#F7F7F7"/>
<path d="M288 73C288 73.7956 288.843 74.5587 290.343 75.1213C291.843 75.6839 293.878 76 296 76C298.122 76 300.157 75.6839 301.657 75.1213C303.157 74.5587 304 73.7956 304 73M288 73C288 72.2044 288.843 71.4413 290.343 70.8787C291.843 70.3161 293.878 70 296 70C298.122 70 300.157 70.3161 301.657 70.8787C303.157 71.4413 304 72.2044 304 73M288 73V79M304 73V79M288 79C288 79.7956 288.843 80.5587 290.343 81.1213C291.843 81.6839 293.878 82 296 82C298.122 82 300.157 81.6839 301.657 81.1213C303.157 80.5587 304 79.7956 304 79M288 79V85C288 85.7956 288.843 86.5587 290.343 87.1213C291.843 87.6839 293.878 88 296 88C298.122 88 300.157 87.6839 301.657 87.1213C303.157 86.5587 304 85.7956 304 85V79" stroke="#3F3F46" stroke-width="1.5" stroke-linecap="round" stroke-linejoin="round"/>
<rect x="384.5" y="167.5" width="47" height="47" rx="11.5" fill="white"/>
<rect x="384.5" y="167.5" width="47" height="47" rx="11.5" stroke="#F7F7F7"/>
<path d="M400 191L408 195L416 191M400 195L408 199L416 195M408 183L400 187L408 191L416 187L408 183Z" stroke="#3F3F46" stroke-width="1.5" stroke-linecap="round" stroke-linejoin="round"/>
<g filter="url(#filter1_i_5204_64228)">
<rect x="160" y="111" width="48" height="104" rx="12" fill="#F7F7F7"/>
<rect x="160.5" y="111.5" width="47" height="103" rx="11.5" stroke="#F5F5F5"/>
</g>
<g filter="url(#filter2_i_5204_64228)">
<rect x="104" y="55" width="160" height="48" rx="12" fill="#F7F7F7"/>
<rect x="104.5" y="55.5" width="159" height="47" rx="11.5" stroke="#F5F5F5"/>
</g>
<g filter="url(#filter3_i_5204_64228)">
<rect x="160" y="279" width="160" height="48" rx="12" fill="#F7F7F7"/>
<rect x="160.5" y="279.5" width="159" height="47" rx="11.5" stroke="#F5F5F5"/>
</g>
<g filter="url(#filter4_i_5204_64228)">
<rect x="216" y="223" width="104" height="48" rx="12" fill="#F7F7F7"/>
<rect x="216.5" y="223.5" width="103" height="47" rx="11.5" stroke="#F5F5F5"/>
</g>
<g filter="url(#filter5_i_5204_64228)">
<rect x="496" y="279" width="104" height="48" rx="12" fill="#F7F7F7"/>
<rect x="496.5" y="279.5" width="103" height="47" rx="11.5" stroke="#F5F5F5"/>
</g>
<g filter="url(#filter6_i_5204_64228)">
<rect x="216" y="-1" width="104" height="48" rx="12" fill="#F7F7F7"/>
<rect x="216.5" y="-0.5" width="103" height="47" rx="11.5" stroke="#F5F5F5"/>
</g>
<g filter="url(#filter7_i_5204_64228)">
<rect x="496" y="167" width="48" height="48" rx="12" fill="#F7F7F7"/>
<rect x="496.5" y="167.5" width="47" height="47" rx="11.5" stroke="#F5F5F5"/>
</g>
<g filter="url(#filter8_i_5204_64228)">
<rect x="552" y="55" width="48" height="104" rx="12" fill="#F7F7F7"/>
<rect x="552.5" y="55.5" width="47" height="103" rx="11.5" stroke="#F5F5F5"/>
</g>
<g filter="url(#filter9_i_5204_64228)">
<rect x="104" y="167" width="48" height="48" rx="12" fill="#F7F7F7"/>
<rect x="104.5" y="167.5" width="47" height="47" rx="11.5" stroke="#F5F5F5"/>
</g>
<g filter="url(#filter10_i_5204_64228)">
<rect x="328" y="55" width="48" height="48" rx="12" fill="#F7F7F7"/>
<rect x="328.5" y="55.5" width="47" height="47" rx="11.5" stroke="#F5F5F5"/>
</g>
<g filter="url(#filter11_i_5204_64228)">
<rect x="384" y="223" width="104" height="48" rx="12" fill="#F7F7F7"/>
<rect x="384.5" y="223.5" width="103" height="47" rx="11.5" stroke="#F5F5F5"/>
</g>
<g filter="url(#filter12_i_5204_64228)">
<rect x="384" y="-1" width="160" height="48" rx="12" fill="#F7F7F7"/>
<rect x="384.5" y="-0.5" width="159" height="47" rx="11.5" stroke="#F5F5F5"/>
</g>
<g filter="url(#filter13_i_5204_64228)">
<rect x="272" y="111" width="48" height="48" rx="12" fill="#F7F7F7"/>
<rect x="272.5" y="111.5" width="47" height="47" rx="11.5" stroke="#F5F5F5"/>
</g>
<g filter="url(#filter14_i_5204_64228)">
<rect x="216" y="167" width="160" height="48" rx="12" fill="#F7F7F7"/>
<rect x="216.5" y="167.5" width="159" height="47" rx="11.5" stroke="#F5F5F5"/>
</g>
<g filter="url(#filter15_i_5204_64228)">
<rect x="104" y="223" width="48" height="104" rx="12" fill="#F7F7F7"/>
<rect x="104.5" y="223.5" width="47" height="103" rx="11.5" stroke="#F5F5F5"/>
</g>
<g filter="url(#filter16_i_5204_64228)">
<rect x="440" y="279" width="48" height="48" rx="12" fill="#F7F7F7"/>
<rect x="440.5" y="279.5" width="47" height="47" rx="11.5" stroke="#F5F5F5"/>
</g>
<g filter="url(#filter17_i_5204_64228)">
<rect x="384" y="279" width="48" height="48" rx="12" fill="#F7F7F7"/>
<rect x="384.5" y="279.5" width="47" height="47" rx="11.5" stroke="#F5F5F5"/>
</g>
<g filter="url(#filter18_i_5204_64228)">
<rect x="104" y="-1" width="48" height="48" rx="12" fill="#F7F7F7"/>
<rect x="104.5" y="-0.5" width="47" height="47" rx="11.5" stroke="#F5F5F5"/>
</g>
<g filter="url(#filter19_i_5204_64228)">
<rect x="328" y="223" width="48" height="104" rx="12" fill="#F7F7F7"/>
<rect x="328.5" y="223.5" width="47" height="103" rx="11.5" stroke="#F5F5F5"/>
</g>
<g filter="url(#filter20_i_5204_64228)">
<rect x="328" y="-1" width="48" height="48" rx="12" fill="#F7F7F7"/>
<rect x="328.5" y="-0.5" width="47" height="47" rx="11.5" stroke="#F5F5F5"/>
</g>
<g filter="url(#filter21_i_5204_64228)">
<rect x="384" y="55" width="48" height="104" rx="12" fill="#F7F7F7"/>
<rect x="384.5" y="55.5" width="47" height="103" rx="11.5" stroke="#F5F5F5"/>
</g>
<rect x="496.5" y="111.5" width="47" height="47" rx="11.5" fill="white"/>
<rect x="496.5" y="111.5" width="47" height="47" rx="11.5" stroke="#F7F7F7"/>
<path d="M525 129C525 129.53 525.211 130.039 525.586 130.414C525.961 130.789 526.47 131 527 131C527.53 131 528.039 130.789 528.414 130.414C528.789 130.039 529 129.53 529 129C529 128.47 528.789 127.961 528.414 127.586C528.039 127.211 527.53 127 527 127C526.47 127 525.961 127.211 525.586 127.586C525.211 127.961 525 128.47 525 129ZM525 129H521.5L518 135M525 141C525 141.53 525.211 142.039 525.586 142.414C525.961 142.789 526.47 143 527 143C527.53 143 528.039 142.789 528.414 142.414C528.789 142.039 529 141.53 529 141C529 140.47 528.789 139.961 528.414 139.586C528.039 139.211 527.53 139 527 139C526.47 139 525.961 139.211 525.586 139.586C525.211 139.961 525 140.47 525 141ZM525 141H521.5L518 135M515 135C515 135.53 514.789 136.039 514.414 136.414C514.039 136.789 513.53 137 513 137C512.47 137 511.961 136.789 511.586 136.414C511.211 136.039 511 135.53 511 135C511 134.47 511.211 133.961 511.586 133.586C511.961 133.211 512.47 133 513 133C513.53 133 514.039 133.211 514.414 133.586C514.789 133.961 515 134.47 515 135ZM515 135H518" stroke="#3F3F46" stroke-width="1.5" stroke-linecap="round" stroke-linejoin="round"/>
<rect x="440.5" y="55.5" width="47" height="47" rx="11.5" fill="white"/>
<rect x="440.5" y="55.5" width="47" height="47" rx="11.5" stroke="#F7F7F7"/>
<path d="M464 82H457.5C456.837 82 456.201 81.7366 455.732 81.2678C455.263 80.7989 455 80.163 455 79.5C455 78.837 455.263 78.2011 455.732 77.7322C456.201 77.2634 456.837 77 457.5 77H458M467 79V85.5C467 86.163 466.737 86.7989 466.268 87.2678C465.799 87.7366 465.163 88 464.5 88C463.837 88 463.201 87.7366 462.732 87.2678C462.263 86.7989 462 86.163 462 85.5V85M464 76H470.5C471.163 76 471.799 76.2634 472.268 76.7322C472.737 77.2011 473 77.837 473 78.5C473 79.163 472.737 79.7989 472.268 80.2678C471.799 80.7366 471.163 81 470.5 81H470M461 79V72.5C461 71.837 461.263 71.2011 461.732 70.7322C462.201 70.2634 462.837 70 463.5 70C464.163 70 464.799 70.2634 465.268 70.7322C465.737 71.2011 466 71.837 466 72.5V73" stroke="#3F3F46" stroke-width="1.5" stroke-linecap="round" stroke-linejoin="round"/>
<g filter="url(#filter22_i_5204_64228)">
<rect x="496" y="55" width="48" height="48" rx="12" fill="#F7F7F7"/>
<rect x="496.5" y="55.5" width="47" height="47" rx="11.5" stroke="#F5F5F5"/>
</g>
<g filter="url(#filter23_i_5204_64228)">
<rect x="552" y="167" width="48" height="48" rx="12" fill="#F7F7F7"/>
<rect x="552.5" y="167.5" width="47" height="47" rx="11.5" stroke="#F5F5F5"/>
</g>
<g filter="url(#filter24_i_5204_64228)">
<rect x="552" y="223" width="48" height="48" rx="12" fill="#F7F7F7"/>
<rect x="552.5" y="223.5" width="47" height="47" rx="11.5" stroke="#F5F5F5"/>
</g>
<g filter="url(#filter25_i_5204_64228)">
<rect x="552" y="-1" width="48" height="48" rx="12" fill="#F7F7F7"/>
<rect x="552.5" y="-0.5" width="47" height="47" rx="11.5" stroke="#F5F5F5"/>
</g>
<g filter="url(#filter26_i_5204_64228)">
<rect x="440" y="111" width="48" height="104" rx="12" fill="#F7F7F7"/>
<rect x="440.5" y="111.5" width="47" height="103" rx="11.5" stroke="#F5F5F5"/>
</g>
<g filter="url(#filter27_ddi_5204_64228)">
<rect x="328" y="111" width="48" height="48" rx="12" fill="#266AE9"/>
<rect x="328.5" y="111.5" width="47" height="47" rx="11.5" stroke="#1658D5"/>
<path d="M341.648 135.716C342.265 136.342 343.102 136.736 344.027 136.757C343.678 137.285 343.474 137.922 343.474 138.611C343.474 138.951 343.523 139.276 343.615 139.583C343.368 139.69 343.096 139.75 342.809 139.75C341.642 139.75 340.691 138.763 340.691 137.549C340.691 137.107 340.818 136.699 341.033 136.356L341.036 136.353C341.277 136.183 341.487 135.965 341.651 135.715L341.648 135.716Z" fill="#F4F4F5"/>
<path d="M349.236 138.609C349.236 140.106 348.065 141.323 346.624 141.323C345.611 141.323 344.729 140.72 344.3 139.837C344.257 139.751 344.219 139.664 344.188 139.571C344.151 139.479 344.123 139.381 344.099 139.282C344.044 139.068 344.016 138.84 344.016 138.609C344.016 137.871 344.3 137.204 344.759 136.715L344.784 136.689C344.865 136.674 344.945 136.653 345.025 136.632C345.112 136.605 345.198 136.578 345.284 136.545C345.68 136.398 346.044 136.182 346.364 135.91C346.45 135.901 346.536 135.895 346.626 135.895C348.067 135.895 349.237 137.111 349.237 138.609H349.236Z" fill="#F4F4F5"/>
<path d="M356.193 139.664C355.801 141.015 354.592 141.999 353.166 141.999C351.421 141.999 350.004 140.527 350.004 138.714C350.004 137.652 350.489 136.709 351.241 136.108C351.365 136.123 351.491 136.131 351.617 136.131C352.355 136.131 353.038 135.881 353.589 135.457C354.143 135.531 354.654 135.762 355.081 136.098C355.01 136.378 354.972 136.673 354.972 136.975C354.972 138.057 355.448 139.024 356.195 139.666L356.193 139.664Z" fill="#F4F4F5"/>
<path d="M361.133 137.083C361.078 138.639 359.843 139.89 358.33 139.89C357.774 139.89 357.256 139.723 356.821 139.431C356.734 139.374 356.651 139.315 356.571 139.245C356.485 139.171 356.401 139.094 356.321 139.01C355.827 138.485 355.525 137.769 355.525 136.976C355.525 136.833 355.534 136.694 355.554 136.556C355.571 136.44 355.594 136.323 355.622 136.213C355.647 136.111 355.68 136.01 355.717 135.915C355.856 135.545 356.064 135.214 356.325 134.933C356.794 135.151 357.313 135.273 357.86 135.273C358.592 135.273 359.274 135.055 359.854 134.68C359.947 135.655 360.426 136.511 361.132 137.083H361.133Z" fill="#F4F4F5"/>
<path d="M366 134.333C366 135.941 364.744 137.25 363.197 137.25C362.639 137.25 362.117 137.08 361.681 136.785C361.577 136.717 361.481 136.642 361.386 136.559C361.259 136.448 361.142 136.322 361.036 136.191L361.033 136.188C360.786 135.879 360.602 135.517 360.496 135.122L360.493 135.118C360.447 134.953 360.419 134.782 360.401 134.605C360.392 134.516 360.391 134.426 360.391 134.333V134.262C360.391 134.262 360.404 134.25 360.41 134.244C361.036 133.653 361.466 132.845 361.598 131.939C362.052 131.61 362.605 131.42 363.197 131.42C364.744 131.42 366 132.726 366 134.333Z" fill="#F4F4F5"/>
<path d="M349.395 130.588C349.395 130.732 349.377 130.871 349.343 131.005C349.282 131.271 349.16 131.509 348.993 131.709C348.888 131.84 348.761 131.953 348.62 132.046C348.525 132.109 348.425 132.161 348.315 132.2C348.134 132.274 347.939 132.313 347.732 132.313C347.671 132.313 347.612 132.31 347.554 132.304C347.452 132.291 347.356 132.271 347.261 132.24C347.143 132.205 347.035 132.157 346.93 132.097C346.462 131.831 346.133 131.336 346.075 130.761C346.069 130.704 346.066 130.645 346.066 130.585C346.066 130.52 346.069 130.454 346.078 130.392C346.09 130.287 346.11 130.186 346.139 130.09C346.343 129.378 346.98 128.855 347.732 128.855C348.485 128.855 349.149 129.401 349.337 130.144C349.368 130.257 349.386 130.375 349.389 130.497C349.395 130.526 349.395 130.557 349.395 130.587V130.588Z" fill="#F4F4F5"/>
<path d="M361.086 131.351C361.086 131.447 361.083 131.539 361.075 131.632C361.063 131.78 361.039 131.93 361.011 132.073C361.011 132.076 361.008 132.076 361.008 132.076C360.879 132.694 360.584 133.246 360.177 133.682C360.1 133.765 360.018 133.845 359.933 133.916C359.906 133.94 359.881 133.961 359.853 133.981C359.801 134.026 359.749 134.068 359.691 134.107C359.603 134.173 359.508 134.233 359.413 134.289C358.951 134.555 358.421 134.703 357.857 134.703C357.493 134.703 357.14 134.641 356.813 134.522C356.71 134.487 356.609 134.445 356.51 134.397H356.507C356.414 134.352 356.325 134.301 356.239 134.247C355.68 133.91 355.226 133.4 354.945 132.79C354.744 132.354 354.633 131.864 354.633 131.351C354.633 131.304 354.633 131.253 354.633 131.206C354.709 129.425 356.126 128 357.855 128C359.585 128 361.084 129.502 361.084 131.351H361.086Z" fill="#F4F4F5"/>
<path d="M347.078 132.777C347.087 132.877 347.091 132.982 347.091 133.086C347.091 133.987 346.719 134.802 346.124 135.369C345.815 135.667 345.445 135.896 345.034 136.033C344.945 136.066 344.853 136.094 344.759 136.114C344.683 136.132 344.606 136.146 344.529 136.159C344.503 136.162 344.478 136.165 344.448 136.168C344.337 136.182 344.222 136.188 344.108 136.188C343.373 136.188 342.698 135.908 342.176 135.446C342.096 135.376 342.021 135.302 341.948 135.225C341.932 135.21 341.917 135.193 341.907 135.177C341.855 135.12 341.806 135.061 341.76 134.998C341.74 134.972 341.719 134.945 341.7 134.917C341.623 134.808 341.55 134.689 341.487 134.567C341.281 134.176 341.151 133.73 341.126 133.259C341.126 133.203 341.123 133.146 341.123 133.086C341.123 133.002 341.126 132.922 341.132 132.842C341.139 132.729 341.154 132.619 341.174 132.508C341.435 131.071 342.652 129.982 344.108 129.982C344.624 129.982 345.109 130.118 345.534 130.361C345.525 130.435 345.522 130.509 345.522 130.584C345.522 131.613 346.176 132.488 347.078 132.777Z" fill="#F4F4F5"/>
<path d="M354.084 131.354C354.084 131.904 354.193 132.425 354.39 132.899C354.334 133.686 353.97 134.387 353.421 134.873C353.306 134.975 353.183 135.068 353.053 135.148H353.037C353.037 135.148 353.034 135.148 353.034 135.151C352.615 135.414 352.145 135.565 351.618 135.565H351.553C351.398 135.562 351.25 135.545 351.102 135.514C349.814 135.261 348.836 134.083 348.836 132.675C348.836 132.643 348.836 132.613 348.839 132.581C349.501 132.183 349.945 131.44 349.945 130.59C349.945 130.519 349.944 130.445 349.935 130.374C350.402 130.003 350.988 129.783 351.618 129.783C352.689 129.783 353.619 130.415 354.084 131.34V131.354Z" fill="#F4F4F5"/>
<path d="M340.571 133.087C340.571 133.904 340.83 134.659 341.266 135.268C341.26 135.28 341.252 135.291 341.243 135.303C341.096 135.563 340.887 135.778 340.641 135.929C340.379 136.096 340.072 136.189 339.744 136.189C338.784 136.189 338 135.376 338 134.373C338 133.37 338.784 132.557 339.744 132.557C340.049 132.557 340.336 132.637 340.586 132.784C340.574 132.884 340.571 132.986 340.571 133.087Z" fill="#F4F4F5"/>
</g>
<path d="M178 51L347 51" stroke="url(#paint2_linear_5204_64228)" stroke-opacity="0.3" stroke-linecap="round"/>
<path d="M308 219L477 219" stroke="url(#paint3_linear_5204_64228)" stroke-opacity="0.3" stroke-linecap="round"/>
<g opacity="0.07" filter="url(#filter28_f_5204_64228)">
<path d="M218.169 -23.7232C94.5974 39.5531 14.6129 169.177 14.6129 169.177C14.6129 169.177 -57.9398 151.265 -85.031 147.259C-16.0184 118.112 -13.9822 43.6053 33.1821 -9.29715C68.6659 -20.6538 181.699 -17.5321 218.169 -23.7232Z" fill="url(#paint4_linear_5204_64228)"/>
</g>
<g opacity="0.2" filter="url(#filter29_f_5204_64228)">
<path d="M391.817 375.222C546.807 329.404 675.664 194.842 675.664 194.842C675.664 194.842 748.942 233.09 777.167 244.198C692.601 262.459 666.403 350.133 597.994 401.638C555.681 406.733 433.542 376.47 391.817 375.222Z" fill="url(#paint5_linear_5204_64228)"/>
</g>
<rect width="704" height="326" fill="url(#paint6_linear_5204_64228)"/>
<rect width="704" height="326" fill="url(#paint7_linear_5204_64228)"/>
</g>
<defs>
<filter id="filter0_i_5204_64228" x="160" y="-1" width="48" height="48" filterUnits="userSpaceOnUse" color-interpolation-filters="sRGB">
<feFlood flood-opacity="0" result="BackgroundImageFix"/>
<feBlend mode="normal" in="SourceGraphic" in2="BackgroundImageFix" result="shape"/>
<feColorMatrix in="SourceAlpha" type="matrix" values="0 0 0 0 0 0 0 0 0 0 0 0 0 0 0 0 0 0 127 0" result="hardAlpha"/>
<feOffset/>
<feGaussianBlur stdDeviation="2"/>
<feComposite in2="hardAlpha" operator="arithmetic" k2="-1" k3="1"/>
<feColorMatrix type="matrix" values="0 0 0 0 0.95 0 0 0 0 0.95 0 0 0 0 0.95 0 0 0 1 0"/>
<feBlend mode="normal" in2="shape" result="effect1_innerShadow_5204_64228"/>
</filter>
<filter id="filter1_i_5204_64228" x="160" y="111" width="48" height="104" filterUnits="userSpaceOnUse" color-interpolation-filters="sRGB">
<feFlood flood-opacity="0" result="BackgroundImageFix"/>
<feBlend mode="normal" in="SourceGraphic" in2="BackgroundImageFix" result="shape"/>
<feColorMatrix in="SourceAlpha" type="matrix" values="0 0 0 0 0 0 0 0 0 0 0 0 0 0 0 0 0 0 127 0" result="hardAlpha"/>
<feOffset/>
<feGaussianBlur stdDeviation="2"/>
<feComposite in2="hardAlpha" operator="arithmetic" k2="-1" k3="1"/>
<feColorMatrix type="matrix" values="0 0 0 0 0.95 0 0 0 0 0.95 0 0 0 0 0.95 0 0 0 1 0"/>
<feBlend mode="normal" in2="shape" result="effect1_innerShadow_5204_64228"/>
</filter>
<filter id="filter2_i_5204_64228" x="104" y="55" width="160" height="48" filterUnits="userSpaceOnUse" color-interpolation-filters="sRGB">
<feFlood flood-opacity="0" result="BackgroundImageFix"/>
<feBlend mode="normal" in="SourceGraphic" in2="BackgroundImageFix" result="shape"/>
<feColorMatrix in="SourceAlpha" type="matrix" values="0 0 0 0 0 0 0 0 0 0 0 0 0 0 0 0 0 0 127 0" result="hardAlpha"/>
<feOffset/>
<feGaussianBlur stdDeviation="2"/>
<feComposite in2="hardAlpha" operator="arithmetic" k2="-1" k3="1"/>
<feColorMatrix type="matrix" values="0 0 0 0 0.95 0 0 0 0 0.95 0 0 0 0 0.95 0 0 0 1 0"/>
<feBlend mode="normal" in2="shape" result="effect1_innerShadow_5204_64228"/>
</filter>
<filter id="filter3_i_5204_64228" x="160" y="279" width="160" height="48" filterUnits="userSpaceOnUse" color-interpolation-filters="sRGB">
<feFlood flood-opacity="0" result="BackgroundImageFix"/>
<feBlend mode="normal" in="SourceGraphic" in2="BackgroundImageFix" result="shape"/>
<feColorMatrix in="SourceAlpha" type="matrix" values="0 0 0 0 0 0 0 0 0 0 0 0 0 0 0 0 0 0 127 0" result="hardAlpha"/>
<feOffset/>
<feGaussianBlur stdDeviation="2"/>
<feComposite in2="hardAlpha" operator="arithmetic" k2="-1" k3="1"/>
<feColorMatrix type="matrix" values="0 0 0 0 0.95 0 0 0 0 0.95 0 0 0 0 0.95 0 0 0 1 0"/>
<feBlend mode="normal" in2="shape" result="effect1_innerShadow_5204_64228"/>
</filter>
<filter id="filter4_i_5204_64228" x="216" y="223" width="104" height="48" filterUnits="userSpaceOnUse" color-interpolation-filters="sRGB">
<feFlood flood-opacity="0" result="BackgroundImageFix"/>
<feBlend mode="normal" in="SourceGraphic" in2="BackgroundImageFix" result="shape"/>
<feColorMatrix in="SourceAlpha" type="matrix" values="0 0 0 0 0 0 0 0 0 0 0 0 0 0 0 0 0 0 127 0" result="hardAlpha"/>
<feOffset/>
<feGaussianBlur stdDeviation="2"/>
<feComposite in2="hardAlpha" operator="arithmetic" k2="-1" k3="1"/>
<feColorMatrix type="matrix" values="0 0 0 0 0.95 0 0 0 0 0.95 0 0 0 0 0.95 0 0 0 1 0"/>
<feBlend mode="normal" in2="shape" result="effect1_innerShadow_5204_64228"/>
</filter>
<filter id="filter5_i_5204_64228" x="496" y="279" width="104" height="48" filterUnits="userSpaceOnUse" color-interpolation-filters="sRGB">
<feFlood flood-opacity="0" result="BackgroundImageFix"/>
<feBlend mode="normal" in="SourceGraphic" in2="BackgroundImageFix" result="shape"/>
<feColorMatrix in="SourceAlpha" type="matrix" values="0 0 0 0 0 0 0 0 0 0 0 0 0 0 0 0 0 0 127 0" result="hardAlpha"/>
<feOffset/>
<feGaussianBlur stdDeviation="2"/>
<feComposite in2="hardAlpha" operator="arithmetic" k2="-1" k3="1"/>
<feColorMatrix type="matrix" values="0 0 0 0 0.95 0 0 0 0 0.95 0 0 0 0 0.95 0 0 0 1 0"/>
<feBlend mode="normal" in2="shape" result="effect1_innerShadow_5204_64228"/>
</filter>
<filter id="filter6_i_5204_64228" x="216" y="-1" width="104" height="48" filterUnits="userSpaceOnUse" color-interpolation-filters="sRGB">
<feFlood flood-opacity="0" result="BackgroundImageFix"/>
<feBlend mode="normal" in="SourceGraphic" in2="BackgroundImageFix" result="shape"/>
<feColorMatrix in="SourceAlpha" type="matrix" values="0 0 0 0 0 0 0 0 0 0 0 0 0 0 0 0 0 0 127 0" result="hardAlpha"/>
<feOffset/>
<feGaussianBlur stdDeviation="2"/>
<feComposite in2="hardAlpha" operator="arithmetic" k2="-1" k3="1"/>
<feColorMatrix type="matrix" values="0 0 0 0 0.95 0 0 0 0 0.95 0 0 0 0 0.95 0 0 0 1 0"/>
<feBlend mode="normal" in2="shape" result="effect1_innerShadow_5204_64228"/>
</filter>
<filter id="filter7_i_5204_64228" x="496" y="167" width="48" height="48" filterUnits="userSpaceOnUse" color-interpolation-filters="sRGB">
<feFlood flood-opacity="0" result="BackgroundImageFix"/>
<feBlend mode="normal" in="SourceGraphic" in2="BackgroundImageFix" result="shape"/>
<feColorMatrix in="SourceAlpha" type="matrix" values="0 0 0 0 0 0 0 0 0 0 0 0 0 0 0 0 0 0 127 0" result="hardAlpha"/>
<feOffset/>
<feGaussianBlur stdDeviation="2"/>
<feComposite in2="hardAlpha" operator="arithmetic" k2="-1" k3="1"/>
<feColorMatrix type="matrix" values="0 0 0 0 0.95 0 0 0 0 0.95 0 0 0 0 0.95 0 0 0 1 0"/>
<feBlend mode="normal" in2="shape" result="effect1_innerShadow_5204_64228"/>
</filter>
<filter id="filter8_i_5204_64228" x="552" y="55" width="48" height="104" filterUnits="userSpaceOnUse" color-interpolation-filters="sRGB">
<feFlood flood-opacity="0" result="BackgroundImageFix"/>
<feBlend mode="normal" in="SourceGraphic" in2="BackgroundImageFix" result="shape"/>
<feColorMatrix in="SourceAlpha" type="matrix" values="0 0 0 0 0 0 0 0 0 0 0 0 0 0 0 0 0 0 127 0" result="hardAlpha"/>
<feOffset/>
<feGaussianBlur stdDeviation="2"/>
<feComposite in2="hardAlpha" operator="arithmetic" k2="-1" k3="1"/>
<feColorMatrix type="matrix" values="0 0 0 0 0.95 0 0 0 0 0.95 0 0 0 0 0.95 0 0 0 1 0"/>
<feBlend mode="normal" in2="shape" result="effect1_innerShadow_5204_64228"/>
</filter>
<filter id="filter9_i_5204_64228" x="104" y="167" width="48" height="48" filterUnits="userSpaceOnUse" color-interpolation-filters="sRGB">
<feFlood flood-opacity="0" result="BackgroundImageFix"/>
<feBlend mode="normal" in="SourceGraphic" in2="BackgroundImageFix" result="shape"/>
<feColorMatrix in="SourceAlpha" type="matrix" values="0 0 0 0 0 0 0 0 0 0 0 0 0 0 0 0 0 0 127 0" result="hardAlpha"/>
<feOffset/>
<feGaussianBlur stdDeviation="2"/>
<feComposite in2="hardAlpha" operator="arithmetic" k2="-1" k3="1"/>
<feColorMatrix type="matrix" values="0 0 0 0 0.95 0 0 0 0 0.95 0 0 0 0 0.95 0 0 0 1 0"/>
<feBlend mode="normal" in2="shape" result="effect1_innerShadow_5204_64228"/>
</filter>
<filter id="filter10_i_5204_64228" x="328" y="55" width="48" height="48" filterUnits="userSpaceOnUse" color-interpolation-filters="sRGB">
<feFlood flood-opacity="0" result="BackgroundImageFix"/>
<feBlend mode="normal" in="SourceGraphic" in2="BackgroundImageFix" result="shape"/>
<feColorMatrix in="SourceAlpha" type="matrix" values="0 0 0 0 0 0 0 0 0 0 0 0 0 0 0 0 0 0 127 0" result="hardAlpha"/>
<feOffset/>
<feGaussianBlur stdDeviation="2"/>
<feComposite in2="hardAlpha" operator="arithmetic" k2="-1" k3="1"/>
<feColorMatrix type="matrix" values="0 0 0 0 0.95 0 0 0 0 0.95 0 0 0 0 0.95 0 0 0 1 0"/>
<feBlend mode="normal" in2="shape" result="effect1_innerShadow_5204_64228"/>
</filter>
<filter id="filter11_i_5204_64228" x="384" y="223" width="104" height="48" filterUnits="userSpaceOnUse" color-interpolation-filters="sRGB">
<feFlood flood-opacity="0" result="BackgroundImageFix"/>
<feBlend mode="normal" in="SourceGraphic" in2="BackgroundImageFix" result="shape"/>
<feColorMatrix in="SourceAlpha" type="matrix" values="0 0 0 0 0 0 0 0 0 0 0 0 0 0 0 0 0 0 127 0" result="hardAlpha"/>
<feOffset/>
<feGaussianBlur stdDeviation="2"/>
<feComposite in2="hardAlpha" operator="arithmetic" k2="-1" k3="1"/>
<feColorMatrix type="matrix" values="0 0 0 0 0.95 0 0 0 0 0.95 0 0 0 0 0.95 0 0 0 1 0"/>
<feBlend mode="normal" in2="shape" result="effect1_innerShadow_5204_64228"/>
</filter>
<filter id="filter12_i_5204_64228" x="384" y="-1" width="160" height="48" filterUnits="userSpaceOnUse" color-interpolation-filters="sRGB">
<feFlood flood-opacity="0" result="BackgroundImageFix"/>
<feBlend mode="normal" in="SourceGraphic" in2="BackgroundImageFix" result="shape"/>
<feColorMatrix in="SourceAlpha" type="matrix" values="0 0 0 0 0 0 0 0 0 0 0 0 0 0 0 0 0 0 127 0" result="hardAlpha"/>
<feOffset/>
<feGaussianBlur stdDeviation="2"/>
<feComposite in2="hardAlpha" operator="arithmetic" k2="-1" k3="1"/>
<feColorMatrix type="matrix" values="0 0 0 0 0.95 0 0 0 0 0.95 0 0 0 0 0.95 0 0 0 1 0"/>
<feBlend mode="normal" in2="shape" result="effect1_innerShadow_5204_64228"/>
</filter>
<filter id="filter13_i_5204_64228" x="272" y="111" width="48" height="48" filterUnits="userSpaceOnUse" color-interpolation-filters="sRGB">
<feFlood flood-opacity="0" result="BackgroundImageFix"/>
<feBlend mode="normal" in="SourceGraphic" in2="BackgroundImageFix" result="shape"/>
<feColorMatrix in="SourceAlpha" type="matrix" values="0 0 0 0 0 0 0 0 0 0 0 0 0 0 0 0 0 0 127 0" result="hardAlpha"/>
<feOffset/>
<feGaussianBlur stdDeviation="2"/>
<feComposite in2="hardAlpha" operator="arithmetic" k2="-1" k3="1"/>
<feColorMatrix type="matrix" values="0 0 0 0 0.95 0 0 0 0 0.95 0 0 0 0 0.95 0 0 0 1 0"/>
<feBlend mode="normal" in2="shape" result="effect1_innerShadow_5204_64228"/>
</filter>
<filter id="filter14_i_5204_64228" x="216" y="167" width="160" height="48" filterUnits="userSpaceOnUse" color-interpolation-filters="sRGB">
<feFlood flood-opacity="0" result="BackgroundImageFix"/>
<feBlend mode="normal" in="SourceGraphic" in2="BackgroundImageFix" result="shape"/>
<feColorMatrix in="SourceAlpha" type="matrix" values="0 0 0 0 0 0 0 0 0 0 0 0 0 0 0 0 0 0 127 0" result="hardAlpha"/>
<feOffset/>
<feGaussianBlur stdDeviation="2"/>
<feComposite in2="hardAlpha" operator="arithmetic" k2="-1" k3="1"/>
<feColorMatrix type="matrix" values="0 0 0 0 0.95 0 0 0 0 0.95 0 0 0 0 0.95 0 0 0 1 0"/>
<feBlend mode="normal" in2="shape" result="effect1_innerShadow_5204_64228"/>
</filter>
<filter id="filter15_i_5204_64228" x="104" y="223" width="48" height="104" filterUnits="userSpaceOnUse" color-interpolation-filters="sRGB">
<feFlood flood-opacity="0" result="BackgroundImageFix"/>
<feBlend mode="normal" in="SourceGraphic" in2="BackgroundImageFix" result="shape"/>
<feColorMatrix in="SourceAlpha" type="matrix" values="0 0 0 0 0 0 0 0 0 0 0 0 0 0 0 0 0 0 127 0" result="hardAlpha"/>
<feOffset/>
<feGaussianBlur stdDeviation="2"/>
<feComposite in2="hardAlpha" operator="arithmetic" k2="-1" k3="1"/>
<feColorMatrix type="matrix" values="0 0 0 0 0.95 0 0 0 0 0.95 0 0 0 0 0.95 0 0 0 1 0"/>
<feBlend mode="normal" in2="shape" result="effect1_innerShadow_5204_64228"/>
</filter>
<filter id="filter16_i_5204_64228" x="440" y="279" width="48" height="48" filterUnits="userSpaceOnUse" color-interpolation-filters="sRGB">
<feFlood flood-opacity="0" result="BackgroundImageFix"/>
<feBlend mode="normal" in="SourceGraphic" in2="BackgroundImageFix" result="shape"/>
<feColorMatrix in="SourceAlpha" type="matrix" values="0 0 0 0 0 0 0 0 0 0 0 0 0 0 0 0 0 0 127 0" result="hardAlpha"/>
<feOffset/>
<feGaussianBlur stdDeviation="2"/>
<feComposite in2="hardAlpha" operator="arithmetic" k2="-1" k3="1"/>
<feColorMatrix type="matrix" values="0 0 0 0 0.95 0 0 0 0 0.95 0 0 0 0 0.95 0 0 0 1 0"/>
<feBlend mode="normal" in2="shape" result="effect1_innerShadow_5204_64228"/>
</filter>
<filter id="filter17_i_5204_64228" x="384" y="279" width="48" height="48" filterUnits="userSpaceOnUse" color-interpolation-filters="sRGB">
<feFlood flood-opacity="0" result="BackgroundImageFix"/>
<feBlend mode="normal" in="SourceGraphic" in2="BackgroundImageFix" result="shape"/>
<feColorMatrix in="SourceAlpha" type="matrix" values="0 0 0 0 0 0 0 0 0 0 0 0 0 0 0 0 0 0 127 0" result="hardAlpha"/>
<feOffset/>
<feGaussianBlur stdDeviation="2"/>
<feComposite in2="hardAlpha" operator="arithmetic" k2="-1" k3="1"/>
<feColorMatrix type="matrix" values="0 0 0 0 0.95 0 0 0 0 0.95 0 0 0 0 0.95 0 0 0 1 0"/>
<feBlend mode="normal" in2="shape" result="effect1_innerShadow_5204_64228"/>
</filter>
<filter id="filter18_i_5204_64228" x="104" y="-1" width="48" height="48" filterUnits="userSpaceOnUse" color-interpolation-filters="sRGB">
<feFlood flood-opacity="0" result="BackgroundImageFix"/>
<feBlend mode="normal" in="SourceGraphic" in2="BackgroundImageFix" result="shape"/>
<feColorMatrix in="SourceAlpha" type="matrix" values="0 0 0 0 0 0 0 0 0 0 0 0 0 0 0 0 0 0 127 0" result="hardAlpha"/>
<feOffset/>
<feGaussianBlur stdDeviation="2"/>
<feComposite in2="hardAlpha" operator="arithmetic" k2="-1" k3="1"/>
<feColorMatrix type="matrix" values="0 0 0 0 0.95 0 0 0 0 0.95 0 0 0 0 0.95 0 0 0 1 0"/>
<feBlend mode="normal" in2="shape" result="effect1_innerShadow_5204_64228"/>
</filter>
<filter id="filter19_i_5204_64228" x="328" y="223" width="48" height="104" filterUnits="userSpaceOnUse" color-interpolation-filters="sRGB">
<feFlood flood-opacity="0" result="BackgroundImageFix"/>
<feBlend mode="normal" in="SourceGraphic" in2="BackgroundImageFix" result="shape"/>
<feColorMatrix in="SourceAlpha" type="matrix" values="0 0 0 0 0 0 0 0 0 0 0 0 0 0 0 0 0 0 127 0" result="hardAlpha"/>
<feOffset/>
<feGaussianBlur stdDeviation="2"/>
<feComposite in2="hardAlpha" operator="arithmetic" k2="-1" k3="1"/>
<feColorMatrix type="matrix" values="0 0 0 0 0.95 0 0 0 0 0.95 0 0 0 0 0.95 0 0 0 1 0"/>
<feBlend mode="normal" in2="shape" result="effect1_innerShadow_5204_64228"/>
</filter>
<filter id="filter20_i_5204_64228" x="328" y="-1" width="48" height="48" filterUnits="userSpaceOnUse" color-interpolation-filters="sRGB">
<feFlood flood-opacity="0" result="BackgroundImageFix"/>
<feBlend mode="normal" in="SourceGraphic" in2="BackgroundImageFix" result="shape"/>
<feColorMatrix in="SourceAlpha" type="matrix" values="0 0 0 0 0 0 0 0 0 0 0 0 0 0 0 0 0 0 127 0" result="hardAlpha"/>
<feOffset/>
<feGaussianBlur stdDeviation="2"/>
<feComposite in2="hardAlpha" operator="arithmetic" k2="-1" k3="1"/>
<feColorMatrix type="matrix" values="0 0 0 0 0.95 0 0 0 0 0.95 0 0 0 0 0.95 0 0 0 1 0"/>
<feBlend mode="normal" in2="shape" result="effect1_innerShadow_5204_64228"/>
</filter>
<filter id="filter21_i_5204_64228" x="384" y="55" width="48" height="104" filterUnits="userSpaceOnUse" color-interpolation-filters="sRGB">
<feFlood flood-opacity="0" result="BackgroundImageFix"/>
<feBlend mode="normal" in="SourceGraphic" in2="BackgroundImageFix" result="shape"/>
<feColorMatrix in="SourceAlpha" type="matrix" values="0 0 0 0 0 0 0 0 0 0 0 0 0 0 0 0 0 0 127 0" result="hardAlpha"/>
<feOffset/>
<feGaussianBlur stdDeviation="2"/>
<feComposite in2="hardAlpha" operator="arithmetic" k2="-1" k3="1"/>
<feColorMatrix type="matrix" values="0 0 0 0 0.95 0 0 0 0 0.95 0 0 0 0 0.95 0 0 0 1 0"/>
<feBlend mode="normal" in2="shape" result="effect1_innerShadow_5204_64228"/>
</filter>
<filter id="filter22_i_5204_64228" x="496" y="55" width="48" height="48" filterUnits="userSpaceOnUse" color-interpolation-filters="sRGB">
<feFlood flood-opacity="0" result="BackgroundImageFix"/>
<feBlend mode="normal" in="SourceGraphic" in2="BackgroundImageFix" result="shape"/>
<feColorMatrix in="SourceAlpha" type="matrix" values="0 0 0 0 0 0 0 0 0 0 0 0 0 0 0 0 0 0 127 0" result="hardAlpha"/>
<feOffset/>
<feGaussianBlur stdDeviation="2"/>
<feComposite in2="hardAlpha" operator="arithmetic" k2="-1" k3="1"/>
<feColorMatrix type="matrix" values="0 0 0 0 0.95 0 0 0 0 0.95 0 0 0 0 0.95 0 0 0 1 0"/>
<feBlend mode="normal" in2="shape" result="effect1_innerShadow_5204_64228"/>
</filter>
<filter id="filter23_i_5204_64228" x="552" y="167" width="48" height="48" filterUnits="userSpaceOnUse" color-interpolation-filters="sRGB">
<feFlood flood-opacity="0" result="BackgroundImageFix"/>
<feBlend mode="normal" in="SourceGraphic" in2="BackgroundImageFix" result="shape"/>
<feColorMatrix in="SourceAlpha" type="matrix" values="0 0 0 0 0 0 0 0 0 0 0 0 0 0 0 0 0 0 127 0" result="hardAlpha"/>
<feOffset/>
<feGaussianBlur stdDeviation="2"/>
<feComposite in2="hardAlpha" operator="arithmetic" k2="-1" k3="1"/>
<feColorMatrix type="matrix" values="0 0 0 0 0.95 0 0 0 0 0.95 0 0 0 0 0.95 0 0 0 1 0"/>
<feBlend mode="normal" in2="shape" result="effect1_innerShadow_5204_64228"/>
</filter>
<filter id="filter24_i_5204_64228" x="552" y="223" width="48" height="48" filterUnits="userSpaceOnUse" color-interpolation-filters="sRGB">
<feFlood flood-opacity="0" result="BackgroundImageFix"/>
<feBlend mode="normal" in="SourceGraphic" in2="BackgroundImageFix" result="shape"/>
<feColorMatrix in="SourceAlpha" type="matrix" values="0 0 0 0 0 0 0 0 0 0 0 0 0 0 0 0 0 0 127 0" result="hardAlpha"/>
<feOffset/>
<feGaussianBlur stdDeviation="2"/>
<feComposite in2="hardAlpha" operator="arithmetic" k2="-1" k3="1"/>
<feColorMatrix type="matrix" values="0 0 0 0 0.95 0 0 0 0 0.95 0 0 0 0 0.95 0 0 0 1 0"/>
<feBlend mode="normal" in2="shape" result="effect1_innerShadow_5204_64228"/>
</filter>
<filter id="filter25_i_5204_64228" x="552" y="-1" width="48" height="48" filterUnits="userSpaceOnUse" color-interpolation-filters="sRGB">
<feFlood flood-opacity="0" result="BackgroundImageFix"/>
<feBlend mode="normal" in="SourceGraphic" in2="BackgroundImageFix" result="shape"/>
<feColorMatrix in="SourceAlpha" type="matrix" values="0 0 0 0 0 0 0 0 0 0 0 0 0 0 0 0 0 0 127 0" result="hardAlpha"/>
<feOffset/>
<feGaussianBlur stdDeviation="2"/>
<feComposite in2="hardAlpha" operator="arithmetic" k2="-1" k3="1"/>
<feColorMatrix type="matrix" values="0 0 0 0 0.95 0 0 0 0 0.95 0 0 0 0 0.95 0 0 0 1 0"/>
<feBlend mode="normal" in2="shape" result="effect1_innerShadow_5204_64228"/>
</filter>
<filter id="filter26_i_5204_64228" x="440" y="111" width="48" height="104" filterUnits="userSpaceOnUse" color-interpolation-filters="sRGB">
<feFlood flood-opacity="0" result="BackgroundImageFix"/>
<feBlend mode="normal" in="SourceGraphic" in2="BackgroundImageFix" result="shape"/>
<feColorMatrix in="SourceAlpha" type="matrix" values="0 0 0 0 0 0 0 0 0 0 0 0 0 0 0 0 0 0 127 0" result="hardAlpha"/>
<feOffset/>
<feGaussianBlur stdDeviation="2"/>
<feComposite in2="hardAlpha" operator="arithmetic" k2="-1" k3="1"/>
<feColorMatrix type="matrix" values="0 0 0 0 0.95 0 0 0 0 0.95 0 0 0 0 0.95 0 0 0 1 0"/>
<feBlend mode="normal" in2="shape" result="effect1_innerShadow_5204_64228"/>
</filter>
<filter id="filter27_ddi_5204_64228" x="296" y="89" width="112" height="112" filterUnits="userSpaceOnUse" color-interpolation-filters="sRGB">
<feFlood flood-opacity="0" result="BackgroundImageFix"/>
<feColorMatrix in="SourceAlpha" type="matrix" values="0 0 0 0 0 0 0 0 0 0 0 0 0 0 0 0 0 0 127 0" result="hardAlpha"/>
<feOffset dy="4"/>
<feGaussianBlur stdDeviation="8"/>
<feComposite in2="hardAlpha" operator="out"/>
<feColorMatrix type="matrix" values="0 0 0 0 0.0588235 0 0 0 0 0.141176 0 0 0 0 0.0666667 0 0 0 0.02 0"/>
<feBlend mode="normal" in2="BackgroundImageFix" result="effect1_dropShadow_5204_64228"/>
<feColorMatrix in="SourceAlpha" type="matrix" values="0 0 0 0 0 0 0 0 0 0 0 0 0 0 0 0 0 0 127 0" result="hardAlpha"/>
<feOffset dy="10"/>
<feGaussianBlur stdDeviation="16"/>
<feComposite in2="hardAlpha" operator="out"/>
<feColorMatrix type="matrix" values="0 0 0 0 0.14902 0 0 0 0 0.415686 0 0 0 0 0.913725 0 0 0 0.2 0"/>
<feBlend mode="normal" in2="effect1_dropShadow_5204_64228" result="effect2_dropShadow_5204_64228"/>
<feBlend mode="normal" in="SourceGraphic" in2="effect2_dropShadow_5204_64228" result="shape"/>
<feColorMatrix in="SourceAlpha" type="matrix" values="0 0 0 0 0 0 0 0 0 0 0 0 0 0 0 0 0 0 127 0" result="hardAlpha"/>
<feOffset dy="8"/>
<feGaussianBlur stdDeviation="4"/>
<feComposite in2="hardAlpha" operator="arithmetic" k2="-1" k3="1"/>
<feColorMatrix type="matrix" values="0 0 0 0 1 0 0 0 0 1 0 0 0 0 1 0 0 0 0.25 0"/>
<feBlend mode="normal" in2="shape" result="effect3_innerShadow_5204_64228"/>
</filter>
<filter id="filter28_f_5204_64228" x="-285.031" y="-223.723" width="703.201" height="592.9" filterUnits="userSpaceOnUse" color-interpolation-filters="sRGB">
<feFlood flood-opacity="0" result="BackgroundImageFix"/>
<feBlend mode="normal" in="SourceGraphic" in2="BackgroundImageFix" result="shape"/>
<feGaussianBlur stdDeviation="100" result="effect1_foregroundBlur_5204_64228"/>
</filter>
<filter id="filter29_f_5204_64228" x="191.816" y="-5.1582" width="785.352" height="607.373" filterUnits="userSpaceOnUse" color-interpolation-filters="sRGB">
<feFlood flood-opacity="0" result="BackgroundImageFix"/>
<feBlend mode="normal" in="SourceGraphic" in2="BackgroundImageFix" result="shape"/>
<feGaussianBlur stdDeviation="100" result="effect1_foregroundBlur_5204_64228"/>
</filter>
<linearGradient id="paint0_linear_5204_64228" x1="548" y1="192.5" x2="548" y2="65" gradientUnits="userSpaceOnUse">
<stop stop-color="#FAFAFA"/>
<stop offset="0.534678" stop-color="#266AE9"/>
<stop offset="1" stop-color="#FAFAFA"/>
</linearGradient>
<linearGradient id="paint1_linear_5204_64228" x1="212" y1="272.5" x2="212" y2="145" gradientUnits="userSpaceOnUse">
<stop stop-color="#FAFAFA"/>
<stop offset="0.534678" stop-color="#266AE9"/>
<stop offset="1" stop-color="#FAFAFA"/>
</linearGradient>
<linearGradient id="paint2_linear_5204_64228" x1="305.5" y1="51" x2="178" y2="51" gradientUnits="userSpaceOnUse">
<stop stop-color="#FAFAFA"/>
<stop offset="0.534678" stop-color="#266AE9"/>
<stop offset="1" stop-color="#FAFAFA"/>
</linearGradient>
<linearGradient id="paint3_linear_5204_64228" x1="435.5" y1="219" x2="308" y2="219" gradientUnits="userSpaceOnUse">
<stop stop-color="#FAFAFA"/>
<stop offset="0.534678" stop-color="#266AE9"/>
<stop offset="1" stop-color="#FAFAFA"/>
</linearGradient>
<linearGradient id="paint4_linear_5204_64228" x1="-214.615" y1="186.652" x2="-254.39" y2="68.6232" gradientUnits="userSpaceOnUse">
<stop stop-color="#5C85D5"/>
<stop offset="1" stop-color="#C3A7F3"/>
</linearGradient>
<linearGradient id="paint5_linear_5204_64228" x1="931.022" y1="228.05" x2="951.101" y2="375.032" gradientUnits="userSpaceOnUse">
<stop stop-color="#5C85D5"/>
<stop offset="1" stop-color="#C3A7F3"/>
</linearGradient>
<linearGradient id="paint6_linear_5204_64228" x1="352.655" y1="0" x2="352.655" y2="326" gradientUnits="userSpaceOnUse">
<stop stop-color="#FAFAFA"/>
<stop offset="0.2" stop-color="#FAFAFA" stop-opacity="0"/>
<stop offset="0.8" stop-color="#FAFAFA" stop-opacity="0"/>
<stop offset="1" stop-color="#FAFAFA"/>
</linearGradient>
<linearGradient id="paint7_linear_5204_64228" x1="0" y1="143.824" x2="704" y2="143.824" gradientUnits="userSpaceOnUse">
<stop stop-color="#FAFAFA"/>
<stop offset="0.2" stop-color="#FAFAFA" stop-opacity="0"/>
<stop offset="0.8" stop-color="#FAFAFA" stop-opacity="0"/>
<stop offset="1" stop-color="#FAFAFA"/>
</linearGradient>
<clipPath id="clip0_5204_64228">
<rect width="704" height="326" fill="white"/>
</clipPath>
</defs>
</svg>
