<svg width="358" height="230" viewBox="0 0 358 230" fill="none" xmlns="http://www.w3.org/2000/svg">
<g clip-path="url(#clip0_5204_66354)">
<g clip-path="url(#clip1_5204_66354)">
<mask id="mask0_5204_66354" style="mask-type:luminance" maskUnits="userSpaceOnUse" x="-47" y="4" width="452" height="210">
<path d="M405 4.5H-47V213.5H405V4.5Z" fill="white"/>
</mask>
<g mask="url(#mask0_5204_66354)">
<path d="M304.84 46.1719V154.518" stroke="url(#paint0_linear_5204_66354)" stroke-opacity="0.3" stroke-linecap="round"/>
<path d="M89.1133 97.4609V205.808" stroke="url(#paint1_linear_5204_66354)" stroke-opacity="0.3" stroke-linecap="round"/>
<path d="M114.797 75.9824H99.3874C95.3096 75.9824 92.0039 79.2833 92.0039 83.3551V98.7416C92.0039 102.813 95.3096 106.114 99.3874 106.114H114.797C118.874 106.114 122.18 102.813 122.18 98.7416V83.3551C122.18 79.2833 118.874 75.9824 114.797 75.9824Z" fill="white"/>
<path d="M114.797 75.9824H99.3874C95.3096 75.9824 92.0039 79.2833 92.0039 83.3551V98.7416C92.0039 102.813 95.3096 106.114 99.3874 106.114H114.797C118.874 106.114 122.18 102.813 122.18 98.7416V83.3551C122.18 79.2833 118.874 75.9824 114.797 75.9824Z" stroke="#F7F7F7"/>
<path d="M104.522 87.8437L107.091 85.2793M107.091 85.2793L109.659 87.8437M107.091 85.2793V88.7374M107.091 88.7374C107.091 89.4484 106.915 90.1485 106.579 90.7755C106.243 91.4025 105.757 91.9372 105.164 92.3314C104.572 92.7257 104.086 93.2604 103.75 93.8874C103.414 94.5144 103.238 95.2145 103.238 95.9255V96.8192M107.091 88.7374C107.091 89.4484 107.266 90.1485 107.602 90.7755C107.938 91.4025 108.424 91.9372 109.017 92.3314C109.609 92.7257 110.095 93.2604 110.431 93.8874C110.767 94.5144 110.943 95.2145 110.943 95.9255V96.8192" stroke="#3F3F46" stroke-linecap="round" stroke-linejoin="round"/>
<path d="M78.8395 147.787H63.4304C59.3526 147.787 56.0469 151.088 56.0469 155.16V170.546C56.0469 174.618 59.3526 177.919 63.4304 177.919H78.8395C82.9173 177.919 86.223 174.618 86.223 170.546V155.16C86.223 151.088 82.9173 147.787 78.8395 147.787Z" fill="white"/>
<path d="M78.8395 147.787H63.4304C59.3526 147.787 56.0469 151.088 56.0469 155.16V170.546C56.0469 174.618 59.3526 177.919 63.4304 177.919H78.8395C82.9173 177.919 86.223 174.618 86.223 170.546V155.16C86.223 151.088 82.9173 147.787 78.8395 147.787Z" stroke="#F7F7F7"/>
<path d="M65.3569 163.493V158.364C65.3569 158.024 65.4924 157.698 65.7331 157.458C65.9739 157.217 66.3007 157.082 66.641 157.082H75.6296C75.9699 157.082 76.2967 157.217 76.5375 157.458C76.7782 157.698 76.9137 158.024 76.9137 158.364V167.34C76.9137 167.679 76.7782 168.006 76.5375 168.246C76.2967 168.487 75.9699 168.622 75.6296 168.622H70.4933M65.3569 161.57H76.9137M69.8512 157.082V164.134M64.7148 169.263L67.9251 166.057M67.9251 166.057V168.942M67.9251 166.057H65.0359" stroke="#3F3F46" stroke-linecap="round" stroke-linejoin="round"/>
<g filter="url(#filter0_i_5204_66354)">
<path d="M78.8402 3.85938H63.4311C59.176 3.85938 55.7266 7.30376 55.7266 11.5526V26.9391C55.7266 31.188 59.176 34.6324 63.4311 34.6324H78.8402C83.0953 34.6324 86.5447 31.188 86.5447 26.9391V11.5526C86.5447 7.30376 83.0953 3.85938 78.8402 3.85938Z" fill="#F7F7F7"/>
<path d="M78.8395 4.17969H63.4304C59.3526 4.17969 56.0469 7.48056 56.0469 11.5524V26.9389C56.0469 31.0107 59.3526 34.3116 63.4304 34.3116H78.8395C82.9173 34.3116 86.223 31.0107 86.223 26.9389V11.5524C86.223 7.48056 82.9173 4.17969 78.8395 4.17969Z" stroke="#F5F5F5"/>
</g>
<path d="M42.8864 75.9824H27.4773C23.3995 75.9824 20.0938 79.2833 20.0938 83.3551V98.7416C20.0938 102.813 23.3995 106.114 27.4773 106.114H42.8864C46.9642 106.114 50.2699 102.813 50.2699 98.7416V83.3551C50.2699 79.2833 46.9642 75.9824 42.8864 75.9824Z" fill="white"/>
<path d="M42.8864 75.9824H27.4773C23.3995 75.9824 20.0938 79.2833 20.0938 83.3551V98.7416C20.0938 102.813 23.3995 106.114 27.4773 106.114H42.8864C46.9642 106.114 50.2699 102.813 50.2699 98.7416V83.3551C50.2699 79.2833 46.9642 75.9824 42.8864 75.9824Z" stroke="#F7F7F7"/>
<path d="M34.8482 96.7704C34.6645 96.7166 34.4983 96.614 34.3679 96.4743C34.2369 96.3345 34.1464 96.162 34.1053 95.9748C34.0642 95.8056 33.984 95.6485 33.8703 95.5165C33.7573 95.3844 33.6142 95.2805 33.453 95.2138C33.2925 95.1472 33.1179 95.1196 32.9439 95.1331C32.7705 95.1465 32.6023 95.201 32.4533 95.2914C31.4627 95.8941 30.3282 94.7619 30.9317 93.772C31.0222 93.6233 31.0768 93.4559 31.0896 93.2822C31.1031 93.1091 31.0755 92.9347 31.0087 92.7744C30.9426 92.6135 30.8386 92.4706 30.7063 92.3577C30.5741 92.2443 30.4174 92.1641 30.2479 92.1231C29.1205 91.85 29.1205 90.2485 30.2479 89.9754C30.4174 89.9344 30.5747 89.8542 30.707 89.7407C30.8392 89.6279 30.9433 89.4849 31.01 89.324C31.0768 89.1638 31.1044 88.9894 31.0909 88.8156C31.0774 88.6425 31.0229 88.4746 30.9323 88.3258C30.3288 87.3366 31.4627 86.2038 32.454 86.8064C33.096 87.1962 33.9281 86.8513 34.1053 86.1236C34.3788 84.9979 35.9827 84.9979 36.2562 86.1236C36.2973 86.2929 36.3775 86.45 36.4912 86.582C36.6042 86.7141 36.7473 86.8179 36.9085 86.8846C37.069 86.9513 37.2436 86.9789 37.4176 86.9654C37.591 86.9519 37.7592 86.8974 37.9082 86.807C38.8988 86.2044 40.0333 87.3366 39.4298 88.3265C39.3393 88.4752 39.2847 88.6425 39.2719 88.8163C39.2584 88.9894 39.286 89.1638 39.3528 89.324C39.4189 89.4849 39.5229 89.6279 39.6552 89.7407C39.7874 89.8542 39.9441 89.9344 40.1136 89.9754C40.956 90.1793 41.1691 91.1255 40.7524 91.7044M40.3171 96.8192L41.6012 95.537L40.3171 94.2548M38.391 94.2548L37.1069 95.537L38.391 96.8192M33.2546 91.0492C33.2546 91.5596 33.4575 92.0487 33.819 92.409C34.1798 92.77 34.6697 92.9725 35.1808 92.9725C35.6918 92.9725 36.1817 92.77 36.5425 92.409C36.904 92.0487 37.1069 91.5596 37.1069 91.0492C37.1069 90.5389 36.904 90.0498 36.5425 89.6895C36.1817 89.3285 35.6918 89.1259 35.1808 89.1259C34.6697 89.1259 34.1798 89.3285 33.819 89.6895C33.4575 90.0498 33.2546 90.5389 33.2546 91.0492Z" stroke="#3F3F46" stroke-linecap="round" stroke-linejoin="round"/>
<path d="M294.57 147.787H279.161C275.083 147.787 271.777 151.088 271.777 155.16V170.546C271.777 174.618 275.083 177.919 279.161 177.919H294.57C298.648 177.919 301.953 174.618 301.953 170.546V155.16C301.953 151.088 298.648 147.787 294.57 147.787Z" fill="white"/>
<path d="M294.57 147.787H279.161C275.083 147.787 271.777 151.088 271.777 155.16V170.546C271.777 174.618 275.083 177.919 279.161 177.919H294.57C298.648 177.919 301.953 174.618 301.953 170.546V155.16C301.953 151.088 298.648 147.787 294.57 147.787Z" stroke="#F7F7F7"/>
<path d="M285.334 167.982H283.655C283.315 167.982 282.988 167.847 282.747 167.607C282.507 167.366 282.371 167.04 282.371 166.7V159.007C282.371 158.667 282.507 158.341 282.747 158.1C282.988 157.86 283.315 157.725 283.655 157.725H288.792C289.132 157.725 289.459 157.86 289.699 158.1C289.94 158.341 290.076 158.667 290.076 159.007V164.136M288.15 167.341L289.434 168.623L292.002 166.059M284.939 160.289H287.507M284.939 162.853H286.223" stroke="#3F3F46" stroke-linecap="round" stroke-linejoin="round"/>
<path d="M150.75 40.082H135.341C131.263 40.082 127.957 43.3829 127.957 47.4547V62.8412C127.957 66.9131 131.263 70.2139 135.341 70.2139H150.75C154.827 70.2139 158.133 66.9131 158.133 62.8412V47.4547C158.133 43.3829 154.827 40.082 150.75 40.082Z" fill="white"/>
<path d="M150.75 40.082H135.341C131.263 40.082 127.957 43.3829 127.957 47.4547V62.8412C127.957 66.9131 131.263 70.2139 135.341 70.2139H150.75C154.827 70.2139 158.133 66.9131 158.133 62.8412V47.4547C158.133 43.3829 154.827 40.082 150.75 40.082Z" stroke="#F7F7F7"/>
<path d="M137.91 51.3003C137.91 51.8103 138.451 52.2996 139.414 52.6602C140.378 53.0209 141.684 53.2236 143.047 53.2236C144.409 53.2236 145.716 53.0209 146.679 52.6602C147.642 52.2996 148.183 51.8103 148.183 51.3003M137.91 51.3003C137.91 50.7902 138.451 50.301 139.414 49.9403C140.378 49.5796 141.684 49.377 143.047 49.377C144.409 49.377 145.716 49.5796 146.679 49.9403C147.642 50.301 148.183 50.7902 148.183 51.3003M137.91 51.3003V55.1469M148.183 51.3003V55.1469M137.91 55.1469C137.91 55.657 138.451 56.1462 139.414 56.5069C140.378 56.8676 141.684 57.0702 143.047 57.0702C144.409 57.0702 145.716 56.8676 146.679 56.5069C147.642 56.1462 148.183 55.657 148.183 55.1469M137.91 55.1469V58.9935C137.91 59.5036 138.451 59.9928 139.414 60.3535C140.378 60.7142 141.684 60.9168 143.047 60.9168C144.409 60.9168 145.716 60.7142 146.679 60.3535C147.642 59.9928 148.183 59.5036 148.183 58.9935V55.1469" stroke="#3F3F46" stroke-linecap="round" stroke-linejoin="round"/>
<path d="M222.66 111.885H207.251C203.173 111.885 199.867 115.186 199.867 119.257V134.644C199.867 138.716 203.173 142.017 207.251 142.017H222.66C226.738 142.017 230.043 138.716 230.043 134.644V119.257C230.043 115.186 226.738 111.885 222.66 111.885Z" fill="white"/>
<path d="M222.66 111.885H207.251C203.173 111.885 199.867 115.186 199.867 119.257V134.644C199.867 138.716 203.173 142.017 207.251 142.017H222.66C226.738 142.017 230.043 138.716 230.043 134.644V119.257C230.043 115.186 226.738 111.885 222.66 111.885Z" stroke="#F7F7F7"/>
<path d="M209.816 126.951L214.953 129.516L220.089 126.951M209.816 129.516L214.953 132.08L220.089 129.516M214.953 121.822L209.816 124.387L214.953 126.951L220.089 124.387L214.953 121.822Z" stroke="#3F3F46" stroke-linecap="round" stroke-linejoin="round"/>
<g filter="url(#filter1_i_5204_66354)">
<path d="M78.8402 75.6621H63.4311C59.176 75.6621 55.7266 79.1065 55.7266 83.3554V134.644C55.7266 138.893 59.176 142.337 63.4311 142.337H78.8402C83.0953 142.337 86.5447 138.893 86.5447 134.644V83.3554C86.5447 79.1065 83.0953 75.6621 78.8402 75.6621Z" fill="#F7F7F7"/>
<path d="M78.8395 75.9824H63.4304C59.3526 75.9824 56.0469 79.2833 56.0469 83.3551V134.643C56.0469 138.715 59.3526 142.016 63.4304 142.016H78.8395C82.9173 142.016 86.223 138.715 86.223 134.643V83.3551C86.223 79.2833 82.9173 75.9824 78.8395 75.9824Z" stroke="#F5F5F5"/>
</g>
<g filter="url(#filter2_i_5204_66354)">
<path d="M114.796 39.7617H27.478C23.2229 39.7617 19.7734 43.2061 19.7734 47.455V62.8415C19.7734 67.0903 23.2229 70.5347 27.478 70.5347H114.796C119.051 70.5347 122.501 67.0903 122.501 62.8415V47.455C122.501 43.2061 119.051 39.7617 114.796 39.7617Z" fill="#F7F7F7"/>
<path d="M114.795 40.082H27.4773C23.3995 40.082 20.0938 43.3829 20.0938 47.4547V62.8412C20.0938 66.9131 23.3995 70.2139 27.4773 70.2139H114.795C118.873 70.2139 122.179 66.9131 122.179 62.8412V47.4547C122.179 43.3829 118.873 40.082 114.795 40.082Z" stroke="#F5F5F5"/>
</g>
<g filter="url(#filter3_i_5204_66354)">
<path d="M150.749 183.369H63.4311C59.176 183.369 55.7266 186.814 55.7266 191.062V206.449C55.7266 210.698 59.176 214.142 63.4311 214.142H150.749C155.004 214.142 158.454 210.698 158.454 206.449V191.062C158.454 186.814 155.004 183.369 150.749 183.369Z" fill="#F7F7F7"/>
<path d="M150.749 183.689H63.4304C59.3526 183.689 56.0469 186.99 56.0469 191.062V206.449C56.0469 210.52 59.3526 213.821 63.4304 213.821H150.749C154.826 213.821 158.132 210.52 158.132 206.449V191.062C158.132 186.99 154.826 183.689 150.749 183.689Z" stroke="#F5F5F5"/>
</g>
<g filter="url(#filter4_i_5204_66354)">
<path d="M150.752 147.467H99.3881C95.133 147.467 91.6836 150.911 91.6836 155.16V170.547C91.6836 174.795 95.133 178.24 99.3881 178.24H150.752C155.007 178.24 158.456 174.795 158.456 170.547V155.16C158.456 150.911 155.007 147.467 150.752 147.467Z" fill="#F7F7F7"/>
<path d="M150.751 147.787H99.3874C95.3096 147.787 92.0039 151.088 92.0039 155.16V170.546C92.0039 174.618 95.3096 177.919 99.3874 177.919H150.751C154.829 177.919 158.135 174.618 158.135 170.546V155.16C158.135 151.088 154.829 147.787 150.751 147.787Z" stroke="#F5F5F5"/>
</g>
<g filter="url(#filter5_i_5204_66354)">
<path d="M330.521 183.369H279.158C274.903 183.369 271.453 186.814 271.453 191.062V206.449C271.453 210.698 274.903 214.142 279.158 214.142H330.521C334.776 214.142 338.226 210.698 338.226 206.449V191.062C338.226 186.814 334.776 183.369 330.521 183.369Z" fill="#F7F7F7"/>
<path d="M330.521 183.689H279.157C275.079 183.689 271.773 186.99 271.773 191.062V206.449C271.773 210.52 275.079 213.821 279.157 213.821H330.521C334.598 213.821 337.904 210.52 337.904 206.449V191.062C337.904 186.99 334.598 183.689 330.521 183.689Z" stroke="#F5F5F5"/>
</g>
<g filter="url(#filter6_i_5204_66354)">
<path d="M150.752 3.85938H99.3881C95.133 3.85938 91.6836 7.30376 91.6836 11.5526V26.9391C91.6836 31.188 95.133 34.6324 99.3881 34.6324H150.752C155.007 34.6324 158.456 31.188 158.456 26.9391V11.5526C158.456 7.30376 155.007 3.85938 150.752 3.85938Z" fill="#F7F7F7"/>
<path d="M150.751 4.17969H99.3874C95.3096 4.17969 92.0039 7.48056 92.0039 11.5524V26.9389C92.0039 31.0107 95.3096 34.3116 99.3874 34.3116H150.751C154.829 34.3116 158.135 31.0107 158.135 26.9389V11.5524C158.135 7.48056 154.829 4.17969 150.751 4.17969Z" stroke="#F5F5F5"/>
</g>
<g filter="url(#filter7_i_5204_66354)">
<path d="M294.567 111.564H279.158C274.903 111.564 271.453 115.009 271.453 119.258V134.644C271.453 138.893 274.903 142.337 279.158 142.337H294.567C298.822 142.337 302.271 138.893 302.271 134.644V119.258C302.271 115.009 298.822 111.564 294.567 111.564Z" fill="#F7F7F7"/>
<path d="M294.566 111.885H279.157C275.079 111.885 271.773 115.186 271.773 119.257V134.644C271.773 138.716 275.079 142.017 279.157 142.017H294.566C298.644 142.017 301.95 138.716 301.95 134.644V119.257C301.95 115.186 298.644 111.885 294.566 111.885Z" stroke="#F5F5F5"/>
</g>
<g filter="url(#filter8_i_5204_66354)">
<path d="M330.524 39.7617H315.115C310.86 39.7617 307.41 43.2061 307.41 47.455V98.7433C307.41 102.992 310.86 106.437 315.115 106.437H330.524C334.779 106.437 338.228 102.992 338.228 98.7433V47.455C338.228 43.2061 334.779 39.7617 330.524 39.7617Z" fill="#F7F7F7"/>
<path d="M330.523 40.082H315.114C311.036 40.082 307.73 43.3829 307.73 47.4547V98.7431C307.73 102.815 311.036 106.116 315.114 106.116H330.523C334.601 106.116 337.907 102.815 337.907 98.7431V47.4547C337.907 43.3829 334.601 40.082 330.523 40.082Z" stroke="#F5F5F5"/>
</g>
<g filter="url(#filter9_i_5204_66354)">
<path d="M42.8871 111.564H27.478C23.2229 111.564 19.7734 115.009 19.7734 119.258V134.644C19.7734 138.893 23.2229 142.337 27.478 142.337H42.8871C47.1422 142.337 50.5916 138.893 50.5916 134.644V119.258C50.5916 115.009 47.1422 111.564 42.8871 111.564Z" fill="#F7F7F7"/>
<path d="M42.8864 111.885H27.4773C23.3995 111.885 20.0938 115.186 20.0938 119.257V134.644C20.0938 138.716 23.3995 142.017 27.4773 142.017H42.8864C46.9642 142.017 50.2699 138.716 50.2699 134.644V119.257C50.2699 115.186 46.9642 111.885 42.8864 111.885Z" stroke="#F5F5F5"/>
</g>
<g filter="url(#filter10_i_5204_66354)">
<path d="M186.703 39.7617H171.294C167.039 39.7617 163.59 43.2061 163.59 47.455V62.8415C163.59 67.0903 167.039 70.5347 171.294 70.5347H186.703C190.959 70.5347 194.408 67.0903 194.408 62.8415V47.455C194.408 43.2061 190.959 39.7617 186.703 39.7617Z" fill="#F7F7F7"/>
<path d="M186.703 40.082H171.294C167.216 40.082 163.91 43.3829 163.91 47.4547V62.8412C163.91 66.9131 167.216 70.2139 171.294 70.2139H186.703C190.781 70.2139 194.086 66.9131 194.086 62.8412V47.4547C194.086 43.3829 190.781 40.082 186.703 40.082Z" stroke="#F5F5F5"/>
</g>
<g filter="url(#filter11_i_5204_66354)">
<path d="M258.615 147.467H207.251C202.996 147.467 199.547 150.911 199.547 155.16V170.547C199.547 174.795 202.996 178.24 207.251 178.24H258.615C262.87 178.24 266.32 174.795 266.32 170.547V155.16C266.32 150.911 262.87 147.467 258.615 147.467Z" fill="#F7F7F7"/>
<path d="M258.614 147.787H207.251C203.173 147.787 199.867 151.088 199.867 155.16V170.546C199.867 174.618 203.173 177.919 207.251 177.919H258.614C262.692 177.919 265.998 174.618 265.998 170.546V155.16C265.998 151.088 262.692 147.787 258.614 147.787Z" stroke="#F5F5F5"/>
</g>
<g filter="url(#filter12_i_5204_66354)">
<path d="M294.57 3.85938H207.251C202.996 3.85938 199.547 7.30376 199.547 11.5526V26.9391C199.547 31.188 202.996 34.6324 207.251 34.6324H294.57C298.825 34.6324 302.274 31.188 302.274 26.9391V11.5526C302.274 7.30376 298.825 3.85938 294.57 3.85938Z" fill="#F7F7F7"/>
<path d="M294.569 4.17969H207.251C203.173 4.17969 199.867 7.48056 199.867 11.5524V26.9389C199.867 31.0107 203.173 34.3116 207.251 34.3116H294.569C298.647 34.3116 301.952 31.0107 301.952 26.9389V11.5524C301.952 7.48056 298.647 4.17969 294.569 4.17969Z" stroke="#F5F5F5"/>
</g>
<g filter="url(#filter13_i_5204_66354)">
<path d="M150.75 75.6621H135.341C131.086 75.6621 127.637 79.1065 127.637 83.3554V98.7419C127.637 102.991 131.086 106.435 135.341 106.435H150.75C155.005 106.435 158.455 102.991 158.455 98.7419V83.3554C158.455 79.1065 155.005 75.6621 150.75 75.6621Z" fill="#F7F7F7"/>
<path d="M150.75 75.9824H135.341C131.263 75.9824 127.957 79.2833 127.957 83.3551V98.7416C127.957 102.813 131.263 106.114 135.341 106.114H150.75C154.827 106.114 158.133 102.813 158.133 98.7416V83.3551C158.133 79.2833 154.827 75.9824 150.75 75.9824Z" stroke="#F5F5F5"/>
</g>
<g filter="url(#filter14_i_5204_66354)">
<path d="M186.706 111.564H99.3881C95.133 111.564 91.6836 115.009 91.6836 119.258V134.644C91.6836 138.893 95.133 142.337 99.3881 142.337H186.706C190.961 142.337 194.411 138.893 194.411 134.644V119.258C194.411 115.009 190.961 111.564 186.706 111.564Z" fill="#F7F7F7"/>
<path d="M186.706 111.885H99.3874C95.3096 111.885 92.0039 115.186 92.0039 119.257V134.644C92.0039 138.716 95.3096 142.017 99.3874 142.017H186.706C190.783 142.017 194.089 138.716 194.089 134.644V119.257C194.089 115.186 190.783 111.885 186.706 111.885Z" stroke="#F5F5F5"/>
</g>
<g filter="url(#filter15_i_5204_66354)">
<path d="M42.8871 147.467H27.478C23.2229 147.467 19.7734 150.911 19.7734 155.16V206.448C19.7734 210.697 23.2229 214.142 27.478 214.142H42.8871C47.1422 214.142 50.5916 210.697 50.5916 206.448V155.16C50.5916 150.911 47.1422 147.467 42.8871 147.467Z" fill="#F7F7F7"/>
<path d="M42.8864 147.787H27.4773C23.3995 147.787 20.0938 151.088 20.0938 155.16V206.448C20.0938 210.52 23.3995 213.821 27.4773 213.821H42.8864C46.9642 213.821 50.2699 210.52 50.2699 206.448V155.16C50.2699 151.088 46.9642 147.787 42.8864 147.787Z" stroke="#F5F5F5"/>
</g>
<g filter="url(#filter16_i_5204_66354)">
<path d="M258.614 183.369H243.205C238.949 183.369 235.5 186.814 235.5 191.062V206.449C235.5 210.698 238.949 214.142 243.205 214.142H258.614C262.869 214.142 266.318 210.698 266.318 206.449V191.062C266.318 186.814 262.869 183.369 258.614 183.369Z" fill="#F7F7F7"/>
<path d="M258.613 183.689H243.204C239.126 183.689 235.82 186.99 235.82 191.062V206.449C235.82 210.52 239.126 213.821 243.204 213.821H258.613C262.691 213.821 265.996 210.52 265.996 206.449V191.062C265.996 186.99 262.691 183.689 258.613 183.689Z" stroke="#F5F5F5"/>
</g>
<g filter="url(#filter17_i_5204_66354)">
<path d="M222.661 183.369H207.251C202.996 183.369 199.547 186.814 199.547 191.062V206.449C199.547 210.698 202.996 214.142 207.251 214.142H222.661C226.916 214.142 230.365 210.698 230.365 206.449V191.062C230.365 186.814 226.916 183.369 222.661 183.369Z" fill="#F7F7F7"/>
<path d="M222.66 183.689H207.251C203.173 183.689 199.867 186.99 199.867 191.062V206.449C199.867 210.52 203.173 213.821 207.251 213.821H222.66C226.738 213.821 230.043 210.52 230.043 206.449V191.062C230.043 186.99 226.738 183.689 222.66 183.689Z" stroke="#F5F5F5"/>
</g>
<g filter="url(#filter18_i_5204_66354)">
<path d="M42.8871 3.85938H27.478C23.2229 3.85938 19.7734 7.30376 19.7734 11.5526V26.9391C19.7734 31.188 23.2229 34.6324 27.478 34.6324H42.8871C47.1422 34.6324 50.5916 31.188 50.5916 26.9391V11.5526C50.5916 7.30376 47.1422 3.85938 42.8871 3.85938Z" fill="#F7F7F7"/>
<path d="M42.8864 4.17969H27.4773C23.3995 4.17969 20.0938 7.48056 20.0938 11.5524V26.9389C20.0938 31.0107 23.3995 34.3116 27.4773 34.3116H42.8864C46.9642 34.3116 50.2699 31.0107 50.2699 26.9389V11.5524C50.2699 7.48056 46.9642 4.17969 42.8864 4.17969Z" stroke="#F5F5F5"/>
</g>
<g filter="url(#filter19_i_5204_66354)">
<path d="M186.703 147.467H171.294C167.039 147.467 163.59 150.911 163.59 155.16V206.448C163.59 210.697 167.039 214.142 171.294 214.142H186.703C190.959 214.142 194.408 210.697 194.408 206.448V155.16C194.408 150.911 190.959 147.467 186.703 147.467Z" fill="#F7F7F7"/>
<path d="M186.703 147.787H171.294C167.216 147.787 163.91 151.088 163.91 155.16V206.448C163.91 210.52 167.216 213.821 171.294 213.821H186.703C190.781 213.821 194.086 210.52 194.086 206.448V155.16C194.086 151.088 190.781 147.787 186.703 147.787Z" stroke="#F5F5F5"/>
</g>
<g filter="url(#filter20_i_5204_66354)">
<path d="M186.703 3.85938H171.294C167.039 3.85938 163.59 7.30376 163.59 11.5526V26.9391C163.59 31.188 167.039 34.6324 171.294 34.6324H186.703C190.959 34.6324 194.408 31.188 194.408 26.9391V11.5526C194.408 7.30376 190.959 3.85938 186.703 3.85938Z" fill="#F7F7F7"/>
<path d="M186.703 4.17969H171.294C167.216 4.17969 163.91 7.48056 163.91 11.5524V26.9389C163.91 31.0107 167.216 34.3116 171.294 34.3116H186.703C190.781 34.3116 194.086 31.0107 194.086 26.9389V11.5524C194.086 7.48056 190.781 4.17969 186.703 4.17969Z" stroke="#F5F5F5"/>
</g>
<g filter="url(#filter21_i_5204_66354)">
<path d="M222.661 39.7617H207.251C202.996 39.7617 199.547 43.2061 199.547 47.455V98.7433C199.547 102.992 202.996 106.437 207.251 106.437H222.661C226.916 106.437 230.365 102.992 230.365 98.7433V47.455C230.365 43.2061 226.916 39.7617 222.661 39.7617Z" fill="#F7F7F7"/>
<path d="M222.66 40.082H207.251C203.173 40.082 199.867 43.3829 199.867 47.4547V98.7431C199.867 102.815 203.173 106.116 207.251 106.116H222.66C226.738 106.116 230.043 102.815 230.043 98.7431V47.4547C230.043 43.3829 226.738 40.082 222.66 40.082Z" stroke="#F5F5F5"/>
</g>
<path d="M294.57 75.9824H279.161C275.083 75.9824 271.777 79.2833 271.777 83.3551V98.7416C271.777 102.813 275.083 106.114 279.161 106.114H294.57C298.648 106.114 301.953 102.813 301.953 98.7416V83.3551C301.953 79.2833 298.648 75.9824 294.57 75.9824Z" fill="white"/>
<path d="M294.57 75.9824H279.161C275.083 75.9824 271.777 79.2833 271.777 83.3551V98.7416C271.777 102.813 275.083 106.114 279.161 106.114H294.57C298.648 106.114 301.953 102.813 301.953 98.7416V83.3551C301.953 79.2833 298.648 75.9824 294.57 75.9824Z" stroke="#F7F7F7"/>
<path d="M290.075 87.2021C290.075 87.5419 290.21 87.8682 290.451 88.1087C290.692 88.3491 291.018 88.4843 291.359 88.4843C291.699 88.4843 292.026 88.3491 292.267 88.1087C292.507 87.8682 292.643 87.5419 292.643 87.2021C292.643 86.8623 292.507 86.536 292.267 86.2956C292.026 86.0552 291.699 85.9199 291.359 85.9199C291.018 85.9199 290.692 86.0552 290.451 86.2956C290.21 86.536 290.075 86.8623 290.075 87.2021ZM290.075 87.2021H287.827L285.58 91.0488M285.58 91.0488L287.827 94.8954H290.075M285.58 91.0488H283.654M290.075 94.8954C290.075 95.2352 290.21 95.5615 290.451 95.8019C290.692 96.0423 291.018 96.1776 291.359 96.1776C291.699 96.1776 292.026 96.0423 292.267 95.8019C292.507 95.5615 292.643 95.2352 292.643 94.8954C292.643 94.5556 292.507 94.2293 292.267 93.9889C292.026 93.7484 291.699 93.6132 291.359 93.6132C291.018 93.6132 290.692 93.7484 290.451 93.9889C290.21 94.2293 290.075 94.5556 290.075 94.8954ZM283.654 91.0488C283.654 91.3885 283.519 91.7149 283.278 91.9553C283.037 92.1957 282.71 92.331 282.37 92.331C282.03 92.331 281.703 92.1957 281.462 91.9553C281.221 91.7149 281.086 91.3885 281.086 91.0488C281.086 90.709 281.221 90.3826 281.462 90.1422C281.703 89.9018 282.03 89.7665 282.37 89.7665C282.71 89.7665 283.037 89.9018 283.278 90.1422C283.519 90.3826 283.654 90.709 283.654 91.0488Z" stroke="#3F3F46" stroke-linecap="round" stroke-linejoin="round"/>
<path d="M258.613 40.082H243.204C239.126 40.082 235.82 43.3829 235.82 47.4547V62.8412C235.82 66.9131 239.126 70.2139 243.204 70.2139H258.613C262.691 70.2139 265.996 66.9131 265.996 62.8412V47.4547C265.996 43.3829 262.691 40.082 258.613 40.082Z" fill="white"/>
<path d="M258.613 40.082H243.204C239.126 40.082 235.82 43.3829 235.82 47.4547V62.8412C235.82 66.9131 239.126 70.2139 243.204 70.2139H258.613C262.691 70.2139 265.996 66.9131 265.996 62.8412V47.4547C265.996 43.3829 262.691 40.082 258.613 40.082Z" stroke="#F7F7F7"/>
<path d="M250.907 57.0702H246.734C246.308 57.0702 245.9 56.9013 245.599 56.6008C245.298 56.3002 245.129 55.8925 245.129 55.4674C245.129 55.0424 245.298 54.6347 245.599 54.3341C245.9 54.0336 246.308 53.8647 246.734 53.8647H247.055M252.833 55.1469V59.3141C252.833 59.7391 252.665 60.1468 252.363 60.4474C252.062 60.748 251.654 60.9168 251.228 60.9168C250.803 60.9168 250.394 60.748 250.093 60.4474C249.792 60.1468 249.623 59.7391 249.623 59.3141V58.9935M250.907 53.2236H255.081C255.506 53.2236 255.915 53.3924 256.216 53.693C256.517 53.9936 256.686 54.4013 256.686 54.8263C256.686 55.2514 256.517 55.6591 256.216 55.9597C255.915 56.2602 255.506 56.4291 255.081 56.4291H254.76M248.981 55.1469V50.9797C248.981 50.5547 249.15 50.147 249.451 49.8464C249.752 49.5458 250.161 49.377 250.586 49.377C251.012 49.377 251.42 49.5458 251.721 49.8464C252.023 50.147 252.191 50.5547 252.191 50.9797V51.3003" stroke="#3F3F46" stroke-linecap="round" stroke-linejoin="round"/>
<g filter="url(#filter22_i_5204_66354)">
<path d="M294.567 39.7617H279.158C274.903 39.7617 271.453 43.2061 271.453 47.455V62.8415C271.453 67.0903 274.903 70.5347 279.158 70.5347H294.567C298.822 70.5347 302.271 67.0903 302.271 62.8415V47.455C302.271 43.2061 298.822 39.7617 294.567 39.7617Z" fill="#F7F7F7"/>
<path d="M294.566 40.082H279.157C275.079 40.082 271.773 43.3829 271.773 47.4547V62.8412C271.773 66.9131 275.079 70.2139 279.157 70.2139H294.566C298.644 70.2139 301.95 66.9131 301.95 62.8412V47.4547C301.95 43.3829 298.644 40.082 294.566 40.082Z" stroke="#F5F5F5"/>
</g>
<g filter="url(#filter23_i_5204_66354)">
<path d="M330.524 111.564H315.115C310.86 111.564 307.41 115.009 307.41 119.258V134.644C307.41 138.893 310.86 142.337 315.115 142.337H330.524C334.779 142.337 338.228 138.893 338.228 134.644V119.258C338.228 115.009 334.779 111.564 330.524 111.564Z" fill="#F7F7F7"/>
<path d="M330.523 111.885H315.114C311.036 111.885 307.73 115.186 307.73 119.257V134.644C307.73 138.716 311.036 142.017 315.114 142.017H330.523C334.601 142.017 337.907 138.716 337.907 134.644V119.257C337.907 115.186 334.601 111.885 330.523 111.885Z" stroke="#F5F5F5"/>
</g>
<g filter="url(#filter24_i_5204_66354)">
<path d="M330.524 147.467H315.115C310.86 147.467 307.41 150.911 307.41 155.16V170.547C307.41 174.795 310.86 178.24 315.115 178.24H330.524C334.779 178.24 338.228 174.795 338.228 170.547V155.16C338.228 150.911 334.779 147.467 330.524 147.467Z" fill="#F7F7F7"/>
<path d="M330.523 147.787H315.114C311.036 147.787 307.73 151.088 307.73 155.16V170.546C307.73 174.618 311.036 177.919 315.114 177.919H330.523C334.601 177.919 337.907 174.618 337.907 170.546V155.16C337.907 151.088 334.601 147.787 330.523 147.787Z" stroke="#F5F5F5"/>
</g>
<g filter="url(#filter25_i_5204_66354)">
<path d="M330.524 3.85938H315.115C310.86 3.85938 307.41 7.30376 307.41 11.5526V26.9391C307.41 31.188 310.86 34.6324 315.115 34.6324H330.524C334.779 34.6324 338.228 31.188 338.228 26.9391V11.5526C338.228 7.30376 334.779 3.85938 330.524 3.85938Z" fill="#F7F7F7"/>
<path d="M330.523 4.17969H315.114C311.036 4.17969 307.73 7.48056 307.73 11.5524V26.9389C307.73 31.0107 311.036 34.3116 315.114 34.3116H330.523C334.601 34.3116 337.907 31.0107 337.907 26.9389V11.5524C337.907 7.48056 334.601 4.17969 330.523 4.17969Z" stroke="#F5F5F5"/>
</g>
<g filter="url(#filter26_i_5204_66354)">
<path d="M258.614 75.6621H243.205C238.949 75.6621 235.5 79.1065 235.5 83.3554V134.644C235.5 138.893 238.949 142.337 243.205 142.337H258.614C262.869 142.337 266.318 138.893 266.318 134.644V83.3554C266.318 79.1065 262.869 75.6621 258.614 75.6621Z" fill="#F7F7F7"/>
<path d="M258.613 75.9824H243.204C239.126 75.9824 235.82 79.2833 235.82 83.3551V134.643C235.82 138.715 239.126 142.016 243.204 142.016H258.613C262.691 142.016 265.996 138.715 265.996 134.643V83.3551C265.996 79.2833 262.691 75.9824 258.613 75.9824Z" stroke="#F5F5F5"/>
</g>
<g filter="url(#filter27_ddi_5204_66354)">
<path d="M186.703 75.9824H171.294C167.216 75.9824 163.91 79.2833 163.91 83.3551V98.7416C163.91 102.813 167.216 106.114 171.294 106.114H186.703C190.781 106.114 194.086 102.813 194.086 98.7416V83.3551C194.086 79.2833 190.781 75.9824 186.703 75.9824Z" fill="#266AE9" stroke="#1658D5"/>
<path d="M172.353 91.5085C172.749 91.9098 173.286 92.1624 173.88 92.1758C173.656 92.5144 173.525 92.9227 173.525 93.3644C173.525 93.5824 173.557 93.7908 173.616 93.9876C173.457 94.0562 173.282 94.0947 173.098 94.0947C172.349 94.0947 171.738 93.4619 171.738 92.6836C171.738 92.4002 171.82 92.1387 171.958 91.9188L171.96 91.9168C172.115 91.8078 172.249 91.6681 172.355 91.5078L172.353 91.5085Z" fill="#F4F4F5"/>
<path d="M177.223 93.363C177.223 94.3227 176.471 95.103 175.546 95.103C174.895 95.103 174.329 94.7164 174.053 94.1503C174.026 94.0951 174.001 94.0394 173.982 93.9797C173.958 93.9208 173.94 93.8579 173.924 93.7945C173.889 93.6573 173.871 93.5111 173.871 93.363C173.871 92.8899 174.053 92.4622 174.348 92.1487L174.364 92.1321C174.416 92.1225 174.468 92.109 174.519 92.0955C174.575 92.0782 174.63 92.0609 174.685 92.0398C174.939 91.9455 175.173 91.807 175.379 91.6327C175.434 91.6269 175.489 91.623 175.547 91.623C176.472 91.623 177.223 92.4026 177.223 93.363H177.223Z" fill="#F4F4F5"/>
<path d="M181.692 94.0389C181.441 94.9051 180.664 95.5359 179.749 95.5359C178.629 95.5359 177.719 94.5922 177.719 93.4299C177.719 92.749 178.03 92.1445 178.513 91.7592C178.593 91.7688 178.673 91.7739 178.754 91.7739C179.228 91.7739 179.667 91.6136 180.02 91.3418C180.376 91.3892 180.704 91.5373 180.978 91.7527C180.933 91.9323 180.908 92.1214 180.908 92.315C180.908 93.0087 181.214 93.6286 181.694 94.0402L181.692 94.0389Z" fill="#F4F4F5"/>
<path d="M184.862 92.3843C184.827 93.3819 184.034 94.1839 183.063 94.1839C182.706 94.1839 182.373 94.0768 182.094 93.8896C182.038 93.8531 181.985 93.8153 181.933 93.7704C181.878 93.723 181.824 93.6736 181.773 93.6197C181.456 93.2832 181.262 92.8241 181.262 92.3157C181.262 92.2241 181.267 92.1349 181.28 92.0465C181.291 91.9721 181.306 91.8971 181.324 91.8266C181.34 91.7612 181.361 91.6964 181.385 91.6355C181.474 91.3983 181.608 91.1861 181.775 91.006C182.076 91.1457 182.41 91.2239 182.761 91.2239C183.231 91.2239 183.669 91.0842 184.041 90.8438C184.101 91.4688 184.408 92.0176 184.862 92.3843H184.862Z" fill="#F4F4F5"/>
<path d="M187.988 90.6214C187.988 91.6523 187.182 92.4915 186.188 92.4915C185.83 92.4915 185.495 92.3826 185.215 92.1934C185.148 92.1498 185.087 92.1018 185.026 92.0485C184.944 91.9774 184.869 91.8966 184.801 91.8126L184.799 91.8107C184.64 91.6126 184.522 91.3805 184.454 91.1273L184.452 91.1247C184.423 91.0189 184.405 90.9093 184.393 90.7958C184.387 90.7388 184.387 90.6811 184.387 90.6214V90.5759C184.387 90.5759 184.395 90.5682 184.399 90.5644C184.801 90.1855 185.077 89.6675 185.162 89.0866C185.453 88.8757 185.808 88.7539 186.188 88.7539C187.182 88.7539 187.988 89.5912 187.988 90.6214Z" fill="#F4F4F5"/>
<path d="M177.325 88.2204C177.325 88.3127 177.313 88.4018 177.291 88.4878C177.252 88.6583 177.174 88.8109 177.067 88.9391C176.999 89.0231 176.918 89.0955 176.827 89.1551C176.766 89.1955 176.702 89.2289 176.631 89.2539C176.515 89.3013 176.39 89.3263 176.257 89.3263C176.218 89.3263 176.18 89.3244 176.143 89.3205C176.077 89.3122 176.016 89.2994 175.955 89.2795C175.879 89.2571 175.81 89.2263 175.742 89.1878C175.442 89.0173 175.231 88.7 175.193 88.3313C175.189 88.2948 175.188 88.257 175.188 88.2185C175.188 88.1768 175.189 88.1345 175.195 88.0948C175.203 88.0274 175.216 87.9627 175.234 87.9011C175.365 87.4447 175.774 87.1094 176.257 87.1094C176.741 87.1094 177.167 87.4594 177.288 87.9358C177.308 88.0082 177.319 88.0839 177.321 88.1621C177.325 88.1807 177.325 88.2012 177.325 88.2204Z" fill="#F4F4F5"/>
<path d="M184.835 88.7089C184.835 88.7704 184.833 88.8294 184.827 88.889C184.82 88.9839 184.804 89.0801 184.786 89.1718C184.786 89.1737 184.784 89.1737 184.784 89.1737C184.702 89.5699 184.512 89.9238 184.251 90.2033C184.201 90.2565 184.149 90.3078 184.094 90.3533C184.077 90.3687 184.061 90.3822 184.043 90.395C184.009 90.4238 183.976 90.4508 183.939 90.4758C183.882 90.5181 183.821 90.5566 183.76 90.5925C183.464 90.763 183.123 90.8579 182.761 90.8579C182.528 90.8579 182.301 90.8181 182.091 90.7418C182.025 90.7194 181.96 90.6925 181.897 90.6617H181.895C181.835 90.6328 181.778 90.6001 181.723 90.5655C181.364 90.3495 181.072 90.0225 180.892 89.6314C180.763 89.3519 180.691 89.0378 180.691 88.7089C180.691 88.6788 180.691 88.6461 180.691 88.6159C180.74 87.4741 181.65 86.5605 182.76 86.5605C183.871 86.5605 184.833 87.5235 184.833 88.7089H184.835Z" fill="#F4F4F5"/>
<path d="M175.839 89.6239C175.845 89.688 175.847 89.7553 175.847 89.822C175.847 90.3997 175.609 90.9222 175.226 91.2857C175.028 91.4767 174.791 91.6235 174.527 91.7114C174.47 91.7325 174.41 91.7505 174.35 91.7633C174.301 91.7748 174.252 91.7838 174.202 91.7921C174.186 91.7941 174.17 91.796 174.15 91.7979C174.079 91.8069 174.005 91.8107 173.932 91.8107C173.46 91.8107 173.027 91.6312 172.692 91.335C172.64 91.2902 172.592 91.2427 172.545 91.1933C172.535 91.1837 172.525 91.1728 172.519 91.1626C172.486 91.126 172.454 91.0882 172.425 91.0478C172.412 91.0311 172.398 91.0138 172.386 90.9959C172.337 90.926 172.29 90.8497 172.249 90.7715C172.117 90.5208 172.034 90.2349 172.018 89.9329C172.018 89.897 172.016 89.8605 172.016 89.822C172.016 89.7682 172.018 89.7169 172.021 89.6656C172.026 89.5931 172.036 89.5226 172.048 89.4515C172.216 88.5302 172.997 87.832 173.932 87.832C174.263 87.832 174.575 87.9192 174.848 88.075C174.842 88.1225 174.84 88.1699 174.84 88.218C174.84 88.8777 175.26 89.4386 175.839 89.6239Z" fill="#F4F4F5"/>
<path d="M180.338 88.7103C180.338 89.0629 180.408 89.3969 180.535 89.7008C180.499 90.2054 180.265 90.6548 179.913 90.9663C179.839 91.0317 179.76 91.0914 179.676 91.1426H179.666C179.666 91.1426 179.664 91.1426 179.664 91.1446C179.395 91.3132 179.093 91.41 178.755 91.41H178.713C178.614 91.4081 178.519 91.3972 178.424 91.3773C177.597 91.2151 176.969 90.4599 176.969 89.5572C176.969 89.5367 176.969 89.5174 176.971 89.4969C177.396 89.2418 177.681 88.7654 177.681 88.2205C177.681 88.175 177.68 88.1275 177.674 88.082C177.974 87.8442 178.35 87.7031 178.755 87.7031C179.443 87.7031 180.04 88.1083 180.338 88.7013V88.7103Z" fill="#F4F4F5"/>
<path d="M171.662 89.8222C171.662 90.346 171.829 90.83 172.109 91.2205C172.105 91.2281 172.1 91.2352 172.094 91.2429C171.999 91.4096 171.865 91.5474 171.707 91.6442C171.539 91.7513 171.342 91.8109 171.131 91.8109C170.515 91.8109 170.012 91.2897 170.012 90.6467C170.012 90.0036 170.515 89.4824 171.131 89.4824C171.327 89.4824 171.512 89.5337 171.672 89.6279C171.664 89.6921 171.662 89.7575 171.662 89.8222Z" fill="#F4F4F5"/>
</g>
<path d="M67.2852 37.1973H175.791" stroke="url(#paint2_linear_5204_66354)" stroke-opacity="0.3" stroke-linecap="round"/>
<path d="M67.2852 37.1973H175.791" stroke="url(#paint3_linear_5204_66354)" stroke-opacity="0.3" stroke-linecap="round"/>
<path d="M150.75 144.902H259.256" stroke="url(#paint4_linear_5204_66354)" stroke-opacity="0.3" stroke-linecap="round"/>
<path d="M150.75 144.902H259.256" stroke="url(#paint5_linear_5204_66354)" stroke-opacity="0.3" stroke-linecap="round"/>
<g opacity="0.07" filter="url(#filter28_f_5204_66354)">
<path d="M93.0744 -10.709C13.7359 29.8577 -37.6178 112.96 -37.6178 112.96C-37.6178 112.96 -84.2 101.477 -101.594 98.9084C-57.2845 80.2222 -55.9771 32.4556 -25.6956 -1.46038C-2.91335 -8.74118 69.6591 -6.73984 93.0744 -10.709Z" fill="url(#paint6_linear_5204_66354)"/>
</g>
<g opacity="0.2" filter="url(#filter29_f_5204_66354)">
<path d="M204.562 245.056C304.073 215.682 386.805 129.414 386.805 129.414C386.805 129.414 433.853 153.935 451.975 161.056C397.68 172.764 380.859 228.972 336.938 261.992C309.771 265.258 231.352 245.857 204.562 245.056Z" fill="url(#paint7_linear_5204_66354)"/>
</g>
<path d="M405 4.5H-47V213.5H405V4.5Z" fill="url(#paint8_linear_5204_66354)"/>
<path d="M405 4.5H-47V213.5H405V4.5Z" fill="url(#paint9_linear_5204_66354)"/>
</g>
</g>
<path d="M0 0H358V230H0V0Z" fill="url(#paint10_linear_5204_66354)"/>
<path d="M0 0H358V230H0V0Z" fill="url(#paint11_linear_5204_66354)"/>
</g>
<defs>
<filter id="filter0_i_5204_66354" x="55.5469" y="3.67969" width="31.1758" height="31.1328" filterUnits="userSpaceOnUse" color-interpolation-filters="sRGB">
<feFlood flood-opacity="0" result="BackgroundImageFix"/>
<feBlend mode="normal" in="SourceGraphic" in2="BackgroundImageFix" result="shape"/>
<feColorMatrix in="SourceAlpha" type="matrix" values="0 0 0 0 0 0 0 0 0 0 0 0 0 0 0 0 0 0 127 0" result="hardAlpha"/>
<feOffset/>
<feGaussianBlur stdDeviation="2"/>
<feComposite in2="hardAlpha" operator="arithmetic" k2="-1" k3="1"/>
<feColorMatrix type="matrix" values="0 0 0 0 0.95 0 0 0 0 0.95 0 0 0 0 0.95 0 0 0 1 0"/>
<feBlend mode="normal" in2="shape" result="effect1_innerShadow_5204_66354"/>
</filter>
<filter id="filter1_i_5204_66354" x="55.5469" y="75.4824" width="31.1758" height="67.0332" filterUnits="userSpaceOnUse" color-interpolation-filters="sRGB">
<feFlood flood-opacity="0" result="BackgroundImageFix"/>
<feBlend mode="normal" in="SourceGraphic" in2="BackgroundImageFix" result="shape"/>
<feColorMatrix in="SourceAlpha" type="matrix" values="0 0 0 0 0 0 0 0 0 0 0 0 0 0 0 0 0 0 127 0" result="hardAlpha"/>
<feOffset/>
<feGaussianBlur stdDeviation="2"/>
<feComposite in2="hardAlpha" operator="arithmetic" k2="-1" k3="1"/>
<feColorMatrix type="matrix" values="0 0 0 0 0.95 0 0 0 0 0.95 0 0 0 0 0.95 0 0 0 1 0"/>
<feBlend mode="normal" in2="shape" result="effect1_innerShadow_5204_66354"/>
</filter>
<filter id="filter2_i_5204_66354" x="19.5938" y="39.582" width="103.086" height="31.1328" filterUnits="userSpaceOnUse" color-interpolation-filters="sRGB">
<feFlood flood-opacity="0" result="BackgroundImageFix"/>
<feBlend mode="normal" in="SourceGraphic" in2="BackgroundImageFix" result="shape"/>
<feColorMatrix in="SourceAlpha" type="matrix" values="0 0 0 0 0 0 0 0 0 0 0 0 0 0 0 0 0 0 127 0" result="hardAlpha"/>
<feOffset/>
<feGaussianBlur stdDeviation="2"/>
<feComposite in2="hardAlpha" operator="arithmetic" k2="-1" k3="1"/>
<feColorMatrix type="matrix" values="0 0 0 0 0.95 0 0 0 0 0.95 0 0 0 0 0.95 0 0 0 1 0"/>
<feBlend mode="normal" in2="shape" result="effect1_innerShadow_5204_66354"/>
</filter>
<filter id="filter3_i_5204_66354" x="55.5469" y="183.189" width="103.086" height="31.1328" filterUnits="userSpaceOnUse" color-interpolation-filters="sRGB">
<feFlood flood-opacity="0" result="BackgroundImageFix"/>
<feBlend mode="normal" in="SourceGraphic" in2="BackgroundImageFix" result="shape"/>
<feColorMatrix in="SourceAlpha" type="matrix" values="0 0 0 0 0 0 0 0 0 0 0 0 0 0 0 0 0 0 127 0" result="hardAlpha"/>
<feOffset/>
<feGaussianBlur stdDeviation="2"/>
<feComposite in2="hardAlpha" operator="arithmetic" k2="-1" k3="1"/>
<feColorMatrix type="matrix" values="0 0 0 0 0.95 0 0 0 0 0.95 0 0 0 0 0.95 0 0 0 1 0"/>
<feBlend mode="normal" in2="shape" result="effect1_innerShadow_5204_66354"/>
</filter>
<filter id="filter4_i_5204_66354" x="91.5039" y="147.287" width="67.1309" height="31.1328" filterUnits="userSpaceOnUse" color-interpolation-filters="sRGB">
<feFlood flood-opacity="0" result="BackgroundImageFix"/>
<feBlend mode="normal" in="SourceGraphic" in2="BackgroundImageFix" result="shape"/>
<feColorMatrix in="SourceAlpha" type="matrix" values="0 0 0 0 0 0 0 0 0 0 0 0 0 0 0 0 0 0 127 0" result="hardAlpha"/>
<feOffset/>
<feGaussianBlur stdDeviation="2"/>
<feComposite in2="hardAlpha" operator="arithmetic" k2="-1" k3="1"/>
<feColorMatrix type="matrix" values="0 0 0 0 0.95 0 0 0 0 0.95 0 0 0 0 0.95 0 0 0 1 0"/>
<feBlend mode="normal" in2="shape" result="effect1_innerShadow_5204_66354"/>
</filter>
<filter id="filter5_i_5204_66354" x="271.273" y="183.189" width="67.1309" height="31.1328" filterUnits="userSpaceOnUse" color-interpolation-filters="sRGB">
<feFlood flood-opacity="0" result="BackgroundImageFix"/>
<feBlend mode="normal" in="SourceGraphic" in2="BackgroundImageFix" result="shape"/>
<feColorMatrix in="SourceAlpha" type="matrix" values="0 0 0 0 0 0 0 0 0 0 0 0 0 0 0 0 0 0 127 0" result="hardAlpha"/>
<feOffset/>
<feGaussianBlur stdDeviation="2"/>
<feComposite in2="hardAlpha" operator="arithmetic" k2="-1" k3="1"/>
<feColorMatrix type="matrix" values="0 0 0 0 0.95 0 0 0 0 0.95 0 0 0 0 0.95 0 0 0 1 0"/>
<feBlend mode="normal" in2="shape" result="effect1_innerShadow_5204_66354"/>
</filter>
<filter id="filter6_i_5204_66354" x="91.5039" y="3.67969" width="67.1309" height="31.1328" filterUnits="userSpaceOnUse" color-interpolation-filters="sRGB">
<feFlood flood-opacity="0" result="BackgroundImageFix"/>
<feBlend mode="normal" in="SourceGraphic" in2="BackgroundImageFix" result="shape"/>
<feColorMatrix in="SourceAlpha" type="matrix" values="0 0 0 0 0 0 0 0 0 0 0 0 0 0 0 0 0 0 127 0" result="hardAlpha"/>
<feOffset/>
<feGaussianBlur stdDeviation="2"/>
<feComposite in2="hardAlpha" operator="arithmetic" k2="-1" k3="1"/>
<feColorMatrix type="matrix" values="0 0 0 0 0.95 0 0 0 0 0.95 0 0 0 0 0.95 0 0 0 1 0"/>
<feBlend mode="normal" in2="shape" result="effect1_innerShadow_5204_66354"/>
</filter>
<filter id="filter7_i_5204_66354" x="271.273" y="111.385" width="31.1758" height="31.1328" filterUnits="userSpaceOnUse" color-interpolation-filters="sRGB">
<feFlood flood-opacity="0" result="BackgroundImageFix"/>
<feBlend mode="normal" in="SourceGraphic" in2="BackgroundImageFix" result="shape"/>
<feColorMatrix in="SourceAlpha" type="matrix" values="0 0 0 0 0 0 0 0 0 0 0 0 0 0 0 0 0 0 127 0" result="hardAlpha"/>
<feOffset/>
<feGaussianBlur stdDeviation="2"/>
<feComposite in2="hardAlpha" operator="arithmetic" k2="-1" k3="1"/>
<feColorMatrix type="matrix" values="0 0 0 0 0.95 0 0 0 0 0.95 0 0 0 0 0.95 0 0 0 1 0"/>
<feBlend mode="normal" in2="shape" result="effect1_innerShadow_5204_66354"/>
</filter>
<filter id="filter8_i_5204_66354" x="307.23" y="39.582" width="31.1758" height="67.0332" filterUnits="userSpaceOnUse" color-interpolation-filters="sRGB">
<feFlood flood-opacity="0" result="BackgroundImageFix"/>
<feBlend mode="normal" in="SourceGraphic" in2="BackgroundImageFix" result="shape"/>
<feColorMatrix in="SourceAlpha" type="matrix" values="0 0 0 0 0 0 0 0 0 0 0 0 0 0 0 0 0 0 127 0" result="hardAlpha"/>
<feOffset/>
<feGaussianBlur stdDeviation="2"/>
<feComposite in2="hardAlpha" operator="arithmetic" k2="-1" k3="1"/>
<feColorMatrix type="matrix" values="0 0 0 0 0.95 0 0 0 0 0.95 0 0 0 0 0.95 0 0 0 1 0"/>
<feBlend mode="normal" in2="shape" result="effect1_innerShadow_5204_66354"/>
</filter>
<filter id="filter9_i_5204_66354" x="19.5938" y="111.385" width="31.1758" height="31.1328" filterUnits="userSpaceOnUse" color-interpolation-filters="sRGB">
<feFlood flood-opacity="0" result="BackgroundImageFix"/>
<feBlend mode="normal" in="SourceGraphic" in2="BackgroundImageFix" result="shape"/>
<feColorMatrix in="SourceAlpha" type="matrix" values="0 0 0 0 0 0 0 0 0 0 0 0 0 0 0 0 0 0 127 0" result="hardAlpha"/>
<feOffset/>
<feGaussianBlur stdDeviation="2"/>
<feComposite in2="hardAlpha" operator="arithmetic" k2="-1" k3="1"/>
<feColorMatrix type="matrix" values="0 0 0 0 0.95 0 0 0 0 0.95 0 0 0 0 0.95 0 0 0 1 0"/>
<feBlend mode="normal" in2="shape" result="effect1_innerShadow_5204_66354"/>
</filter>
<filter id="filter10_i_5204_66354" x="163.41" y="39.582" width="31.1758" height="31.1328" filterUnits="userSpaceOnUse" color-interpolation-filters="sRGB">
<feFlood flood-opacity="0" result="BackgroundImageFix"/>
<feBlend mode="normal" in="SourceGraphic" in2="BackgroundImageFix" result="shape"/>
<feColorMatrix in="SourceAlpha" type="matrix" values="0 0 0 0 0 0 0 0 0 0 0 0 0 0 0 0 0 0 127 0" result="hardAlpha"/>
<feOffset/>
<feGaussianBlur stdDeviation="2"/>
<feComposite in2="hardAlpha" operator="arithmetic" k2="-1" k3="1"/>
<feColorMatrix type="matrix" values="0 0 0 0 0.95 0 0 0 0 0.95 0 0 0 0 0.95 0 0 0 1 0"/>
<feBlend mode="normal" in2="shape" result="effect1_innerShadow_5204_66354"/>
</filter>
<filter id="filter11_i_5204_66354" x="199.367" y="147.287" width="67.1309" height="31.1328" filterUnits="userSpaceOnUse" color-interpolation-filters="sRGB">
<feFlood flood-opacity="0" result="BackgroundImageFix"/>
<feBlend mode="normal" in="SourceGraphic" in2="BackgroundImageFix" result="shape"/>
<feColorMatrix in="SourceAlpha" type="matrix" values="0 0 0 0 0 0 0 0 0 0 0 0 0 0 0 0 0 0 127 0" result="hardAlpha"/>
<feOffset/>
<feGaussianBlur stdDeviation="2"/>
<feComposite in2="hardAlpha" operator="arithmetic" k2="-1" k3="1"/>
<feColorMatrix type="matrix" values="0 0 0 0 0.95 0 0 0 0 0.95 0 0 0 0 0.95 0 0 0 1 0"/>
<feBlend mode="normal" in2="shape" result="effect1_innerShadow_5204_66354"/>
</filter>
<filter id="filter12_i_5204_66354" x="199.367" y="3.67969" width="103.086" height="31.1328" filterUnits="userSpaceOnUse" color-interpolation-filters="sRGB">
<feFlood flood-opacity="0" result="BackgroundImageFix"/>
<feBlend mode="normal" in="SourceGraphic" in2="BackgroundImageFix" result="shape"/>
<feColorMatrix in="SourceAlpha" type="matrix" values="0 0 0 0 0 0 0 0 0 0 0 0 0 0 0 0 0 0 127 0" result="hardAlpha"/>
<feOffset/>
<feGaussianBlur stdDeviation="2"/>
<feComposite in2="hardAlpha" operator="arithmetic" k2="-1" k3="1"/>
<feColorMatrix type="matrix" values="0 0 0 0 0.95 0 0 0 0 0.95 0 0 0 0 0.95 0 0 0 1 0"/>
<feBlend mode="normal" in2="shape" result="effect1_innerShadow_5204_66354"/>
</filter>
<filter id="filter13_i_5204_66354" x="127.457" y="75.4824" width="31.1758" height="31.1328" filterUnits="userSpaceOnUse" color-interpolation-filters="sRGB">
<feFlood flood-opacity="0" result="BackgroundImageFix"/>
<feBlend mode="normal" in="SourceGraphic" in2="BackgroundImageFix" result="shape"/>
<feColorMatrix in="SourceAlpha" type="matrix" values="0 0 0 0 0 0 0 0 0 0 0 0 0 0 0 0 0 0 127 0" result="hardAlpha"/>
<feOffset/>
<feGaussianBlur stdDeviation="2"/>
<feComposite in2="hardAlpha" operator="arithmetic" k2="-1" k3="1"/>
<feColorMatrix type="matrix" values="0 0 0 0 0.95 0 0 0 0 0.95 0 0 0 0 0.95 0 0 0 1 0"/>
<feBlend mode="normal" in2="shape" result="effect1_innerShadow_5204_66354"/>
</filter>
<filter id="filter14_i_5204_66354" x="91.5039" y="111.385" width="103.086" height="31.1328" filterUnits="userSpaceOnUse" color-interpolation-filters="sRGB">
<feFlood flood-opacity="0" result="BackgroundImageFix"/>
<feBlend mode="normal" in="SourceGraphic" in2="BackgroundImageFix" result="shape"/>
<feColorMatrix in="SourceAlpha" type="matrix" values="0 0 0 0 0 0 0 0 0 0 0 0 0 0 0 0 0 0 127 0" result="hardAlpha"/>
<feOffset/>
<feGaussianBlur stdDeviation="2"/>
<feComposite in2="hardAlpha" operator="arithmetic" k2="-1" k3="1"/>
<feColorMatrix type="matrix" values="0 0 0 0 0.95 0 0 0 0 0.95 0 0 0 0 0.95 0 0 0 1 0"/>
<feBlend mode="normal" in2="shape" result="effect1_innerShadow_5204_66354"/>
</filter>
<filter id="filter15_i_5204_66354" x="19.5938" y="147.287" width="31.1758" height="67.0332" filterUnits="userSpaceOnUse" color-interpolation-filters="sRGB">
<feFlood flood-opacity="0" result="BackgroundImageFix"/>
<feBlend mode="normal" in="SourceGraphic" in2="BackgroundImageFix" result="shape"/>
<feColorMatrix in="SourceAlpha" type="matrix" values="0 0 0 0 0 0 0 0 0 0 0 0 0 0 0 0 0 0 127 0" result="hardAlpha"/>
<feOffset/>
<feGaussianBlur stdDeviation="2"/>
<feComposite in2="hardAlpha" operator="arithmetic" k2="-1" k3="1"/>
<feColorMatrix type="matrix" values="0 0 0 0 0.95 0 0 0 0 0.95 0 0 0 0 0.95 0 0 0 1 0"/>
<feBlend mode="normal" in2="shape" result="effect1_innerShadow_5204_66354"/>
</filter>
<filter id="filter16_i_5204_66354" x="235.32" y="183.189" width="31.1758" height="31.1328" filterUnits="userSpaceOnUse" color-interpolation-filters="sRGB">
<feFlood flood-opacity="0" result="BackgroundImageFix"/>
<feBlend mode="normal" in="SourceGraphic" in2="BackgroundImageFix" result="shape"/>
<feColorMatrix in="SourceAlpha" type="matrix" values="0 0 0 0 0 0 0 0 0 0 0 0 0 0 0 0 0 0 127 0" result="hardAlpha"/>
<feOffset/>
<feGaussianBlur stdDeviation="2"/>
<feComposite in2="hardAlpha" operator="arithmetic" k2="-1" k3="1"/>
<feColorMatrix type="matrix" values="0 0 0 0 0.95 0 0 0 0 0.95 0 0 0 0 0.95 0 0 0 1 0"/>
<feBlend mode="normal" in2="shape" result="effect1_innerShadow_5204_66354"/>
</filter>
<filter id="filter17_i_5204_66354" x="199.367" y="183.189" width="31.1758" height="31.1328" filterUnits="userSpaceOnUse" color-interpolation-filters="sRGB">
<feFlood flood-opacity="0" result="BackgroundImageFix"/>
<feBlend mode="normal" in="SourceGraphic" in2="BackgroundImageFix" result="shape"/>
<feColorMatrix in="SourceAlpha" type="matrix" values="0 0 0 0 0 0 0 0 0 0 0 0 0 0 0 0 0 0 127 0" result="hardAlpha"/>
<feOffset/>
<feGaussianBlur stdDeviation="2"/>
<feComposite in2="hardAlpha" operator="arithmetic" k2="-1" k3="1"/>
<feColorMatrix type="matrix" values="0 0 0 0 0.95 0 0 0 0 0.95 0 0 0 0 0.95 0 0 0 1 0"/>
<feBlend mode="normal" in2="shape" result="effect1_innerShadow_5204_66354"/>
</filter>
<filter id="filter18_i_5204_66354" x="19.5938" y="3.67969" width="31.1758" height="31.1328" filterUnits="userSpaceOnUse" color-interpolation-filters="sRGB">
<feFlood flood-opacity="0" result="BackgroundImageFix"/>
<feBlend mode="normal" in="SourceGraphic" in2="BackgroundImageFix" result="shape"/>
<feColorMatrix in="SourceAlpha" type="matrix" values="0 0 0 0 0 0 0 0 0 0 0 0 0 0 0 0 0 0 127 0" result="hardAlpha"/>
<feOffset/>
<feGaussianBlur stdDeviation="2"/>
<feComposite in2="hardAlpha" operator="arithmetic" k2="-1" k3="1"/>
<feColorMatrix type="matrix" values="0 0 0 0 0.95 0 0 0 0 0.95 0 0 0 0 0.95 0 0 0 1 0"/>
<feBlend mode="normal" in2="shape" result="effect1_innerShadow_5204_66354"/>
</filter>
<filter id="filter19_i_5204_66354" x="163.41" y="147.287" width="31.1758" height="67.0332" filterUnits="userSpaceOnUse" color-interpolation-filters="sRGB">
<feFlood flood-opacity="0" result="BackgroundImageFix"/>
<feBlend mode="normal" in="SourceGraphic" in2="BackgroundImageFix" result="shape"/>
<feColorMatrix in="SourceAlpha" type="matrix" values="0 0 0 0 0 0 0 0 0 0 0 0 0 0 0 0 0 0 127 0" result="hardAlpha"/>
<feOffset/>
<feGaussianBlur stdDeviation="2"/>
<feComposite in2="hardAlpha" operator="arithmetic" k2="-1" k3="1"/>
<feColorMatrix type="matrix" values="0 0 0 0 0.95 0 0 0 0 0.95 0 0 0 0 0.95 0 0 0 1 0"/>
<feBlend mode="normal" in2="shape" result="effect1_innerShadow_5204_66354"/>
</filter>
<filter id="filter20_i_5204_66354" x="163.41" y="3.67969" width="31.1758" height="31.1328" filterUnits="userSpaceOnUse" color-interpolation-filters="sRGB">
<feFlood flood-opacity="0" result="BackgroundImageFix"/>
<feBlend mode="normal" in="SourceGraphic" in2="BackgroundImageFix" result="shape"/>
<feColorMatrix in="SourceAlpha" type="matrix" values="0 0 0 0 0 0 0 0 0 0 0 0 0 0 0 0 0 0 127 0" result="hardAlpha"/>
<feOffset/>
<feGaussianBlur stdDeviation="2"/>
<feComposite in2="hardAlpha" operator="arithmetic" k2="-1" k3="1"/>
<feColorMatrix type="matrix" values="0 0 0 0 0.95 0 0 0 0 0.95 0 0 0 0 0.95 0 0 0 1 0"/>
<feBlend mode="normal" in2="shape" result="effect1_innerShadow_5204_66354"/>
</filter>
<filter id="filter21_i_5204_66354" x="199.367" y="39.582" width="31.1758" height="67.0332" filterUnits="userSpaceOnUse" color-interpolation-filters="sRGB">
<feFlood flood-opacity="0" result="BackgroundImageFix"/>
<feBlend mode="normal" in="SourceGraphic" in2="BackgroundImageFix" result="shape"/>
<feColorMatrix in="SourceAlpha" type="matrix" values="0 0 0 0 0 0 0 0 0 0 0 0 0 0 0 0 0 0 127 0" result="hardAlpha"/>
<feOffset/>
<feGaussianBlur stdDeviation="2"/>
<feComposite in2="hardAlpha" operator="arithmetic" k2="-1" k3="1"/>
<feColorMatrix type="matrix" values="0 0 0 0 0.95 0 0 0 0 0.95 0 0 0 0 0.95 0 0 0 1 0"/>
<feBlend mode="normal" in2="shape" result="effect1_innerShadow_5204_66354"/>
</filter>
<filter id="filter22_i_5204_66354" x="271.273" y="39.582" width="31.1758" height="31.1328" filterUnits="userSpaceOnUse" color-interpolation-filters="sRGB">
<feFlood flood-opacity="0" result="BackgroundImageFix"/>
<feBlend mode="normal" in="SourceGraphic" in2="BackgroundImageFix" result="shape"/>
<feColorMatrix in="SourceAlpha" type="matrix" values="0 0 0 0 0 0 0 0 0 0 0 0 0 0 0 0 0 0 127 0" result="hardAlpha"/>
<feOffset/>
<feGaussianBlur stdDeviation="2"/>
<feComposite in2="hardAlpha" operator="arithmetic" k2="-1" k3="1"/>
<feColorMatrix type="matrix" values="0 0 0 0 0.95 0 0 0 0 0.95 0 0 0 0 0.95 0 0 0 1 0"/>
<feBlend mode="normal" in2="shape" result="effect1_innerShadow_5204_66354"/>
</filter>
<filter id="filter23_i_5204_66354" x="307.23" y="111.385" width="31.1758" height="31.1328" filterUnits="userSpaceOnUse" color-interpolation-filters="sRGB">
<feFlood flood-opacity="0" result="BackgroundImageFix"/>
<feBlend mode="normal" in="SourceGraphic" in2="BackgroundImageFix" result="shape"/>
<feColorMatrix in="SourceAlpha" type="matrix" values="0 0 0 0 0 0 0 0 0 0 0 0 0 0 0 0 0 0 127 0" result="hardAlpha"/>
<feOffset/>
<feGaussianBlur stdDeviation="2"/>
<feComposite in2="hardAlpha" operator="arithmetic" k2="-1" k3="1"/>
<feColorMatrix type="matrix" values="0 0 0 0 0.95 0 0 0 0 0.95 0 0 0 0 0.95 0 0 0 1 0"/>
<feBlend mode="normal" in2="shape" result="effect1_innerShadow_5204_66354"/>
</filter>
<filter id="filter24_i_5204_66354" x="307.23" y="147.287" width="31.1758" height="31.1328" filterUnits="userSpaceOnUse" color-interpolation-filters="sRGB">
<feFlood flood-opacity="0" result="BackgroundImageFix"/>
<feBlend mode="normal" in="SourceGraphic" in2="BackgroundImageFix" result="shape"/>
<feColorMatrix in="SourceAlpha" type="matrix" values="0 0 0 0 0 0 0 0 0 0 0 0 0 0 0 0 0 0 127 0" result="hardAlpha"/>
<feOffset/>
<feGaussianBlur stdDeviation="2"/>
<feComposite in2="hardAlpha" operator="arithmetic" k2="-1" k3="1"/>
<feColorMatrix type="matrix" values="0 0 0 0 0.95 0 0 0 0 0.95 0 0 0 0 0.95 0 0 0 1 0"/>
<feBlend mode="normal" in2="shape" result="effect1_innerShadow_5204_66354"/>
</filter>
<filter id="filter25_i_5204_66354" x="307.23" y="3.67969" width="31.1758" height="31.1328" filterUnits="userSpaceOnUse" color-interpolation-filters="sRGB">
<feFlood flood-opacity="0" result="BackgroundImageFix"/>
<feBlend mode="normal" in="SourceGraphic" in2="BackgroundImageFix" result="shape"/>
<feColorMatrix in="SourceAlpha" type="matrix" values="0 0 0 0 0 0 0 0 0 0 0 0 0 0 0 0 0 0 127 0" result="hardAlpha"/>
<feOffset/>
<feGaussianBlur stdDeviation="2"/>
<feComposite in2="hardAlpha" operator="arithmetic" k2="-1" k3="1"/>
<feColorMatrix type="matrix" values="0 0 0 0 0.95 0 0 0 0 0.95 0 0 0 0 0.95 0 0 0 1 0"/>
<feBlend mode="normal" in2="shape" result="effect1_innerShadow_5204_66354"/>
</filter>
<filter id="filter26_i_5204_66354" x="235.32" y="75.4824" width="31.1758" height="67.0332" filterUnits="userSpaceOnUse" color-interpolation-filters="sRGB">
<feFlood flood-opacity="0" result="BackgroundImageFix"/>
<feBlend mode="normal" in="SourceGraphic" in2="BackgroundImageFix" result="shape"/>
<feColorMatrix in="SourceAlpha" type="matrix" values="0 0 0 0 0 0 0 0 0 0 0 0 0 0 0 0 0 0 127 0" result="hardAlpha"/>
<feOffset/>
<feGaussianBlur stdDeviation="2"/>
<feComposite in2="hardAlpha" operator="arithmetic" k2="-1" k3="1"/>
<feColorMatrix type="matrix" values="0 0 0 0 0.95 0 0 0 0 0.95 0 0 0 0 0.95 0 0 0 1 0"/>
<feBlend mode="normal" in2="shape" result="effect1_innerShadow_5204_66354"/>
</filter>
<filter id="filter27_ddi_5204_66354" x="131.41" y="53.4824" width="95.1758" height="95.1328" filterUnits="userSpaceOnUse" color-interpolation-filters="sRGB">
<feFlood flood-opacity="0" result="BackgroundImageFix"/>
<feColorMatrix in="SourceAlpha" type="matrix" values="0 0 0 0 0 0 0 0 0 0 0 0 0 0 0 0 0 0 127 0" result="hardAlpha"/>
<feOffset dy="4"/>
<feGaussianBlur stdDeviation="8"/>
<feComposite in2="hardAlpha" operator="out"/>
<feColorMatrix type="matrix" values="0 0 0 0 0.0588235 0 0 0 0 0.141176 0 0 0 0 0.0666667 0 0 0 0.02 0"/>
<feBlend mode="normal" in2="BackgroundImageFix" result="effect1_dropShadow_5204_66354"/>
<feColorMatrix in="SourceAlpha" type="matrix" values="0 0 0 0 0 0 0 0 0 0 0 0 0 0 0 0 0 0 127 0" result="hardAlpha"/>
<feOffset dy="10"/>
<feGaussianBlur stdDeviation="16"/>
<feComposite in2="hardAlpha" operator="out"/>
<feColorMatrix type="matrix" values="0 0 0 0 0.14902 0 0 0 0 0.415686 0 0 0 0 0.913725 0 0 0 0.2 0"/>
<feBlend mode="normal" in2="effect1_dropShadow_5204_66354" result="effect2_dropShadow_5204_66354"/>
<feBlend mode="normal" in="SourceGraphic" in2="effect2_dropShadow_5204_66354" result="shape"/>
<feColorMatrix in="SourceAlpha" type="matrix" values="0 0 0 0 0 0 0 0 0 0 0 0 0 0 0 0 0 0 127 0" result="hardAlpha"/>
<feOffset dy="8"/>
<feGaussianBlur stdDeviation="4"/>
<feComposite in2="hardAlpha" operator="arithmetic" k2="-1" k3="1"/>
<feColorMatrix type="matrix" values="0 0 0 0 1 0 0 0 0 1 0 0 0 0 1 0 0 0 0.25 0"/>
<feBlend mode="normal" in2="shape" result="effect3_innerShadow_5204_66354"/>
</filter>
<filter id="filter28_f_5204_66354" x="-301.594" y="-210.709" width="594.668" height="523.67" filterUnits="userSpaceOnUse" color-interpolation-filters="sRGB">
<feFlood flood-opacity="0" result="BackgroundImageFix"/>
<feBlend mode="normal" in="SourceGraphic" in2="BackgroundImageFix" result="shape"/>
<feGaussianBlur stdDeviation="100" result="effect1_foregroundBlur_5204_66354"/>
</filter>
<filter id="filter29_f_5204_66354" x="4.5625" y="-70.5859" width="647.412" height="532.947" filterUnits="userSpaceOnUse" color-interpolation-filters="sRGB">
<feFlood flood-opacity="0" result="BackgroundImageFix"/>
<feBlend mode="normal" in="SourceGraphic" in2="BackgroundImageFix" result="shape"/>
<feGaussianBlur stdDeviation="100" result="effect1_foregroundBlur_5204_66354"/>
</filter>
<linearGradient id="paint0_linear_5204_66354" x1="304.84" y1="127.913" x2="304.84" y2="46.1719" gradientUnits="userSpaceOnUse">
<stop stop-color="#FAFAFA"/>
<stop offset="0.534678" stop-color="#266AE9"/>
<stop offset="1" stop-color="#FAFAFA"/>
</linearGradient>
<linearGradient id="paint1_linear_5204_66354" x1="89.1133" y1="179.202" x2="89.1133" y2="97.4609" gradientUnits="userSpaceOnUse">
<stop stop-color="#FAFAFA"/>
<stop offset="0.534678" stop-color="#266AE9"/>
<stop offset="1" stop-color="#FAFAFA"/>
</linearGradient>
<linearGradient id="paint2_linear_5204_66354" x1="-nan" y1="-nan" x2="-nan" y2="-nan" gradientUnits="userSpaceOnUse">
<stop stop-color="#FAFAFA"/>
<stop offset="0.534678" stop-color="#266AE9"/>
<stop offset="1" stop-color="#FAFAFA"/>
</linearGradient>
<linearGradient id="paint3_linear_5204_66354" x1="67.2839" y1="37.9517" x2="67.2839" y2="37.1973" gradientUnits="userSpaceOnUse">
<stop stop-color="#FAFAFA"/>
<stop offset="0.534678" stop-color="#266AE9"/>
<stop offset="1" stop-color="#FAFAFA"/>
</linearGradient>
<linearGradient id="paint4_linear_5204_66354" x1="-nan" y1="-nan" x2="-nan" y2="-nan" gradientUnits="userSpaceOnUse">
<stop stop-color="#FAFAFA"/>
<stop offset="0.534678" stop-color="#266AE9"/>
<stop offset="1" stop-color="#FAFAFA"/>
</linearGradient>
<linearGradient id="paint5_linear_5204_66354" x1="150.749" y1="145.657" x2="150.749" y2="144.902" gradientUnits="userSpaceOnUse">
<stop stop-color="#FAFAFA"/>
<stop offset="0.534678" stop-color="#266AE9"/>
<stop offset="1" stop-color="#FAFAFA"/>
</linearGradient>
<linearGradient id="paint6_linear_5204_66354" x1="-184.793" y1="124.163" x2="-210.263" y2="48.4721" gradientUnits="userSpaceOnUse">
<stop stop-color="#5C85D5"/>
<stop offset="1" stop-color="#C3A7F3"/>
</linearGradient>
<linearGradient id="paint7_linear_5204_66354" x1="550.757" y1="150.704" x2="563.611" y2="244.94" gradientUnits="userSpaceOnUse">
<stop stop-color="#5C85D5"/>
<stop offset="1" stop-color="#C3A7F3"/>
</linearGradient>
<linearGradient id="paint8_linear_5204_66354" x1="179.421" y1="4.5" x2="179.421" y2="213.5" gradientUnits="userSpaceOnUse">
<stop stop-color="#FAFAFA"/>
<stop offset="0.2" stop-color="#FAFAFA" stop-opacity="0"/>
<stop offset="0.8" stop-color="#FAFAFA" stop-opacity="0"/>
<stop offset="1" stop-color="#FAFAFA"/>
</linearGradient>
<linearGradient id="paint9_linear_5204_66354" x1="-47" y1="96.7062" x2="405" y2="96.7062" gradientUnits="userSpaceOnUse">
<stop stop-color="#FAFAFA"/>
<stop offset="0.2" stop-color="#FAFAFA" stop-opacity="0"/>
<stop offset="0.8" stop-color="#FAFAFA" stop-opacity="0"/>
<stop offset="1" stop-color="#FAFAFA"/>
</linearGradient>
<linearGradient id="paint10_linear_5204_66354" x1="179.333" y1="0" x2="179.333" y2="230" gradientUnits="userSpaceOnUse">
<stop stop-color="#FAFAFA"/>
<stop offset="0.2" stop-color="#FAFAFA" stop-opacity="0"/>
<stop offset="0.8" stop-color="#FAFAFA" stop-opacity="0"/>
<stop offset="1" stop-color="#FAFAFA"/>
</linearGradient>
<linearGradient id="paint11_linear_5204_66354" x1="0" y1="101.471" x2="358" y2="101.471" gradientUnits="userSpaceOnUse">
<stop stop-color="#FAFAFA"/>
<stop offset="0.2" stop-color="#FAFAFA" stop-opacity="0"/>
<stop offset="0.8" stop-color="#FAFAFA" stop-opacity="0"/>
<stop offset="1" stop-color="#FAFAFA"/>
</linearGradient>
<clipPath id="clip0_5204_66354">
<rect width="358" height="230" fill="white"/>
</clipPath>
<clipPath id="clip1_5204_66354">
<rect width="452" height="209" fill="white" transform="translate(-47 4.5)"/>
</clipPath>
</defs>
</svg>
