<svg width="724" height="338" viewBox="0 0 724 338" fill="none" xmlns="http://www.w3.org/2000/svg">
<g clip-path="url(#clip0_5041_74266)">
<g opacity="0.1" filter="url(#filter0_f_5041_74266)">
<path d="M758.245 253.268C745.131 348.32 657.833 414.798 563.259 401.751C468.684 388.704 487.515 412.899 500.628 317.846C513.741 222.794 577.535 180.127 672.109 193.174C766.684 206.221 771.358 158.216 758.245 253.268Z" fill="#A1A6FE" fill-opacity="0.8"/>
</g>
<g opacity="0.25">
<rect x="615" y="17" width="40" height="40" rx="10" fill="#EBEBEB"/>
</g>
<g opacity="0.25">
<rect x="563" y="17" width="40" height="40" rx="10" fill="#EBEBEB"/>
</g>
<g opacity="0.25">
<rect x="406" y="17" width="145" height="40" rx="10" fill="#EBEBEB"/>
</g>
<g opacity="0.25">
<rect x="56" y="17" width="228" height="40" rx="10" fill="#EBEBEB"/>
</g>
<g opacity="0.4">
<path d="M11 145C11 140.582 14.5817 137 19 137H263C267.418 137 271 140.582 271 145V161C271 165.418 267.418 169 263 169H19C14.5817 169 11 165.418 11 161V145Z" fill="#EBEBEB"/>
<rect x="11" y="173" width="120" height="16" rx="4" fill="#EBEBEB"/>
</g>
<g opacity="0.45">
<rect x="12" y="213" width="354.667" height="114" rx="16" fill="#F2F2F2"/>
<rect x="36" y="231" width="80" height="22" rx="6" fill="#EBEBEB"/>
<rect x="36" y="269" width="272" height="40" rx="8" fill="#EBEBEB"/>
<rect x="382.666" y="213" width="354.667" height="114" rx="16" fill="#F2F2F2"/>
<rect x="406.666" y="231" width="125" height="22" rx="6" fill="#EBEBEB"/>
<rect x="406.666" y="269" width="178" height="40" rx="8" fill="#EBEBEB"/>
</g>
<g opacity="0.1" filter="url(#filter1_f_5041_74266)">
<path d="M684.283 331.889C662.161 208.67 554.778 90.7558 554.778 90.7558C554.778 90.7558 599.584 42.106 613.499 22.7857C619.354 88.937 696.826 122.582 735.447 181.985C734.648 214.436 690.857 300.895 684.283 331.889Z" fill="url(#paint0_linear_5041_74266)"/>
</g>
<path d="M76 201L176 201" stroke="url(#paint1_linear_5041_74266)" stroke-opacity="0.3" stroke-linecap="round"/>
<path d="M524 95L915 95" stroke="url(#paint2_linear_5041_74266)" stroke-opacity="0.3" stroke-linecap="round"/>
<path d="M192 67L192 131" stroke="url(#paint3_linear_5041_74266)" stroke-opacity="0.3" stroke-linecap="round"/>
<path d="M502 131L502 339" stroke="url(#paint4_linear_5041_74266)" stroke-opacity="0.3" stroke-linecap="round"/>
<path d="M427 128L427 360" stroke="url(#paint5_linear_5041_74266)" stroke-opacity="0.3" stroke-linecap="round"/>
<g clip-path="url(#clip1_5041_74266)">
<g filter="url(#filter2_d_5041_74266)">
<path d="M454 112H246C239.373 112 234 117.373 234 124V188C234 194.627 239.373 200 246 200H454C460.627 200 466 194.627 466 188V124C466 117.373 460.627 112 454 112Z" fill="white"/>
<path d="M454 112.5H246C239.649 112.5 234.5 117.649 234.5 124V188C234.5 194.351 239.649 199.5 246 199.5H454C460.351 199.5 465.5 194.351 465.5 188V124C465.5 117.649 460.351 112.5 454 112.5Z" stroke="#F3F4F6"/>
<path d="M247.203 139V129.13H251.221C252.285 129.13 253.102 129.354 253.671 129.802C254.24 130.25 254.525 130.88 254.525 131.692C254.525 132.308 254.338 132.821 253.965 133.232C253.601 133.643 253.102 133.918 252.467 134.058V133.848C253.195 133.932 253.76 134.184 254.161 134.604C254.572 135.024 254.777 135.579 254.777 136.27C254.777 137.147 254.483 137.824 253.895 138.3C253.307 138.767 252.476 139 251.403 139H247.203ZM248.463 137.964H251.277C251.968 137.964 252.509 137.833 252.901 137.572C253.302 137.301 253.503 136.858 253.503 136.242C253.503 135.617 253.302 135.173 252.901 134.912C252.509 134.651 251.968 134.52 251.277 134.52H248.463V137.964ZM248.463 133.484H251.039C251.776 133.484 252.327 133.344 252.691 133.064C253.055 132.775 253.237 132.359 253.237 131.818C253.237 131.277 253.055 130.866 252.691 130.586C252.327 130.297 251.776 130.152 251.039 130.152H248.463V133.484ZM259.308 139.126C258.692 139.126 258.15 138.981 257.684 138.692C257.217 138.403 256.853 137.983 256.592 137.432C256.33 136.881 256.2 136.228 256.2 135.472C256.2 134.716 256.33 134.067 256.592 133.526C256.853 132.975 257.217 132.555 257.684 132.266C258.15 131.977 258.692 131.832 259.308 131.832C259.933 131.832 260.474 131.991 260.932 132.308C261.398 132.616 261.706 133.041 261.856 133.582H261.688L261.842 131.958H263.074C263.046 132.238 263.018 132.518 262.99 132.798C262.971 133.078 262.962 133.353 262.962 133.624V139H261.688V137.39H261.842C261.692 137.922 261.384 138.347 260.918 138.664C260.46 138.972 259.924 139.126 259.308 139.126ZM259.602 138.118C260.236 138.118 260.745 137.894 261.128 137.446C261.51 136.998 261.702 136.34 261.702 135.472C261.702 134.604 261.51 133.951 261.128 133.512C260.745 133.073 260.236 132.854 259.602 132.854C258.967 132.854 258.454 133.073 258.062 133.512C257.679 133.951 257.488 134.604 257.488 135.472C257.488 136.34 257.679 136.998 258.062 137.446C258.444 137.894 258.958 138.118 259.602 138.118ZM267.476 139.126C266.907 139.126 266.375 139.051 265.88 138.902C265.395 138.753 264.994 138.538 264.676 138.258L265.082 137.376C265.428 137.637 265.806 137.838 266.216 137.978C266.636 138.109 267.066 138.174 267.504 138.174C268.036 138.174 268.438 138.076 268.708 137.88C268.988 137.684 269.128 137.423 269.128 137.096C269.128 136.835 269.04 136.625 268.862 136.466C268.685 136.307 268.405 136.191 268.022 136.116L266.692 135.85C266.095 135.71 265.642 135.486 265.334 135.178C265.036 134.861 264.886 134.455 264.886 133.96C264.886 133.549 264.998 133.185 265.222 132.868C265.446 132.541 265.764 132.289 266.174 132.112C266.594 131.925 267.084 131.832 267.644 131.832C268.158 131.832 268.634 131.907 269.072 132.056C269.52 132.205 269.889 132.425 270.178 132.714L269.758 133.568C269.469 133.316 269.142 133.125 268.778 132.994C268.424 132.854 268.06 132.784 267.686 132.784C267.145 132.784 266.744 132.891 266.482 133.106C266.221 133.311 266.09 133.582 266.09 133.918C266.09 134.17 266.17 134.38 266.328 134.548C266.487 134.707 266.744 134.828 267.098 134.912L268.428 135.178C269.054 135.309 269.525 135.523 269.842 135.822C270.16 136.121 270.318 136.517 270.318 137.012C270.318 137.451 270.197 137.829 269.954 138.146C269.721 138.463 269.39 138.706 268.96 138.874C268.54 139.042 268.046 139.126 267.476 139.126ZM275.261 139.126C274.141 139.126 273.255 138.804 272.601 138.16C271.957 137.516 271.635 136.629 271.635 135.5C271.635 134.753 271.775 134.109 272.055 133.568C272.345 133.017 272.741 132.593 273.245 132.294C273.749 131.986 274.337 131.832 275.009 131.832C275.653 131.832 276.199 131.972 276.647 132.252C277.095 132.523 277.436 132.91 277.669 133.414C277.903 133.918 278.019 134.515 278.019 135.206V135.626H272.629V134.87H277.151L276.913 135.052C276.913 134.324 276.75 133.759 276.423 133.358C276.106 132.957 275.635 132.756 275.009 132.756C274.328 132.756 273.801 132.994 273.427 133.47C273.054 133.937 272.867 134.576 272.867 135.388V135.514C272.867 136.373 273.077 137.021 273.497 137.46C273.927 137.899 274.519 138.118 275.275 138.118C275.695 138.118 276.087 138.057 276.451 137.936C276.815 137.815 277.165 137.614 277.501 137.334L277.921 138.216C277.604 138.505 277.207 138.729 276.731 138.888C276.265 139.047 275.775 139.126 275.261 139.126ZM286.778 139.126C285.984 139.126 285.27 139.023 284.636 138.818C284.001 138.613 283.45 138.323 282.984 137.95L283.432 136.914C283.758 137.157 284.09 137.362 284.426 137.53C284.762 137.689 285.121 137.81 285.504 137.894C285.896 137.969 286.32 138.006 286.778 138.006C287.59 138.006 288.187 137.861 288.57 137.572C288.962 137.273 289.158 136.881 289.158 136.396C289.158 135.976 289.022 135.654 288.752 135.43C288.481 135.206 288.01 135.029 287.338 134.898L285.84 134.59C284.934 134.403 284.258 134.1 283.81 133.68C283.371 133.251 283.152 132.672 283.152 131.944C283.152 131.356 283.306 130.843 283.614 130.404C283.931 129.956 284.365 129.611 284.916 129.368C285.476 129.125 286.129 129.004 286.876 129.004C287.566 129.004 288.206 129.107 288.794 129.312C289.382 129.517 289.876 129.821 290.278 130.222L289.83 131.216C289.41 130.833 288.957 130.558 288.472 130.39C287.996 130.213 287.454 130.124 286.848 130.124C286.11 130.124 285.527 130.283 285.098 130.6C284.668 130.917 284.454 131.347 284.454 131.888C284.454 132.317 284.589 132.658 284.86 132.91C285.13 133.153 285.578 133.339 286.204 133.47L287.702 133.764C288.654 133.951 289.349 134.245 289.788 134.646C290.236 135.047 290.46 135.603 290.46 136.312C290.46 136.872 290.31 137.367 290.012 137.796C289.713 138.216 289.288 138.543 288.738 138.776C288.187 139.009 287.534 139.126 286.778 139.126ZM295.191 139.126C294.491 139.126 293.884 138.981 293.371 138.692C292.857 138.393 292.456 137.969 292.167 137.418C291.887 136.858 291.747 136.195 291.747 135.43C291.747 134.674 291.891 134.03 292.181 133.498C292.47 132.957 292.871 132.546 293.385 132.266C293.898 131.977 294.5 131.832 295.191 131.832C295.648 131.832 296.091 131.911 296.521 132.07C296.95 132.219 297.3 132.439 297.571 132.728L297.137 133.624C296.866 133.363 296.567 133.171 296.241 133.05C295.914 132.919 295.592 132.854 295.275 132.854C294.584 132.854 294.043 133.078 293.651 133.526C293.259 133.965 293.063 134.604 293.063 135.444C293.063 136.293 293.259 136.947 293.651 137.404C294.043 137.861 294.584 138.09 295.275 138.09C295.583 138.09 295.9 138.029 296.227 137.908C296.553 137.787 296.857 137.595 297.137 137.334L297.571 138.216C297.291 138.515 296.931 138.743 296.493 138.902C296.063 139.051 295.629 139.126 295.191 139.126ZM302.195 139.126C301.075 139.126 300.188 138.804 299.535 138.16C298.891 137.516 298.569 136.629 298.569 135.5C298.569 134.753 298.709 134.109 298.989 133.568C299.278 133.017 299.675 132.593 300.179 132.294C300.683 131.986 301.271 131.832 301.943 131.832C302.587 131.832 303.133 131.972 303.581 132.252C304.029 132.523 304.369 132.91 304.603 133.414C304.836 133.918 304.953 134.515 304.953 135.206V135.626H299.563V134.87H304.085L303.847 135.052C303.847 134.324 303.683 133.759 303.357 133.358C303.039 132.957 302.568 132.756 301.943 132.756C301.261 132.756 300.734 132.994 300.361 133.47C299.987 133.937 299.801 134.576 299.801 135.388V135.514C299.801 136.373 300.011 137.021 300.431 137.46C300.86 137.899 301.453 138.118 302.209 138.118C302.629 138.118 303.021 138.057 303.385 137.936C303.749 137.815 304.099 137.614 304.435 137.334L304.855 138.216C304.537 138.505 304.141 138.729 303.665 138.888C303.198 139.047 302.708 139.126 302.195 139.126ZM306.618 139V133.624C306.618 133.353 306.608 133.078 306.59 132.798C306.571 132.518 306.543 132.238 306.506 131.958H307.738L307.878 133.47H307.71C307.924 132.938 308.256 132.532 308.704 132.252C309.152 131.972 309.674 131.832 310.272 131.832C311.102 131.832 311.728 132.061 312.148 132.518C312.568 132.966 312.778 133.666 312.778 134.618V139H311.504V134.688C311.504 134.044 311.378 133.582 311.126 133.302C310.874 133.013 310.482 132.868 309.95 132.868C309.315 132.868 308.811 133.059 308.438 133.442C308.074 133.825 307.892 134.343 307.892 134.996V139H306.618ZM317.55 139.126C316.934 139.126 316.392 138.981 315.926 138.692C315.459 138.403 315.095 137.983 314.834 137.432C314.572 136.881 314.442 136.228 314.442 135.472C314.442 134.716 314.572 134.067 314.834 133.526C315.095 132.975 315.459 132.555 315.926 132.266C316.392 131.977 316.934 131.832 317.55 131.832C318.175 131.832 318.716 131.991 319.174 132.308C319.64 132.616 319.948 133.041 320.098 133.582H319.93L320.084 131.958H321.316C321.288 132.238 321.26 132.518 321.232 132.798C321.213 133.078 321.204 133.353 321.204 133.624V139H319.93V137.39H320.084C319.934 137.922 319.626 138.347 319.16 138.664C318.702 138.972 318.166 139.126 317.55 139.126ZM317.844 138.118C318.478 138.118 318.987 137.894 319.37 137.446C319.752 136.998 319.944 136.34 319.944 135.472C319.944 134.604 319.752 133.951 319.37 133.512C318.987 133.073 318.478 132.854 317.844 132.854C317.209 132.854 316.696 133.073 316.304 133.512C315.921 133.951 315.73 134.604 315.73 135.472C315.73 136.34 315.921 136.998 316.304 137.446C316.686 137.894 317.2 138.118 317.844 138.118ZM323.324 139V133.68C323.324 133.4 323.315 133.115 323.296 132.826C323.287 132.527 323.264 132.238 323.226 131.958H324.458L324.612 133.722L324.402 133.736C324.496 133.307 324.654 132.952 324.878 132.672C325.112 132.383 325.387 132.173 325.704 132.042C326.031 131.902 326.367 131.832 326.712 131.832C326.862 131.832 326.988 131.837 327.09 131.846C327.193 131.855 327.296 131.879 327.398 131.916L327.37 133.05C327.23 132.994 327.1 132.961 326.978 132.952C326.866 132.933 326.726 132.924 326.558 132.924C326.148 132.924 325.793 133.017 325.494 133.204C325.205 133.391 324.981 133.638 324.822 133.946C324.673 134.254 324.598 134.585 324.598 134.94V139H323.324ZM328.52 139V131.958H329.794V139H328.52ZM328.408 130.418V129.046H329.92V130.418H328.408ZM334.892 139.126C334.202 139.126 333.604 138.981 333.1 138.692C332.596 138.393 332.204 137.973 331.924 137.432C331.644 136.881 331.504 136.228 331.504 135.472C331.504 134.725 331.644 134.081 331.924 133.54C332.204 132.989 332.596 132.569 333.1 132.28C333.604 131.981 334.202 131.832 334.892 131.832C335.583 131.832 336.18 131.981 336.684 132.28C337.198 132.569 337.59 132.989 337.86 133.54C338.14 134.081 338.28 134.725 338.28 135.472C338.28 136.228 338.14 136.881 337.86 137.432C337.59 137.973 337.198 138.393 336.684 138.692C336.18 138.981 335.583 139.126 334.892 139.126ZM334.892 138.118C335.527 138.118 336.036 137.894 336.418 137.446C336.801 136.998 336.992 136.34 336.992 135.472C336.992 134.604 336.801 133.951 336.418 133.512C336.036 133.073 335.527 132.854 334.892 132.854C334.248 132.854 333.735 133.073 333.352 133.512C332.979 133.951 332.792 134.604 332.792 135.472C332.792 136.34 332.979 136.998 333.352 137.446C333.735 137.894 334.248 138.118 334.892 138.118Z" fill="#1F2937"/>
<path d="M235 155.5H465" stroke="#F3F4F6"/>
<path d="M454 160H246C241.582 160 238 163.582 238 168V188C238 192.418 241.582 196 246 196H454C458.418 196 462 192.418 462 188V168C462 163.582 458.418 160 454 160Z" fill="#EBF1FF"/>
<path d="M251.558 183.126C250.569 183.126 249.719 182.921 249.01 182.51C248.31 182.099 247.773 181.516 247.4 180.76C247.027 179.995 246.84 179.094 246.84 178.058C246.84 177.022 247.027 176.126 247.4 175.37C247.773 174.614 248.31 174.031 249.01 173.62C249.719 173.209 250.569 173.004 251.558 173.004C252.267 173.004 252.897 173.111 253.448 173.326C253.999 173.531 254.479 173.835 254.89 174.236L254.414 175.286C253.966 174.894 253.523 174.614 253.084 174.446C252.655 174.269 252.155 174.18 251.586 174.18C250.494 174.18 249.659 174.516 249.08 175.188C248.501 175.86 248.212 176.817 248.212 178.058C248.212 179.299 248.501 180.261 249.08 180.942C249.659 181.614 250.494 181.95 251.586 181.95C252.155 181.95 252.655 181.866 253.084 181.698C253.523 181.521 253.966 181.236 254.414 180.844L254.89 181.88C254.479 182.281 253.994 182.589 253.434 182.804C252.883 183.019 252.258 183.126 251.558 183.126ZM258.99 183.126C258.14 183.126 257.501 182.897 257.072 182.44C256.652 181.983 256.442 181.278 256.442 180.326V175.958H257.716V180.298C257.716 180.914 257.842 181.367 258.094 181.656C258.346 181.945 258.738 182.09 259.27 182.09C259.848 182.09 260.315 181.899 260.67 181.516C261.034 181.124 261.216 180.606 261.216 179.962V175.958H262.49V183H261.258V181.446H261.44C261.244 181.978 260.931 182.393 260.502 182.692C260.072 182.981 259.568 183.126 258.99 183.126ZM267.012 183.126C266.443 183.126 265.911 183.051 265.416 182.902C264.931 182.753 264.53 182.538 264.212 182.258L264.618 181.376C264.964 181.637 265.342 181.838 265.752 181.978C266.172 182.109 266.602 182.174 267.04 182.174C267.572 182.174 267.974 182.076 268.244 181.88C268.524 181.684 268.664 181.423 268.664 181.096C268.664 180.835 268.576 180.625 268.398 180.466C268.221 180.307 267.941 180.191 267.558 180.116L266.228 179.85C265.631 179.71 265.178 179.486 264.87 179.178C264.572 178.861 264.422 178.455 264.422 177.96C264.422 177.549 264.534 177.185 264.758 176.868C264.982 176.541 265.3 176.289 265.71 176.112C266.13 175.925 266.62 175.832 267.18 175.832C267.694 175.832 268.17 175.907 268.608 176.056C269.056 176.205 269.425 176.425 269.714 176.714L269.294 177.568C269.005 177.316 268.678 177.125 268.314 176.994C267.96 176.854 267.596 176.784 267.222 176.784C266.681 176.784 266.28 176.891 266.018 177.106C265.757 177.311 265.626 177.582 265.626 177.918C265.626 178.17 265.706 178.38 265.864 178.548C266.023 178.707 266.28 178.828 266.634 178.912L267.964 179.178C268.59 179.309 269.061 179.523 269.378 179.822C269.696 180.121 269.854 180.517 269.854 181.012C269.854 181.451 269.733 181.829 269.49 182.146C269.257 182.463 268.926 182.706 268.496 182.874C268.076 183.042 267.582 183.126 267.012 183.126ZM274.155 183.126C273.418 183.126 272.858 182.925 272.475 182.524C272.102 182.113 271.915 181.497 271.915 180.676V176.938H270.543V175.958H271.915V174.068L273.189 173.718V175.958H275.177V176.938H273.189V180.564C273.189 181.105 273.282 181.493 273.469 181.726C273.665 181.95 273.945 182.062 274.309 182.062C274.496 182.062 274.654 182.048 274.785 182.02C274.925 181.983 275.051 181.941 275.163 181.894V182.944C275.023 183 274.86 183.042 274.673 183.07C274.496 183.107 274.323 183.126 274.155 183.126ZM279.413 183.126C278.722 183.126 278.125 182.981 277.621 182.692C277.117 182.393 276.725 181.973 276.445 181.432C276.165 180.881 276.025 180.228 276.025 179.472C276.025 178.725 276.165 178.081 276.445 177.54C276.725 176.989 277.117 176.569 277.621 176.28C278.125 175.981 278.722 175.832 279.413 175.832C280.103 175.832 280.701 175.981 281.205 176.28C281.718 176.569 282.11 176.989 282.381 177.54C282.661 178.081 282.801 178.725 282.801 179.472C282.801 180.228 282.661 180.881 282.381 181.432C282.11 181.973 281.718 182.393 281.205 182.692C280.701 182.981 280.103 183.126 279.413 183.126ZM279.413 182.118C280.047 182.118 280.556 181.894 280.939 181.446C281.321 180.998 281.513 180.34 281.513 179.472C281.513 178.604 281.321 177.951 280.939 177.512C280.556 177.073 280.047 176.854 279.413 176.854C278.769 176.854 278.255 177.073 277.873 177.512C277.499 177.951 277.313 178.604 277.313 179.472C277.313 180.34 277.499 180.998 277.873 181.446C278.255 181.894 278.769 182.118 279.413 182.118ZM284.511 183V177.624C284.511 177.353 284.502 177.078 284.483 176.798C284.464 176.518 284.436 176.238 284.399 175.958H285.631L285.771 177.47H285.603C285.79 176.947 286.088 176.546 286.499 176.266C286.91 175.977 287.4 175.832 287.969 175.832C288.548 175.832 289.024 175.972 289.397 176.252C289.77 176.523 290.022 176.952 290.153 177.54H289.943C290.12 177.017 290.433 176.602 290.881 176.294C291.329 175.986 291.852 175.832 292.449 175.832C293.224 175.832 293.807 176.061 294.199 176.518C294.591 176.966 294.787 177.666 294.787 178.618V183H293.513V178.688C293.513 178.044 293.401 177.582 293.177 177.302C292.953 177.013 292.598 176.868 292.113 176.868C291.544 176.868 291.096 177.064 290.769 177.456C290.442 177.839 290.279 178.361 290.279 179.024V183H289.005V178.688C289.005 178.044 288.893 177.582 288.669 177.302C288.454 177.013 288.1 176.868 287.605 176.868C287.036 176.868 286.588 177.064 286.261 177.456C285.944 177.839 285.785 178.361 285.785 179.024V183H284.511ZM303.964 183.126C303.171 183.126 302.457 183.023 301.822 182.818C301.187 182.613 300.637 182.323 300.17 181.95L300.618 180.914C300.945 181.157 301.276 181.362 301.612 181.53C301.948 181.689 302.307 181.81 302.69 181.894C303.082 181.969 303.507 182.006 303.964 182.006C304.776 182.006 305.373 181.861 305.756 181.572C306.148 181.273 306.344 180.881 306.344 180.396C306.344 179.976 306.209 179.654 305.938 179.43C305.667 179.206 305.196 179.029 304.524 178.898L303.026 178.59C302.121 178.403 301.444 178.1 300.996 177.68C300.557 177.251 300.338 176.672 300.338 175.944C300.338 175.356 300.492 174.843 300.8 174.404C301.117 173.956 301.551 173.611 302.102 173.368C302.662 173.125 303.315 173.004 304.062 173.004C304.753 173.004 305.392 173.107 305.98 173.312C306.568 173.517 307.063 173.821 307.464 174.222L307.016 175.216C306.596 174.833 306.143 174.558 305.658 174.39C305.182 174.213 304.641 174.124 304.034 174.124C303.297 174.124 302.713 174.283 302.284 174.6C301.855 174.917 301.64 175.347 301.64 175.888C301.64 176.317 301.775 176.658 302.046 176.91C302.317 177.153 302.765 177.339 303.39 177.47L304.888 177.764C305.84 177.951 306.535 178.245 306.974 178.646C307.422 179.047 307.646 179.603 307.646 180.312C307.646 180.872 307.497 181.367 307.198 181.796C306.899 182.216 306.475 182.543 305.924 182.776C305.373 183.009 304.72 183.126 303.964 183.126ZM312.377 183.126C311.677 183.126 311.07 182.981 310.557 182.692C310.044 182.393 309.642 181.969 309.353 181.418C309.073 180.858 308.933 180.195 308.933 179.43C308.933 178.674 309.078 178.03 309.367 177.498C309.656 176.957 310.058 176.546 310.571 176.266C311.084 175.977 311.686 175.832 312.377 175.832C312.834 175.832 313.278 175.911 313.707 176.07C314.136 176.219 314.486 176.439 314.757 176.728L314.323 177.624C314.052 177.363 313.754 177.171 313.427 177.05C313.1 176.919 312.778 176.854 312.461 176.854C311.77 176.854 311.229 177.078 310.837 177.526C310.445 177.965 310.249 178.604 310.249 179.444C310.249 180.293 310.445 180.947 310.837 181.404C311.229 181.861 311.77 182.09 312.461 182.09C312.769 182.09 313.086 182.029 313.413 181.908C313.74 181.787 314.043 181.595 314.323 181.334L314.757 182.216C314.477 182.515 314.118 182.743 313.679 182.902C313.25 183.051 312.816 183.126 312.377 183.126ZM319.381 183.126C318.261 183.126 317.375 182.804 316.721 182.16C316.077 181.516 315.755 180.629 315.755 179.5C315.755 178.753 315.895 178.109 316.175 177.568C316.465 177.017 316.861 176.593 317.365 176.294C317.869 175.986 318.457 175.832 319.129 175.832C319.773 175.832 320.319 175.972 320.767 176.252C321.215 176.523 321.556 176.91 321.789 177.414C322.023 177.918 322.139 178.515 322.139 179.206V179.626H316.749V178.87H321.271L321.033 179.052C321.033 178.324 320.87 177.759 320.543 177.358C320.226 176.957 319.755 176.756 319.129 176.756C318.448 176.756 317.921 176.994 317.547 177.47C317.174 177.937 316.987 178.576 316.987 179.388V179.514C316.987 180.373 317.197 181.021 317.617 181.46C318.047 181.899 318.639 182.118 319.395 182.118C319.815 182.118 320.207 182.057 320.571 181.936C320.935 181.815 321.285 181.614 321.621 181.334L322.041 182.216C321.724 182.505 321.327 182.729 320.851 182.888C320.385 183.047 319.895 183.126 319.381 183.126ZM323.804 183V177.624C323.804 177.353 323.795 177.078 323.776 176.798C323.758 176.518 323.73 176.238 323.692 175.958H324.924L325.064 177.47H324.896C325.111 176.938 325.442 176.532 325.89 176.252C326.338 175.972 326.861 175.832 327.458 175.832C328.289 175.832 328.914 176.061 329.334 176.518C329.754 176.966 329.964 177.666 329.964 178.618V183H328.69V178.688C328.69 178.044 328.564 177.582 328.312 177.302C328.06 177.013 327.668 176.868 327.136 176.868C326.502 176.868 325.998 177.059 325.624 177.442C325.26 177.825 325.078 178.343 325.078 178.996V183H323.804ZM334.736 183.126C334.12 183.126 333.579 182.981 333.112 182.692C332.646 182.403 332.282 181.983 332.02 181.432C331.759 180.881 331.628 180.228 331.628 179.472C331.628 178.716 331.759 178.067 332.02 177.526C332.282 176.975 332.646 176.555 333.112 176.266C333.579 175.977 334.12 175.832 334.736 175.832C335.362 175.832 335.903 175.991 336.36 176.308C336.827 176.616 337.135 177.041 337.284 177.582H337.116L337.27 175.958H338.502C338.474 176.238 338.446 176.518 338.418 176.798C338.4 177.078 338.39 177.353 338.39 177.624V183H337.116V181.39H337.27C337.121 181.922 336.813 182.347 336.346 182.664C335.889 182.972 335.352 183.126 334.736 183.126ZM335.03 182.118C335.665 182.118 336.174 181.894 336.556 181.446C336.939 180.998 337.13 180.34 337.13 179.472C337.13 178.604 336.939 177.951 336.556 177.512C336.174 177.073 335.665 176.854 335.03 176.854C334.396 176.854 333.882 177.073 333.49 177.512C333.108 177.951 332.916 178.604 332.916 179.472C332.916 180.34 333.108 180.998 333.49 181.446C333.873 181.894 334.386 182.118 335.03 182.118ZM340.511 183V177.68C340.511 177.4 340.502 177.115 340.483 176.826C340.474 176.527 340.45 176.238 340.413 175.958H341.645L341.799 177.722L341.589 177.736C341.682 177.307 341.841 176.952 342.065 176.672C342.298 176.383 342.574 176.173 342.891 176.042C343.218 175.902 343.554 175.832 343.899 175.832C344.048 175.832 344.174 175.837 344.277 175.846C344.38 175.855 344.482 175.879 344.585 175.916L344.557 177.05C344.417 176.994 344.286 176.961 344.165 176.952C344.053 176.933 343.913 176.924 343.745 176.924C343.334 176.924 342.98 177.017 342.681 177.204C342.392 177.391 342.168 177.638 342.009 177.946C341.86 178.254 341.785 178.585 341.785 178.94V183H340.511ZM345.707 183V175.958H346.981V183H345.707ZM345.595 174.418V173.046H347.107V174.418H345.595ZM352.079 183.126C351.388 183.126 350.791 182.981 350.287 182.692C349.783 182.393 349.391 181.973 349.111 181.432C348.831 180.881 348.691 180.228 348.691 179.472C348.691 178.725 348.831 178.081 349.111 177.54C349.391 176.989 349.783 176.569 350.287 176.28C350.791 175.981 351.388 175.832 352.079 175.832C352.77 175.832 353.367 175.981 353.871 176.28C354.384 176.569 354.776 176.989 355.047 177.54C355.327 178.081 355.467 178.725 355.467 179.472C355.467 180.228 355.327 180.881 355.047 181.432C354.776 181.973 354.384 182.393 353.871 182.692C353.367 182.981 352.77 183.126 352.079 183.126ZM352.079 182.118C352.714 182.118 353.222 181.894 353.605 181.446C353.988 180.998 354.179 180.34 354.179 179.472C354.179 178.604 353.988 177.951 353.605 177.512C353.222 177.073 352.714 176.854 352.079 176.854C351.435 176.854 350.922 177.073 350.539 177.512C350.166 177.951 349.979 178.604 349.979 179.472C349.979 180.34 350.166 180.998 350.539 181.446C350.922 181.894 351.435 182.118 352.079 182.118Z" fill="#1F2937"/>
<path d="M451.333 174L443.999 181.333L440.666 178" stroke="#083CA1" stroke-width="1.33" stroke-linecap="round" stroke-linejoin="round"/>
</g>
</g>
<g opacity="0.4">
<rect x="-429" y="73" width="580" height="40" rx="10" fill="#EBEBEB"/>
</g>
<g clip-path="url(#clip2_5041_74266)">
<path d="M495 73H239C233.477 73 229 77.4772 229 83V103C229 108.523 233.477 113 239 113H495C500.523 113 505 108.523 505 103V83C505 77.4772 500.523 73 495 73Z" fill="#F5F5F5"/>
<path d="M457 77.5H241C236.858 77.5 233.5 80.8579 233.5 85V101C233.5 105.142 236.858 108.5 241 108.5H457C461.142 108.5 464.5 105.142 464.5 101V85C464.5 80.8579 461.142 77.5 457 77.5Z" fill="white"/>
<path d="M457 77.5H241C236.858 77.5 233.5 80.8579 233.5 85V101C233.5 105.142 236.858 108.5 241 108.5H457C461.142 108.5 464.5 105.142 464.5 101V85C464.5 80.8579 461.142 77.5 457 77.5Z" stroke="#E4E4E7"/>
<path d="M246.031 97.9996V89.5396H248.899C249.843 89.5396 250.639 89.7036 251.287 90.0316C251.943 90.3596 252.439 90.8396 252.775 91.4716C253.111 92.0956 253.279 92.8596 253.279 93.7636C253.279 94.6676 253.111 95.4356 252.775 96.0676C252.439 96.6996 251.943 97.1796 251.287 97.5076C250.639 97.8356 249.843 97.9996 248.899 97.9996H246.031ZM247.147 97.0516H248.815C249.943 97.0516 250.779 96.7796 251.323 96.2356C251.867 95.6916 252.139 94.8676 252.139 93.7636C252.139 92.6596 251.867 91.8396 251.323 91.3036C250.779 90.7596 249.943 90.4876 248.815 90.4876H247.147V97.0516ZM254.911 97.9996V91.9636H256.003V97.9996H254.911ZM254.815 90.6436V89.4676H256.111V90.6436H254.815ZM259.869 98.1076C259.381 98.1076 258.925 98.0436 258.501 97.9156C258.085 97.7876 257.741 97.6036 257.469 97.3636L257.817 96.6076C258.113 96.8316 258.437 97.0036 258.789 97.1236C259.149 97.2356 259.517 97.2916 259.893 97.2916C260.349 97.2916 260.693 97.2076 260.925 97.0396C261.165 96.8716 261.285 96.6476 261.285 96.3676C261.285 96.1436 261.209 95.9636 261.057 95.8276C260.905 95.6916 260.665 95.5916 260.337 95.5276L259.197 95.2996C258.685 95.1796 258.297 94.9876 258.033 94.7236C257.777 94.4516 257.649 94.1036 257.649 93.6796C257.649 93.3276 257.745 93.0156 257.937 92.7436C258.129 92.4636 258.401 92.2476 258.753 92.0956C259.113 91.9356 259.533 91.8556 260.013 91.8556C260.453 91.8556 260.861 91.9196 261.237 92.0476C261.621 92.1756 261.937 92.3636 262.185 92.6116L261.825 93.3436C261.577 93.1276 261.297 92.9636 260.985 92.8516C260.681 92.7316 260.369 92.6716 260.049 92.6716C259.585 92.6716 259.241 92.7636 259.017 92.9476C258.793 93.1236 258.681 93.3556 258.681 93.6436C258.681 93.8596 258.749 94.0396 258.885 94.1836C259.021 94.3196 259.241 94.4236 259.545 94.4956L260.685 94.7236C261.221 94.8356 261.625 95.0196 261.897 95.2756C262.169 95.5316 262.305 95.8716 262.305 96.2956C262.305 96.6716 262.201 96.9956 261.993 97.2676C261.793 97.5396 261.509 97.7476 261.141 97.8916C260.781 98.0356 260.357 98.1076 259.869 98.1076ZM266.386 98.1076C265.786 98.1076 265.266 97.9836 264.826 97.7356C264.386 97.4796 264.042 97.1156 263.794 96.6436C263.554 96.1636 263.434 95.5956 263.434 94.9396C263.434 94.2916 263.558 93.7396 263.806 93.2836C264.054 92.8196 264.398 92.4676 264.838 92.2276C265.278 91.9796 265.794 91.8556 266.386 91.8556C266.778 91.8556 267.158 91.9236 267.526 92.0596C267.894 92.1876 268.194 92.3756 268.426 92.6236L268.054 93.3916C267.822 93.1676 267.566 93.0036 267.286 92.8996C267.006 92.7876 266.73 92.7316 266.458 92.7316C265.866 92.7316 265.402 92.9236 265.066 93.3076C264.73 93.6836 264.562 94.2316 264.562 94.9516C264.562 95.6796 264.73 96.2396 265.066 96.6316C265.402 97.0236 265.866 97.2196 266.458 97.2196C266.722 97.2196 266.994 97.1676 267.274 97.0636C267.554 96.9596 267.814 96.7956 268.054 96.5716L268.426 97.3276C268.186 97.5836 267.878 97.7796 267.502 97.9156C267.134 98.0436 266.762 98.1076 266.386 98.1076ZM272.186 98.1076C271.594 98.1076 271.082 97.9836 270.65 97.7356C270.218 97.4796 269.882 97.1196 269.642 96.6556C269.402 96.1836 269.282 95.6236 269.282 94.9756C269.282 94.3356 269.402 93.7836 269.642 93.3196C269.882 92.8476 270.218 92.4876 270.65 92.2396C271.082 91.9836 271.594 91.8556 272.186 91.8556C272.778 91.8556 273.29 91.9836 273.722 92.2396C274.162 92.4876 274.498 92.8476 274.73 93.3196C274.97 93.7836 275.09 94.3356 275.09 94.9756C275.09 95.6236 274.97 96.1836 274.73 96.6556C274.498 97.1196 274.162 97.4796 273.722 97.7356C273.29 97.9836 272.778 98.1076 272.186 98.1076ZM272.186 97.2436C272.73 97.2436 273.166 97.0516 273.494 96.6676C273.822 96.2836 273.986 95.7196 273.986 94.9756C273.986 94.2316 273.822 93.6716 273.494 93.2956C273.166 92.9196 272.73 92.7316 272.186 92.7316C271.634 92.7316 271.194 92.9196 270.866 93.2956C270.546 93.6716 270.386 94.2316 270.386 94.9756C270.386 95.7196 270.546 96.2836 270.866 96.6676C271.194 97.0516 271.634 97.2436 272.186 97.2436ZM278.704 98.1076C277.976 98.1076 277.428 97.9116 277.06 97.5196C276.7 97.1276 276.52 96.5236 276.52 95.7076V91.9636H277.612V95.6836C277.612 96.2116 277.72 96.5996 277.936 96.8476C278.152 97.0956 278.488 97.2196 278.944 97.2196C279.44 97.2196 279.84 97.0556 280.144 96.7276C280.456 96.3916 280.612 95.9476 280.612 95.3956V91.9636H281.704V97.9996H280.648V96.6676H280.804C280.636 97.1236 280.368 97.4796 280 97.7356C279.632 97.9836 279.2 98.1076 278.704 98.1076ZM283.54 97.9996V93.3916C283.54 93.1596 283.532 92.9236 283.516 92.6836C283.5 92.4436 283.476 92.2036 283.444 91.9636H284.5L284.62 93.2596H284.476C284.66 92.8036 284.944 92.4556 285.328 92.2156C285.712 91.9756 286.16 91.8556 286.672 91.8556C287.384 91.8556 287.92 92.0516 288.28 92.4436C288.64 92.8276 288.82 93.4276 288.82 94.2436V97.9996H287.728V94.3036C287.728 93.7516 287.62 93.3556 287.404 93.1156C287.188 92.8676 286.852 92.7436 286.396 92.7436C285.852 92.7436 285.42 92.9076 285.1 93.2356C284.788 93.5636 284.632 94.0076 284.632 94.5676V97.9996H283.54ZM292.863 98.1076C292.231 98.1076 291.751 97.9356 291.423 97.5916C291.103 97.2396 290.943 96.7116 290.943 96.0076V92.8036H289.767V91.9636H290.943V90.3436L292.035 90.0436V91.9636H293.739V92.8036H292.035V95.9116C292.035 96.3756 292.115 96.7076 292.275 96.9076C292.443 97.0996 292.683 97.1956 292.995 97.1956C293.155 97.1956 293.291 97.1836 293.403 97.1596C293.523 97.1276 293.631 97.0916 293.727 97.0516V97.9516C293.607 97.9996 293.467 98.0356 293.307 98.0596C293.155 98.0916 293.007 98.1076 292.863 98.1076ZM298.168 97.9996V89.5396H301.672C302.576 89.5396 303.272 89.7516 303.76 90.1756C304.256 90.5996 304.504 91.1916 304.504 91.9516C304.504 92.4556 304.392 92.8836 304.168 93.2356C303.944 93.5876 303.628 93.8556 303.22 94.0396C302.82 94.2236 302.352 94.3156 301.816 94.3156L302.02 94.1476H302.308C302.636 94.1476 302.928 94.2316 303.184 94.3996C303.44 94.5596 303.652 94.8236 303.82 95.1916L305.02 97.9996H303.784L302.62 95.2156C302.484 94.8716 302.284 94.6476 302.02 94.5436C301.764 94.4396 301.44 94.3876 301.048 94.3876H299.284V97.9996H298.168ZM299.284 93.5236H301.504C302.12 93.5236 302.588 93.3916 302.908 93.1276C303.236 92.8636 303.4 92.4796 303.4 91.9756C303.4 91.4796 303.236 91.1036 302.908 90.8476C302.588 90.5836 302.12 90.4516 301.504 90.4516H299.284V93.5236ZM308.661 98.1076C308.133 98.1076 307.669 97.9836 307.269 97.7356C306.869 97.4876 306.557 97.1276 306.333 96.6556C306.109 96.1836 305.997 95.6236 305.997 94.9756C305.997 94.3276 306.109 93.7716 306.333 93.3076C306.557 92.8356 306.869 92.4756 307.269 92.2276C307.669 91.9796 308.133 91.8556 308.661 91.8556C309.197 91.8556 309.661 91.9916 310.053 92.2636C310.453 92.5276 310.717 92.8916 310.845 93.3556H310.701L310.833 91.9636H311.889C311.865 92.2036 311.841 92.4436 311.817 92.6836C311.801 92.9236 311.793 93.1596 311.793 93.3916V97.9996H310.701V96.6196H310.833C310.705 97.0756 310.441 97.4396 310.041 97.7116C309.649 97.9756 309.189 98.1076 308.661 98.1076ZM308.913 97.2436C309.457 97.2436 309.893 97.0516 310.221 96.6676C310.549 96.2836 310.713 95.7196 310.713 94.9756C310.713 94.2316 310.549 93.6716 310.221 93.2956C309.893 92.9196 309.457 92.7316 308.913 92.7316C308.369 92.7316 307.929 92.9196 307.593 93.2956C307.265 93.6716 307.101 94.2316 307.101 94.9756C307.101 95.7196 307.265 96.2836 307.593 96.6676C307.921 97.0516 308.361 97.2436 308.913 97.2436ZM315.878 98.1076C315.246 98.1076 314.766 97.9356 314.438 97.5916C314.118 97.2396 313.958 96.7116 313.958 96.0076V92.8036H312.782V91.9636H313.958V90.3436L315.05 90.0436V91.9636H316.754V92.8036H315.05V95.9116C315.05 96.3756 315.13 96.7076 315.29 96.9076C315.458 97.0996 315.698 97.1956 316.01 97.1956C316.17 97.1956 316.306 97.1836 316.418 97.1596C316.538 97.1276 316.646 97.0916 316.742 97.0516V97.9516C316.622 97.9996 316.482 98.0356 316.322 98.0596C316.17 98.0916 316.022 98.1076 315.878 98.1076ZM320.589 98.1076C319.629 98.1076 318.869 97.8316 318.309 97.2796C317.757 96.7276 317.481 95.9676 317.481 94.9996C317.481 94.3596 317.601 93.8076 317.841 93.3436C318.089 92.8716 318.429 92.5076 318.861 92.2516C319.293 91.9876 319.797 91.8556 320.373 91.8556C320.925 91.8556 321.393 91.9756 321.777 92.2156C322.161 92.4476 322.453 92.7796 322.653 93.2116C322.853 93.6436 322.953 94.1556 322.953 94.7476V95.1076H318.333V94.4596H322.209L322.005 94.6156C322.005 93.9916 321.865 93.5076 321.585 93.1636C321.313 92.8196 320.909 92.6476 320.373 92.6476C319.789 92.6476 319.337 92.8516 319.017 93.2596C318.697 93.6596 318.537 94.2076 318.537 94.9036V95.0116C318.537 95.7476 318.717 96.3036 319.077 96.6796C319.445 97.0556 319.953 97.2436 320.601 97.2436C320.961 97.2436 321.297 97.1916 321.609 97.0876C321.921 96.9836 322.221 96.8116 322.509 96.5716L322.869 97.3276C322.597 97.5756 322.257 97.7676 321.849 97.9036C321.449 98.0396 321.029 98.1076 320.589 98.1076ZM330.46 98.1076C329.78 98.1076 329.168 98.0196 328.624 97.8436C328.08 97.6676 327.608 97.4196 327.208 97.0996L327.592 96.2116C327.872 96.4196 328.156 96.5956 328.444 96.7396C328.732 96.8756 329.04 96.9796 329.368 97.0516C329.704 97.1156 330.068 97.1476 330.46 97.1476C331.156 97.1476 331.668 97.0236 331.996 96.7756C332.332 96.5196 332.5 96.1836 332.5 95.7676C332.5 95.4076 332.384 95.1316 332.152 94.9396C331.92 94.7476 331.516 94.5956 330.94 94.4836L329.656 94.2196C328.88 94.0596 328.3 93.7996 327.916 93.4396C327.54 93.0716 327.352 92.5756 327.352 91.9516C327.352 91.4476 327.484 91.0076 327.748 90.6316C328.02 90.2476 328.392 89.9516 328.864 89.7436C329.344 89.5356 329.904 89.4316 330.544 89.4316C331.136 89.4316 331.684 89.5196 332.188 89.6956C332.692 89.8716 333.116 90.1316 333.46 90.4756L333.076 91.3276C332.716 90.9996 332.328 90.7636 331.912 90.6196C331.504 90.4676 331.04 90.3916 330.52 90.3916C329.888 90.3916 329.388 90.5276 329.02 90.7996C328.652 91.0716 328.468 91.4396 328.468 91.9036C328.468 92.2716 328.584 92.5636 328.816 92.7796C329.048 92.9876 329.432 93.1476 329.968 93.2596L331.252 93.5116C332.068 93.6716 332.664 93.9236 333.04 94.2676C333.424 94.6116 333.616 95.0876 333.616 95.6956C333.616 96.1756 333.488 96.5996 333.232 96.9676C332.976 97.3276 332.612 97.6076 332.14 97.8076C331.668 98.0076 331.108 98.1076 330.46 98.1076ZM337.671 98.1076C337.071 98.1076 336.551 97.9836 336.111 97.7356C335.671 97.4796 335.327 97.1156 335.079 96.6436C334.839 96.1636 334.719 95.5956 334.719 94.9396C334.719 94.2916 334.843 93.7396 335.091 93.2836C335.339 92.8196 335.683 92.4676 336.123 92.2276C336.563 91.9796 337.079 91.8556 337.671 91.8556C338.063 91.8556 338.443 91.9236 338.811 92.0596C339.179 92.1876 339.479 92.3756 339.711 92.6236L339.339 93.3916C339.107 93.1676 338.851 93.0036 338.571 92.8996C338.291 92.7876 338.015 92.7316 337.743 92.7316C337.151 92.7316 336.687 92.9236 336.351 93.3076C336.015 93.6836 335.847 94.2316 335.847 94.9516C335.847 95.6796 336.015 96.2396 336.351 96.6316C336.687 97.0236 337.151 97.2196 337.743 97.2196C338.007 97.2196 338.279 97.1676 338.559 97.0636C338.839 96.9596 339.099 96.7956 339.339 96.5716L339.711 97.3276C339.471 97.5836 339.163 97.7796 338.787 97.9156C338.419 98.0436 338.047 98.1076 337.671 98.1076ZM343.675 98.1076C342.715 98.1076 341.955 97.8316 341.395 97.2796C340.843 96.7276 340.567 95.9676 340.567 94.9996C340.567 94.3596 340.687 93.8076 340.927 93.3436C341.175 92.8716 341.515 92.5076 341.947 92.2516C342.379 91.9876 342.883 91.8556 343.459 91.8556C344.011 91.8556 344.479 91.9756 344.863 92.2156C345.247 92.4476 345.539 92.7796 345.739 93.2116C345.939 93.6436 346.039 94.1556 346.039 94.7476V95.1076H341.419V94.4596H345.295L345.091 94.6156C345.091 93.9916 344.951 93.5076 344.671 93.1636C344.399 92.8196 343.995 92.6476 343.459 92.6476C342.875 92.6476 342.423 92.8516 342.103 93.2596C341.783 93.6596 341.623 94.2076 341.623 94.9036V95.0116C341.623 95.7476 341.803 96.3036 342.163 96.6796C342.531 97.0556 343.039 97.2436 343.687 97.2436C344.047 97.2436 344.383 97.1916 344.695 97.0876C345.007 96.9836 345.307 96.8116 345.595 96.5716L345.955 97.3276C345.683 97.5756 345.343 97.7676 344.935 97.9036C344.535 98.0396 344.115 98.1076 343.675 98.1076ZM347.466 97.9996V93.3916C347.466 93.1596 347.458 92.9236 347.442 92.6836C347.426 92.4436 347.402 92.2036 347.37 91.9636H348.426L348.546 93.2596H348.402C348.586 92.8036 348.87 92.4556 349.254 92.2156C349.638 91.9756 350.086 91.8556 350.598 91.8556C351.31 91.8556 351.846 92.0516 352.206 92.4436C352.566 92.8276 352.746 93.4276 352.746 94.2436V97.9996H351.654V94.3036C351.654 93.7516 351.546 93.3556 351.33 93.1156C351.114 92.8676 350.778 92.7436 350.322 92.7436C349.778 92.7436 349.346 92.9076 349.026 93.2356C348.714 93.5636 348.558 94.0076 348.558 94.5676V97.9996H347.466ZM356.836 98.1076C356.308 98.1076 355.844 97.9836 355.444 97.7356C355.044 97.4876 354.732 97.1276 354.508 96.6556C354.284 96.1836 354.172 95.6236 354.172 94.9756C354.172 94.3276 354.284 93.7716 354.508 93.3076C354.732 92.8356 355.044 92.4756 355.444 92.2276C355.844 91.9796 356.308 91.8556 356.836 91.8556C357.372 91.8556 357.836 91.9916 358.228 92.2636C358.628 92.5276 358.892 92.8916 359.02 93.3556H358.876L359.008 91.9636H360.064C360.04 92.2036 360.016 92.4436 359.992 92.6836C359.976 92.9236 359.968 93.1596 359.968 93.3916V97.9996H358.876V96.6196H359.008C358.88 97.0756 358.616 97.4396 358.216 97.7116C357.824 97.9756 357.364 98.1076 356.836 98.1076ZM357.088 97.2436C357.632 97.2436 358.068 97.0516 358.396 96.6676C358.724 96.2836 358.888 95.7196 358.888 94.9756C358.888 94.2316 358.724 93.6716 358.396 93.2956C358.068 92.9196 357.632 92.7316 357.088 92.7316C356.544 92.7316 356.104 92.9196 355.768 93.2956C355.44 93.6716 355.276 94.2316 355.276 94.9756C355.276 95.7196 355.44 96.2836 355.768 96.6676C356.096 97.0516 356.536 97.2436 357.088 97.2436ZM361.786 97.9996V93.4396C361.786 93.1996 361.778 92.9556 361.762 92.7076C361.754 92.4516 361.734 92.2036 361.702 91.9636H362.758L362.89 93.4756L362.71 93.4876C362.79 93.1196 362.926 92.8156 363.118 92.5756C363.318 92.3276 363.554 92.1476 363.826 92.0356C364.106 91.9156 364.394 91.8556 364.69 91.8556C364.818 91.8556 364.926 91.8596 365.014 91.8676C365.102 91.8756 365.19 91.8956 365.278 91.9276L365.254 92.8996C365.134 92.8516 365.022 92.8236 364.918 92.8156C364.822 92.7996 364.702 92.7916 364.558 92.7916C364.206 92.7916 363.902 92.8716 363.646 93.0316C363.398 93.1916 363.206 93.4036 363.07 93.6676C362.942 93.9316 362.878 94.2156 362.878 94.5196V97.9996H361.786ZM366.239 97.9996V91.9636H367.331V97.9996H366.239ZM366.143 90.6436V89.4676H367.439V90.6436H366.143ZM371.701 98.1076C371.109 98.1076 370.597 97.9836 370.165 97.7356C369.733 97.4796 369.397 97.1196 369.157 96.6556C368.917 96.1836 368.797 95.6236 368.797 94.9756C368.797 94.3356 368.917 93.7836 369.157 93.3196C369.397 92.8476 369.733 92.4876 370.165 92.2396C370.597 91.9836 371.109 91.8556 371.701 91.8556C372.293 91.8556 372.805 91.9836 373.237 92.2396C373.677 92.4876 374.013 92.8476 374.245 93.3196C374.485 93.7836 374.605 94.3356 374.605 94.9756C374.605 95.6236 374.485 96.1836 374.245 96.6556C374.013 97.1196 373.677 97.4796 373.237 97.7356C372.805 97.9836 372.293 98.1076 371.701 98.1076ZM371.701 97.2436C372.245 97.2436 372.681 97.0516 373.009 96.6676C373.337 96.2836 373.501 95.7196 373.501 94.9756C373.501 94.2316 373.337 93.6716 373.009 93.2956C372.681 92.9196 372.245 92.7316 371.701 92.7316C371.149 92.7316 370.709 92.9196 370.381 93.2956C370.061 93.6716 369.901 94.2316 369.901 94.9756C369.901 95.7196 370.061 96.2836 370.381 96.6676C370.709 97.0516 371.149 97.2436 371.701 97.2436ZM375.891 93.2836V91.9636H377.223V93.2836H375.891ZM375.891 97.9996V96.6676H377.223V97.9996H375.891Z" fill="#9CA3AF"/>
<path d="M385.89 98.1076C385.042 98.1076 384.314 97.9316 383.706 97.5796C383.106 97.2276 382.646 96.7276 382.326 96.0796C382.006 95.4236 381.846 94.6516 381.846 93.7636C381.846 92.8756 382.006 92.1076 382.326 91.4596C382.646 90.8116 383.106 90.3116 383.706 89.9596C384.314 89.6076 385.042 89.4316 385.89 89.4316C386.498 89.4316 387.038 89.5236 387.51 89.7076C387.982 89.8836 388.394 90.1436 388.746 90.4876L388.338 91.3876C387.954 91.0516 387.574 90.8116 387.198 90.6676C386.83 90.5156 386.402 90.4396 385.914 90.4396C384.978 90.4396 384.262 90.7276 383.766 91.3036C383.27 91.8796 383.022 92.6996 383.022 93.7636C383.022 94.8276 383.27 95.6516 383.766 96.2356C384.262 96.8116 384.978 97.0996 385.914 97.0996C386.402 97.0996 386.83 97.0276 387.198 96.8836C387.574 96.7316 387.954 96.4876 388.338 96.1516L388.746 97.0396C388.394 97.3836 387.978 97.6476 387.498 97.8316C387.026 98.0156 386.49 98.1076 385.89 98.1076ZM392.26 98.1076C391.532 98.1076 390.984 97.9116 390.616 97.5196C390.256 97.1276 390.076 96.5236 390.076 95.7076V91.9636H391.168V95.6836C391.168 96.2116 391.276 96.5996 391.492 96.8476C391.708 97.0956 392.044 97.2196 392.5 97.2196C392.996 97.2196 393.396 97.0556 393.7 96.7276C394.012 96.3916 394.168 95.9476 394.168 95.3956V91.9636H395.26V97.9996H394.204V96.6676H394.36C394.192 97.1236 393.924 97.4796 393.556 97.7356C393.188 97.9836 392.756 98.1076 392.26 98.1076ZM399.137 98.1076C398.649 98.1076 398.193 98.0436 397.769 97.9156C397.353 97.7876 397.009 97.6036 396.737 97.3636L397.085 96.6076C397.381 96.8316 397.705 97.0036 398.057 97.1236C398.417 97.2356 398.785 97.2916 399.161 97.2916C399.617 97.2916 399.961 97.2076 400.193 97.0396C400.433 96.8716 400.553 96.6476 400.553 96.3676C400.553 96.1436 400.477 95.9636 400.325 95.8276C400.173 95.6916 399.933 95.5916 399.605 95.5276L398.465 95.2996C397.953 95.1796 397.565 94.9876 397.301 94.7236C397.045 94.4516 396.917 94.1036 396.917 93.6796C396.917 93.3276 397.013 93.0156 397.205 92.7436C397.397 92.4636 397.669 92.2476 398.021 92.0956C398.381 91.9356 398.801 91.8556 399.281 91.8556C399.721 91.8556 400.129 91.9196 400.505 92.0476C400.889 92.1756 401.205 92.3636 401.453 92.6116L401.093 93.3436C400.845 93.1276 400.565 92.9636 400.253 92.8516C399.949 92.7316 399.637 92.6716 399.317 92.6716C398.853 92.6716 398.509 92.7636 398.285 92.9476C398.061 93.1236 397.949 93.3556 397.949 93.6436C397.949 93.8596 398.017 94.0396 398.153 94.1836C398.289 94.3196 398.509 94.4236 398.813 94.4956L399.953 94.7236C400.489 94.8356 400.893 95.0196 401.165 95.2756C401.437 95.5316 401.573 95.8716 401.573 96.2956C401.573 96.6716 401.469 96.9956 401.261 97.2676C401.061 97.5396 400.777 97.7476 400.409 97.8916C400.049 98.0356 399.625 98.1076 399.137 98.1076ZM405.259 98.1076C404.627 98.1076 404.147 97.9356 403.819 97.5916C403.499 97.2396 403.339 96.7116 403.339 96.0076V92.8036H402.163V91.9636H403.339V90.3436L404.431 90.0436V91.9636H406.135V92.8036H404.431V95.9116C404.431 96.3756 404.511 96.7076 404.671 96.9076C404.839 97.0996 405.079 97.1956 405.391 97.1956C405.551 97.1956 405.687 97.1836 405.799 97.1596C405.919 97.1276 406.027 97.0916 406.123 97.0516V97.9516C406.003 97.9996 405.863 98.0356 405.703 98.0596C405.551 98.0916 405.403 98.1076 405.259 98.1076ZM409.766 98.1076C409.174 98.1076 408.662 97.9836 408.23 97.7356C407.798 97.4796 407.462 97.1196 407.222 96.6556C406.982 96.1836 406.862 95.6236 406.862 94.9756C406.862 94.3356 406.982 93.7836 407.222 93.3196C407.462 92.8476 407.798 92.4876 408.23 92.2396C408.662 91.9836 409.174 91.8556 409.766 91.8556C410.358 91.8556 410.87 91.9836 411.302 92.2396C411.742 92.4876 412.078 92.8476 412.31 93.3196C412.55 93.7836 412.67 94.3356 412.67 94.9756C412.67 95.6236 412.55 96.1836 412.31 96.6556C412.078 97.1196 411.742 97.4796 411.302 97.7356C410.87 97.9836 410.358 98.1076 409.766 98.1076ZM409.766 97.2436C410.31 97.2436 410.746 97.0516 411.074 96.6676C411.402 96.2836 411.566 95.7196 411.566 94.9756C411.566 94.2316 411.402 93.6716 411.074 93.2956C410.746 92.9196 410.31 92.7316 409.766 92.7316C409.214 92.7316 408.774 92.9196 408.446 93.2956C408.126 93.6716 407.966 94.2316 407.966 94.9756C407.966 95.7196 408.126 96.2836 408.446 96.6676C408.774 97.0516 409.214 97.2436 409.766 97.2436ZM414.136 97.9996V93.3916C414.136 93.1596 414.128 92.9236 414.112 92.6836C414.096 92.4436 414.072 92.2036 414.04 91.9636H415.096L415.216 93.2596H415.072C415.232 92.8116 415.488 92.4676 415.84 92.2276C416.192 91.9796 416.612 91.8556 417.1 91.8556C417.596 91.8556 418.004 91.9756 418.324 92.2156C418.644 92.4476 418.86 92.8156 418.972 93.3196H418.792C418.944 92.8716 419.212 92.5156 419.596 92.2516C419.98 91.9876 420.428 91.8556 420.94 91.8556C421.604 91.8556 422.104 92.0516 422.44 92.4436C422.776 92.8276 422.944 93.4276 422.944 94.2436V97.9996H421.852V94.3036C421.852 93.7516 421.756 93.3556 421.564 93.1156C421.372 92.8676 421.068 92.7436 420.652 92.7436C420.164 92.7436 419.78 92.9116 419.5 93.2476C419.22 93.5756 419.08 94.0236 419.08 94.5916V97.9996H417.988V94.3036C417.988 93.7516 417.892 93.3556 417.7 93.1156C417.516 92.8676 417.212 92.7436 416.788 92.7436C416.3 92.7436 415.916 92.9116 415.636 93.2476C415.364 93.5756 415.228 94.0236 415.228 94.5916V97.9996H414.136Z" fill="#374151"/>
<path d="M449 95L445 91L441 95" stroke="#27272A" stroke-width="1.2" stroke-linecap="round" stroke-linejoin="round"/>
<path d="M493 77.5H477C472.858 77.5 469.5 80.8579 469.5 85V101C469.5 105.142 472.858 108.5 477 108.5H493C497.142 108.5 500.5 105.142 500.5 101V85C500.5 80.8579 497.142 77.5 493 77.5Z" fill="white"/>
<path d="M493 77.5H477C472.858 77.5 469.5 80.8579 469.5 85V101C469.5 105.142 472.858 108.5 477 108.5H493C497.142 108.5 500.5 105.142 500.5 101V85C500.5 80.8579 497.142 77.5 493 77.5Z" stroke="#F3F4F6"/>
<path d="M481.666 89.6667H480.999C480.646 89.6667 480.307 89.8072 480.057 90.0573C479.806 90.3073 479.666 90.6464 479.666 91.0001V97.0001C479.666 97.3537 479.806 97.6928 480.057 97.9429C480.307 98.1929 480.646 98.3334 480.999 98.3334H486.999C487.353 98.3334 487.692 98.1929 487.942 97.9429C488.192 97.6928 488.333 97.3537 488.333 97.0001V96.3334M487.666 88.3334L489.666 90.3334M490.589 89.3901C490.852 89.1275 490.999 88.7714 490.999 88.4001C490.999 88.0287 490.852 87.6726 490.589 87.4101C490.327 87.1475 489.971 87 489.599 87C489.228 87 488.872 87.1475 488.609 87.4101L482.999 93.0001V95.0001H484.999L490.589 89.3901Z" stroke="#374151" stroke-width="1.2" stroke-linecap="round" stroke-linejoin="round"/>
</g>
<g filter="url(#filter3_dd_5041_74266)">
<g filter="url(#filter4_dd_5041_74266)">
<path d="M377.729 96.9118C377.698 96.4835 377.787 96.055 377.986 95.6744C378.185 95.2938 378.486 94.976 378.855 94.7569C379.225 94.5377 379.648 94.4256 380.077 94.4333C380.507 94.441 380.925 94.5682 381.287 94.8005L400.732 107.314C402.6 108.515 401.862 111.406 399.648 111.565L390.544 112.222C390.191 112.247 389.848 112.353 389.542 112.532C389.236 112.711 388.975 112.958 388.78 113.253L383.627 121.079C382.413 122.924 379.549 122.177 379.39 119.972L377.729 96.9118Z" fill="#27272A"/>
<path d="M377.729 96.9118C377.698 96.4835 377.787 96.055 377.986 95.6744C378.185 95.2938 378.486 94.976 378.855 94.7569C379.225 94.5377 379.648 94.4256 380.077 94.4333C380.507 94.441 380.925 94.5682 381.287 94.8005L400.732 107.314C402.6 108.515 401.862 111.406 399.648 111.565L390.544 112.222C390.191 112.247 389.848 112.353 389.542 112.532C389.236 112.711 388.975 112.958 388.78 113.253L383.627 121.079C382.413 122.924 379.549 122.177 379.39 119.972L377.729 96.9118Z" stroke="#FAFAFA"/>
</g>
</g>
<g opacity="0.3">
<rect x="539" y="157" width="120" height="16" rx="4" fill="#EBEBEB"/>
</g>
<g opacity="0.2" filter="url(#filter5_f_5041_74266)">
<path d="M153.446 112.787C59.6765 172.032 -1.0176 293.4 -1.0176 293.4C-1.0176 293.4 -56.0723 276.629 -76.6297 272.878C-24.2613 245.588 -22.7162 175.827 13.0732 126.294C39.9991 115.66 125.771 118.583 153.446 112.787Z" fill="url(#paint6_linear_5041_74266)"/>
</g>
</g>
<defs>
<filter id="filter0_f_5041_74266" x="339.738" y="40.877" width="573.881" height="512.51" filterUnits="userSpaceOnUse" color-interpolation-filters="sRGB">
<feFlood flood-opacity="0" result="BackgroundImageFix"/>
<feBlend mode="normal" in="SourceGraphic" in2="BackgroundImageFix" result="shape"/>
<feGaussianBlur stdDeviation="75" result="effect1_foregroundBlur_5041_74266"/>
</filter>
<filter id="filter1_f_5041_74266" x="354.777" y="-177.215" width="580.67" height="709.104" filterUnits="userSpaceOnUse" color-interpolation-filters="sRGB">
<feFlood flood-opacity="0" result="BackgroundImageFix"/>
<feBlend mode="normal" in="SourceGraphic" in2="BackgroundImageFix" result="shape"/>
<feGaussianBlur stdDeviation="100" result="effect1_foregroundBlur_5041_74266"/>
</filter>
<filter id="filter2_d_5041_74266" x="186" y="80" width="328" height="184" filterUnits="userSpaceOnUse" color-interpolation-filters="sRGB">
<feFlood flood-opacity="0" result="BackgroundImageFix"/>
<feColorMatrix in="SourceAlpha" type="matrix" values="0 0 0 0 0 0 0 0 0 0 0 0 0 0 0 0 0 0 127 0" result="hardAlpha"/>
<feOffset dy="16"/>
<feGaussianBlur stdDeviation="24"/>
<feComposite in2="hardAlpha" operator="out"/>
<feColorMatrix type="matrix" values="0 0 0 0 0.0627451 0 0 0 0 0.0588235 0 0 0 0 0.141176 0 0 0 0.07 0"/>
<feBlend mode="normal" in2="BackgroundImageFix" result="effect1_dropShadow_5041_74266"/>
<feBlend mode="normal" in="SourceGraphic" in2="effect1_dropShadow_5041_74266" result="shape"/>
</filter>
<filter id="filter3_dd_5041_74266" x="362" y="86" width="51.5664" height="51.5664" filterUnits="userSpaceOnUse" color-interpolation-filters="sRGB">
<feFlood flood-opacity="0" result="BackgroundImageFix"/>
<feColorMatrix in="SourceAlpha" type="matrix" values="0 0 0 0 0 0 0 0 0 0 0 0 0 0 0 0 0 0 127 0" result="hardAlpha"/>
<feMorphology radius="2" operator="erode" in="SourceAlpha" result="effect1_dropShadow_5041_74266"/>
<feOffset dy="2"/>
<feGaussianBlur stdDeviation="2"/>
<feComposite in2="hardAlpha" operator="out"/>
<feColorMatrix type="matrix" values="0 0 0 0 0.0627451 0 0 0 0 0.0588235 0 0 0 0 0.141176 0 0 0 0.06 0"/>
<feBlend mode="normal" in2="BackgroundImageFix" result="effect1_dropShadow_5041_74266"/>
<feColorMatrix in="SourceAlpha" type="matrix" values="0 0 0 0 0 0 0 0 0 0 0 0 0 0 0 0 0 0 127 0" result="hardAlpha"/>
<feMorphology radius="2" operator="erode" in="SourceAlpha" result="effect2_dropShadow_5041_74266"/>
<feOffset dy="4"/>
<feGaussianBlur stdDeviation="4"/>
<feComposite in2="hardAlpha" operator="out"/>
<feColorMatrix type="matrix" values="0 0 0 0 0.0627451 0 0 0 0 0.0588235 0 0 0 0 0.141176 0 0 0 0.1 0"/>
<feBlend mode="normal" in2="effect1_dropShadow_5041_74266" result="effect2_dropShadow_5041_74266"/>
<feBlend mode="normal" in="SourceGraphic" in2="effect2_dropShadow_5041_74266" result="shape"/>
</filter>
<filter id="filter4_dd_5041_74266" x="349.223" y="75.9336" width="81.0742" height="84.6895" filterUnits="userSpaceOnUse" color-interpolation-filters="sRGB">
<feFlood flood-opacity="0" result="BackgroundImageFix"/>
<feColorMatrix in="SourceAlpha" type="matrix" values="0 0 0 0 0 0 0 0 0 0 0 0 0 0 0 0 0 0 127 0" result="hardAlpha"/>
<feMorphology radius="4" operator="erode" in="SourceAlpha" result="effect1_dropShadow_5041_74266"/>
<feOffset dy="4"/>
<feGaussianBlur stdDeviation="8"/>
<feComposite in2="hardAlpha" operator="out"/>
<feColorMatrix type="matrix" values="0 0 0 0 0.0588235 0 0 0 0 0.141176 0 0 0 0 0.0666667 0 0 0 0.02 0"/>
<feBlend mode="normal" in2="BackgroundImageFix" result="effect1_dropShadow_5041_74266"/>
<feColorMatrix in="SourceAlpha" type="matrix" values="0 0 0 0 0 0 0 0 0 0 0 0 0 0 0 0 0 0 127 0" result="hardAlpha"/>
<feMorphology radius="4" operator="erode" in="SourceAlpha" result="effect2_dropShadow_5041_74266"/>
<feOffset dy="10"/>
<feGaussianBlur stdDeviation="16"/>
<feComposite in2="hardAlpha" operator="out"/>
<feColorMatrix type="matrix" values="0 0 0 0 0.0627451 0 0 0 0 0.0588235 0 0 0 0 0.141176 0 0 0 0.05 0"/>
<feBlend mode="normal" in2="effect1_dropShadow_5041_74266" result="effect2_dropShadow_5041_74266"/>
<feBlend mode="normal" in="SourceGraphic" in2="effect2_dropShadow_5041_74266" result="shape"/>
</filter>
<filter id="filter5_f_5041_74266" x="-236.629" y="-47.2129" width="550.074" height="500.613" filterUnits="userSpaceOnUse" color-interpolation-filters="sRGB">
<feFlood flood-opacity="0" result="BackgroundImageFix"/>
<feBlend mode="normal" in="SourceGraphic" in2="BackgroundImageFix" result="shape"/>
<feGaussianBlur stdDeviation="80" result="effect1_foregroundBlur_5041_74266"/>
</filter>
<linearGradient id="paint0_linear_5041_74266" x1="618.599" y1="-94.8268" x2="756.835" y2="-94.1185" gradientUnits="userSpaceOnUse">
<stop stop-color="#5C85D5"/>
<stop offset="1" stop-color="#C3A7F3"/>
</linearGradient>
<linearGradient id="paint1_linear_5041_74266" x1="176" y1="201" x2="76" y2="201" gradientUnits="userSpaceOnUse">
<stop stop-color="#FAFAFA"/>
<stop offset="0.534678" stop-color="#266AE9"/>
<stop offset="1" stop-color="#FAFAFA"/>
</linearGradient>
<linearGradient id="paint2_linear_5041_74266" x1="641.693" y1="95" x2="524" y2="95" gradientUnits="userSpaceOnUse">
<stop stop-color="#FAFAFA"/>
<stop offset="0.534678" stop-color="#266AE9"/>
<stop offset="1" stop-color="#FAFAFA"/>
</linearGradient>
<linearGradient id="paint3_linear_5041_74266" x1="192" y1="131" x2="192" y2="67" gradientUnits="userSpaceOnUse">
<stop stop-color="#FAFAFA"/>
<stop offset="0.534678" stop-color="#266AE9"/>
<stop offset="1" stop-color="#FAFAFA"/>
</linearGradient>
<linearGradient id="paint4_linear_5041_74266" x1="502" y1="193.609" x2="502" y2="131" gradientUnits="userSpaceOnUse">
<stop stop-color="#FAFAFA"/>
<stop offset="0.534678" stop-color="#266AE9"/>
<stop offset="1" stop-color="#FAFAFA"/>
</linearGradient>
<linearGradient id="paint5_linear_5041_74266" x1="427" y1="197.833" x2="427" y2="128" gradientUnits="userSpaceOnUse">
<stop stop-color="#FAFAFA"/>
<stop offset="0.534678" stop-color="#266AE9"/>
<stop offset="1" stop-color="#FAFAFA"/>
</linearGradient>
<linearGradient id="paint6_linear_5041_74266" x1="-174.961" y1="309.762" x2="-218.589" y2="204.842" gradientUnits="userSpaceOnUse">
<stop stop-color="#5C85D5"/>
<stop offset="1" stop-color="#C3A7F3"/>
</linearGradient>
<clipPath id="clip0_5041_74266">
<rect width="724" height="338" fill="white"/>
</clipPath>
<clipPath id="clip1_5041_74266">
<rect width="304" height="160" fill="white" transform="translate(198 92)"/>
</clipPath>
<clipPath id="clip2_5041_74266">
<rect width="276" height="40" fill="white" transform="translate(229 73)"/>
</clipPath>
</defs>
</svg>
