<svg width="705" height="336" viewBox="0 0 705 336" fill="none" xmlns="http://www.w3.org/2000/svg">
<g clip-path="url(#clip0_5792_42508)">
<g clip-path="url(#clip1_5792_42508)">
<g opacity="0.35" filter="url(#filter0_f_5792_42508)">
<path d="M447.5 226.069C566.431 265.157 668.219 387.934 668.219 387.934C668.219 387.934 722.641 350.349 743.713 339.264C679.025 324.242 656.511 242.835 603.074 196.309C570.829 192.574 479.108 223.881 447.5 226.069Z" fill="url(#paint0_linear_5792_42508)"/>
</g>
<g opacity="0.35" filter="url(#filter1_f_5792_42508)">
<path d="M214.439 210.167C117.004 263.17 48.5224 380.32 48.5224 380.32C48.5224 380.32 -5.32095 359.993 -25.5899 354.909C28.4471 331.093 34.5398 261.581 73.4841 214.489C101.046 205.634 186.445 214.146 214.439 210.167Z" fill="url(#paint1_linear_5792_42508)"/>
</g>
<g filter="url(#filter2_dd_5792_42508)">
<g clip-path="url(#clip2_5792_42508)">
<rect x="82.5" y="97" width="540" height="237" rx="12" fill="black" fill-opacity="0.01" shape-rendering="crispEdges"/>
<path d="M622.5 126V125.5H82.5V126V126.5H622.5V126Z" fill="#F4F4F5"/>
<circle cx="101" cy="111.5" r="2.5" fill="#266AE9"/>
<circle cx="114" cy="111.5" r="2.5" fill="#D9D9D9"/>
<circle cx="127" cy="111.5" r="2.5" fill="#D9D9D9"/>
<rect x="98.5" y="138" width="122" height="16" rx="4" fill="white"/>
<rect x="558.5" y="138" width="20" height="20" rx="4" fill="white"/>
<rect x="586.5" y="138" width="20" height="20" rx="4" fill="white"/>
<rect x="98.5" y="162" width="167" height="24" rx="6" fill="white"/>
<rect x="439.5" y="162" width="167" height="24" rx="6" fill="white"/>
<g opacity="0.6">
<rect x="98.5" y="198" width="249" height="80" rx="12" fill="white"/>
<rect x="110.5" y="210" width="80" height="16" rx="6" fill="#F3F4F6"/>
<rect x="110.5" y="234" width="200" height="32" rx="8" fill="#F3F4F6"/>
</g>
<g opacity="0.6">
<rect x="357.5" y="198" width="249" height="80" rx="12" fill="white"/>
<rect x="369.5" y="210" width="101" height="16" rx="6" fill="#F3F4F6"/>
<rect x="369.5" y="234" width="160" height="32" rx="8" fill="#F3F4F6"/>
</g>
<rect x="98.5" y="290" width="100" height="24" rx="4" fill="white"/>
<rect x="210.5" y="290" width="190" height="24" rx="4" fill="white"/>
<rect x="412.5" y="290" width="194" height="24" rx="4" fill="white"/>
</g>
<rect x="83" y="97.5" width="539" height="236" rx="11.5" stroke="url(#paint2_linear_5792_42508)" shape-rendering="crispEdges"/>
</g>
<g filter="url(#filter3_i_5792_42508)">
<mask id="path-24-inside-1_5792_42508" fill="white">
<path d="M312.5 97C312.5 74.9086 330.409 57 352.5 57C374.591 57 392.5 74.9086 392.5 97C392.5 119.091 374.591 137 352.5 137C330.409 137 312.5 119.091 312.5 97Z"/>
</mask>
<path d="M312.5 97C312.5 74.9086 330.409 57 352.5 57C374.591 57 392.5 74.9086 392.5 97C392.5 119.091 374.591 137 352.5 137C330.409 137 312.5 119.091 312.5 97Z" fill="#F6F9FD" fill-opacity="0.2"/>
<path d="M312.5 57H392.5H312.5ZM392.5 137H312.5H392.5ZM351 137C328.909 137 311 119.091 311 97C311 74.9086 328.909 57 351 57H352.5C331.237 57 314 74.9086 314 97C314 119.091 331.237 137 352.5 137H351ZM354 57C376.091 57 394 74.9086 394 97C394 119.091 376.091 137 354 137H352.5C373.763 137 391 119.091 391 97C391 74.9086 373.763 57 352.5 57H354Z" fill="#266AE9" fill-opacity="0.2" mask="url(#path-24-inside-1_5792_42508)"/>
<g clip-path="url(#clip3_5792_42508)">
<path d="M360.588 97.5148L360.332 96.137L361.043 96.2838C361.878 96.4305 362.13 95.1887 361.295 95.042L360.026 94.7485L359.447 91.6065L362.749 92.2256C363.581 92.3723 363.762 91.1305 362.966 90.948L359.159 90.243L358.217 85.3439L366.197 86.9149C366.851 87.0223 367.291 87.6414 367.185 88.2999C367.185 88.3142 367.178 88.3321 367.178 88.3464L365.472 97.1891C365.404 97.5434 365.635 97.8834 365.983 97.9514C366.332 98.0194 366.666 97.7903 366.74 97.4432L368.447 88.6327C368.724 87.2764 367.857 85.9523 366.513 85.6732C366.492 85.6696 366.474 85.666 366.453 85.6624L357.961 83.9805L357.78 83.0286C357.478 81.64 356.116 80.7561 354.734 81.0567L342.07 83.551C341.906 83.5725 341.76 83.6691 341.671 83.8087L336.702 91.0303C336.543 91.1842 336.471 91.4097 336.511 91.6315L340.292 110.935C340.584 112.337 341.949 113.236 343.342 112.942L354.044 110.859C354.385 110.788 354.602 110.451 354.535 110.112C354.464 109.768 354.13 109.55 353.788 109.618L343.086 111.7C342.389 111.844 341.707 111.393 341.565 110.688C341.565 110.684 341.565 110.681 341.565 110.677L337.897 91.9966L341.419 91.3023C342.805 91.0196 343.712 89.6669 343.449 88.2676L342.759 84.7212L354.993 82.3092C355.676 82.1518 356.358 82.5812 356.511 83.2719C356.511 83.2826 356.515 83.2898 356.518 83.2969C356.593 83.6763 357.282 87.2084 359.34 97.7546C359.404 98.091 359.724 98.32 360.062 98.2663C360.417 98.209 360.655 97.8727 360.588 97.5184V97.5148ZM341.149 90.0605H341.163L338.586 90.5329L341.707 86.0203L342.215 88.5253C342.329 89.2446 341.856 89.9245 341.149 90.0605Z" fill="#266AE9"/>
<path d="M351.287 99.9314L342.98 101.613C342.181 101.76 342.433 103.045 343.233 102.855L351.539 101.173C351.881 101.102 352.101 100.769 352.03 100.425C351.959 100.082 351.628 99.8598 351.287 99.9314Z" fill="#266AE9"/>
<path d="M356.6 95.8543C356.554 95.5072 356.238 95.2639 355.893 95.3104C355.868 95.3104 355.847 95.3175 355.822 95.3247L342.251 98.1017C341.455 98.2484 341.707 99.4902 342.507 99.3435L356.06 96.5665C356.405 96.52 356.646 96.2015 356.6 95.8543Z" fill="#266AE9"/>
<path d="M341.818 95.7978L355.349 93.0208C355.69 92.9493 355.911 92.6164 355.84 92.2729C355.768 91.9293 355.438 91.7075 355.097 91.779H355.111L341.562 94.5561C340.765 94.7028 341.018 95.9446 341.818 95.7978Z" fill="#266AE9"/>
<path d="M360.705 110.611C358.922 110.054 357.427 108.813 356.545 107.157C355.663 105.5 355.463 103.56 355.99 101.756C357.835 101.841 359.641 101.199 361.025 99.9668C362.409 101.199 364.215 101.841 366.06 101.756C366.462 103.133 366.444 104.6 366.007 105.967M362.802 109.51L363.987 110.703L366.357 108.317" stroke="#266AE9" stroke-width="1.2" stroke-linecap="round" stroke-linejoin="round"/>
</g>
</g>
<path d="M666.5 26V195" stroke="url(#paint3_linear_5792_42508)" stroke-opacity="0.3" stroke-linecap="round"/>
<path d="M574.5 69L743.5 69" stroke="url(#paint4_linear_5792_42508)" stroke-opacity="0.3" stroke-linecap="round"/>
<rect x="-9.5" y="248" width="725" height="90" fill="url(#paint5_linear_5792_42508)"/>
</g>
<rect y="276" width="725" height="60" fill="url(#paint6_linear_5792_42508)"/>
</g>
<defs>
<filter id="filter0_f_5792_42508" x="247.5" y="-4" width="696.213" height="591.934" filterUnits="userSpaceOnUse" color-interpolation-filters="sRGB">
<feFlood flood-opacity="0" result="BackgroundImageFix"/>
<feBlend mode="normal" in="SourceGraphic" in2="BackgroundImageFix" result="shape"/>
<feGaussianBlur stdDeviation="100" result="effect1_foregroundBlur_5792_42508"/>
</filter>
<filter id="filter1_f_5792_42508" x="-225.59" y="10.168" width="640.029" height="570.152" filterUnits="userSpaceOnUse" color-interpolation-filters="sRGB">
<feFlood flood-opacity="0" result="BackgroundImageFix"/>
<feBlend mode="normal" in="SourceGraphic" in2="BackgroundImageFix" result="shape"/>
<feGaussianBlur stdDeviation="100" result="effect1_foregroundBlur_5792_42508"/>
</filter>
<filter id="filter2_dd_5792_42508" x="54.5" y="79" width="596" height="293" filterUnits="userSpaceOnUse" color-interpolation-filters="sRGB">
<feFlood flood-opacity="0" result="BackgroundImageFix"/>
<feColorMatrix in="SourceAlpha" type="matrix" values="0 0 0 0 0 0 0 0 0 0 0 0 0 0 0 0 0 0 127 0" result="hardAlpha"/>
<feMorphology radius="4" operator="erode" in="SourceAlpha" result="effect1_dropShadow_5792_42508"/>
<feOffset dy="4"/>
<feGaussianBlur stdDeviation="8"/>
<feComposite in2="hardAlpha" operator="out"/>
<feColorMatrix type="matrix" values="0 0 0 0 0.0588235 0 0 0 0 0.141176 0 0 0 0 0.0666667 0 0 0 0.02 0"/>
<feBlend mode="normal" in2="BackgroundImageFix" result="effect1_dropShadow_5792_42508"/>
<feColorMatrix in="SourceAlpha" type="matrix" values="0 0 0 0 0 0 0 0 0 0 0 0 0 0 0 0 0 0 127 0" result="hardAlpha"/>
<feMorphology radius="4" operator="erode" in="SourceAlpha" result="effect2_dropShadow_5792_42508"/>
<feOffset dy="10"/>
<feGaussianBlur stdDeviation="16"/>
<feComposite in2="hardAlpha" operator="out"/>
<feColorMatrix type="matrix" values="0 0 0 0 0.0627451 0 0 0 0 0.0588235 0 0 0 0 0.141176 0 0 0 0.05 0"/>
<feBlend mode="normal" in2="effect1_dropShadow_5792_42508" result="effect2_dropShadow_5792_42508"/>
<feBlend mode="normal" in="BackgroundImageFix" in2="effect2_dropShadow_5792_42508" result="BackgroundImageFix"/>
<feBlend mode="normal" in="SourceGraphic" in2="BackgroundImageFix" result="shape"/>
</filter>
<filter id="filter3_i_5792_42508" x="312.5" y="57" width="80" height="83" filterUnits="userSpaceOnUse" color-interpolation-filters="sRGB">
<feFlood flood-opacity="0" result="BackgroundImageFix"/>
<feBlend mode="normal" in="SourceGraphic" in2="BackgroundImageFix" result="shape"/>
<feColorMatrix in="SourceAlpha" type="matrix" values="0 0 0 0 0 0 0 0 0 0 0 0 0 0 0 0 0 0 127 0" result="hardAlpha"/>
<feOffset dy="3"/>
<feGaussianBlur stdDeviation="6"/>
<feComposite in2="hardAlpha" operator="arithmetic" k2="-1" k3="1"/>
<feColorMatrix type="matrix" values="0 0 0 0 0.585337 0 0 0 0 0.717275 0 0 0 0 0.972356 0 0 0 0.16 0"/>
<feBlend mode="normal" in2="shape" result="effect1_innerShadow_5792_42508"/>
</filter>
<linearGradient id="paint0_linear_5792_42508" x1="626.213" y1="328" x2="612.831" y2="230.386" gradientUnits="userSpaceOnUse">
<stop stop-color="#5C85D5"/>
<stop offset="1" stop-color="#C3A7F3"/>
</linearGradient>
<linearGradient id="paint1_linear_5792_42508" x1="-126.118" y1="385.3" x2="-162.809" y2="277.757" gradientUnits="userSpaceOnUse">
<stop stop-color="#5C85D5"/>
<stop offset="1" stop-color="#C3A7F3"/>
</linearGradient>
<linearGradient id="paint2_linear_5792_42508" x1="622.5" y1="97" x2="82.5" y2="97" gradientUnits="userSpaceOnUse">
<stop stop-color="#F4F4F5"/>
<stop offset="0.506904" stop-color="#266AE9" stop-opacity="0.2"/>
<stop offset="1" stop-color="#F4F4F5"/>
</linearGradient>
<linearGradient id="paint3_linear_5792_42508" x1="666.5" y1="153.5" x2="666.5" y2="26" gradientUnits="userSpaceOnUse">
<stop stop-color="#FAFAFA"/>
<stop offset="0.534678" stop-color="#266AE9"/>
<stop offset="1" stop-color="#FAFAFA"/>
</linearGradient>
<linearGradient id="paint4_linear_5792_42508" x1="702" y1="69" x2="574.5" y2="69" gradientUnits="userSpaceOnUse">
<stop stop-color="#FAFAFA"/>
<stop offset="0.534678" stop-color="#266AE9"/>
<stop offset="1" stop-color="#FAFAFA"/>
</linearGradient>
<linearGradient id="paint5_linear_5792_42508" x1="353" y1="248" x2="353" y2="338" gradientUnits="userSpaceOnUse">
<stop stop-color="#FAFAFA" stop-opacity="0"/>
<stop offset="1" stop-color="#FAFAFA"/>
</linearGradient>
<linearGradient id="paint6_linear_5792_42508" x1="362.5" y1="276" x2="362.5" y2="336" gradientUnits="userSpaceOnUse">
<stop stop-color="#FAFAFA" stop-opacity="0"/>
<stop offset="1" stop-color="#FAFAFA"/>
</linearGradient>
<clipPath id="clip0_5792_42508">
<rect width="704" height="336" fill="white" transform="translate(0.5)"/>
</clipPath>
<clipPath id="clip1_5792_42508">
<rect width="724" height="338" fill="white" transform="translate(-9.5)"/>
</clipPath>
<clipPath id="clip2_5792_42508">
<rect x="82.5" y="97" width="540" height="237" rx="12" fill="white"/>
</clipPath>
<clipPath id="clip3_5792_42508">
<rect width="32" height="32" fill="white" transform="translate(336.5 81)"/>
</clipPath>
</defs>
</svg>
