<svg width="358" height="230" viewBox="0 0 358 230" fill="none" xmlns="http://www.w3.org/2000/svg">
<g clip-path="url(#clip0_5792_42546)">
<mask id="mask0_5792_42546" style="mask-type:luminance" maskUnits="userSpaceOnUse" x="-43" y="0" width="444" height="211">
<path d="M400.091 0H-42.0918V211H400.091V0Z" fill="white"/>
</mask>
<g mask="url(#mask0_5792_42546)">
<mask id="mask1_5792_42546" style="mask-type:luminance" maskUnits="userSpaceOnUse" x="-49" y="0" width="456" height="213">
<path d="M406.374 0H-48.3711V212.256H406.374V0Z" fill="white"/>
</mask>
<g mask="url(#mask1_5792_42546)">
<g opacity="0.35" filter="url(#filter0_f_5792_42546)">
<path d="M238.672 141.965C313.372 166.511 377.306 243.612 377.306 243.612C377.306 243.612 411.488 220.01 424.723 213.048C384.093 203.615 369.952 152.493 336.388 123.276C316.135 120.931 258.525 140.591 238.672 141.965Z" fill="url(#paint0_linear_5792_42546)"/>
</g>
<g opacity="0.35" filter="url(#filter1_f_5792_42546)">
<path d="M92.2857 131.979C31.0867 165.263 -11.9266 238.831 -11.9266 238.831C-11.9266 238.831 -45.7456 226.066 -58.4766 222.873C-24.5359 207.917 -20.7091 164.265 3.75184 134.693C21.0635 129.132 74.7026 134.477 92.2857 131.979Z" fill="url(#paint1_linear_5792_42546)"/>
</g>
<g filter="url(#filter2_dd_5792_42546)">
<path d="M341.051 60.9141H16.9513C12.7886 60.9141 9.41406 64.2879 9.41406 68.4498V202.209C9.41406 206.371 12.7886 209.744 16.9513 209.744H341.051C345.214 209.744 348.588 206.371 348.588 202.209V68.4498C348.588 64.2879 345.214 60.9141 341.051 60.9141Z" fill="black" fill-opacity="0.01"/>
<path d="M341.049 61.2266H16.9497C12.9605 61.2266 9.72656 64.4598 9.72656 68.4483V202.207C9.72656 206.196 12.9605 209.429 16.9497 209.429H341.049C345.039 209.429 348.273 206.196 348.273 202.207V68.4483C348.273 64.4598 345.039 61.2266 341.049 61.2266Z" stroke="url(#paint2_linear_5792_42546)"/>
<path d="M348.588 79.1245V78.8105H9.41406V79.1245V79.4385H348.588V79.1245Z" fill="#F4F4F5"/>
<path d="M21.0331 71.5891C21.9004 71.5891 22.6034 70.8862 22.6034 70.0192C22.6034 69.1521 21.9004 68.4492 21.0331 68.4492C20.1659 68.4492 19.4629 69.1521 19.4629 70.0192C19.4629 70.8862 20.1659 71.5891 21.0331 71.5891Z" fill="#266AE9"/>
<path d="M29.1992 71.5891C30.0664 71.5891 30.7694 70.8862 30.7694 70.0192C30.7694 69.1521 30.0664 68.4492 29.1992 68.4492C28.3319 68.4492 27.6289 69.1521 27.6289 70.0192C27.6289 70.8862 28.3319 71.5891 29.1992 71.5891Z" fill="#D9D9D9"/>
<path d="M37.3632 71.5891C38.2304 71.5891 38.9335 70.8862 38.9335 70.0192C38.9335 69.1521 38.2304 68.4492 37.3632 68.4492C36.496 68.4492 35.793 69.1521 35.793 70.0192C35.793 70.8862 36.496 71.5891 37.3632 71.5891Z" fill="#D9D9D9"/>
<path d="M93.5787 86.6621H21.9753C20.5877 86.6621 19.4629 87.7867 19.4629 89.174V94.1978C19.4629 95.5851 20.5877 96.7097 21.9753 96.7097H93.5787C94.9663 96.7097 96.0911 95.5851 96.0911 94.1978V89.174C96.0911 87.7867 94.9663 86.6621 93.5787 86.6621Z" fill="white"/>
<path d="M318.44 86.6621H310.903C309.515 86.6621 308.391 87.7867 308.391 89.174V96.7097C308.391 98.097 309.515 99.2216 310.903 99.2216H318.44C319.828 99.2216 320.953 98.097 320.953 96.7097V89.174C320.953 87.7867 319.828 86.6621 318.44 86.6621Z" fill="white"/>
<path d="M336.026 86.6621H328.489C327.101 86.6621 325.977 87.7867 325.977 89.174V96.7097C325.977 98.097 327.101 99.2216 328.489 99.2216H336.026C337.414 99.2216 338.539 98.097 338.539 96.7097V89.174C338.539 87.7867 337.414 86.6621 336.026 86.6621Z" fill="white"/>
<path d="M120.587 101.732H23.2315C21.1502 101.732 19.4629 103.419 19.4629 105.5V113.036C19.4629 115.117 21.1502 116.804 23.2315 116.804H120.587C122.668 116.804 124.356 115.117 124.356 113.036V105.5C124.356 103.419 122.668 101.732 120.587 101.732Z" fill="white"/>
<path d="M334.771 101.732H237.415C235.334 101.732 233.646 103.419 233.646 105.5V113.036C233.646 115.117 235.334 116.804 237.415 116.804H334.771C336.852 116.804 338.539 115.117 338.539 113.036V105.5C338.539 103.419 336.852 101.732 334.771 101.732Z" fill="white"/>
<path opacity="0.6" d="M168.323 124.338H27.0001C22.8374 124.338 19.4629 127.712 19.4629 131.874V167.04C19.4629 171.202 22.8374 174.576 27.0001 174.576H168.323C172.485 174.576 175.86 171.202 175.86 167.04V131.874C175.86 127.712 172.485 124.338 168.323 124.338Z" fill="white"/>
<path opacity="0.6" d="M73.4794 131.875H30.7686C28.6873 131.875 27 133.562 27 135.643V138.155C27 140.236 28.6873 141.923 30.7686 141.923H73.4794C75.5608 141.923 77.248 140.236 77.248 138.155V135.643C77.248 133.562 75.5608 131.875 73.4794 131.875Z" fill="#F3F4F6"/>
<path opacity="0.6" d="M147.595 146.945H32.0248C29.2497 146.945 27 149.195 27 151.969V162.017C27 164.791 29.2497 167.041 32.0248 167.041H147.595C150.37 167.041 152.62 164.791 152.62 162.017V151.969C152.62 149.195 150.37 146.945 147.595 146.945Z" fill="#F3F4F6"/>
<path opacity="0.6" d="M331 124.338H189.678C185.515 124.338 182.141 127.712 182.141 131.874V167.04C182.141 171.202 185.515 174.576 189.678 174.576H331C335.163 174.576 338.538 171.202 338.538 167.04V131.874C338.538 127.712 335.163 124.338 331 124.338Z" fill="white"/>
<path opacity="0.6" d="M249.349 131.875H193.448C191.367 131.875 189.68 133.562 189.68 135.643V138.155C189.68 140.236 191.367 141.923 193.448 141.923H249.349C251.431 141.923 253.118 140.236 253.118 138.155V135.643C253.118 133.562 251.431 131.875 249.349 131.875Z" fill="#F3F4F6"/>
<path opacity="0.6" d="M285.151 146.945H194.704C191.929 146.945 189.68 149.195 189.68 151.969V162.017C189.68 164.791 191.929 167.041 194.704 167.041H285.151C287.926 167.041 290.176 164.791 290.176 162.017V151.969C290.176 149.195 287.926 146.945 285.151 146.945Z" fill="#F3F4F6"/>
<path d="M79.7605 182.113H21.9753C20.5877 182.113 19.4629 183.238 19.4629 184.625V194.673C19.4629 196.06 20.5877 197.185 21.9753 197.185H79.7605C81.1481 197.185 82.2729 196.06 82.2729 194.673V184.625C82.2729 183.238 81.1481 182.113 79.7605 182.113Z" fill="white"/>
<path d="M206.637 182.113H92.3229C90.9354 182.113 89.8105 183.238 89.8105 184.625V194.673C89.8105 196.06 90.9354 197.185 92.3229 197.185H206.637C208.025 197.185 209.15 196.06 209.15 194.673V184.625C209.15 183.238 208.025 182.113 206.637 182.113Z" fill="white"/>
<path d="M336.025 182.113H219.198C217.81 182.113 216.686 183.238 216.686 184.625V194.673C216.686 196.06 217.81 197.185 219.198 197.185H336.025C337.412 197.185 338.537 196.06 338.537 194.673V184.625C338.537 183.238 337.412 182.113 336.025 182.113Z" fill="white"/>
</g>
<g filter="url(#filter3_i_5792_42546)">
<mask id="path-25-inside-1_5792_42546" fill="white">
<path d="M151.479 60.5471C151.479 45.3473 163.8 33.0254 179 33.0254C194.2 33.0254 206.522 45.3473 206.522 60.5471C206.522 75.747 194.2 88.0689 179 88.0689C163.8 88.0689 151.479 75.747 151.479 60.5471Z"/>
</mask>
<path d="M151.479 60.5471C151.479 45.3473 163.8 33.0254 179 33.0254C194.2 33.0254 206.522 45.3473 206.522 60.5471C206.522 75.747 194.2 88.0689 179 88.0689C163.8 88.0689 151.479 75.747 151.479 60.5471Z" fill="#F6F9FD" fill-opacity="0.2"/>
<path d="M151.479 33.0254H206.522H151.479ZM206.522 88.0689H151.479H206.522ZM177.5 88.0689C162.3 88.0689 149.979 75.747 149.979 60.5471C149.979 45.3473 162.3 33.0254 177.5 33.0254H179C164.629 33.0254 152.979 45.3473 152.979 60.5471C152.979 75.747 164.629 88.0689 179 88.0689H177.5ZM180.5 33.0254C195.7 33.0254 208.022 45.3473 208.022 60.5471C208.022 75.747 195.7 88.0689 180.5 88.0689H179C193.372 88.0689 205.022 75.747 205.022 60.5471C205.022 45.3473 193.372 33.0254 179 33.0254H180.5Z" fill="#266AE9" fill-opacity="0.2" mask="url(#path-25-inside-1_5792_42546)"/>
<g clip-path="url(#clip1_5792_42546)">
<path d="M185.066 60.9344L184.874 59.9011L185.407 60.0112C186.034 60.1212 186.223 59.1899 185.596 59.0798L184.645 58.8597L184.21 56.5032L186.687 56.9675C187.31 57.0776 187.446 56.1462 186.849 56.0094L183.994 55.4806L183.288 51.8063L189.272 52.9845C189.763 53.0651 190.094 53.5294 190.014 54.0232C190.014 54.034 190.008 54.0474 190.008 54.0581L188.729 60.6902C188.678 60.9559 188.851 61.2109 189.113 61.2619C189.374 61.3129 189.624 61.1411 189.68 60.8808L190.96 54.2728C191.168 53.2556 190.517 52.2626 189.51 52.0532C189.494 52.0505 189.48 52.0478 189.464 52.0451L183.096 50.7837L182.96 50.0698C182.733 49.0284 181.712 48.3654 180.675 48.5909L171.177 50.4616C171.055 50.4777 170.945 50.5502 170.879 50.6549L167.152 56.0711C167.032 56.1865 166.979 56.3556 167.008 56.522L169.844 70.9993C170.063 72.0514 171.087 72.7251 172.132 72.505L180.158 70.9429C180.414 70.8893 180.577 70.637 180.526 70.382C180.473 70.1243 180.222 69.9606 179.966 70.0116L171.94 71.5737C171.417 71.681 170.905 71.3428 170.799 70.8141C170.799 70.8114 170.799 70.8087 170.799 70.8061L168.048 56.7958L170.689 56.2751C171.729 56.063 172.409 55.0485 172.211 53.9991L171.694 51.3393L180.87 49.5303C181.382 49.4122 181.894 49.7343 182.008 50.2523C182.008 50.2603 182.011 50.2657 182.014 50.2711C182.07 50.5556 182.587 53.2046 184.13 61.1143C184.178 61.3666 184.418 61.5383 184.671 61.4981C184.938 61.4551 185.117 61.2028 185.066 60.9371V60.9344ZM170.487 55.3437H170.497L168.565 55.698L170.905 52.3135L171.286 54.1923C171.372 54.7318 171.017 55.2418 170.487 55.3437Z" fill="#266AE9"/>
<path d="M178.09 62.7464L171.86 64.0079C171.261 64.1179 171.45 65.0814 172.05 64.9392L178.28 63.6777C178.535 63.624 178.701 63.3744 178.647 63.1168C178.594 62.8591 178.346 62.6927 178.09 62.7464Z" fill="#266AE9"/>
<path d="M182.075 59.6896C182.04 59.4292 181.803 59.2467 181.545 59.2816C181.526 59.2816 181.51 59.287 181.491 59.2924L171.313 61.3751C170.716 61.4852 170.905 62.4165 171.505 62.3064L181.67 60.2237C181.928 60.1888 182.11 59.9499 182.075 59.6896Z" fill="#266AE9"/>
<path d="M170.988 59.6472L181.136 57.5644C181.392 57.5108 181.557 57.2612 181.504 57.0035C181.451 56.7458 181.203 56.5794 180.947 56.6331H180.958L170.796 58.7159C170.199 58.8259 170.388 59.7572 170.988 59.6472Z" fill="#266AE9"/>
<path d="M185.153 70.7564C183.816 70.339 182.695 69.4084 182.033 68.1657C181.371 66.9231 181.222 65.4682 181.617 64.1154C183.001 64.1792 184.356 63.6979 185.393 62.7734C186.431 63.6979 187.786 64.1792 189.17 64.1154C189.471 65.1483 189.457 66.2487 189.13 67.2735M186.726 69.9307L187.615 70.8253L189.392 69.036" stroke="#266AE9" stroke-width="1.2" stroke-linecap="round" stroke-linejoin="round"/>
</g>
</g>
<path d="M318.439 43.3281H424.588" stroke="url(#paint3_linear_5792_42546)" stroke-opacity="0.3" stroke-linecap="round"/>
<path d="M407.002 155.738H-48.3711V212.256H407.002V155.738Z" fill="url(#paint4_linear_5792_42546)"/>
</g>
<path d="M412.968 173.32H-42.4043V210.999H412.968V173.32Z" fill="url(#paint5_linear_5792_42546)"/>
</g>
<rect width="358" height="40" transform="matrix(1 0 0 -1 0 40)" fill="url(#paint6_linear_5792_42546)"/>
<rect y="136" width="358" height="94" fill="url(#paint7_linear_5792_42546)"/>
</g>
<defs>
<filter id="filter0_f_5792_42546" x="38.6719" y="-76.918" width="586.051" height="520.529" filterUnits="userSpaceOnUse" color-interpolation-filters="sRGB">
<feFlood flood-opacity="0" result="BackgroundImageFix"/>
<feBlend mode="normal" in="SourceGraphic" in2="BackgroundImageFix" result="shape"/>
<feGaussianBlur stdDeviation="100" result="effect1_foregroundBlur_5792_42546"/>
</filter>
<filter id="filter1_f_5792_42546" x="-258.477" y="-68.0215" width="550.762" height="506.852" filterUnits="userSpaceOnUse" color-interpolation-filters="sRGB">
<feFlood flood-opacity="0" result="BackgroundImageFix"/>
<feBlend mode="normal" in="SourceGraphic" in2="BackgroundImageFix" result="shape"/>
<feGaussianBlur stdDeviation="100" result="effect1_foregroundBlur_5792_42546"/>
</filter>
<filter id="filter2_dd_5792_42546" x="-22.7734" y="38.7266" width="403.547" height="213.203" filterUnits="userSpaceOnUse" color-interpolation-filters="sRGB">
<feFlood flood-opacity="0" result="BackgroundImageFix"/>
<feColorMatrix in="SourceAlpha" type="matrix" values="0 0 0 0 0 0 0 0 0 0 0 0 0 0 0 0 0 0 127 0" result="hardAlpha"/>
<feOffset dy="4"/>
<feGaussianBlur stdDeviation="8"/>
<feComposite in2="hardAlpha" operator="out"/>
<feColorMatrix type="matrix" values="0 0 0 0 0.0588235 0 0 0 0 0.141176 0 0 0 0 0.0666667 0 0 0 0.02 0"/>
<feBlend mode="normal" in2="BackgroundImageFix" result="effect1_dropShadow_5792_42546"/>
<feColorMatrix in="SourceAlpha" type="matrix" values="0 0 0 0 0 0 0 0 0 0 0 0 0 0 0 0 0 0 127 0" result="hardAlpha"/>
<feOffset dy="10"/>
<feGaussianBlur stdDeviation="16"/>
<feComposite in2="hardAlpha" operator="out"/>
<feColorMatrix type="matrix" values="0 0 0 0 0.0627451 0 0 0 0 0.0588235 0 0 0 0 0.141176 0 0 0 0.05 0"/>
<feBlend mode="normal" in2="effect1_dropShadow_5792_42546" result="effect2_dropShadow_5792_42546"/>
<feBlend mode="normal" in="SourceGraphic" in2="effect2_dropShadow_5792_42546" result="shape"/>
</filter>
<filter id="filter3_i_5792_42546" x="151.479" y="33.0254" width="55.043" height="58.043" filterUnits="userSpaceOnUse" color-interpolation-filters="sRGB">
<feFlood flood-opacity="0" result="BackgroundImageFix"/>
<feBlend mode="normal" in="SourceGraphic" in2="BackgroundImageFix" result="shape"/>
<feColorMatrix in="SourceAlpha" type="matrix" values="0 0 0 0 0 0 0 0 0 0 0 0 0 0 0 0 0 0 127 0" result="hardAlpha"/>
<feOffset dy="3"/>
<feGaussianBlur stdDeviation="6"/>
<feComposite in2="hardAlpha" operator="arithmetic" k2="-1" k3="1"/>
<feColorMatrix type="matrix" values="0 0 0 0 0.585337 0 0 0 0 0.717275 0 0 0 0 0.972356 0 0 0 0.16 0"/>
<feBlend mode="normal" in2="shape" result="effect1_innerShadow_5792_42546"/>
</filter>
<linearGradient id="paint0_linear_5792_42546" x1="350.922" y1="205.975" x2="342.52" y2="144.675" gradientUnits="userSpaceOnUse">
<stop stop-color="#5C85D5"/>
<stop offset="1" stop-color="#C3A7F3"/>
</linearGradient>
<linearGradient id="paint1_linear_5792_42546" x1="-121.618" y1="241.958" x2="-144.656" y2="174.421" gradientUnits="userSpaceOnUse">
<stop stop-color="#5C85D5"/>
<stop offset="1" stop-color="#C3A7F3"/>
</linearGradient>
<linearGradient id="paint2_linear_5792_42546" x1="348.587" y1="60.9126" x2="9.41252" y2="60.9126" gradientUnits="userSpaceOnUse">
<stop stop-color="#F4F4F5"/>
<stop offset="0.506904" stop-color="#266AE9" stop-opacity="0.2"/>
<stop offset="1" stop-color="#F4F4F5"/>
</linearGradient>
<linearGradient id="paint3_linear_5792_42546" x1="-nan" y1="-nan" x2="-nan" y2="-nan" gradientUnits="userSpaceOnUse">
<stop stop-color="#FAFAFA"/>
<stop offset="0.534678" stop-color="#266AE9"/>
<stop offset="1" stop-color="#FAFAFA"/>
</linearGradient>
<linearGradient id="paint4_linear_5792_42546" x1="179.315" y1="155.738" x2="179.315" y2="212.256" gradientUnits="userSpaceOnUse">
<stop stop-color="#FAFAFA" stop-opacity="0"/>
<stop offset="1" stop-color="#FAFAFA"/>
</linearGradient>
<linearGradient id="paint5_linear_5792_42546" x1="185.282" y1="173.32" x2="185.282" y2="210.999" gradientUnits="userSpaceOnUse">
<stop stop-color="#FAFAFA" stop-opacity="0"/>
<stop offset="1" stop-color="#FAFAFA"/>
</linearGradient>
<linearGradient id="paint6_linear_5792_42546" x1="179" y1="0" x2="179" y2="40" gradientUnits="userSpaceOnUse">
<stop stop-color="#FAFAFA" stop-opacity="0"/>
<stop offset="1" stop-color="#FAFAFA"/>
</linearGradient>
<linearGradient id="paint7_linear_5792_42546" x1="179" y1="136" x2="179" y2="230" gradientUnits="userSpaceOnUse">
<stop stop-color="#FAFAFA" stop-opacity="0"/>
<stop offset="1" stop-color="#FAFAFA"/>
</linearGradient>
<clipPath id="clip0_5792_42546">
<rect width="358" height="230" fill="white"/>
</clipPath>
<clipPath id="clip1_5792_42546">
<rect width="24" height="24" fill="white" transform="translate(167 48.5469)"/>
</clipPath>
</defs>
</svg>
