<svg width="358" height="230" viewBox="0 0 358 230" fill="none" xmlns="http://www.w3.org/2000/svg">
<g clip-path="url(#clip0_5204_66488)">
<g clip-path="url(#clip1_5204_66488)">
<g opacity="0.5" filter="url(#filter0_f_5204_66488)">
<path d="M259.84 102.86C323.183 121.954 377.396 181.927 377.396 181.927C377.396 181.927 406.382 163.567 417.605 158.153C383.152 150.815 371.161 111.05 342.7 88.3228C325.526 86.4988 276.674 101.791 259.84 102.86Z" fill="url(#paint0_linear_5204_66488)"/>
</g>
<g opacity="0.5" filter="url(#filter1_f_5204_66488)">
<path d="M93.6555 83.817C30.3124 102.911 -23.9006 162.883 -23.9006 162.883C-23.9006 162.883 -52.8864 144.524 -64.1094 139.11C-29.6559 131.771 -17.6651 92.0067 10.7958 69.2798C27.9697 67.4557 76.8209 82.7482 93.6555 83.817Z" fill="url(#paint1_linear_5204_66488)"/>
</g>
<path d="M-70.078 156.012L-70.0781 135.183C-70.0782 131.897 -67.4071 129.233 -64.1122 129.233H173.331C176.626 129.233 179.297 126.568 179.297 123.282V108.404" stroke="url(#paint2_linear_5204_66488)" stroke-linecap="round" stroke-linejoin="round"/>
<path d="M255.064 155.714V135.183C255.064 131.897 252.393 129.233 249.098 129.233H185.263C181.968 129.233 179.297 126.568 179.297 123.282V108.404" stroke="url(#paint3_linear_5204_66488)" stroke-linecap="round" stroke-linejoin="round"/>
<path d="M428.672 156.012V135.183C428.672 131.897 426.001 129.233 422.706 129.233H185.263C181.968 129.233 179.297 126.568 179.297 123.282V108.404" stroke="url(#paint4_linear_5204_66488)" stroke-linecap="round" stroke-linejoin="round"/>
<path d="M100.848 155.714V135.183C100.848 131.897 103.519 129.233 106.814 129.233H173.333C176.628 129.233 179.299 126.568 179.299 123.282V108.404" stroke="url(#paint5_linear_5204_66488)" stroke-linecap="round" stroke-linejoin="round"/>
<path d="M-70.078 16.7598L-70.0781 37.5879C-70.0782 40.8746 -67.4071 43.5389 -64.1122 43.5389H173.331C176.626 43.5389 179.297 46.2033 179.297 49.4898V64.3671" stroke="url(#paint6_linear_5204_66488)" stroke-linecap="round" stroke-linejoin="round"/>
<path d="M255.064 17.0586V37.5893C255.064 40.8758 252.393 43.5402 249.098 43.5402H185.263C181.968 43.5402 179.297 46.2045 179.297 49.4911V64.3684" stroke="url(#paint7_linear_5204_66488)" stroke-linecap="round" stroke-linejoin="round"/>
<path d="M428.672 16.7598V37.5879C428.672 40.8746 426.001 43.5389 422.706 43.5389H185.263C181.968 43.5389 179.297 46.2033 179.297 49.4898V64.3671" stroke="url(#paint8_linear_5204_66488)" stroke-linecap="round" stroke-linejoin="round"/>
<path d="M100.848 17.0586V37.5893C100.848 40.8758 103.519 43.5402 106.814 43.5402H173.333C176.628 43.5402 179.299 46.2045 179.299 49.4911V64.3684" stroke="url(#paint9_linear_5204_66488)" stroke-linecap="round" stroke-linejoin="round"/>
<g filter="url(#filter2_ddi_5204_66488)">
<path d="M161.402 156.012H30.7489C26.7951 156.012 23.5898 159.209 23.5898 163.153V238.134C23.5898 242.078 26.7951 245.276 30.7489 245.276H161.402C165.356 245.276 168.561 242.078 168.561 238.134V163.153C168.561 159.209 165.356 156.012 161.402 156.012Z" fill="black" fill-opacity="0.01"/>
<path d="M161.401 156.311H30.7475C26.9584 156.311 23.8867 159.375 23.8867 163.154V238.136C23.8867 241.915 26.9584 244.979 30.7475 244.979H161.401C165.19 244.979 168.262 241.915 168.262 238.136V163.154C168.262 159.375 165.19 156.311 161.401 156.311Z" stroke="url(#paint10_linear_5204_66488)"/>
<path d="M161.401 156.311H30.7475C26.9584 156.311 23.8867 159.375 23.8867 163.154V238.136C23.8867 241.915 26.9584 244.979 30.7475 244.979H161.401C165.19 244.979 168.262 241.915 168.262 238.136V163.154C168.262 159.375 165.19 156.311 161.401 156.311Z" stroke="white" stroke-opacity="0.4"/>
<g opacity="0.8">
<path d="M103.534 165.533H35.5231C34.2051 165.533 33.1367 166.599 33.1367 167.914V172.674C33.1367 173.989 34.2051 175.055 35.5231 175.055H103.534C104.852 175.055 105.921 173.989 105.921 172.674V167.914C105.921 166.599 104.852 165.533 103.534 165.533Z" fill="white"/>
<path d="M139.928 165.533H132.769C131.451 165.533 130.383 166.599 130.383 167.914V175.055C130.383 176.369 131.451 177.435 132.769 177.435H139.928C141.246 177.435 142.315 176.369 142.315 175.055V167.914C142.315 166.599 141.246 165.533 139.928 165.533Z" fill="white"/>
<path d="M156.631 165.533H149.472C148.154 165.533 147.086 166.599 147.086 167.914V175.055C147.086 176.369 148.154 177.435 149.472 177.435H156.631C157.949 177.435 159.018 176.369 159.018 175.055V167.914C159.018 166.599 157.949 165.533 156.631 165.533Z" fill="white"/>
<path d="M77.2844 179.814H36.7163C34.7393 179.814 33.1367 181.413 33.1367 183.385V188.146C33.1367 190.118 34.7393 191.716 36.7163 191.716H77.2844C79.2614 191.716 80.864 190.118 80.864 188.146V183.385C80.864 181.413 79.2614 179.814 77.2844 179.814Z" fill="white"/>
<path d="M155.437 179.814H114.869C112.892 179.814 111.289 181.413 111.289 183.385V188.146C111.289 190.118 112.892 191.716 114.869 191.716H155.437C157.414 191.716 159.016 190.118 159.016 188.146V183.385C159.016 181.413 157.414 179.814 155.437 179.814Z" fill="white"/>
</g>
<path d="M54.614 198.859H35.5231C34.2051 198.859 33.1367 199.925 33.1367 201.24V206C33.1367 207.315 34.2051 208.381 35.5231 208.381H54.614C55.9319 208.381 57.0004 207.315 57.0004 206V201.24C57.0004 199.925 55.9319 198.859 54.614 198.859Z" fill="white"/>
<path d="M104.728 198.859H64.1598C62.8418 198.859 61.7734 199.925 61.7734 201.24V206C61.7734 207.315 62.8418 208.381 64.1598 208.381H104.728C106.046 208.381 107.114 207.315 107.114 206V201.24C107.114 199.925 106.046 198.859 104.728 198.859Z" fill="white"/>
<path d="M156.034 198.859H114.273C112.955 198.859 111.887 199.925 111.887 201.24V206C111.887 207.315 112.955 208.381 114.273 208.381H156.034C157.352 208.381 158.421 207.315 158.421 206V201.24C158.421 199.925 157.352 198.859 156.034 198.859Z" fill="white"/>
<g filter="url(#filter3_ddi_5204_66488)">
<path d="M87 156.013C87 148.125 93.4104 141.73 101.318 141.73C109.226 141.73 115.636 148.125 115.636 156.013C115.636 163.901 109.226 170.295 101.318 170.295C93.4104 170.295 87 163.901 87 156.013Z" fill="#FAFAFA" fill-opacity="0.06"/>
<mask id="mask0_5204_66488" style="mask-type:luminance" maskUnits="userSpaceOnUse" x="87" y="141" width="29" height="30">
<path d="M87 156.013C87 148.125 93.4104 141.73 101.318 141.73C109.226 141.73 115.636 148.125 115.636 156.013C115.636 163.901 109.226 170.295 101.318 170.295C93.4104 170.295 87 163.901 87 156.013Z" fill="white"/>
</mask>
<g mask="url(#mask0_5204_66488)">
<path d="M101.317 170.294V169.699C93.7386 169.699 87.5955 163.572 87.5955 156.012H86.9989H86.4023C86.4023 164.229 93.08 170.889 101.317 170.889V170.294ZM115.635 156.012H115.039C115.039 163.572 108.896 169.699 101.317 169.699V170.294V170.889C109.554 170.889 116.232 164.229 116.232 156.012H115.635ZM101.317 141.73V142.325C108.896 142.325 115.039 148.453 115.039 156.012H115.635H116.232C116.232 147.796 109.554 141.135 101.317 141.135V141.73ZM101.317 141.73V141.135C93.08 141.135 86.4023 147.796 86.4023 156.012H86.9989H87.5955C87.5955 148.453 93.7386 142.325 101.317 142.325V141.73Z" fill="url(#paint11_linear_5204_66488)"/>
</g>
<path d="M103.649 161.169C103.531 161.169 103.416 161.136 103.314 161.073C103.213 161.01 103.13 160.919 103.072 160.809L101.951 158.743C101.907 158.66 101.895 158.562 101.918 158.47C101.941 158.378 101.997 158.299 102.075 158.251C102.153 158.204 102.245 158.191 102.331 158.216C102.418 158.241 102.492 158.301 102.537 158.384L103.658 160.45L103.937 159.721C103.995 159.581 104.093 159.464 104.218 159.388C104.342 159.313 104.487 159.281 104.63 159.299L105.368 159.395L104.018 156.917C103.995 156.876 103.981 156.83 103.976 156.783C103.97 156.737 103.973 156.689 103.984 156.644C103.995 156.598 104.015 156.555 104.042 156.518C104.069 156.48 104.103 156.449 104.141 156.425C104.18 156.402 104.223 156.386 104.266 156.38C104.31 156.374 104.355 156.377 104.398 156.389C104.441 156.402 104.481 156.423 104.516 156.451C104.551 156.48 104.58 156.516 104.603 156.557L105.953 159.04C106.015 159.155 106.045 159.286 106.041 159.419C106.037 159.551 105.998 159.68 105.929 159.79C105.861 159.901 105.765 159.989 105.653 160.046C105.54 160.102 105.415 160.124 105.292 160.109L104.554 160.009L104.27 160.732C104.221 160.856 104.141 160.962 104.038 161.039C103.936 161.116 103.814 161.161 103.689 161.169H103.649Z" fill="#111827"/>
<path d="M98.7871 161.17H98.7477C98.6105 161.161 98.4781 161.114 98.3653 161.032C98.2532 160.95 98.1649 160.836 98.1118 160.704L97.7914 159.927L96.9926 160.034C96.8571 160.053 96.7199 160.031 96.5958 159.972C96.4723 159.914 96.3667 159.82 96.2922 159.702C96.2212 159.582 96.1836 159.444 96.1836 159.304C96.1836 159.163 96.2212 159.024 96.2922 158.904L97.7717 156.251C97.8206 156.163 97.9012 156.098 97.996 156.072C98.0909 156.045 98.1917 156.059 98.277 156.11C98.3617 156.161 98.4238 156.245 98.4494 156.343C98.4751 156.441 98.4614 156.546 98.4125 156.634L96.9329 159.283L97.7371 159.176C97.8934 159.154 98.0527 159.187 98.1893 159.268C98.3265 159.349 98.4345 159.475 98.4966 159.625L98.8169 160.403L100.02 158.199C100.069 158.11 100.15 158.046 100.245 158.02C100.339 157.994 100.441 158.007 100.526 158.058C100.611 158.109 100.673 158.193 100.698 158.291C100.724 158.389 100.711 158.494 100.661 158.582L99.4183 160.786C99.3563 160.903 99.2644 161 99.1534 161.067C99.0425 161.135 98.916 161.17 98.7871 161.17Z" fill="#111827"/>
<path d="M101.273 159.253C100.936 159.253 100.613 159.12 100.373 158.883L99.9289 158.436C99.8823 158.388 99.8262 158.35 99.7648 158.324C99.7033 158.298 99.6371 158.284 99.5703 158.284H99.065C98.7291 158.283 98.407 158.148 98.1695 157.91C97.9321 157.671 97.7978 157.348 97.7966 157.011V156.504C97.7978 156.432 97.7841 156.361 97.7561 156.296C97.7286 156.23 97.6869 156.171 97.635 156.123L97.1851 155.676C96.9489 155.436 96.8164 155.112 96.8164 154.774C96.8152 154.608 96.8469 154.442 96.9089 154.288C96.9716 154.134 97.064 153.994 97.1804 153.876L97.635 153.424C97.6821 153.377 97.7191 153.321 97.7441 153.259C97.7692 153.197 97.7817 153.131 97.7817 153.064V152.557C97.7793 152.388 97.8104 152.221 97.873 152.065C97.9356 151.909 98.0281 151.767 98.1456 151.647C98.2626 151.527 98.4028 151.431 98.5567 151.365C98.7112 151.299 98.8771 151.265 99.0447 151.263H99.55C99.6162 151.264 99.6825 151.251 99.7439 151.226C99.8054 151.201 99.8614 151.163 99.9086 151.116L100.373 150.675C100.616 150.44 100.941 150.309 101.278 150.309C101.615 150.309 101.939 150.44 102.182 150.675L102.627 151.121C102.674 151.169 102.73 151.205 102.792 151.231C102.853 151.256 102.919 151.268 102.986 151.268H103.491C103.828 151.27 104.15 151.405 104.388 151.645C104.626 151.884 104.759 152.209 104.759 152.547V153.054C104.759 153.121 104.771 153.187 104.796 153.249C104.821 153.31 104.858 153.367 104.906 153.414L105.355 153.865C105.591 154.106 105.722 154.429 105.722 154.766C105.722 155.103 105.591 155.426 105.355 155.666L104.906 156.113C104.858 156.161 104.821 156.218 104.795 156.28C104.77 156.343 104.758 156.411 104.759 156.478V156.986C104.762 157.153 104.731 157.321 104.669 157.477C104.607 157.634 104.515 157.776 104.399 157.897C104.282 158.017 104.142 158.114 103.988 158.18C103.834 158.247 103.668 158.282 103.501 158.284H102.996C102.929 158.284 102.863 158.298 102.801 158.324C102.739 158.35 102.684 158.388 102.637 158.436L102.192 158.883C102.071 159.002 101.927 159.097 101.77 159.161C101.612 159.224 101.443 159.256 101.273 159.253ZM99.0447 152.024C98.9105 152.024 98.7822 152.078 98.6873 152.173C98.5925 152.268 98.5394 152.397 98.5394 152.531V153.039C98.54 153.206 98.5078 153.37 98.4445 153.524C98.3813 153.679 98.2882 153.819 98.1707 153.937L97.7256 154.388C97.6779 154.435 97.6403 154.491 97.6141 154.553C97.5884 154.615 97.5747 154.681 97.5741 154.748C97.5741 154.816 97.5872 154.884 97.6135 154.946C97.6391 155.009 97.6773 155.066 97.7256 155.113L98.1707 155.56C98.2888 155.678 98.3819 155.819 98.4451 155.974C98.5084 156.129 98.5406 156.295 98.5394 156.463V156.97C98.5394 157.105 98.5925 157.234 98.6873 157.329C98.7822 157.424 98.9105 157.477 99.0447 157.477H99.55C99.7165 157.476 99.8811 157.509 100.035 157.574C100.188 157.638 100.328 157.733 100.444 157.853L100.889 158.299C100.987 158.392 101.117 158.444 101.253 158.444C101.388 158.444 101.518 158.392 101.617 158.299L102.061 157.853C102.177 157.733 102.316 157.638 102.47 157.574C102.624 157.509 102.789 157.476 102.955 157.477H103.461C103.594 157.477 103.723 157.424 103.818 157.329C103.912 157.234 103.966 157.105 103.966 156.97V156.463C103.965 156.295 103.996 156.129 104.06 155.974C104.123 155.819 104.217 155.678 104.335 155.56L104.785 155.113C104.832 155.066 104.87 155.01 104.897 154.947C104.923 154.885 104.936 154.818 104.936 154.751C104.936 154.683 104.923 154.616 104.897 154.554C104.87 154.491 104.832 154.436 104.785 154.388L104.335 153.937C104.217 153.819 104.124 153.679 104.061 153.524C103.998 153.37 103.965 153.206 103.966 153.039V152.531C103.966 152.397 103.912 152.268 103.818 152.173C103.723 152.078 103.594 152.024 103.461 152.024H102.955C102.79 152.025 102.625 151.992 102.472 151.929C102.318 151.865 102.179 151.772 102.061 151.654L101.617 151.208C101.569 151.158 101.513 151.119 101.45 151.093C101.388 151.066 101.321 151.052 101.253 151.052C101.185 151.052 101.117 151.066 101.055 151.093C100.993 151.119 100.936 151.158 100.889 151.208L100.444 151.654C100.327 151.772 100.187 151.865 100.034 151.929C99.8805 151.992 99.7159 152.025 99.55 152.024H99.0447Z" fill="#111827"/>
<path d="M100.862 156.058C100.764 156.057 100.669 156.015 100.598 155.941L99.7871 155.059C99.7185 154.984 99.6797 154.884 99.6797 154.779C99.6797 154.674 99.7185 154.573 99.7871 154.499C99.8569 154.426 99.9505 154.384 100.048 154.384C100.146 154.384 100.239 154.426 100.31 154.499L100.862 155.101L102.23 153.616C102.301 153.543 102.394 153.502 102.492 153.502C102.589 153.502 102.683 153.543 102.753 153.616C102.822 153.691 102.86 153.791 102.86 153.896C102.86 154.001 102.822 154.102 102.753 154.176L101.121 155.941C101.052 156.015 100.959 156.057 100.862 156.058Z" fill="#111827"/>
</g>
</g>
<g filter="url(#filter4_ddi_5204_66488)">
<path d="M6.88281 156.012H-123.771C-127.724 156.012 -130.93 159.209 -130.93 163.153V238.134C-130.93 242.078 -127.724 245.276 -123.771 245.276H6.88281C10.8367 245.276 14.0419 242.078 14.0419 238.134V163.153C14.0419 159.209 10.8367 156.012 6.88281 156.012Z" fill="black" fill-opacity="0.01"/>
<path d="M6.88139 156.311H-123.772C-127.561 156.311 -130.633 159.375 -130.633 163.154V238.136C-130.633 241.915 -127.561 244.979 -123.772 244.979H6.88139C10.6705 244.979 13.7422 241.915 13.7422 238.136V163.154C13.7422 159.375 10.6705 156.311 6.88139 156.311Z" stroke="url(#paint12_linear_5204_66488)"/>
<path d="M6.88139 156.311H-123.772C-127.561 156.311 -130.633 159.375 -130.633 163.154V238.136C-130.633 241.915 -127.561 244.979 -123.772 244.979H6.88139C10.6705 244.979 13.7422 241.915 13.7422 238.136V163.154C13.7422 159.375 10.6705 156.311 6.88139 156.311Z" stroke="white" stroke-opacity="0.4"/>
<g opacity="0.8">
<path d="M2.11186 165.533H-5.04723C-6.36518 165.533 -7.43359 166.599 -7.43359 167.914V175.055C-7.43359 176.369 -6.36518 177.435 -5.04723 177.435H2.11186C3.42981 177.435 4.49822 176.369 4.49822 175.055V167.914C4.49822 166.599 3.42981 165.533 2.11186 165.533Z" fill="white"/>
<path d="M0.917255 179.814H-39.6509C-41.6279 179.814 -43.2305 181.413 -43.2305 183.385V188.146C-43.2305 190.118 -41.6279 191.716 -39.6509 191.716H0.917255C2.89418 191.716 4.4968 190.118 4.4968 188.146V183.385C4.4968 181.413 2.89418 179.814 0.917255 179.814Z" fill="white"/>
</g>
<path d="M1.51491 198.859H-40.2464C-41.5644 198.859 -42.6328 199.925 -42.6328 201.24V206C-42.6328 207.315 -41.5644 208.381 -40.2464 208.381H1.51491C2.83286 208.381 3.90128 207.315 3.90128 206V201.24C3.90128 199.925 2.83286 198.859 1.51491 198.859Z" fill="white"/>
</g>
<g filter="url(#filter5_ddi_5204_66488)">
<path d="M315.918 156.012H185.265C181.311 156.012 178.105 159.209 178.105 163.153V238.134C178.105 242.078 181.311 245.276 185.265 245.276H315.918C319.872 245.276 323.077 242.078 323.077 238.134V163.153C323.077 159.209 319.872 156.012 315.918 156.012Z" fill="black" fill-opacity="0.01"/>
<path d="M315.917 156.311H185.263C181.474 156.311 178.402 159.375 178.402 163.154V238.136C178.402 241.915 181.474 244.979 185.263 244.979H315.917C319.706 244.979 322.777 241.915 322.777 238.136V163.154C322.777 159.375 319.706 156.311 315.917 156.311Z" stroke="url(#paint13_linear_5204_66488)"/>
<path d="M315.917 156.311H185.263C181.474 156.311 178.402 159.375 178.402 163.154V238.136C178.402 241.915 181.474 244.979 185.263 244.979H315.917C319.706 244.979 322.777 241.915 322.777 238.136V163.154C322.777 159.375 319.706 156.311 315.917 156.311Z" stroke="white" stroke-opacity="0.4"/>
<g opacity="0.8">
<path d="M258.05 165.533H190.039C188.721 165.533 187.652 166.599 187.652 167.914V172.674C187.652 173.989 188.721 175.055 190.039 175.055H258.05C259.368 175.055 260.436 173.989 260.436 172.674V167.914C260.436 166.599 259.368 165.533 258.05 165.533Z" fill="white"/>
<path d="M294.444 165.533H287.285C285.967 165.533 284.898 166.599 284.898 167.914V175.055C284.898 176.369 285.967 177.435 287.285 177.435H294.444C295.762 177.435 296.83 176.369 296.83 175.055V167.914C296.83 166.599 295.762 165.533 294.444 165.533Z" fill="white"/>
<path d="M311.147 165.533H303.988C302.67 165.533 301.602 166.599 301.602 167.914V175.055C301.602 176.369 302.67 177.435 303.988 177.435H311.147C312.465 177.435 313.533 176.369 313.533 175.055V167.914C313.533 166.599 312.465 165.533 311.147 165.533Z" fill="white"/>
<path d="M231.8 179.814H191.232C189.255 179.814 187.652 181.413 187.652 183.385V188.146C187.652 190.118 189.255 191.716 191.232 191.716H231.8C233.777 191.716 235.38 190.118 235.38 188.146V183.385C235.38 181.413 233.777 179.814 231.8 179.814Z" fill="white"/>
<path d="M309.952 179.814H269.384C267.407 179.814 265.805 181.413 265.805 183.385V188.146C265.805 190.118 267.407 191.716 269.384 191.716H309.952C311.929 191.716 313.532 190.118 313.532 188.146V183.385C313.532 181.413 311.929 179.814 309.952 179.814Z" fill="white"/>
</g>
<path d="M209.726 198.859H190.039C188.721 198.859 187.652 199.925 187.652 201.24V206C187.652 207.315 188.721 208.381 190.039 208.381H209.726C211.044 208.381 212.113 207.315 212.113 206V201.24C212.113 199.925 211.044 198.859 209.726 198.859Z" fill="white"/>
<path d="M260.434 198.859H219.269C217.951 198.859 216.883 199.925 216.883 201.24V206C216.883 207.315 217.951 208.381 219.269 208.381H260.434C261.752 208.381 262.82 207.315 262.82 206V201.24C262.82 199.925 261.752 198.859 260.434 198.859Z" fill="white"/>
<path d="M312.338 198.859H269.98C268.662 198.859 267.594 199.925 267.594 201.24V206C267.594 207.315 268.662 208.381 269.98 208.381H312.338C313.656 208.381 314.724 207.315 314.724 206V201.24C314.724 199.925 313.656 198.859 312.338 198.859Z" fill="white"/>
<g filter="url(#filter6_ddi_5204_66488)">
<path d="M241 156.013C241 148.125 247.41 141.73 255.318 141.73C263.226 141.73 269.636 148.125 269.636 156.013C269.636 163.901 263.226 170.295 255.318 170.295C247.41 170.295 241 163.901 241 156.013Z" fill="#FAFAFA" fill-opacity="0.06"/>
<mask id="mask1_5204_66488" style="mask-type:luminance" maskUnits="userSpaceOnUse" x="241" y="141" width="29" height="30">
<path d="M241 156.013C241 148.125 247.41 141.73 255.318 141.73C263.226 141.73 269.636 148.125 269.636 156.013C269.636 163.901 263.226 170.295 255.318 170.295C247.41 170.295 241 163.901 241 156.013Z" fill="white"/>
</mask>
<g mask="url(#mask1_5204_66488)">
<path d="M255.317 170.294V169.699C247.739 169.699 241.596 163.572 241.596 156.012H240.999H240.402C240.402 164.229 247.08 170.889 255.317 170.889V170.294ZM269.635 156.012H269.039C269.039 163.572 262.896 169.699 255.317 169.699V170.294V170.889C263.554 170.889 270.232 164.229 270.232 156.012H269.635ZM255.317 141.73V142.325C262.896 142.325 269.039 148.453 269.039 156.012H269.635H270.232C270.232 147.796 263.554 141.135 255.317 141.135V141.73ZM255.317 141.73V141.135C247.08 141.135 240.402 147.796 240.402 156.012H240.999H241.596C241.596 148.453 247.739 142.325 255.317 142.325V141.73Z" fill="url(#paint14_linear_5204_66488)"/>
</g>
<path d="M257.649 161.169C257.531 161.169 257.416 161.136 257.314 161.073C257.213 161.01 257.13 160.919 257.072 160.809L255.951 158.743C255.907 158.66 255.895 158.562 255.918 158.47C255.941 158.378 255.997 158.299 256.075 158.251C256.153 158.204 256.245 158.191 256.331 158.216C256.418 158.241 256.492 158.301 256.537 158.384L257.658 160.45L257.937 159.721C257.995 159.581 258.093 159.464 258.218 159.388C258.342 159.313 258.487 159.281 258.63 159.299L259.368 159.395L258.018 156.917C257.995 156.876 257.981 156.83 257.976 156.783C257.97 156.737 257.973 156.689 257.984 156.644C257.995 156.598 258.015 156.555 258.042 156.518C258.069 156.48 258.103 156.449 258.141 156.425C258.18 156.402 258.223 156.386 258.266 156.38C258.31 156.374 258.355 156.377 258.398 156.389C258.441 156.402 258.481 156.423 258.516 156.451C258.551 156.48 258.58 156.516 258.603 156.557L259.953 159.04C260.015 159.155 260.045 159.286 260.041 159.419C260.037 159.551 259.998 159.68 259.929 159.79C259.861 159.901 259.765 159.989 259.653 160.046C259.54 160.102 259.415 160.124 259.292 160.109L258.554 160.009L258.27 160.732C258.221 160.856 258.141 160.962 258.038 161.039C257.936 161.116 257.814 161.161 257.689 161.169H257.649Z" fill="#111827"/>
<path d="M252.787 161.17H252.748C252.611 161.161 252.478 161.114 252.365 161.032C252.253 160.95 252.165 160.836 252.112 160.704L251.791 159.927L250.993 160.034C250.857 160.053 250.72 160.031 250.596 159.972C250.472 159.914 250.367 159.82 250.292 159.702C250.221 159.582 250.184 159.444 250.184 159.304C250.184 159.163 250.221 159.024 250.292 158.904L251.772 156.251C251.821 156.163 251.901 156.098 251.996 156.072C252.091 156.045 252.192 156.059 252.277 156.11C252.362 156.161 252.424 156.245 252.449 156.343C252.475 156.441 252.461 156.546 252.412 156.634L250.933 159.283L251.737 159.176C251.893 159.154 252.053 159.187 252.189 159.268C252.327 159.349 252.435 159.475 252.497 159.625L252.817 160.403L254.02 158.199C254.069 158.11 254.15 158.046 254.245 158.02C254.339 157.994 254.441 158.007 254.526 158.058C254.611 158.109 254.673 158.193 254.698 158.291C254.724 158.389 254.711 158.494 254.661 158.582L253.418 160.786C253.356 160.903 253.264 161 253.153 161.067C253.042 161.135 252.916 161.17 252.787 161.17Z" fill="#111827"/>
<path d="M255.273 159.253C254.936 159.253 254.613 159.12 254.373 158.883L253.929 158.436C253.882 158.388 253.826 158.35 253.765 158.324C253.703 158.298 253.637 158.284 253.57 158.284H253.065C252.729 158.283 252.407 158.148 252.17 157.91C251.932 157.671 251.798 157.348 251.797 157.011V156.504C251.798 156.432 251.784 156.361 251.756 156.296C251.729 156.23 251.687 156.171 251.635 156.123L251.185 155.676C250.949 155.436 250.816 155.112 250.816 154.774C250.815 154.608 250.847 154.442 250.909 154.288C250.972 154.134 251.064 153.994 251.18 153.876L251.635 153.424C251.682 153.377 251.719 153.321 251.744 153.259C251.769 153.197 251.782 153.131 251.782 153.064V152.557C251.779 152.388 251.81 152.221 251.873 152.065C251.936 151.909 252.028 151.767 252.146 151.647C252.263 151.527 252.403 151.431 252.557 151.365C252.711 151.299 252.877 151.265 253.045 151.263H253.55C253.616 151.264 253.682 151.251 253.744 151.226C253.805 151.201 253.861 151.163 253.909 151.116L254.373 150.675C254.616 150.44 254.941 150.309 255.278 150.309C255.615 150.309 255.939 150.44 256.182 150.675L256.627 151.121C256.674 151.169 256.73 151.205 256.792 151.231C256.853 151.256 256.919 151.268 256.986 151.268H257.491C257.828 151.27 258.15 151.405 258.388 151.645C258.626 151.884 258.759 152.209 258.759 152.547V153.054C258.759 153.121 258.771 153.187 258.796 153.249C258.821 153.31 258.858 153.367 258.906 153.414L259.355 153.865C259.59 154.106 259.722 154.429 259.722 154.766C259.722 155.103 259.59 155.426 259.355 155.666L258.906 156.113C258.858 156.161 258.821 156.218 258.795 156.28C258.77 156.343 258.758 156.411 258.759 156.478V156.986C258.762 157.153 258.731 157.321 258.669 157.477C258.607 157.634 258.515 157.776 258.399 157.897C258.282 158.017 258.142 158.114 257.988 158.18C257.834 158.247 257.668 158.282 257.501 158.284H256.996C256.929 158.284 256.863 158.298 256.801 158.324C256.739 158.35 256.684 158.388 256.637 158.436L256.192 158.883C256.071 159.002 255.927 159.097 255.77 159.161C255.612 159.224 255.443 159.256 255.273 159.253ZM253.045 152.024C252.91 152.024 252.782 152.078 252.687 152.173C252.592 152.268 252.539 152.397 252.539 152.531V153.039C252.54 153.206 252.508 153.37 252.445 153.524C252.381 153.679 252.288 153.819 252.171 153.937L251.726 154.388C251.678 154.435 251.64 154.491 251.614 154.553C251.588 154.615 251.575 154.681 251.574 154.748C251.574 154.816 251.587 154.884 251.613 154.946C251.639 155.009 251.677 155.066 251.726 155.113L252.171 155.56C252.289 155.678 252.382 155.819 252.445 155.974C252.508 156.129 252.541 156.295 252.539 156.463V156.97C252.539 157.105 252.592 157.234 252.687 157.329C252.782 157.424 252.91 157.477 253.045 157.477H253.55C253.716 157.476 253.881 157.509 254.035 157.574C254.188 157.638 254.328 157.733 254.444 157.853L254.889 158.299C254.987 158.392 255.117 158.444 255.253 158.444C255.388 158.444 255.518 158.392 255.617 158.299L256.061 157.853C256.177 157.733 256.316 157.638 256.47 157.574C256.624 157.509 256.789 157.476 256.955 157.477H257.461C257.594 157.477 257.723 157.424 257.818 157.329C257.912 157.234 257.966 157.105 257.966 156.97V156.463C257.965 156.295 257.996 156.129 258.06 155.974C258.123 155.819 258.217 155.678 258.335 155.56L258.784 155.113C258.832 155.066 258.87 155.01 258.897 154.947C258.923 154.885 258.936 154.818 258.936 154.751C258.936 154.683 258.923 154.616 258.897 154.554C258.87 154.491 258.832 154.436 258.784 154.388L258.335 153.937C258.217 153.819 258.124 153.679 258.061 153.524C257.998 153.37 257.965 153.206 257.966 153.039V152.531C257.966 152.397 257.912 152.268 257.818 152.173C257.723 152.078 257.594 152.024 257.461 152.024H256.955C256.79 152.025 256.625 151.992 256.472 151.929C256.318 151.865 256.179 151.772 256.061 151.654L255.617 151.208C255.569 151.158 255.513 151.119 255.45 151.093C255.388 151.066 255.321 151.052 255.253 151.052C255.185 151.052 255.117 151.066 255.055 151.093C254.993 151.119 254.936 151.158 254.889 151.208L254.444 151.654C254.327 151.772 254.187 151.865 254.034 151.929C253.881 151.992 253.716 152.025 253.55 152.024H253.045Z" fill="#111827"/>
<path d="M254.862 156.058C254.764 156.057 254.669 156.015 254.598 155.941L253.787 155.059C253.718 154.984 253.68 154.884 253.68 154.779C253.68 154.674 253.718 154.573 253.787 154.499C253.857 154.426 253.951 154.384 254.048 154.384C254.146 154.384 254.239 154.426 254.31 154.499L254.862 155.101L256.23 153.616C256.301 153.543 256.394 153.502 256.492 153.502C256.589 153.502 256.683 153.543 256.753 153.616C256.822 153.691 256.86 153.791 256.86 153.896C256.86 154.001 256.822 154.102 256.753 154.176L255.121 155.941C255.052 156.015 254.959 156.057 254.862 156.058Z" fill="#111827"/>
</g>
</g>
<g filter="url(#filter7_ddi_5204_66488)">
<path d="M470.434 156.012H339.78C335.826 156.012 332.621 159.209 332.621 163.153V238.134C332.621 242.078 335.826 245.276 339.78 245.276H470.434C474.387 245.276 477.593 242.078 477.593 238.134V163.153C477.593 159.209 474.387 156.012 470.434 156.012Z" fill="black" fill-opacity="0.01"/>
<path d="M470.432 156.311H339.779C335.99 156.311 332.918 159.375 332.918 163.154V238.136C332.918 241.915 335.99 244.979 339.779 244.979H470.432C474.221 244.979 477.293 241.915 477.293 238.136V163.154C477.293 159.375 474.221 156.311 470.432 156.311Z" stroke="url(#paint15_linear_5204_66488)"/>
<path d="M470.432 156.311H339.779C335.99 156.311 332.918 159.375 332.918 163.154V238.136C332.918 241.915 335.99 244.979 339.779 244.979H470.432C474.221 244.979 477.293 241.915 477.293 238.136V163.154C477.293 159.375 474.221 156.311 470.432 156.311Z" stroke="white" stroke-opacity="0.4"/>
<g opacity="0.8">
<path d="M412.566 165.533H344.554C343.236 165.533 342.168 166.599 342.168 167.914V172.674C342.168 173.989 343.236 175.055 344.554 175.055H412.566C413.884 175.055 414.952 173.989 414.952 172.674V167.914C414.952 166.599 413.884 165.533 412.566 165.533Z" fill="white"/>
<path d="M386.316 179.814H345.748C343.771 179.814 342.168 181.413 342.168 183.385V188.146C342.168 190.118 343.771 191.716 345.748 191.716H386.316C388.293 191.716 389.895 190.118 389.895 188.146V183.385C389.895 181.413 388.293 179.814 386.316 179.814Z" fill="white"/>
</g>
<path d="M364.242 198.859H344.554C343.236 198.859 342.168 199.925 342.168 201.24V206C342.168 207.315 343.236 208.381 344.554 208.381H364.242C365.56 208.381 366.628 207.315 366.628 206V201.24C366.628 199.925 365.56 198.859 364.242 198.859Z" fill="white"/>
<g filter="url(#filter8_d_5204_66488)">
</g>
</g>
<g filter="url(#filter9_ddi_5204_66488)">
<path d="M421.812 19.1406H291.159C287.205 19.1406 284 22.3378 284 26.2817V101.263C284 105.207 287.205 108.404 291.159 108.404H421.812C425.766 108.404 428.972 105.207 428.972 101.263V26.2817C428.972 22.3378 425.766 19.1406 421.812 19.1406Z" fill="black" fill-opacity="0.01"/>
<path d="M421.811 19.4395H291.158C287.369 19.4395 284.297 22.5034 284.297 26.283V101.265C284.297 105.044 287.369 108.108 291.158 108.108H421.811C425.6 108.108 428.672 105.044 428.672 101.265V26.283C428.672 22.5034 425.6 19.4395 421.811 19.4395Z" stroke="url(#paint16_linear_5204_66488)"/>
<path d="M421.811 19.4395H291.158C287.369 19.4395 284.297 22.5034 284.297 26.283V101.265C284.297 105.044 287.369 108.108 291.158 108.108H421.811C425.6 108.108 428.672 105.044 428.672 101.265V26.283C428.672 22.5034 425.6 19.4395 421.811 19.4395Z" stroke="white" stroke-opacity="0.4"/>
<g opacity="0.8">
<path d="M363.945 28.6621H295.933C294.615 28.6621 293.547 29.7278 293.547 31.0425V35.8032C293.547 37.1179 294.615 38.1836 295.933 38.1836H363.945C365.263 38.1836 366.331 37.1179 366.331 35.8032V31.0425C366.331 29.7278 365.263 28.6621 363.945 28.6621Z" fill="white"/>
<path d="M337.695 42.9434H297.126C295.149 42.9434 293.547 44.5419 293.547 46.5139V51.2746C293.547 53.2466 295.149 54.8452 297.126 54.8452H337.695C339.672 54.8452 341.274 53.2466 341.274 51.2746V46.5139C341.274 44.5419 339.672 42.9434 337.695 42.9434Z" fill="white"/>
</g>
<g opacity="0.8">
<path d="M315.621 61.9883H295.933C294.615 61.9883 293.547 63.054 293.547 64.3686V69.1294C293.547 70.444 294.615 71.5098 295.933 71.5098H315.621C316.939 71.5098 318.007 70.444 318.007 69.1294V64.3686C318.007 63.054 316.939 61.9883 315.621 61.9883Z" fill="white"/>
<path d="M366.332 61.9883H325.168C323.85 61.9883 322.781 63.054 322.781 64.3686V69.1294C322.781 70.444 323.85 71.5098 325.168 71.5098H366.332C367.65 71.5098 368.719 70.444 368.719 69.1294V64.3686C368.719 63.054 367.65 61.9883 366.332 61.9883Z" fill="white"/>
<path d="M337.098 76.2695H295.933C294.615 76.2695 293.547 77.3353 293.547 78.6499V83.4106C293.547 84.7253 294.615 85.791 295.933 85.791H337.098C338.416 85.791 339.484 84.7253 339.484 83.4106V78.6499C339.484 77.3353 338.416 76.2695 337.098 76.2695Z" fill="white"/>
</g>
<g filter="url(#filter10_ddi_5204_66488)">
<path d="M340.078 19.1416C340.078 11.2537 346.488 4.85938 354.396 4.85938C362.304 4.85938 368.714 11.2537 368.714 19.1416C368.714 27.0294 362.304 33.4238 354.396 33.4238C346.488 33.4238 340.078 27.0294 340.078 19.1416Z" fill="#FAFAFA" fill-opacity="0.06"/>
<mask id="mask2_5204_66488" style="mask-type:luminance" maskUnits="userSpaceOnUse" x="340" y="4" width="29" height="30">
<path d="M340.078 19.1416C340.078 11.2537 346.488 4.85938 354.396 4.85938C362.304 4.85938 368.714 11.2537 368.714 19.1416C368.714 27.0294 362.304 33.4238 354.396 33.4238C346.488 33.4238 340.078 27.0294 340.078 19.1416Z" fill="white"/>
</mask>
<g mask="url(#mask2_5204_66488)">
<path d="M354.395 33.4232V32.8281C346.817 32.8281 340.674 26.7001 340.674 19.141H340.077H339.48C339.48 27.3575 346.158 34.0183 354.395 34.0183V33.4232ZM368.713 19.141H368.117C368.117 26.7001 361.974 32.8281 354.395 32.8281V33.4232V34.0183C362.632 34.0183 369.31 27.3575 369.31 19.141H368.713ZM354.395 4.85876V5.45386C361.974 5.45386 368.117 11.5818 368.117 19.141H368.713H369.31C369.31 10.9245 362.632 4.26367 354.395 4.26367V4.85876ZM354.395 4.85876V4.26367C346.158 4.26367 339.48 10.9245 339.48 19.141H340.077H340.674C340.674 11.5818 346.817 5.45386 354.395 5.45386V4.85876Z" fill="url(#paint17_linear_5204_66488)"/>
</g>
</g>
</g>
<g filter="url(#filter11_ddi_5204_66488)">
<path d="M64.8125 19.1406H-65.8409C-69.7948 19.1406 -73 22.3378 -73 26.2817V101.263C-73 105.207 -69.7948 108.404 -65.8409 108.404H64.8125C68.7663 108.404 71.9716 105.207 71.9716 101.263V26.2817C71.9716 22.3378 68.7663 19.1406 64.8125 19.1406Z" fill="black" fill-opacity="0.01"/>
<path d="M64.8111 19.4395H-65.8423C-69.6314 19.4395 -72.7031 22.5034 -72.7031 26.283V101.265C-72.7031 105.044 -69.6314 108.108 -65.8423 108.108H64.8111C68.6002 108.108 71.6719 105.044 71.6719 101.265V26.283C71.6719 22.5034 68.6002 19.4395 64.8111 19.4395Z" stroke="url(#paint18_linear_5204_66488)"/>
<path d="M64.8111 19.4395H-65.8423C-69.6314 19.4395 -72.7031 22.5034 -72.7031 26.283V101.265C-72.7031 105.044 -69.6314 108.108 -65.8423 108.108H64.8111C68.6002 108.108 71.6719 105.044 71.6719 101.265V26.283C71.6719 22.5034 68.6002 19.4395 64.8111 19.4395Z" stroke="white" stroke-opacity="0.4"/>
<g opacity="0.8">
<path d="M43.3345 28.6621H36.1754C34.8575 28.6621 33.7891 29.7278 33.7891 31.0425V38.1836C33.7891 39.4982 34.8575 40.5639 36.1754 40.5639H43.3345C44.6525 40.5639 45.7209 39.4982 45.7209 38.1836V31.0425C45.7209 29.7278 44.6525 28.6621 43.3345 28.6621Z" fill="white"/>
<path d="M60.0415 28.6621H52.8825C51.5645 28.6621 50.4961 29.7278 50.4961 31.0425V38.1836C50.4961 39.4982 51.5645 40.5639 52.8825 40.5639H60.0415C61.3595 40.5639 62.4279 39.4982 62.4279 38.1836V31.0425C62.4279 29.7278 61.3595 28.6621 60.0415 28.6621Z" fill="white"/>
<path d="M58.8469 42.9434H18.2788C16.3018 42.9434 14.6992 44.5419 14.6992 46.5139V51.2746C14.6992 53.2466 16.3018 54.8452 18.2788 54.8452H58.8469C60.8239 54.8452 62.4265 53.2466 62.4265 51.2746V46.5139C62.4265 44.5419 60.8239 42.9434 58.8469 42.9434Z" fill="white"/>
</g>
<g opacity="0.8">
<path d="M61.2326 61.9883H18.8746C17.5567 61.9883 16.4883 63.054 16.4883 64.3686V69.1294C16.4883 70.444 17.5567 71.5098 18.8746 71.5098H61.2326C62.5506 71.5098 63.619 70.444 63.619 69.1294V64.3686C63.619 63.054 62.5506 61.9883 61.2326 61.9883Z" fill="white"/>
<path d="M61.2326 76.2695H18.8746C17.5567 76.2695 16.4883 77.3353 16.4883 78.6499V83.4106C16.4883 84.7253 17.5567 85.791 18.8746 85.791H61.2326C62.5506 85.791 63.619 84.7253 63.619 83.4106V78.6499C63.619 77.3353 62.5506 76.2695 61.2326 76.2695Z" fill="white"/>
</g>
<g filter="url(#filter12_d_5204_66488)">
<path d="M-16.9219 19.1416C-16.9219 11.2537 -10.5114 4.85938 -2.60369 4.85938C5.304 4.85938 11.7145 11.2537 11.7145 19.1416C11.7145 27.0294 5.304 33.4238 -2.60369 33.4238C-10.5114 33.4238 -16.9219 27.0294 -16.9219 19.1416Z" fill="#FAFAFA" fill-opacity="0.06"/>
<mask id="mask3_5204_66488" style="mask-type:luminance" maskUnits="userSpaceOnUse" x="-17" y="4" width="29" height="30">
<path d="M-16.9219 19.1416C-16.9219 11.2537 -10.5114 4.85938 -2.60369 4.85938C5.304 4.85938 11.7145 11.2537 11.7145 19.1416C11.7145 27.0294 5.304 33.4238 -2.60369 33.4238C-10.5114 33.4238 -16.9219 27.0294 -16.9219 19.1416Z" fill="white"/>
</mask>
<g mask="url(#mask3_5204_66488)">
<path d="M-2.60476 33.4232V32.8281C-10.183 32.8281 -16.3263 26.7001 -16.3263 19.141H-16.9229H-17.5195C-17.5195 27.3575 -10.8419 34.0183 -2.60476 34.0183V33.4232ZM11.7134 19.141H11.1168C11.1168 26.7001 4.97344 32.8281 -2.60476 32.8281V33.4232V34.0183C5.63243 34.0183 12.31 27.3575 12.31 19.141H11.7134ZM-2.60476 4.85876V5.45386C4.97344 5.45386 11.1168 11.5818 11.1168 19.141H11.7134H12.31C12.31 10.9245 5.63243 4.26367 -2.60476 4.26367V4.85876ZM-2.60476 4.85876V4.26367C-10.8419 4.26367 -17.5195 10.9245 -17.5195 19.141H-16.9229H-16.3263C-16.3263 11.5818 -10.183 5.45386 -2.60476 5.45386V4.85876Z" fill="url(#paint19_linear_5204_66488)"/>
</g>
</g>
</g>
<g filter="url(#filter13_ii_5204_66488)">
<path d="M155.137 88.1709C155.137 75.0247 165.821 64.3672 179 64.3672C192.18 64.3672 202.864 75.0247 202.864 88.1709C202.864 101.317 192.18 111.975 179 111.975C165.821 111.975 155.137 101.317 155.137 88.1709Z" fill="#F6F9FD" fill-opacity="0.2"/>
<mask id="mask4_5204_66488" style="mask-type:luminance" maskUnits="userSpaceOnUse" x="155" y="64" width="48" height="48">
<path d="M155.137 88.1709C155.137 75.0247 165.821 64.3672 179 64.3672C192.18 64.3672 202.864 75.0247 202.864 88.1709C202.864 101.317 192.18 111.975 179 111.975C165.821 111.975 155.137 101.317 155.137 88.1709Z" fill="white"/>
</mask>
<g mask="url(#mask4_5204_66488)">
<path d="M178.106 111.975C164.927 111.975 154.242 101.317 154.242 88.1709C154.242 75.0247 164.927 64.3672 178.106 64.3672H179.001C166.315 64.3672 156.032 75.0247 156.032 88.1709C156.032 101.317 166.315 111.975 179.001 111.975H178.106ZM179.896 64.3672C193.075 64.3672 203.759 75.0247 203.759 88.1709C203.759 101.317 193.075 111.975 179.896 111.975H179.001C191.686 111.975 201.969 101.317 201.969 88.1709C201.969 75.0247 191.686 64.3672 179.001 64.3672H179.896Z" fill="#266AE9" fill-opacity="0.2"/>
</g>
<path d="M178.479 76.9835C178.321 76.8258 178.064 76.8258 177.906 76.9835C177.748 77.1412 177.748 77.3965 177.906 77.5542L178.066 77.7137C173.252 78.1368 169.368 81.793 168.611 86.4925C168.575 86.7127 168.725 86.9198 168.946 86.9555C169.167 86.9906 169.374 86.8412 169.41 86.6204C170.1 82.3381 173.605 78.9937 177.971 78.5343L177.906 78.5986C177.748 78.7563 177.748 79.0122 177.906 79.1699C178.064 79.3276 178.321 79.3276 178.479 79.1699L179.289 78.3623C179.447 78.2046 179.447 77.9487 179.289 77.7911L178.479 76.9835Z" fill="#266AE9"/>
<path d="M180.684 77.8041C180.464 77.7684 180.255 77.9183 180.22 78.1385C180.184 78.3587 180.335 78.5658 180.555 78.6015C184.849 79.29 188.201 82.7856 188.662 87.1405L188.598 87.0762C188.44 86.9185 188.183 86.9185 188.025 87.0762C187.867 87.2339 187.867 87.4898 188.025 87.6475L188.835 88.455C188.993 88.6127 189.25 88.6127 189.408 88.455L190.217 87.6475C190.375 87.4898 190.375 87.2339 190.217 87.0762C190.059 86.9185 189.803 86.9185 189.644 87.0762L189.485 87.2357C189.06 82.4333 185.395 78.5599 180.684 77.8041Z" fill="#266AE9"/>
<path d="M169.165 87.8859C169.007 87.7282 168.75 87.7282 168.592 87.8859L167.783 88.6934C167.625 88.8511 167.625 89.107 167.783 89.2647C167.941 89.4224 168.197 89.4224 168.355 89.2647L168.515 89.1052C168.939 93.9076 172.604 97.781 177.316 98.5368C177.536 98.5725 177.744 98.4225 177.78 98.2024C177.815 97.9822 177.665 97.7751 177.444 97.7394C173.151 97.0509 169.798 93.5553 169.337 89.2004L169.402 89.2647C169.56 89.4224 169.816 89.4224 169.974 89.2647C170.133 89.107 170.133 88.8511 169.974 88.6934L169.165 87.8859Z" fill="#266AE9"/>
<path d="M189.449 89.4307C189.476 89.2093 189.317 89.0081 189.095 88.9814C188.873 88.9552 188.672 89.1129 188.645 89.3348C188.11 93.8016 184.527 97.3353 180.03 97.8084L180.095 97.7441C180.253 97.5864 180.253 97.3311 180.095 97.1734C179.937 97.0157 179.68 97.0157 179.522 97.1734L178.712 97.9809C178.554 98.1386 178.554 98.3939 178.712 98.5516L179.522 99.3598C179.68 99.5175 179.937 99.5175 180.095 99.3598C180.253 99.2021 180.253 98.9462 180.095 98.7885L179.935 98.629C184.892 98.1934 188.862 94.3306 189.449 89.4307Z" fill="#266AE9"/>
<path d="M177.891 83.0915C178.173 81.9304 179.829 81.9304 180.111 83.0915C180.154 83.2658 180.237 83.4283 180.354 83.5646C180.471 83.7008 180.619 83.808 180.785 83.8764C180.951 83.9448 181.132 83.9734 181.311 83.9597C181.49 83.946 181.664 83.8901 181.817 83.7967C182.84 83.1748 184.011 84.343 183.389 85.3635C183.295 85.5171 183.239 85.6896 183.225 85.8688C183.211 86.0473 183.24 86.227 183.309 86.393C183.377 86.5585 183.485 86.7055 183.621 86.8221C183.757 86.9393 183.919 87.0221 184.094 87.0643C185.258 87.3458 185.258 88.9978 184.094 89.2792C183.919 89.3215 183.757 89.4048 183.621 89.5214C183.484 89.6381 183.377 89.7851 183.308 89.9511C183.239 90.1171 183.21 90.2968 183.224 90.4754C183.238 90.6545 183.294 90.8277 183.388 90.9806C184.011 92.0012 182.84 93.1694 181.817 92.5481C181.663 92.4547 181.49 92.3987 181.311 92.385C181.131 92.3713 180.951 92.3999 180.785 92.4683C180.619 92.5368 180.471 92.6439 180.354 92.7802C180.237 92.9158 180.154 93.0777 180.111 93.2521C179.829 94.4131 178.173 94.4131 177.891 93.2521C177.849 93.0777 177.766 92.9158 177.649 92.7796C177.532 92.6433 177.384 92.5362 177.218 92.4677C177.052 92.3987 176.871 92.3701 176.692 92.3838C176.513 92.3981 176.339 92.4541 176.185 92.5475C175.163 93.1688 173.991 92.0012 174.614 90.98C174.708 90.8271 174.764 90.6539 174.778 90.4754C174.792 90.2963 174.763 90.1165 174.694 89.9511C174.625 89.7851 174.518 89.6381 174.382 89.5214C174.245 89.4048 174.083 89.3221 173.908 89.2792C172.744 88.9978 172.744 87.3458 173.908 87.0643C174.083 87.0221 174.246 86.9393 174.382 86.8227C174.519 86.7061 174.626 86.5585 174.695 86.393C174.764 86.227 174.792 86.0473 174.779 85.8682C174.765 85.6896 174.709 85.5165 174.615 85.3629C173.992 84.343 175.163 83.1742 176.186 83.7961C176.849 84.1978 177.708 83.8425 177.891 83.0915Z" stroke="#266AE9" stroke-linecap="round" stroke-linejoin="round"/>
<path d="M177.012 88.1709C177.012 88.697 177.221 89.2016 177.594 89.5736C177.967 89.9455 178.473 90.155 179 90.155C179.528 90.155 180.033 89.9455 180.406 89.5736C180.779 89.2016 180.989 88.697 180.989 88.1709C180.989 87.6449 180.779 87.1402 180.406 86.7683C180.033 86.3964 179.528 86.1875 179 86.1875C178.473 86.1875 177.967 86.3964 177.594 86.7683C177.221 87.1402 177.012 87.6449 177.012 88.1709Z" stroke="#266AE9" stroke-linecap="round" stroke-linejoin="round"/>
</g>
</g>
<rect width="358" height="230" fill="url(#paint20_linear_5204_66488)"/>
<rect width="358" height="230" fill="url(#paint21_linear_5204_66488)"/>
<rect y="150" width="358" height="80" fill="url(#paint22_linear_5204_66488)"/>
<rect width="358" height="21" transform="matrix(1 0 0 -1 0 21)" fill="url(#paint23_linear_5204_66488)"/>
</g>
<defs>
<filter id="filter0_f_5204_66488" x="59.8398" y="-111.828" width="557.766" height="493.754" filterUnits="userSpaceOnUse" color-interpolation-filters="sRGB">
<feFlood flood-opacity="0" result="BackgroundImageFix"/>
<feBlend mode="normal" in="SourceGraphic" in2="BackgroundImageFix" result="shape"/>
<feGaussianBlur stdDeviation="100" result="effect1_foregroundBlur_5204_66488"/>
</filter>
<filter id="filter1_f_5204_66488" x="-264.109" y="-130.871" width="557.766" height="493.754" filterUnits="userSpaceOnUse" color-interpolation-filters="sRGB">
<feFlood flood-opacity="0" result="BackgroundImageFix"/>
<feBlend mode="normal" in="SourceGraphic" in2="BackgroundImageFix" result="shape"/>
<feGaussianBlur stdDeviation="100" result="effect1_foregroundBlur_5204_66488"/>
</filter>
<filter id="filter2_ddi_5204_66488" x="-8.61328" y="119.73" width="209.375" height="167.748" filterUnits="userSpaceOnUse" color-interpolation-filters="sRGB">
<feFlood flood-opacity="0" result="BackgroundImageFix"/>
<feColorMatrix in="SourceAlpha" type="matrix" values="0 0 0 0 0 0 0 0 0 0 0 0 0 0 0 0 0 0 127 0" result="hardAlpha"/>
<feOffset dy="4"/>
<feGaussianBlur stdDeviation="8"/>
<feComposite in2="hardAlpha" operator="out"/>
<feColorMatrix type="matrix" values="0 0 0 0 0.0588235 0 0 0 0 0.141176 0 0 0 0 0.0666667 0 0 0 0.02 0"/>
<feBlend mode="normal" in2="BackgroundImageFix" result="effect1_dropShadow_5204_66488"/>
<feColorMatrix in="SourceAlpha" type="matrix" values="0 0 0 0 0 0 0 0 0 0 0 0 0 0 0 0 0 0 127 0" result="hardAlpha"/>
<feOffset dy="10"/>
<feGaussianBlur stdDeviation="16"/>
<feComposite in2="hardAlpha" operator="out"/>
<feColorMatrix type="matrix" values="0 0 0 0 0.0627451 0 0 0 0 0.0588235 0 0 0 0 0.141176 0 0 0 0.05 0"/>
<feBlend mode="normal" in2="effect1_dropShadow_5204_66488" result="effect2_dropShadow_5204_66488"/>
<feBlend mode="normal" in="SourceGraphic" in2="effect2_dropShadow_5204_66488" result="shape"/>
<feColorMatrix in="SourceAlpha" type="matrix" values="0 0 0 0 0 0 0 0 0 0 0 0 0 0 0 0 0 0 127 0" result="hardAlpha"/>
<feOffset dx="6" dy="4"/>
<feGaussianBlur stdDeviation="16"/>
<feComposite in2="hardAlpha" operator="arithmetic" k2="-1" k3="1"/>
<feColorMatrix type="matrix" values="0 0 0 0 0.0213804 0 0 0 0 0.0312616 0 0 0 0 0.219004 0 0 0 0.02 0"/>
<feBlend mode="normal" in2="shape" result="effect3_innerShadow_5204_66488"/>
</filter>
<filter id="filter3_ddi_5204_66488" x="55" y="119.73" width="92.6367" height="92.5645" filterUnits="userSpaceOnUse" color-interpolation-filters="sRGB">
<feFlood flood-opacity="0" result="BackgroundImageFix"/>
<feColorMatrix in="SourceAlpha" type="matrix" values="0 0 0 0 0 0 0 0 0 0 0 0 0 0 0 0 0 0 127 0" result="hardAlpha"/>
<feOffset dy="4"/>
<feGaussianBlur stdDeviation="8"/>
<feComposite in2="hardAlpha" operator="out"/>
<feColorMatrix type="matrix" values="0 0 0 0 0.0588235 0 0 0 0 0.141176 0 0 0 0 0.0666667 0 0 0 0.02 0"/>
<feBlend mode="normal" in2="BackgroundImageFix" result="effect1_dropShadow_5204_66488"/>
<feColorMatrix in="SourceAlpha" type="matrix" values="0 0 0 0 0 0 0 0 0 0 0 0 0 0 0 0 0 0 127 0" result="hardAlpha"/>
<feOffset dy="10"/>
<feGaussianBlur stdDeviation="16"/>
<feComposite in2="hardAlpha" operator="out"/>
<feColorMatrix type="matrix" values="0 0 0 0 0.0627451 0 0 0 0 0.0588235 0 0 0 0 0.141176 0 0 0 0.05 0"/>
<feBlend mode="normal" in2="effect1_dropShadow_5204_66488" result="effect2_dropShadow_5204_66488"/>
<feBlend mode="normal" in="SourceGraphic" in2="effect2_dropShadow_5204_66488" result="shape"/>
<feColorMatrix in="SourceAlpha" type="matrix" values="0 0 0 0 0 0 0 0 0 0 0 0 0 0 0 0 0 0 127 0" result="hardAlpha"/>
<feOffset dx="6" dy="4"/>
<feGaussianBlur stdDeviation="8"/>
<feComposite in2="hardAlpha" operator="arithmetic" k2="-1" k3="1"/>
<feColorMatrix type="matrix" values="0 0 0 0 0.0213804 0 0 0 0 0.0312616 0 0 0 0 0.219004 0 0 0 0.06 0"/>
<feBlend mode="normal" in2="shape" result="effect3_innerShadow_5204_66488"/>
</filter>
<filter id="filter4_ddi_5204_66488" x="-163.133" y="119.73" width="209.375" height="167.748" filterUnits="userSpaceOnUse" color-interpolation-filters="sRGB">
<feFlood flood-opacity="0" result="BackgroundImageFix"/>
<feColorMatrix in="SourceAlpha" type="matrix" values="0 0 0 0 0 0 0 0 0 0 0 0 0 0 0 0 0 0 127 0" result="hardAlpha"/>
<feOffset dy="4"/>
<feGaussianBlur stdDeviation="8"/>
<feComposite in2="hardAlpha" operator="out"/>
<feColorMatrix type="matrix" values="0 0 0 0 0.0588235 0 0 0 0 0.141176 0 0 0 0 0.0666667 0 0 0 0.02 0"/>
<feBlend mode="normal" in2="BackgroundImageFix" result="effect1_dropShadow_5204_66488"/>
<feColorMatrix in="SourceAlpha" type="matrix" values="0 0 0 0 0 0 0 0 0 0 0 0 0 0 0 0 0 0 127 0" result="hardAlpha"/>
<feOffset dy="10"/>
<feGaussianBlur stdDeviation="16"/>
<feComposite in2="hardAlpha" operator="out"/>
<feColorMatrix type="matrix" values="0 0 0 0 0.0627451 0 0 0 0 0.0588235 0 0 0 0 0.141176 0 0 0 0.05 0"/>
<feBlend mode="normal" in2="effect1_dropShadow_5204_66488" result="effect2_dropShadow_5204_66488"/>
<feBlend mode="normal" in="SourceGraphic" in2="effect2_dropShadow_5204_66488" result="shape"/>
<feColorMatrix in="SourceAlpha" type="matrix" values="0 0 0 0 0 0 0 0 0 0 0 0 0 0 0 0 0 0 127 0" result="hardAlpha"/>
<feOffset dx="6" dy="4"/>
<feGaussianBlur stdDeviation="16"/>
<feComposite in2="hardAlpha" operator="arithmetic" k2="-1" k3="1"/>
<feColorMatrix type="matrix" values="0 0 0 0 0.0213804 0 0 0 0 0.0312616 0 0 0 0 0.219004 0 0 0 0.02 0"/>
<feBlend mode="normal" in2="shape" result="effect3_innerShadow_5204_66488"/>
</filter>
<filter id="filter5_ddi_5204_66488" x="145.902" y="119.73" width="209.375" height="167.748" filterUnits="userSpaceOnUse" color-interpolation-filters="sRGB">
<feFlood flood-opacity="0" result="BackgroundImageFix"/>
<feColorMatrix in="SourceAlpha" type="matrix" values="0 0 0 0 0 0 0 0 0 0 0 0 0 0 0 0 0 0 127 0" result="hardAlpha"/>
<feOffset dy="4"/>
<feGaussianBlur stdDeviation="8"/>
<feComposite in2="hardAlpha" operator="out"/>
<feColorMatrix type="matrix" values="0 0 0 0 0.0588235 0 0 0 0 0.141176 0 0 0 0 0.0666667 0 0 0 0.02 0"/>
<feBlend mode="normal" in2="BackgroundImageFix" result="effect1_dropShadow_5204_66488"/>
<feColorMatrix in="SourceAlpha" type="matrix" values="0 0 0 0 0 0 0 0 0 0 0 0 0 0 0 0 0 0 127 0" result="hardAlpha"/>
<feOffset dy="10"/>
<feGaussianBlur stdDeviation="16"/>
<feComposite in2="hardAlpha" operator="out"/>
<feColorMatrix type="matrix" values="0 0 0 0 0.0627451 0 0 0 0 0.0588235 0 0 0 0 0.141176 0 0 0 0.05 0"/>
<feBlend mode="normal" in2="effect1_dropShadow_5204_66488" result="effect2_dropShadow_5204_66488"/>
<feBlend mode="normal" in="SourceGraphic" in2="effect2_dropShadow_5204_66488" result="shape"/>
<feColorMatrix in="SourceAlpha" type="matrix" values="0 0 0 0 0 0 0 0 0 0 0 0 0 0 0 0 0 0 127 0" result="hardAlpha"/>
<feOffset dx="6" dy="4"/>
<feGaussianBlur stdDeviation="16"/>
<feComposite in2="hardAlpha" operator="arithmetic" k2="-1" k3="1"/>
<feColorMatrix type="matrix" values="0 0 0 0 0.0213804 0 0 0 0 0.0312616 0 0 0 0 0.219004 0 0 0 0.02 0"/>
<feBlend mode="normal" in2="shape" result="effect3_innerShadow_5204_66488"/>
</filter>
<filter id="filter6_ddi_5204_66488" x="209" y="119.73" width="92.6367" height="92.5645" filterUnits="userSpaceOnUse" color-interpolation-filters="sRGB">
<feFlood flood-opacity="0" result="BackgroundImageFix"/>
<feColorMatrix in="SourceAlpha" type="matrix" values="0 0 0 0 0 0 0 0 0 0 0 0 0 0 0 0 0 0 127 0" result="hardAlpha"/>
<feOffset dy="4"/>
<feGaussianBlur stdDeviation="8"/>
<feComposite in2="hardAlpha" operator="out"/>
<feColorMatrix type="matrix" values="0 0 0 0 0.0588235 0 0 0 0 0.141176 0 0 0 0 0.0666667 0 0 0 0.02 0"/>
<feBlend mode="normal" in2="BackgroundImageFix" result="effect1_dropShadow_5204_66488"/>
<feColorMatrix in="SourceAlpha" type="matrix" values="0 0 0 0 0 0 0 0 0 0 0 0 0 0 0 0 0 0 127 0" result="hardAlpha"/>
<feOffset dy="10"/>
<feGaussianBlur stdDeviation="16"/>
<feComposite in2="hardAlpha" operator="out"/>
<feColorMatrix type="matrix" values="0 0 0 0 0.0627451 0 0 0 0 0.0588235 0 0 0 0 0.141176 0 0 0 0.05 0"/>
<feBlend mode="normal" in2="effect1_dropShadow_5204_66488" result="effect2_dropShadow_5204_66488"/>
<feBlend mode="normal" in="SourceGraphic" in2="effect2_dropShadow_5204_66488" result="shape"/>
<feColorMatrix in="SourceAlpha" type="matrix" values="0 0 0 0 0 0 0 0 0 0 0 0 0 0 0 0 0 0 127 0" result="hardAlpha"/>
<feOffset dx="6" dy="4"/>
<feGaussianBlur stdDeviation="8"/>
<feComposite in2="hardAlpha" operator="arithmetic" k2="-1" k3="1"/>
<feColorMatrix type="matrix" values="0 0 0 0 0.0213804 0 0 0 0 0.0312616 0 0 0 0 0.219004 0 0 0 0.06 0"/>
<feBlend mode="normal" in2="shape" result="effect3_innerShadow_5204_66488"/>
</filter>
<filter id="filter7_ddi_5204_66488" x="300.418" y="119.73" width="209.375" height="167.748" filterUnits="userSpaceOnUse" color-interpolation-filters="sRGB">
<feFlood flood-opacity="0" result="BackgroundImageFix"/>
<feColorMatrix in="SourceAlpha" type="matrix" values="0 0 0 0 0 0 0 0 0 0 0 0 0 0 0 0 0 0 127 0" result="hardAlpha"/>
<feOffset dy="4"/>
<feGaussianBlur stdDeviation="8"/>
<feComposite in2="hardAlpha" operator="out"/>
<feColorMatrix type="matrix" values="0 0 0 0 0.0588235 0 0 0 0 0.141176 0 0 0 0 0.0666667 0 0 0 0.02 0"/>
<feBlend mode="normal" in2="BackgroundImageFix" result="effect1_dropShadow_5204_66488"/>
<feColorMatrix in="SourceAlpha" type="matrix" values="0 0 0 0 0 0 0 0 0 0 0 0 0 0 0 0 0 0 127 0" result="hardAlpha"/>
<feOffset dy="10"/>
<feGaussianBlur stdDeviation="16"/>
<feComposite in2="hardAlpha" operator="out"/>
<feColorMatrix type="matrix" values="0 0 0 0 0.0627451 0 0 0 0 0.0588235 0 0 0 0 0.141176 0 0 0 0.05 0"/>
<feBlend mode="normal" in2="effect1_dropShadow_5204_66488" result="effect2_dropShadow_5204_66488"/>
<feBlend mode="normal" in="SourceGraphic" in2="effect2_dropShadow_5204_66488" result="shape"/>
<feColorMatrix in="SourceAlpha" type="matrix" values="0 0 0 0 0 0 0 0 0 0 0 0 0 0 0 0 0 0 127 0" result="hardAlpha"/>
<feOffset dx="6" dy="4"/>
<feGaussianBlur stdDeviation="16"/>
<feComposite in2="hardAlpha" operator="arithmetic" k2="-1" k3="1"/>
<feColorMatrix type="matrix" values="0 0 0 0 0.0213804 0 0 0 0 0.0312616 0 0 0 0 0.219004 0 0 0 0.02 0"/>
<feBlend mode="normal" in2="shape" result="effect3_innerShadow_5204_66488"/>
</filter>
<filter id="filter8_d_5204_66488" x="356.699" y="119.73" width="92.6367" height="92.5645" filterUnits="userSpaceOnUse" color-interpolation-filters="sRGB">
<feFlood flood-opacity="0" result="BackgroundImageFix"/>
<feColorMatrix in="SourceAlpha" type="matrix" values="0 0 0 0 0 0 0 0 0 0 0 0 0 0 0 0 0 0 127 0" result="hardAlpha"/>
<feOffset dy="10"/>
<feGaussianBlur stdDeviation="16"/>
<feComposite in2="hardAlpha" operator="out"/>
<feColorMatrix type="matrix" values="0 0 0 0 0.0627451 0 0 0 0 0.0588235 0 0 0 0 0.141176 0 0 0 0.05 0"/>
<feBlend mode="normal" in2="BackgroundImageFix" result="effect1_dropShadow_5204_66488"/>
<feBlend mode="normal" in="SourceGraphic" in2="effect1_dropShadow_5204_66488" result="shape"/>
</filter>
<filter id="filter9_ddi_5204_66488" x="251.797" y="-17.1406" width="209.375" height="167.748" filterUnits="userSpaceOnUse" color-interpolation-filters="sRGB">
<feFlood flood-opacity="0" result="BackgroundImageFix"/>
<feColorMatrix in="SourceAlpha" type="matrix" values="0 0 0 0 0 0 0 0 0 0 0 0 0 0 0 0 0 0 127 0" result="hardAlpha"/>
<feOffset dy="4"/>
<feGaussianBlur stdDeviation="8"/>
<feComposite in2="hardAlpha" operator="out"/>
<feColorMatrix type="matrix" values="0 0 0 0 0.0588235 0 0 0 0 0.141176 0 0 0 0 0.0666667 0 0 0 0.02 0"/>
<feBlend mode="normal" in2="BackgroundImageFix" result="effect1_dropShadow_5204_66488"/>
<feColorMatrix in="SourceAlpha" type="matrix" values="0 0 0 0 0 0 0 0 0 0 0 0 0 0 0 0 0 0 127 0" result="hardAlpha"/>
<feOffset dy="10"/>
<feGaussianBlur stdDeviation="16"/>
<feComposite in2="hardAlpha" operator="out"/>
<feColorMatrix type="matrix" values="0 0 0 0 0.0627451 0 0 0 0 0.0588235 0 0 0 0 0.141176 0 0 0 0.05 0"/>
<feBlend mode="normal" in2="effect1_dropShadow_5204_66488" result="effect2_dropShadow_5204_66488"/>
<feBlend mode="normal" in="SourceGraphic" in2="effect2_dropShadow_5204_66488" result="shape"/>
<feColorMatrix in="SourceAlpha" type="matrix" values="0 0 0 0 0 0 0 0 0 0 0 0 0 0 0 0 0 0 127 0" result="hardAlpha"/>
<feOffset dx="6" dy="4"/>
<feGaussianBlur stdDeviation="16"/>
<feComposite in2="hardAlpha" operator="arithmetic" k2="-1" k3="1"/>
<feColorMatrix type="matrix" values="0 0 0 0 0.0213804 0 0 0 0 0.0312616 0 0 0 0 0.219004 0 0 0 0.02 0"/>
<feBlend mode="normal" in2="shape" result="effect3_innerShadow_5204_66488"/>
</filter>
<filter id="filter10_ddi_5204_66488" x="308.078" y="-17.1406" width="92.6367" height="92.5645" filterUnits="userSpaceOnUse" color-interpolation-filters="sRGB">
<feFlood flood-opacity="0" result="BackgroundImageFix"/>
<feColorMatrix in="SourceAlpha" type="matrix" values="0 0 0 0 0 0 0 0 0 0 0 0 0 0 0 0 0 0 127 0" result="hardAlpha"/>
<feOffset dy="4"/>
<feGaussianBlur stdDeviation="8"/>
<feComposite in2="hardAlpha" operator="out"/>
<feColorMatrix type="matrix" values="0 0 0 0 0.0588235 0 0 0 0 0.141176 0 0 0 0 0.0666667 0 0 0 0.02 0"/>
<feBlend mode="normal" in2="BackgroundImageFix" result="effect1_dropShadow_5204_66488"/>
<feColorMatrix in="SourceAlpha" type="matrix" values="0 0 0 0 0 0 0 0 0 0 0 0 0 0 0 0 0 0 127 0" result="hardAlpha"/>
<feOffset dy="10"/>
<feGaussianBlur stdDeviation="16"/>
<feComposite in2="hardAlpha" operator="out"/>
<feColorMatrix type="matrix" values="0 0 0 0 0.0627451 0 0 0 0 0.0588235 0 0 0 0 0.141176 0 0 0 0.05 0"/>
<feBlend mode="normal" in2="effect1_dropShadow_5204_66488" result="effect2_dropShadow_5204_66488"/>
<feBlend mode="normal" in="SourceGraphic" in2="effect2_dropShadow_5204_66488" result="shape"/>
<feColorMatrix in="SourceAlpha" type="matrix" values="0 0 0 0 0 0 0 0 0 0 0 0 0 0 0 0 0 0 127 0" result="hardAlpha"/>
<feOffset dx="6" dy="4"/>
<feGaussianBlur stdDeviation="8"/>
<feComposite in2="hardAlpha" operator="arithmetic" k2="-1" k3="1"/>
<feColorMatrix type="matrix" values="0 0 0 0 0.0213804 0 0 0 0 0.0312616 0 0 0 0 0.219004 0 0 0 0.06 0"/>
<feBlend mode="normal" in2="shape" result="effect3_innerShadow_5204_66488"/>
</filter>
<filter id="filter11_ddi_5204_66488" x="-105.203" y="-17.1406" width="209.375" height="167.748" filterUnits="userSpaceOnUse" color-interpolation-filters="sRGB">
<feFlood flood-opacity="0" result="BackgroundImageFix"/>
<feColorMatrix in="SourceAlpha" type="matrix" values="0 0 0 0 0 0 0 0 0 0 0 0 0 0 0 0 0 0 127 0" result="hardAlpha"/>
<feOffset dy="4"/>
<feGaussianBlur stdDeviation="8"/>
<feComposite in2="hardAlpha" operator="out"/>
<feColorMatrix type="matrix" values="0 0 0 0 0.0588235 0 0 0 0 0.141176 0 0 0 0 0.0666667 0 0 0 0.02 0"/>
<feBlend mode="normal" in2="BackgroundImageFix" result="effect1_dropShadow_5204_66488"/>
<feColorMatrix in="SourceAlpha" type="matrix" values="0 0 0 0 0 0 0 0 0 0 0 0 0 0 0 0 0 0 127 0" result="hardAlpha"/>
<feOffset dy="10"/>
<feGaussianBlur stdDeviation="16"/>
<feComposite in2="hardAlpha" operator="out"/>
<feColorMatrix type="matrix" values="0 0 0 0 0.0627451 0 0 0 0 0.0588235 0 0 0 0 0.141176 0 0 0 0.05 0"/>
<feBlend mode="normal" in2="effect1_dropShadow_5204_66488" result="effect2_dropShadow_5204_66488"/>
<feBlend mode="normal" in="SourceGraphic" in2="effect2_dropShadow_5204_66488" result="shape"/>
<feColorMatrix in="SourceAlpha" type="matrix" values="0 0 0 0 0 0 0 0 0 0 0 0 0 0 0 0 0 0 127 0" result="hardAlpha"/>
<feOffset dx="6" dy="4"/>
<feGaussianBlur stdDeviation="16"/>
<feComposite in2="hardAlpha" operator="arithmetic" k2="-1" k3="1"/>
<feColorMatrix type="matrix" values="0 0 0 0 0.0213804 0 0 0 0 0.0312616 0 0 0 0 0.219004 0 0 0 0.02 0"/>
<feBlend mode="normal" in2="shape" result="effect3_innerShadow_5204_66488"/>
</filter>
<filter id="filter12_d_5204_66488" x="-48.9219" y="-17.1406" width="92.6367" height="92.5645" filterUnits="userSpaceOnUse" color-interpolation-filters="sRGB">
<feFlood flood-opacity="0" result="BackgroundImageFix"/>
<feColorMatrix in="SourceAlpha" type="matrix" values="0 0 0 0 0 0 0 0 0 0 0 0 0 0 0 0 0 0 127 0" result="hardAlpha"/>
<feOffset dy="10"/>
<feGaussianBlur stdDeviation="16"/>
<feComposite in2="hardAlpha" operator="out"/>
<feColorMatrix type="matrix" values="0 0 0 0 0.0627451 0 0 0 0 0.0588235 0 0 0 0 0.141176 0 0 0 0.05 0"/>
<feBlend mode="normal" in2="BackgroundImageFix" result="effect1_dropShadow_5204_66488"/>
<feBlend mode="normal" in="SourceGraphic" in2="effect1_dropShadow_5204_66488" result="shape"/>
</filter>
<filter id="filter13_ii_5204_66488" x="147.137" y="56.3672" width="63.7266" height="63.6074" filterUnits="userSpaceOnUse" color-interpolation-filters="sRGB">
<feFlood flood-opacity="0" result="BackgroundImageFix"/>
<feBlend mode="normal" in="SourceGraphic" in2="BackgroundImageFix" result="shape"/>
<feColorMatrix in="SourceAlpha" type="matrix" values="0 0 0 0 0 0 0 0 0 0 0 0 0 0 0 0 0 0 127 0" result="hardAlpha"/>
<feOffset dy="4"/>
<feGaussianBlur stdDeviation="6"/>
<feComposite in2="hardAlpha" operator="arithmetic" k2="-1" k3="1"/>
<feColorMatrix type="matrix" values="0 0 0 0 0.585337 0 0 0 0 0.717275 0 0 0 0 0.972356 0 0 0 0.16 0"/>
<feBlend mode="normal" in2="shape" result="effect1_innerShadow_5204_66488"/>
<feColorMatrix in="SourceAlpha" type="matrix" values="0 0 0 0 0 0 0 0 0 0 0 0 0 0 0 0 0 0 127 0" result="hardAlpha"/>
<feOffset dx="3" dy="2"/>
<feGaussianBlur stdDeviation="8"/>
<feComposite in2="hardAlpha" operator="arithmetic" k2="-1" k3="1"/>
<feColorMatrix type="matrix" values="0 0 0 0 0.0213804 0 0 0 0 0.0312616 0 0 0 0 0.219004 0 0 0 0.02 0"/>
<feBlend mode="normal" in2="effect1_innerShadow_5204_66488" result="effect2_innerShadow_5204_66488"/>
</filter>
<linearGradient id="paint0_linear_5204_66488" x1="480.013" y1="163.697" x2="488.358" y2="96.5912" gradientUnits="userSpaceOnUse">
<stop stop-color="#C3A7F3"/>
<stop offset="1" stop-color="#5C85D5"/>
</linearGradient>
<linearGradient id="paint1_linear_5204_66488" x1="-126.517" y1="144.654" x2="-134.862" y2="77.5479" gradientUnits="userSpaceOnUse">
<stop stop-color="#5C85D5"/>
<stop offset="1" stop-color="#C3A7F3"/>
</linearGradient>
<linearGradient id="paint2_linear_5204_66488" x1="179.297" y1="112.272" x2="179.297" y2="129.064" gradientUnits="userSpaceOnUse">
<stop offset="0.288462" stop-color="#78A2F1"/>
<stop offset="1" stop-color="#E4E4E7" stop-opacity="0.7"/>
</linearGradient>
<linearGradient id="paint3_linear_5204_66488" x1="179.297" y1="112.248" x2="179.297" y2="128.935" gradientUnits="userSpaceOnUse">
<stop offset="0.288462" stop-color="#78A2F1"/>
<stop offset="1" stop-color="#E4E4E7" stop-opacity="0.7"/>
</linearGradient>
<linearGradient id="paint4_linear_5204_66488" x1="179.297" y1="112.272" x2="179.297" y2="129.064" gradientUnits="userSpaceOnUse">
<stop offset="0.288462" stop-color="#78A2F1"/>
<stop offset="1" stop-color="#E4E4E7" stop-opacity="0.7"/>
</linearGradient>
<linearGradient id="paint5_linear_5204_66488" x1="179.299" y1="112.248" x2="179.299" y2="128.935" gradientUnits="userSpaceOnUse">
<stop offset="0.288462" stop-color="#78A2F1"/>
<stop offset="1" stop-color="#E4E4E7" stop-opacity="0.7"/>
</linearGradient>
<linearGradient id="paint6_linear_5204_66488" x1="179.297" y1="60.499" x2="179.297" y2="43.7073" gradientUnits="userSpaceOnUse">
<stop offset="0.288462" stop-color="#78A2F1"/>
<stop offset="1" stop-color="#E4E4E7" stop-opacity="0.7"/>
</linearGradient>
<linearGradient id="paint7_linear_5204_66488" x1="179.297" y1="60.5245" x2="179.297" y2="43.8377" gradientUnits="userSpaceOnUse">
<stop offset="0.288462" stop-color="#78A2F1"/>
<stop offset="1" stop-color="#E4E4E7" stop-opacity="0.7"/>
</linearGradient>
<linearGradient id="paint8_linear_5204_66488" x1="179.297" y1="60.499" x2="179.297" y2="43.7073" gradientUnits="userSpaceOnUse">
<stop offset="0.288462" stop-color="#78A2F1"/>
<stop offset="1" stop-color="#E4E4E7" stop-opacity="0.7"/>
</linearGradient>
<linearGradient id="paint9_linear_5204_66488" x1="179.299" y1="60.5245" x2="179.299" y2="43.8377" gradientUnits="userSpaceOnUse">
<stop offset="0.288462" stop-color="#78A2F1"/>
<stop offset="1" stop-color="#E4E4E7" stop-opacity="0.7"/>
</linearGradient>
<linearGradient id="paint10_linear_5204_66488" x1="168.56" y1="156.013" x2="23.5884" y2="156.013" gradientUnits="userSpaceOnUse">
<stop stop-color="#F4F4F5"/>
<stop offset="0.506904" stop-color="#266AE9" stop-opacity="0.2"/>
<stop offset="1" stop-color="#F4F4F5"/>
</linearGradient>
<linearGradient id="paint11_linear_5204_66488" x1="90.8768" y1="145.003" x2="111.701" y2="167.669" gradientUnits="userSpaceOnUse">
<stop stop-color="white"/>
<stop offset="0.394231" stop-color="white" stop-opacity="0"/>
<stop offset="0.653846" stop-color="white" stop-opacity="0"/>
<stop offset="1" stop-color="white"/>
</linearGradient>
<linearGradient id="paint12_linear_5204_66488" x1="14.0405" y1="156.013" x2="-130.931" y2="156.013" gradientUnits="userSpaceOnUse">
<stop stop-color="#F4F4F5"/>
<stop offset="0.506904" stop-color="#266AE9" stop-opacity="0.2"/>
<stop offset="1" stop-color="#F4F4F5"/>
</linearGradient>
<linearGradient id="paint13_linear_5204_66488" x1="323.076" y1="156.013" x2="178.104" y2="156.013" gradientUnits="userSpaceOnUse">
<stop stop-color="#F4F4F5"/>
<stop offset="0.506904" stop-color="#266AE9" stop-opacity="0.2"/>
<stop offset="1" stop-color="#F4F4F5"/>
</linearGradient>
<linearGradient id="paint14_linear_5204_66488" x1="244.877" y1="145.003" x2="265.701" y2="167.669" gradientUnits="userSpaceOnUse">
<stop stop-color="white"/>
<stop offset="0.394231" stop-color="white" stop-opacity="0"/>
<stop offset="0.653846" stop-color="white" stop-opacity="0"/>
<stop offset="1" stop-color="white"/>
</linearGradient>
<linearGradient id="paint15_linear_5204_66488" x1="477.591" y1="156.013" x2="332.62" y2="156.013" gradientUnits="userSpaceOnUse">
<stop stop-color="#F4F4F5"/>
<stop offset="0.506904" stop-color="#266AE9" stop-opacity="0.2"/>
<stop offset="1" stop-color="#F4F4F5"/>
</linearGradient>
<linearGradient id="paint16_linear_5204_66488" x1="428.97" y1="19.1419" x2="283.999" y2="19.1419" gradientUnits="userSpaceOnUse">
<stop stop-color="#F4F4F5"/>
<stop offset="0.506904" stop-color="#266AE9" stop-opacity="0.2"/>
<stop offset="1" stop-color="#F4F4F5"/>
</linearGradient>
<linearGradient id="paint17_linear_5204_66488" x1="343.955" y1="8.13177" x2="364.779" y2="30.7975" gradientUnits="userSpaceOnUse">
<stop stop-color="white"/>
<stop offset="0.394231" stop-color="white" stop-opacity="0"/>
<stop offset="0.653846" stop-color="white" stop-opacity="0"/>
<stop offset="1" stop-color="white"/>
</linearGradient>
<linearGradient id="paint18_linear_5204_66488" x1="71.9702" y1="19.1419" x2="-73.0014" y2="19.1419" gradientUnits="userSpaceOnUse">
<stop stop-color="#F4F4F5"/>
<stop offset="0.506904" stop-color="#266AE9" stop-opacity="0.2"/>
<stop offset="1" stop-color="#F4F4F5"/>
</linearGradient>
<linearGradient id="paint19_linear_5204_66488" x1="-13.0451" y1="8.13177" x2="7.77876" y2="30.7975" gradientUnits="userSpaceOnUse">
<stop stop-color="white"/>
<stop offset="0.394231" stop-color="white" stop-opacity="0"/>
<stop offset="0.653846" stop-color="white" stop-opacity="0"/>
<stop offset="1" stop-color="white"/>
</linearGradient>
<linearGradient id="paint20_linear_5204_66488" x1="183.347" y1="0" x2="183.347" y2="230" gradientUnits="userSpaceOnUse">
<stop stop-color="#FAFAFA"/>
<stop offset="0.25" stop-color="#FAFAFA" stop-opacity="0"/>
<stop offset="0.85" stop-color="#FAFAFA" stop-opacity="0.298077"/>
<stop offset="1" stop-color="#FAFAFA"/>
</linearGradient>
<linearGradient id="paint21_linear_5204_66488" x1="0" y1="103.359" x2="358" y2="103.359" gradientUnits="userSpaceOnUse">
<stop stop-color="#FAFAFA"/>
<stop offset="0.15" stop-color="#FAFAFA" stop-opacity="0"/>
<stop offset="0.85" stop-color="#FAFAFA" stop-opacity="0"/>
<stop offset="1" stop-color="#FAFAFA"/>
</linearGradient>
<linearGradient id="paint22_linear_5204_66488" x1="179" y1="150" x2="179" y2="230" gradientUnits="userSpaceOnUse">
<stop stop-color="#FAFAFA" stop-opacity="0"/>
<stop offset="1" stop-color="#FAFAFA"/>
</linearGradient>
<linearGradient id="paint23_linear_5204_66488" x1="179" y1="0" x2="179" y2="21" gradientUnits="userSpaceOnUse">
<stop stop-color="#FAFAFA" stop-opacity="0"/>
<stop offset="1" stop-color="#FAFAFA"/>
</linearGradient>
<clipPath id="clip0_5204_66488">
<rect width="358" height="230" fill="white"/>
</clipPath>
<clipPath id="clip1_5204_66488">
<rect width="420" height="194" fill="white" transform="translate(-31 12)"/>
</clipPath>
</defs>
</svg>
