<svg width="705" height="362" viewBox="0 0 705 362" fill="none" xmlns="http://www.w3.org/2000/svg">
<g clip-path="url(#clip0_5522_71839)">
<path d="M355 91L746 91" stroke="url(#paint0_linear_5522_71839)" stroke-opacity="0.4" stroke-linecap="round"/>
<path d="M532 167L532 558" stroke="url(#paint1_linear_5522_71839)" stroke-opacity="0.4" stroke-linecap="round"/>
<path d="M332 206L332 597" stroke="url(#paint2_linear_5522_71839)" stroke-opacity="0.4" stroke-linecap="round"/>
<path d="M98 182L450 182" stroke="url(#paint3_linear_5522_71839)" stroke-opacity="0.4" stroke-linecap="round"/>
<g filter="url(#filter0_dd_5522_71839)">
<path d="M500 246H205C196.163 246 189 253.163 189 262V278C189 286.837 196.163 294 205 294H500C508.837 294 516 286.837 516 278V262C516 253.163 508.837 246 500 246Z" fill="white"/>
<path d="M500 246.5H205C196.44 246.5 189.5 253.44 189.5 262V278C189.5 286.56 196.44 293.5 205 293.5H500C508.56 293.5 515.5 286.56 515.5 278V262C515.5 253.44 508.56 246.5 500 246.5Z" stroke="#F3F4F7"/>
<path d="M223.639 276H222.359V264.8H223.767L227.927 274.24L232.071 264.8H233.463V276H232.183V267.328L228.375 276H227.463L223.639 267.328V276ZM241.067 276L240.971 274.56C240.747 275.051 240.416 275.435 239.979 275.712C239.542 275.979 238.987 276.112 238.315 276.112C237.739 276.112 237.248 276.021 236.843 275.84C236.438 275.659 236.123 275.403 235.899 275.072C235.686 274.731 235.579 274.331 235.579 273.872C235.579 273.2 235.83 272.651 236.331 272.224C236.832 271.787 237.558 271.52 238.507 271.424L240.971 271.152V270.512C240.971 270.064 240.806 269.707 240.475 269.44C240.144 269.163 239.696 269.024 239.131 269.024C238.576 269.024 238.112 269.152 237.739 269.408C237.376 269.664 237.126 270.032 236.987 270.512L235.899 270.128C236.112 269.424 236.502 268.875 237.067 268.48C237.643 268.085 238.342 267.888 239.163 267.888C240.112 267.888 240.848 268.133 241.371 268.624C241.904 269.104 242.171 269.76 242.171 270.592V276H241.067ZM240.971 272.176L238.491 272.464C237.958 272.528 237.552 272.677 237.275 272.912C236.998 273.136 236.859 273.435 236.859 273.808C236.859 274.181 236.992 274.48 237.259 274.704C237.536 274.928 237.931 275.04 238.443 275.04C239.03 275.04 239.51 274.923 239.883 274.688C240.256 274.453 240.528 274.139 240.699 273.744C240.88 273.339 240.971 272.901 240.971 272.432V272.176ZM244.512 268H245.616L245.68 269.136C245.936 268.741 246.272 268.437 246.688 268.224C247.104 268 247.59 267.888 248.144 267.888C248.752 267.888 249.286 268.021 249.744 268.288C250.203 268.544 250.56 268.933 250.816 269.456C251.072 269.968 251.2 270.613 251.2 271.392V276H250V271.536C250 270.704 249.819 270.075 249.456 269.648C249.104 269.211 248.592 268.992 247.92 268.992C247.227 268.992 246.683 269.221 246.288 269.68C245.904 270.139 245.712 270.816 245.712 271.712V276H244.512V268ZM260.072 276H258.984L258.904 274.848C258.659 275.253 258.328 275.568 257.912 275.792C257.496 276.005 257.011 276.112 256.456 276.112C255.837 276.112 255.299 275.984 254.84 275.728C254.381 275.472 254.024 275.088 253.768 274.576C253.523 274.064 253.4 273.419 253.4 272.64V268H254.584V272.512C254.584 273.333 254.76 273.957 255.112 274.384C255.475 274.8 255.992 275.008 256.664 275.008C257.347 275.008 257.885 274.789 258.28 274.352C258.685 273.904 258.888 273.232 258.888 272.336V268H260.072V276ZM267.52 276L267.424 274.56C267.2 275.051 266.87 275.435 266.432 275.712C265.995 275.979 265.44 276.112 264.768 276.112C264.192 276.112 263.702 276.021 263.296 275.84C262.891 275.659 262.576 275.403 262.352 275.072C262.139 274.731 262.032 274.331 262.032 273.872C262.032 273.2 262.283 272.651 262.784 272.224C263.286 271.787 264.011 271.52 264.96 271.424L267.424 271.152V270.512C267.424 270.064 267.259 269.707 266.928 269.44C266.598 269.163 266.15 269.024 265.584 269.024C265.03 269.024 264.566 269.152 264.192 269.408C263.83 269.664 263.579 270.032 263.44 270.512L262.352 270.128C262.566 269.424 262.955 268.875 263.52 268.48C264.096 268.085 264.795 267.888 265.616 267.888C266.566 267.888 267.302 268.133 267.824 268.624C268.358 269.104 268.624 269.76 268.624 270.592V276H267.52ZM267.424 272.176L264.944 272.464C264.411 272.528 264.006 272.677 263.728 272.912C263.451 273.136 263.312 273.435 263.312 273.808C263.312 274.181 263.446 274.48 263.712 274.704C263.99 274.928 264.384 275.04 264.896 275.04C265.483 275.04 265.963 274.923 266.336 274.688C266.71 274.453 266.982 274.139 267.152 273.744C267.334 273.339 267.424 272.901 267.424 272.432V272.176ZM270.965 264.48H272.165V276H270.965V264.48ZM279.09 268H280.194L280.274 269.152C280.509 268.768 280.824 268.464 281.218 268.24C281.624 268.005 282.104 267.888 282.658 267.888C283.224 267.888 283.736 268.027 284.194 268.304C284.664 268.571 285.026 268.971 285.282 269.504C285.528 268.96 285.901 268.555 286.402 268.288C286.904 268.021 287.458 267.888 288.066 267.888C288.664 267.888 289.192 268.021 289.65 268.288C290.109 268.544 290.466 268.933 290.722 269.456C290.978 269.968 291.106 270.613 291.106 271.392V276H289.906V271.536C289.906 270.704 289.725 270.075 289.362 269.648C289.01 269.211 288.504 268.992 287.842 268.992C287.17 268.992 286.637 269.227 286.242 269.696C285.848 270.155 285.65 270.837 285.65 271.744V276H284.45V271.536C284.45 270.704 284.28 270.075 283.938 269.648C283.597 269.211 283.096 268.992 282.434 268.992C281.762 268.992 281.234 269.227 280.85 269.696C280.477 270.155 280.29 270.837 280.29 271.744V276H279.09V268ZM296.89 276.112C296.133 276.112 295.455 275.947 294.858 275.616C294.261 275.285 293.791 274.816 293.45 274.208C293.109 273.589 292.938 272.859 292.938 272.016C292.938 271.163 293.109 270.427 293.45 269.808C293.802 269.189 294.277 268.715 294.874 268.384C295.482 268.053 296.165 267.888 296.922 267.888C297.679 267.888 298.357 268.053 298.954 268.384C299.562 268.715 300.037 269.189 300.378 269.808C300.73 270.416 300.906 271.141 300.906 271.984C300.906 272.837 300.73 273.573 300.378 274.192C300.026 274.811 299.546 275.285 298.938 275.616C298.33 275.947 297.647 276.112 296.89 276.112ZM296.874 274.976C297.343 274.976 297.786 274.875 298.202 274.672C298.618 274.459 298.954 274.133 299.21 273.696C299.477 273.248 299.61 272.683 299.61 272C299.61 271.307 299.482 270.741 299.226 270.304C298.97 269.867 298.634 269.547 298.218 269.344C297.813 269.131 297.375 269.024 296.906 269.024C296.437 269.024 295.999 269.131 295.594 269.344C295.189 269.547 294.858 269.872 294.602 270.32C294.357 270.757 294.234 271.317 294.234 272C294.234 272.693 294.357 273.259 294.602 273.696C294.847 274.133 295.167 274.459 295.562 274.672C295.967 274.875 296.405 274.976 296.874 274.976ZM309.048 269.616L308.92 269.632V264.48H310.12V276H309.016L308.936 274.512C308.69 274.96 308.322 275.339 307.832 275.648C307.352 275.957 306.754 276.112 306.04 276.112C305.304 276.112 304.658 275.947 304.104 275.616C303.56 275.275 303.133 274.795 302.824 274.176C302.525 273.557 302.376 272.832 302.376 272C302.376 271.168 302.525 270.448 302.824 269.84C303.133 269.221 303.56 268.741 304.104 268.4C304.658 268.059 305.304 267.888 306.04 267.888C306.797 267.888 307.426 268.053 307.928 268.384C308.429 268.715 308.802 269.125 309.048 269.616ZM303.672 272C303.672 272.917 303.906 273.648 304.376 274.192C304.845 274.725 305.485 274.992 306.296 274.992C306.797 274.992 307.245 274.875 307.64 274.64C308.034 274.405 308.344 274.064 308.568 273.616C308.802 273.168 308.92 272.629 308.92 272C308.92 271.371 308.802 270.837 308.568 270.4C308.344 269.952 308.034 269.611 307.64 269.376C307.245 269.131 306.797 269.008 306.296 269.008C305.496 269.008 304.856 269.28 304.376 269.824C303.906 270.357 303.672 271.083 303.672 272ZM315.935 276.112C315.188 276.112 314.521 275.931 313.935 275.568C313.359 275.205 312.905 274.709 312.575 274.08C312.244 273.451 312.079 272.731 312.079 271.92C312.079 271.141 312.244 270.448 312.575 269.84C312.905 269.232 313.359 268.757 313.935 268.416C314.511 268.064 315.167 267.888 315.903 267.888C316.628 267.888 317.273 268.048 317.839 268.368C318.415 268.688 318.863 269.131 319.183 269.696C319.503 270.261 319.652 270.907 319.631 271.632C319.631 271.749 319.625 271.872 319.615 272C319.604 272.128 319.593 272.267 319.583 272.416H313.391C313.412 272.917 313.535 273.36 313.759 273.744C313.983 274.128 314.276 274.432 314.639 274.656C315.012 274.869 315.433 274.976 315.903 274.976C316.521 274.976 317.044 274.859 317.471 274.624C317.908 274.389 318.223 274.053 318.415 273.616L319.455 274.032C319.135 274.704 318.671 275.221 318.063 275.584C317.455 275.936 316.745 276.112 315.935 276.112ZM318.319 271.376C318.329 270.917 318.228 270.512 318.015 270.16C317.812 269.808 317.524 269.531 317.151 269.328C316.777 269.125 316.345 269.024 315.855 269.024C315.428 269.024 315.039 269.125 314.687 269.328C314.335 269.531 314.041 269.813 313.807 270.176C313.583 270.528 313.449 270.928 313.407 271.376H318.319ZM321.606 264.48H322.806V276H321.606V264.48ZM325.487 268H326.671V276H325.487V268ZM326.095 266.4C325.849 266.4 325.647 266.32 325.487 266.16C325.327 266 325.247 265.803 325.247 265.568C325.247 265.323 325.327 265.12 325.487 264.96C325.647 264.8 325.849 264.72 326.095 264.72C326.319 264.72 326.511 264.8 326.671 264.96C326.841 265.12 326.927 265.323 326.927 265.568C326.927 265.803 326.841 266 326.671 266.16C326.511 266.32 326.319 266.4 326.095 266.4ZM329.372 268H330.476L330.54 269.136C330.796 268.741 331.132 268.437 331.548 268.224C331.964 268 332.449 267.888 333.004 267.888C333.612 267.888 334.145 268.021 334.604 268.288C335.062 268.544 335.42 268.933 335.676 269.456C335.932 269.968 336.06 270.613 336.06 271.392V276H334.86V271.536C334.86 270.704 334.678 270.075 334.316 269.648C333.964 269.211 333.452 268.992 332.78 268.992C332.086 268.992 331.542 269.221 331.148 269.68C330.764 270.139 330.572 270.816 330.572 271.712V276H329.372V268ZM344.531 268H345.635V274.528C345.635 275.509 345.417 276.347 344.979 277.04C344.542 277.744 343.907 278.277 343.075 278.64C342.243 279.013 341.23 279.2 340.035 279.2L339.843 278.096C341.347 278.075 342.489 277.76 343.267 277.152C344.046 276.555 344.435 275.68 344.435 274.528V274.352L344.563 274.384C344.318 274.853 343.95 275.259 343.459 275.6C342.969 275.931 342.334 276.101 341.555 276.112C340.819 276.112 340.174 275.947 339.619 275.616C339.075 275.275 338.649 274.795 338.339 274.176C338.041 273.557 337.891 272.832 337.891 272C337.891 271.168 338.041 270.448 338.339 269.84C338.649 269.221 339.075 268.741 339.619 268.4C340.174 268.059 340.819 267.888 341.555 267.888C342.035 267.888 342.462 267.963 342.835 268.112C343.209 268.251 343.529 268.443 343.795 268.688C344.062 268.923 344.281 269.189 344.451 269.488L344.531 268ZM339.187 272C339.187 272.917 339.422 273.648 339.891 274.192C340.371 274.725 341.017 274.992 341.827 274.992C342.318 274.992 342.761 274.875 343.155 274.64C343.55 274.405 343.859 274.064 344.083 273.616C344.318 273.168 344.435 272.629 344.435 272C344.435 271.371 344.318 270.837 344.083 270.4C343.859 269.952 343.55 269.611 343.155 269.376C342.761 269.131 342.318 269.008 341.827 269.008C341.027 269.008 340.387 269.28 339.907 269.824C339.427 270.368 339.187 271.093 339.187 272ZM352.815 268H353.999V276H352.815V268ZM353.423 266.4C353.177 266.4 352.975 266.32 352.815 266.16C352.655 266 352.575 265.803 352.575 265.568C352.575 265.323 352.655 265.12 352.815 264.96C352.975 264.8 353.177 264.72 353.423 264.72C353.647 264.72 353.839 264.8 353.999 264.96C354.169 265.12 354.255 265.323 354.255 265.568C354.255 265.803 354.169 266 353.999 266.16C353.839 266.32 353.647 266.4 353.423 266.4ZM356.7 268H357.804L357.868 269.136C358.124 268.741 358.46 268.437 358.876 268.224C359.292 268 359.777 267.888 360.332 267.888C360.94 267.888 361.473 268.021 361.932 268.288C362.39 268.544 362.748 268.933 363.004 269.456C363.26 269.968 363.388 270.613 363.388 271.392V276H362.188V271.536C362.188 270.704 362.006 270.075 361.644 269.648C361.292 269.211 360.78 268.992 360.108 268.992C359.414 268.992 358.87 269.221 358.476 269.68C358.092 270.139 357.9 270.816 357.9 271.712V276H356.7V268ZM377.672 265.92H371.608V269.744H376.168V270.864H371.608V274.88H377.672V276H370.328V264.8H377.672V265.92ZM379.214 268H380.59L382.638 271.056L384.686 268H386.078L383.31 271.984L386.078 276H384.686L382.638 272.912L380.59 276H379.214L381.982 271.984L379.214 268ZM391.217 276.112C390.438 276.112 389.756 275.941 389.169 275.6C388.582 275.259 388.124 274.784 387.793 274.176C387.473 273.557 387.313 272.843 387.313 272.032C387.313 271.211 387.473 270.491 387.793 269.872C388.124 269.243 388.582 268.757 389.169 268.416C389.756 268.064 390.438 267.888 391.217 267.888C392.038 267.888 392.758 268.08 393.377 268.464C393.996 268.837 394.444 269.36 394.721 270.032L393.617 270.416C393.457 269.989 393.164 269.653 392.737 269.408C392.321 269.152 391.836 269.024 391.281 269.024C390.737 269.024 390.262 269.147 389.857 269.392C389.462 269.637 389.153 269.984 388.929 270.432C388.716 270.88 388.609 271.408 388.609 272.016C388.609 272.912 388.849 273.632 389.329 274.176C389.809 274.709 390.449 274.976 391.249 274.976C391.793 274.976 392.278 274.853 392.705 274.608C393.132 274.363 393.446 274.032 393.649 273.616L394.737 274C394.449 274.661 393.996 275.179 393.377 275.552C392.758 275.925 392.038 276.112 391.217 276.112ZM400.06 276.112C399.313 276.112 398.646 275.931 398.06 275.568C397.484 275.205 397.03 274.709 396.7 274.08C396.369 273.451 396.204 272.731 396.204 271.92C396.204 271.141 396.369 270.448 396.7 269.84C397.03 269.232 397.484 268.757 398.06 268.416C398.636 268.064 399.292 267.888 400.028 267.888C400.753 267.888 401.398 268.048 401.964 268.368C402.54 268.688 402.988 269.131 403.308 269.696C403.628 270.261 403.777 270.907 403.756 271.632C403.756 271.749 403.75 271.872 403.74 272C403.729 272.128 403.718 272.267 403.708 272.416H397.516C397.537 272.917 397.66 273.36 397.884 273.744C398.108 274.128 398.401 274.432 398.764 274.656C399.137 274.869 399.558 274.976 400.028 274.976C400.646 274.976 401.169 274.859 401.596 274.624C402.033 274.389 402.348 274.053 402.54 273.616L403.58 274.032C403.26 274.704 402.796 275.221 402.188 275.584C401.58 275.936 400.87 276.112 400.06 276.112ZM402.444 271.376C402.454 270.917 402.353 270.512 402.14 270.16C401.937 269.808 401.649 269.531 401.276 269.328C400.902 269.125 400.47 269.024 399.98 269.024C399.553 269.024 399.164 269.125 398.812 269.328C398.46 269.531 398.166 269.813 397.932 270.176C397.708 270.528 397.574 270.928 397.532 271.376H402.444ZM405.731 264.48H406.931V276H405.731V264.48ZM414.288 267.056C414.288 266.469 414.384 265.973 414.576 265.568C414.768 265.163 415.072 264.869 415.488 264.688C415.915 264.496 416.48 264.427 417.184 264.48V265.552C416.544 265.499 416.101 265.605 415.856 265.872C415.611 266.128 415.488 266.523 415.488 267.056V268H417.248V269.12H415.488V276H414.288V269.12H413.168V268H414.288V267.056ZM422.5 276.112C421.742 276.112 421.065 275.947 420.468 275.616C419.87 275.285 419.401 274.816 419.06 274.208C418.718 273.589 418.548 272.859 418.548 272.016C418.548 271.163 418.718 270.427 419.06 269.808C419.412 269.189 419.886 268.715 420.484 268.384C421.092 268.053 421.774 267.888 422.532 267.888C423.289 267.888 423.966 268.053 424.564 268.384C425.172 268.715 425.646 269.189 425.988 269.808C426.34 270.416 426.516 271.141 426.516 271.984C426.516 272.837 426.34 273.573 425.988 274.192C425.636 274.811 425.156 275.285 424.548 275.616C423.94 275.947 423.257 276.112 422.5 276.112ZM422.484 274.976C422.953 274.976 423.396 274.875 423.812 274.672C424.228 274.459 424.564 274.133 424.82 273.696C425.086 273.248 425.22 272.683 425.22 272C425.22 271.307 425.092 270.741 424.836 270.304C424.58 269.867 424.244 269.547 423.828 269.344C423.422 269.131 422.985 269.024 422.515 269.024C422.046 269.024 421.609 269.131 421.204 269.344C420.798 269.547 420.468 269.872 420.212 270.32C419.966 270.757 419.844 271.317 419.844 272C419.844 272.693 419.966 273.259 420.212 273.696C420.457 274.133 420.777 274.459 421.172 274.672C421.577 274.875 422.014 274.976 422.484 274.976ZM428.481 268H429.585L429.649 269.168C429.862 268.88 430.118 268.635 430.417 268.432C430.726 268.229 431.062 268.091 431.425 268.016C431.798 267.931 432.193 267.925 432.609 268V269.2C432.161 269.115 431.756 269.115 431.393 269.2C431.041 269.285 430.737 269.445 430.481 269.68C430.225 269.915 430.028 270.213 429.889 270.576C429.75 270.928 429.681 271.339 429.681 271.808V276H428.481V268ZM441.515 276H440.427L437.915 268H439.131L440.971 274.512L443.035 268H444.123L446.155 274.496L447.979 268H449.163L446.667 276H445.563L443.547 269.792L441.515 276ZM454.154 276.112C453.407 276.112 452.74 275.931 452.154 275.568C451.578 275.205 451.124 274.709 450.794 274.08C450.463 273.451 450.298 272.731 450.298 271.92C450.298 271.141 450.463 270.448 450.794 269.84C451.124 269.232 451.578 268.757 452.154 268.416C452.73 268.064 453.386 267.888 454.122 267.888C454.847 267.888 455.492 268.048 456.058 268.368C456.634 268.688 457.082 269.131 457.402 269.696C457.722 270.261 457.871 270.907 457.85 271.632C457.85 271.749 457.844 271.872 457.834 272C457.823 272.128 457.812 272.267 457.802 272.416H451.61C451.631 272.917 451.754 273.36 451.978 273.744C452.202 274.128 452.495 274.432 452.858 274.656C453.231 274.869 453.652 274.976 454.122 274.976C454.74 274.976 455.263 274.859 455.69 274.624C456.127 274.389 456.442 274.053 456.634 273.616L457.674 274.032C457.354 274.704 456.89 275.221 456.282 275.584C455.674 275.936 454.964 276.112 454.154 276.112ZM456.538 271.376C456.548 270.917 456.447 270.512 456.234 270.16C456.031 269.808 455.743 269.531 455.37 269.328C454.996 269.125 454.564 269.024 454.074 269.024C453.647 269.024 453.258 269.125 452.906 269.328C452.554 269.531 452.26 269.813 452.026 270.176C451.802 270.528 451.668 270.928 451.626 271.376H456.538ZM463.185 276.112C462.438 276.112 461.771 275.931 461.185 275.568C460.609 275.205 460.155 274.709 459.825 274.08C459.494 273.451 459.329 272.731 459.329 271.92C459.329 271.141 459.494 270.448 459.825 269.84C460.155 269.232 460.609 268.757 461.185 268.416C461.761 268.064 462.417 267.888 463.153 267.888C463.878 267.888 464.523 268.048 465.089 268.368C465.665 268.688 466.113 269.131 466.433 269.696C466.753 270.261 466.902 270.907 466.881 271.632C466.881 271.749 466.875 271.872 466.865 272C466.854 272.128 466.843 272.267 466.833 272.416H460.641C460.662 272.917 460.785 273.36 461.009 273.744C461.233 274.128 461.526 274.432 461.889 274.656C462.262 274.869 462.683 274.976 463.153 274.976C463.771 274.976 464.294 274.859 464.721 274.624C465.158 274.389 465.473 274.053 465.665 273.616L466.705 274.032C466.385 274.704 465.921 275.221 465.313 275.584C464.705 275.936 463.995 276.112 463.185 276.112ZM465.569 271.376C465.579 270.917 465.478 270.512 465.265 270.16C465.062 269.808 464.774 269.531 464.401 269.328C464.027 269.125 463.595 269.024 463.105 269.024C462.678 269.024 462.289 269.125 461.937 269.328C461.585 269.531 461.291 269.813 461.057 270.176C460.833 270.528 460.699 270.928 460.657 271.376H465.569ZM468.856 264.48H470.072V271.472H470.808L473.96 268H475.656L471.88 272L475.672 276H473.96L470.808 272.512H470.072V276H468.856V264.48ZM477.793 273.552C477.857 273.872 477.975 274.139 478.145 274.352C478.316 274.555 478.535 274.709 478.801 274.816C479.079 274.923 479.399 274.976 479.761 274.976C480.327 274.976 480.753 274.869 481.041 274.656C481.34 274.432 481.489 274.155 481.489 273.824C481.489 273.547 481.399 273.323 481.217 273.152C481.047 272.981 480.817 272.843 480.529 272.736C480.241 272.619 479.921 272.517 479.569 272.432C479.292 272.368 478.993 272.293 478.673 272.208C478.353 272.112 478.049 271.984 477.761 271.824C477.473 271.664 477.239 271.456 477.057 271.2C476.876 270.944 476.785 270.608 476.785 270.192C476.785 269.733 476.908 269.333 477.153 268.992C477.409 268.64 477.756 268.368 478.193 268.176C478.641 267.984 479.153 267.888 479.729 267.888C480.391 267.888 480.977 268.032 481.489 268.32C482.012 268.608 482.375 269.056 482.577 269.664L481.457 270.048C481.383 269.771 481.244 269.557 481.041 269.408C480.849 269.259 480.631 269.157 480.385 269.104C480.151 269.051 479.916 269.024 479.681 269.024C479.201 269.024 478.812 269.12 478.513 269.312C478.225 269.493 478.081 269.771 478.081 270.144C478.081 270.347 478.129 270.517 478.225 270.656C478.321 270.784 478.455 270.891 478.625 270.976C478.796 271.061 478.999 271.136 479.233 271.2C479.468 271.253 479.724 271.317 480.001 271.392C480.311 271.467 480.625 271.563 480.945 271.68C481.265 271.787 481.564 271.931 481.841 272.112C482.119 272.283 482.343 272.507 482.513 272.784C482.695 273.051 482.785 273.387 482.785 273.792C482.785 274.261 482.657 274.672 482.401 275.024C482.145 275.365 481.788 275.632 481.329 275.824C480.881 276.016 480.359 276.112 479.761 276.112C478.94 276.112 478.257 275.931 477.713 275.568C477.18 275.195 476.823 274.651 476.641 273.936L477.793 273.552Z" fill="#9CA3AF"/>
<path d="M221 271.199H483.506V271.999H221V271.199Z" fill="#9CA3AF"/>
</g>
<g filter="url(#filter1_dd_5522_71839)">
<path d="M486 48H220C211.163 48 204 55.1634 204 64V80C204 88.8366 211.163 96 220 96H486C494.837 96 502 88.8366 502 80V64C502 55.1634 494.837 48 486 48Z" fill="white"/>
<path d="M486 48.5H220C211.44 48.5 204.5 55.4396 204.5 64V80C204.5 88.5604 211.44 95.5 220 95.5H486C494.56 95.5 501.5 88.5604 501.5 80V64C501.5 55.4396 494.56 48.5 486 48.5Z" stroke="#F3F4F7"/>
<path d="M244.127 69.8405C244.127 69.2538 243.93 68.7898 243.535 68.4485C243.151 68.0965 242.575 67.9205 241.807 67.9205H238.639V71.7445H241.855C242.58 71.7445 243.14 71.5738 243.535 71.2325C243.93 70.8912 244.127 70.4272 244.127 69.8405ZM237.359 78.0005V66.8005H241.919C242.708 66.8005 243.359 66.9338 243.871 67.2005C244.383 67.4672 244.762 67.8192 245.007 68.2565C245.263 68.6832 245.391 69.1578 245.391 69.6805C245.391 70.1925 245.295 70.6245 245.103 70.9765C244.922 71.3178 244.671 71.5898 244.351 71.7925C244.042 71.9952 243.7 72.1338 243.327 72.2085V72.3205C243.775 72.3845 244.175 72.5285 244.527 72.7525C244.879 72.9658 245.156 73.2592 245.359 73.6325C245.562 74.0058 245.663 74.4592 245.663 74.9925C245.663 75.5472 245.524 76.0538 245.247 76.5125C244.97 76.9712 244.559 77.3338 244.015 77.6005C243.482 77.8672 242.826 78.0005 242.047 78.0005H237.359ZM238.639 76.8805H241.951C242.719 76.8805 243.316 76.7098 243.743 76.3685C244.18 76.0165 244.399 75.5152 244.399 74.8645C244.399 74.2138 244.17 73.7178 243.711 73.3765C243.263 73.0352 242.66 72.8645 241.903 72.8645H238.639V76.8805ZM254.338 78.0005H253.25L253.17 76.8485C252.924 77.2538 252.594 77.5685 252.178 77.7925C251.762 78.0058 251.276 78.1125 250.722 78.1125C250.103 78.1125 249.564 77.9845 249.106 77.7285C248.647 77.4725 248.29 77.0885 248.034 76.5765C247.788 76.0645 247.666 75.4192 247.666 74.6405V70.0005H248.85V74.5125C248.85 75.3338 249.026 75.9578 249.378 76.3845C249.74 76.8005 250.258 77.0085 250.93 77.0085C251.612 77.0085 252.151 76.7898 252.546 76.3525C252.951 75.9045 253.154 75.2325 253.154 74.3365V70.0005H254.338V78.0005ZM256.778 70.0005H257.882L257.946 71.1685C258.159 70.8805 258.415 70.6352 258.714 70.4325C259.023 70.2298 259.359 70.0912 259.722 70.0165C260.095 69.9312 260.49 69.9258 260.906 70.0005V71.2005C260.458 71.1152 260.053 71.1152 259.69 71.2005C259.338 71.2858 259.034 71.4458 258.778 71.6805C258.522 71.9152 258.325 72.2138 258.186 72.5765C258.047 72.9285 257.978 73.3392 257.978 73.8085V78.0005H256.778V70.0005ZM262.544 70.0005H263.648L263.712 71.1365C263.968 70.7418 264.304 70.4378 264.72 70.2245C265.136 70.0005 265.621 69.8885 266.176 69.8885C266.784 69.8885 267.317 70.0218 267.776 70.2885C268.234 70.5445 268.592 70.9338 268.848 71.4565C269.104 71.9685 269.232 72.6138 269.232 73.3925V78.0005H268.032V73.5365C268.032 72.7045 267.85 72.0752 267.488 71.6485C267.136 71.2112 266.624 70.9925 265.952 70.9925C265.258 70.9925 264.714 71.2218 264.32 71.6805C263.936 72.1392 263.744 72.8165 263.744 73.7125V78.0005H262.544V70.0005ZM271.799 70.0005H272.983V78.0005H271.799V70.0005ZM272.407 68.4005C272.162 68.4005 271.959 68.3205 271.799 68.1605C271.639 68.0005 271.559 67.8032 271.559 67.5685C271.559 67.3232 271.639 67.1205 271.799 66.9605C271.959 66.8005 272.162 66.7205 272.407 66.7205C272.631 66.7205 272.823 66.8005 272.983 66.9605C273.154 67.1205 273.239 67.3232 273.239 67.5685C273.239 67.8032 273.154 68.0005 272.983 68.1605C272.823 68.3205 272.631 68.4005 272.407 68.4005ZM275.684 70.0005H276.788L276.852 71.1365C277.108 70.7418 277.444 70.4378 277.86 70.2245C278.276 70.0005 278.761 69.8885 279.316 69.8885C279.924 69.8885 280.457 70.0218 280.916 70.2885C281.375 70.5445 281.732 70.9338 281.988 71.4565C282.244 71.9685 282.372 72.6138 282.372 73.3925V78.0005H281.172V73.5365C281.172 72.7045 280.991 72.0752 280.628 71.6485C280.276 71.2112 279.764 70.9925 279.092 70.9925C278.399 70.9925 277.855 71.2218 277.46 71.6805C277.076 72.1392 276.884 72.8165 276.884 73.7125V78.0005H275.684V70.0005ZM290.844 70.0005H291.948V76.5285C291.948 77.5098 291.729 78.3472 291.292 79.0405C290.854 79.7445 290.22 80.2778 289.388 80.6405C288.556 81.0138 287.542 81.2005 286.348 81.2005L286.156 80.0965C287.66 80.0752 288.801 79.7605 289.58 79.1525C290.358 78.5552 290.748 77.6805 290.748 76.5285V76.3525L290.876 76.3845C290.63 76.8538 290.262 77.2592 289.772 77.6005C289.281 77.9312 288.646 78.1018 287.868 78.1125C287.132 78.1125 286.486 77.9472 285.932 77.6165C285.388 77.2752 284.961 76.7952 284.652 76.1765C284.353 75.5578 284.204 74.8325 284.204 74.0005C284.204 73.1685 284.353 72.4485 284.652 71.8405C284.961 71.2218 285.388 70.7418 285.932 70.4005C286.486 70.0592 287.132 69.8885 287.868 69.8885C288.348 69.8885 288.774 69.9632 289.148 70.1125C289.521 70.2512 289.841 70.4432 290.108 70.6885C290.374 70.9232 290.593 71.1898 290.764 71.4885L290.844 70.0005ZM285.5 74.0005C285.5 74.9178 285.734 75.6485 286.204 76.1925C286.684 76.7258 287.329 76.9925 288.14 76.9925C288.63 76.9925 289.073 76.8752 289.468 76.6405C289.862 76.4058 290.172 76.0645 290.396 75.6165C290.63 75.1685 290.748 74.6298 290.748 74.0005C290.748 73.3712 290.63 72.8378 290.396 72.4005C290.172 71.9525 289.862 71.6112 289.468 71.3765C289.073 71.1312 288.63 71.0085 288.14 71.0085C287.34 71.0085 286.7 71.2805 286.22 71.8245C285.74 72.3685 285.5 73.0938 285.5 74.0005ZM299.959 71.6165C300.194 71.1258 300.562 70.7152 301.063 70.3845C301.565 70.0538 302.199 69.8885 302.967 69.8885C303.703 69.8885 304.343 70.0592 304.887 70.4005C305.442 70.7418 305.869 71.2218 306.167 71.8405C306.477 72.4485 306.631 73.1685 306.631 74.0005C306.631 74.8325 306.477 75.5578 306.167 76.1765C305.858 76.7952 305.426 77.2752 304.871 77.6165C304.327 77.9472 303.693 78.1125 302.967 78.1125C302.242 78.1125 301.639 77.9578 301.159 77.6485C300.679 77.3392 300.317 76.9605 300.071 76.5125L299.991 78.0005H298.887V66.4805H300.087V71.6325L299.959 71.6165ZM305.335 74.0005C305.335 73.0832 305.095 72.3578 304.615 71.8245C304.146 71.2805 303.511 71.0085 302.711 71.0085C302.21 71.0085 301.757 71.1312 301.351 71.3765C300.957 71.6112 300.647 71.9525 300.423 72.4005C300.199 72.8378 300.087 73.3712 300.087 74.0005C300.087 74.6298 300.199 75.1685 300.423 75.6165C300.647 76.0645 300.957 76.4058 301.351 76.6405C301.757 76.8752 302.21 76.9925 302.711 76.9925C303.511 76.9925 304.146 76.7258 304.615 76.1925C305.095 75.6485 305.335 74.9178 305.335 74.0005ZM315.134 78.0005H314.046L313.966 76.8485C313.721 77.2538 313.39 77.5685 312.974 77.7925C312.558 78.0058 312.073 78.1125 311.518 78.1125C310.9 78.1125 310.361 77.9845 309.902 77.7285C309.444 77.4725 309.086 77.0885 308.83 76.5765C308.585 76.0645 308.462 75.4192 308.462 74.6405V70.0005H309.646V74.5125C309.646 75.3338 309.822 75.9578 310.174 76.3845C310.537 76.8005 311.054 77.0085 311.726 77.0085C312.409 77.0085 312.948 76.7898 313.342 76.3525C313.748 75.9045 313.95 75.2325 313.95 74.3365V70.0005H315.134V78.0005ZM323.751 71.6165L323.623 71.6325V66.4805H324.823V78.0005H323.719L323.639 76.5125C323.393 76.9605 323.025 77.3392 322.535 77.6485C322.055 77.9578 321.457 78.1125 320.743 78.1125C320.007 78.1125 319.361 77.9472 318.807 77.6165C318.263 77.2752 317.836 76.7952 317.527 76.1765C317.228 75.5578 317.079 74.8325 317.079 74.0005C317.079 73.1685 317.228 72.4485 317.527 71.8405C317.836 71.2218 318.263 70.7418 318.807 70.4005C319.361 70.0592 320.007 69.8885 320.743 69.8885C321.5 69.8885 322.129 70.0538 322.631 70.3845C323.132 70.7152 323.505 71.1258 323.751 71.6165ZM318.375 74.0005C318.375 74.9178 318.609 75.6485 319.079 76.1925C319.548 76.7258 320.188 76.9925 320.999 76.9925C321.5 76.9925 321.948 76.8752 322.343 76.6405C322.737 76.4058 323.047 76.0645 323.271 75.6165C323.505 75.1685 323.623 74.6298 323.623 74.0005C323.623 73.3712 323.505 72.8378 323.271 72.4005C323.047 71.9525 322.737 71.6112 322.343 71.3765C321.948 71.1312 321.5 71.0085 320.999 71.0085C320.199 71.0085 319.559 71.2805 319.079 71.8245C318.609 72.3578 318.375 73.0832 318.375 74.0005ZM333.422 70.0005H334.526V76.5285C334.526 77.5098 334.307 78.3472 333.87 79.0405C333.433 79.7445 332.798 80.2778 331.966 80.6405C331.134 81.0138 330.121 81.2005 328.926 81.2005L328.734 80.0965C330.238 80.0752 331.379 79.7605 332.158 79.1525C332.937 78.5552 333.326 77.6805 333.326 76.5285V76.3525L333.454 76.3845C333.209 76.8538 332.841 77.2592 332.35 77.6005C331.859 77.9312 331.225 78.1018 330.446 78.1125C329.71 78.1125 329.065 77.9472 328.51 77.6165C327.966 77.2752 327.539 76.7952 327.23 76.1765C326.931 75.5578 326.782 74.8325 326.782 74.0005C326.782 73.1685 326.931 72.4485 327.23 71.8405C327.539 71.2218 327.966 70.7418 328.51 70.4005C329.065 70.0592 329.71 69.8885 330.446 69.8885C330.926 69.8885 331.353 69.9632 331.726 70.1125C332.099 70.2512 332.419 70.4432 332.686 70.6885C332.953 70.9232 333.171 71.1898 333.342 71.4885L333.422 70.0005ZM328.078 74.0005C328.078 74.9178 328.313 75.6485 328.782 76.1925C329.262 76.7258 329.907 76.9925 330.718 76.9925C331.209 76.9925 331.651 76.8752 332.046 76.6405C332.441 76.4058 332.75 76.0645 332.974 75.6165C333.209 75.1685 333.326 74.6298 333.326 74.0005C333.326 73.3712 333.209 72.8378 332.974 72.4005C332.75 71.9525 332.441 71.6112 332.046 71.3765C331.651 71.1312 331.209 71.0085 330.718 71.0085C329.918 71.0085 329.278 71.2805 328.798 71.8245C328.318 72.3685 328.078 73.0938 328.078 74.0005ZM340.341 78.1125C339.594 78.1125 338.928 77.9312 338.341 77.5685C337.765 77.2058 337.312 76.7098 336.981 76.0805C336.65 75.4512 336.485 74.7312 336.485 73.9205C336.485 73.1418 336.65 72.4485 336.981 71.8405C337.312 71.2325 337.765 70.7578 338.341 70.4165C338.917 70.0645 339.573 69.8885 340.309 69.8885C341.034 69.8885 341.68 70.0485 342.245 70.3685C342.821 70.6885 343.269 71.1312 343.589 71.6965C343.909 72.2618 344.058 72.9072 344.037 73.6325C344.037 73.7498 344.032 73.8725 344.021 74.0005C344.01 74.1285 344 74.2672 343.989 74.4165H337.797C337.818 74.9178 337.941 75.3605 338.165 75.7445C338.389 76.1285 338.682 76.4325 339.045 76.6565C339.418 76.8698 339.84 76.9765 340.309 76.9765C340.928 76.9765 341.45 76.8592 341.877 76.6245C342.314 76.3898 342.629 76.0538 342.821 75.6165L343.861 76.0325C343.541 76.7045 343.077 77.2218 342.469 77.5845C341.861 77.9365 341.152 78.1125 340.341 78.1125ZM342.725 73.3765C342.736 72.9178 342.634 72.5125 342.421 72.1605C342.218 71.8085 341.93 71.5312 341.557 71.3285C341.184 71.1258 340.752 71.0245 340.261 71.0245C339.834 71.0245 339.445 71.1258 339.093 71.3285C338.741 71.5312 338.448 71.8138 338.213 72.1765C337.989 72.5285 337.856 72.9285 337.813 73.3765H342.725ZM346.524 70.0005V67.7605H347.724V70.0005H349.852V71.1205H347.724V75.4245C347.724 75.9152 347.826 76.2725 348.028 76.4965C348.242 76.7205 348.508 76.8538 348.828 76.8965C349.159 76.9392 349.5 76.9392 349.852 76.8965V77.9365C349.436 78.0325 349.026 78.0592 348.62 78.0165C348.226 77.9738 347.868 77.8565 347.548 77.6645C347.239 77.4618 346.988 77.1792 346.796 76.8165C346.615 76.4538 346.524 75.9898 346.524 75.4245V71.1205H345.324V70.0005H346.524ZM352.293 75.5525C352.357 75.8725 352.475 76.1392 352.645 76.3525C352.816 76.5552 353.035 76.7098 353.301 76.8165C353.579 76.9232 353.899 76.9765 354.261 76.9765C354.827 76.9765 355.253 76.8698 355.541 76.6565C355.84 76.4325 355.989 76.1552 355.989 75.8245C355.989 75.5472 355.899 75.3232 355.717 75.1525C355.547 74.9818 355.317 74.8432 355.029 74.7365C354.741 74.6192 354.421 74.5178 354.069 74.4325C353.792 74.3685 353.493 74.2938 353.173 74.2085C352.853 74.1125 352.549 73.9845 352.261 73.8245C351.973 73.6645 351.739 73.4565 351.557 73.2005C351.376 72.9445 351.285 72.6085 351.285 72.1925C351.285 71.7338 351.408 71.3338 351.653 70.9925C351.909 70.6405 352.256 70.3685 352.693 70.1765C353.141 69.9845 353.653 69.8885 354.229 69.8885C354.891 69.8885 355.477 70.0325 355.989 70.3205C356.512 70.6085 356.875 71.0565 357.077 71.6645L355.957 72.0485C355.883 71.7712 355.744 71.5578 355.541 71.4085C355.349 71.2592 355.131 71.1578 354.885 71.1045C354.651 71.0512 354.416 71.0245 354.181 71.0245C353.701 71.0245 353.312 71.1205 353.013 71.3125C352.725 71.4938 352.581 71.7712 352.581 72.1445C352.581 72.3472 352.629 72.5178 352.725 72.6565C352.821 72.7845 352.955 72.8912 353.125 72.9765C353.296 73.0618 353.499 73.1365 353.733 73.2005C353.968 73.2538 354.224 73.3178 354.501 73.3925C354.811 73.4672 355.125 73.5632 355.445 73.6805C355.765 73.7872 356.064 73.9312 356.341 74.1125C356.619 74.2832 356.843 74.5072 357.013 74.7845C357.195 75.0512 357.285 75.3872 357.285 75.7925C357.285 76.2618 357.157 76.6725 356.901 77.0245C356.645 77.3658 356.288 77.6325 355.829 77.8245C355.381 78.0165 354.859 78.1125 354.261 78.1125C353.44 78.1125 352.757 77.9312 352.213 77.5685C351.68 77.1952 351.323 76.6512 351.141 75.9365L352.293 75.5525ZM367.171 78.1125C366.414 78.1125 365.737 77.9472 365.139 77.6165C364.542 77.2858 364.073 76.8165 363.731 76.2085C363.39 75.5898 363.219 74.8592 363.219 74.0165C363.219 73.1632 363.39 72.4272 363.731 71.8085C364.083 71.1898 364.558 70.7152 365.155 70.3845C365.763 70.0538 366.446 69.8885 367.203 69.8885C367.961 69.8885 368.638 70.0538 369.235 70.3845C369.843 70.7152 370.318 71.1898 370.659 71.8085C371.011 72.4165 371.187 73.1418 371.187 73.9845C371.187 74.8378 371.011 75.5738 370.659 76.1925C370.307 76.8112 369.827 77.2858 369.219 77.6165C368.611 77.9472 367.929 78.1125 367.171 78.1125ZM367.155 76.9765C367.625 76.9765 368.067 76.8752 368.483 76.6725C368.899 76.4592 369.235 76.1338 369.491 75.6965C369.758 75.2485 369.891 74.6832 369.891 74.0005C369.891 73.3072 369.763 72.7418 369.507 72.3045C369.251 71.8672 368.915 71.5472 368.499 71.3445C368.094 71.1312 367.657 71.0245 367.187 71.0245C366.718 71.0245 366.281 71.1312 365.875 71.3445C365.47 71.5472 365.139 71.8725 364.883 72.3205C364.638 72.7578 364.515 73.3178 364.515 74.0005C364.515 74.6938 364.638 75.2592 364.883 75.6965C365.129 76.1338 365.449 76.4592 365.843 76.6725C366.249 76.8752 366.686 76.9765 367.155 76.9765ZM373.153 70.0005H374.257L374.321 71.1365C374.577 70.7418 374.913 70.4378 375.329 70.2245C375.745 70.0005 376.23 69.8885 376.785 69.8885C377.393 69.8885 377.926 70.0218 378.385 70.2885C378.844 70.5445 379.201 70.9338 379.457 71.4565C379.713 71.9685 379.841 72.6138 379.841 73.3925V78.0005H378.641V73.5365C378.641 72.7045 378.46 72.0752 378.097 71.6485C377.745 71.2112 377.233 70.9925 376.561 70.9925C375.868 70.9925 375.324 71.2218 374.929 71.6805C374.545 72.1392 374.353 72.8165 374.353 73.7125V78.0005H373.153V70.0005ZM390.061 78.1125C389.282 78.1125 388.6 77.9418 388.013 77.6005C387.426 77.2592 386.968 76.7845 386.637 76.1765C386.317 75.5578 386.157 74.8432 386.157 74.0325C386.157 73.2112 386.317 72.4912 386.637 71.8725C386.968 71.2432 387.426 70.7578 388.013 70.4165C388.6 70.0645 389.282 69.8885 390.061 69.8885C390.882 69.8885 391.602 70.0805 392.221 70.4645C392.84 70.8378 393.288 71.3605 393.565 72.0325L392.461 72.4165C392.301 71.9898 392.008 71.6538 391.581 71.4085C391.165 71.1525 390.68 71.0245 390.125 71.0245C389.581 71.0245 389.106 71.1472 388.701 71.3925C388.306 71.6378 387.997 71.9845 387.773 72.4325C387.56 72.8805 387.453 73.4085 387.453 74.0165C387.453 74.9125 387.693 75.6325 388.173 76.1765C388.653 76.7098 389.293 76.9765 390.093 76.9765C390.637 76.9765 391.122 76.8538 391.549 76.6085C391.976 76.3632 392.29 76.0325 392.493 75.6165L393.581 76.0005C393.293 76.6618 392.84 77.1792 392.221 77.5525C391.602 77.9258 390.882 78.1125 390.061 78.1125ZM399 78.1125C398.242 78.1125 397.565 77.9472 396.968 77.6165C396.37 77.2858 395.901 76.8165 395.56 76.2085C395.218 75.5898 395.048 74.8592 395.048 74.0165C395.048 73.1632 395.218 72.4272 395.56 71.8085C395.912 71.1898 396.386 70.7152 396.984 70.3845C397.592 70.0538 398.274 69.8885 399.032 69.8885C399.789 69.8885 400.466 70.0538 401.064 70.3845C401.672 70.7152 402.146 71.1898 402.488 71.8085C402.84 72.4165 403.016 73.1418 403.016 73.9845C403.016 74.8378 402.84 75.5738 402.488 76.1925C402.136 76.8112 401.656 77.2858 401.048 77.6165C400.44 77.9472 399.757 78.1125 399 78.1125ZM398.984 76.9765C399.453 76.9765 399.896 76.8752 400.312 76.6725C400.728 76.4592 401.064 76.1338 401.32 75.6965C401.586 75.2485 401.72 74.6832 401.72 74.0005C401.72 73.3072 401.592 72.7418 401.336 72.3045C401.08 71.8672 400.744 71.5472 400.328 71.3445C399.922 71.1312 399.485 71.0245 399.015 71.0245C398.546 71.0245 398.109 71.1312 397.704 71.3445C397.298 71.5472 396.968 71.8725 396.712 72.3205C396.466 72.7578 396.344 73.3178 396.344 74.0005C396.344 74.6938 396.466 75.2592 396.712 75.6965C396.957 76.1338 397.277 76.4592 397.672 76.6725C398.077 76.8752 398.514 76.9765 398.984 76.9765ZM404.981 70.0005H406.085L406.149 71.1365C406.405 70.7418 406.741 70.4378 407.157 70.2245C407.573 70.0005 408.058 69.8885 408.613 69.8885C409.221 69.8885 409.754 70.0218 410.213 70.2885C410.672 70.5445 411.029 70.9338 411.285 71.4565C411.541 71.9685 411.669 72.6138 411.669 73.3925V78.0005H410.469V73.5365C410.469 72.7045 410.288 72.0752 409.925 71.6485C409.573 71.2112 409.061 70.9925 408.389 70.9925C407.696 70.9925 407.152 71.2218 406.757 71.6805C406.373 72.1392 406.181 72.8165 406.181 73.7125V78.0005H404.981V70.0005ZM414.653 75.5525C414.717 75.8725 414.834 76.1392 415.005 76.3525C415.175 76.5552 415.394 76.7098 415.661 76.8165C415.938 76.9232 416.258 76.9765 416.621 76.9765C417.186 76.9765 417.613 76.8698 417.901 76.6565C418.199 76.4325 418.349 76.1552 418.349 75.8245C418.349 75.5472 418.258 75.3232 418.077 75.1525C417.906 74.9818 417.677 74.8432 417.389 74.7365C417.101 74.6192 416.781 74.5178 416.429 74.4325C416.151 74.3685 415.853 74.2938 415.533 74.2085C415.213 74.1125 414.909 73.9845 414.621 73.8245C414.333 73.6645 414.098 73.4565 413.917 73.2005C413.735 72.9445 413.645 72.6085 413.645 72.1925C413.645 71.7338 413.767 71.3338 414.013 70.9925C414.269 70.6405 414.615 70.3685 415.053 70.1765C415.501 69.9845 416.013 69.8885 416.589 69.8885C417.25 69.8885 417.837 70.0325 418.349 70.3205C418.871 70.6085 419.234 71.0565 419.437 71.6645L418.317 72.0485C418.242 71.7712 418.103 71.5578 417.901 71.4085C417.709 71.2592 417.49 71.1578 417.245 71.1045C417.01 71.0512 416.775 71.0245 416.541 71.0245C416.061 71.0245 415.671 71.1205 415.373 71.3125C415.085 71.4938 414.941 71.7712 414.941 72.1445C414.941 72.3472 414.989 72.5178 415.085 72.6565C415.181 72.7845 415.314 72.8912 415.485 72.9765C415.655 73.0618 415.858 73.1365 416.093 73.2005C416.327 73.2538 416.583 73.3178 416.861 73.3925C417.17 73.4672 417.485 73.5632 417.805 73.6805C418.125 73.7872 418.423 73.9312 418.701 74.1125C418.978 74.2832 419.202 74.5072 419.373 74.7845C419.554 75.0512 419.645 75.3872 419.645 75.7925C419.645 76.2618 419.517 76.6725 419.261 77.0245C419.005 77.3658 418.647 77.6325 418.189 77.8245C417.741 78.0165 417.218 78.1125 416.621 78.1125C415.799 78.1125 415.117 77.9312 414.573 77.5685C414.039 77.1952 413.682 76.6512 413.501 75.9365L414.653 75.5525ZM428.134 78.0005H427.046L426.966 76.8485C426.721 77.2538 426.39 77.5685 425.974 77.7925C425.558 78.0058 425.073 78.1125 424.518 78.1125C423.9 78.1125 423.361 77.9845 422.902 77.7285C422.444 77.4725 422.086 77.0885 421.83 76.5765C421.585 76.0645 421.462 75.4192 421.462 74.6405V70.0005H422.646V74.5125C422.646 75.3338 422.822 75.9578 423.174 76.3845C423.537 76.8005 424.054 77.0085 424.726 77.0085C425.409 77.0085 425.948 76.7898 426.342 76.3525C426.748 75.9045 426.95 75.2325 426.95 74.3365V70.0005H428.134V78.0005ZM430.575 66.4805H431.775V78.0005H430.575V66.4805ZM434.727 70.0005V67.7605H435.927V70.0005H438.055V71.1205H435.927V75.4245C435.927 75.9152 436.029 76.2725 436.231 76.4965C436.445 76.7205 436.711 76.8538 437.031 76.8965C437.362 76.9392 437.703 76.9392 438.055 76.8965V77.9365C437.639 78.0325 437.229 78.0592 436.823 78.0165C436.429 77.9738 436.071 77.8565 435.751 77.6645C435.442 77.4618 435.191 77.1792 434.999 76.8165C434.818 76.4538 434.727 75.9898 434.727 75.4245V71.1205H433.527V70.0005H434.727ZM444.848 78.0005L444.752 76.5605C444.528 77.0512 444.198 77.4352 443.76 77.7125C443.323 77.9792 442.768 78.1125 442.096 78.1125C441.52 78.1125 441.03 78.0218 440.624 77.8405C440.219 77.6592 439.904 77.4032 439.68 77.0725C439.467 76.7312 439.36 76.3312 439.36 75.8725C439.36 75.2005 439.611 74.6512 440.112 74.2245C440.614 73.7872 441.339 73.5205 442.288 73.4245L444.752 73.1525V72.5125C444.752 72.0645 444.587 71.7072 444.256 71.4405C443.926 71.1632 443.478 71.0245 442.912 71.0245C442.358 71.0245 441.894 71.1525 441.52 71.4085C441.158 71.6645 440.907 72.0325 440.768 72.5125L439.68 72.1285C439.894 71.4245 440.283 70.8752 440.848 70.4805C441.424 70.0858 442.123 69.8885 442.944 69.8885C443.894 69.8885 444.63 70.1338 445.152 70.6245C445.686 71.1045 445.952 71.7605 445.952 72.5925V78.0005H444.848ZM444.752 74.1765L442.272 74.4645C441.739 74.5285 441.334 74.6778 441.056 74.9125C440.779 75.1365 440.64 75.4352 440.64 75.8085C440.64 76.1818 440.774 76.4805 441.04 76.7045C441.318 76.9285 441.712 77.0405 442.224 77.0405C442.811 77.0405 443.291 76.9232 443.664 76.6885C444.038 76.4538 444.31 76.1392 444.48 75.7445C444.662 75.3392 444.752 74.9018 444.752 74.4325V74.1765ZM448.294 70.0005H449.398L449.462 71.1365C449.718 70.7418 450.054 70.4378 450.47 70.2245C450.886 70.0005 451.371 69.8885 451.926 69.8885C452.534 69.8885 453.067 70.0218 453.526 70.2885C453.984 70.5445 454.342 70.9338 454.598 71.4565C454.854 71.9685 454.982 72.6138 454.982 73.3925V78.0005H453.782V73.5365C453.782 72.7045 453.6 72.0752 453.238 71.6485C452.886 71.2112 452.374 70.9925 451.702 70.9925C451.008 70.9925 450.464 71.2218 450.07 71.6805C449.686 72.1392 449.494 72.8165 449.494 73.7125V78.0005H448.294V70.0005ZM457.821 70.0005V67.7605H459.021V70.0005H461.149V71.1205H459.021V75.4245C459.021 75.9152 459.122 76.2725 459.325 76.4965C459.538 76.7205 459.805 76.8538 460.125 76.8965C460.456 76.9392 460.797 76.9392 461.149 76.8965V77.9365C460.733 78.0325 460.322 78.0592 459.917 78.0165C459.522 77.9738 459.165 77.8565 458.845 77.6645C458.536 77.4618 458.285 77.1792 458.093 76.8165C457.912 76.4538 457.821 75.9898 457.821 75.4245V71.1205H456.621V70.0005H457.821ZM463.59 75.5525C463.654 75.8725 463.771 76.1392 463.942 76.3525C464.113 76.5552 464.331 76.7098 464.598 76.8165C464.875 76.9232 465.195 76.9765 465.558 76.9765C466.123 76.9765 466.55 76.8698 466.838 76.6565C467.137 76.4325 467.286 76.1552 467.286 75.8245C467.286 75.5472 467.195 75.3232 467.014 75.1525C466.843 74.9818 466.614 74.8432 466.326 74.7365C466.038 74.6192 465.718 74.5178 465.366 74.4325C465.089 74.3685 464.79 74.2938 464.47 74.2085C464.15 74.1125 463.846 73.9845 463.558 73.8245C463.27 73.6645 463.035 73.4565 462.854 73.2005C462.673 72.9445 462.582 72.6085 462.582 72.1925C462.582 71.7338 462.705 71.3338 462.95 70.9925C463.206 70.6405 463.553 70.3685 463.99 70.1765C464.438 69.9845 464.95 69.8885 465.526 69.8885C466.187 69.8885 466.774 70.0325 467.286 70.3205C467.809 70.6085 468.171 71.0565 468.374 71.6645L467.254 72.0485C467.179 71.7712 467.041 71.5578 466.838 71.4085C466.646 71.2592 466.427 71.1578 466.182 71.1045C465.947 71.0512 465.713 71.0245 465.478 71.0245C464.998 71.0245 464.609 71.1205 464.31 71.3125C464.022 71.4938 463.878 71.7712 463.878 72.1445C463.878 72.3472 463.926 72.5178 464.022 72.6565C464.118 72.7845 464.251 72.8912 464.422 72.9765C464.593 73.0618 464.795 73.1365 465.03 73.2005C465.265 73.2538 465.521 73.3178 465.798 73.3925C466.107 73.4672 466.422 73.5632 466.742 73.6805C467.062 73.7872 467.361 73.9312 467.638 74.1125C467.915 74.2832 468.139 74.5072 468.31 74.7845C468.491 75.0512 468.582 75.3872 468.582 75.7925C468.582 76.2618 468.454 76.6725 468.198 77.0245C467.942 77.3658 467.585 77.6325 467.126 77.8245C466.678 78.0165 466.155 78.1125 465.558 78.1125C464.737 78.1125 464.054 77.9312 463.51 77.5685C462.977 77.1952 462.619 76.6512 462.438 75.9365L463.59 75.5525Z" fill="#9CA3AF"/>
<path d="M236 73.1992H469.303V73.9992H236V73.1992Z" fill="#9CA3AF"/>
</g>
<g filter="url(#filter2_dd_5522_71839)">
<path d="M523.331 31.7646L504.013 26.5882C498.678 25.1588 493.195 28.3246 491.765 33.6593L486.589 52.9778C485.16 58.3124 488.325 63.7958 493.66 65.2252L512.979 70.4016C518.313 71.831 523.797 68.6652 525.226 63.3305L530.402 44.012C531.832 38.6774 528.666 33.194 523.331 31.7646Z" fill="white"/>
<path d="M523.461 31.2807L504.142 26.1043C498.541 24.6034 492.783 27.9275 491.282 33.5289L486.106 52.8475C484.605 58.4488 487.929 64.2064 493.531 65.7073L512.849 70.8837C518.451 72.3845 524.208 69.0604 525.709 63.459L530.885 44.1405C532.386 38.5391 529.062 32.7816 523.461 31.2807Z" stroke="#F3F4F7"/>
<mask id="mask0_5522_71839" style="mask-type:luminance" maskUnits="userSpaceOnUse" x="493" y="33" width="31" height="31">
<path d="M523.194 40.0085L500.012 33.7969L493.8 56.9791L516.982 63.1908L523.194 40.0085Z" fill="white"/>
</mask>
<g mask="url(#mask0_5522_71839)">
<path d="M505.081 49.6479C504.653 51.2484 506.899 53.2408 510.101 54.0986C513.302 54.9563 516.244 54.3542 516.673 52.7537M505.081 49.6479C505.51 48.0473 508.452 47.4453 511.653 48.303C514.854 49.1607 517.101 51.1532 516.673 52.7537M505.081 49.6479L504.046 53.5116C503.618 55.1112 505.864 57.1045 509.065 57.9623C512.266 58.82 515.209 58.217 515.637 56.6174L516.673 52.7537M501.356 40.3676C501.079 41.403 501.928 42.6554 503.582 43.6535C505.236 44.6516 507.446 45.2438 509.377 45.2064C511.309 45.169 512.67 44.5089 512.948 43.4734C513.225 42.4379 512.376 41.1856 510.722 40.1875C509.068 39.1893 506.858 38.5972 504.927 38.6345C502.995 38.6719 501.634 39.3321 501.356 40.3676ZM501.356 40.3676L498.768 50.0268C498.538 50.8846 499.139 51.6272 500.182 52.4763M500.062 45.1972C499.832 46.0549 500.433 46.7976 501.477 47.6467" stroke="#71717A" stroke-width="1.2" stroke-linecap="round" stroke-linejoin="round"/>
</g>
</g>
<g filter="url(#filter3_dd_5522_71839)">
<path d="M191.182 239.07L175.727 243.211C171.46 244.354 168.927 248.741 170.071 253.009L174.212 268.463C175.355 272.731 179.742 275.264 184.01 274.12L199.464 269.979C203.732 268.836 206.265 264.449 205.121 260.181L200.98 244.726C199.837 240.459 195.45 237.926 191.182 239.07Z" fill="white"/>
<path d="M191.052 238.587L175.597 242.728C171.063 243.943 168.372 248.604 169.587 253.138L173.728 268.593C174.943 273.127 179.604 275.818 184.138 274.603L199.593 270.462C204.127 269.247 206.818 264.586 205.603 260.052L201.462 244.597C200.247 240.063 195.586 237.372 191.052 238.587Z" stroke="#F3F4F7"/>
<mask id="mask1_5522_71839" style="mask-type:luminance" maskUnits="userSpaceOnUse" x="176" y="245" width="23" height="23">
<path d="M193.959 245.572L176.572 250.23L181.231 267.617L198.618 262.958L193.959 245.572Z" fill="white"/>
</mask>
<g mask="url(#mask1_5522_71839)">
<path d="M188.745 249.299L189.522 252.196M182.95 250.851L183.726 253.749M181.605 257.423L193.196 254.318M180.828 254.526C180.725 254.141 180.779 253.732 180.978 253.387C181.177 253.043 181.505 252.792 181.889 252.689L190.582 250.359C190.966 250.256 191.376 250.31 191.72 250.509C192.065 250.708 192.316 251.036 192.419 251.42L194.749 260.113C194.852 260.497 194.798 260.907 194.599 261.251C194.4 261.596 194.072 261.847 193.688 261.95L184.995 264.28C184.61 264.383 184.201 264.329 183.856 264.13C183.512 263.931 183.261 263.603 183.158 263.219L180.828 254.526Z" stroke="#71717A" stroke-width="1.2" stroke-linecap="round" stroke-linejoin="round"/>
</g>
</g>
<path d="M703 0H1V360H703V0Z" fill="url(#paint4_linear_5522_71839)"/>
<g opacity="0.2" filter="url(#filter4_f_5522_71839)">
<path d="M788.299 242.641C686.923 316.094 627.363 464.038 627.363 464.038C627.363 464.038 564.08 444.814 540.633 440.673C597.673 406.663 594.324 322.267 631.052 261.676C660.628 248.299 757.527 250.183 788.299 242.641Z" fill="url(#paint5_linear_5522_71839)"/>
</g>
<g opacity="0.2" filter="url(#filter5_f_5522_71839)">
<path d="M-52.3652 306.03C31.2089 233.104 72.5717 103.863 72.5717 103.863C72.5717 103.863 129.547 111.994 150.437 112.547C102.873 147.546 112.045 216.719 84.2754 271.155C59.2988 285.791 -25.9072 296.057 -52.3652 306.03Z" fill="url(#paint6_linear_5522_71839)"/>
</g>
<g filter="url(#filter6_dd_5522_71839)">
<path d="M536 116H168C159.163 116 152 123.163 152 132V210C152 218.837 159.163 226 168 226H536C544.837 226 552 218.837 552 210V132C552 123.163 544.837 116 536 116Z" fill="white"/>
<path d="M536 116.5H168C159.44 116.5 152.5 123.44 152.5 132V210C152.5 218.56 159.44 225.5 168 225.5H536C544.56 225.5 551.5 218.56 551.5 210V132C551.5 123.44 544.56 116.5 536 116.5Z" stroke="#F3F4F7"/>
<g filter="url(#filter7_i_5522_71839)">
<path d="M516 136H188C181.373 136 176 141.373 176 148V164C176 170.627 181.373 176 188 176H516C522.627 176 528 170.627 528 164V148C528 141.373 522.627 136 516 136Z" fill="#266AE9"/>
</g>
<path d="M302.397 154.196C302.042 153.533 301.59 153.053 301.039 152.754C300.498 152.455 299.905 152.306 299.261 152.306C298.608 152.306 298.01 152.465 297.469 152.782C296.928 153.099 296.498 153.543 296.181 154.112C295.873 154.672 295.719 155.335 295.719 156.1C295.719 156.856 295.873 157.519 296.181 158.088C296.489 158.657 296.909 159.101 297.441 159.418C297.982 159.735 298.584 159.894 299.247 159.894C299.723 159.894 300.171 159.81 300.591 159.642C301.011 159.474 301.375 159.241 301.683 158.942C302 158.643 302.248 158.289 302.425 157.878V156.814H299.345V155.666H303.839V157.948C303.615 158.545 303.279 159.082 302.831 159.558C302.392 160.034 301.865 160.412 301.249 160.692C300.642 160.963 299.975 161.098 299.247 161.098C298.556 161.098 297.908 160.977 297.301 160.734C296.704 160.491 296.181 160.151 295.733 159.712C295.285 159.264 294.935 158.737 294.683 158.13C294.431 157.514 294.305 156.837 294.305 156.1C294.305 155.372 294.431 154.705 294.683 154.098C294.935 153.482 295.285 152.95 295.733 152.502C296.181 152.054 296.704 151.709 297.301 151.466C297.908 151.223 298.556 151.102 299.247 151.102C299.872 151.102 300.47 151.205 301.039 151.41C301.608 151.615 302.117 151.914 302.565 152.306C303.013 152.698 303.363 153.179 303.615 153.748L302.397 154.196ZM308.537 161.098C307.865 161.098 307.268 160.944 306.745 160.636C306.232 160.319 305.826 159.885 305.527 159.334C305.238 158.783 305.093 158.153 305.093 157.444C305.093 156.763 305.238 156.156 305.527 155.624C305.817 155.092 306.213 154.672 306.717 154.364C307.231 154.056 307.809 153.902 308.453 153.902C309.107 153.902 309.685 154.047 310.189 154.336C310.693 154.616 311.085 155.013 311.365 155.526C311.645 156.03 311.781 156.613 311.771 157.276C311.771 157.388 311.767 157.505 311.757 157.626C311.748 157.738 311.734 157.864 311.715 158.004H306.535C306.563 158.377 306.666 158.709 306.843 158.998C307.03 159.278 307.263 159.497 307.543 159.656C307.833 159.815 308.159 159.894 308.523 159.894C308.99 159.894 309.396 159.805 309.741 159.628C310.087 159.441 310.329 159.194 310.469 158.886L311.617 159.292C311.337 159.861 310.927 160.305 310.385 160.622C309.853 160.939 309.237 161.098 308.537 161.098ZM310.329 156.87C310.329 156.534 310.245 156.231 310.077 155.96C309.909 155.689 309.681 155.479 309.391 155.33C309.111 155.171 308.794 155.092 308.439 155.092C308.122 155.092 307.828 155.171 307.557 155.33C307.296 155.479 307.072 155.689 306.885 155.96C306.708 156.221 306.596 156.525 306.549 156.87H310.329ZM313.388 154H314.592L314.676 154.812C314.9 154.523 315.185 154.299 315.53 154.14C315.875 153.981 316.258 153.902 316.678 153.902C317.219 153.902 317.686 154.019 318.078 154.252C318.479 154.476 318.787 154.812 319.002 155.26C319.226 155.708 319.338 156.268 319.338 156.94V161H318.022V157.108C318.022 156.455 317.882 155.96 317.602 155.624C317.331 155.279 316.935 155.106 316.412 155.106C315.871 155.106 315.451 155.283 315.152 155.638C314.853 155.983 314.704 156.497 314.704 157.178V161H313.388V154ZM324.274 161.098C323.602 161.098 323.004 160.944 322.482 160.636C321.968 160.319 321.562 159.885 321.264 159.334C320.974 158.783 320.83 158.153 320.83 157.444C320.83 156.763 320.974 156.156 321.264 155.624C321.553 155.092 321.95 154.672 322.454 154.364C322.967 154.056 323.546 153.902 324.19 153.902C324.843 153.902 325.422 154.047 325.926 154.336C326.43 154.616 326.822 155.013 327.102 155.526C327.382 156.03 327.517 156.613 327.508 157.276C327.508 157.388 327.503 157.505 327.494 157.626C327.484 157.738 327.47 157.864 327.452 158.004H322.272C322.3 158.377 322.402 158.709 322.58 158.998C322.766 159.278 323 159.497 323.28 159.656C323.569 159.815 323.896 159.894 324.26 159.894C324.726 159.894 325.132 159.805 325.478 159.628C325.823 159.441 326.066 159.194 326.206 158.886L327.354 159.292C327.074 159.861 326.663 160.305 326.122 160.622C325.59 160.939 324.974 161.098 324.274 161.098ZM326.066 156.87C326.066 156.534 325.982 156.231 325.814 155.96C325.646 155.689 325.417 155.479 325.128 155.33C324.848 155.171 324.53 155.092 324.176 155.092C323.858 155.092 323.564 155.171 323.294 155.33C323.032 155.479 322.808 155.689 322.622 155.96C322.444 156.221 322.332 156.525 322.286 156.87H326.066ZM329.124 154H330.328L330.412 154.938C330.608 154.695 330.832 154.495 331.084 154.336C331.346 154.168 331.626 154.051 331.924 153.986C332.232 153.921 332.55 153.925 332.876 154V155.246C332.568 155.171 332.27 155.162 331.98 155.218C331.691 155.274 331.43 155.395 331.196 155.582C330.972 155.759 330.79 155.997 330.65 156.296C330.51 156.595 330.44 156.954 330.44 157.374V161H329.124V154ZM338.48 161L338.368 159.978C338.154 160.333 337.874 160.608 337.528 160.804C337.192 160.991 336.754 161.084 336.212 161.084C335.708 161.084 335.279 161.005 334.924 160.846C334.57 160.678 334.294 160.449 334.098 160.16C333.912 159.861 333.818 159.516 333.818 159.124C333.818 158.536 334.038 158.051 334.476 157.668C334.915 157.276 335.55 157.033 336.38 156.94L338.368 156.716V156.17C338.368 155.871 338.247 155.619 338.004 155.414C337.762 155.199 337.412 155.092 336.954 155.092C336.525 155.092 336.161 155.195 335.862 155.4C335.564 155.596 335.363 155.89 335.26 156.282L334.084 155.862C334.262 155.246 334.607 154.765 335.12 154.42C335.643 154.075 336.273 153.902 337.01 153.902C337.888 153.902 338.555 154.121 339.012 154.56C339.47 154.999 339.698 155.577 339.698 156.296V161H338.48ZM338.368 157.794L336.45 158.032C336.04 158.088 335.732 158.205 335.526 158.382C335.321 158.55 335.218 158.774 335.218 159.054C335.218 159.315 335.316 159.535 335.512 159.712C335.718 159.88 336.002 159.964 336.366 159.964C336.814 159.964 337.188 159.88 337.486 159.712C337.785 159.544 338.004 159.311 338.144 159.012C338.294 158.704 338.368 158.349 338.368 157.948V157.794ZM342.041 154V152.04H343.371V154H345.121V155.176H343.371V158.62C343.371 159.049 343.455 159.353 343.623 159.53C343.8 159.707 344.02 159.81 344.281 159.838C344.552 159.857 344.832 159.847 345.121 159.81V160.944C344.738 161.028 344.36 161.051 343.987 161.014C343.623 160.986 343.292 160.883 342.993 160.706C342.704 160.529 342.47 160.272 342.293 159.936C342.125 159.591 342.041 159.152 342.041 158.62V155.176H341.033V154H342.041ZM349.635 161.098C348.963 161.098 348.366 160.944 347.843 160.636C347.33 160.319 346.924 159.885 346.625 159.334C346.336 158.783 346.191 158.153 346.191 157.444C346.191 156.763 346.336 156.156 346.625 155.624C346.914 155.092 347.311 154.672 347.815 154.364C348.328 154.056 348.907 153.902 349.551 153.902C350.204 153.902 350.783 154.047 351.287 154.336C351.791 154.616 352.183 155.013 352.463 155.526C352.743 156.03 352.878 156.613 352.869 157.276C352.869 157.388 352.864 157.505 352.855 157.626C352.846 157.738 352.832 157.864 352.813 158.004H347.633C347.661 158.377 347.764 158.709 347.941 158.998C348.128 159.278 348.361 159.497 348.641 159.656C348.93 159.815 349.257 159.894 349.621 159.894C350.088 159.894 350.494 159.805 350.839 159.628C351.184 159.441 351.427 159.194 351.567 158.886L352.715 159.292C352.435 159.861 352.024 160.305 351.483 160.622C350.951 160.939 350.335 161.098 349.635 161.098ZM351.427 156.87C351.427 156.534 351.343 156.231 351.175 155.96C351.007 155.689 350.778 155.479 350.489 155.33C350.209 155.171 349.892 155.092 349.537 155.092C349.22 155.092 348.926 155.171 348.655 155.33C348.394 155.479 348.17 155.689 347.983 155.96C347.806 156.221 347.694 156.525 347.647 156.87H351.427ZM362.511 152.376H362.021L358.941 161H357.513L361.041 151.2H363.463L366.991 161H365.563L362.511 152.376ZM359.319 157.332H365.031V158.508H359.319V157.332ZM368.103 154H369.307L369.391 154.812C369.615 154.523 369.899 154.299 370.245 154.14C370.59 153.981 370.973 153.902 371.393 153.902C371.934 153.902 372.401 154.019 372.793 154.252C373.194 154.476 373.502 154.812 373.717 155.26C373.941 155.708 374.053 156.268 374.053 156.94V161H372.737V157.108C372.737 156.455 372.597 155.96 372.317 155.624C372.046 155.279 371.649 155.106 371.127 155.106C370.585 155.106 370.165 155.283 369.867 155.638C369.568 155.983 369.419 156.497 369.419 157.178V161H368.103V154ZM380.22 161L380.108 159.978C379.894 160.333 379.614 160.608 379.268 160.804C378.932 160.991 378.494 161.084 377.952 161.084C377.448 161.084 377.019 161.005 376.664 160.846C376.31 160.678 376.034 160.449 375.838 160.16C375.652 159.861 375.558 159.516 375.558 159.124C375.558 158.536 375.778 158.051 376.216 157.668C376.655 157.276 377.29 157.033 378.12 156.94L380.108 156.716V156.17C380.108 155.871 379.987 155.619 379.744 155.414C379.502 155.199 379.152 155.092 378.694 155.092C378.265 155.092 377.901 155.195 377.602 155.4C377.304 155.596 377.103 155.89 377 156.282L375.824 155.862C376.002 155.246 376.347 154.765 376.86 154.42C377.383 154.075 378.013 153.902 378.75 153.902C379.628 153.902 380.295 154.121 380.752 154.56C381.21 154.999 381.438 155.577 381.438 156.296V161H380.22ZM380.108 157.794L378.19 158.032C377.78 158.088 377.472 158.205 377.266 158.382C377.061 158.55 376.958 158.774 376.958 159.054C376.958 159.315 377.056 159.535 377.252 159.712C377.458 159.88 377.742 159.964 378.106 159.964C378.554 159.964 378.928 159.88 379.226 159.712C379.525 159.544 379.744 159.311 379.884 159.012C380.034 158.704 380.108 158.349 380.108 157.948V157.794ZM383.333 150.92H384.649V161H383.333V150.92ZM391.429 154H392.801L388.741 163.8H387.439L388.671 160.86L385.899 154H387.355L389.385 159.306L391.429 154ZM394.85 158.788C394.915 159.068 395.027 159.287 395.186 159.446C395.344 159.605 395.531 159.721 395.746 159.796C395.97 159.861 396.203 159.894 396.446 159.894C396.866 159.894 397.192 159.81 397.426 159.642C397.659 159.474 397.776 159.264 397.776 159.012C397.776 158.797 397.701 158.629 397.552 158.508C397.412 158.377 397.22 158.275 396.978 158.2C396.744 158.125 396.492 158.055 396.222 157.99C395.979 157.925 395.713 157.85 395.424 157.766C395.144 157.682 394.878 157.57 394.626 157.43C394.383 157.281 394.182 157.094 394.024 156.87C393.865 156.637 393.786 156.343 393.786 155.988C393.786 155.568 393.898 155.204 394.122 154.896C394.355 154.579 394.672 154.336 395.074 154.168C395.484 153.991 395.946 153.902 396.46 153.902C397.057 153.902 397.58 154.033 398.028 154.294C398.485 154.546 398.816 154.929 399.022 155.442L397.832 155.834C397.766 155.657 397.659 155.512 397.51 155.4C397.36 155.288 397.188 155.213 396.992 155.176C396.805 155.129 396.618 155.106 396.432 155.106C396.077 155.106 395.783 155.176 395.55 155.316C395.316 155.456 395.2 155.661 395.2 155.932C395.2 156.081 395.237 156.207 395.312 156.31C395.386 156.403 395.489 156.483 395.62 156.548C395.76 156.604 395.923 156.655 396.11 156.702C396.296 156.749 396.497 156.8 396.712 156.856C396.992 156.94 397.276 157.033 397.566 157.136C397.855 157.229 398.121 157.351 398.364 157.5C398.606 157.649 398.802 157.845 398.952 158.088C399.101 158.331 399.18 158.629 399.19 158.984C399.19 159.395 399.073 159.759 398.84 160.076C398.616 160.393 398.294 160.645 397.874 160.832C397.463 161.009 396.973 161.098 396.404 161.098C395.713 161.098 395.125 160.944 394.64 160.636C394.154 160.328 393.828 159.852 393.66 159.208L394.85 158.788ZM401.002 154H402.332V161H401.002V154ZM401.674 152.768C401.422 152.768 401.212 152.684 401.044 152.516C400.876 152.348 400.792 152.143 400.792 151.9C400.792 151.648 400.876 151.438 401.044 151.27C401.212 151.093 401.422 151.004 401.674 151.004C401.917 151.004 402.122 151.093 402.29 151.27C402.468 151.438 402.556 151.648 402.556 151.9C402.556 152.143 402.468 152.348 402.29 152.516C402.122 152.684 401.917 152.768 401.674 152.768ZM405.322 158.788C405.388 159.068 405.5 159.287 405.658 159.446C405.817 159.605 406.004 159.721 406.218 159.796C406.442 159.861 406.676 159.894 406.918 159.894C407.338 159.894 407.665 159.81 407.898 159.642C408.132 159.474 408.248 159.264 408.248 159.012C408.248 158.797 408.174 158.629 408.024 158.508C407.884 158.377 407.693 158.275 407.45 158.2C407.217 158.125 406.965 158.055 406.694 157.99C406.452 157.925 406.186 157.85 405.896 157.766C405.616 157.682 405.35 157.57 405.098 157.43C404.856 157.281 404.655 157.094 404.496 156.87C404.338 156.637 404.258 156.343 404.258 155.988C404.258 155.568 404.37 155.204 404.594 154.896C404.828 154.579 405.145 154.336 405.546 154.168C405.957 153.991 406.419 153.902 406.932 153.902C407.53 153.902 408.052 154.033 408.5 154.294C408.958 154.546 409.289 154.929 409.494 155.442L408.304 155.834C408.239 155.657 408.132 155.512 407.982 155.4C407.833 155.288 407.66 155.213 407.464 155.176C407.278 155.129 407.091 155.106 406.904 155.106C406.55 155.106 406.256 155.176 406.022 155.316C405.789 155.456 405.672 155.661 405.672 155.932C405.672 156.081 405.71 156.207 405.784 156.31C405.859 156.403 405.962 156.483 406.092 156.548C406.232 156.604 406.396 156.655 406.582 156.702C406.769 156.749 406.97 156.8 407.184 156.856C407.464 156.94 407.749 157.033 408.038 157.136C408.328 157.229 408.594 157.351 408.836 157.5C409.079 157.649 409.275 157.845 409.424 158.088C409.574 158.331 409.653 158.629 409.662 158.984C409.662 159.395 409.546 159.759 409.312 160.076C409.088 160.393 408.766 160.645 408.346 160.832C407.936 161.009 407.446 161.098 406.876 161.098C406.186 161.098 405.598 160.944 405.112 160.636C404.627 160.328 404.3 159.852 404.132 159.208L405.322 158.788Z" fill="white"/>
<path d="M259.602 196.1C259.602 195.363 259.723 194.691 259.966 194.084C260.209 193.468 260.549 192.941 260.988 192.502C261.436 192.054 261.949 191.709 262.528 191.466C263.116 191.223 263.755 191.102 264.446 191.102C265.454 191.102 266.336 191.335 267.092 191.802C267.857 192.269 268.436 192.931 268.828 193.79L267.918 194.126C267.703 193.669 267.419 193.295 267.064 193.006C266.709 192.707 266.308 192.483 265.86 192.334C265.412 192.185 264.941 192.11 264.446 192.11C263.746 192.11 263.116 192.269 262.556 192.586C261.996 192.903 261.553 193.361 261.226 193.958C260.909 194.555 260.75 195.269 260.75 196.1C260.75 196.921 260.909 197.631 261.226 198.228C261.553 198.825 261.996 199.287 262.556 199.614C263.116 199.931 263.746 200.09 264.446 200.09C264.95 200.09 265.431 200.011 265.888 199.852C266.345 199.693 266.756 199.446 267.12 199.11C267.493 198.774 267.792 198.354 268.016 197.85L268.926 198.186C268.525 199.147 267.937 199.875 267.162 200.37C266.387 200.855 265.482 201.098 264.446 201.098C263.755 201.098 263.116 200.977 262.528 200.734C261.949 200.491 261.436 200.146 260.988 199.698C260.549 199.25 260.209 198.723 259.966 198.116C259.723 197.5 259.602 196.828 259.602 196.1ZM270.783 190.92H271.833V201H270.783V190.92ZM278.351 201L278.267 199.74C278.071 200.169 277.781 200.505 277.399 200.748C277.016 200.981 276.531 201.098 275.943 201.098C275.439 201.098 275.009 201.019 274.655 200.86C274.3 200.701 274.025 200.477 273.829 200.188C273.642 199.889 273.549 199.539 273.549 199.138C273.549 198.55 273.768 198.069 274.207 197.696C274.645 197.313 275.28 197.08 276.111 196.996L278.267 196.758V196.198C278.267 195.806 278.122 195.493 277.833 195.26C277.543 195.017 277.151 194.896 276.657 194.896C276.171 194.896 275.765 195.008 275.439 195.232C275.121 195.456 274.902 195.778 274.781 196.198L273.829 195.862C274.015 195.246 274.356 194.765 274.851 194.42C275.355 194.075 275.966 193.902 276.685 193.902C277.515 193.902 278.159 194.117 278.617 194.546C279.083 194.966 279.317 195.54 279.317 196.268V201H278.351ZM278.267 197.654L276.097 197.906C275.63 197.962 275.275 198.093 275.033 198.298C274.79 198.494 274.669 198.755 274.669 199.082C274.669 199.409 274.785 199.67 275.019 199.866C275.261 200.062 275.607 200.16 276.055 200.16C276.568 200.16 276.988 200.057 277.315 199.852C277.641 199.647 277.879 199.371 278.029 199.026C278.187 198.671 278.267 198.289 278.267 197.878V197.654ZM281.365 194H282.331L282.387 195.022C282.574 194.77 282.798 194.555 283.059 194.378C283.33 194.201 283.624 194.079 283.941 194.014C284.268 193.939 284.613 193.935 284.977 194V195.05C284.585 194.975 284.23 194.975 283.913 195.05C283.605 195.125 283.339 195.265 283.115 195.47C282.891 195.675 282.718 195.937 282.597 196.254C282.476 196.562 282.415 196.921 282.415 197.332V201H281.365V194ZM286.62 194H287.656V201H286.62V194ZM287.152 192.6C286.937 192.6 286.76 192.53 286.62 192.39C286.48 192.25 286.41 192.077 286.41 191.872C286.41 191.657 286.48 191.48 286.62 191.34C286.76 191.2 286.937 191.13 287.152 191.13C287.348 191.13 287.516 191.2 287.656 191.34C287.805 191.48 287.88 191.657 287.88 191.872C287.88 192.077 287.805 192.25 287.656 192.39C287.516 192.53 287.348 192.6 287.152 192.6ZM290.467 194V192.04H291.517V194H293.379V194.98H291.517V198.746C291.517 199.175 291.606 199.488 291.783 199.684C291.97 199.88 292.203 199.997 292.483 200.034C292.773 200.071 293.071 200.071 293.379 200.034V200.944C293.015 201.028 292.656 201.051 292.301 201.014C291.956 200.977 291.643 200.874 291.363 200.706C291.093 200.529 290.873 200.281 290.705 199.964C290.547 199.647 290.467 199.241 290.467 198.746V194.98H289.417V194H290.467ZM299.687 194H300.779L296.775 203.8H295.767L296.957 200.902L294.129 194H295.277L297.517 199.656L299.687 194ZM306.253 194H307.289V201H306.253V194ZM306.785 192.6C306.57 192.6 306.393 192.53 306.253 192.39C306.113 192.25 306.043 192.077 306.043 191.872C306.043 191.657 306.113 191.48 306.253 191.34C306.393 191.2 306.57 191.13 306.785 191.13C306.981 191.13 307.149 191.2 307.289 191.34C307.438 191.48 307.513 191.657 307.513 191.872C307.513 192.077 307.438 192.25 307.289 192.39C307.149 192.53 306.981 192.6 306.785 192.6ZM309.652 194H310.618L310.674 194.994C310.898 194.649 311.192 194.383 311.556 194.196C311.92 194 312.345 193.902 312.83 193.902C313.362 193.902 313.829 194.019 314.23 194.252C314.632 194.476 314.944 194.817 315.168 195.274C315.392 195.722 315.504 196.287 315.504 196.968V201H314.454V197.094C314.454 196.366 314.296 195.815 313.978 195.442C313.67 195.059 313.222 194.868 312.634 194.868C312.028 194.868 311.552 195.069 311.206 195.47C310.87 195.871 310.702 196.464 310.702 197.248V201H309.652V194ZM320.989 196.1C320.989 195.363 321.11 194.691 321.353 194.084C321.595 193.468 321.936 192.941 322.375 192.502C322.823 192.054 323.336 191.709 323.915 191.466C324.503 191.223 325.142 191.102 325.833 191.102C326.841 191.102 327.723 191.335 328.479 191.802C329.244 192.269 329.823 192.931 330.215 193.79L329.305 194.126C329.09 193.669 328.805 193.295 328.451 193.006C328.096 192.707 327.695 192.483 327.247 192.334C326.799 192.185 326.327 192.11 325.833 192.11C325.133 192.11 324.503 192.269 323.943 192.586C323.383 192.903 322.939 193.361 322.613 193.958C322.295 194.555 322.137 195.269 322.137 196.1C322.137 196.921 322.295 197.631 322.613 198.228C322.939 198.825 323.383 199.287 323.943 199.614C324.503 199.931 325.133 200.09 325.833 200.09C326.337 200.09 326.817 200.011 327.275 199.852C327.732 199.693 328.143 199.446 328.507 199.11C328.88 198.774 329.179 198.354 329.403 197.85L330.313 198.186C329.911 199.147 329.323 199.875 328.549 200.37C327.774 200.855 326.869 201.098 325.833 201.098C325.142 201.098 324.503 200.977 323.915 200.734C323.336 200.491 322.823 200.146 322.375 199.698C321.936 199.25 321.595 198.723 321.353 198.116C321.11 197.5 320.989 196.828 320.989 196.1ZM332.17 190.92H333.22V201H332.17V190.92ZM335.565 194H336.601V201H335.565V194ZM336.097 192.6C335.883 192.6 335.705 192.53 335.565 192.39C335.425 192.25 335.355 192.077 335.355 191.872C335.355 191.657 335.425 191.48 335.565 191.34C335.705 191.2 335.883 191.13 336.097 191.13C336.293 191.13 336.461 191.2 336.601 191.34C336.751 191.48 336.825 191.657 336.825 191.872C336.825 192.077 336.751 192.25 336.601 192.39C336.461 192.53 336.293 192.6 336.097 192.6ZM341.947 201.098C341.265 201.098 340.668 200.949 340.155 200.65C339.641 200.351 339.24 199.936 338.951 199.404C338.671 198.863 338.531 198.237 338.531 197.528C338.531 196.809 338.671 196.179 338.951 195.638C339.24 195.087 339.641 194.663 340.155 194.364C340.668 194.056 341.265 193.902 341.947 193.902C342.665 193.902 343.295 194.07 343.837 194.406C344.378 194.733 344.77 195.19 345.013 195.778L344.047 196.114C343.907 195.741 343.65 195.447 343.277 195.232C342.913 195.008 342.488 194.896 342.003 194.896C341.527 194.896 341.111 195.003 340.757 195.218C340.411 195.433 340.141 195.736 339.945 196.128C339.758 196.52 339.665 196.982 339.665 197.514C339.665 198.298 339.875 198.928 340.295 199.404C340.715 199.871 341.275 200.104 341.975 200.104C342.451 200.104 342.875 199.997 343.249 199.782C343.622 199.567 343.897 199.278 344.075 198.914L345.027 199.25C344.775 199.829 344.378 200.281 343.837 200.608C343.295 200.935 342.665 201.098 341.947 201.098ZM346.744 190.92H347.808V197.038H348.452L351.21 194H352.694L349.39 197.5L352.708 201H351.21L348.452 197.948H347.808V201H346.744V190.92ZM354.564 198.858C354.62 199.138 354.723 199.371 354.872 199.558C355.021 199.735 355.213 199.871 355.446 199.964C355.689 200.057 355.969 200.104 356.286 200.104C356.781 200.104 357.154 200.011 357.406 199.824C357.667 199.628 357.798 199.385 357.798 199.096C357.798 198.853 357.719 198.657 357.56 198.508C357.411 198.359 357.21 198.237 356.958 198.144C356.706 198.041 356.426 197.953 356.118 197.878C355.875 197.822 355.614 197.757 355.334 197.682C355.054 197.598 354.788 197.486 354.536 197.346C354.284 197.206 354.079 197.024 353.92 196.8C353.761 196.576 353.682 196.282 353.682 195.918C353.682 195.517 353.789 195.167 354.004 194.868C354.228 194.56 354.531 194.322 354.914 194.154C355.306 193.986 355.754 193.902 356.258 193.902C356.837 193.902 357.35 194.028 357.798 194.28C358.255 194.532 358.573 194.924 358.75 195.456L357.77 195.792C357.705 195.549 357.583 195.363 357.406 195.232C357.238 195.101 357.047 195.013 356.832 194.966C356.627 194.919 356.421 194.896 356.216 194.896C355.796 194.896 355.455 194.98 355.194 195.148C354.942 195.307 354.816 195.549 354.816 195.876C354.816 196.053 354.858 196.203 354.942 196.324C355.026 196.436 355.143 196.529 355.292 196.604C355.441 196.679 355.619 196.744 355.824 196.8C356.029 196.847 356.253 196.903 356.496 196.968C356.767 197.033 357.042 197.117 357.322 197.22C357.602 197.313 357.863 197.439 358.106 197.598C358.349 197.747 358.545 197.943 358.694 198.186C358.853 198.419 358.932 198.713 358.932 199.068C358.932 199.479 358.82 199.838 358.596 200.146C358.372 200.445 358.059 200.678 357.658 200.846C357.266 201.014 356.809 201.098 356.286 201.098C355.567 201.098 354.97 200.939 354.494 200.622C354.027 200.295 353.715 199.819 353.556 199.194L354.564 198.858ZM361.209 201.07C360.994 201.07 360.812 200.995 360.663 200.846C360.523 200.697 360.453 200.515 360.453 200.3C360.453 200.085 360.523 199.903 360.663 199.754C360.812 199.605 360.994 199.53 361.209 199.53C361.414 199.53 361.591 199.605 361.741 199.754C361.89 199.903 361.965 200.085 361.965 200.3C361.965 200.515 361.89 200.697 361.741 200.846C361.591 200.995 361.414 201.07 361.209 201.07ZM375.455 191.2V201H374.321L369.085 192.992V201H367.965V191.2H369.099L374.335 199.194V191.2H375.455ZM380.748 201.098C380.086 201.098 379.493 200.953 378.97 200.664C378.448 200.375 378.037 199.964 377.738 199.432C377.44 198.891 377.29 198.251 377.29 197.514C377.29 196.767 377.44 196.123 377.738 195.582C378.046 195.041 378.462 194.625 378.984 194.336C379.516 194.047 380.114 193.902 380.776 193.902C381.439 193.902 382.032 194.047 382.554 194.336C383.086 194.625 383.502 195.041 383.8 195.582C384.108 196.114 384.262 196.749 384.262 197.486C384.262 198.233 384.108 198.877 383.8 199.418C383.492 199.959 383.072 200.375 382.54 200.664C382.008 200.953 381.411 201.098 380.748 201.098ZM380.734 200.104C381.145 200.104 381.532 200.015 381.896 199.838C382.26 199.651 382.554 199.367 382.778 198.984C383.012 198.592 383.128 198.097 383.128 197.5C383.128 196.893 383.016 196.399 382.792 196.016C382.568 195.633 382.274 195.353 381.91 195.176C381.556 194.989 381.173 194.896 380.762 194.896C380.352 194.896 379.969 194.989 379.614 195.176C379.26 195.353 378.97 195.638 378.746 196.03C378.532 196.413 378.424 196.903 378.424 197.5C378.424 198.107 378.532 198.601 378.746 198.984C378.961 199.367 379.241 199.651 379.586 199.838C379.941 200.015 380.324 200.104 380.734 200.104ZM386.43 194V192.04H387.48V194H389.342V194.98H387.48V198.746C387.48 199.175 387.569 199.488 387.746 199.684C387.933 199.88 388.166 199.997 388.446 200.034C388.736 200.071 389.034 200.071 389.342 200.034V200.944C388.978 201.028 388.619 201.051 388.264 201.014C387.919 200.977 387.606 200.874 387.326 200.706C387.056 200.529 386.836 200.281 386.668 199.964C386.51 199.647 386.43 199.241 386.43 198.746V194.98H385.38V194H386.43ZM396.06 201H394.94V191.2H396.172L399.812 199.46L403.438 191.2H404.656V201H403.536V193.412L400.204 201H399.406L396.06 193.412V201ZM409.952 201.098C409.289 201.098 408.696 200.953 408.174 200.664C407.651 200.375 407.24 199.964 406.942 199.432C406.643 198.891 406.494 198.251 406.494 197.514C406.494 196.767 406.643 196.123 406.942 195.582C407.25 195.041 407.665 194.625 408.188 194.336C408.72 194.047 409.317 193.902 409.98 193.902C410.642 193.902 411.235 194.047 411.758 194.336C412.29 194.625 412.705 195.041 413.004 195.582C413.312 196.114 413.466 196.749 413.466 197.486C413.466 198.233 413.312 198.877 413.004 199.418C412.696 199.959 412.276 200.375 411.744 200.664C411.212 200.953 410.614 201.098 409.952 201.098ZM409.938 200.104C410.348 200.104 410.736 200.015 411.1 199.838C411.464 199.651 411.758 199.367 411.982 198.984C412.215 198.592 412.332 198.097 412.332 197.5C412.332 196.893 412.22 196.399 411.996 196.016C411.772 195.633 411.478 195.353 411.114 195.176C410.759 194.989 410.376 194.896 409.966 194.896C409.555 194.896 409.172 194.989 408.818 195.176C408.463 195.353 408.174 195.638 407.95 196.03C407.735 196.413 407.628 196.903 407.628 197.5C407.628 198.107 407.735 198.601 407.95 198.984C408.164 199.367 408.444 199.651 408.79 199.838C409.144 200.015 409.527 200.104 409.938 200.104ZM415.185 194H416.151L416.207 194.994C416.431 194.649 416.725 194.383 417.089 194.196C417.453 194 417.878 193.902 418.363 193.902C418.895 193.902 419.362 194.019 419.763 194.252C420.165 194.476 420.477 194.817 420.701 195.274C420.925 195.722 421.037 196.287 421.037 196.968V201H419.987V197.094C419.987 196.366 419.829 195.815 419.511 195.442C419.203 195.059 418.755 194.868 418.167 194.868C417.561 194.868 417.085 195.069 416.739 195.47C416.403 195.871 416.235 196.464 416.235 197.248V201H415.185V194ZM423.522 194V192.04H424.572V194H426.434V194.98H424.572V198.746C424.572 199.175 424.661 199.488 424.838 199.684C425.025 199.88 425.258 199.997 425.538 200.034C425.827 200.071 426.126 200.071 426.434 200.034V200.944C426.07 201.028 425.711 201.051 425.356 201.014C425.011 200.977 424.698 200.874 424.418 200.706C424.147 200.529 423.928 200.281 423.76 199.964C423.601 199.647 423.522 199.241 423.522 198.746V194.98H422.472V194H423.522ZM427.996 190.92H429.046V194.952C429.27 194.616 429.573 194.359 429.956 194.182C430.339 193.995 430.768 193.902 431.244 193.902C431.757 193.902 432.215 194.019 432.616 194.252C433.017 194.485 433.33 194.831 433.554 195.288C433.787 195.745 433.904 196.315 433.904 196.996V201H432.784V197.122C432.784 196.394 432.63 195.839 432.322 195.456C432.014 195.064 431.566 194.868 430.978 194.868C430.371 194.868 429.895 195.073 429.55 195.484C429.214 195.895 429.046 196.492 429.046 197.276V201H427.996V190.92ZM436.513 198.858C436.569 199.138 436.672 199.371 436.821 199.558C436.971 199.735 437.162 199.871 437.395 199.964C437.638 200.057 437.918 200.104 438.235 200.104C438.73 200.104 439.103 200.011 439.355 199.824C439.617 199.628 439.747 199.385 439.747 199.096C439.747 198.853 439.668 198.657 439.509 198.508C439.36 198.359 439.159 198.237 438.907 198.144C438.655 198.041 438.375 197.953 438.067 197.878C437.825 197.822 437.563 197.757 437.283 197.682C437.003 197.598 436.737 197.486 436.485 197.346C436.233 197.206 436.028 197.024 435.869 196.8C435.711 196.576 435.631 196.282 435.631 195.918C435.631 195.517 435.739 195.167 435.953 194.868C436.177 194.56 436.481 194.322 436.863 194.154C437.255 193.986 437.703 193.902 438.207 193.902C438.786 193.902 439.299 194.028 439.747 194.28C440.205 194.532 440.522 194.924 440.699 195.456L439.719 195.792C439.654 195.549 439.533 195.363 439.355 195.232C439.187 195.101 438.996 195.013 438.781 194.966C438.576 194.919 438.371 194.896 438.165 194.896C437.745 194.896 437.405 194.98 437.143 195.148C436.891 195.307 436.765 195.549 436.765 195.876C436.765 196.053 436.807 196.203 436.891 196.324C436.975 196.436 437.092 196.529 437.241 196.604C437.391 196.679 437.568 196.744 437.773 196.8C437.979 196.847 438.203 196.903 438.445 196.968C438.716 197.033 438.991 197.117 439.271 197.22C439.551 197.313 439.813 197.439 440.055 197.598C440.298 197.747 440.494 197.943 440.643 198.186C440.802 198.419 440.881 198.713 440.881 199.068C440.881 199.479 440.769 199.838 440.545 200.146C440.321 200.445 440.009 200.678 439.607 200.846C439.215 201.014 438.758 201.098 438.235 201.098C437.517 201.098 436.919 200.939 436.443 200.622C435.977 200.295 435.664 199.819 435.505 199.194L436.513 198.858ZM443.158 201.07C442.943 201.07 442.761 200.995 442.612 200.846C442.472 200.697 442.402 200.515 442.402 200.3C442.402 200.085 442.472 199.903 442.612 199.754C442.761 199.605 442.943 199.53 443.158 199.53C443.363 199.53 443.541 199.605 443.69 199.754C443.839 199.903 443.914 200.085 443.914 200.3C443.914 200.515 443.839 200.697 443.69 200.846C443.541 200.995 443.363 201.07 443.158 201.07Z" fill="#4B5563"/>
</g>
<g filter="url(#filter8_dd_5522_71839)">
<path d="M498.729 164.911C498.698 164.482 498.787 164.054 498.986 163.673C499.185 163.293 499.486 162.975 499.855 162.756C500.225 162.537 500.648 162.425 501.077 162.432C501.507 162.44 501.925 162.567 502.287 162.799L521.732 175.313C523.6 176.514 522.862 179.405 520.648 179.564L511.544 180.221C511.191 180.246 510.848 180.352 510.542 180.531C510.236 180.71 509.975 180.957 509.78 181.252L504.627 189.078C503.413 190.923 500.549 190.177 500.39 187.971L498.729 164.911Z" fill="#27272A"/>
<path d="M498.729 164.911C498.698 164.482 498.787 164.054 498.986 163.673C499.185 163.293 499.486 162.975 499.855 162.756C500.225 162.537 500.648 162.425 501.077 162.432C501.507 162.44 501.925 162.567 502.287 162.799L521.732 175.313C523.6 176.514 522.862 179.405 520.648 179.564L511.544 180.221C511.191 180.246 510.848 180.352 510.542 180.531C510.236 180.71 509.975 180.957 509.78 181.252L504.627 189.078C503.413 190.923 500.549 190.177 500.39 187.971L498.729 164.911Z" stroke="#FAFAFA"/>
</g>
</g>
<defs>
<filter id="filter0_dd_5522_71839" x="169" y="241" width="367" height="88" filterUnits="userSpaceOnUse" color-interpolation-filters="sRGB">
<feFlood flood-opacity="0" result="BackgroundImageFix"/>
<feColorMatrix in="SourceAlpha" type="matrix" values="0 0 0 0 0 0 0 0 0 0 0 0 0 0 0 0 0 0 127 0" result="hardAlpha"/>
<feOffset dy="18"/>
<feGaussianBlur stdDeviation="8"/>
<feComposite in2="hardAlpha" operator="out"/>
<feColorMatrix type="matrix" values="0 0 0 0 0.0588235 0 0 0 0 0.141176 0 0 0 0 0.0666667 0 0 0 0.01 0"/>
<feBlend mode="normal" in2="BackgroundImageFix" result="effect1_dropShadow_5522_71839"/>
<feColorMatrix in="SourceAlpha" type="matrix" values="0 0 0 0 0 0 0 0 0 0 0 0 0 0 0 0 0 0 127 0" result="hardAlpha"/>
<feOffset dy="15"/>
<feGaussianBlur stdDeviation="10"/>
<feComposite in2="hardAlpha" operator="out"/>
<feColorMatrix type="matrix" values="0 0 0 0 0.0627451 0 0 0 0 0.0588235 0 0 0 0 0.141176 0 0 0 0.02 0"/>
<feBlend mode="normal" in2="effect1_dropShadow_5522_71839" result="effect2_dropShadow_5522_71839"/>
<feBlend mode="normal" in="SourceGraphic" in2="effect2_dropShadow_5522_71839" result="shape"/>
</filter>
<filter id="filter1_dd_5522_71839" x="184" y="43" width="338" height="88" filterUnits="userSpaceOnUse" color-interpolation-filters="sRGB">
<feFlood flood-opacity="0" result="BackgroundImageFix"/>
<feColorMatrix in="SourceAlpha" type="matrix" values="0 0 0 0 0 0 0 0 0 0 0 0 0 0 0 0 0 0 127 0" result="hardAlpha"/>
<feOffset dy="18"/>
<feGaussianBlur stdDeviation="8"/>
<feComposite in2="hardAlpha" operator="out"/>
<feColorMatrix type="matrix" values="0 0 0 0 0.0588235 0 0 0 0 0.141176 0 0 0 0 0.0666667 0 0 0 0.01 0"/>
<feBlend mode="normal" in2="BackgroundImageFix" result="effect1_dropShadow_5522_71839"/>
<feColorMatrix in="SourceAlpha" type="matrix" values="0 0 0 0 0 0 0 0 0 0 0 0 0 0 0 0 0 0 127 0" result="hardAlpha"/>
<feOffset dy="15"/>
<feGaussianBlur stdDeviation="10"/>
<feComposite in2="hardAlpha" operator="out"/>
<feColorMatrix type="matrix" values="0 0 0 0 0.0627451 0 0 0 0 0.0588235 0 0 0 0 0.141176 0 0 0 0.02 0"/>
<feBlend mode="normal" in2="effect1_dropShadow_5522_71839" result="effect2_dropShadow_5522_71839"/>
<feBlend mode="normal" in="SourceGraphic" in2="effect2_dropShadow_5522_71839" result="shape"/>
</filter>
<filter id="filter2_dd_5522_71839" x="469.246" y="21.2441" width="78.5" height="78.5" filterUnits="userSpaceOnUse" color-interpolation-filters="sRGB">
<feFlood flood-opacity="0" result="BackgroundImageFix"/>
<feColorMatrix in="SourceAlpha" type="matrix" values="0 0 0 0 0 0 0 0 0 0 0 0 0 0 0 0 0 0 127 0" result="hardAlpha"/>
<feOffset dy="4"/>
<feGaussianBlur stdDeviation="3"/>
<feComposite in2="hardAlpha" operator="out"/>
<feColorMatrix type="matrix" values="0 0 0 0 0.0627451 0 0 0 0 0.0588235 0 0 0 0 0.141176 0 0 0 0.03 0"/>
<feBlend mode="normal" in2="BackgroundImageFix" result="effect1_dropShadow_5522_71839"/>
<feColorMatrix in="SourceAlpha" type="matrix" values="0 0 0 0 0 0 0 0 0 0 0 0 0 0 0 0 0 0 127 0" result="hardAlpha"/>
<feOffset dy="12"/>
<feGaussianBlur stdDeviation="8"/>
<feComposite in2="hardAlpha" operator="out"/>
<feColorMatrix type="matrix" values="0 0 0 0 0.0627451 0 0 0 0 0.0588235 0 0 0 0 0.141176 0 0 0 0.08 0"/>
<feBlend mode="normal" in2="effect1_dropShadow_5522_71839" result="effect2_dropShadow_5522_71839"/>
<feBlend mode="normal" in="SourceGraphic" in2="effect2_dropShadow_5522_71839" result="shape"/>
</filter>
<filter id="filter3_dd_5522_71839" x="152.795" y="233.795" width="69.5996" height="69.5996" filterUnits="userSpaceOnUse" color-interpolation-filters="sRGB">
<feFlood flood-opacity="0" result="BackgroundImageFix"/>
<feColorMatrix in="SourceAlpha" type="matrix" values="0 0 0 0 0 0 0 0 0 0 0 0 0 0 0 0 0 0 127 0" result="hardAlpha"/>
<feOffset dy="4"/>
<feGaussianBlur stdDeviation="3"/>
<feComposite in2="hardAlpha" operator="out"/>
<feColorMatrix type="matrix" values="0 0 0 0 0.0627451 0 0 0 0 0.0588235 0 0 0 0 0.141176 0 0 0 0.03 0"/>
<feBlend mode="normal" in2="BackgroundImageFix" result="effect1_dropShadow_5522_71839"/>
<feColorMatrix in="SourceAlpha" type="matrix" values="0 0 0 0 0 0 0 0 0 0 0 0 0 0 0 0 0 0 127 0" result="hardAlpha"/>
<feOffset dy="12"/>
<feGaussianBlur stdDeviation="8"/>
<feComposite in2="hardAlpha" operator="out"/>
<feColorMatrix type="matrix" values="0 0 0 0 0.0627451 0 0 0 0 0.0588235 0 0 0 0 0.141176 0 0 0 0.08 0"/>
<feBlend mode="normal" in2="effect1_dropShadow_5522_71839" result="effect2_dropShadow_5522_71839"/>
<feBlend mode="normal" in="SourceGraphic" in2="effect2_dropShadow_5522_71839" result="shape"/>
</filter>
<filter id="filter4_f_5522_71839" x="440.633" y="142.641" width="447.666" height="421.396" filterUnits="userSpaceOnUse" color-interpolation-filters="sRGB">
<feFlood flood-opacity="0" result="BackgroundImageFix"/>
<feBlend mode="normal" in="SourceGraphic" in2="BackgroundImageFix" result="shape"/>
<feGaussianBlur stdDeviation="50" result="effect1_foregroundBlur_5522_71839"/>
</filter>
<filter id="filter5_f_5522_71839" x="-137.365" y="18.8633" width="372.803" height="372.166" filterUnits="userSpaceOnUse" color-interpolation-filters="sRGB">
<feFlood flood-opacity="0" result="BackgroundImageFix"/>
<feBlend mode="normal" in="SourceGraphic" in2="BackgroundImageFix" result="shape"/>
<feGaussianBlur stdDeviation="42.5" result="effect1_foregroundBlur_5522_71839"/>
</filter>
<filter id="filter6_dd_5522_71839" x="120" y="94" width="464" height="174" filterUnits="userSpaceOnUse" color-interpolation-filters="sRGB">
<feFlood flood-opacity="0" result="BackgroundImageFix"/>
<feColorMatrix in="SourceAlpha" type="matrix" values="0 0 0 0 0 0 0 0 0 0 0 0 0 0 0 0 0 0 127 0" result="hardAlpha"/>
<feOffset dy="4"/>
<feGaussianBlur stdDeviation="8"/>
<feComposite in2="hardAlpha" operator="out"/>
<feColorMatrix type="matrix" values="0 0 0 0 0.0588235 0 0 0 0 0.141176 0 0 0 0 0.0666667 0 0 0 0.02 0"/>
<feBlend mode="normal" in2="BackgroundImageFix" result="effect1_dropShadow_5522_71839"/>
<feColorMatrix in="SourceAlpha" type="matrix" values="0 0 0 0 0 0 0 0 0 0 0 0 0 0 0 0 0 0 127 0" result="hardAlpha"/>
<feOffset dy="10"/>
<feGaussianBlur stdDeviation="16"/>
<feComposite in2="hardAlpha" operator="out"/>
<feColorMatrix type="matrix" values="0 0 0 0 0.0627451 0 0 0 0 0.0588235 0 0 0 0 0.141176 0 0 0 0.05 0"/>
<feBlend mode="normal" in2="effect1_dropShadow_5522_71839" result="effect2_dropShadow_5522_71839"/>
<feBlend mode="normal" in="SourceGraphic" in2="effect2_dropShadow_5522_71839" result="shape"/>
</filter>
<filter id="filter7_i_5522_71839" x="176" y="136" width="352" height="44" filterUnits="userSpaceOnUse" color-interpolation-filters="sRGB">
<feFlood flood-opacity="0" result="BackgroundImageFix"/>
<feBlend mode="normal" in="SourceGraphic" in2="BackgroundImageFix" result="shape"/>
<feColorMatrix in="SourceAlpha" type="matrix" values="0 0 0 0 0 0 0 0 0 0 0 0 0 0 0 0 0 0 127 0" result="hardAlpha"/>
<feOffset dy="4"/>
<feGaussianBlur stdDeviation="6"/>
<feComposite in2="hardAlpha" operator="arithmetic" k2="-1" k3="1"/>
<feColorMatrix type="matrix" values="0 0 0 0 0.626803 0 0 0 0 0.756315 0 0 0 0 0.998197 0 0 0 0.5 0"/>
<feBlend mode="normal" in2="shape" result="effect1_innerShadow_5522_71839"/>
</filter>
<filter id="filter8_dd_5522_71839" x="490.223" y="157.932" width="41.0723" height="44.6914" filterUnits="userSpaceOnUse" color-interpolation-filters="sRGB">
<feFlood flood-opacity="0" result="BackgroundImageFix"/>
<feColorMatrix in="SourceAlpha" type="matrix" values="0 0 0 0 0 0 0 0 0 0 0 0 0 0 0 0 0 0 127 0" result="hardAlpha"/>
<feOffset dy="2"/>
<feGaussianBlur stdDeviation="2"/>
<feComposite in2="hardAlpha" operator="out"/>
<feColorMatrix type="matrix" values="0 0 0 0 0.0627451 0 0 0 0 0.0588235 0 0 0 0 0.141176 0 0 0 0.06 0"/>
<feBlend mode="normal" in2="BackgroundImageFix" result="effect1_dropShadow_5522_71839"/>
<feColorMatrix in="SourceAlpha" type="matrix" values="0 0 0 0 0 0 0 0 0 0 0 0 0 0 0 0 0 0 127 0" result="hardAlpha"/>
<feOffset dy="4"/>
<feGaussianBlur stdDeviation="4"/>
<feComposite in2="hardAlpha" operator="out"/>
<feColorMatrix type="matrix" values="0 0 0 0 0.0627451 0 0 0 0 0.0588235 0 0 0 0 0.141176 0 0 0 0.1 0"/>
<feBlend mode="normal" in2="effect1_dropShadow_5522_71839" result="effect2_dropShadow_5522_71839"/>
<feBlend mode="normal" in="SourceGraphic" in2="effect2_dropShadow_5522_71839" result="shape"/>
</filter>
<linearGradient id="paint0_linear_5522_71839" x1="472.693" y1="91" x2="355" y2="91" gradientUnits="userSpaceOnUse">
<stop stop-color="#FAFAFA"/>
<stop offset="0.534678" stop-color="#266AE9"/>
<stop offset="1" stop-color="#FAFAFA"/>
</linearGradient>
<linearGradient id="paint1_linear_5522_71839" x1="532" y1="284.693" x2="532" y2="167" gradientUnits="userSpaceOnUse">
<stop stop-color="#FAFAFA"/>
<stop offset="0.534678" stop-color="#266AE9"/>
<stop offset="1" stop-color="#FAFAFA"/>
</linearGradient>
<linearGradient id="paint2_linear_5522_71839" x1="332" y1="323.693" x2="332" y2="206" gradientUnits="userSpaceOnUse">
<stop stop-color="#FAFAFA"/>
<stop offset="0.534678" stop-color="#266AE9"/>
<stop offset="1" stop-color="#FAFAFA"/>
</linearGradient>
<linearGradient id="paint3_linear_5522_71839" x1="203.954" y1="182" x2="98" y2="182" gradientUnits="userSpaceOnUse">
<stop stop-color="#FAFAFA"/>
<stop offset="0.534678" stop-color="#266AE9"/>
<stop offset="1" stop-color="#FAFAFA"/>
</linearGradient>
<linearGradient id="paint4_linear_5522_71839" x1="352" y1="7.68293" x2="352" y2="373.125" gradientUnits="userSpaceOnUse">
<stop stop-color="#FAFAFA"/>
<stop offset="0.197621" stop-color="#FAFAFA" stop-opacity="0"/>
<stop offset="0.644231" stop-color="#FAFAFA" stop-opacity="0"/>
<stop offset="0.867519" stop-color="#FAFAFA"/>
</linearGradient>
<linearGradient id="paint5_linear_5522_71839" x1="432.482" y1="487.171" x2="373.069" y2="362.351" gradientUnits="userSpaceOnUse">
<stop stop-color="#5C85D5"/>
<stop offset="1" stop-color="#C3A7F3"/>
</linearGradient>
<linearGradient id="paint6_linear_5522_71839" x1="241.949" y1="61.0189" x2="301.151" y2="158.008" gradientUnits="userSpaceOnUse">
<stop stop-color="#5C85D5"/>
<stop offset="1" stop-color="#C3A7F3"/>
</linearGradient>
<clipPath id="clip0_5522_71839">
<rect width="704" height="362" fill="white" transform="translate(0.5)"/>
</clipPath>
</defs>
</svg>
