<svg width="358" height="230" viewBox="0 0 358 230" fill="none" xmlns="http://www.w3.org/2000/svg">
<g clip-path="url(#clip0_5522_72307)">
<path d="M181.145 59.4023H460.637" stroke="url(#paint0_linear_5522_72307)" stroke-opacity="0.4" stroke-linecap="round"/>
<path d="M307.666 113.795V393.628" stroke="url(#paint1_linear_5522_72307)" stroke-opacity="0.4" stroke-linecap="round"/>
<path d="M164.703 141.705V421.538" stroke="url(#paint2_linear_5522_72307)" stroke-opacity="0.4" stroke-linecap="round"/>
<path d="M-2.5625 113.078H249.052" stroke="url(#paint3_linear_5522_72307)" stroke-opacity="0.4" stroke-linecap="round"/>
<g filter="url(#filter0_dd_5522_72307)">
<path d="M284.792 156.02H73.9214C67.6049 156.02 62.4844 161.146 62.4844 167.471V178.921C62.4844 185.246 67.6049 190.372 73.9214 190.372H284.792C291.108 190.372 296.229 185.246 296.229 178.921V167.471C296.229 161.146 291.108 156.02 284.792 156.02Z" fill="white"/>
<path d="M284.792 156.377H73.9214C67.8023 156.377 62.8418 161.344 62.8418 167.47V178.921C62.8418 185.048 67.8023 190.014 73.9214 190.014H284.792C290.911 190.014 295.871 185.048 295.871 178.921V167.47C295.871 161.344 290.911 156.377 284.792 156.377Z" stroke="#F3F4F7"/>
<path d="M87.245 177.489H86.3301V169.474H87.3365L90.3102 176.23L93.2724 169.474H94.2674V177.489H93.3524V171.283L90.6304 177.489H89.9785L87.245 171.283V177.489ZM99.7028 177.489L99.6342 176.459C99.4741 176.81 99.2375 177.085 98.9251 177.283C98.6127 177.474 98.216 177.57 97.7357 177.57C97.3239 177.57 96.973 177.505 96.6835 177.375C96.394 177.245 96.1688 177.062 96.0087 176.825C95.8564 176.581 95.7799 176.295 95.7799 175.966C95.7799 175.486 95.9593 175.093 96.3175 174.787C96.6756 174.474 97.1945 174.283 97.8729 174.214L99.6342 174.02V173.562C99.6342 173.241 99.5163 172.986 99.2797 172.795C99.0431 172.596 98.7228 172.497 98.319 172.497C97.9222 172.497 97.5906 172.588 97.3239 172.772C97.0645 172.955 96.8858 173.218 96.7864 173.562L96.0087 173.287C96.1609 172.783 96.4397 172.39 96.8436 172.108C97.2553 171.825 97.755 171.684 98.3418 171.684C99.0202 171.684 99.5463 171.859 99.9201 172.211C100.301 172.554 100.492 173.024 100.492 173.619V177.489H99.7028ZM99.6342 174.753L97.8615 174.959C97.4805 175.005 97.1903 175.111 96.9923 175.279C96.7943 175.44 96.6949 175.654 96.6949 175.921C96.6949 176.188 96.79 176.402 96.9808 176.562C97.1788 176.722 97.4612 176.802 97.8272 176.802C98.2468 176.802 98.5899 176.719 98.8565 176.551C99.1231 176.382 99.3175 176.158 99.4398 175.875C99.5692 175.585 99.6342 175.272 99.6342 174.936V174.753ZM102.165 171.764H102.955L103 172.577C103.183 172.294 103.423 172.077 103.721 171.924C104.018 171.764 104.366 171.684 104.762 171.684C105.196 171.684 105.578 171.779 105.905 171.97C106.233 172.153 106.489 172.432 106.672 172.806C106.855 173.172 106.946 173.634 106.946 174.192V177.489H106.088V174.295C106.088 173.699 105.959 173.249 105.699 172.943C105.448 172.631 105.082 172.474 104.601 172.474C104.106 172.474 103.717 172.638 103.435 172.966C103.16 173.295 103.023 173.779 103.023 174.421V177.489H102.165V171.764ZM113.288 177.489H112.51L112.453 176.665C112.278 176.955 112.041 177.18 111.744 177.341C111.447 177.493 111.1 177.57 110.703 177.57C110.261 177.57 109.876 177.478 109.548 177.295C109.22 177.112 108.965 176.837 108.782 176.47C108.607 176.104 108.519 175.642 108.519 175.085V171.764H109.365V174.993C109.365 175.581 109.491 176.027 109.742 176.333C110.002 176.631 110.371 176.78 110.852 176.78C111.34 176.78 111.725 176.623 112.007 176.31C112.296 175.989 112.442 175.508 112.442 174.867V171.764H113.288V177.489ZM118.612 177.489L118.543 176.459C118.383 176.81 118.147 177.085 117.834 177.283C117.522 177.474 117.125 177.57 116.645 177.57C116.233 177.57 115.883 177.505 115.592 177.375C115.303 177.245 115.078 177.062 114.918 176.825C114.765 176.581 114.689 176.295 114.689 175.966C114.689 175.486 114.868 175.093 115.226 174.787C115.585 174.474 116.104 174.283 116.782 174.214L118.543 174.02V173.562C118.543 173.241 118.425 172.986 118.189 172.795C117.953 172.596 117.633 172.497 117.228 172.497C116.832 172.497 116.5 172.588 116.233 172.772C115.974 172.955 115.795 173.218 115.695 173.562L114.918 173.287C115.071 172.783 115.349 172.39 115.753 172.108C116.164 171.825 116.664 171.684 117.251 171.684C117.93 171.684 118.456 171.859 118.829 172.211C119.211 172.554 119.401 173.024 119.401 173.619V177.489H118.612ZM118.543 174.753L116.77 174.959C116.389 175.005 116.1 175.111 115.901 175.279C115.703 175.44 115.604 175.654 115.604 175.921C115.604 176.188 115.7 176.402 115.89 176.562C116.089 176.722 116.37 176.802 116.736 176.802C117.156 176.802 117.499 176.719 117.765 176.551C118.033 176.382 118.227 176.158 118.349 175.875C118.479 175.585 118.543 175.272 118.543 174.936V174.753ZM121.074 169.245H121.932V177.489H121.074V169.245ZM126.882 171.764H127.671L127.729 172.588C127.897 172.314 128.122 172.096 128.403 171.936C128.694 171.768 129.037 171.684 129.433 171.684C129.837 171.684 130.203 171.783 130.531 171.982C130.867 172.173 131.125 172.459 131.308 172.84C131.484 172.451 131.751 172.161 132.109 171.97C132.468 171.779 132.864 171.684 133.298 171.684C133.726 171.684 134.103 171.779 134.431 171.97C134.759 172.153 135.014 172.432 135.197 172.806C135.38 173.172 135.471 173.634 135.471 174.192V177.489H134.614V174.295C134.614 173.699 134.484 173.249 134.225 172.943C133.973 172.631 133.612 172.474 133.138 172.474C132.658 172.474 132.277 172.642 131.995 172.978C131.713 173.306 131.571 173.794 131.571 174.444V177.489H130.714V174.295C130.714 173.699 130.592 173.249 130.348 172.943C130.104 172.631 129.746 172.474 129.273 172.474C128.792 172.474 128.415 172.642 128.14 172.978C127.874 173.306 127.74 173.794 127.74 174.444V177.489H126.882V171.764ZM139.606 177.57C139.065 177.57 138.58 177.452 138.153 177.215C137.727 176.978 137.391 176.642 137.147 176.207C136.903 175.764 136.781 175.242 136.781 174.638C136.781 174.028 136.903 173.501 137.147 173.058C137.399 172.615 137.738 172.276 138.165 172.039C138.599 171.802 139.088 171.684 139.629 171.684C140.17 171.684 140.655 171.802 141.081 172.039C141.516 172.276 141.855 172.615 142.099 173.058C142.351 173.493 142.477 174.012 142.477 174.615C142.477 175.226 142.351 175.753 142.099 176.196C141.848 176.639 141.504 176.978 141.07 177.215C140.635 177.452 140.147 177.57 139.606 177.57ZM139.595 176.757C139.93 176.757 140.246 176.684 140.544 176.539C140.841 176.387 141.081 176.153 141.264 175.841C141.455 175.52 141.55 175.116 141.55 174.627C141.55 174.131 141.459 173.726 141.276 173.413C141.093 173.1 140.853 172.871 140.555 172.726C140.266 172.573 139.953 172.497 139.617 172.497C139.282 172.497 138.969 172.573 138.68 172.726C138.39 172.871 138.153 173.104 137.97 173.424C137.795 173.737 137.707 174.138 137.707 174.627C137.707 175.123 137.795 175.528 137.97 175.841C138.146 176.153 138.374 176.387 138.657 176.539C138.946 176.684 139.259 176.757 139.595 176.757ZM148.297 172.921L148.205 172.932V169.245H149.063V177.489H148.274L148.217 176.425C148.041 176.745 147.778 177.016 147.427 177.238C147.084 177.459 146.657 177.57 146.146 177.57C145.62 177.57 145.159 177.452 144.763 177.215C144.374 176.971 144.069 176.627 143.848 176.184C143.634 175.741 143.527 175.222 143.527 174.627C143.527 174.031 143.634 173.516 143.848 173.081C144.069 172.638 144.374 172.294 144.763 172.05C145.159 171.806 145.62 171.684 146.146 171.684C146.688 171.684 147.137 171.802 147.496 172.039C147.854 172.276 148.121 172.569 148.297 172.921ZM144.454 174.627C144.454 175.283 144.621 175.806 144.957 176.196C145.292 176.577 145.75 176.768 146.329 176.768C146.688 176.768 147.008 176.684 147.29 176.516C147.572 176.348 147.793 176.104 147.954 175.783C148.121 175.463 148.205 175.077 148.205 174.627C148.205 174.177 148.121 173.794 147.954 173.482C147.793 173.161 147.572 172.917 147.29 172.749C147.008 172.573 146.688 172.485 146.329 172.485C145.758 172.485 145.3 172.68 144.957 173.069C144.621 173.451 144.454 173.97 144.454 174.627ZM153.22 177.57C152.686 177.57 152.209 177.44 151.79 177.18C151.378 176.921 151.054 176.566 150.818 176.115C150.581 175.665 150.463 175.15 150.463 174.569C150.463 174.012 150.581 173.516 150.818 173.081C151.054 172.646 151.378 172.306 151.79 172.062C152.202 171.81 152.671 171.684 153.197 171.684C153.715 171.684 154.176 171.798 154.581 172.027C154.992 172.256 155.313 172.573 155.541 172.978C155.77 173.382 155.877 173.844 155.862 174.363C155.862 174.447 155.857 174.535 155.85 174.627C155.842 174.718 155.834 174.818 155.827 174.924H151.401C151.416 175.283 151.504 175.6 151.664 175.875C151.824 176.15 152.034 176.367 152.293 176.528C152.56 176.68 152.861 176.757 153.197 176.757C153.638 176.757 154.012 176.673 154.318 176.505C154.63 176.337 154.855 176.096 154.992 175.783L155.736 176.081C155.507 176.562 155.175 176.932 154.741 177.192C154.306 177.444 153.799 177.57 153.22 177.57ZM154.924 174.18C154.931 173.852 154.859 173.562 154.706 173.31C154.561 173.058 154.355 172.86 154.089 172.714C153.821 172.569 153.513 172.497 153.162 172.497C152.857 172.497 152.579 172.569 152.328 172.714C152.076 172.86 151.866 173.062 151.698 173.321C151.538 173.573 151.443 173.86 151.413 174.18H154.924ZM157.273 169.245H158.131V177.489H157.273V169.245ZM160.048 171.764H160.894V177.489H160.048V171.764ZM160.482 170.619C160.306 170.619 160.162 170.562 160.048 170.447C159.933 170.333 159.876 170.192 159.876 170.023C159.876 169.848 159.933 169.703 160.048 169.588C160.162 169.474 160.306 169.417 160.482 169.417C160.642 169.417 160.779 169.474 160.894 169.588C161.015 169.703 161.077 169.848 161.077 170.023C161.077 170.192 161.015 170.333 160.894 170.447C160.779 170.562 160.642 170.619 160.482 170.619ZM162.825 171.764H163.614L163.659 172.577C163.842 172.294 164.083 172.077 164.38 171.924C164.677 171.764 165.024 171.684 165.421 171.684C165.855 171.684 166.236 171.779 166.564 171.97C166.892 172.153 167.148 172.432 167.331 172.806C167.514 173.172 167.605 173.634 167.605 174.192V177.489H166.747V174.295C166.747 173.699 166.617 173.249 166.359 172.943C166.107 172.631 165.741 172.474 165.261 172.474C164.765 172.474 164.376 172.638 164.094 172.966C163.82 173.295 163.682 173.779 163.682 174.421V177.489H162.825V171.764ZM173.66 171.764H174.45V176.436C174.45 177.138 174.294 177.738 173.981 178.234C173.668 178.738 173.214 179.119 172.62 179.379C172.025 179.646 171.301 179.78 170.447 179.78L170.309 178.99C171.384 178.975 172.201 178.749 172.757 178.314C173.314 177.887 173.592 177.26 173.592 176.436V176.31L173.683 176.333C173.508 176.669 173.245 176.959 172.894 177.203C172.544 177.44 172.09 177.562 171.533 177.57C171.007 177.57 170.546 177.452 170.149 177.215C169.76 176.971 169.456 176.627 169.234 176.184C169.021 175.741 168.914 175.222 168.914 174.627C168.914 174.031 169.021 173.516 169.234 173.081C169.456 172.638 169.76 172.294 170.149 172.05C170.546 171.806 171.007 171.684 171.533 171.684C171.876 171.684 172.181 171.738 172.448 171.844C172.715 171.944 172.944 172.081 173.134 172.256C173.325 172.425 173.482 172.615 173.603 172.829L173.66 171.764ZM169.84 174.627C169.84 175.283 170.008 175.806 170.344 176.196C170.687 176.577 171.149 176.768 171.728 176.768C172.079 176.768 172.395 176.684 172.677 176.516C172.959 176.348 173.18 176.104 173.34 175.783C173.508 175.463 173.592 175.077 173.592 174.627C173.592 174.177 173.508 173.794 173.34 173.482C173.18 173.161 172.959 172.917 172.677 172.749C172.395 172.573 172.079 172.485 171.728 172.485C171.156 172.485 170.698 172.68 170.355 173.069C170.012 173.459 169.84 173.978 169.84 174.627ZM179.582 171.764H180.428V177.489H179.582V171.764ZM180.017 170.619C179.841 170.619 179.696 170.562 179.582 170.447C179.468 170.333 179.41 170.192 179.41 170.023C179.41 169.848 179.468 169.703 179.582 169.588C179.696 169.474 179.841 169.417 180.017 169.417C180.177 169.417 180.314 169.474 180.428 169.588C180.55 169.703 180.611 169.848 180.611 170.023C180.611 170.192 180.55 170.333 180.428 170.447C180.314 170.562 180.177 170.619 180.017 170.619ZM182.359 171.764H183.148L183.194 172.577C183.377 172.294 183.617 172.077 183.914 171.924C184.212 171.764 184.559 171.684 184.955 171.684C185.39 171.684 185.771 171.779 186.099 171.97C186.426 172.153 186.682 172.432 186.865 172.806C187.048 173.172 187.14 173.634 187.14 174.192V177.489H186.282V174.295C186.282 173.699 186.152 173.249 185.893 172.943C185.641 172.631 185.275 172.474 184.795 172.474C184.299 172.474 183.91 172.638 183.629 172.966C183.354 173.295 183.217 173.779 183.217 174.421V177.489H182.359V171.764ZM197.35 170.275H193.015V173.012H196.275V173.814H193.015V176.688H197.35V177.489H192.101V169.474H197.35V170.275ZM198.452 171.764H199.436L200.9 173.951L202.364 171.764H203.359L201.38 174.615L203.359 177.489H202.364L200.9 175.279L199.436 177.489H198.452L200.431 174.615L198.452 171.764ZM207.032 177.57C206.475 177.57 205.988 177.447 205.568 177.203C205.149 176.959 204.821 176.619 204.585 176.184C204.356 175.741 204.242 175.23 204.242 174.65C204.242 174.062 204.356 173.547 204.585 173.104C204.821 172.654 205.149 172.306 205.568 172.062C205.988 171.81 206.475 171.684 207.032 171.684C207.619 171.684 208.134 171.821 208.576 172.096C209.019 172.363 209.339 172.737 209.537 173.218L208.748 173.493C208.633 173.187 208.424 172.947 208.119 172.772C207.821 172.588 207.475 172.497 207.078 172.497C206.689 172.497 206.35 172.585 206.06 172.76C205.778 172.936 205.557 173.184 205.397 173.505C205.245 173.825 205.168 174.203 205.168 174.638C205.168 175.279 205.34 175.795 205.683 176.184C206.026 176.566 206.483 176.757 207.055 176.757C207.444 176.757 207.791 176.669 208.096 176.493C208.401 176.318 208.626 176.081 208.771 175.783L209.548 176.058C209.343 176.531 209.019 176.902 208.576 177.169C208.134 177.436 207.619 177.57 207.032 177.57ZM213.353 177.57C212.819 177.57 212.343 177.44 211.924 177.18C211.512 176.921 211.187 176.566 210.952 176.115C210.715 175.665 210.597 175.15 210.597 174.569C210.597 174.012 210.715 173.516 210.952 173.081C211.187 172.646 211.512 172.306 211.924 172.062C212.335 171.81 212.804 171.684 213.331 171.684C213.849 171.684 214.31 171.798 214.714 172.027C215.126 172.256 215.446 172.573 215.675 172.978C215.904 173.382 216.01 173.844 215.995 174.363C215.995 174.447 215.991 174.535 215.984 174.627C215.976 174.718 215.968 174.818 215.961 174.924H211.535C211.55 175.283 211.638 175.6 211.798 175.875C211.958 176.15 212.168 176.367 212.427 176.528C212.694 176.68 212.995 176.757 213.331 176.757C213.772 176.757 214.146 176.673 214.451 176.505C214.764 176.337 214.989 176.096 215.126 175.783L215.87 176.081C215.641 176.562 215.309 176.932 214.875 177.192C214.44 177.444 213.932 177.57 213.353 177.57ZM215.058 174.18C215.065 173.852 214.992 173.562 214.84 173.31C214.695 173.058 214.489 172.86 214.223 172.714C213.955 172.569 213.646 172.497 213.296 172.497C212.991 172.497 212.713 172.569 212.461 172.714C212.21 172.86 212 173.062 211.832 173.321C211.672 173.573 211.576 173.86 211.546 174.18H215.058ZM217.407 169.245H218.265V177.489H217.407V169.245ZM223.524 171.088C223.524 170.668 223.592 170.313 223.73 170.023C223.867 169.734 224.084 169.523 224.382 169.394C224.687 169.256 225.091 169.207 225.594 169.245V170.012C225.136 169.974 224.82 170.05 224.645 170.241C224.469 170.424 224.382 170.707 224.382 171.088V171.764H225.64V172.566H224.382V177.489H223.524V172.566H222.723V171.764H223.524V171.088ZM229.394 177.57C228.852 177.57 228.368 177.452 227.941 177.215C227.514 176.978 227.179 176.642 226.935 176.207C226.69 175.764 226.569 175.242 226.569 174.638C226.569 174.028 226.69 173.501 226.935 173.058C227.186 172.615 227.525 172.276 227.953 172.039C228.387 171.802 228.875 171.684 229.417 171.684C229.958 171.684 230.442 171.802 230.869 172.039C231.304 172.276 231.643 172.615 231.887 173.058C232.139 173.493 232.265 174.012 232.265 174.615C232.265 175.226 232.139 175.753 231.887 176.196C231.635 176.639 231.292 176.978 230.858 177.215C230.423 177.452 229.935 177.57 229.394 177.57ZM229.382 176.757C229.718 176.757 230.034 176.684 230.332 176.539C230.629 176.387 230.869 176.153 231.052 175.841C231.242 175.52 231.338 175.116 231.338 174.627C231.338 174.131 231.247 173.726 231.064 173.413C230.881 173.1 230.64 172.871 230.343 172.726C230.053 172.573 229.741 172.497 229.405 172.497C229.069 172.497 228.757 172.573 228.467 172.726C228.177 172.871 227.941 173.104 227.758 173.424C227.583 173.737 227.495 174.138 227.495 174.627C227.495 175.123 227.583 175.528 227.758 175.841C227.933 176.153 228.162 176.387 228.445 176.539C228.734 176.684 229.046 176.757 229.382 176.757ZM233.669 171.764H234.458L234.504 172.6C234.656 172.394 234.839 172.218 235.053 172.073C235.274 171.928 235.514 171.829 235.774 171.775C236.04 171.715 236.323 171.71 236.62 171.764V172.623C236.3 172.562 236.01 172.562 235.751 172.623C235.499 172.684 235.282 172.798 235.099 172.966C234.916 173.135 234.775 173.348 234.676 173.608C234.576 173.86 234.527 174.154 234.527 174.489V177.489H233.669V171.764ZM242.986 177.489H242.208L240.413 171.764H241.282L242.597 176.425L244.073 171.764H244.85L246.303 176.413L247.607 171.764H248.453L246.669 177.489H245.88L244.439 173.047L242.986 177.489ZM252.021 177.57C251.487 177.57 251.01 177.44 250.591 177.18C250.179 176.921 249.855 176.566 249.619 176.115C249.382 175.665 249.264 175.15 249.264 174.569C249.264 174.012 249.382 173.516 249.619 173.081C249.855 172.646 250.179 172.306 250.591 172.062C251.003 171.81 251.472 171.684 251.998 171.684C252.516 171.684 252.977 171.798 253.382 172.027C253.793 172.256 254.114 172.573 254.342 172.978C254.571 173.382 254.678 173.844 254.663 174.363C254.663 174.447 254.658 174.535 254.651 174.627C254.643 174.718 254.635 174.818 254.628 174.924H250.202C250.217 175.283 250.305 175.6 250.465 175.875C250.625 176.15 250.835 176.367 251.094 176.528C251.361 176.68 251.662 176.757 251.998 176.757C252.439 176.757 252.813 176.673 253.119 176.505C253.431 176.337 253.656 176.096 253.793 175.783L254.537 176.081C254.308 176.562 253.976 176.932 253.542 177.192C253.107 177.444 252.6 177.57 252.021 177.57ZM253.725 174.18C253.732 173.852 253.66 173.562 253.507 173.31C253.362 173.058 253.156 172.86 252.89 172.714C252.622 172.569 252.314 172.497 251.963 172.497C251.658 172.497 251.38 172.569 251.129 172.714C250.877 172.86 250.667 173.062 250.499 173.321C250.339 173.573 250.244 173.86 250.214 174.18H253.725ZM258.476 177.57C257.942 177.57 257.465 177.44 257.046 177.18C256.635 176.921 256.31 176.566 256.074 176.115C255.838 175.665 255.72 175.15 255.72 174.569C255.72 174.012 255.838 173.516 256.074 173.081C256.31 172.646 256.635 172.306 257.046 172.062C257.458 171.81 257.927 171.684 258.453 171.684C258.971 171.684 259.432 171.798 259.837 172.027C260.249 172.256 260.569 172.573 260.798 172.978C261.027 173.382 261.133 173.844 261.118 174.363C261.118 174.447 261.114 174.535 261.107 174.627C261.099 174.718 261.091 174.818 261.084 174.924H256.658C256.673 175.283 256.761 175.6 256.921 175.875C257.081 176.15 257.29 176.367 257.55 176.528C257.816 176.68 258.117 176.757 258.453 176.757C258.895 176.757 259.269 176.673 259.574 176.505C259.886 176.337 260.112 176.096 260.249 175.783L260.992 176.081C260.763 176.562 260.432 176.932 259.997 177.192C259.563 177.444 259.055 177.57 258.476 177.57ZM260.18 174.18C260.187 173.852 260.115 173.562 259.963 173.31C259.818 173.058 259.612 172.86 259.345 172.714C259.078 172.569 258.769 172.497 258.419 172.497C258.114 172.497 257.836 172.569 257.584 172.714C257.332 172.86 257.122 173.062 256.955 173.321C256.795 173.573 256.699 173.86 256.669 174.18H260.18ZM262.53 169.245H263.399V174.249H263.925L266.178 171.764H267.391L264.691 174.627L267.402 177.489H266.178L263.925 174.993H263.399V177.489H262.53V169.245ZM268.918 175.737C268.964 175.967 269.048 176.158 269.17 176.31C269.292 176.455 269.449 176.566 269.639 176.642C269.837 176.719 270.066 176.757 270.325 176.757C270.729 176.757 271.034 176.68 271.24 176.528C271.454 176.367 271.56 176.169 271.56 175.932C271.56 175.734 271.496 175.574 271.366 175.451C271.244 175.329 271.08 175.23 270.874 175.153C270.668 175.07 270.439 174.997 270.188 174.936C269.99 174.89 269.776 174.836 269.547 174.776C269.318 174.707 269.101 174.615 268.895 174.501C268.689 174.386 268.522 174.237 268.392 174.054C268.263 173.871 268.198 173.631 268.198 173.333C268.198 173.004 268.285 172.718 268.461 172.474C268.644 172.222 268.892 172.027 269.204 171.89C269.524 171.753 269.89 171.684 270.302 171.684C270.775 171.684 271.194 171.787 271.56 171.993C271.934 172.199 272.193 172.52 272.338 172.955L271.537 173.23C271.484 173.031 271.385 172.878 271.24 172.772C271.103 172.665 270.947 172.592 270.771 172.554C270.604 172.516 270.436 172.497 270.268 172.497C269.925 172.497 269.646 172.566 269.433 172.703C269.227 172.833 269.124 173.031 269.124 173.298C269.124 173.444 269.158 173.565 269.227 173.665C269.296 173.756 269.391 173.833 269.513 173.894C269.635 173.955 269.78 174.008 269.947 174.054C270.115 174.092 270.298 174.138 270.496 174.192C270.718 174.245 270.942 174.314 271.171 174.398C271.4 174.474 271.614 174.577 271.812 174.707C272.01 174.829 272.17 174.99 272.292 175.188C272.422 175.379 272.486 175.619 272.486 175.909C272.486 176.245 272.395 176.539 272.212 176.791C272.029 177.035 271.774 177.226 271.446 177.364C271.125 177.501 270.752 177.57 270.325 177.57C269.738 177.57 269.25 177.44 268.861 177.18C268.48 176.913 268.225 176.524 268.095 176.012L268.918 175.737Z" fill="#9CA3AF"/>
<path d="M85.3594 174.055H273.003V174.627H85.3594V174.055Z" fill="#9CA3AF"/>
</g>
<g filter="url(#filter1_dd_5522_72307)">
<path d="M274.785 20.0391H84.6441C78.3276 20.0391 73.207 25.1658 73.207 31.49V42.941C73.207 49.2652 78.3276 54.392 84.6441 54.392H274.785C281.101 54.392 286.222 49.2652 286.222 42.941V31.49C286.222 25.1658 281.101 20.0391 274.785 20.0391Z" fill="white"/>
<path d="M274.785 20.3965H84.6441C78.525 20.3965 73.5645 25.3631 73.5645 31.4896V42.9406C73.5645 49.0672 78.525 54.0337 84.6441 54.0337H274.785C280.904 54.0337 285.864 49.0672 285.864 42.9406V31.4896C285.864 25.3631 280.904 20.3965 274.785 20.3965Z" stroke="#F3F4F7"/>
<path d="M101.891 35.6703C101.891 35.2504 101.75 34.9184 101.467 34.6741C101.193 34.4222 100.781 34.2962 100.232 34.2962H97.9677V37.033H100.267C100.785 37.033 101.185 36.9108 101.467 36.6666C101.75 36.4223 101.891 36.0902 101.891 35.6703ZM97.0527 41.5103V33.4946H100.312C100.876 33.4946 101.342 33.59 101.708 33.7809C102.074 33.9718 102.345 34.2237 102.52 34.5367C102.703 34.8421 102.794 35.1817 102.794 35.5558C102.794 35.9223 102.726 36.2314 102.588 36.4834C102.459 36.7276 102.279 36.9223 102.051 37.0674C101.83 37.2124 101.585 37.3116 101.319 37.3651V37.4452C101.639 37.491 101.925 37.5941 102.177 37.7544C102.428 37.9071 102.626 38.117 102.771 38.3842C102.916 38.6514 102.989 38.9759 102.989 39.3575C102.989 39.7545 102.889 40.1171 102.691 40.4454C102.493 40.7737 102.199 41.0332 101.811 41.2241C101.43 41.4149 100.961 41.5103 100.404 41.5103H97.0527ZM97.9677 40.7088H100.335C100.884 40.7088 101.311 40.5866 101.616 40.3423C101.928 40.0904 102.085 39.7316 102.085 39.2659C102.085 38.8002 101.921 38.4453 101.593 38.201C101.273 37.9567 100.842 37.8346 100.301 37.8346H97.9677V40.7088ZM109.19 41.5103H108.412L108.355 40.6859C108.179 40.9759 107.943 41.2012 107.646 41.3615C107.348 41.5141 107.001 41.5905 106.605 41.5905C106.162 41.5905 105.777 41.4989 105.45 41.3157C105.122 41.1324 104.866 40.8576 104.683 40.4912C104.508 40.1248 104.42 39.6629 104.42 39.1056V35.7848H105.267V39.014C105.267 39.6018 105.392 40.0484 105.644 40.3538C105.903 40.6515 106.273 40.8004 106.753 40.8004C107.241 40.8004 107.626 40.6439 107.909 40.3309C108.198 40.0103 108.343 39.5293 108.343 38.8881V35.7848H109.19V41.5103ZM110.934 35.7848H111.723L111.769 36.6208C111.921 36.4146 112.104 36.2391 112.318 36.094C112.538 35.9489 112.779 35.8498 113.038 35.7963C113.305 35.7352 113.587 35.7314 113.884 35.7848V36.6437C113.564 36.5826 113.275 36.5826 113.015 36.6437C112.764 36.7047 112.546 36.8192 112.363 36.9872C112.18 37.1552 112.04 37.3689 111.94 37.6284C111.841 37.8804 111.792 38.1743 111.792 38.5102V41.5103H110.934V35.7848ZM115.055 35.7848H115.845L115.89 36.5979C116.073 36.3154 116.313 36.0978 116.611 35.9452C116.908 35.7848 117.255 35.7047 117.652 35.7047C118.086 35.7047 118.467 35.8001 118.795 35.991C119.123 36.1742 119.379 36.4528 119.562 36.8269C119.745 37.1933 119.836 37.6551 119.836 38.2124V41.5103H118.978V38.3155C118.978 37.7201 118.848 37.2697 118.589 36.9643C118.338 36.6513 117.972 36.4948 117.491 36.4948C116.995 36.4948 116.606 36.6589 116.325 36.9872C116.05 37.3155 115.913 37.8002 115.913 38.4415V41.5103H115.055V35.7848ZM121.671 35.7848H122.517V41.5103H121.671V35.7848ZM122.106 34.6397C121.93 34.6397 121.785 34.5825 121.671 34.468C121.557 34.3535 121.499 34.2123 121.499 34.0443C121.499 33.8687 121.557 33.7237 121.671 33.6092C121.785 33.4946 121.93 33.4374 122.106 33.4374C122.266 33.4374 122.403 33.4946 122.517 33.6092C122.64 33.7237 122.7 33.8687 122.7 34.0443C122.7 34.2123 122.64 34.3535 122.517 34.468C122.403 34.5825 122.266 34.6397 122.106 34.6397ZM124.448 35.7848H125.237L125.283 36.5979C125.466 36.3154 125.706 36.0978 126.003 35.9452C126.301 35.7848 126.647 35.7047 127.044 35.7047C127.479 35.7047 127.86 35.8001 128.188 35.991C128.516 36.1742 128.771 36.4528 128.954 36.8269C129.137 37.1933 129.229 37.6551 129.229 38.2124V41.5103H128.371V38.3155C128.371 37.7201 128.242 37.2697 127.982 36.9643C127.73 36.6513 127.364 36.4948 126.884 36.4948C126.389 36.4948 126 36.6589 125.718 36.9872C125.443 37.3155 125.306 37.8002 125.306 38.4415V41.5103H124.448V35.7848ZM135.285 35.7848H136.074V40.4568C136.074 41.1591 135.917 41.7585 135.605 42.2546C135.292 42.7585 134.839 43.1402 134.244 43.3997C133.649 43.6669 132.924 43.8005 132.071 43.8005L131.934 43.0104C133.009 42.9952 133.824 42.7699 134.381 42.3348C134.937 41.9073 135.216 41.2813 135.216 40.4568V40.3309L135.307 40.3538C135.132 40.6897 134.869 40.9798 134.518 41.2241C134.167 41.4607 133.713 41.5828 133.157 41.5905C132.631 41.5905 132.169 41.4722 131.773 41.2355C131.385 40.9912 131.079 40.6477 130.858 40.2049C130.645 39.7621 130.538 39.243 130.538 38.6476C130.538 38.0521 130.645 37.5368 130.858 37.1017C131.079 36.6589 131.385 36.3154 131.773 36.0711C132.169 35.8269 132.631 35.7047 133.157 35.7047C133.5 35.7047 133.805 35.7581 134.072 35.865C134.339 35.9643 134.568 36.1017 134.758 36.2772C134.949 36.4452 135.105 36.636 135.227 36.8498L135.285 35.7848ZM131.465 38.6476C131.465 39.3041 131.632 39.827 131.968 40.2164C132.311 40.598 132.772 40.7889 133.352 40.7889C133.702 40.7889 134.019 40.705 134.301 40.537C134.583 40.369 134.804 40.1248 134.964 39.8041C135.132 39.4835 135.216 39.098 135.216 38.6476C135.216 38.1972 135.132 37.8155 134.964 37.5025C134.804 37.1819 134.583 36.9376 134.301 36.7696C134.019 36.5941 133.702 36.5063 133.352 36.5063C132.78 36.5063 132.322 36.7009 131.979 37.0903C131.636 37.4796 131.465 37.9987 131.465 38.6476ZM141.8 36.9414C141.968 36.5902 142.231 36.2963 142.589 36.0597C142.948 35.823 143.401 35.7047 143.95 35.7047C144.476 35.7047 144.934 35.8269 145.323 36.0711C145.719 36.3154 146.025 36.6589 146.238 37.1017C146.459 37.5368 146.569 38.0521 146.569 38.6476C146.569 39.243 146.459 39.7621 146.238 40.2049C146.017 40.6477 145.708 40.9912 145.311 41.2355C144.922 41.4722 144.469 41.5905 143.95 41.5905C143.432 41.5905 143.001 41.4798 142.658 41.2584C142.315 41.037 142.056 40.766 141.88 40.4454L141.823 41.5103H141.034V33.2656H141.892V36.9528L141.8 36.9414ZM145.643 38.6476C145.643 37.9911 145.471 37.4719 145.128 37.0903C144.793 36.7009 144.339 36.5063 143.767 36.5063C143.409 36.5063 143.085 36.5941 142.795 36.7696C142.514 36.9376 142.292 37.1819 142.132 37.5025C141.972 37.8155 141.892 38.1972 141.892 38.6476C141.892 39.098 141.972 39.4835 142.132 39.8041C142.292 40.1248 142.514 40.369 142.795 40.537C143.085 40.705 143.409 40.7889 143.767 40.7889C144.339 40.7889 144.793 40.598 145.128 40.2164C145.471 39.827 145.643 39.3041 145.643 38.6476ZM152.647 41.5103H151.87L151.813 40.6859C151.637 40.9759 151.401 41.2012 151.103 41.3615C150.806 41.5141 150.459 41.5905 150.063 41.5905C149.621 41.5905 149.236 41.4989 148.908 41.3157C148.58 41.1324 148.324 40.8576 148.141 40.4912C147.966 40.1248 147.878 39.6629 147.878 39.1056V35.7848H148.725V39.014C148.725 39.6018 148.85 40.0484 149.102 40.3538C149.361 40.6515 149.731 40.8004 150.211 40.8004C150.7 40.8004 151.085 40.6439 151.367 40.3309C151.657 40.0103 151.801 39.5293 151.801 38.8881V35.7848H152.647V41.5103ZM158.807 36.9414L158.716 36.9528V33.2656H159.573V41.5103H158.784L158.727 40.4454C158.551 40.766 158.288 41.037 157.938 41.2584C157.595 41.4798 157.167 41.5905 156.657 41.5905C156.131 41.5905 155.669 41.4722 155.273 41.2355C154.884 40.9912 154.579 40.6477 154.358 40.2049C154.144 39.7621 154.038 39.243 154.038 38.6476C154.038 38.0521 154.144 37.5368 154.358 37.1017C154.579 36.6589 154.884 36.3154 155.273 36.0711C155.669 35.8269 156.131 35.7047 156.657 35.7047C157.198 35.7047 157.648 35.823 158.006 36.0597C158.365 36.2963 158.631 36.5902 158.807 36.9414ZM154.964 38.6476C154.964 39.3041 155.131 39.827 155.467 40.2164C155.803 40.598 156.26 40.7889 156.84 40.7889C157.198 40.7889 157.518 40.705 157.801 40.537C158.082 40.369 158.304 40.1248 158.464 39.8041C158.631 39.4835 158.716 39.098 158.716 38.6476C158.716 38.1972 158.631 37.8155 158.464 37.5025C158.304 37.1819 158.082 36.9376 157.801 36.7696C157.518 36.5941 157.198 36.5063 156.84 36.5063C156.268 36.5063 155.811 36.7009 155.467 37.0903C155.131 37.4719 154.964 37.9911 154.964 38.6476ZM165.72 35.7848H166.509V40.4568C166.509 41.1591 166.353 41.7585 166.04 42.2546C165.728 42.7585 165.274 43.1402 164.679 43.3997C164.084 43.6669 163.36 43.8005 162.506 43.8005L162.369 43.0104C163.444 42.9952 164.26 42.7699 164.816 42.3348C165.373 41.9073 165.651 41.2813 165.651 40.4568V40.3309L165.743 40.3538C165.568 40.6897 165.305 40.9798 164.954 41.2241C164.603 41.4607 164.15 41.5828 163.593 41.5905C163.067 41.5905 162.606 41.4722 162.209 41.2355C161.82 40.9912 161.515 40.6477 161.294 40.2049C161.08 39.7621 160.974 39.243 160.974 38.6476C160.974 38.0521 161.08 37.5368 161.294 37.1017C161.515 36.6589 161.82 36.3154 162.209 36.0711C162.606 35.8269 163.067 35.7047 163.593 35.7047C163.936 35.7047 164.241 35.7581 164.508 35.865C164.774 35.9643 165.003 36.1017 165.194 36.2772C165.385 36.4452 165.541 36.636 165.663 36.8498L165.72 35.7848ZM161.9 38.6476C161.9 39.3041 162.068 39.827 162.403 40.2164C162.746 40.598 163.207 40.7889 163.787 40.7889C164.138 40.7889 164.454 40.705 164.736 40.537C165.019 40.369 165.24 40.1248 165.4 39.8041C165.568 39.4835 165.651 39.098 165.651 38.6476C165.651 38.1972 165.568 37.8155 165.4 37.5025C165.24 37.1819 165.019 36.9376 164.736 36.7696C164.454 36.5941 164.138 36.5063 163.787 36.5063C163.215 36.5063 162.758 36.7009 162.415 37.0903C162.072 37.4796 161.9 37.9987 161.9 38.6476ZM170.666 41.5905C170.132 41.5905 169.656 41.4607 169.236 41.2012C168.824 40.9416 168.501 40.5866 168.264 40.1362C168.027 39.6858 167.909 39.1705 167.909 38.5903C167.909 38.033 168.027 37.5368 168.264 37.1017C168.501 36.6666 168.824 36.3268 169.236 36.0826C169.648 35.8306 170.117 35.7047 170.643 35.7047C171.161 35.7047 171.623 35.8192 172.027 36.0482C172.439 36.2772 172.759 36.5941 172.988 36.9986C173.216 37.4032 173.323 37.8651 173.308 38.3842C173.308 38.4682 173.304 38.556 173.296 38.6476C173.288 38.7392 173.281 38.8385 173.273 38.9453H168.847C168.862 39.3041 168.95 39.6209 169.11 39.8957C169.27 40.1706 169.48 40.3881 169.739 40.5484C170.006 40.7011 170.308 40.7775 170.643 40.7775C171.085 40.7775 171.459 40.6935 171.764 40.5255C172.076 40.3576 172.301 40.1171 172.439 39.8041L173.182 40.1019C172.953 40.5828 172.622 40.953 172.187 41.2126C171.752 41.4645 171.246 41.5905 170.666 41.5905ZM172.37 38.201C172.378 37.8727 172.305 37.5826 172.153 37.3307C172.007 37.0788 171.802 36.8803 171.535 36.7353C171.268 36.5902 170.96 36.5177 170.609 36.5177C170.303 36.5177 170.025 36.5902 169.774 36.7353C169.522 36.8803 169.313 37.0826 169.145 37.3422C168.985 37.5941 168.889 37.8804 168.859 38.201H172.37ZM175.085 35.7848V34.1817H175.943V35.7848H177.464V36.5864H175.943V39.6667C175.943 40.0179 176.016 40.2736 176.161 40.4339C176.314 40.5943 176.504 40.6897 176.732 40.7202C176.969 40.7508 177.213 40.7508 177.464 40.7202V41.4645C177.167 41.5332 176.874 41.5523 176.584 41.5218C176.302 41.4912 176.046 41.4073 175.817 41.2699C175.597 41.1248 175.417 40.9225 175.28 40.663C175.151 40.4034 175.085 40.0713 175.085 39.6667V36.5864H174.228V35.7848H175.085ZM179.209 39.7583C179.255 39.9873 179.339 40.1782 179.461 40.3309C179.583 40.476 179.74 40.5866 179.93 40.663C180.129 40.7393 180.357 40.7775 180.616 40.7775C181.021 40.7775 181.325 40.7011 181.531 40.5484C181.745 40.3881 181.851 40.1897 181.851 39.953C181.851 39.7545 181.787 39.5942 181.657 39.4721C181.535 39.3499 181.371 39.2507 181.165 39.1743C180.959 39.0904 180.73 39.0178 180.479 38.9568C180.281 38.911 180.067 38.8575 179.838 38.7964C179.61 38.7277 179.392 38.6361 179.186 38.5216C178.981 38.4071 178.813 38.2583 178.683 38.075C178.554 37.8918 178.489 37.6514 178.489 37.3536C178.489 37.0253 178.577 36.7391 178.752 36.4948C178.935 36.2429 179.183 36.0482 179.495 35.9108C179.815 35.7734 180.181 35.7047 180.593 35.7047C181.066 35.7047 181.485 35.8077 181.851 36.0139C182.225 36.22 182.485 36.5406 182.629 36.9757L181.828 37.2506C181.775 37.0521 181.676 36.8994 181.531 36.7925C181.394 36.6857 181.238 36.6131 181.062 36.575C180.895 36.5368 180.727 36.5177 180.559 36.5177C180.216 36.5177 179.938 36.5864 179.724 36.7238C179.518 36.8536 179.415 37.0521 179.415 37.3193C179.415 37.4643 179.449 37.5864 179.518 37.6857C179.587 37.7773 179.682 37.8537 179.804 37.9147C179.926 37.9758 180.071 38.0292 180.239 38.075C180.407 38.1132 180.59 38.159 180.788 38.2124C181.009 38.2659 181.234 38.3346 181.462 38.4186C181.691 38.4949 181.905 38.598 182.103 38.7277C182.302 38.8499 182.462 39.0102 182.583 39.2087C182.713 39.3996 182.778 39.64 182.778 39.9301C182.778 40.266 182.686 40.5599 182.503 40.8118C182.32 41.0561 182.065 41.247 181.737 41.3844C181.417 41.5218 181.043 41.5905 180.616 41.5905C180.029 41.5905 179.541 41.4607 179.152 41.2012C178.771 40.934 178.516 40.5447 178.386 40.0332L179.209 39.7583ZM189.844 41.5905C189.303 41.5905 188.819 41.4722 188.392 41.2355C187.965 40.9988 187.63 40.663 187.385 40.2278C187.142 39.785 187.019 39.2621 187.019 38.659C187.019 38.0483 187.142 37.5216 187.385 37.0788C187.637 36.636 187.976 36.2963 188.403 36.0597C188.838 35.823 189.326 35.7047 189.867 35.7047C190.409 35.7047 190.893 35.823 191.32 36.0597C191.754 36.2963 192.094 36.636 192.338 37.0788C192.589 37.5139 192.715 38.033 192.715 38.6361C192.715 39.2468 192.589 39.7736 192.338 40.2164C192.086 40.6592 191.743 40.9988 191.308 41.2355C190.874 41.4722 190.386 41.5905 189.844 41.5905ZM189.833 40.7775C190.169 40.7775 190.485 40.705 190.782 40.5599C191.079 40.4072 191.32 40.1744 191.503 39.8614C191.694 39.5408 191.789 39.1362 191.789 38.6476C191.789 38.1514 191.697 37.7468 191.514 37.4338C191.331 37.1208 191.091 36.8918 190.794 36.7467C190.504 36.5941 190.192 36.5177 189.856 36.5177C189.52 36.5177 189.208 36.5941 188.918 36.7467C188.628 36.8918 188.392 37.1246 188.209 37.4452C188.034 37.7582 187.946 38.159 187.946 38.6476C187.946 39.1438 188.034 39.5484 188.209 39.8614C188.385 40.1744 188.613 40.4072 188.895 40.5599C189.185 40.705 189.498 40.7775 189.833 40.7775ZM194.12 35.7848H194.909L194.955 36.5979C195.138 36.3154 195.378 36.0978 195.676 35.9452C195.973 35.7848 196.32 35.7047 196.717 35.7047C197.151 35.7047 197.532 35.8001 197.86 35.991C198.188 36.1742 198.444 36.4528 198.626 36.8269C198.809 37.1933 198.901 37.6551 198.901 38.2124V41.5103H198.043V38.3155C198.043 37.7201 197.914 37.2697 197.654 36.9643C197.403 36.6513 197.037 36.4948 196.556 36.4948C196.061 36.4948 195.672 36.6589 195.39 36.9872C195.115 37.3155 194.978 37.8002 194.978 38.4415V41.5103H194.12V35.7848ZM206.206 41.5905C205.65 41.5905 205.162 41.4683 204.742 41.2241C204.323 40.9798 203.995 40.6401 203.759 40.2049C203.53 39.7621 203.416 39.2507 203.416 38.6705C203.416 38.0827 203.53 37.5674 203.759 37.1246C203.995 36.6742 204.323 36.3268 204.742 36.0826C205.162 35.8306 205.65 35.7047 206.206 35.7047C206.793 35.7047 207.308 35.8421 207.75 36.1169C208.193 36.3841 208.513 36.7582 208.711 37.2391L207.922 37.5139C207.808 37.2086 207.598 36.9681 207.293 36.7925C206.996 36.6093 206.649 36.5177 206.252 36.5177C205.863 36.5177 205.524 36.6055 205.234 36.7811C204.952 36.9566 204.731 37.2048 204.571 37.5254C204.419 37.846 204.342 38.2239 204.342 38.659C204.342 39.3003 204.514 39.8156 204.857 40.2049C205.2 40.5866 205.657 40.7775 206.229 40.7775C206.618 40.7775 206.965 40.6897 207.27 40.5141C207.575 40.3385 207.8 40.1019 207.945 39.8041L208.723 40.079C208.517 40.5522 208.193 40.9225 207.75 41.1897C207.308 41.4569 206.793 41.5905 206.206 41.5905ZM212.596 41.5905C212.054 41.5905 211.57 41.4722 211.144 41.2355C210.716 40.9988 210.381 40.663 210.137 40.2278C209.893 39.785 209.771 39.2621 209.771 38.659C209.771 38.0483 209.893 37.5216 210.137 37.0788C210.389 36.636 210.728 36.2963 211.155 36.0597C211.59 35.823 212.077 35.7047 212.619 35.7047C213.16 35.7047 213.644 35.823 214.072 36.0597C214.506 36.2963 214.845 36.636 215.089 37.0788C215.341 37.5139 215.467 38.033 215.467 38.6361C215.467 39.2468 215.341 39.7736 215.089 40.2164C214.838 40.6592 214.495 40.9988 214.06 41.2355C213.625 41.4722 213.137 41.5905 212.596 41.5905ZM212.585 40.7775C212.92 40.7775 213.237 40.705 213.534 40.5599C213.831 40.4072 214.072 40.1744 214.255 39.8614C214.445 39.5408 214.54 39.1362 214.54 38.6476C214.54 38.1514 214.449 37.7468 214.266 37.4338C214.083 37.1208 213.843 36.8918 213.545 36.7467C213.255 36.5941 212.943 36.5177 212.607 36.5177C212.272 36.5177 211.959 36.5941 211.67 36.7467C211.379 36.8918 211.144 37.1246 210.961 37.4452C210.785 37.7582 210.698 38.159 210.698 38.6476C210.698 39.1438 210.785 39.5484 210.961 39.8614C211.136 40.1744 211.364 40.4072 211.647 40.5599C211.936 40.705 212.249 40.7775 212.585 40.7775ZM216.871 35.7848H217.661L217.706 36.5979C217.889 36.3154 218.129 36.0978 218.427 35.9452C218.724 35.7848 219.071 35.7047 219.468 35.7047C219.902 35.7047 220.283 35.8001 220.611 35.991C220.939 36.1742 221.195 36.4528 221.378 36.8269C221.561 37.1933 221.652 37.6551 221.652 38.2124V41.5103H220.794V38.3155C220.794 37.7201 220.665 37.2697 220.405 36.9643C220.154 36.6513 219.788 36.4948 219.308 36.4948C218.812 36.4948 218.423 36.6589 218.141 36.9872C217.866 37.3155 217.729 37.8002 217.729 38.4415V41.5103H216.871V35.7848ZM223.785 39.7583C223.831 39.9873 223.915 40.1782 224.037 40.3309C224.158 40.476 224.315 40.5866 224.506 40.663C224.704 40.7393 224.932 40.7775 225.192 40.7775C225.596 40.7775 225.901 40.7011 226.107 40.5484C226.32 40.3881 226.427 40.1897 226.427 39.953C226.427 39.7545 226.362 39.5942 226.233 39.4721C226.11 39.3499 225.947 39.2507 225.741 39.1743C225.535 39.0904 225.306 39.0178 225.055 38.9568C224.856 38.911 224.643 38.8575 224.414 38.7964C224.185 38.7277 223.968 38.6361 223.762 38.5216C223.556 38.4071 223.388 38.2583 223.259 38.075C223.129 37.8918 223.065 37.6514 223.065 37.3536C223.065 37.0253 223.152 36.7391 223.328 36.4948C223.511 36.2429 223.758 36.0482 224.071 35.9108C224.391 35.7734 224.757 35.7047 225.169 35.7047C225.641 35.7047 226.061 35.8077 226.427 36.0139C226.8 36.22 227.06 36.5406 227.205 36.9757L226.404 37.2506C226.351 37.0521 226.251 36.8994 226.107 36.7925C225.97 36.6857 225.813 36.6131 225.638 36.575C225.47 36.5368 225.302 36.5177 225.135 36.5177C224.792 36.5177 224.513 36.5864 224.3 36.7238C224.094 36.8536 223.991 37.0521 223.991 37.3193C223.991 37.4643 224.025 37.5864 224.094 37.6857C224.163 37.7773 224.258 37.8537 224.38 37.9147C224.501 37.9758 224.646 38.0292 224.814 38.075C224.982 38.1132 225.165 38.159 225.363 38.2124C225.584 38.2659 225.809 38.3346 226.038 38.4186C226.267 38.4949 226.48 38.598 226.679 38.7277C226.877 38.8499 227.037 39.0102 227.159 39.2087C227.288 39.3996 227.353 39.64 227.353 39.9301C227.353 40.266 227.262 40.5599 227.079 40.8118C226.896 41.0561 226.64 41.247 226.313 41.3844C225.992 41.5218 225.619 41.5905 225.192 41.5905C224.604 41.5905 224.117 41.4607 223.728 41.2012C223.346 40.934 223.091 40.5447 222.962 40.0332L223.785 39.7583ZM233.422 41.5103H232.644L232.587 40.6859C232.412 40.9759 232.175 41.2012 231.878 41.3615C231.58 41.5141 231.233 41.5905 230.837 41.5905C230.395 41.5905 230.01 41.4989 229.682 41.3157C229.354 41.1324 229.098 40.8576 228.915 40.4912C228.74 40.1248 228.652 39.6629 228.652 39.1056V35.7848H229.499V39.014C229.499 39.6018 229.624 40.0484 229.876 40.3538C230.136 40.6515 230.505 40.8004 230.985 40.8004C231.474 40.8004 231.859 40.6439 232.141 40.3309C232.431 40.0103 232.575 39.5293 232.575 38.8881V35.7848H233.422V41.5103ZM235.166 33.2656H236.024V41.5103H235.166V33.2656ZM238.134 35.7848V34.1817H238.992V35.7848H240.513V36.5864H238.992V39.6667C238.992 40.0179 239.065 40.2736 239.209 40.4339C239.362 40.5943 239.553 40.6897 239.781 40.7202C240.018 40.7508 240.262 40.7508 240.513 40.7202V41.4645C240.216 41.5332 239.923 41.5523 239.633 41.5218C239.351 41.4912 239.095 41.4073 238.866 41.2699C238.645 41.1248 238.466 40.9225 238.329 40.663C238.199 40.4034 238.134 40.0713 238.134 39.6667V36.5864H237.277V35.7848H238.134ZM245.369 41.5103L245.3 40.4797C245.14 40.8309 244.904 41.1058 244.591 41.3042C244.279 41.4951 243.882 41.5905 243.402 41.5905C242.99 41.5905 242.64 41.5256 242.35 41.3958C242.06 41.2661 241.835 41.0829 241.675 40.8462C241.523 40.6019 241.446 40.3156 241.446 39.9874C241.446 39.5064 241.625 39.1133 241.984 38.8079C242.342 38.4949 242.861 38.3041 243.539 38.2354L245.3 38.0407V37.5826C245.3 37.262 245.182 37.0063 244.946 36.8154C244.71 36.617 244.39 36.5177 243.985 36.5177C243.589 36.5177 243.257 36.6093 242.99 36.7925C242.731 36.9757 242.552 37.2391 242.453 37.5826L241.675 37.3078C241.828 36.804 242.106 36.4109 242.51 36.1284C242.921 35.8459 243.421 35.7047 244.008 35.7047C244.687 35.7047 245.213 35.8802 245.586 36.2314C245.968 36.575 246.158 37.0444 246.158 37.6399V41.5103H245.369ZM245.3 38.7735L243.528 38.9797C243.147 39.0255 242.857 39.1323 242.658 39.3003C242.46 39.4606 242.361 39.6744 242.361 39.9415C242.361 40.2087 242.457 40.4225 242.647 40.5828C242.846 40.7431 243.127 40.8233 243.493 40.8233C243.913 40.8233 244.256 40.7393 244.523 40.5714C244.79 40.4034 244.984 40.1782 245.106 39.8957C245.236 39.6057 245.3 39.2926 245.3 38.9568V38.7735ZM247.832 35.7848H248.621L248.667 36.5979C248.85 36.3154 249.09 36.0978 249.388 35.9452C249.685 35.7848 250.032 35.7047 250.428 35.7047C250.863 35.7047 251.244 35.8001 251.572 35.991C251.9 36.1742 252.155 36.4528 252.338 36.8269C252.521 37.1933 252.613 37.6551 252.613 38.2124V41.5103H251.755V38.3155C251.755 37.7201 251.625 37.2697 251.366 36.9643C251.115 36.6513 250.749 36.4948 250.268 36.4948C249.772 36.4948 249.383 36.6589 249.102 36.9872C248.827 37.3155 248.69 37.8002 248.69 38.4415V41.5103H247.832V35.7848ZM254.642 35.7848V34.1817H255.5V35.7848H257.021V36.5864H255.5V39.6667C255.5 40.0179 255.572 40.2736 255.717 40.4339C255.87 40.5943 256.06 40.6897 256.289 40.7202C256.526 40.7508 256.77 40.7508 257.021 40.7202V41.4645C256.724 41.5332 256.43 41.5523 256.14 41.5218C255.858 41.4912 255.603 41.4073 255.374 41.2699C255.153 41.1248 254.974 40.9225 254.837 40.663C254.707 40.4034 254.642 40.0713 254.642 39.6667V36.5864H253.784V35.7848H254.642ZM258.766 39.7583C258.812 39.9873 258.895 40.1782 259.018 40.3309C259.14 40.476 259.296 40.5866 259.487 40.663C259.685 40.7393 259.913 40.7775 260.173 40.7775C260.577 40.7775 260.882 40.7011 261.088 40.5484C261.301 40.3881 261.408 40.1897 261.408 39.953C261.408 39.7545 261.343 39.5942 261.214 39.4721C261.091 39.3499 260.928 39.2507 260.722 39.1743C260.516 39.0904 260.287 39.0178 260.036 38.9568C259.838 38.911 259.624 38.8575 259.395 38.7964C259.166 38.7277 258.949 38.6361 258.743 38.5216C258.537 38.4071 258.369 38.2583 258.24 38.075C258.111 37.8918 258.045 37.6514 258.045 37.3536C258.045 37.0253 258.133 36.7391 258.309 36.4948C258.492 36.2429 258.74 36.0482 259.052 35.9108C259.372 35.7734 259.738 35.7047 260.15 35.7047C260.622 35.7047 261.042 35.8077 261.408 36.0139C261.782 36.22 262.041 36.5406 262.186 36.9757L261.385 37.2506C261.331 37.0521 261.233 36.8994 261.088 36.7925C260.95 36.6857 260.794 36.6131 260.619 36.575C260.451 36.5368 260.284 36.5177 260.116 36.5177C259.772 36.5177 259.494 36.5864 259.281 36.7238C259.075 36.8536 258.972 37.0521 258.972 37.3193C258.972 37.4643 259.006 37.5864 259.075 37.6857C259.143 37.7773 259.239 37.8537 259.361 37.9147C259.483 37.9758 259.627 38.0292 259.795 38.075C259.963 38.1132 260.146 38.159 260.344 38.2124C260.565 38.2659 260.79 38.3346 261.019 38.4186C261.248 38.4949 261.462 38.598 261.66 38.7277C261.858 38.8499 262.018 39.0102 262.14 39.2087C262.269 39.3996 262.334 39.64 262.334 39.9301C262.334 40.266 262.243 40.5599 262.06 40.8118C261.877 41.0561 261.622 41.247 261.294 41.3844C260.973 41.5218 260.6 41.5905 260.173 41.5905C259.586 41.5905 259.098 41.4607 258.709 41.2012C258.328 40.934 258.072 40.5447 257.943 40.0332L258.766 39.7583Z" fill="#9CA3AF"/>
<path d="M96.082 38.0742H262.85V38.6468H96.082V38.0742Z" fill="#9CA3AF"/>
</g>
<g filter="url(#filter2_dd_5522_72307)">
<path d="M301.472 8.41832L287.662 4.71366C283.849 3.69065 279.93 5.95638 278.908 9.77433L275.208 23.6003C274.186 27.4183 276.449 31.3426 280.262 32.3657L294.071 36.0703C297.885 37.0933 301.804 34.8276 302.826 31.0097L306.526 17.1837C307.548 13.3657 305.285 9.44134 301.472 8.41832Z" fill="white"/>
<path d="M301.563 8.07344L287.754 4.36878C283.75 3.29461 279.634 5.67364 278.561 9.68248L274.861 23.5085C273.788 27.5173 276.164 31.6379 280.168 32.7121L293.978 36.4167C297.982 37.4909 302.097 35.1119 303.17 31.103L306.87 17.277C307.943 13.2682 305.567 9.14761 301.563 8.07344Z" stroke="#F3F4F7"/>
<mask id="mask0_5522_72307" style="mask-type:luminance" maskUnits="userSpaceOnUse" x="280" y="9" width="22" height="22">
<path d="M301.37 14.3206L284.799 9.875L280.359 26.4662L296.93 30.9118L301.37 14.3206Z" fill="white"/>
</mask>
<g mask="url(#mask0_5522_72307)">
<path d="M288.423 21.2193C288.117 22.3647 289.722 23.7907 292.011 24.4045C294.299 25.0184 296.402 24.5875 296.709 23.4421M288.423 21.2193C288.729 20.0737 290.832 19.6429 293.12 20.2567C295.408 20.8706 297.015 22.2965 296.709 23.4421M288.423 21.2193L287.683 23.9845C287.377 25.1292 288.982 26.5559 291.27 27.1697C293.558 27.7836 295.662 27.3521 295.968 26.2072L296.709 23.4421M285.76 14.5774C285.562 15.3185 286.169 16.2148 287.351 16.9292C288.533 17.6435 290.113 18.0672 291.493 18.0406C292.874 18.0138 293.847 17.5413 294.046 16.8003C294.244 16.0592 293.637 15.1629 292.455 14.4485C291.273 13.7342 289.693 13.3104 288.312 13.3371C286.931 13.3639 285.959 13.8364 285.76 14.5774ZM285.76 14.5774L283.91 21.4904C283.745 22.1043 284.175 22.6358 284.921 23.2435M284.835 18.034C284.67 18.6478 285.1 19.1794 285.846 19.787" stroke="#71717A" stroke-width="0.9" stroke-linecap="round" stroke-linejoin="round"/>
</g>
</g>
<g filter="url(#filter3_dd_5522_72307)">
<path d="M64.0456 174.675L52.9983 177.639C49.9476 178.458 48.1373 181.597 48.9547 184.651L51.9148 195.712C52.7322 198.767 55.8679 200.579 58.9185 199.761L69.9658 196.797C73.0165 195.979 74.8269 192.839 74.0095 189.785L71.0493 178.724C70.2319 175.67 67.0962 173.857 64.0456 174.675Z" fill="white"/>
<path d="M63.9533 174.331L52.906 177.295C49.6647 178.164 47.7412 181.5 48.6097 184.745L51.5698 195.806C52.4383 199.051 55.77 200.977 59.0113 200.108L70.0586 197.144C73.2999 196.274 75.2234 192.939 74.3549 189.693L71.3948 178.633C70.5263 175.387 67.1946 173.461 63.9533 174.331Z" stroke="#F3F4F7"/>
<mask id="mask1_5522_72307" style="mask-type:luminance" maskUnits="userSpaceOnUse" x="53" y="179" width="17" height="17">
<path d="M66.0298 179.33L53.6016 182.664L56.9317 195.107L69.3599 191.773L66.0298 179.33Z" fill="white"/>
</mask>
<g mask="url(#mask1_5522_72307)">
<path d="M62.303 181.998L62.8584 184.071M58.1607 183.109L58.7154 185.183M57.199 187.813L65.4847 185.59M56.644 185.739C56.5704 185.463 56.6089 185.171 56.7511 184.924C56.8933 184.678 57.1275 184.498 57.4022 184.424L63.6161 182.757C63.8906 182.683 64.1837 182.722 64.4296 182.864C64.6762 183.006 64.8556 183.241 64.9293 183.516L66.5948 189.737C66.6684 190.013 66.6298 190.306 66.4875 190.552C66.3453 190.799 66.1108 190.978 65.8364 191.052L59.6225 192.72C59.3473 192.793 59.0549 192.755 58.8083 192.612C58.5624 192.47 58.383 192.235 58.3094 191.96L56.644 185.739Z" stroke="#71717A" stroke-width="0.9" stroke-linecap="round" stroke-linejoin="round"/>
</g>
</g>
<g opacity="0.2" filter="url(#filter4_f_5522_72307)">
<path d="M490.873 167.93C418.408 220.499 375.834 326.38 375.834 326.38C375.834 326.38 330.598 312.622 313.838 309.658C354.611 285.318 352.217 224.917 378.471 181.553C399.612 171.979 468.877 173.327 490.873 167.93Z" fill="url(#paint4_linear_5522_72307)"/>
</g>
<g opacity="0.2" filter="url(#filter5_f_5522_72307)">
<path d="M-110.047 213.295C-50.3069 161.103 -20.7401 68.6074 -20.7401 68.6074C-20.7401 68.6074 19.9869 74.4262 34.9189 74.822C0.919762 99.8703 7.47597 149.376 -12.3741 188.336C-30.2278 198.81 -91.1343 206.158 -110.047 213.295Z" fill="url(#paint5_linear_5522_72307)"/>
</g>
<g filter="url(#filter6_dd_5522_72307)">
<path d="M310.526 65.8438H47.4741C41.1576 65.8438 36.0371 70.9705 36.0371 77.2947V133.118C36.0371 139.442 41.1576 144.569 47.4741 144.569H310.526C316.842 144.569 321.963 139.442 321.963 133.118V77.2947C321.963 70.9705 316.842 65.8438 310.526 65.8438Z" fill="white"/>
<path d="M310.526 66.2012H47.4742C41.3551 66.2012 36.3945 71.1677 36.3945 77.2943V133.118C36.3945 139.244 41.3551 144.211 47.4742 144.211H310.526C316.645 144.211 321.606 139.244 321.606 133.118V77.2943C321.606 71.1677 316.645 66.2012 310.526 66.2012Z" stroke="#F3F4F7"/>
<g filter="url(#filter7_i_5522_72307)">
<path d="M296.23 80.1582H61.7711C57.0338 80.1582 53.1934 84.0033 53.1934 88.7464V100.197C53.1934 104.941 57.0338 108.786 61.7711 108.786H296.23C300.968 108.786 304.808 104.941 304.808 100.197V88.7464C304.808 84.0033 300.968 80.1582 296.23 80.1582Z" fill="#266AE9"/>
</g>
<path d="M159.761 93.1792C159.507 92.7047 159.183 92.3611 158.79 92.1472C158.403 91.9332 157.98 91.8265 157.519 91.8265C157.052 91.8265 156.625 91.9403 156.238 92.1672C155.851 92.3941 155.544 92.7118 155.318 93.1191C155.097 93.5198 154.987 93.9943 154.987 94.5418C154.987 95.0829 155.097 95.5574 155.318 95.9646C155.538 96.3719 155.838 96.6896 156.218 96.9165C156.605 97.1434 157.035 97.2572 157.509 97.2572C157.849 97.2572 158.17 97.197 158.47 97.0768C158.77 96.9566 159.03 96.7898 159.25 96.5758C159.477 96.3618 159.654 96.1085 159.781 95.8143V95.0528H157.579V94.2312H160.792V95.8644C160.631 96.2917 160.391 96.676 160.071 97.0167C159.757 97.3574 159.381 97.6279 158.94 97.8283C158.506 98.0222 158.03 98.1189 157.509 98.1189C157.015 98.1189 156.551 98.0322 156.118 97.8583C155.691 97.6844 155.318 97.4411 154.997 97.1269C154.677 96.8063 154.427 96.4291 154.247 95.9947C154.067 95.5538 153.977 95.0693 153.977 94.5418C153.977 94.0208 154.067 93.5435 154.247 93.109C154.427 92.6682 154.677 92.2874 154.997 91.9668C155.318 91.6462 155.691 91.3993 156.118 91.2254C156.551 91.0514 157.015 90.9648 157.509 90.9648C157.956 90.9648 158.383 91.0386 158.79 91.1853C159.197 91.332 159.561 91.546 159.881 91.8265C160.201 92.1071 160.451 92.4513 160.631 92.8586L159.761 93.1792ZM164.15 98.1189C163.669 98.1189 163.242 98.0086 162.869 97.7882C162.501 97.5613 162.211 97.2507 161.998 96.8564C161.791 96.462 161.688 96.0111 161.688 95.5037C161.688 95.0163 161.791 94.5819 161.998 94.2012C162.205 93.8204 162.489 93.5198 162.849 93.2994C163.216 93.079 163.629 92.9688 164.09 92.9688C164.557 92.9688 164.97 93.0725 165.331 93.2794C165.691 93.4798 165.971 93.7639 166.171 94.131C166.371 94.4917 166.468 94.909 166.462 95.3835C166.462 95.4637 166.458 95.5474 166.452 95.634C166.444 95.7141 166.434 95.8043 166.421 95.9045H162.719C162.739 96.1715 162.812 96.4091 162.939 96.6159C163.072 96.8163 163.239 96.973 163.439 97.0868C163.646 97.2006 163.88 97.2572 164.14 97.2572C164.473 97.2572 164.763 97.1935 165.01 97.0668C165.257 96.933 165.431 96.7562 165.531 96.5357L166.351 96.8263C166.151 97.2335 165.858 97.5513 165.471 97.7782C165.091 98.005 164.65 98.1189 164.15 98.1189ZM165.431 95.0929C165.431 94.8524 165.371 94.6356 165.251 94.4417C165.131 94.2477 164.967 94.0974 164.76 93.9908C164.56 93.877 164.333 93.8204 164.08 93.8204C163.852 93.8204 163.642 93.877 163.449 93.9908C163.262 94.0974 163.102 94.2477 162.969 94.4417C162.842 94.6284 162.762 94.846 162.729 95.0929H165.431ZM167.937 93.0389V91.6362H168.888V93.0389H170.139V93.8805H168.888V96.3454C168.888 96.6524 168.948 96.87 169.068 96.9966C169.195 97.1233 169.352 97.197 169.538 97.2171C169.732 97.2307 169.932 97.2235 170.139 97.197V98.0086C169.865 98.0687 169.595 98.0852 169.328 98.0587C169.068 98.0387 168.831 97.965 168.617 97.8383C168.411 97.7116 168.244 97.5277 168.117 97.2872C167.997 97.0403 167.937 96.7261 167.937 96.3454V93.8805H167.216V93.0389H167.937ZM178.092 93.1291C178.092 92.7483 177.978 92.4442 177.751 92.2173C177.525 91.9904 177.164 91.8766 176.671 91.8766H175.069V94.3715H176.681C177.007 94.3715 177.275 94.3214 177.481 94.2212C177.688 94.1146 177.841 93.9671 177.941 93.7804C178.042 93.5936 178.092 93.376 178.092 93.1291ZM176.671 91.035C177.224 91.035 177.678 91.1316 178.032 91.3256C178.392 91.5123 178.658 91.7628 178.832 92.077C179.012 92.3912 179.102 92.7419 179.102 93.1291C179.102 93.3832 179.059 93.6336 178.972 93.8805C178.886 94.1275 178.746 94.3551 178.552 94.5619C178.358 94.7623 178.105 94.9226 177.791 95.0428C177.485 95.1566 177.114 95.2132 176.681 95.2132H175.069V98.0487H174.069V91.035H176.671ZM177.311 94.8725L179.242 98.0487H178.112L176.25 94.8725H177.311ZM182.533 98.1189C182.052 98.1189 181.625 98.0086 181.252 97.7882C180.884 97.5613 180.594 97.2507 180.381 96.8564C180.174 96.462 180.071 96.0111 180.071 95.5037C180.071 95.0163 180.174 94.5819 180.381 94.2012C180.588 93.8204 180.871 93.5198 181.232 93.2994C181.598 93.079 182.012 92.9688 182.473 92.9688C182.939 92.9688 183.353 93.0725 183.714 93.2794C184.074 93.4798 184.354 93.7639 184.554 94.131C184.754 94.4917 184.851 94.909 184.844 95.3835C184.844 95.4637 184.841 95.5474 184.834 95.634C184.827 95.7141 184.817 95.8043 184.804 95.9045H181.102C181.122 96.1715 181.195 96.4091 181.322 96.6159C181.455 96.8163 181.622 96.973 181.822 97.0868C182.029 97.2006 182.263 97.2572 182.523 97.2572C182.856 97.2572 183.146 97.1935 183.393 97.0668C183.64 96.933 183.814 96.7562 183.914 96.5357L184.734 96.8263C184.534 97.2335 184.24 97.5513 183.854 97.7782C183.473 98.005 183.033 98.1189 182.533 98.1189ZM183.814 95.0929C183.814 94.8524 183.754 94.6356 183.634 94.4417C183.513 94.2477 183.35 94.0974 183.143 93.9908C182.943 93.877 182.716 93.8204 182.463 93.8204C182.235 93.8204 182.025 93.877 181.832 93.9908C181.645 94.0974 181.485 94.2477 181.352 94.4417C181.225 94.6284 181.145 94.846 181.112 95.0929H183.814ZM186.84 97.197L186.94 97.167V100.053H186V93.0389H186.86L186.93 93.7904C187.09 93.5635 187.311 93.3696 187.591 93.2092C187.878 93.0489 188.225 92.9688 188.632 92.9688C189.072 92.9688 189.462 93.0754 189.802 93.2894C190.143 93.5034 190.41 93.804 190.603 94.1912C190.803 94.5719 190.903 95.0228 190.903 95.5438C190.903 96.0584 190.807 96.5093 190.613 96.8965C190.426 97.2836 190.163 97.5842 189.822 97.7982C189.482 98.0122 189.085 98.1189 188.632 98.1189C188.198 98.1189 187.828 98.0322 187.521 97.8583C187.22 97.678 186.994 97.4575 186.84 97.197ZM189.882 95.5438C189.882 95.0292 189.746 94.6156 189.472 94.3014C189.205 93.9872 188.855 93.8305 188.421 93.8305C188.141 93.8305 187.891 93.897 187.671 94.0308C187.451 94.1647 187.274 94.3579 187.14 94.612C187.007 94.8661 186.94 95.1767 186.94 95.5438C186.94 95.9045 187.007 96.2115 187.14 96.4656C187.274 96.7197 187.451 96.9165 187.671 97.0568C187.891 97.1906 188.141 97.2572 188.421 97.2572C188.855 97.2572 189.205 97.1004 189.472 96.7862C189.746 96.472 189.882 96.0584 189.882 95.5438ZM194.231 98.1189C193.757 98.1189 193.33 98.0151 192.95 97.8082C192.577 97.5942 192.283 97.2972 192.069 96.9165C191.856 96.5293 191.749 96.0749 191.749 95.5538C191.749 95.0264 191.859 94.5683 192.079 94.1811C192.299 93.7939 192.599 93.4962 192.98 93.2894C193.36 93.0754 193.787 92.9688 194.261 92.9688C194.735 92.9688 195.161 93.0754 195.542 93.2894C195.929 93.4962 196.232 93.7939 196.452 94.1811C196.672 94.5619 196.783 95.0128 196.783 95.5338C196.783 96.0612 196.67 96.5193 196.442 96.9065C196.222 97.2937 195.919 97.5942 195.532 97.8082C195.145 98.0151 194.711 98.1189 194.231 98.1189ZM194.221 97.2572C194.488 97.2572 194.738 97.197 194.971 97.0768C195.205 96.9501 195.395 96.7598 195.542 96.5057C195.695 96.2516 195.772 95.9281 195.772 95.5338C195.772 95.1466 195.699 94.8288 195.552 94.5819C195.412 94.3279 195.225 94.1411 194.991 94.0208C194.758 93.8941 194.508 93.8305 194.241 93.8305C193.98 93.8305 193.737 93.8941 193.51 94.0208C193.29 94.1411 193.11 94.3279 192.97 94.5819C192.83 94.836 192.76 95.1595 192.76 95.5538C192.76 95.941 192.827 96.2616 192.96 96.5157C193.1 96.7626 193.28 96.9501 193.5 97.0768C193.72 97.197 193.96 97.2572 194.221 97.2572ZM197.933 93.0389H198.793L198.853 93.7102C198.993 93.5363 199.154 93.3932 199.334 93.2794C199.52 93.1591 199.72 93.0754 199.934 93.0289C200.154 92.9824 200.381 92.9852 200.615 93.0389V93.9307C200.394 93.877 200.181 93.8705 199.974 93.9106C199.767 93.9507 199.58 94.0373 199.414 94.1711C199.254 94.2978 199.124 94.4681 199.023 94.6821C198.923 94.8961 198.873 95.153 198.873 95.4536V98.0487H197.933V93.0389ZM201.888 93.0389V91.6362H202.838V93.0389H204.089V93.8805H202.838V96.3454C202.838 96.6524 202.898 96.87 203.019 96.9966C203.146 97.1233 203.302 97.197 203.489 97.2171C203.683 97.2307 203.883 97.2235 204.089 97.197V98.0086C203.816 98.0687 203.546 98.0852 203.279 98.0587C203.019 98.0387 202.782 97.965 202.568 97.8383C202.362 97.7116 202.195 97.5277 202.068 97.2872C201.948 97.0403 201.888 96.7261 201.888 96.3454V93.8805H201.167V93.0389H201.888Z" fill="white"/>
<path d="M112.953 123.17C112.953 122.643 113.04 122.162 113.213 121.727C113.387 121.286 113.63 120.909 113.944 120.595C114.264 120.274 114.631 120.028 115.045 119.854C115.465 119.68 115.922 119.593 116.416 119.593C117.136 119.593 117.767 119.76 118.307 120.094C118.854 120.428 119.268 120.902 119.548 121.517L118.898 121.757C118.744 121.43 118.541 121.163 118.287 120.956C118.033 120.742 117.747 120.582 117.426 120.475C117.106 120.368 116.77 120.315 116.416 120.315C115.915 120.315 115.465 120.428 115.065 120.655C114.664 120.882 114.348 121.21 114.114 121.637C113.887 122.064 113.774 122.575 113.774 123.17C113.774 123.758 113.887 124.266 114.114 124.693C114.348 125.12 114.664 125.451 115.065 125.685C115.465 125.912 115.915 126.026 116.416 126.026C116.776 126.026 117.12 125.969 117.446 125.855C117.773 125.742 118.067 125.565 118.327 125.324C118.594 125.084 118.807 124.783 118.968 124.423L119.618 124.663C119.331 125.351 118.911 125.872 118.357 126.226C117.803 126.573 117.156 126.747 116.416 126.747C115.922 126.747 115.465 126.661 115.045 126.487C114.631 126.313 114.264 126.066 113.944 125.745C113.63 125.425 113.387 125.047 113.213 124.613C113.04 124.172 112.953 123.691 112.953 123.17ZM120.945 119.463H121.696V126.677H120.945V119.463ZM126.355 126.677L126.295 125.775C126.155 126.082 125.948 126.323 125.675 126.497C125.401 126.663 125.054 126.747 124.634 126.747C124.274 126.747 123.966 126.691 123.713 126.577C123.459 126.463 123.263 126.303 123.123 126.096C122.989 125.882 122.923 125.631 122.923 125.344C122.923 124.924 123.079 124.579 123.393 124.312C123.706 124.038 124.16 123.872 124.754 123.811L126.295 123.641V123.24C126.295 122.96 126.191 122.736 125.985 122.569C125.778 122.395 125.497 122.308 125.144 122.308C124.797 122.308 124.507 122.389 124.274 122.549C124.046 122.709 123.89 122.94 123.803 123.24L123.123 123C123.256 122.559 123.499 122.215 123.853 121.968C124.214 121.721 124.65 121.597 125.164 121.597C125.758 121.597 126.218 121.751 126.545 122.058C126.878 122.359 127.046 122.769 127.046 123.29V126.677H126.355ZM126.295 124.282L124.744 124.463C124.41 124.503 124.156 124.597 123.983 124.743C123.81 124.884 123.723 125.07 123.723 125.304C123.723 125.538 123.806 125.725 123.973 125.865C124.146 126.006 124.394 126.076 124.714 126.076C125.081 126.076 125.381 126.002 125.615 125.855C125.848 125.709 126.018 125.511 126.125 125.264C126.238 125.01 126.295 124.737 126.295 124.443V124.282ZM128.51 121.667H129.2L129.24 122.399C129.374 122.218 129.534 122.064 129.721 121.938C129.914 121.811 130.124 121.724 130.351 121.677C130.585 121.624 130.831 121.621 131.092 121.667V122.419C130.811 122.365 130.558 122.365 130.331 122.419C130.111 122.472 129.921 122.573 129.761 122.719C129.6 122.866 129.477 123.053 129.39 123.28C129.304 123.501 129.26 123.758 129.26 124.052V126.677H128.51V121.667ZM132.266 121.667H133.007V126.677H132.266V121.667ZM132.646 120.665C132.493 120.665 132.366 120.615 132.266 120.515C132.166 120.415 132.116 120.291 132.116 120.144C132.116 119.99 132.166 119.864 132.266 119.763C132.366 119.663 132.493 119.613 132.646 119.613C132.786 119.613 132.906 119.663 133.007 119.763C133.113 119.864 133.167 119.99 133.167 120.144C133.167 120.291 133.113 120.415 133.007 120.515C132.906 120.615 132.786 120.665 132.646 120.665ZM135.016 121.667V120.264H135.766V121.667H137.097V122.369H135.766V125.064C135.766 125.371 135.83 125.595 135.957 125.735C136.09 125.875 136.257 125.959 136.457 125.986C136.664 126.012 136.877 126.012 137.097 125.986V126.637C136.837 126.697 136.581 126.714 136.327 126.687C136.08 126.661 135.857 126.587 135.656 126.467C135.463 126.34 135.306 126.162 135.186 125.936C135.073 125.709 135.016 125.418 135.016 125.064V122.369H134.265V121.667H135.016ZM141.606 121.667H142.387L139.525 128.681H138.804L139.655 126.607L137.634 121.667H138.454L140.055 125.715L141.606 121.667ZM146.3 121.667H147.04V126.677H146.3V121.667ZM146.68 120.665C146.527 120.665 146.4 120.615 146.3 120.515C146.2 120.415 146.15 120.291 146.15 120.144C146.15 119.99 146.2 119.864 146.3 119.763C146.4 119.663 146.527 119.613 146.68 119.613C146.82 119.613 146.94 119.663 147.04 119.763C147.147 119.864 147.201 119.99 147.201 120.144C147.201 120.291 147.147 120.415 147.04 120.515C146.94 120.615 146.82 120.665 146.68 120.665ZM148.73 121.667H149.42L149.46 122.379C149.62 122.132 149.83 121.941 150.091 121.807C150.351 121.667 150.655 121.597 151.001 121.597C151.382 121.597 151.715 121.681 152.002 121.848C152.289 122.008 152.512 122.252 152.673 122.579C152.833 122.9 152.913 123.304 152.913 123.791V126.677H152.162V123.882C152.162 123.361 152.049 122.966 151.822 122.699C151.602 122.425 151.281 122.288 150.861 122.288C150.428 122.288 150.088 122.432 149.84 122.719C149.6 123.006 149.48 123.431 149.48 123.992V126.677H148.73V121.667ZM156.833 123.17C156.833 122.643 156.92 122.162 157.094 121.727C157.267 121.286 157.51 120.909 157.824 120.595C158.144 120.274 158.511 120.028 158.925 119.854C159.345 119.68 159.802 119.593 160.296 119.593C161.017 119.593 161.647 119.76 162.187 120.094C162.734 120.428 163.148 120.902 163.428 121.517L162.778 121.757C162.624 121.43 162.42 121.163 162.167 120.956C161.914 120.742 161.627 120.582 161.307 120.475C160.987 120.368 160.649 120.315 160.296 120.315C159.796 120.315 159.345 120.428 158.945 120.655C158.545 120.882 158.227 121.21 157.994 121.637C157.767 122.064 157.654 122.575 157.654 123.17C157.654 123.758 157.767 124.266 157.994 124.693C158.227 125.12 158.545 125.451 158.945 125.685C159.345 125.912 159.796 126.026 160.296 126.026C160.656 126.026 160.999 125.969 161.327 125.855C161.653 125.742 161.947 125.565 162.207 125.324C162.474 125.084 162.688 124.783 162.848 124.423L163.498 124.663C163.211 125.351 162.791 125.872 162.237 126.226C161.683 126.573 161.037 126.747 160.296 126.747C159.802 126.747 159.345 126.661 158.925 126.487C158.511 126.313 158.144 126.066 157.824 125.745C157.51 125.425 157.267 125.047 157.094 124.613C156.92 124.172 156.833 123.691 156.833 123.17ZM164.826 119.463H165.576V126.677H164.826V119.463ZM167.253 121.667H167.993V126.677H167.253V121.667ZM167.633 120.665C167.48 120.665 167.353 120.615 167.253 120.515C167.153 120.415 167.102 120.291 167.102 120.144C167.102 119.99 167.153 119.864 167.253 119.763C167.353 119.663 167.48 119.613 167.633 119.613C167.773 119.613 167.893 119.663 167.993 119.763C168.1 119.864 168.153 119.99 168.153 120.144C168.153 120.291 168.1 120.415 167.993 120.515C167.893 120.615 167.773 120.665 167.633 120.665ZM171.815 126.747C171.327 126.747 170.9 126.641 170.534 126.427C170.166 126.213 169.88 125.916 169.673 125.535C169.473 125.148 169.373 124.7 169.373 124.192C169.373 123.678 169.473 123.227 169.673 122.839C169.88 122.445 170.166 122.142 170.534 121.928C170.9 121.707 171.327 121.597 171.815 121.597C172.328 121.597 172.778 121.717 173.166 121.958C173.552 122.192 173.832 122.519 174.006 122.94L173.316 123.18C173.216 122.913 173.032 122.703 172.765 122.549C172.505 122.389 172.201 122.308 171.855 122.308C171.514 122.308 171.217 122.385 170.964 122.539C170.717 122.693 170.524 122.91 170.383 123.19C170.25 123.471 170.183 123.801 170.183 124.182C170.183 124.743 170.333 125.194 170.634 125.535C170.934 125.869 171.334 126.036 171.835 126.036C172.175 126.036 172.478 125.959 172.745 125.805C173.012 125.651 173.208 125.445 173.336 125.184L174.016 125.425C173.836 125.839 173.552 126.162 173.166 126.396C172.778 126.63 172.328 126.747 171.815 126.747ZM175.244 119.463H176.004V123.841H176.464L178.436 121.667H179.497L177.135 124.172L179.507 126.677H178.436L176.464 124.493H176.004V126.677H175.244V119.463ZM180.833 125.144C180.873 125.344 180.947 125.511 181.054 125.645C181.16 125.772 181.297 125.869 181.464 125.936C181.638 126.002 181.838 126.036 182.064 126.036C182.418 126.036 182.685 125.969 182.865 125.835C183.051 125.695 183.145 125.521 183.145 125.314C183.145 125.14 183.089 125 182.975 124.894C182.868 124.787 182.725 124.7 182.545 124.633C182.365 124.559 182.164 124.496 181.944 124.443C181.771 124.403 181.584 124.356 181.384 124.302C181.184 124.242 180.993 124.162 180.813 124.062C180.633 123.962 180.487 123.831 180.373 123.671C180.259 123.511 180.203 123.3 180.203 123.04C180.203 122.753 180.279 122.502 180.433 122.288C180.593 122.068 180.81 121.898 181.084 121.777C181.364 121.657 181.684 121.597 182.044 121.597C182.458 121.597 182.825 121.687 183.145 121.868C183.472 122.048 183.699 122.328 183.826 122.709L183.125 122.95C183.079 122.776 182.991 122.643 182.865 122.549C182.745 122.455 182.608 122.392 182.455 122.359C182.308 122.325 182.161 122.308 182.014 122.308C181.714 122.308 181.47 122.369 181.284 122.489C181.104 122.603 181.014 122.776 181.014 123.01C181.014 123.137 181.044 123.244 181.104 123.33C181.164 123.411 181.247 123.477 181.354 123.531C181.46 123.585 181.588 123.631 181.734 123.671C181.881 123.705 182.041 123.745 182.214 123.791C182.408 123.838 182.605 123.898 182.805 123.972C183.005 124.038 183.192 124.128 183.365 124.242C183.539 124.349 183.679 124.489 183.786 124.663C183.899 124.83 183.956 125.04 183.956 125.294C183.956 125.588 183.876 125.845 183.716 126.066C183.555 126.28 183.332 126.447 183.045 126.567C182.765 126.687 182.438 126.747 182.064 126.747C181.55 126.747 181.124 126.633 180.783 126.406C180.45 126.172 180.226 125.832 180.113 125.384L180.833 125.144ZM185.583 126.727C185.43 126.727 185.3 126.673 185.193 126.567C185.093 126.46 185.043 126.33 185.043 126.176C185.043 126.022 185.093 125.892 185.193 125.785C185.3 125.679 185.43 125.625 185.583 125.625C185.73 125.625 185.856 125.679 185.964 125.785C186.07 125.892 186.124 126.022 186.124 126.176C186.124 126.33 186.07 126.46 185.964 126.567C185.856 126.673 185.73 126.727 185.583 126.727ZM195.767 119.663V126.677H194.956L191.213 120.946V126.677H190.413V119.663H191.223L194.966 125.384V119.663H195.767ZM199.55 126.747C199.077 126.747 198.653 126.643 198.279 126.437C197.906 126.23 197.612 125.936 197.398 125.555C197.185 125.168 197.078 124.71 197.078 124.182C197.078 123.648 197.185 123.187 197.398 122.799C197.619 122.412 197.916 122.115 198.289 121.908C198.669 121.701 199.097 121.597 199.57 121.597C200.044 121.597 200.468 121.701 200.841 121.908C201.221 122.115 201.519 122.412 201.732 122.799C201.952 123.18 202.062 123.635 202.062 124.162C202.062 124.697 201.952 125.158 201.732 125.545C201.512 125.932 201.211 126.23 200.831 126.437C200.451 126.643 200.024 126.747 199.55 126.747ZM199.54 126.036C199.834 126.036 200.11 125.972 200.371 125.845C200.631 125.712 200.841 125.508 201.001 125.234C201.168 124.954 201.251 124.599 201.251 124.172C201.251 123.738 201.171 123.384 201.011 123.11C200.851 122.836 200.641 122.636 200.381 122.509C200.128 122.375 199.854 122.308 199.56 122.308C199.267 122.308 198.993 122.375 198.739 122.509C198.486 122.636 198.279 122.839 198.119 123.12C197.966 123.394 197.889 123.745 197.889 124.172C197.889 124.607 197.966 124.96 198.119 125.234C198.273 125.508 198.473 125.712 198.719 125.845C198.973 125.972 199.247 126.036 199.54 126.036ZM203.612 121.667V120.264H204.362V121.667H205.693V122.369H204.362V125.064C204.362 125.371 204.426 125.595 204.552 125.735C204.686 125.875 204.853 125.959 205.053 125.986C205.26 126.012 205.473 126.012 205.693 125.986V126.637C205.433 126.697 205.176 126.714 204.923 126.687C204.676 126.661 204.452 126.587 204.252 126.467C204.059 126.34 203.902 126.162 203.782 125.936C203.669 125.709 203.612 125.418 203.612 125.064V122.369H202.861V121.667H203.612ZM210.495 126.677H209.695V119.663H210.575L213.177 125.575L215.769 119.663H216.64V126.677H215.839V121.246L213.458 126.677H212.887L210.495 121.246V126.677ZM220.426 126.747C219.952 126.747 219.528 126.643 219.155 126.437C218.781 126.23 218.487 125.936 218.274 125.555C218.06 125.168 217.954 124.71 217.954 124.182C217.954 123.648 218.06 123.187 218.274 122.799C218.494 122.412 218.791 122.115 219.165 121.908C219.545 121.701 219.972 121.597 220.446 121.597C220.919 121.597 221.343 121.701 221.716 121.908C222.097 122.115 222.393 122.412 222.607 122.799C222.827 123.18 222.937 123.635 222.937 124.162C222.937 124.697 222.827 125.158 222.607 125.545C222.387 125.932 222.087 126.23 221.706 126.437C221.326 126.643 220.899 126.747 220.426 126.747ZM220.416 126.036C220.709 126.036 220.986 125.972 221.246 125.845C221.506 125.712 221.716 125.508 221.877 125.234C222.043 124.954 222.127 124.599 222.127 124.172C222.127 123.738 222.047 123.384 221.887 123.11C221.726 122.836 221.516 122.636 221.256 122.509C221.002 122.375 220.729 122.308 220.436 122.308C220.142 122.308 219.868 122.375 219.615 122.509C219.361 122.636 219.155 122.839 218.994 123.12C218.841 123.394 218.764 123.745 218.764 124.172C218.764 124.607 218.841 124.96 218.994 125.234C219.147 125.508 219.348 125.712 219.595 125.845C219.848 125.972 220.122 126.036 220.416 126.036ZM224.166 121.667H224.857L224.897 122.379C225.057 122.132 225.267 121.941 225.527 121.807C225.787 121.667 226.091 121.597 226.438 121.597C226.818 121.597 227.152 121.681 227.439 121.848C227.726 122.008 227.949 122.252 228.109 122.579C228.269 122.9 228.349 123.304 228.349 123.791V126.677H227.599V123.882C227.599 123.361 227.486 122.966 227.258 122.699C227.038 122.425 226.718 122.288 226.298 122.288C225.865 122.288 225.524 122.432 225.277 122.719C225.037 123.006 224.917 123.431 224.917 123.992V126.677H224.166V121.667ZM230.126 121.667V120.264H230.876V121.667H232.207V122.369H230.876V125.064C230.876 125.371 230.94 125.595 231.066 125.735C231.2 125.875 231.366 125.959 231.567 125.986C231.773 126.012 231.987 126.012 232.207 125.986V126.637C231.947 126.697 231.69 126.714 231.437 126.687C231.19 126.661 230.966 126.587 230.766 126.467C230.572 126.34 230.416 126.162 230.296 125.936C230.182 125.709 230.126 125.418 230.126 125.064V122.369H229.375V121.667H230.126ZM233.324 119.463H234.074V122.349C234.234 122.108 234.451 121.924 234.725 121.797C234.998 121.664 235.305 121.597 235.645 121.597C236.012 121.597 236.339 121.681 236.626 121.848C236.913 122.014 237.136 122.262 237.297 122.589C237.463 122.916 237.547 123.324 237.547 123.811V126.677H236.746V123.902C236.746 123.381 236.636 122.983 236.416 122.709C236.196 122.429 235.876 122.288 235.455 122.288C235.021 122.288 234.681 122.435 234.434 122.729C234.194 123.023 234.074 123.451 234.074 124.012V126.677H233.324V119.463ZM239.412 125.144C239.452 125.344 239.525 125.511 239.632 125.645C239.739 125.772 239.876 125.869 240.042 125.936C240.216 126.002 240.416 126.036 240.643 126.036C240.996 126.036 241.263 125.969 241.443 125.835C241.631 125.695 241.723 125.521 241.723 125.314C241.723 125.14 241.667 125 241.553 124.894C241.447 124.787 241.303 124.7 241.123 124.633C240.943 124.559 240.743 124.496 240.523 124.443C240.35 124.403 240.162 124.356 239.962 124.302C239.762 124.242 239.572 124.162 239.392 124.062C239.212 123.962 239.065 123.831 238.951 123.671C238.838 123.511 238.781 123.3 238.781 123.04C238.781 122.753 238.858 122.502 239.011 122.288C239.172 122.068 239.389 121.898 239.662 121.777C239.942 121.657 240.262 121.597 240.623 121.597C241.036 121.597 241.403 121.687 241.723 121.868C242.051 122.048 242.277 122.328 242.404 122.709L241.703 122.95C241.657 122.776 241.57 122.643 241.443 122.549C241.323 122.455 241.187 122.392 241.033 122.359C240.886 122.325 240.74 122.308 240.593 122.308C240.292 122.308 240.049 122.369 239.862 122.489C239.682 122.603 239.592 122.776 239.592 123.01C239.592 123.137 239.622 123.244 239.682 123.33C239.742 123.411 239.826 123.477 239.932 123.531C240.039 123.585 240.166 123.631 240.312 123.671C240.46 123.705 240.62 123.745 240.793 123.791C240.986 123.838 241.183 123.898 241.383 123.972C241.583 124.038 241.771 124.128 241.944 124.242C242.117 124.349 242.257 124.489 242.364 124.663C242.478 124.83 242.534 125.04 242.534 125.294C242.534 125.588 242.454 125.845 242.294 126.066C242.134 126.28 241.911 126.447 241.623 126.567C241.343 126.687 241.016 126.747 240.643 126.747C240.129 126.747 239.702 126.633 239.362 126.406C239.029 126.172 238.805 125.832 238.691 125.384L239.412 125.144ZM244.162 126.727C244.008 126.727 243.878 126.673 243.771 126.567C243.671 126.46 243.621 126.33 243.621 126.176C243.621 126.022 243.671 125.892 243.771 125.785C243.878 125.679 244.008 125.625 244.162 125.625C244.308 125.625 244.435 125.679 244.542 125.785C244.648 125.892 244.702 126.022 244.702 126.176C244.702 126.33 244.648 126.46 244.542 126.567C244.435 126.673 244.308 126.727 244.162 126.727Z" fill="#4B5563"/>
</g>
<g filter="url(#filter8_dd_5522_72307)">
<path d="M276.737 97.9853C276.715 97.6783 276.778 97.372 276.92 97.0993C277.063 96.8274 277.278 96.5998 277.542 96.443C277.806 96.2863 278.108 96.2061 278.415 96.2112C278.722 96.2169 279.021 96.3078 279.28 96.4738L293.18 105.43C294.515 106.289 293.987 108.359 292.405 108.472L285.897 108.943C285.645 108.96 285.4 109.036 285.181 109.164C284.962 109.292 284.776 109.469 284.636 109.68L280.953 115.281C280.085 116.602 278.038 116.067 277.924 114.489L276.737 97.9853Z" fill="#27272A"/>
<path d="M276.737 97.9853C276.715 97.6783 276.778 97.372 276.92 97.0993C277.063 96.8274 277.278 96.5998 277.542 96.443C277.806 96.2863 278.108 96.2061 278.415 96.2112C278.722 96.2169 279.021 96.3078 279.28 96.4738L293.18 105.43C294.515 106.289 293.987 108.359 292.405 108.472L285.897 108.943C285.645 108.96 285.4 109.036 285.181 109.164C284.962 109.292 284.776 109.469 284.636 109.68L280.953 115.281C280.085 116.602 278.038 116.067 277.924 114.489L276.737 97.9853Z" stroke="#FAFAFA"/>
</g>
<rect width="358" height="230" fill="url(#paint6_linear_5522_72307)"/>
</g>
<defs>
<filter id="filter0_dd_5522_72307" x="42.3418" y="150.877" width="274.029" height="74.6367" filterUnits="userSpaceOnUse" color-interpolation-filters="sRGB">
<feFlood flood-opacity="0" result="BackgroundImageFix"/>
<feColorMatrix in="SourceAlpha" type="matrix" values="0 0 0 0 0 0 0 0 0 0 0 0 0 0 0 0 0 0 127 0" result="hardAlpha"/>
<feOffset dy="18"/>
<feGaussianBlur stdDeviation="8"/>
<feComposite in2="hardAlpha" operator="out"/>
<feColorMatrix type="matrix" values="0 0 0 0 0.0588235 0 0 0 0 0.141176 0 0 0 0 0.0666667 0 0 0 0.01 0"/>
<feBlend mode="normal" in2="BackgroundImageFix" result="effect1_dropShadow_5522_72307"/>
<feColorMatrix in="SourceAlpha" type="matrix" values="0 0 0 0 0 0 0 0 0 0 0 0 0 0 0 0 0 0 127 0" result="hardAlpha"/>
<feOffset dy="15"/>
<feGaussianBlur stdDeviation="10"/>
<feComposite in2="hardAlpha" operator="out"/>
<feColorMatrix type="matrix" values="0 0 0 0 0.0627451 0 0 0 0 0.0588235 0 0 0 0 0.141176 0 0 0 0.02 0"/>
<feBlend mode="normal" in2="effect1_dropShadow_5522_72307" result="effect2_dropShadow_5522_72307"/>
<feBlend mode="normal" in="SourceGraphic" in2="effect2_dropShadow_5522_72307" result="shape"/>
</filter>
<filter id="filter1_dd_5522_72307" x="53.0645" y="14.8965" width="253.301" height="74.6367" filterUnits="userSpaceOnUse" color-interpolation-filters="sRGB">
<feFlood flood-opacity="0" result="BackgroundImageFix"/>
<feColorMatrix in="SourceAlpha" type="matrix" values="0 0 0 0 0 0 0 0 0 0 0 0 0 0 0 0 0 0 127 0" result="hardAlpha"/>
<feOffset dy="18"/>
<feGaussianBlur stdDeviation="8"/>
<feComposite in2="hardAlpha" operator="out"/>
<feColorMatrix type="matrix" values="0 0 0 0 0.0588235 0 0 0 0 0.141176 0 0 0 0 0.0666667 0 0 0 0.01 0"/>
<feBlend mode="normal" in2="BackgroundImageFix" result="effect1_dropShadow_5522_72307"/>
<feColorMatrix in="SourceAlpha" type="matrix" values="0 0 0 0 0 0 0 0 0 0 0 0 0 0 0 0 0 0 127 0" result="hardAlpha"/>
<feOffset dy="15"/>
<feGaussianBlur stdDeviation="10"/>
<feComposite in2="hardAlpha" operator="out"/>
<feColorMatrix type="matrix" values="0 0 0 0 0.0627451 0 0 0 0 0.0588235 0 0 0 0 0.141176 0 0 0 0.02 0"/>
<feBlend mode="normal" in2="effect1_dropShadow_5522_72307" result="effect2_dropShadow_5522_72307"/>
<feBlend mode="normal" in="SourceGraphic" in2="effect2_dropShadow_5522_72307" result="shape"/>
</filter>
<filter id="filter2_dd_5522_72307" x="258.104" y="-0.388672" width="65.5234" height="65.5645" filterUnits="userSpaceOnUse" color-interpolation-filters="sRGB">
<feFlood flood-opacity="0" result="BackgroundImageFix"/>
<feColorMatrix in="SourceAlpha" type="matrix" values="0 0 0 0 0 0 0 0 0 0 0 0 0 0 0 0 0 0 127 0" result="hardAlpha"/>
<feOffset dy="4"/>
<feGaussianBlur stdDeviation="3"/>
<feComposite in2="hardAlpha" operator="out"/>
<feColorMatrix type="matrix" values="0 0 0 0 0.0627451 0 0 0 0 0.0588235 0 0 0 0 0.141176 0 0 0 0.03 0"/>
<feBlend mode="normal" in2="BackgroundImageFix" result="effect1_dropShadow_5522_72307"/>
<feColorMatrix in="SourceAlpha" type="matrix" values="0 0 0 0 0 0 0 0 0 0 0 0 0 0 0 0 0 0 127 0" result="hardAlpha"/>
<feOffset dy="12"/>
<feGaussianBlur stdDeviation="8"/>
<feComposite in2="hardAlpha" operator="out"/>
<feColorMatrix type="matrix" values="0 0 0 0 0.0627451 0 0 0 0 0.0588235 0 0 0 0 0.141176 0 0 0 0.08 0"/>
<feBlend mode="normal" in2="effect1_dropShadow_5522_72307" result="effect2_dropShadow_5522_72307"/>
<feBlend mode="normal" in="SourceGraphic" in2="effect2_dropShadow_5522_72307" result="shape"/>
</filter>
<filter id="filter3_dd_5522_72307" x="31.9004" y="169.621" width="59.1641" height="59.1953" filterUnits="userSpaceOnUse" color-interpolation-filters="sRGB">
<feFlood flood-opacity="0" result="BackgroundImageFix"/>
<feColorMatrix in="SourceAlpha" type="matrix" values="0 0 0 0 0 0 0 0 0 0 0 0 0 0 0 0 0 0 127 0" result="hardAlpha"/>
<feOffset dy="4"/>
<feGaussianBlur stdDeviation="3"/>
<feComposite in2="hardAlpha" operator="out"/>
<feColorMatrix type="matrix" values="0 0 0 0 0.0627451 0 0 0 0 0.0588235 0 0 0 0 0.141176 0 0 0 0.03 0"/>
<feBlend mode="normal" in2="BackgroundImageFix" result="effect1_dropShadow_5522_72307"/>
<feColorMatrix in="SourceAlpha" type="matrix" values="0 0 0 0 0 0 0 0 0 0 0 0 0 0 0 0 0 0 127 0" result="hardAlpha"/>
<feOffset dy="12"/>
<feGaussianBlur stdDeviation="8"/>
<feComposite in2="hardAlpha" operator="out"/>
<feColorMatrix type="matrix" values="0 0 0 0 0.0627451 0 0 0 0 0.0588235 0 0 0 0 0.141176 0 0 0 0.08 0"/>
<feBlend mode="normal" in2="effect1_dropShadow_5522_72307" result="effect2_dropShadow_5522_72307"/>
<feBlend mode="normal" in="SourceGraphic" in2="effect2_dropShadow_5522_72307" result="shape"/>
</filter>
<filter id="filter4_f_5522_72307" x="213.838" y="67.9297" width="377.035" height="358.451" filterUnits="userSpaceOnUse" color-interpolation-filters="sRGB">
<feFlood flood-opacity="0" result="BackgroundImageFix"/>
<feBlend mode="normal" in="SourceGraphic" in2="BackgroundImageFix" result="shape"/>
<feGaussianBlur stdDeviation="50" result="effect1_foregroundBlur_5522_72307"/>
</filter>
<filter id="filter5_f_5522_72307" x="-195.047" y="-16.3926" width="314.965" height="314.688" filterUnits="userSpaceOnUse" color-interpolation-filters="sRGB">
<feFlood flood-opacity="0" result="BackgroundImageFix"/>
<feBlend mode="normal" in="SourceGraphic" in2="BackgroundImageFix" result="shape"/>
<feGaussianBlur stdDeviation="42.5" result="effect1_foregroundBlur_5522_72307"/>
</filter>
<filter id="filter6_dd_5522_72307" x="3.89453" y="43.7012" width="350.211" height="143.01" filterUnits="userSpaceOnUse" color-interpolation-filters="sRGB">
<feFlood flood-opacity="0" result="BackgroundImageFix"/>
<feColorMatrix in="SourceAlpha" type="matrix" values="0 0 0 0 0 0 0 0 0 0 0 0 0 0 0 0 0 0 127 0" result="hardAlpha"/>
<feOffset dy="4"/>
<feGaussianBlur stdDeviation="8"/>
<feComposite in2="hardAlpha" operator="out"/>
<feColorMatrix type="matrix" values="0 0 0 0 0.0588235 0 0 0 0 0.141176 0 0 0 0 0.0666667 0 0 0 0.02 0"/>
<feBlend mode="normal" in2="BackgroundImageFix" result="effect1_dropShadow_5522_72307"/>
<feColorMatrix in="SourceAlpha" type="matrix" values="0 0 0 0 0 0 0 0 0 0 0 0 0 0 0 0 0 0 127 0" result="hardAlpha"/>
<feOffset dy="10"/>
<feGaussianBlur stdDeviation="16"/>
<feComposite in2="hardAlpha" operator="out"/>
<feColorMatrix type="matrix" values="0 0 0 0 0.0627451 0 0 0 0 0.0588235 0 0 0 0 0.141176 0 0 0 0.05 0"/>
<feBlend mode="normal" in2="effect1_dropShadow_5522_72307" result="effect2_dropShadow_5522_72307"/>
<feBlend mode="normal" in="SourceGraphic" in2="effect2_dropShadow_5522_72307" result="shape"/>
</filter>
<filter id="filter7_i_5522_72307" x="53.1934" y="80.1582" width="251.615" height="32.627" filterUnits="userSpaceOnUse" color-interpolation-filters="sRGB">
<feFlood flood-opacity="0" result="BackgroundImageFix"/>
<feBlend mode="normal" in="SourceGraphic" in2="BackgroundImageFix" result="shape"/>
<feColorMatrix in="SourceAlpha" type="matrix" values="0 0 0 0 0 0 0 0 0 0 0 0 0 0 0 0 0 0 127 0" result="hardAlpha"/>
<feOffset dy="4"/>
<feGaussianBlur stdDeviation="6"/>
<feComposite in2="hardAlpha" operator="arithmetic" k2="-1" k3="1"/>
<feColorMatrix type="matrix" values="0 0 0 0 0.626803 0 0 0 0 0.756315 0 0 0 0 0.998197 0 0 0 0.5 0"/>
<feBlend mode="normal" in2="shape" result="effect1_innerShadow_5522_72307"/>
</filter>
<filter id="filter8_dd_5522_72307" x="268.232" y="91.7109" width="34.207" height="36.8184" filterUnits="userSpaceOnUse" color-interpolation-filters="sRGB">
<feFlood flood-opacity="0" result="BackgroundImageFix"/>
<feColorMatrix in="SourceAlpha" type="matrix" values="0 0 0 0 0 0 0 0 0 0 0 0 0 0 0 0 0 0 127 0" result="hardAlpha"/>
<feOffset dy="2"/>
<feGaussianBlur stdDeviation="2"/>
<feComposite in2="hardAlpha" operator="out"/>
<feColorMatrix type="matrix" values="0 0 0 0 0.0627451 0 0 0 0 0.0588235 0 0 0 0 0.141176 0 0 0 0.06 0"/>
<feBlend mode="normal" in2="BackgroundImageFix" result="effect1_dropShadow_5522_72307"/>
<feColorMatrix in="SourceAlpha" type="matrix" values="0 0 0 0 0 0 0 0 0 0 0 0 0 0 0 0 0 0 127 0" result="hardAlpha"/>
<feOffset dy="4"/>
<feGaussianBlur stdDeviation="4"/>
<feComposite in2="hardAlpha" operator="out"/>
<feColorMatrix type="matrix" values="0 0 0 0 0.0627451 0 0 0 0 0.0588235 0 0 0 0 0.141176 0 0 0 0.1 0"/>
<feBlend mode="normal" in2="effect1_dropShadow_5522_72307" result="effect2_dropShadow_5522_72307"/>
<feBlend mode="normal" in="SourceGraphic" in2="effect2_dropShadow_5522_72307" result="shape"/>
</filter>
<linearGradient id="paint0_linear_5522_72307" x1="-nan" y1="-nan" x2="-nan" y2="-nan" gradientUnits="userSpaceOnUse">
<stop stop-color="#FAFAFA"/>
<stop offset="0.534678" stop-color="#266AE9"/>
<stop offset="1" stop-color="#FAFAFA"/>
</linearGradient>
<linearGradient id="paint1_linear_5522_72307" x1="-nan" y1="-nan" x2="-nan" y2="-nan" gradientUnits="userSpaceOnUse">
<stop stop-color="#FAFAFA"/>
<stop offset="0.534678" stop-color="#266AE9"/>
<stop offset="1" stop-color="#FAFAFA"/>
</linearGradient>
<linearGradient id="paint2_linear_5522_72307" x1="-nan" y1="-nan" x2="-nan" y2="-nan" gradientUnits="userSpaceOnUse">
<stop stop-color="#FAFAFA"/>
<stop offset="0.534678" stop-color="#266AE9"/>
<stop offset="1" stop-color="#FAFAFA"/>
</linearGradient>
<linearGradient id="paint3_linear_5522_72307" x1="-nan" y1="-nan" x2="-nan" y2="-nan" gradientUnits="userSpaceOnUse">
<stop stop-color="#FAFAFA"/>
<stop offset="0.534678" stop-color="#266AE9"/>
<stop offset="1" stop-color="#FAFAFA"/>
</linearGradient>
<linearGradient id="paint4_linear_5522_72307" x1="236.53" y1="342.936" x2="193.976" y2="253.645" gradientUnits="userSpaceOnUse">
<stop stop-color="#5C85D5"/>
<stop offset="1" stop-color="#C3A7F3"/>
</linearGradient>
<linearGradient id="paint5_linear_5522_72307" x1="100.333" y1="37.9443" x2="142.727" y2="107.312" gradientUnits="userSpaceOnUse">
<stop stop-color="#5C85D5"/>
<stop offset="1" stop-color="#C3A7F3"/>
</linearGradient>
<linearGradient id="paint6_linear_5522_72307" x1="179" y1="4.90854" x2="179" y2="238.385" gradientUnits="userSpaceOnUse">
<stop stop-color="#FAFAFA"/>
<stop offset="0.197621" stop-color="#FAFAFA" stop-opacity="0"/>
<stop offset="0.644231" stop-color="#FAFAFA" stop-opacity="0"/>
<stop offset="0.867519" stop-color="#FAFAFA"/>
</linearGradient>
<clipPath id="clip0_5522_72307">
<rect width="358" height="230" fill="white"/>
</clipPath>
</defs>
</svg>
