<svg width="540" height="306" viewBox="0 0 540 306" fill="none" xmlns="http://www.w3.org/2000/svg">
<g clip-path="url(#clip0_5453_69092)">
<path d="M273 83L664 83" stroke="url(#paint0_linear_5453_69092)" stroke-opacity="0.4" stroke-linecap="round"/>
<path d="M450 159L450 550" stroke="url(#paint1_linear_5453_69092)" stroke-opacity="0.4" stroke-linecap="round"/>
<path d="M250 198L250 589" stroke="url(#paint2_linear_5453_69092)" stroke-opacity="0.4" stroke-linecap="round"/>
<path d="M16 158L368 158" stroke="url(#paint3_linear_5453_69092)" stroke-opacity="0.4" stroke-linecap="round"/>
<g filter="url(#filter0_dd_5453_69092)">
<rect x="107" y="218" width="327" height="48" rx="16" fill="white"/>
<rect x="107.5" y="218.5" width="326" height="47" rx="15.5" stroke="#F3F4F7"/>
<path d="M141.64 248H140.36V236.8H141.768L145.928 246.24L150.072 236.8H151.464V248H150.184V239.328L146.376 248H145.464L141.64 239.328V248ZM159.068 248L158.972 246.56C158.748 247.051 158.417 247.435 157.98 247.712C157.543 247.979 156.988 248.112 156.316 248.112C155.74 248.112 155.249 248.021 154.844 247.84C154.439 247.659 154.124 247.403 153.9 247.072C153.687 246.731 153.58 246.331 153.58 245.872C153.58 245.2 153.831 244.651 154.332 244.224C154.833 243.787 155.559 243.52 156.508 243.424L158.972 243.152V242.512C158.972 242.064 158.807 241.707 158.476 241.44C158.145 241.163 157.697 241.024 157.132 241.024C156.577 241.024 156.113 241.152 155.74 241.408C155.377 241.664 155.127 242.032 154.988 242.512L153.9 242.128C154.113 241.424 154.503 240.875 155.068 240.48C155.644 240.085 156.343 239.888 157.164 239.888C158.113 239.888 158.849 240.133 159.372 240.624C159.905 241.104 160.172 241.76 160.172 242.592V248H159.068ZM158.972 244.176L156.492 244.464C155.959 244.528 155.553 244.677 155.276 244.912C154.999 245.136 154.86 245.435 154.86 245.808C154.86 246.181 154.993 246.48 155.26 246.704C155.537 246.928 155.932 247.04 156.444 247.04C157.031 247.04 157.511 246.923 157.884 246.688C158.257 246.453 158.529 246.139 158.7 245.744C158.881 245.339 158.972 244.901 158.972 244.432V244.176ZM162.513 240H163.617L163.681 241.136C163.937 240.741 164.273 240.437 164.689 240.224C165.105 240 165.591 239.888 166.145 239.888C166.753 239.888 167.287 240.021 167.745 240.288C168.204 240.544 168.561 240.933 168.817 241.456C169.073 241.968 169.201 242.613 169.201 243.392V248H168.001V243.536C168.001 242.704 167.82 242.075 167.457 241.648C167.105 241.211 166.593 240.992 165.921 240.992C165.228 240.992 164.684 241.221 164.289 241.68C163.905 242.139 163.713 242.816 163.713 243.712V248H162.513V240ZM178.073 248H176.985L176.905 246.848C176.66 247.253 176.329 247.568 175.913 247.792C175.497 248.005 175.012 248.112 174.457 248.112C173.838 248.112 173.3 247.984 172.841 247.728C172.382 247.472 172.025 247.088 171.769 246.576C171.524 246.064 171.401 245.419 171.401 244.64V240H172.585V244.512C172.585 245.333 172.761 245.957 173.113 246.384C173.476 246.8 173.993 247.008 174.665 247.008C175.348 247.008 175.886 246.789 176.281 246.352C176.686 245.904 176.889 245.232 176.889 244.336V240H178.073V248ZM185.521 248L185.425 246.56C185.201 247.051 184.871 247.435 184.433 247.712C183.996 247.979 183.441 248.112 182.769 248.112C182.193 248.112 181.703 248.021 181.297 247.84C180.892 247.659 180.577 247.403 180.353 247.072C180.14 246.731 180.033 246.331 180.033 245.872C180.033 245.2 180.284 244.651 180.785 244.224C181.287 243.787 182.012 243.52 182.961 243.424L185.425 243.152V242.512C185.425 242.064 185.26 241.707 184.929 241.44C184.599 241.163 184.151 241.024 183.585 241.024C183.031 241.024 182.567 241.152 182.193 241.408C181.831 241.664 181.58 242.032 181.441 242.512L180.353 242.128C180.567 241.424 180.956 240.875 181.521 240.48C182.097 240.085 182.796 239.888 183.617 239.888C184.567 239.888 185.303 240.133 185.825 240.624C186.359 241.104 186.625 241.76 186.625 242.592V248H185.521ZM185.425 244.176L182.945 244.464C182.412 244.528 182.007 244.677 181.729 244.912C181.452 245.136 181.313 245.435 181.313 245.808C181.313 246.181 181.447 246.48 181.713 246.704C181.991 246.928 182.385 247.04 182.897 247.04C183.484 247.04 183.964 246.923 184.337 246.688C184.711 246.453 184.983 246.139 185.153 245.744C185.335 245.339 185.425 244.901 185.425 244.432V244.176ZM188.966 236.48H190.166V248H188.966V236.48ZM197.091 240H198.195L198.275 241.152C198.51 240.768 198.825 240.464 199.219 240.24C199.625 240.005 200.105 239.888 200.659 239.888C201.225 239.888 201.737 240.027 202.195 240.304C202.665 240.571 203.027 240.971 203.283 241.504C203.529 240.96 203.902 240.555 204.403 240.288C204.905 240.021 205.459 239.888 206.067 239.888C206.665 239.888 207.193 240.021 207.651 240.288C208.11 240.544 208.467 240.933 208.723 241.456C208.979 241.968 209.107 242.613 209.107 243.392V248H207.907V243.536C207.907 242.704 207.726 242.075 207.363 241.648C207.011 241.211 206.505 240.992 205.843 240.992C205.171 240.992 204.638 241.227 204.243 241.696C203.849 242.155 203.651 242.837 203.651 243.744V248H202.451V243.536C202.451 242.704 202.281 242.075 201.939 241.648C201.598 241.211 201.097 240.992 200.435 240.992C199.763 240.992 199.235 241.227 198.851 241.696C198.478 242.155 198.291 242.837 198.291 243.744V248H197.091V240ZM214.891 248.112C214.134 248.112 213.456 247.947 212.859 247.616C212.262 247.285 211.792 246.816 211.451 246.208C211.11 245.589 210.939 244.859 210.939 244.016C210.939 243.163 211.11 242.427 211.451 241.808C211.803 241.189 212.278 240.715 212.875 240.384C213.483 240.053 214.166 239.888 214.923 239.888C215.68 239.888 216.358 240.053 216.955 240.384C217.563 240.715 218.038 241.189 218.379 241.808C218.731 242.416 218.907 243.141 218.907 243.984C218.907 244.837 218.731 245.573 218.379 246.192C218.027 246.811 217.547 247.285 216.939 247.616C216.331 247.947 215.648 248.112 214.891 248.112ZM214.875 246.976C215.344 246.976 215.787 246.875 216.203 246.672C216.619 246.459 216.955 246.133 217.211 245.696C217.478 245.248 217.611 244.683 217.611 244C217.611 243.307 217.483 242.741 217.227 242.304C216.971 241.867 216.635 241.547 216.219 241.344C215.814 241.131 215.376 241.024 214.907 241.024C214.438 241.024 214 241.131 213.595 241.344C213.19 241.547 212.859 241.872 212.603 242.32C212.358 242.757 212.235 243.317 212.235 244C212.235 244.693 212.358 245.259 212.603 245.696C212.848 246.133 213.168 246.459 213.563 246.672C213.968 246.875 214.406 246.976 214.875 246.976ZM227.049 241.616L226.921 241.632V236.48H228.121V248H227.017L226.937 246.512C226.691 246.96 226.323 247.339 225.833 247.648C225.353 247.957 224.755 248.112 224.041 248.112C223.305 248.112 222.659 247.947 222.105 247.616C221.561 247.275 221.134 246.795 220.825 246.176C220.526 245.557 220.377 244.832 220.377 244C220.377 243.168 220.526 242.448 220.825 241.84C221.134 241.221 221.561 240.741 222.105 240.4C222.659 240.059 223.305 239.888 224.041 239.888C224.798 239.888 225.427 240.053 225.929 240.384C226.43 240.715 226.803 241.125 227.049 241.616ZM221.673 244C221.673 244.917 221.907 245.648 222.377 246.192C222.846 246.725 223.486 246.992 224.297 246.992C224.798 246.992 225.246 246.875 225.641 246.64C226.035 246.405 226.345 246.064 226.569 245.616C226.803 245.168 226.921 244.629 226.921 244C226.921 243.371 226.803 242.837 226.569 242.4C226.345 241.952 226.035 241.611 225.641 241.376C225.246 241.131 224.798 241.008 224.297 241.008C223.497 241.008 222.857 241.28 222.377 241.824C221.907 242.357 221.673 243.083 221.673 244ZM233.936 248.112C233.189 248.112 232.522 247.931 231.936 247.568C231.36 247.205 230.906 246.709 230.576 246.08C230.245 245.451 230.08 244.731 230.08 243.92C230.08 243.141 230.245 242.448 230.576 241.84C230.906 241.232 231.36 240.757 231.936 240.416C232.512 240.064 233.168 239.888 233.904 239.888C234.629 239.888 235.274 240.048 235.84 240.368C236.416 240.688 236.864 241.131 237.184 241.696C237.504 242.261 237.653 242.907 237.632 243.632C237.632 243.749 237.626 243.872 237.616 244C237.605 244.128 237.594 244.267 237.584 244.416H231.392C231.413 244.917 231.536 245.36 231.76 245.744C231.984 246.128 232.277 246.432 232.64 246.656C233.013 246.869 233.434 246.976 233.904 246.976C234.522 246.976 235.045 246.859 235.472 246.624C235.909 246.389 236.224 246.053 236.416 245.616L237.456 246.032C237.136 246.704 236.672 247.221 236.064 247.584C235.456 247.936 234.746 248.112 233.936 248.112ZM236.32 243.376C236.33 242.917 236.229 242.512 236.016 242.16C235.813 241.808 235.525 241.531 235.152 241.328C234.778 241.125 234.346 241.024 233.856 241.024C233.429 241.024 233.04 241.125 232.688 241.328C232.336 241.531 232.042 241.813 231.808 242.176C231.584 242.528 231.45 242.928 231.408 243.376H236.32ZM239.607 236.48H240.807V248H239.607V236.48ZM243.488 240H244.672V248H243.488V240ZM244.096 238.4C243.85 238.4 243.648 238.32 243.488 238.16C243.328 238 243.248 237.803 243.248 237.568C243.248 237.323 243.328 237.12 243.488 236.96C243.648 236.8 243.85 236.72 244.096 236.72C244.32 236.72 244.512 236.8 244.672 236.96C244.842 237.12 244.928 237.323 244.928 237.568C244.928 237.803 244.842 238 244.672 238.16C244.512 238.32 244.32 238.4 244.096 238.4ZM247.373 240H248.477L248.541 241.136C248.797 240.741 249.133 240.437 249.549 240.224C249.965 240 250.45 239.888 251.005 239.888C251.613 239.888 252.146 240.021 252.605 240.288C253.063 240.544 253.421 240.933 253.677 241.456C253.933 241.968 254.061 242.613 254.061 243.392V248H252.861V243.536C252.861 242.704 252.679 242.075 252.317 241.648C251.965 241.211 251.453 240.992 250.781 240.992C250.087 240.992 249.543 241.221 249.149 241.68C248.765 242.139 248.573 242.816 248.573 243.712V248H247.373V240ZM262.532 240H263.636V246.528C263.636 247.509 263.418 248.347 262.98 249.04C262.543 249.744 261.908 250.277 261.076 250.64C260.244 251.013 259.231 251.2 258.036 251.2L257.844 250.096C259.348 250.075 260.49 249.76 261.268 249.152C262.047 248.555 262.436 247.68 262.436 246.528V246.352L262.564 246.384C262.319 246.853 261.951 247.259 261.46 247.6C260.97 247.931 260.335 248.101 259.556 248.112C258.82 248.112 258.175 247.947 257.62 247.616C257.076 247.275 256.65 246.795 256.34 246.176C256.042 245.557 255.892 244.832 255.892 244C255.892 243.168 256.042 242.448 256.34 241.84C256.65 241.221 257.076 240.741 257.62 240.4C258.175 240.059 258.82 239.888 259.556 239.888C260.036 239.888 260.463 239.963 260.836 240.112C261.21 240.251 261.53 240.443 261.796 240.688C262.063 240.923 262.282 241.189 262.452 241.488L262.532 240ZM257.188 244C257.188 244.917 257.423 245.648 257.892 246.192C258.372 246.725 259.018 246.992 259.828 246.992C260.319 246.992 260.762 246.875 261.156 246.64C261.551 246.405 261.86 246.064 262.084 245.616C262.319 245.168 262.436 244.629 262.436 244C262.436 243.371 262.319 242.837 262.084 242.4C261.86 241.952 261.551 241.611 261.156 241.376C260.762 241.131 260.319 241.008 259.828 241.008C259.028 241.008 258.388 241.28 257.908 241.824C257.428 242.368 257.188 243.093 257.188 244ZM270.816 240H272V248H270.816V240ZM271.424 238.4C271.178 238.4 270.976 238.32 270.816 238.16C270.656 238 270.576 237.803 270.576 237.568C270.576 237.323 270.656 237.12 270.816 236.96C270.976 236.8 271.178 236.72 271.424 236.72C271.648 236.72 271.84 236.8 272 236.96C272.17 237.12 272.256 237.323 272.256 237.568C272.256 237.803 272.17 238 272 238.16C271.84 238.32 271.648 238.4 271.424 238.4ZM274.701 240H275.805L275.869 241.136C276.125 240.741 276.461 240.437 276.877 240.224C277.293 240 277.778 239.888 278.333 239.888C278.941 239.888 279.474 240.021 279.933 240.288C280.391 240.544 280.749 240.933 281.005 241.456C281.261 241.968 281.389 242.613 281.389 243.392V248H280.189V243.536C280.189 242.704 280.007 242.075 279.645 241.648C279.293 241.211 278.781 240.992 278.109 240.992C277.415 240.992 276.871 241.221 276.477 241.68C276.093 242.139 275.901 242.816 275.901 243.712V248H274.701V240ZM295.673 237.92H289.609V241.744H294.169V242.864H289.609V246.88H295.673V248H288.329V236.8H295.673V237.92ZM297.215 240H298.591L300.639 243.056L302.687 240H304.079L301.311 243.984L304.079 248H302.687L300.639 244.912L298.591 248H297.215L299.983 243.984L297.215 240ZM309.218 248.112C308.439 248.112 307.757 247.941 307.17 247.6C306.583 247.259 306.125 246.784 305.794 246.176C305.474 245.557 305.314 244.843 305.314 244.032C305.314 243.211 305.474 242.491 305.794 241.872C306.125 241.243 306.583 240.757 307.17 240.416C307.757 240.064 308.439 239.888 309.218 239.888C310.039 239.888 310.759 240.08 311.378 240.464C311.997 240.837 312.445 241.36 312.722 242.032L311.618 242.416C311.458 241.989 311.165 241.653 310.738 241.408C310.322 241.152 309.837 241.024 309.282 241.024C308.738 241.024 308.263 241.147 307.858 241.392C307.463 241.637 307.154 241.984 306.93 242.432C306.717 242.88 306.61 243.408 306.61 244.016C306.61 244.912 306.85 245.632 307.33 246.176C307.81 246.709 308.45 246.976 309.25 246.976C309.794 246.976 310.279 246.853 310.706 246.608C311.133 246.363 311.447 246.032 311.65 245.616L312.738 246C312.45 246.661 311.997 247.179 311.378 247.552C310.759 247.925 310.039 248.112 309.218 248.112ZM318.061 248.112C317.314 248.112 316.647 247.931 316.061 247.568C315.485 247.205 315.031 246.709 314.701 246.08C314.37 245.451 314.205 244.731 314.205 243.92C314.205 243.141 314.37 242.448 314.701 241.84C315.031 241.232 315.485 240.757 316.061 240.416C316.637 240.064 317.293 239.888 318.029 239.888C318.754 239.888 319.399 240.048 319.965 240.368C320.541 240.688 320.989 241.131 321.309 241.696C321.629 242.261 321.778 242.907 321.757 243.632C321.757 243.749 321.751 243.872 321.741 244C321.73 244.128 321.719 244.267 321.709 244.416H315.517C315.538 244.917 315.661 245.36 315.885 245.744C316.109 246.128 316.402 246.432 316.765 246.656C317.138 246.869 317.559 246.976 318.029 246.976C318.647 246.976 319.17 246.859 319.597 246.624C320.034 246.389 320.349 246.053 320.541 245.616L321.581 246.032C321.261 246.704 320.797 247.221 320.189 247.584C319.581 247.936 318.871 248.112 318.061 248.112ZM320.445 243.376C320.455 242.917 320.354 242.512 320.141 242.16C319.938 241.808 319.65 241.531 319.277 241.328C318.903 241.125 318.471 241.024 317.981 241.024C317.554 241.024 317.165 241.125 316.813 241.328C316.461 241.531 316.167 241.813 315.933 242.176C315.709 242.528 315.575 242.928 315.533 243.376H320.445ZM323.732 236.48H324.932V248H323.732V236.48ZM332.289 239.056C332.289 238.469 332.385 237.973 332.577 237.568C332.769 237.163 333.073 236.869 333.489 236.688C333.916 236.496 334.481 236.427 335.185 236.48V237.552C334.545 237.499 334.102 237.605 333.857 237.872C333.612 238.128 333.489 238.523 333.489 239.056V240H335.249V241.12H333.489V248H332.289V241.12H331.169V240H332.289V239.056ZM340.501 248.112C339.743 248.112 339.066 247.947 338.469 247.616C337.871 247.285 337.402 246.816 337.061 246.208C336.719 245.589 336.549 244.859 336.549 244.016C336.549 243.163 336.719 242.427 337.061 241.808C337.413 241.189 337.887 240.715 338.485 240.384C339.093 240.053 339.775 239.888 340.533 239.888C341.29 239.888 341.967 240.053 342.565 240.384C343.173 240.715 343.647 241.189 343.989 241.808C344.341 242.416 344.517 243.141 344.517 243.984C344.517 244.837 344.341 245.573 343.989 246.192C343.637 246.811 343.157 247.285 342.549 247.616C341.941 247.947 341.258 248.112 340.501 248.112ZM340.485 246.976C340.954 246.976 341.397 246.875 341.813 246.672C342.229 246.459 342.565 246.133 342.821 245.696C343.087 245.248 343.221 244.683 343.221 244C343.221 243.307 343.093 242.741 342.837 242.304C342.581 241.867 342.245 241.547 341.829 241.344C341.423 241.131 340.986 241.024 340.516 241.024C340.047 241.024 339.61 241.131 339.205 241.344C338.799 241.547 338.469 241.872 338.213 242.32C337.967 242.757 337.845 243.317 337.845 244C337.845 244.693 337.967 245.259 338.213 245.696C338.458 246.133 338.778 246.459 339.173 246.672C339.578 246.875 340.015 246.976 340.485 246.976ZM346.482 240H347.586L347.65 241.168C347.863 240.88 348.119 240.635 348.418 240.432C348.727 240.229 349.063 240.091 349.426 240.016C349.799 239.931 350.194 239.925 350.61 240V241.2C350.162 241.115 349.757 241.115 349.394 241.2C349.042 241.285 348.738 241.445 348.482 241.68C348.226 241.915 348.029 242.213 347.89 242.576C347.751 242.928 347.682 243.339 347.682 243.808V248H346.482V240ZM359.516 248H358.428L355.916 240H357.132L358.972 246.512L361.036 240H362.124L364.156 246.496L365.98 240H367.164L364.668 248H363.564L361.548 241.792L359.516 248ZM372.155 248.112C371.408 248.112 370.741 247.931 370.155 247.568C369.579 247.205 369.125 246.709 368.795 246.08C368.464 245.451 368.299 244.731 368.299 243.92C368.299 243.141 368.464 242.448 368.795 241.84C369.125 241.232 369.579 240.757 370.155 240.416C370.731 240.064 371.387 239.888 372.123 239.888C372.848 239.888 373.493 240.048 374.059 240.368C374.635 240.688 375.083 241.131 375.403 241.696C375.723 242.261 375.872 242.907 375.851 243.632C375.851 243.749 375.845 243.872 375.835 244C375.824 244.128 375.813 244.267 375.803 244.416H369.611C369.632 244.917 369.755 245.36 369.979 245.744C370.203 246.128 370.496 246.432 370.859 246.656C371.232 246.869 371.653 246.976 372.123 246.976C372.741 246.976 373.264 246.859 373.691 246.624C374.128 246.389 374.443 246.053 374.635 245.616L375.675 246.032C375.355 246.704 374.891 247.221 374.283 247.584C373.675 247.936 372.965 248.112 372.155 248.112ZM374.539 243.376C374.549 242.917 374.448 242.512 374.235 242.16C374.032 241.808 373.744 241.531 373.371 241.328C372.997 241.125 372.565 241.024 372.075 241.024C371.648 241.024 371.259 241.125 370.907 241.328C370.555 241.531 370.261 241.813 370.027 242.176C369.803 242.528 369.669 242.928 369.627 243.376H374.539ZM381.186 248.112C380.439 248.112 379.772 247.931 379.186 247.568C378.61 247.205 378.156 246.709 377.826 246.08C377.495 245.451 377.33 244.731 377.33 243.92C377.33 243.141 377.495 242.448 377.826 241.84C378.156 241.232 378.61 240.757 379.186 240.416C379.762 240.064 380.418 239.888 381.154 239.888C381.879 239.888 382.524 240.048 383.09 240.368C383.666 240.688 384.114 241.131 384.434 241.696C384.754 242.261 384.903 242.907 384.882 243.632C384.882 243.749 384.876 243.872 384.866 244C384.855 244.128 384.844 244.267 384.834 244.416H378.642C378.663 244.917 378.786 245.36 379.01 245.744C379.234 246.128 379.527 246.432 379.89 246.656C380.263 246.869 380.684 246.976 381.154 246.976C381.772 246.976 382.295 246.859 382.722 246.624C383.159 246.389 383.474 246.053 383.666 245.616L384.706 246.032C384.386 246.704 383.922 247.221 383.314 247.584C382.706 247.936 381.996 248.112 381.186 248.112ZM383.57 243.376C383.58 242.917 383.479 242.512 383.266 242.16C383.063 241.808 382.775 241.531 382.402 241.328C382.028 241.125 381.596 241.024 381.106 241.024C380.679 241.024 380.29 241.125 379.938 241.328C379.586 241.531 379.292 241.813 379.058 242.176C378.834 242.528 378.7 242.928 378.658 243.376H383.57ZM386.857 236.48H388.073V243.472H388.809L391.961 240H393.657L389.881 244L393.673 248H391.961L388.809 244.512H388.073V248H386.857V236.48ZM395.794 245.552C395.858 245.872 395.976 246.139 396.146 246.352C396.317 246.555 396.536 246.709 396.802 246.816C397.08 246.923 397.4 246.976 397.762 246.976C398.328 246.976 398.754 246.869 399.042 246.656C399.341 246.432 399.49 246.155 399.49 245.824C399.49 245.547 399.4 245.323 399.218 245.152C399.048 244.981 398.818 244.843 398.53 244.736C398.242 244.619 397.922 244.517 397.57 244.432C397.293 244.368 396.994 244.293 396.674 244.208C396.354 244.112 396.05 243.984 395.762 243.824C395.474 243.664 395.24 243.456 395.058 243.2C394.877 242.944 394.786 242.608 394.786 242.192C394.786 241.733 394.909 241.333 395.154 240.992C395.41 240.64 395.757 240.368 396.194 240.176C396.642 239.984 397.154 239.888 397.73 239.888C398.392 239.888 398.978 240.032 399.49 240.32C400.013 240.608 400.376 241.056 400.578 241.664L399.458 242.048C399.384 241.771 399.245 241.557 399.042 241.408C398.85 241.259 398.632 241.157 398.386 241.104C398.152 241.051 397.917 241.024 397.682 241.024C397.202 241.024 396.813 241.12 396.514 241.312C396.226 241.493 396.082 241.771 396.082 242.144C396.082 242.347 396.13 242.517 396.226 242.656C396.322 242.784 396.456 242.891 396.626 242.976C396.797 243.061 397 243.136 397.234 243.2C397.469 243.253 397.725 243.317 398.002 243.392C398.312 243.467 398.626 243.563 398.946 243.68C399.266 243.787 399.565 243.931 399.842 244.112C400.12 244.283 400.344 244.507 400.514 244.784C400.696 245.051 400.786 245.387 400.786 245.792C400.786 246.261 400.658 246.672 400.402 247.024C400.146 247.365 399.789 247.632 399.33 247.824C398.882 248.016 398.36 248.112 397.762 248.112C396.941 248.112 396.258 247.931 395.714 247.568C395.181 247.195 394.824 246.651 394.642 245.936L395.794 245.552Z" fill="#9CA3AF"/>
<path d="M139 243.2H401.506V244H139V243.2Z" fill="#9CA3AF"/>
</g>
<g filter="url(#filter1_dd_5453_69092)">
<rect x="122" y="28" width="298" height="48" rx="16" fill="white"/>
<rect x="122.5" y="28.5" width="297" height="47" rx="15.5" stroke="#F3F4F7"/>
<path d="M162.128 49.84C162.128 49.2533 161.931 48.7893 161.536 48.448C161.152 48.096 160.576 47.92 159.808 47.92H156.64V51.744H159.856C160.581 51.744 161.141 51.5733 161.536 51.232C161.931 50.8907 162.128 50.4267 162.128 49.84ZM155.36 58V46.8H159.92C160.709 46.8 161.36 46.9333 161.872 47.2C162.384 47.4667 162.763 47.8187 163.008 48.256C163.264 48.6827 163.392 49.1573 163.392 49.68C163.392 50.192 163.296 50.624 163.104 50.976C162.923 51.3173 162.672 51.5893 162.352 51.792C162.043 51.9947 161.701 52.1333 161.328 52.208V52.32C161.776 52.384 162.176 52.528 162.528 52.752C162.88 52.9653 163.157 53.2587 163.36 53.632C163.563 54.0053 163.664 54.4587 163.664 54.992C163.664 55.5467 163.525 56.0533 163.248 56.512C162.971 56.9707 162.56 57.3333 162.016 57.6C161.483 57.8667 160.827 58 160.048 58H155.36ZM156.64 56.88H159.952C160.72 56.88 161.317 56.7093 161.744 56.368C162.181 56.016 162.4 55.5147 162.4 54.864C162.4 54.2133 162.171 53.7173 161.712 53.376C161.264 53.0347 160.661 52.864 159.904 52.864H156.64V56.88ZM172.339 58H171.251L171.171 56.848C170.925 57.2533 170.595 57.568 170.179 57.792C169.763 58.0053 169.277 58.112 168.723 58.112C168.104 58.112 167.565 57.984 167.107 57.728C166.648 57.472 166.291 57.088 166.035 56.576C165.789 56.064 165.667 55.4187 165.667 54.64V50H166.851V54.512C166.851 55.3333 167.027 55.9573 167.379 56.384C167.741 56.8 168.259 57.008 168.931 57.008C169.613 57.008 170.152 56.7893 170.547 56.352C170.952 55.904 171.155 55.232 171.155 54.336V50H172.339V58ZM174.779 50H175.883L175.947 51.168C176.16 50.88 176.416 50.6347 176.715 50.432C177.024 50.2293 177.36 50.0907 177.723 50.016C178.096 49.9307 178.491 49.9253 178.907 50V51.2C178.459 51.1147 178.054 51.1147 177.691 51.2C177.339 51.2853 177.035 51.4453 176.779 51.68C176.523 51.9147 176.326 52.2133 176.187 52.576C176.048 52.928 175.979 53.3387 175.979 53.808V58H174.779V50ZM180.545 50H181.649L181.713 51.136C181.969 50.7413 182.305 50.4373 182.721 50.224C183.137 50 183.622 49.888 184.177 49.888C184.785 49.888 185.318 50.0213 185.777 50.288C186.235 50.544 186.593 50.9333 186.849 51.456C187.105 51.968 187.233 52.6133 187.233 53.392V58H186.033V53.536C186.033 52.704 185.851 52.0747 185.489 51.648C185.137 51.2107 184.625 50.992 183.953 50.992C183.259 50.992 182.715 51.2213 182.321 51.68C181.937 52.1387 181.745 52.816 181.745 53.712V58H180.545V50ZM189.8 50H190.984V58H189.8V50ZM190.408 48.4C190.163 48.4 189.96 48.32 189.8 48.16C189.64 48 189.56 47.8027 189.56 47.568C189.56 47.3227 189.64 47.12 189.8 46.96C189.96 46.8 190.163 46.72 190.408 46.72C190.632 46.72 190.824 46.8 190.984 46.96C191.155 47.12 191.24 47.3227 191.24 47.568C191.24 47.8027 191.155 48 190.984 48.16C190.824 48.32 190.632 48.4 190.408 48.4ZM193.685 50H194.789L194.853 51.136C195.109 50.7413 195.445 50.4373 195.861 50.224C196.277 50 196.762 49.888 197.317 49.888C197.925 49.888 198.458 50.0213 198.917 50.288C199.376 50.544 199.733 50.9333 199.989 51.456C200.245 51.968 200.373 52.6133 200.373 53.392V58H199.173V53.536C199.173 52.704 198.992 52.0747 198.629 51.648C198.277 51.2107 197.765 50.992 197.093 50.992C196.4 50.992 195.856 51.2213 195.461 51.68C195.077 52.1387 194.885 52.816 194.885 53.712V58H193.685V50ZM208.845 50H209.949V56.528C209.949 57.5093 209.73 58.3467 209.293 59.04C208.855 59.744 208.221 60.2773 207.389 60.64C206.557 61.0133 205.543 61.2 204.349 61.2L204.157 60.096C205.661 60.0747 206.802 59.76 207.581 59.152C208.359 58.5547 208.749 57.68 208.749 56.528V56.352L208.877 56.384C208.631 56.8533 208.263 57.2587 207.773 57.6C207.282 57.9307 206.647 58.1013 205.869 58.112C205.133 58.112 204.487 57.9467 203.933 57.616C203.389 57.2747 202.962 56.7947 202.653 56.176C202.354 55.5573 202.205 54.832 202.205 54C202.205 53.168 202.354 52.448 202.653 51.84C202.962 51.2213 203.389 50.7413 203.933 50.4C204.487 50.0587 205.133 49.888 205.869 49.888C206.349 49.888 206.775 49.9627 207.149 50.112C207.522 50.2507 207.842 50.4427 208.109 50.688C208.375 50.9227 208.594 51.1893 208.765 51.488L208.845 50ZM203.501 54C203.501 54.9173 203.735 55.648 204.205 56.192C204.685 56.7253 205.33 56.992 206.141 56.992C206.631 56.992 207.074 56.8747 207.469 56.64C207.863 56.4053 208.173 56.064 208.397 55.616C208.631 55.168 208.749 54.6293 208.749 54C208.749 53.3707 208.631 52.8373 208.397 52.4C208.173 51.952 207.863 51.6107 207.469 51.376C207.074 51.1307 206.631 51.008 206.141 51.008C205.341 51.008 204.701 51.28 204.221 51.824C203.741 52.368 203.501 53.0933 203.501 54ZM217.96 51.616C218.195 51.1253 218.563 50.7147 219.064 50.384C219.566 50.0533 220.2 49.888 220.968 49.888C221.704 49.888 222.344 50.0587 222.888 50.4C223.443 50.7413 223.87 51.2213 224.168 51.84C224.478 52.448 224.632 53.168 224.632 54C224.632 54.832 224.478 55.5573 224.168 56.176C223.859 56.7947 223.427 57.2747 222.872 57.616C222.328 57.9467 221.694 58.112 220.968 58.112C220.243 58.112 219.64 57.9573 219.16 57.648C218.68 57.3387 218.318 56.96 218.072 56.512L217.992 58H216.888V46.48H218.088V51.632L217.96 51.616ZM223.336 54C223.336 53.0827 223.096 52.3573 222.616 51.824C222.147 51.28 221.512 51.008 220.712 51.008C220.211 51.008 219.758 51.1307 219.352 51.376C218.958 51.6107 218.648 51.952 218.424 52.4C218.2 52.8373 218.088 53.3707 218.088 54C218.088 54.6293 218.2 55.168 218.424 55.616C218.648 56.064 218.958 56.4053 219.352 56.64C219.758 56.8747 220.211 56.992 220.712 56.992C221.512 56.992 222.147 56.7253 222.616 56.192C223.096 55.648 223.336 54.9173 223.336 54ZM233.135 58H232.047L231.967 56.848C231.722 57.2533 231.391 57.568 230.975 57.792C230.559 58.0053 230.074 58.112 229.519 58.112C228.901 58.112 228.362 57.984 227.903 57.728C227.445 57.472 227.087 57.088 226.831 56.576C226.586 56.064 226.463 55.4187 226.463 54.64V50H227.647V54.512C227.647 55.3333 227.823 55.9573 228.175 56.384C228.538 56.8 229.055 57.008 229.727 57.008C230.41 57.008 230.949 56.7893 231.343 56.352C231.749 55.904 231.951 55.232 231.951 54.336V50H233.135V58ZM241.752 51.616L241.624 51.632V46.48H242.824V58H241.72L241.64 56.512C241.394 56.96 241.026 57.3387 240.536 57.648C240.056 57.9573 239.458 58.112 238.744 58.112C238.008 58.112 237.362 57.9467 236.808 57.616C236.264 57.2747 235.837 56.7947 235.528 56.176C235.229 55.5573 235.08 54.832 235.08 54C235.08 53.168 235.229 52.448 235.528 51.84C235.837 51.2213 236.264 50.7413 236.808 50.4C237.362 50.0587 238.008 49.888 238.744 49.888C239.501 49.888 240.13 50.0533 240.632 50.384C241.133 50.7147 241.506 51.1253 241.752 51.616ZM236.376 54C236.376 54.9173 236.61 55.648 237.08 56.192C237.549 56.7253 238.189 56.992 239 56.992C239.501 56.992 239.949 56.8747 240.344 56.64C240.738 56.4053 241.048 56.064 241.272 55.616C241.506 55.168 241.624 54.6293 241.624 54C241.624 53.3707 241.506 52.8373 241.272 52.4C241.048 51.952 240.738 51.6107 240.344 51.376C239.949 51.1307 239.501 51.008 239 51.008C238.2 51.008 237.56 51.28 237.08 51.824C236.61 52.3573 236.376 53.0827 236.376 54ZM251.423 50H252.527V56.528C252.527 57.5093 252.308 58.3467 251.871 59.04C251.434 59.744 250.799 60.2773 249.967 60.64C249.135 61.0133 248.122 61.2 246.927 61.2L246.735 60.096C248.239 60.0747 249.38 59.76 250.159 59.152C250.938 58.5547 251.327 57.68 251.327 56.528V56.352L251.455 56.384C251.21 56.8533 250.842 57.2587 250.351 57.6C249.86 57.9307 249.226 58.1013 248.447 58.112C247.711 58.112 247.066 57.9467 246.511 57.616C245.967 57.2747 245.54 56.7947 245.231 56.176C244.932 55.5573 244.783 54.832 244.783 54C244.783 53.168 244.932 52.448 245.231 51.84C245.54 51.2213 245.967 50.7413 246.511 50.4C247.066 50.0587 247.711 49.888 248.447 49.888C248.927 49.888 249.354 49.9627 249.727 50.112C250.1 50.2507 250.42 50.4427 250.687 50.688C250.954 50.9227 251.172 51.1893 251.343 51.488L251.423 50ZM246.079 54C246.079 54.9173 246.314 55.648 246.783 56.192C247.263 56.7253 247.908 56.992 248.719 56.992C249.21 56.992 249.652 56.8747 250.047 56.64C250.442 56.4053 250.751 56.064 250.975 55.616C251.21 55.168 251.327 54.6293 251.327 54C251.327 53.3707 251.21 52.8373 250.975 52.4C250.751 51.952 250.442 51.6107 250.047 51.376C249.652 51.1307 249.21 51.008 248.719 51.008C247.919 51.008 247.279 51.28 246.799 51.824C246.319 52.368 246.079 53.0933 246.079 54ZM258.342 58.112C257.595 58.112 256.929 57.9307 256.342 57.568C255.766 57.2053 255.313 56.7093 254.982 56.08C254.651 55.4507 254.486 54.7307 254.486 53.92C254.486 53.1413 254.651 52.448 254.982 51.84C255.313 51.232 255.766 50.7573 256.342 50.416C256.918 50.064 257.574 49.888 258.31 49.888C259.035 49.888 259.681 50.048 260.246 50.368C260.822 50.688 261.27 51.1307 261.59 51.696C261.91 52.2613 262.059 52.9067 262.038 53.632C262.038 53.7493 262.033 53.872 262.022 54C262.011 54.128 262.001 54.2667 261.99 54.416H255.798C255.819 54.9173 255.942 55.36 256.166 55.744C256.39 56.128 256.683 56.432 257.046 56.656C257.419 56.8693 257.841 56.976 258.31 56.976C258.929 56.976 259.451 56.8587 259.878 56.624C260.315 56.3893 260.63 56.0533 260.822 55.616L261.862 56.032C261.542 56.704 261.078 57.2213 260.47 57.584C259.862 57.936 259.153 58.112 258.342 58.112ZM260.726 53.376C260.737 52.9173 260.635 52.512 260.422 52.16C260.219 51.808 259.931 51.5307 259.558 51.328C259.185 51.1253 258.753 51.024 258.262 51.024C257.835 51.024 257.446 51.1253 257.094 51.328C256.742 51.5307 256.449 51.8133 256.214 52.176C255.99 52.528 255.857 52.928 255.814 53.376H260.726ZM264.525 50V47.76H265.725V50H267.853V51.12H265.725V55.424C265.725 55.9147 265.827 56.272 266.029 56.496C266.243 56.72 266.509 56.8533 266.829 56.896C267.16 56.9387 267.501 56.9387 267.853 56.896V57.936C267.437 58.032 267.027 58.0587 266.621 58.016C266.227 57.9733 265.869 57.856 265.549 57.664C265.24 57.4613 264.989 57.1787 264.797 56.816C264.616 56.4533 264.525 55.9893 264.525 55.424V51.12H263.325V50H264.525ZM270.294 55.552C270.358 55.872 270.476 56.1387 270.646 56.352C270.817 56.5547 271.036 56.7093 271.302 56.816C271.58 56.9227 271.9 56.976 272.262 56.976C272.828 56.976 273.254 56.8693 273.542 56.656C273.841 56.432 273.99 56.1547 273.99 55.824C273.99 55.5467 273.9 55.3227 273.718 55.152C273.548 54.9813 273.318 54.8427 273.03 54.736C272.742 54.6187 272.422 54.5173 272.07 54.432C271.793 54.368 271.494 54.2933 271.174 54.208C270.854 54.112 270.55 53.984 270.262 53.824C269.974 53.664 269.74 53.456 269.558 53.2C269.377 52.944 269.286 52.608 269.286 52.192C269.286 51.7333 269.409 51.3333 269.654 50.992C269.91 50.64 270.257 50.368 270.694 50.176C271.142 49.984 271.654 49.888 272.23 49.888C272.892 49.888 273.478 50.032 273.99 50.32C274.513 50.608 274.876 51.056 275.078 51.664L273.958 52.048C273.884 51.7707 273.745 51.5573 273.542 51.408C273.35 51.2587 273.132 51.1573 272.886 51.104C272.652 51.0507 272.417 51.024 272.182 51.024C271.702 51.024 271.313 51.12 271.014 51.312C270.726 51.4933 270.582 51.7707 270.582 52.144C270.582 52.3467 270.63 52.5173 270.726 52.656C270.822 52.784 270.956 52.8907 271.126 52.976C271.297 53.0613 271.5 53.136 271.734 53.2C271.969 53.2533 272.225 53.3173 272.502 53.392C272.812 53.4667 273.126 53.5627 273.446 53.68C273.766 53.7867 274.065 53.9307 274.342 54.112C274.62 54.2827 274.844 54.5067 275.014 54.784C275.196 55.0507 275.286 55.3867 275.286 55.792C275.286 56.2613 275.158 56.672 274.902 57.024C274.646 57.3653 274.289 57.632 273.83 57.824C273.382 58.016 272.86 58.112 272.262 58.112C271.441 58.112 270.758 57.9307 270.214 57.568C269.681 57.1947 269.324 56.6507 269.142 55.936L270.294 55.552ZM285.172 58.112C284.415 58.112 283.738 57.9467 283.14 57.616C282.543 57.2853 282.074 56.816 281.732 56.208C281.391 55.5893 281.22 54.8587 281.22 54.016C281.22 53.1627 281.391 52.4267 281.732 51.808C282.084 51.1893 282.559 50.7147 283.156 50.384C283.764 50.0533 284.447 49.888 285.204 49.888C285.962 49.888 286.639 50.0533 287.236 50.384C287.844 50.7147 288.319 51.1893 288.66 51.808C289.012 52.416 289.188 53.1413 289.188 53.984C289.188 54.8373 289.012 55.5733 288.66 56.192C288.308 56.8107 287.828 57.2853 287.22 57.616C286.612 57.9467 285.93 58.112 285.172 58.112ZM285.156 56.976C285.626 56.976 286.068 56.8747 286.484 56.672C286.9 56.4587 287.236 56.1333 287.492 55.696C287.759 55.248 287.892 54.6827 287.892 54C287.892 53.3067 287.764 52.7413 287.508 52.304C287.252 51.8667 286.916 51.5467 286.5 51.344C286.095 51.1307 285.658 51.024 285.188 51.024C284.719 51.024 284.282 51.1307 283.876 51.344C283.471 51.5467 283.14 51.872 282.884 52.32C282.639 52.7573 282.516 53.3173 282.516 54C282.516 54.6933 282.639 55.2587 282.884 55.696C283.13 56.1333 283.45 56.4587 283.844 56.672C284.25 56.8747 284.687 56.976 285.156 56.976ZM291.154 50H292.258L292.322 51.136C292.578 50.7413 292.914 50.4373 293.33 50.224C293.746 50 294.231 49.888 294.786 49.888C295.394 49.888 295.927 50.0213 296.386 50.288C296.845 50.544 297.202 50.9333 297.458 51.456C297.714 51.968 297.842 52.6133 297.842 53.392V58H296.642V53.536C296.642 52.704 296.461 52.0747 296.098 51.648C295.746 51.2107 295.234 50.992 294.562 50.992C293.869 50.992 293.325 51.2213 292.93 51.68C292.546 52.1387 292.354 52.816 292.354 53.712V58H291.154V50ZM308.062 58.112C307.283 58.112 306.601 57.9413 306.014 57.6C305.427 57.2587 304.969 56.784 304.638 56.176C304.318 55.5573 304.158 54.8427 304.158 54.032C304.158 53.2107 304.318 52.4907 304.638 51.872C304.969 51.2427 305.427 50.7573 306.014 50.416C306.601 50.064 307.283 49.888 308.062 49.888C308.883 49.888 309.603 50.08 310.222 50.464C310.841 50.8373 311.289 51.36 311.566 52.032L310.462 52.416C310.302 51.9893 310.009 51.6533 309.582 51.408C309.166 51.152 308.681 51.024 308.126 51.024C307.582 51.024 307.107 51.1467 306.702 51.392C306.307 51.6373 305.998 51.984 305.774 52.432C305.561 52.88 305.454 53.408 305.454 54.016C305.454 54.912 305.694 55.632 306.174 56.176C306.654 56.7093 307.294 56.976 308.094 56.976C308.638 56.976 309.123 56.8533 309.55 56.608C309.977 56.3627 310.291 56.032 310.494 55.616L311.582 56C311.294 56.6613 310.841 57.1787 310.222 57.552C309.603 57.9253 308.883 58.112 308.062 58.112ZM317.001 58.112C316.243 58.112 315.566 57.9467 314.969 57.616C314.371 57.2853 313.902 56.816 313.561 56.208C313.219 55.5893 313.049 54.8587 313.049 54.016C313.049 53.1627 313.219 52.4267 313.561 51.808C313.913 51.1893 314.387 50.7147 314.985 50.384C315.593 50.0533 316.275 49.888 317.033 49.888C317.79 49.888 318.467 50.0533 319.065 50.384C319.673 50.7147 320.147 51.1893 320.489 51.808C320.841 52.416 321.017 53.1413 321.017 53.984C321.017 54.8373 320.841 55.5733 320.489 56.192C320.137 56.8107 319.657 57.2853 319.049 57.616C318.441 57.9467 317.758 58.112 317.001 58.112ZM316.985 56.976C317.454 56.976 317.897 56.8747 318.313 56.672C318.729 56.4587 319.065 56.1333 319.321 55.696C319.587 55.248 319.721 54.6827 319.721 54C319.721 53.3067 319.593 52.7413 319.337 52.304C319.081 51.8667 318.745 51.5467 318.329 51.344C317.923 51.1307 317.486 51.024 317.016 51.024C316.547 51.024 316.11 51.1307 315.705 51.344C315.299 51.5467 314.969 51.872 314.713 52.32C314.467 52.7573 314.345 53.3173 314.345 54C314.345 54.6933 314.467 55.2587 314.713 55.696C314.958 56.1333 315.278 56.4587 315.673 56.672C316.078 56.8747 316.515 56.976 316.985 56.976ZM322.982 50H324.086L324.15 51.136C324.406 50.7413 324.742 50.4373 325.158 50.224C325.574 50 326.059 49.888 326.614 49.888C327.222 49.888 327.755 50.0213 328.214 50.288C328.673 50.544 329.03 50.9333 329.286 51.456C329.542 51.968 329.67 52.6133 329.67 53.392V58H328.47V53.536C328.47 52.704 328.289 52.0747 327.926 51.648C327.574 51.2107 327.062 50.992 326.39 50.992C325.697 50.992 325.153 51.2213 324.758 51.68C324.374 52.1387 324.182 52.816 324.182 53.712V58H322.982V50ZM332.654 55.552C332.718 55.872 332.835 56.1387 333.006 56.352C333.176 56.5547 333.395 56.7093 333.662 56.816C333.939 56.9227 334.259 56.976 334.622 56.976C335.187 56.976 335.614 56.8693 335.902 56.656C336.2 56.432 336.35 56.1547 336.35 55.824C336.35 55.5467 336.259 55.3227 336.078 55.152C335.907 54.9813 335.678 54.8427 335.39 54.736C335.102 54.6187 334.782 54.5173 334.43 54.432C334.152 54.368 333.854 54.2933 333.534 54.208C333.214 54.112 332.91 53.984 332.622 53.824C332.334 53.664 332.099 53.456 331.918 53.2C331.736 52.944 331.646 52.608 331.646 52.192C331.646 51.7333 331.768 51.3333 332.014 50.992C332.27 50.64 332.616 50.368 333.054 50.176C333.502 49.984 334.014 49.888 334.59 49.888C335.251 49.888 335.838 50.032 336.35 50.32C336.872 50.608 337.235 51.056 337.438 51.664L336.318 52.048C336.243 51.7707 336.104 51.5573 335.902 51.408C335.71 51.2587 335.491 51.1573 335.246 51.104C335.011 51.0507 334.776 51.024 334.542 51.024C334.062 51.024 333.672 51.12 333.374 51.312C333.086 51.4933 332.942 51.7707 332.942 52.144C332.942 52.3467 332.99 52.5173 333.086 52.656C333.182 52.784 333.315 52.8907 333.486 52.976C333.656 53.0613 333.859 53.136 334.094 53.2C334.328 53.2533 334.584 53.3173 334.862 53.392C335.171 53.4667 335.486 53.5627 335.806 53.68C336.126 53.7867 336.424 53.9307 336.702 54.112C336.979 54.2827 337.203 54.5067 337.374 54.784C337.555 55.0507 337.646 55.3867 337.646 55.792C337.646 56.2613 337.518 56.672 337.262 57.024C337.006 57.3653 336.648 57.632 336.19 57.824C335.742 58.016 335.219 58.112 334.622 58.112C333.8 58.112 333.118 57.9307 332.574 57.568C332.04 57.1947 331.683 56.6507 331.502 55.936L332.654 55.552ZM346.135 58H345.047L344.967 56.848C344.722 57.2533 344.391 57.568 343.975 57.792C343.559 58.0053 343.074 58.112 342.519 58.112C341.901 58.112 341.362 57.984 340.903 57.728C340.445 57.472 340.087 57.088 339.831 56.576C339.586 56.064 339.463 55.4187 339.463 54.64V50H340.647V54.512C340.647 55.3333 340.823 55.9573 341.175 56.384C341.538 56.8 342.055 57.008 342.727 57.008C343.41 57.008 343.949 56.7893 344.343 56.352C344.749 55.904 344.951 55.232 344.951 54.336V50H346.135V58ZM348.576 46.48H349.776V58H348.576V46.48ZM352.728 50V47.76H353.928V50H356.056V51.12H353.928V55.424C353.928 55.9147 354.03 56.272 354.232 56.496C354.446 56.72 354.712 56.8533 355.032 56.896C355.363 56.9387 355.704 56.9387 356.056 56.896V57.936C355.64 58.032 355.23 58.0587 354.824 58.016C354.43 57.9733 354.072 57.856 353.752 57.664C353.443 57.4613 353.192 57.1787 353 56.816C352.819 56.4533 352.728 55.9893 352.728 55.424V51.12H351.528V50H352.728ZM362.849 58L362.753 56.56C362.529 57.0507 362.199 57.4347 361.761 57.712C361.324 57.9787 360.769 58.112 360.097 58.112C359.521 58.112 359.031 58.0213 358.625 57.84C358.22 57.6587 357.905 57.4027 357.681 57.072C357.468 56.7307 357.361 56.3307 357.361 55.872C357.361 55.2 357.612 54.6507 358.113 54.224C358.615 53.7867 359.34 53.52 360.289 53.424L362.753 53.152V52.512C362.753 52.064 362.588 51.7067 362.257 51.44C361.927 51.1627 361.479 51.024 360.913 51.024C360.359 51.024 359.895 51.152 359.521 51.408C359.159 51.664 358.908 52.032 358.769 52.512L357.681 52.128C357.895 51.424 358.284 50.8747 358.849 50.48C359.425 50.0853 360.124 49.888 360.945 49.888C361.895 49.888 362.631 50.1333 363.153 50.624C363.687 51.104 363.953 51.76 363.953 52.592V58H362.849ZM362.753 54.176L360.273 54.464C359.74 54.528 359.335 54.6773 359.057 54.912C358.78 55.136 358.641 55.4347 358.641 55.808C358.641 56.1813 358.775 56.48 359.041 56.704C359.319 56.928 359.713 57.04 360.225 57.04C360.812 57.04 361.292 56.9227 361.665 56.688C362.039 56.4533 362.311 56.1387 362.481 55.744C362.663 55.3387 362.753 54.9013 362.753 54.432V54.176ZM366.295 50H367.399L367.463 51.136C367.719 50.7413 368.055 50.4373 368.471 50.224C368.887 50 369.372 49.888 369.927 49.888C370.535 49.888 371.068 50.0213 371.527 50.288C371.985 50.544 372.343 50.9333 372.599 51.456C372.855 51.968 372.983 52.6133 372.983 53.392V58H371.783V53.536C371.783 52.704 371.601 52.0747 371.239 51.648C370.887 51.2107 370.375 50.992 369.703 50.992C369.009 50.992 368.465 51.2213 368.071 51.68C367.687 52.1387 367.495 52.816 367.495 53.712V58H366.295V50ZM375.822 50V47.76H377.022V50H379.15V51.12H377.022V55.424C377.022 55.9147 377.123 56.272 377.326 56.496C377.539 56.72 377.806 56.8533 378.126 56.896C378.457 56.9387 378.798 56.9387 379.15 56.896V57.936C378.734 58.032 378.323 58.0587 377.918 58.016C377.523 57.9733 377.166 57.856 376.846 57.664C376.537 57.4613 376.286 57.1787 376.094 56.816C375.913 56.4533 375.822 55.9893 375.822 55.424V51.12H374.622V50H375.822ZM381.591 55.552C381.655 55.872 381.772 56.1387 381.943 56.352C382.114 56.5547 382.332 56.7093 382.599 56.816C382.876 56.9227 383.196 56.976 383.559 56.976C384.124 56.976 384.551 56.8693 384.839 56.656C385.138 56.432 385.287 56.1547 385.287 55.824C385.287 55.5467 385.196 55.3227 385.015 55.152C384.844 54.9813 384.615 54.8427 384.327 54.736C384.039 54.6187 383.719 54.5173 383.367 54.432C383.09 54.368 382.791 54.2933 382.471 54.208C382.151 54.112 381.847 53.984 381.559 53.824C381.271 53.664 381.036 53.456 380.855 53.2C380.674 52.944 380.583 52.608 380.583 52.192C380.583 51.7333 380.706 51.3333 380.951 50.992C381.207 50.64 381.554 50.368 381.991 50.176C382.439 49.984 382.951 49.888 383.527 49.888C384.188 49.888 384.775 50.032 385.287 50.32C385.81 50.608 386.172 51.056 386.375 51.664L385.255 52.048C385.18 51.7707 385.042 51.5573 384.839 51.408C384.647 51.2587 384.428 51.1573 384.183 51.104C383.948 51.0507 383.714 51.024 383.479 51.024C382.999 51.024 382.61 51.12 382.311 51.312C382.023 51.4933 381.879 51.7707 381.879 52.144C381.879 52.3467 381.927 52.5173 382.023 52.656C382.119 52.784 382.252 52.8907 382.423 52.976C382.594 53.0613 382.796 53.136 383.031 53.2C383.266 53.2533 383.522 53.3173 383.799 53.392C384.108 53.4667 384.423 53.5627 384.743 53.68C385.063 53.7867 385.362 53.9307 385.639 54.112C385.916 54.2827 386.14 54.5067 386.311 54.784C386.492 55.0507 386.583 55.3867 386.583 55.792C386.583 56.2613 386.455 56.672 386.199 57.024C385.943 57.3653 385.586 57.632 385.127 57.824C384.679 58.016 384.156 58.112 383.559 58.112C382.738 58.112 382.055 57.9307 381.511 57.568C380.978 57.1947 380.62 56.6507 380.439 55.936L381.591 55.552Z" fill="#9CA3AF"/>
<path d="M154 53.2H387.303V54H154V53.2Z" fill="#9CA3AF"/>
</g>
<g filter="url(#filter2_dd_5453_69092)">
<rect x="412.354" y="4" width="40" height="40" rx="10" transform="rotate(15 412.354 4)" fill="white" shape-rendering="crispEdges"/>
<rect x="412" y="3.38763" width="41" height="41" rx="10.5" transform="rotate(15 412 3.38763)" stroke="#F3F4F7" shape-rendering="crispEdges"/>
<g clip-path="url(#clip1_5453_69092)">
<path d="M423.079 29.6508C422.651 31.2513 424.897 33.2437 428.099 34.1014C431.3 34.9592 434.242 34.3571 434.671 32.7566M423.079 29.6508C423.508 28.0502 426.45 27.4482 429.651 28.3059C432.852 29.1636 435.099 31.156 434.671 32.7566M423.079 29.6508L422.044 33.5145C421.616 35.114 423.862 37.1074 427.063 37.9651C430.264 38.8229 433.207 38.2199 433.635 36.6203L434.671 32.7566M419.354 20.3704C419.077 21.4059 419.926 22.6583 421.58 23.6564C423.234 24.6545 425.444 25.2466 427.375 25.2093C429.307 25.1719 430.668 24.5117 430.946 23.4763C431.223 22.4408 430.374 21.1884 428.72 20.1903C427.066 19.1922 424.856 18.6 422.925 18.6374C420.993 18.6748 419.632 19.335 419.354 20.3704ZM419.354 20.3704L416.766 30.0297C416.536 30.8874 417.137 31.6301 418.18 32.4792M418.06 25.2001C417.83 26.0578 418.431 26.8005 419.475 27.6496" stroke="#71717A" stroke-width="1.2" stroke-linecap="round" stroke-linejoin="round"/>
</g>
</g>
<g filter="url(#filter3_dd_5453_69092)">
<rect x="86" y="250.281" width="32" height="32" rx="8" transform="rotate(-15 86 250.281)" fill="white" shape-rendering="crispEdges"/>
<rect x="85.3876" y="249.928" width="33" height="33" rx="8.5" transform="rotate(-15 85.3876 249.928)" stroke="#F3F4F7" shape-rendering="crispEdges"/>
<g clip-path="url(#clip2_5453_69092)">
<path d="M106.746 254.298L107.523 257.195M100.951 255.85L101.727 258.748M99.6056 262.423L111.197 259.317M98.8292 259.525C98.7262 259.14 98.7801 258.731 98.979 258.387C99.178 258.042 99.5056 257.791 99.8899 257.688L108.583 255.358C108.967 255.255 109.377 255.309 109.721 255.508C110.066 255.707 110.317 256.035 110.42 256.419L112.75 265.112C112.853 265.497 112.799 265.906 112.6 266.25C112.401 266.595 112.073 266.846 111.689 266.949L102.996 269.279C102.611 269.382 102.202 269.328 101.857 269.129C101.513 268.93 101.262 268.602 101.159 268.218L98.8292 259.525Z" stroke="#71717A" stroke-width="1.2" stroke-linecap="round" stroke-linejoin="round"/>
</g>
</g>
<g opacity="0.2" filter="url(#filter4_f_5453_69092)">
<path d="M706.298 234.642C604.922 308.095 545.362 456.039 545.362 456.039C545.362 456.039 482.079 436.815 458.632 432.674C515.672 398.664 512.323 314.268 549.051 253.677C578.627 240.3 675.526 242.184 706.298 234.642Z" fill="url(#paint4_linear_5453_69092)"/>
</g>
<g opacity="0.2" filter="url(#filter5_f_5453_69092)">
<path d="M-134.366 298.029C-50.7919 225.103 -9.42903 95.8626 -9.42903 95.8626C-9.42903 95.8626 47.5465 103.993 68.4359 104.546C20.8723 139.545 30.0442 208.718 2.27468 263.154C-22.702 277.79 -107.908 288.056 -134.366 298.029Z" fill="url(#paint5_linear_5453_69092)"/>
</g>
<g filter="url(#filter6_dd_5453_69092)">
<rect x="70" y="92" width="400" height="110" rx="16" fill="white" shape-rendering="crispEdges"/>
<rect x="70.5" y="92.5" width="399" height="109" rx="15.5" stroke="#F3F4F7" shape-rendering="crispEdges"/>
<g filter="url(#filter7_i_5453_69092)">
<rect x="94" y="112" width="352" height="40" rx="12" fill="#266AE9"/>
<path d="M243.085 130.196C242.73 129.533 242.277 129.053 241.727 128.754C241.185 128.455 240.593 128.306 239.949 128.306C239.295 128.306 238.698 128.465 238.157 128.782C237.615 129.099 237.186 129.543 236.869 130.112C236.561 130.672 236.407 131.335 236.407 132.1C236.407 132.856 236.561 133.519 236.869 134.088C237.177 134.657 237.597 135.101 238.129 135.418C238.67 135.735 239.272 135.894 239.935 135.894C240.411 135.894 240.859 135.81 241.279 135.642C241.699 135.474 242.063 135.241 242.371 134.942C242.688 134.643 242.935 134.289 243.113 133.878V132.814H240.033V131.666H244.527V133.948C244.303 134.545 243.967 135.082 243.519 135.558C243.08 136.034 242.553 136.412 241.937 136.692C241.33 136.963 240.663 137.098 239.935 137.098C239.244 137.098 238.595 136.977 237.989 136.734C237.391 136.491 236.869 136.151 236.421 135.712C235.973 135.264 235.623 134.737 235.371 134.13C235.119 133.514 234.993 132.837 234.993 132.1C234.993 131.372 235.119 130.705 235.371 130.098C235.623 129.482 235.973 128.95 236.421 128.502C236.869 128.054 237.391 127.709 237.989 127.466C238.595 127.223 239.244 127.102 239.935 127.102C240.56 127.102 241.157 127.205 241.727 127.41C242.296 127.615 242.805 127.914 243.253 128.306C243.701 128.698 244.051 129.179 244.303 129.748L243.085 130.196ZM249.225 137.098C248.553 137.098 247.955 136.944 247.433 136.636C246.919 136.319 246.513 135.885 246.215 135.334C245.925 134.783 245.781 134.153 245.781 133.444C245.781 132.763 245.925 132.156 246.215 131.624C246.504 131.092 246.901 130.672 247.405 130.364C247.918 130.056 248.497 129.902 249.141 129.902C249.794 129.902 250.373 130.047 250.877 130.336C251.381 130.616 251.773 131.013 252.053 131.526C252.333 132.03 252.468 132.613 252.459 133.276C252.459 133.388 252.454 133.505 252.445 133.626C252.435 133.738 252.421 133.864 252.403 134.004H247.223C247.251 134.377 247.353 134.709 247.531 134.998C247.717 135.278 247.951 135.497 248.231 135.656C248.52 135.815 248.847 135.894 249.211 135.894C249.677 135.894 250.083 135.805 250.429 135.628C250.774 135.441 251.017 135.194 251.157 134.886L252.305 135.292C252.025 135.861 251.614 136.305 251.073 136.622C250.541 136.939 249.925 137.098 249.225 137.098ZM251.017 132.87C251.017 132.534 250.933 132.231 250.765 131.96C250.597 131.689 250.368 131.479 250.079 131.33C249.799 131.171 249.481 131.092 249.127 131.092C248.809 131.092 248.515 131.171 248.245 131.33C247.983 131.479 247.759 131.689 247.573 131.96C247.395 132.221 247.283 132.525 247.237 132.87H251.017ZM254.523 130V128.04H255.853V130H257.603V131.176H255.853V134.62C255.853 135.049 255.937 135.353 256.105 135.53C256.283 135.707 256.502 135.81 256.763 135.838C257.034 135.857 257.314 135.847 257.603 135.81V136.944C257.221 137.028 256.843 137.051 256.469 137.014C256.105 136.986 255.774 136.883 255.475 136.706C255.186 136.529 254.953 136.272 254.775 135.936C254.607 135.591 254.523 135.152 254.523 134.62V131.176H253.515V130H254.523ZM268.729 130.126C268.729 129.594 268.57 129.169 268.253 128.852C267.936 128.535 267.432 128.376 266.741 128.376H264.501V131.862H266.755C267.212 131.862 267.586 131.792 267.875 131.652C268.164 131.503 268.379 131.297 268.519 131.036C268.659 130.775 268.729 130.471 268.729 130.126ZM266.741 127.2C267.516 127.2 268.15 127.335 268.645 127.606C269.149 127.867 269.522 128.217 269.765 128.656C270.017 129.095 270.143 129.585 270.143 130.126C270.143 130.481 270.082 130.831 269.961 131.176C269.84 131.521 269.644 131.839 269.373 132.128C269.102 132.408 268.748 132.632 268.309 132.8C267.88 132.959 267.362 133.038 266.755 133.038H264.501V137H263.101V127.2H266.741ZM267.637 132.562L270.339 137H268.757L266.153 132.562H267.637ZM274.942 137.098C274.27 137.098 273.672 136.944 273.15 136.636C272.636 136.319 272.23 135.885 271.932 135.334C271.642 134.783 271.498 134.153 271.498 133.444C271.498 132.763 271.642 132.156 271.932 131.624C272.221 131.092 272.618 130.672 273.122 130.364C273.635 130.056 274.214 129.902 274.858 129.902C275.511 129.902 276.09 130.047 276.594 130.336C277.098 130.616 277.49 131.013 277.77 131.526C278.05 132.03 278.185 132.613 278.176 133.276C278.176 133.388 278.171 133.505 278.162 133.626C278.152 133.738 278.138 133.864 278.12 134.004H272.94C272.968 134.377 273.07 134.709 273.248 134.998C273.434 135.278 273.668 135.497 273.948 135.656C274.237 135.815 274.564 135.894 274.928 135.894C275.394 135.894 275.8 135.805 276.146 135.628C276.491 135.441 276.734 135.194 276.874 134.886L278.022 135.292C277.742 135.861 277.331 136.305 276.79 136.622C276.258 136.939 275.642 137.098 274.942 137.098ZM276.734 132.87C276.734 132.534 276.65 132.231 276.482 131.96C276.314 131.689 276.085 131.479 275.796 131.33C275.516 131.171 275.198 131.092 274.844 131.092C274.526 131.092 274.232 131.171 273.962 131.33C273.7 131.479 273.476 131.689 273.29 131.96C273.112 132.221 273 132.525 272.954 132.87H276.734ZM280.968 135.81L281.108 135.768V139.8H279.792V130H280.996L281.094 131.05C281.318 130.733 281.626 130.462 282.018 130.238C282.42 130.014 282.905 129.902 283.474 129.902C284.09 129.902 284.636 130.051 285.112 130.35C285.588 130.649 285.962 131.069 286.232 131.61C286.512 132.142 286.652 132.772 286.652 133.5C286.652 134.219 286.517 134.849 286.246 135.39C285.985 135.931 285.616 136.351 285.14 136.65C284.664 136.949 284.109 137.098 283.474 137.098C282.868 137.098 282.35 136.977 281.92 136.734C281.5 136.482 281.183 136.174 280.968 135.81ZM285.224 133.5C285.224 132.781 285.033 132.203 284.65 131.764C284.277 131.325 283.787 131.106 283.18 131.106C282.788 131.106 282.438 131.199 282.13 131.386C281.822 131.573 281.575 131.843 281.388 132.198C281.202 132.553 281.108 132.987 281.108 133.5C281.108 134.004 281.202 134.433 281.388 134.788C281.575 135.143 281.822 135.418 282.13 135.614C282.438 135.801 282.788 135.894 283.18 135.894C283.787 135.894 284.277 135.675 284.65 135.236C285.033 134.797 285.224 134.219 285.224 133.5ZM291.307 137.098C290.645 137.098 290.047 136.953 289.515 136.664C288.993 136.365 288.582 135.95 288.283 135.418C287.985 134.877 287.835 134.242 287.835 133.514C287.835 132.777 287.989 132.137 288.297 131.596C288.605 131.055 289.025 130.639 289.557 130.35C290.089 130.051 290.687 129.902 291.349 129.902C292.012 129.902 292.609 130.051 293.141 130.35C293.683 130.639 294.107 131.055 294.415 131.596C294.723 132.128 294.877 132.758 294.877 133.486C294.877 134.223 294.719 134.863 294.401 135.404C294.093 135.945 293.669 136.365 293.127 136.664C292.586 136.953 291.979 137.098 291.307 137.098ZM291.293 135.894C291.667 135.894 292.017 135.81 292.343 135.642C292.67 135.465 292.936 135.199 293.141 134.844C293.356 134.489 293.463 134.037 293.463 133.486C293.463 132.945 293.361 132.501 293.155 132.156C292.959 131.801 292.698 131.54 292.371 131.372C292.045 131.195 291.695 131.106 291.321 131.106C290.957 131.106 290.617 131.195 290.299 131.372C289.991 131.54 289.739 131.801 289.543 132.156C289.347 132.511 289.249 132.963 289.249 133.514C289.249 134.055 289.343 134.503 289.529 134.858C289.725 135.203 289.977 135.465 290.285 135.642C290.593 135.81 290.929 135.894 291.293 135.894ZM296.486 130H297.69L297.774 130.938C297.97 130.695 298.194 130.495 298.446 130.336C298.707 130.168 298.987 130.051 299.286 129.986C299.594 129.921 299.911 129.925 300.238 130V131.246C299.93 131.171 299.631 131.162 299.342 131.218C299.052 131.274 298.791 131.395 298.558 131.582C298.334 131.759 298.152 131.997 298.012 132.296C297.872 132.595 297.802 132.954 297.802 133.374V137H296.486V130ZM302.019 130V128.04H303.349V130H305.099V131.176H303.349V134.62C303.349 135.049 303.433 135.353 303.601 135.53C303.779 135.707 303.998 135.81 304.259 135.838C304.53 135.857 304.81 135.847 305.099 135.81V136.944C304.717 137.028 304.339 137.051 303.965 137.014C303.601 136.986 303.27 136.883 302.971 136.706C302.682 136.529 302.449 136.272 302.271 135.936C302.103 135.591 302.019 135.152 302.019 134.62V131.176H301.011V130H302.019Z" fill="white"/>
</g>
<path d="M177.602 172.1C177.602 171.363 177.723 170.691 177.966 170.084C178.209 169.468 178.549 168.941 178.988 168.502C179.436 168.054 179.949 167.709 180.528 167.466C181.116 167.223 181.755 167.102 182.446 167.102C183.454 167.102 184.336 167.335 185.092 167.802C185.857 168.269 186.436 168.931 186.828 169.79L185.918 170.126C185.703 169.669 185.419 169.295 185.064 169.006C184.709 168.707 184.308 168.483 183.86 168.334C183.412 168.185 182.941 168.11 182.446 168.11C181.746 168.11 181.116 168.269 180.556 168.586C179.996 168.903 179.553 169.361 179.226 169.958C178.909 170.555 178.75 171.269 178.75 172.1C178.75 172.921 178.909 173.631 179.226 174.228C179.553 174.825 179.996 175.287 180.556 175.614C181.116 175.931 181.746 176.09 182.446 176.09C182.95 176.09 183.431 176.011 183.888 175.852C184.345 175.693 184.756 175.446 185.12 175.11C185.493 174.774 185.792 174.354 186.016 173.85L186.926 174.186C186.525 175.147 185.937 175.875 185.162 176.37C184.387 176.855 183.482 177.098 182.446 177.098C181.755 177.098 181.116 176.977 180.528 176.734C179.949 176.491 179.436 176.146 178.988 175.698C178.549 175.25 178.209 174.723 177.966 174.116C177.723 173.5 177.602 172.828 177.602 172.1ZM188.783 166.92H189.833V177H188.783V166.92ZM196.351 177L196.267 175.74C196.071 176.169 195.781 176.505 195.399 176.748C195.016 176.981 194.531 177.098 193.943 177.098C193.439 177.098 193.009 177.019 192.655 176.86C192.3 176.701 192.025 176.477 191.829 176.188C191.642 175.889 191.549 175.539 191.549 175.138C191.549 174.55 191.768 174.069 192.207 173.696C192.645 173.313 193.28 173.08 194.111 172.996L196.267 172.758V172.198C196.267 171.806 196.122 171.493 195.833 171.26C195.543 171.017 195.151 170.896 194.657 170.896C194.171 170.896 193.765 171.008 193.439 171.232C193.121 171.456 192.902 171.778 192.781 172.198L191.829 171.862C192.015 171.246 192.356 170.765 192.851 170.42C193.355 170.075 193.966 169.902 194.685 169.902C195.515 169.902 196.159 170.117 196.617 170.546C197.083 170.966 197.317 171.54 197.317 172.268V177H196.351ZM196.267 173.654L194.097 173.906C193.63 173.962 193.275 174.093 193.033 174.298C192.79 174.494 192.669 174.755 192.669 175.082C192.669 175.409 192.785 175.67 193.019 175.866C193.261 176.062 193.607 176.16 194.055 176.16C194.568 176.16 194.988 176.057 195.315 175.852C195.641 175.647 195.879 175.371 196.029 175.026C196.187 174.671 196.267 174.289 196.267 173.878V173.654ZM199.365 170H200.331L200.387 171.022C200.574 170.77 200.798 170.555 201.059 170.378C201.33 170.201 201.624 170.079 201.941 170.014C202.268 169.939 202.613 169.935 202.977 170V171.05C202.585 170.975 202.23 170.975 201.913 171.05C201.605 171.125 201.339 171.265 201.115 171.47C200.891 171.675 200.718 171.937 200.597 172.254C200.476 172.562 200.415 172.921 200.415 173.332V177H199.365V170ZM204.62 170H205.656V177H204.62V170ZM205.152 168.6C204.937 168.6 204.76 168.53 204.62 168.39C204.48 168.25 204.41 168.077 204.41 167.872C204.41 167.657 204.48 167.48 204.62 167.34C204.76 167.2 204.937 167.13 205.152 167.13C205.348 167.13 205.516 167.2 205.656 167.34C205.805 167.48 205.88 167.657 205.88 167.872C205.88 168.077 205.805 168.25 205.656 168.39C205.516 168.53 205.348 168.6 205.152 168.6ZM208.467 170V168.04H209.517V170H211.379V170.98H209.517V174.746C209.517 175.175 209.606 175.488 209.783 175.684C209.97 175.88 210.203 175.997 210.483 176.034C210.773 176.071 211.071 176.071 211.379 176.034V176.944C211.015 177.028 210.656 177.051 210.301 177.014C209.956 176.977 209.643 176.874 209.363 176.706C209.093 176.529 208.873 176.281 208.705 175.964C208.547 175.647 208.467 175.241 208.467 174.746V170.98H207.417V170H208.467ZM217.687 170H218.779L214.775 179.8H213.767L214.957 176.902L212.129 170H213.277L215.517 175.656L217.687 170ZM224.253 170H225.289V177H224.253V170ZM224.785 168.6C224.57 168.6 224.393 168.53 224.253 168.39C224.113 168.25 224.043 168.077 224.043 167.872C224.043 167.657 224.113 167.48 224.253 167.34C224.393 167.2 224.57 167.13 224.785 167.13C224.981 167.13 225.149 167.2 225.289 167.34C225.438 167.48 225.513 167.657 225.513 167.872C225.513 168.077 225.438 168.25 225.289 168.39C225.149 168.53 224.981 168.6 224.785 168.6ZM227.652 170H228.618L228.674 170.994C228.898 170.649 229.192 170.383 229.556 170.196C229.92 170 230.345 169.902 230.83 169.902C231.362 169.902 231.829 170.019 232.23 170.252C232.632 170.476 232.944 170.817 233.168 171.274C233.392 171.722 233.504 172.287 233.504 172.968V177H232.454V173.094C232.454 172.366 232.296 171.815 231.978 171.442C231.67 171.059 231.222 170.868 230.634 170.868C230.028 170.868 229.552 171.069 229.206 171.47C228.87 171.871 228.702 172.464 228.702 173.248V177H227.652V170ZM238.989 172.1C238.989 171.363 239.11 170.691 239.353 170.084C239.595 169.468 239.936 168.941 240.375 168.502C240.823 168.054 241.336 167.709 241.915 167.466C242.503 167.223 243.142 167.102 243.833 167.102C244.841 167.102 245.723 167.335 246.479 167.802C247.244 168.269 247.823 168.931 248.215 169.79L247.305 170.126C247.09 169.669 246.805 169.295 246.451 169.006C246.096 168.707 245.695 168.483 245.247 168.334C244.799 168.185 244.327 168.11 243.833 168.11C243.133 168.11 242.503 168.269 241.943 168.586C241.383 168.903 240.939 169.361 240.613 169.958C240.295 170.555 240.137 171.269 240.137 172.1C240.137 172.921 240.295 173.631 240.613 174.228C240.939 174.825 241.383 175.287 241.943 175.614C242.503 175.931 243.133 176.09 243.833 176.09C244.337 176.09 244.817 176.011 245.275 175.852C245.732 175.693 246.143 175.446 246.507 175.11C246.88 174.774 247.179 174.354 247.403 173.85L248.313 174.186C247.911 175.147 247.323 175.875 246.549 176.37C245.774 176.855 244.869 177.098 243.833 177.098C243.142 177.098 242.503 176.977 241.915 176.734C241.336 176.491 240.823 176.146 240.375 175.698C239.936 175.25 239.595 174.723 239.353 174.116C239.11 173.5 238.989 172.828 238.989 172.1ZM250.17 166.92H251.22V177H250.17V166.92ZM253.565 170H254.601V177H253.565V170ZM254.097 168.6C253.883 168.6 253.705 168.53 253.565 168.39C253.425 168.25 253.355 168.077 253.355 167.872C253.355 167.657 253.425 167.48 253.565 167.34C253.705 167.2 253.883 167.13 254.097 167.13C254.293 167.13 254.461 167.2 254.601 167.34C254.751 167.48 254.825 167.657 254.825 167.872C254.825 168.077 254.751 168.25 254.601 168.39C254.461 168.53 254.293 168.6 254.097 168.6ZM259.947 177.098C259.265 177.098 258.668 176.949 258.155 176.65C257.641 176.351 257.24 175.936 256.951 175.404C256.671 174.863 256.531 174.237 256.531 173.528C256.531 172.809 256.671 172.179 256.951 171.638C257.24 171.087 257.641 170.663 258.155 170.364C258.668 170.056 259.265 169.902 259.947 169.902C260.665 169.902 261.295 170.07 261.837 170.406C262.378 170.733 262.77 171.19 263.013 171.778L262.047 172.114C261.907 171.741 261.65 171.447 261.277 171.232C260.913 171.008 260.488 170.896 260.003 170.896C259.527 170.896 259.111 171.003 258.757 171.218C258.411 171.433 258.141 171.736 257.945 172.128C257.758 172.52 257.665 172.982 257.665 173.514C257.665 174.298 257.875 174.928 258.295 175.404C258.715 175.871 259.275 176.104 259.975 176.104C260.451 176.104 260.875 175.997 261.249 175.782C261.622 175.567 261.897 175.278 262.075 174.914L263.027 175.25C262.775 175.829 262.378 176.281 261.837 176.608C261.295 176.935 260.665 177.098 259.947 177.098ZM264.744 166.92H265.808V173.038H266.452L269.21 170H270.694L267.39 173.5L270.708 177H269.21L266.452 173.948H265.808V177H264.744V166.92ZM272.564 174.858C272.62 175.138 272.723 175.371 272.872 175.558C273.021 175.735 273.213 175.871 273.446 175.964C273.689 176.057 273.969 176.104 274.286 176.104C274.781 176.104 275.154 176.011 275.406 175.824C275.667 175.628 275.798 175.385 275.798 175.096C275.798 174.853 275.719 174.657 275.56 174.508C275.411 174.359 275.21 174.237 274.958 174.144C274.706 174.041 274.426 173.953 274.118 173.878C273.875 173.822 273.614 173.757 273.334 173.682C273.054 173.598 272.788 173.486 272.536 173.346C272.284 173.206 272.079 173.024 271.92 172.8C271.761 172.576 271.682 172.282 271.682 171.918C271.682 171.517 271.789 171.167 272.004 170.868C272.228 170.56 272.531 170.322 272.914 170.154C273.306 169.986 273.754 169.902 274.258 169.902C274.837 169.902 275.35 170.028 275.798 170.28C276.255 170.532 276.573 170.924 276.75 171.456L275.77 171.792C275.705 171.549 275.583 171.363 275.406 171.232C275.238 171.101 275.047 171.013 274.832 170.966C274.627 170.919 274.421 170.896 274.216 170.896C273.796 170.896 273.455 170.98 273.194 171.148C272.942 171.307 272.816 171.549 272.816 171.876C272.816 172.053 272.858 172.203 272.942 172.324C273.026 172.436 273.143 172.529 273.292 172.604C273.441 172.679 273.619 172.744 273.824 172.8C274.029 172.847 274.253 172.903 274.496 172.968C274.767 173.033 275.042 173.117 275.322 173.22C275.602 173.313 275.863 173.439 276.106 173.598C276.349 173.747 276.545 173.943 276.694 174.186C276.853 174.419 276.932 174.713 276.932 175.068C276.932 175.479 276.82 175.838 276.596 176.146C276.372 176.445 276.059 176.678 275.658 176.846C275.266 177.014 274.809 177.098 274.286 177.098C273.567 177.098 272.97 176.939 272.494 176.622C272.027 176.295 271.715 175.819 271.556 175.194L272.564 174.858ZM279.209 177.07C278.994 177.07 278.812 176.995 278.663 176.846C278.523 176.697 278.453 176.515 278.453 176.3C278.453 176.085 278.523 175.903 278.663 175.754C278.812 175.605 278.994 175.53 279.209 175.53C279.414 175.53 279.591 175.605 279.741 175.754C279.89 175.903 279.965 176.085 279.965 176.3C279.965 176.515 279.89 176.697 279.741 176.846C279.591 176.995 279.414 177.07 279.209 177.07ZM293.455 167.2V177H292.321L287.085 168.992V177H285.965V167.2H287.099L292.335 175.194V167.2H293.455ZM298.748 177.098C298.086 177.098 297.493 176.953 296.97 176.664C296.448 176.375 296.037 175.964 295.738 175.432C295.44 174.891 295.29 174.251 295.29 173.514C295.29 172.767 295.44 172.123 295.738 171.582C296.046 171.041 296.462 170.625 296.984 170.336C297.516 170.047 298.114 169.902 298.776 169.902C299.439 169.902 300.032 170.047 300.554 170.336C301.086 170.625 301.502 171.041 301.8 171.582C302.108 172.114 302.262 172.749 302.262 173.486C302.262 174.233 302.108 174.877 301.8 175.418C301.492 175.959 301.072 176.375 300.54 176.664C300.008 176.953 299.411 177.098 298.748 177.098ZM298.734 176.104C299.145 176.104 299.532 176.015 299.896 175.838C300.26 175.651 300.554 175.367 300.778 174.984C301.012 174.592 301.128 174.097 301.128 173.5C301.128 172.893 301.016 172.399 300.792 172.016C300.568 171.633 300.274 171.353 299.91 171.176C299.556 170.989 299.173 170.896 298.762 170.896C298.352 170.896 297.969 170.989 297.614 171.176C297.26 171.353 296.97 171.638 296.746 172.03C296.532 172.413 296.424 172.903 296.424 173.5C296.424 174.107 296.532 174.601 296.746 174.984C296.961 175.367 297.241 175.651 297.586 175.838C297.941 176.015 298.324 176.104 298.734 176.104ZM304.43 170V168.04H305.48V170H307.342V170.98H305.48V174.746C305.48 175.175 305.569 175.488 305.746 175.684C305.933 175.88 306.166 175.997 306.446 176.034C306.736 176.071 307.034 176.071 307.342 176.034V176.944C306.978 177.028 306.619 177.051 306.264 177.014C305.919 176.977 305.606 176.874 305.326 176.706C305.056 176.529 304.836 176.281 304.668 175.964C304.51 175.647 304.43 175.241 304.43 174.746V170.98H303.38V170H304.43ZM314.06 177H312.94V167.2H314.172L317.812 175.46L321.438 167.2H322.656V177H321.536V169.412L318.204 177H317.406L314.06 169.412V177ZM327.952 177.098C327.289 177.098 326.696 176.953 326.174 176.664C325.651 176.375 325.24 175.964 324.942 175.432C324.643 174.891 324.494 174.251 324.494 173.514C324.494 172.767 324.643 172.123 324.942 171.582C325.25 171.041 325.665 170.625 326.188 170.336C326.72 170.047 327.317 169.902 327.98 169.902C328.642 169.902 329.235 170.047 329.758 170.336C330.29 170.625 330.705 171.041 331.004 171.582C331.312 172.114 331.466 172.749 331.466 173.486C331.466 174.233 331.312 174.877 331.004 175.418C330.696 175.959 330.276 176.375 329.744 176.664C329.212 176.953 328.614 177.098 327.952 177.098ZM327.938 176.104C328.348 176.104 328.736 176.015 329.1 175.838C329.464 175.651 329.758 175.367 329.982 174.984C330.215 174.592 330.332 174.097 330.332 173.5C330.332 172.893 330.22 172.399 329.996 172.016C329.772 171.633 329.478 171.353 329.114 171.176C328.759 170.989 328.376 170.896 327.966 170.896C327.555 170.896 327.172 170.989 326.818 171.176C326.463 171.353 326.174 171.638 325.95 172.03C325.735 172.413 325.628 172.903 325.628 173.5C325.628 174.107 325.735 174.601 325.95 174.984C326.164 175.367 326.444 175.651 326.79 175.838C327.144 176.015 327.527 176.104 327.938 176.104ZM333.185 170H334.151L334.207 170.994C334.431 170.649 334.725 170.383 335.089 170.196C335.453 170 335.878 169.902 336.363 169.902C336.895 169.902 337.362 170.019 337.763 170.252C338.165 170.476 338.477 170.817 338.701 171.274C338.925 171.722 339.037 172.287 339.037 172.968V177H337.987V173.094C337.987 172.366 337.829 171.815 337.511 171.442C337.203 171.059 336.755 170.868 336.167 170.868C335.561 170.868 335.085 171.069 334.739 171.47C334.403 171.871 334.235 172.464 334.235 173.248V177H333.185V170ZM341.522 170V168.04H342.572V170H344.434V170.98H342.572V174.746C342.572 175.175 342.661 175.488 342.838 175.684C343.025 175.88 343.258 175.997 343.538 176.034C343.827 176.071 344.126 176.071 344.434 176.034V176.944C344.07 177.028 343.711 177.051 343.356 177.014C343.011 176.977 342.698 176.874 342.418 176.706C342.147 176.529 341.928 176.281 341.76 175.964C341.601 175.647 341.522 175.241 341.522 174.746V170.98H340.472V170H341.522ZM345.996 166.92H347.046V170.952C347.27 170.616 347.573 170.359 347.956 170.182C348.339 169.995 348.768 169.902 349.244 169.902C349.757 169.902 350.215 170.019 350.616 170.252C351.017 170.485 351.33 170.831 351.554 171.288C351.787 171.745 351.904 172.315 351.904 172.996V177H350.784V173.122C350.784 172.394 350.63 171.839 350.322 171.456C350.014 171.064 349.566 170.868 348.978 170.868C348.371 170.868 347.895 171.073 347.55 171.484C347.214 171.895 347.046 172.492 347.046 173.276V177H345.996V166.92ZM354.513 174.858C354.569 175.138 354.672 175.371 354.821 175.558C354.971 175.735 355.162 175.871 355.395 175.964C355.638 176.057 355.918 176.104 356.235 176.104C356.73 176.104 357.103 176.011 357.355 175.824C357.617 175.628 357.747 175.385 357.747 175.096C357.747 174.853 357.668 174.657 357.509 174.508C357.36 174.359 357.159 174.237 356.907 174.144C356.655 174.041 356.375 173.953 356.067 173.878C355.825 173.822 355.563 173.757 355.283 173.682C355.003 173.598 354.737 173.486 354.485 173.346C354.233 173.206 354.028 173.024 353.869 172.8C353.711 172.576 353.631 172.282 353.631 171.918C353.631 171.517 353.739 171.167 353.953 170.868C354.177 170.56 354.481 170.322 354.863 170.154C355.255 169.986 355.703 169.902 356.207 169.902C356.786 169.902 357.299 170.028 357.747 170.28C358.205 170.532 358.522 170.924 358.699 171.456L357.719 171.792C357.654 171.549 357.533 171.363 357.355 171.232C357.187 171.101 356.996 171.013 356.781 170.966C356.576 170.919 356.371 170.896 356.165 170.896C355.745 170.896 355.405 170.98 355.143 171.148C354.891 171.307 354.765 171.549 354.765 171.876C354.765 172.053 354.807 172.203 354.891 172.324C354.975 172.436 355.092 172.529 355.241 172.604C355.391 172.679 355.568 172.744 355.773 172.8C355.979 172.847 356.203 172.903 356.445 172.968C356.716 173.033 356.991 173.117 357.271 173.22C357.551 173.313 357.813 173.439 358.055 173.598C358.298 173.747 358.494 173.943 358.643 174.186C358.802 174.419 358.881 174.713 358.881 175.068C358.881 175.479 358.769 175.838 358.545 176.146C358.321 176.445 358.009 176.678 357.607 176.846C357.215 177.014 356.758 177.098 356.235 177.098C355.517 177.098 354.919 176.939 354.443 176.622C353.977 176.295 353.664 175.819 353.505 175.194L354.513 174.858ZM361.158 177.07C360.943 177.07 360.761 176.995 360.612 176.846C360.472 176.697 360.402 176.515 360.402 176.3C360.402 176.085 360.472 175.903 360.612 175.754C360.761 175.605 360.943 175.53 361.158 175.53C361.363 175.53 361.541 175.605 361.69 175.754C361.839 175.903 361.914 176.085 361.914 176.3C361.914 176.515 361.839 176.697 361.69 176.846C361.541 176.995 361.363 177.07 361.158 177.07Z" fill="#4B5563"/>
</g>
<g filter="url(#filter8_dd_5453_69092)">
<g filter="url(#filter9_dd_5453_69092)">
<path d="M406.729 136.912C406.698 136.483 406.787 136.055 406.986 135.674C407.185 135.294 407.486 134.976 407.855 134.757C408.225 134.538 408.648 134.426 409.077 134.433C409.507 134.441 409.925 134.568 410.287 134.8L429.732 147.314C431.6 148.515 430.862 151.406 428.648 151.565L419.544 152.222C419.191 152.247 418.848 152.353 418.542 152.532C418.236 152.711 417.975 152.958 417.78 153.253L412.627 161.079C411.413 162.924 408.549 162.177 408.39 159.972L406.729 136.912Z" fill="#27272A"/>
<path d="M406.729 136.912C406.698 136.483 406.787 136.055 406.986 135.674C407.185 135.294 407.486 134.976 407.855 134.757C408.225 134.538 408.648 134.426 409.077 134.433C409.507 134.441 409.925 134.568 410.287 134.8L429.732 147.314C431.6 148.515 430.862 151.406 428.648 151.565L419.544 152.222C419.191 152.247 418.848 152.353 418.542 152.532C418.236 152.711 417.975 152.958 417.78 153.253L412.627 161.079C411.413 162.924 408.549 162.177 408.39 159.972L406.729 136.912Z" stroke="#FAFAFA"/>
</g>
</g>
<rect width="540" height="306" fill="url(#paint6_linear_5453_69092)"/>
</g>
<defs>
<filter id="filter0_dd_5453_69092" x="91" y="217" width="359" height="80" filterUnits="userSpaceOnUse" color-interpolation-filters="sRGB">
<feFlood flood-opacity="0" result="BackgroundImageFix"/>
<feColorMatrix in="SourceAlpha" type="matrix" values="0 0 0 0 0 0 0 0 0 0 0 0 0 0 0 0 0 0 127 0" result="hardAlpha"/>
<feMorphology radius="4" operator="erode" in="SourceAlpha" result="effect1_dropShadow_5453_69092"/>
<feOffset dy="18"/>
<feGaussianBlur stdDeviation="8"/>
<feComposite in2="hardAlpha" operator="out"/>
<feColorMatrix type="matrix" values="0 0 0 0 0.0588235 0 0 0 0 0.141176 0 0 0 0 0.0666667 0 0 0 0.01 0"/>
<feBlend mode="normal" in2="BackgroundImageFix" result="effect1_dropShadow_5453_69092"/>
<feColorMatrix in="SourceAlpha" type="matrix" values="0 0 0 0 0 0 0 0 0 0 0 0 0 0 0 0 0 0 127 0" result="hardAlpha"/>
<feMorphology radius="4" operator="erode" in="SourceAlpha" result="effect2_dropShadow_5453_69092"/>
<feOffset dy="15"/>
<feGaussianBlur stdDeviation="10"/>
<feComposite in2="hardAlpha" operator="out"/>
<feColorMatrix type="matrix" values="0 0 0 0 0.0627451 0 0 0 0 0.0588235 0 0 0 0 0.141176 0 0 0 0.02 0"/>
<feBlend mode="normal" in2="effect1_dropShadow_5453_69092" result="effect2_dropShadow_5453_69092"/>
<feBlend mode="normal" in="SourceGraphic" in2="effect2_dropShadow_5453_69092" result="shape"/>
</filter>
<filter id="filter1_dd_5453_69092" x="106" y="27" width="330" height="80" filterUnits="userSpaceOnUse" color-interpolation-filters="sRGB">
<feFlood flood-opacity="0" result="BackgroundImageFix"/>
<feColorMatrix in="SourceAlpha" type="matrix" values="0 0 0 0 0 0 0 0 0 0 0 0 0 0 0 0 0 0 127 0" result="hardAlpha"/>
<feMorphology radius="4" operator="erode" in="SourceAlpha" result="effect1_dropShadow_5453_69092"/>
<feOffset dy="18"/>
<feGaussianBlur stdDeviation="8"/>
<feComposite in2="hardAlpha" operator="out"/>
<feColorMatrix type="matrix" values="0 0 0 0 0.0588235 0 0 0 0 0.141176 0 0 0 0 0.0666667 0 0 0 0.01 0"/>
<feBlend mode="normal" in2="BackgroundImageFix" result="effect1_dropShadow_5453_69092"/>
<feColorMatrix in="SourceAlpha" type="matrix" values="0 0 0 0 0 0 0 0 0 0 0 0 0 0 0 0 0 0 127 0" result="hardAlpha"/>
<feMorphology radius="4" operator="erode" in="SourceAlpha" result="effect2_dropShadow_5453_69092"/>
<feOffset dy="15"/>
<feGaussianBlur stdDeviation="10"/>
<feComposite in2="hardAlpha" operator="out"/>
<feColorMatrix type="matrix" values="0 0 0 0 0.0627451 0 0 0 0 0.0588235 0 0 0 0 0.141176 0 0 0 0.02 0"/>
<feBlend mode="normal" in2="effect1_dropShadow_5453_69092" result="effect2_dropShadow_5453_69092"/>
<feBlend mode="normal" in="SourceGraphic" in2="effect2_dropShadow_5453_69092" result="shape"/>
</filter>
<filter id="filter2_dd_5453_69092" x="390" y="4" width="72.9902" height="72.9902" filterUnits="userSpaceOnUse" color-interpolation-filters="sRGB">
<feFlood flood-opacity="0" result="BackgroundImageFix"/>
<feColorMatrix in="SourceAlpha" type="matrix" values="0 0 0 0 0 0 0 0 0 0 0 0 0 0 0 0 0 0 127 0" result="hardAlpha"/>
<feMorphology radius="2" operator="erode" in="SourceAlpha" result="effect1_dropShadow_5453_69092"/>
<feOffset dy="4"/>
<feGaussianBlur stdDeviation="3"/>
<feComposite in2="hardAlpha" operator="out"/>
<feColorMatrix type="matrix" values="0 0 0 0 0.0627451 0 0 0 0 0.0588235 0 0 0 0 0.141176 0 0 0 0.03 0"/>
<feBlend mode="normal" in2="BackgroundImageFix" result="effect1_dropShadow_5453_69092"/>
<feColorMatrix in="SourceAlpha" type="matrix" values="0 0 0 0 0 0 0 0 0 0 0 0 0 0 0 0 0 0 127 0" result="hardAlpha"/>
<feMorphology radius="4" operator="erode" in="SourceAlpha" result="effect2_dropShadow_5453_69092"/>
<feOffset dy="12"/>
<feGaussianBlur stdDeviation="8"/>
<feComposite in2="hardAlpha" operator="out"/>
<feColorMatrix type="matrix" values="0 0 0 0 0.0627451 0 0 0 0 0.0588235 0 0 0 0 0.141176 0 0 0 0.08 0"/>
<feBlend mode="normal" in2="effect1_dropShadow_5453_69092" result="effect2_dropShadow_5453_69092"/>
<feBlend mode="normal" in="SourceGraphic" in2="effect2_dropShadow_5453_69092" result="shape"/>
</filter>
<filter id="filter3_dd_5453_69092" x="74" y="242" width="63.1914" height="63.1914" filterUnits="userSpaceOnUse" color-interpolation-filters="sRGB">
<feFlood flood-opacity="0" result="BackgroundImageFix"/>
<feColorMatrix in="SourceAlpha" type="matrix" values="0 0 0 0 0 0 0 0 0 0 0 0 0 0 0 0 0 0 127 0" result="hardAlpha"/>
<feMorphology radius="2" operator="erode" in="SourceAlpha" result="effect1_dropShadow_5453_69092"/>
<feOffset dy="4"/>
<feGaussianBlur stdDeviation="3"/>
<feComposite in2="hardAlpha" operator="out"/>
<feColorMatrix type="matrix" values="0 0 0 0 0.0627451 0 0 0 0 0.0588235 0 0 0 0 0.141176 0 0 0 0.03 0"/>
<feBlend mode="normal" in2="BackgroundImageFix" result="effect1_dropShadow_5453_69092"/>
<feColorMatrix in="SourceAlpha" type="matrix" values="0 0 0 0 0 0 0 0 0 0 0 0 0 0 0 0 0 0 127 0" result="hardAlpha"/>
<feMorphology radius="4" operator="erode" in="SourceAlpha" result="effect2_dropShadow_5453_69092"/>
<feOffset dy="12"/>
<feGaussianBlur stdDeviation="8"/>
<feComposite in2="hardAlpha" operator="out"/>
<feColorMatrix type="matrix" values="0 0 0 0 0.0627451 0 0 0 0 0.0588235 0 0 0 0 0.141176 0 0 0 0.08 0"/>
<feBlend mode="normal" in2="effect1_dropShadow_5453_69092" result="effect2_dropShadow_5453_69092"/>
<feBlend mode="normal" in="SourceGraphic" in2="effect2_dropShadow_5453_69092" result="shape"/>
</filter>
<filter id="filter4_f_5453_69092" x="258.633" y="34.6406" width="647.666" height="621.398" filterUnits="userSpaceOnUse" color-interpolation-filters="sRGB">
<feFlood flood-opacity="0" result="BackgroundImageFix"/>
<feBlend mode="normal" in="SourceGraphic" in2="BackgroundImageFix" result="shape"/>
<feGaussianBlur stdDeviation="100" result="effect1_foregroundBlur_5453_69092"/>
</filter>
<filter id="filter5_f_5453_69092" x="-304.365" y="-74.1367" width="542.801" height="542.166" filterUnits="userSpaceOnUse" color-interpolation-filters="sRGB">
<feFlood flood-opacity="0" result="BackgroundImageFix"/>
<feBlend mode="normal" in="SourceGraphic" in2="BackgroundImageFix" result="shape"/>
<feGaussianBlur stdDeviation="85" result="effect1_foregroundBlur_5453_69092"/>
</filter>
<filter id="filter6_dd_5453_69092" x="42" y="74" width="456" height="166" filterUnits="userSpaceOnUse" color-interpolation-filters="sRGB">
<feFlood flood-opacity="0" result="BackgroundImageFix"/>
<feColorMatrix in="SourceAlpha" type="matrix" values="0 0 0 0 0 0 0 0 0 0 0 0 0 0 0 0 0 0 127 0" result="hardAlpha"/>
<feMorphology radius="4" operator="erode" in="SourceAlpha" result="effect1_dropShadow_5453_69092"/>
<feOffset dy="4"/>
<feGaussianBlur stdDeviation="8"/>
<feComposite in2="hardAlpha" operator="out"/>
<feColorMatrix type="matrix" values="0 0 0 0 0.0588235 0 0 0 0 0.141176 0 0 0 0 0.0666667 0 0 0 0.02 0"/>
<feBlend mode="normal" in2="BackgroundImageFix" result="effect1_dropShadow_5453_69092"/>
<feColorMatrix in="SourceAlpha" type="matrix" values="0 0 0 0 0 0 0 0 0 0 0 0 0 0 0 0 0 0 127 0" result="hardAlpha"/>
<feMorphology radius="4" operator="erode" in="SourceAlpha" result="effect2_dropShadow_5453_69092"/>
<feOffset dy="10"/>
<feGaussianBlur stdDeviation="16"/>
<feComposite in2="hardAlpha" operator="out"/>
<feColorMatrix type="matrix" values="0 0 0 0 0.0627451 0 0 0 0 0.0588235 0 0 0 0 0.141176 0 0 0 0.05 0"/>
<feBlend mode="normal" in2="effect1_dropShadow_5453_69092" result="effect2_dropShadow_5453_69092"/>
<feBlend mode="normal" in="SourceGraphic" in2="effect2_dropShadow_5453_69092" result="shape"/>
</filter>
<filter id="filter7_i_5453_69092" x="94" y="112" width="352" height="44" filterUnits="userSpaceOnUse" color-interpolation-filters="sRGB">
<feFlood flood-opacity="0" result="BackgroundImageFix"/>
<feBlend mode="normal" in="SourceGraphic" in2="BackgroundImageFix" result="shape"/>
<feColorMatrix in="SourceAlpha" type="matrix" values="0 0 0 0 0 0 0 0 0 0 0 0 0 0 0 0 0 0 127 0" result="hardAlpha"/>
<feOffset dy="4"/>
<feGaussianBlur stdDeviation="6"/>
<feComposite in2="hardAlpha" operator="arithmetic" k2="-1" k3="1"/>
<feColorMatrix type="matrix" values="0 0 0 0 0.626803 0 0 0 0 0.756315 0 0 0 0 0.998197 0 0 0 0.5 0"/>
<feBlend mode="normal" in2="shape" result="effect1_innerShadow_5453_69092"/>
</filter>
<filter id="filter8_dd_5453_69092" x="391" y="126" width="51.5664" height="51.5664" filterUnits="userSpaceOnUse" color-interpolation-filters="sRGB">
<feFlood flood-opacity="0" result="BackgroundImageFix"/>
<feColorMatrix in="SourceAlpha" type="matrix" values="0 0 0 0 0 0 0 0 0 0 0 0 0 0 0 0 0 0 127 0" result="hardAlpha"/>
<feMorphology radius="2" operator="erode" in="SourceAlpha" result="effect1_dropShadow_5453_69092"/>
<feOffset dy="2"/>
<feGaussianBlur stdDeviation="2"/>
<feComposite in2="hardAlpha" operator="out"/>
<feColorMatrix type="matrix" values="0 0 0 0 0.0627451 0 0 0 0 0.0588235 0 0 0 0 0.141176 0 0 0 0.06 0"/>
<feBlend mode="normal" in2="BackgroundImageFix" result="effect1_dropShadow_5453_69092"/>
<feColorMatrix in="SourceAlpha" type="matrix" values="0 0 0 0 0 0 0 0 0 0 0 0 0 0 0 0 0 0 127 0" result="hardAlpha"/>
<feMorphology radius="2" operator="erode" in="SourceAlpha" result="effect2_dropShadow_5453_69092"/>
<feOffset dy="4"/>
<feGaussianBlur stdDeviation="4"/>
<feComposite in2="hardAlpha" operator="out"/>
<feColorMatrix type="matrix" values="0 0 0 0 0.0627451 0 0 0 0 0.0588235 0 0 0 0 0.141176 0 0 0 0.1 0"/>
<feBlend mode="normal" in2="effect1_dropShadow_5453_69092" result="effect2_dropShadow_5453_69092"/>
<feBlend mode="normal" in="SourceGraphic" in2="effect2_dropShadow_5453_69092" result="shape"/>
</filter>
<filter id="filter9_dd_5453_69092" x="378.223" y="115.934" width="81.0742" height="84.6895" filterUnits="userSpaceOnUse" color-interpolation-filters="sRGB">
<feFlood flood-opacity="0" result="BackgroundImageFix"/>
<feColorMatrix in="SourceAlpha" type="matrix" values="0 0 0 0 0 0 0 0 0 0 0 0 0 0 0 0 0 0 127 0" result="hardAlpha"/>
<feMorphology radius="4" operator="erode" in="SourceAlpha" result="effect1_dropShadow_5453_69092"/>
<feOffset dy="4"/>
<feGaussianBlur stdDeviation="8"/>
<feComposite in2="hardAlpha" operator="out"/>
<feColorMatrix type="matrix" values="0 0 0 0 0.0588235 0 0 0 0 0.141176 0 0 0 0 0.0666667 0 0 0 0.02 0"/>
<feBlend mode="normal" in2="BackgroundImageFix" result="effect1_dropShadow_5453_69092"/>
<feColorMatrix in="SourceAlpha" type="matrix" values="0 0 0 0 0 0 0 0 0 0 0 0 0 0 0 0 0 0 127 0" result="hardAlpha"/>
<feMorphology radius="4" operator="erode" in="SourceAlpha" result="effect2_dropShadow_5453_69092"/>
<feOffset dy="10"/>
<feGaussianBlur stdDeviation="16"/>
<feComposite in2="hardAlpha" operator="out"/>
<feColorMatrix type="matrix" values="0 0 0 0 0.0627451 0 0 0 0 0.0588235 0 0 0 0 0.141176 0 0 0 0.05 0"/>
<feBlend mode="normal" in2="effect1_dropShadow_5453_69092" result="effect2_dropShadow_5453_69092"/>
<feBlend mode="normal" in="SourceGraphic" in2="effect2_dropShadow_5453_69092" result="shape"/>
</filter>
<linearGradient id="paint0_linear_5453_69092" x1="390.693" y1="83" x2="273" y2="83" gradientUnits="userSpaceOnUse">
<stop stop-color="#FAFAFA"/>
<stop offset="0.534678" stop-color="#266AE9"/>
<stop offset="1" stop-color="#FAFAFA"/>
</linearGradient>
<linearGradient id="paint1_linear_5453_69092" x1="450" y1="276.693" x2="450" y2="159" gradientUnits="userSpaceOnUse">
<stop stop-color="#FAFAFA"/>
<stop offset="0.534678" stop-color="#266AE9"/>
<stop offset="1" stop-color="#FAFAFA"/>
</linearGradient>
<linearGradient id="paint2_linear_5453_69092" x1="250" y1="315.693" x2="250" y2="198" gradientUnits="userSpaceOnUse">
<stop stop-color="#FAFAFA"/>
<stop offset="0.534678" stop-color="#266AE9"/>
<stop offset="1" stop-color="#FAFAFA"/>
</linearGradient>
<linearGradient id="paint3_linear_5453_69092" x1="121.954" y1="158" x2="16" y2="158" gradientUnits="userSpaceOnUse">
<stop stop-color="#FAFAFA"/>
<stop offset="0.534678" stop-color="#266AE9"/>
<stop offset="1" stop-color="#FAFAFA"/>
</linearGradient>
<linearGradient id="paint4_linear_5453_69092" x1="350.481" y1="479.172" x2="291.068" y2="354.352" gradientUnits="userSpaceOnUse">
<stop stop-color="#5C85D5"/>
<stop offset="1" stop-color="#C3A7F3"/>
</linearGradient>
<linearGradient id="paint5_linear_5453_69092" x1="159.948" y1="53.0182" x2="219.15" y2="150.007" gradientUnits="userSpaceOnUse">
<stop stop-color="#5C85D5"/>
<stop offset="1" stop-color="#C3A7F3"/>
</linearGradient>
<linearGradient id="paint6_linear_5453_69092" x1="270" y1="6.53049" x2="270" y2="317.156" gradientUnits="userSpaceOnUse">
<stop stop-color="#FAFAFA"/>
<stop offset="0.197621" stop-color="#FAFAFA" stop-opacity="0"/>
<stop offset="0.644231" stop-color="#FAFAFA" stop-opacity="0"/>
<stop offset="0.867519" stop-color="#FAFAFA"/>
</linearGradient>
<clipPath id="clip0_5453_69092">
<rect width="540" height="306" fill="white"/>
</clipPath>
<clipPath id="clip1_5453_69092">
<rect width="24" height="24" fill="white" transform="translate(418.01 13.7988) rotate(15)"/>
</clipPath>
<clipPath id="clip2_5453_69092">
<rect width="18" height="18" fill="white" transform="translate(94.5723 255.23) rotate(-15)"/>
</clipPath>
</defs>
</svg>
