<svg width="704" height="290" viewBox="0 0 704 290" fill="none" xmlns="http://www.w3.org/2000/svg">
<g clip-path="url(#clip0_5522_71939)">
<path d="M355 83L746 83" stroke="url(#paint0_linear_5522_71939)" stroke-opacity="0.4" stroke-linecap="round"/>
<path d="M532 159L532 550" stroke="url(#paint1_linear_5522_71939)" stroke-opacity="0.4" stroke-linecap="round"/>
<path d="M332 198L332 589" stroke="url(#paint2_linear_5522_71939)" stroke-opacity="0.4" stroke-linecap="round"/>
<path d="M98 150L450 150" stroke="url(#paint3_linear_5522_71939)" stroke-opacity="0.4" stroke-linecap="round"/>
<g filter="url(#filter0_dd_5522_71939)">
<rect x="189" y="210" width="327" height="48" rx="16" fill="white"/>
<rect x="189.5" y="210.5" width="326" height="47" rx="15.5" stroke="#F3F4F7"/>
<path d="M223.64 240H222.36V228.8H223.768L227.928 238.24L232.072 228.8H233.464V240H232.184V231.328L228.376 240H227.464L223.64 231.328V240ZM241.068 240L240.972 238.56C240.748 239.051 240.417 239.435 239.98 239.712C239.543 239.979 238.988 240.112 238.316 240.112C237.74 240.112 237.249 240.021 236.844 239.84C236.439 239.659 236.124 239.403 235.9 239.072C235.687 238.731 235.58 238.331 235.58 237.872C235.58 237.2 235.831 236.651 236.332 236.224C236.833 235.787 237.559 235.52 238.508 235.424L240.972 235.152V234.512C240.972 234.064 240.807 233.707 240.476 233.44C240.145 233.163 239.697 233.024 239.132 233.024C238.577 233.024 238.113 233.152 237.74 233.408C237.377 233.664 237.127 234.032 236.988 234.512L235.9 234.128C236.113 233.424 236.503 232.875 237.068 232.48C237.644 232.085 238.343 231.888 239.164 231.888C240.113 231.888 240.849 232.133 241.372 232.624C241.905 233.104 242.172 233.76 242.172 234.592V240H241.068ZM240.972 236.176L238.492 236.464C237.959 236.528 237.553 236.677 237.276 236.912C236.999 237.136 236.86 237.435 236.86 237.808C236.86 238.181 236.993 238.48 237.26 238.704C237.537 238.928 237.932 239.04 238.444 239.04C239.031 239.04 239.511 238.923 239.884 238.688C240.257 238.453 240.529 238.139 240.7 237.744C240.881 237.339 240.972 236.901 240.972 236.432V236.176ZM244.513 232H245.617L245.681 233.136C245.937 232.741 246.273 232.437 246.689 232.224C247.105 232 247.591 231.888 248.145 231.888C248.753 231.888 249.287 232.021 249.745 232.288C250.204 232.544 250.561 232.933 250.817 233.456C251.073 233.968 251.201 234.613 251.201 235.392V240H250.001V235.536C250.001 234.704 249.82 234.075 249.457 233.648C249.105 233.211 248.593 232.992 247.921 232.992C247.228 232.992 246.684 233.221 246.289 233.68C245.905 234.139 245.713 234.816 245.713 235.712V240H244.513V232ZM260.073 240H258.985L258.905 238.848C258.66 239.253 258.329 239.568 257.913 239.792C257.497 240.005 257.012 240.112 256.457 240.112C255.838 240.112 255.3 239.984 254.841 239.728C254.382 239.472 254.025 239.088 253.769 238.576C253.524 238.064 253.401 237.419 253.401 236.64V232H254.585V236.512C254.585 237.333 254.761 237.957 255.113 238.384C255.476 238.8 255.993 239.008 256.665 239.008C257.348 239.008 257.886 238.789 258.281 238.352C258.686 237.904 258.889 237.232 258.889 236.336V232H260.073V240ZM267.521 240L267.425 238.56C267.201 239.051 266.871 239.435 266.433 239.712C265.996 239.979 265.441 240.112 264.769 240.112C264.193 240.112 263.703 240.021 263.297 239.84C262.892 239.659 262.577 239.403 262.353 239.072C262.14 238.731 262.033 238.331 262.033 237.872C262.033 237.2 262.284 236.651 262.785 236.224C263.287 235.787 264.012 235.52 264.961 235.424L267.425 235.152V234.512C267.425 234.064 267.26 233.707 266.929 233.44C266.599 233.163 266.151 233.024 265.585 233.024C265.031 233.024 264.567 233.152 264.193 233.408C263.831 233.664 263.58 234.032 263.441 234.512L262.353 234.128C262.567 233.424 262.956 232.875 263.521 232.48C264.097 232.085 264.796 231.888 265.617 231.888C266.567 231.888 267.303 232.133 267.825 232.624C268.359 233.104 268.625 233.76 268.625 234.592V240H267.521ZM267.425 236.176L264.945 236.464C264.412 236.528 264.007 236.677 263.729 236.912C263.452 237.136 263.313 237.435 263.313 237.808C263.313 238.181 263.447 238.48 263.713 238.704C263.991 238.928 264.385 239.04 264.897 239.04C265.484 239.04 265.964 238.923 266.337 238.688C266.711 238.453 266.983 238.139 267.153 237.744C267.335 237.339 267.425 236.901 267.425 236.432V236.176ZM270.966 228.48H272.166V240H270.966V228.48ZM279.091 232H280.195L280.275 233.152C280.51 232.768 280.825 232.464 281.219 232.24C281.625 232.005 282.105 231.888 282.659 231.888C283.225 231.888 283.737 232.027 284.195 232.304C284.665 232.571 285.027 232.971 285.283 233.504C285.529 232.96 285.902 232.555 286.403 232.288C286.905 232.021 287.459 231.888 288.067 231.888C288.665 231.888 289.193 232.021 289.651 232.288C290.11 232.544 290.467 232.933 290.723 233.456C290.979 233.968 291.107 234.613 291.107 235.392V240H289.907V235.536C289.907 234.704 289.726 234.075 289.363 233.648C289.011 233.211 288.505 232.992 287.843 232.992C287.171 232.992 286.638 233.227 286.243 233.696C285.849 234.155 285.651 234.837 285.651 235.744V240H284.451V235.536C284.451 234.704 284.281 234.075 283.939 233.648C283.598 233.211 283.097 232.992 282.435 232.992C281.763 232.992 281.235 233.227 280.851 233.696C280.478 234.155 280.291 234.837 280.291 235.744V240H279.091V232ZM296.891 240.112C296.134 240.112 295.456 239.947 294.859 239.616C294.262 239.285 293.792 238.816 293.451 238.208C293.11 237.589 292.939 236.859 292.939 236.016C292.939 235.163 293.11 234.427 293.451 233.808C293.803 233.189 294.278 232.715 294.875 232.384C295.483 232.053 296.166 231.888 296.923 231.888C297.68 231.888 298.358 232.053 298.955 232.384C299.563 232.715 300.038 233.189 300.379 233.808C300.731 234.416 300.907 235.141 300.907 235.984C300.907 236.837 300.731 237.573 300.379 238.192C300.027 238.811 299.547 239.285 298.939 239.616C298.331 239.947 297.648 240.112 296.891 240.112ZM296.875 238.976C297.344 238.976 297.787 238.875 298.203 238.672C298.619 238.459 298.955 238.133 299.211 237.696C299.478 237.248 299.611 236.683 299.611 236C299.611 235.307 299.483 234.741 299.227 234.304C298.971 233.867 298.635 233.547 298.219 233.344C297.814 233.131 297.376 233.024 296.907 233.024C296.438 233.024 296 233.131 295.595 233.344C295.19 233.547 294.859 233.872 294.603 234.32C294.358 234.757 294.235 235.317 294.235 236C294.235 236.693 294.358 237.259 294.603 237.696C294.848 238.133 295.168 238.459 295.563 238.672C295.968 238.875 296.406 238.976 296.875 238.976ZM309.049 233.616L308.921 233.632V228.48H310.121V240H309.017L308.937 238.512C308.691 238.96 308.323 239.339 307.833 239.648C307.353 239.957 306.755 240.112 306.041 240.112C305.305 240.112 304.659 239.947 304.105 239.616C303.561 239.275 303.134 238.795 302.825 238.176C302.526 237.557 302.377 236.832 302.377 236C302.377 235.168 302.526 234.448 302.825 233.84C303.134 233.221 303.561 232.741 304.105 232.4C304.659 232.059 305.305 231.888 306.041 231.888C306.798 231.888 307.427 232.053 307.929 232.384C308.43 232.715 308.803 233.125 309.049 233.616ZM303.673 236C303.673 236.917 303.907 237.648 304.377 238.192C304.846 238.725 305.486 238.992 306.297 238.992C306.798 238.992 307.246 238.875 307.641 238.64C308.035 238.405 308.345 238.064 308.569 237.616C308.803 237.168 308.921 236.629 308.921 236C308.921 235.371 308.803 234.837 308.569 234.4C308.345 233.952 308.035 233.611 307.641 233.376C307.246 233.131 306.798 233.008 306.297 233.008C305.497 233.008 304.857 233.28 304.377 233.824C303.907 234.357 303.673 235.083 303.673 236ZM315.936 240.112C315.189 240.112 314.522 239.931 313.936 239.568C313.36 239.205 312.906 238.709 312.576 238.08C312.245 237.451 312.08 236.731 312.08 235.92C312.08 235.141 312.245 234.448 312.576 233.84C312.906 233.232 313.36 232.757 313.936 232.416C314.512 232.064 315.168 231.888 315.904 231.888C316.629 231.888 317.274 232.048 317.84 232.368C318.416 232.688 318.864 233.131 319.184 233.696C319.504 234.261 319.653 234.907 319.632 235.632C319.632 235.749 319.626 235.872 319.616 236C319.605 236.128 319.594 236.267 319.584 236.416H313.392C313.413 236.917 313.536 237.36 313.76 237.744C313.984 238.128 314.277 238.432 314.64 238.656C315.013 238.869 315.434 238.976 315.904 238.976C316.522 238.976 317.045 238.859 317.472 238.624C317.909 238.389 318.224 238.053 318.416 237.616L319.456 238.032C319.136 238.704 318.672 239.221 318.064 239.584C317.456 239.936 316.746 240.112 315.936 240.112ZM318.32 235.376C318.33 234.917 318.229 234.512 318.016 234.16C317.813 233.808 317.525 233.531 317.152 233.328C316.778 233.125 316.346 233.024 315.856 233.024C315.429 233.024 315.04 233.125 314.688 233.328C314.336 233.531 314.042 233.813 313.808 234.176C313.584 234.528 313.45 234.928 313.408 235.376H318.32ZM321.607 228.48H322.807V240H321.607V228.48ZM325.488 232H326.672V240H325.488V232ZM326.096 230.4C325.85 230.4 325.648 230.32 325.488 230.16C325.328 230 325.248 229.803 325.248 229.568C325.248 229.323 325.328 229.12 325.488 228.96C325.648 228.8 325.85 228.72 326.096 228.72C326.32 228.72 326.512 228.8 326.672 228.96C326.842 229.12 326.928 229.323 326.928 229.568C326.928 229.803 326.842 230 326.672 230.16C326.512 230.32 326.32 230.4 326.096 230.4ZM329.373 232H330.477L330.541 233.136C330.797 232.741 331.133 232.437 331.549 232.224C331.965 232 332.45 231.888 333.005 231.888C333.613 231.888 334.146 232.021 334.605 232.288C335.063 232.544 335.421 232.933 335.677 233.456C335.933 233.968 336.061 234.613 336.061 235.392V240H334.861V235.536C334.861 234.704 334.679 234.075 334.317 233.648C333.965 233.211 333.453 232.992 332.781 232.992C332.087 232.992 331.543 233.221 331.149 233.68C330.765 234.139 330.573 234.816 330.573 235.712V240H329.373V232ZM344.532 232H345.636V238.528C345.636 239.509 345.418 240.347 344.98 241.04C344.543 241.744 343.908 242.277 343.076 242.64C342.244 243.013 341.231 243.2 340.036 243.2L339.844 242.096C341.348 242.075 342.49 241.76 343.268 241.152C344.047 240.555 344.436 239.68 344.436 238.528V238.352L344.564 238.384C344.319 238.853 343.951 239.259 343.46 239.6C342.97 239.931 342.335 240.101 341.556 240.112C340.82 240.112 340.175 239.947 339.62 239.616C339.076 239.275 338.65 238.795 338.34 238.176C338.042 237.557 337.892 236.832 337.892 236C337.892 235.168 338.042 234.448 338.34 233.84C338.65 233.221 339.076 232.741 339.62 232.4C340.175 232.059 340.82 231.888 341.556 231.888C342.036 231.888 342.463 231.963 342.836 232.112C343.21 232.251 343.53 232.443 343.796 232.688C344.063 232.923 344.282 233.189 344.452 233.488L344.532 232ZM339.188 236C339.188 236.917 339.423 237.648 339.892 238.192C340.372 238.725 341.018 238.992 341.828 238.992C342.319 238.992 342.762 238.875 343.156 238.64C343.551 238.405 343.86 238.064 344.084 237.616C344.319 237.168 344.436 236.629 344.436 236C344.436 235.371 344.319 234.837 344.084 234.4C343.86 233.952 343.551 233.611 343.156 233.376C342.762 233.131 342.319 233.008 341.828 233.008C341.028 233.008 340.388 233.28 339.908 233.824C339.428 234.368 339.188 235.093 339.188 236ZM352.816 232H354V240H352.816V232ZM353.424 230.4C353.178 230.4 352.976 230.32 352.816 230.16C352.656 230 352.576 229.803 352.576 229.568C352.576 229.323 352.656 229.12 352.816 228.96C352.976 228.8 353.178 228.72 353.424 228.72C353.648 228.72 353.84 228.8 354 228.96C354.17 229.12 354.256 229.323 354.256 229.568C354.256 229.803 354.17 230 354 230.16C353.84 230.32 353.648 230.4 353.424 230.4ZM356.701 232H357.805L357.869 233.136C358.125 232.741 358.461 232.437 358.877 232.224C359.293 232 359.778 231.888 360.333 231.888C360.941 231.888 361.474 232.021 361.933 232.288C362.391 232.544 362.749 232.933 363.005 233.456C363.261 233.968 363.389 234.613 363.389 235.392V240H362.189V235.536C362.189 234.704 362.007 234.075 361.645 233.648C361.293 233.211 360.781 232.992 360.109 232.992C359.415 232.992 358.871 233.221 358.477 233.68C358.093 234.139 357.901 234.816 357.901 235.712V240H356.701V232ZM377.673 229.92H371.609V233.744H376.169V234.864H371.609V238.88H377.673V240H370.329V228.8H377.673V229.92ZM379.215 232H380.591L382.639 235.056L384.687 232H386.079L383.311 235.984L386.079 240H384.687L382.639 236.912L380.591 240H379.215L381.983 235.984L379.215 232ZM391.218 240.112C390.439 240.112 389.757 239.941 389.17 239.6C388.583 239.259 388.125 238.784 387.794 238.176C387.474 237.557 387.314 236.843 387.314 236.032C387.314 235.211 387.474 234.491 387.794 233.872C388.125 233.243 388.583 232.757 389.17 232.416C389.757 232.064 390.439 231.888 391.218 231.888C392.039 231.888 392.759 232.08 393.378 232.464C393.997 232.837 394.445 233.36 394.722 234.032L393.618 234.416C393.458 233.989 393.165 233.653 392.738 233.408C392.322 233.152 391.837 233.024 391.282 233.024C390.738 233.024 390.263 233.147 389.858 233.392C389.463 233.637 389.154 233.984 388.93 234.432C388.717 234.88 388.61 235.408 388.61 236.016C388.61 236.912 388.85 237.632 389.33 238.176C389.81 238.709 390.45 238.976 391.25 238.976C391.794 238.976 392.279 238.853 392.706 238.608C393.133 238.363 393.447 238.032 393.65 237.616L394.738 238C394.45 238.661 393.997 239.179 393.378 239.552C392.759 239.925 392.039 240.112 391.218 240.112ZM400.061 240.112C399.314 240.112 398.647 239.931 398.061 239.568C397.485 239.205 397.031 238.709 396.701 238.08C396.37 237.451 396.205 236.731 396.205 235.92C396.205 235.141 396.37 234.448 396.701 233.84C397.031 233.232 397.485 232.757 398.061 232.416C398.637 232.064 399.293 231.888 400.029 231.888C400.754 231.888 401.399 232.048 401.965 232.368C402.541 232.688 402.989 233.131 403.309 233.696C403.629 234.261 403.778 234.907 403.757 235.632C403.757 235.749 403.751 235.872 403.741 236C403.73 236.128 403.719 236.267 403.709 236.416H397.517C397.538 236.917 397.661 237.36 397.885 237.744C398.109 238.128 398.402 238.432 398.765 238.656C399.138 238.869 399.559 238.976 400.029 238.976C400.647 238.976 401.17 238.859 401.597 238.624C402.034 238.389 402.349 238.053 402.541 237.616L403.581 238.032C403.261 238.704 402.797 239.221 402.189 239.584C401.581 239.936 400.871 240.112 400.061 240.112ZM402.445 235.376C402.455 234.917 402.354 234.512 402.141 234.16C401.938 233.808 401.65 233.531 401.277 233.328C400.903 233.125 400.471 233.024 399.981 233.024C399.554 233.024 399.165 233.125 398.813 233.328C398.461 233.531 398.167 233.813 397.933 234.176C397.709 234.528 397.575 234.928 397.533 235.376H402.445ZM405.732 228.48H406.932V240H405.732V228.48ZM414.289 231.056C414.289 230.469 414.385 229.973 414.577 229.568C414.769 229.163 415.073 228.869 415.489 228.688C415.916 228.496 416.481 228.427 417.185 228.48V229.552C416.545 229.499 416.102 229.605 415.857 229.872C415.612 230.128 415.489 230.523 415.489 231.056V232H417.249V233.12H415.489V240H414.289V233.12H413.169V232H414.289V231.056ZM422.501 240.112C421.743 240.112 421.066 239.947 420.469 239.616C419.871 239.285 419.402 238.816 419.061 238.208C418.719 237.589 418.549 236.859 418.549 236.016C418.549 235.163 418.719 234.427 419.061 233.808C419.413 233.189 419.887 232.715 420.485 232.384C421.093 232.053 421.775 231.888 422.533 231.888C423.29 231.888 423.967 232.053 424.565 232.384C425.173 232.715 425.647 233.189 425.989 233.808C426.341 234.416 426.517 235.141 426.517 235.984C426.517 236.837 426.341 237.573 425.989 238.192C425.637 238.811 425.157 239.285 424.549 239.616C423.941 239.947 423.258 240.112 422.501 240.112ZM422.485 238.976C422.954 238.976 423.397 238.875 423.813 238.672C424.229 238.459 424.565 238.133 424.821 237.696C425.087 237.248 425.221 236.683 425.221 236C425.221 235.307 425.093 234.741 424.837 234.304C424.581 233.867 424.245 233.547 423.829 233.344C423.423 233.131 422.986 233.024 422.516 233.024C422.047 233.024 421.61 233.131 421.205 233.344C420.799 233.547 420.469 233.872 420.213 234.32C419.967 234.757 419.845 235.317 419.845 236C419.845 236.693 419.967 237.259 420.213 237.696C420.458 238.133 420.778 238.459 421.173 238.672C421.578 238.875 422.015 238.976 422.485 238.976ZM428.482 232H429.586L429.65 233.168C429.863 232.88 430.119 232.635 430.418 232.432C430.727 232.229 431.063 232.091 431.426 232.016C431.799 231.931 432.194 231.925 432.61 232V233.2C432.162 233.115 431.757 233.115 431.394 233.2C431.042 233.285 430.738 233.445 430.482 233.68C430.226 233.915 430.029 234.213 429.89 234.576C429.751 234.928 429.682 235.339 429.682 235.808V240H428.482V232ZM441.516 240H440.428L437.916 232H439.132L440.972 238.512L443.036 232H444.124L446.156 238.496L447.98 232H449.164L446.668 240H445.564L443.548 233.792L441.516 240ZM454.155 240.112C453.408 240.112 452.741 239.931 452.155 239.568C451.579 239.205 451.125 238.709 450.795 238.08C450.464 237.451 450.299 236.731 450.299 235.92C450.299 235.141 450.464 234.448 450.795 233.84C451.125 233.232 451.579 232.757 452.155 232.416C452.731 232.064 453.387 231.888 454.123 231.888C454.848 231.888 455.493 232.048 456.059 232.368C456.635 232.688 457.083 233.131 457.403 233.696C457.723 234.261 457.872 234.907 457.851 235.632C457.851 235.749 457.845 235.872 457.835 236C457.824 236.128 457.813 236.267 457.803 236.416H451.611C451.632 236.917 451.755 237.36 451.979 237.744C452.203 238.128 452.496 238.432 452.859 238.656C453.232 238.869 453.653 238.976 454.123 238.976C454.741 238.976 455.264 238.859 455.691 238.624C456.128 238.389 456.443 238.053 456.635 237.616L457.675 238.032C457.355 238.704 456.891 239.221 456.283 239.584C455.675 239.936 454.965 240.112 454.155 240.112ZM456.539 235.376C456.549 234.917 456.448 234.512 456.235 234.16C456.032 233.808 455.744 233.531 455.371 233.328C454.997 233.125 454.565 233.024 454.075 233.024C453.648 233.024 453.259 233.125 452.907 233.328C452.555 233.531 452.261 233.813 452.027 234.176C451.803 234.528 451.669 234.928 451.627 235.376H456.539ZM463.186 240.112C462.439 240.112 461.772 239.931 461.186 239.568C460.61 239.205 460.156 238.709 459.826 238.08C459.495 237.451 459.33 236.731 459.33 235.92C459.33 235.141 459.495 234.448 459.826 233.84C460.156 233.232 460.61 232.757 461.186 232.416C461.762 232.064 462.418 231.888 463.154 231.888C463.879 231.888 464.524 232.048 465.09 232.368C465.666 232.688 466.114 233.131 466.434 233.696C466.754 234.261 466.903 234.907 466.882 235.632C466.882 235.749 466.876 235.872 466.866 236C466.855 236.128 466.844 236.267 466.834 236.416H460.642C460.663 236.917 460.786 237.36 461.01 237.744C461.234 238.128 461.527 238.432 461.89 238.656C462.263 238.869 462.684 238.976 463.154 238.976C463.772 238.976 464.295 238.859 464.722 238.624C465.159 238.389 465.474 238.053 465.666 237.616L466.706 238.032C466.386 238.704 465.922 239.221 465.314 239.584C464.706 239.936 463.996 240.112 463.186 240.112ZM465.57 235.376C465.58 234.917 465.479 234.512 465.266 234.16C465.063 233.808 464.775 233.531 464.402 233.328C464.028 233.125 463.596 233.024 463.106 233.024C462.679 233.024 462.29 233.125 461.938 233.328C461.586 233.531 461.292 233.813 461.058 234.176C460.834 234.528 460.7 234.928 460.658 235.376H465.57ZM468.857 228.48H470.073V235.472H470.809L473.961 232H475.657L471.881 236L475.673 240H473.961L470.809 236.512H470.073V240H468.857V228.48ZM477.794 237.552C477.858 237.872 477.976 238.139 478.146 238.352C478.317 238.555 478.536 238.709 478.802 238.816C479.08 238.923 479.4 238.976 479.762 238.976C480.328 238.976 480.754 238.869 481.042 238.656C481.341 238.432 481.49 238.155 481.49 237.824C481.49 237.547 481.4 237.323 481.218 237.152C481.048 236.981 480.818 236.843 480.53 236.736C480.242 236.619 479.922 236.517 479.57 236.432C479.293 236.368 478.994 236.293 478.674 236.208C478.354 236.112 478.05 235.984 477.762 235.824C477.474 235.664 477.24 235.456 477.058 235.2C476.877 234.944 476.786 234.608 476.786 234.192C476.786 233.733 476.909 233.333 477.154 232.992C477.41 232.64 477.757 232.368 478.194 232.176C478.642 231.984 479.154 231.888 479.73 231.888C480.392 231.888 480.978 232.032 481.49 232.32C482.013 232.608 482.376 233.056 482.578 233.664L481.458 234.048C481.384 233.771 481.245 233.557 481.042 233.408C480.85 233.259 480.632 233.157 480.386 233.104C480.152 233.051 479.917 233.024 479.682 233.024C479.202 233.024 478.813 233.12 478.514 233.312C478.226 233.493 478.082 233.771 478.082 234.144C478.082 234.347 478.13 234.517 478.226 234.656C478.322 234.784 478.456 234.891 478.626 234.976C478.797 235.061 479 235.136 479.234 235.2C479.469 235.253 479.725 235.317 480.002 235.392C480.312 235.467 480.626 235.563 480.946 235.68C481.266 235.787 481.565 235.931 481.842 236.112C482.12 236.283 482.344 236.507 482.514 236.784C482.696 237.051 482.786 237.387 482.786 237.792C482.786 238.261 482.658 238.672 482.402 239.024C482.146 239.365 481.789 239.632 481.33 239.824C480.882 240.016 480.36 240.112 479.762 240.112C478.941 240.112 478.258 239.931 477.714 239.568C477.181 239.195 476.824 238.651 476.642 237.936L477.794 237.552Z" fill="#9CA3AF"/>
<path d="M221 235.2H483.506V236H221V235.2Z" fill="#9CA3AF"/>
</g>
<g filter="url(#filter1_dd_5522_71939)">
<rect x="204" y="20" width="298" height="48" rx="16" fill="white"/>
<rect x="204.5" y="20.5" width="297" height="47" rx="15.5" stroke="#F3F4F7"/>
<path d="M244.128 41.84C244.128 41.2533 243.931 40.7893 243.536 40.448C243.152 40.096 242.576 39.92 241.808 39.92H238.64V43.744H241.856C242.581 43.744 243.141 43.5733 243.536 43.232C243.931 42.8907 244.128 42.4267 244.128 41.84ZM237.36 50V38.8H241.92C242.709 38.8 243.36 38.9333 243.872 39.2C244.384 39.4667 244.763 39.8187 245.008 40.256C245.264 40.6827 245.392 41.1573 245.392 41.68C245.392 42.192 245.296 42.624 245.104 42.976C244.923 43.3173 244.672 43.5893 244.352 43.792C244.043 43.9947 243.701 44.1333 243.328 44.208V44.32C243.776 44.384 244.176 44.528 244.528 44.752C244.88 44.9653 245.157 45.2587 245.36 45.632C245.563 46.0053 245.664 46.4587 245.664 46.992C245.664 47.5467 245.525 48.0533 245.248 48.512C244.971 48.9707 244.56 49.3333 244.016 49.6C243.483 49.8667 242.827 50 242.048 50H237.36ZM238.64 48.88H241.952C242.72 48.88 243.317 48.7093 243.744 48.368C244.181 48.016 244.4 47.5147 244.4 46.864C244.4 46.2133 244.171 45.7173 243.712 45.376C243.264 45.0347 242.661 44.864 241.904 44.864H238.64V48.88ZM254.339 50H253.251L253.171 48.848C252.925 49.2533 252.595 49.568 252.179 49.792C251.763 50.0053 251.277 50.112 250.723 50.112C250.104 50.112 249.565 49.984 249.107 49.728C248.648 49.472 248.291 49.088 248.035 48.576C247.789 48.064 247.667 47.4187 247.667 46.64V42H248.851V46.512C248.851 47.3333 249.027 47.9573 249.379 48.384C249.741 48.8 250.259 49.008 250.931 49.008C251.613 49.008 252.152 48.7893 252.547 48.352C252.952 47.904 253.155 47.232 253.155 46.336V42H254.339V50ZM256.779 42H257.883L257.947 43.168C258.16 42.88 258.416 42.6347 258.715 42.432C259.024 42.2293 259.36 42.0907 259.723 42.016C260.096 41.9307 260.491 41.9253 260.907 42V43.2C260.459 43.1147 260.054 43.1147 259.691 43.2C259.339 43.2853 259.035 43.4453 258.779 43.68C258.523 43.9147 258.326 44.2133 258.187 44.576C258.048 44.928 257.979 45.3387 257.979 45.808V50H256.779V42ZM262.545 42H263.649L263.713 43.136C263.969 42.7413 264.305 42.4373 264.721 42.224C265.137 42 265.622 41.888 266.177 41.888C266.785 41.888 267.318 42.0213 267.777 42.288C268.235 42.544 268.593 42.9333 268.849 43.456C269.105 43.968 269.233 44.6133 269.233 45.392V50H268.033V45.536C268.033 44.704 267.851 44.0747 267.489 43.648C267.137 43.2107 266.625 42.992 265.953 42.992C265.259 42.992 264.715 43.2213 264.321 43.68C263.937 44.1387 263.745 44.816 263.745 45.712V50H262.545V42ZM271.8 42H272.984V50H271.8V42ZM272.408 40.4C272.163 40.4 271.96 40.32 271.8 40.16C271.64 40 271.56 39.8027 271.56 39.568C271.56 39.3227 271.64 39.12 271.8 38.96C271.96 38.8 272.163 38.72 272.408 38.72C272.632 38.72 272.824 38.8 272.984 38.96C273.155 39.12 273.24 39.3227 273.24 39.568C273.24 39.8027 273.155 40 272.984 40.16C272.824 40.32 272.632 40.4 272.408 40.4ZM275.685 42H276.789L276.853 43.136C277.109 42.7413 277.445 42.4373 277.861 42.224C278.277 42 278.762 41.888 279.317 41.888C279.925 41.888 280.458 42.0213 280.917 42.288C281.376 42.544 281.733 42.9333 281.989 43.456C282.245 43.968 282.373 44.6133 282.373 45.392V50H281.173V45.536C281.173 44.704 280.992 44.0747 280.629 43.648C280.277 43.2107 279.765 42.992 279.093 42.992C278.4 42.992 277.856 43.2213 277.461 43.68C277.077 44.1387 276.885 44.816 276.885 45.712V50H275.685V42ZM290.845 42H291.949V48.528C291.949 49.5093 291.73 50.3467 291.293 51.04C290.855 51.744 290.221 52.2773 289.389 52.64C288.557 53.0133 287.543 53.2 286.349 53.2L286.157 52.096C287.661 52.0747 288.802 51.76 289.581 51.152C290.359 50.5547 290.749 49.68 290.749 48.528V48.352L290.877 48.384C290.631 48.8533 290.263 49.2587 289.773 49.6C289.282 49.9307 288.647 50.1013 287.869 50.112C287.133 50.112 286.487 49.9467 285.933 49.616C285.389 49.2747 284.962 48.7947 284.653 48.176C284.354 47.5573 284.205 46.832 284.205 46C284.205 45.168 284.354 44.448 284.653 43.84C284.962 43.2213 285.389 42.7413 285.933 42.4C286.487 42.0587 287.133 41.888 287.869 41.888C288.349 41.888 288.775 41.9627 289.149 42.112C289.522 42.2507 289.842 42.4427 290.109 42.688C290.375 42.9227 290.594 43.1893 290.765 43.488L290.845 42ZM285.501 46C285.501 46.9173 285.735 47.648 286.205 48.192C286.685 48.7253 287.33 48.992 288.141 48.992C288.631 48.992 289.074 48.8747 289.469 48.64C289.863 48.4053 290.173 48.064 290.397 47.616C290.631 47.168 290.749 46.6293 290.749 46C290.749 45.3707 290.631 44.8373 290.397 44.4C290.173 43.952 289.863 43.6107 289.469 43.376C289.074 43.1307 288.631 43.008 288.141 43.008C287.341 43.008 286.701 43.28 286.221 43.824C285.741 44.368 285.501 45.0933 285.501 46ZM299.96 43.616C300.195 43.1253 300.563 42.7147 301.064 42.384C301.566 42.0533 302.2 41.888 302.968 41.888C303.704 41.888 304.344 42.0587 304.888 42.4C305.443 42.7413 305.87 43.2213 306.168 43.84C306.478 44.448 306.632 45.168 306.632 46C306.632 46.832 306.478 47.5573 306.168 48.176C305.859 48.7947 305.427 49.2747 304.872 49.616C304.328 49.9467 303.694 50.112 302.968 50.112C302.243 50.112 301.64 49.9573 301.16 49.648C300.68 49.3387 300.318 48.96 300.072 48.512L299.992 50H298.888V38.48H300.088V43.632L299.96 43.616ZM305.336 46C305.336 45.0827 305.096 44.3573 304.616 43.824C304.147 43.28 303.512 43.008 302.712 43.008C302.211 43.008 301.758 43.1307 301.352 43.376C300.958 43.6107 300.648 43.952 300.424 44.4C300.2 44.8373 300.088 45.3707 300.088 46C300.088 46.6293 300.2 47.168 300.424 47.616C300.648 48.064 300.958 48.4053 301.352 48.64C301.758 48.8747 302.211 48.992 302.712 48.992C303.512 48.992 304.147 48.7253 304.616 48.192C305.096 47.648 305.336 46.9173 305.336 46ZM315.135 50H314.047L313.967 48.848C313.722 49.2533 313.391 49.568 312.975 49.792C312.559 50.0053 312.074 50.112 311.519 50.112C310.901 50.112 310.362 49.984 309.903 49.728C309.445 49.472 309.087 49.088 308.831 48.576C308.586 48.064 308.463 47.4187 308.463 46.64V42H309.647V46.512C309.647 47.3333 309.823 47.9573 310.175 48.384C310.538 48.8 311.055 49.008 311.727 49.008C312.41 49.008 312.949 48.7893 313.343 48.352C313.749 47.904 313.951 47.232 313.951 46.336V42H315.135V50ZM323.752 43.616L323.624 43.632V38.48H324.824V50H323.72L323.64 48.512C323.394 48.96 323.026 49.3387 322.536 49.648C322.056 49.9573 321.458 50.112 320.744 50.112C320.008 50.112 319.362 49.9467 318.808 49.616C318.264 49.2747 317.837 48.7947 317.528 48.176C317.229 47.5573 317.08 46.832 317.08 46C317.08 45.168 317.229 44.448 317.528 43.84C317.837 43.2213 318.264 42.7413 318.808 42.4C319.362 42.0587 320.008 41.888 320.744 41.888C321.501 41.888 322.13 42.0533 322.632 42.384C323.133 42.7147 323.506 43.1253 323.752 43.616ZM318.376 46C318.376 46.9173 318.61 47.648 319.08 48.192C319.549 48.7253 320.189 48.992 321 48.992C321.501 48.992 321.949 48.8747 322.344 48.64C322.738 48.4053 323.048 48.064 323.272 47.616C323.506 47.168 323.624 46.6293 323.624 46C323.624 45.3707 323.506 44.8373 323.272 44.4C323.048 43.952 322.738 43.6107 322.344 43.376C321.949 43.1307 321.501 43.008 321 43.008C320.2 43.008 319.56 43.28 319.08 43.824C318.61 44.3573 318.376 45.0827 318.376 46ZM333.423 42H334.527V48.528C334.527 49.5093 334.308 50.3467 333.871 51.04C333.434 51.744 332.799 52.2773 331.967 52.64C331.135 53.0133 330.122 53.2 328.927 53.2L328.735 52.096C330.239 52.0747 331.38 51.76 332.159 51.152C332.938 50.5547 333.327 49.68 333.327 48.528V48.352L333.455 48.384C333.21 48.8533 332.842 49.2587 332.351 49.6C331.86 49.9307 331.226 50.1013 330.447 50.112C329.711 50.112 329.066 49.9467 328.511 49.616C327.967 49.2747 327.54 48.7947 327.231 48.176C326.932 47.5573 326.783 46.832 326.783 46C326.783 45.168 326.932 44.448 327.231 43.84C327.54 43.2213 327.967 42.7413 328.511 42.4C329.066 42.0587 329.711 41.888 330.447 41.888C330.927 41.888 331.354 41.9627 331.727 42.112C332.1 42.2507 332.42 42.4427 332.687 42.688C332.954 42.9227 333.172 43.1893 333.343 43.488L333.423 42ZM328.079 46C328.079 46.9173 328.314 47.648 328.783 48.192C329.263 48.7253 329.908 48.992 330.719 48.992C331.21 48.992 331.652 48.8747 332.047 48.64C332.442 48.4053 332.751 48.064 332.975 47.616C333.21 47.168 333.327 46.6293 333.327 46C333.327 45.3707 333.21 44.8373 332.975 44.4C332.751 43.952 332.442 43.6107 332.047 43.376C331.652 43.1307 331.21 43.008 330.719 43.008C329.919 43.008 329.279 43.28 328.799 43.824C328.319 44.368 328.079 45.0933 328.079 46ZM340.342 50.112C339.595 50.112 338.929 49.9307 338.342 49.568C337.766 49.2053 337.313 48.7093 336.982 48.08C336.651 47.4507 336.486 46.7307 336.486 45.92C336.486 45.1413 336.651 44.448 336.982 43.84C337.313 43.232 337.766 42.7573 338.342 42.416C338.918 42.064 339.574 41.888 340.31 41.888C341.035 41.888 341.681 42.048 342.246 42.368C342.822 42.688 343.27 43.1307 343.59 43.696C343.91 44.2613 344.059 44.9067 344.038 45.632C344.038 45.7493 344.033 45.872 344.022 46C344.011 46.128 344.001 46.2667 343.99 46.416H337.798C337.819 46.9173 337.942 47.36 338.166 47.744C338.39 48.128 338.683 48.432 339.046 48.656C339.419 48.8693 339.841 48.976 340.31 48.976C340.929 48.976 341.451 48.8587 341.878 48.624C342.315 48.3893 342.63 48.0533 342.822 47.616L343.862 48.032C343.542 48.704 343.078 49.2213 342.47 49.584C341.862 49.936 341.153 50.112 340.342 50.112ZM342.726 45.376C342.737 44.9173 342.635 44.512 342.422 44.16C342.219 43.808 341.931 43.5307 341.558 43.328C341.185 43.1253 340.753 43.024 340.262 43.024C339.835 43.024 339.446 43.1253 339.094 43.328C338.742 43.5307 338.449 43.8133 338.214 44.176C337.99 44.528 337.857 44.928 337.814 45.376H342.726ZM346.525 42V39.76H347.725V42H349.853V43.12H347.725V47.424C347.725 47.9147 347.827 48.272 348.029 48.496C348.243 48.72 348.509 48.8533 348.829 48.896C349.16 48.9387 349.501 48.9387 349.853 48.896V49.936C349.437 50.032 349.027 50.0587 348.621 50.016C348.227 49.9733 347.869 49.856 347.549 49.664C347.24 49.4613 346.989 49.1787 346.797 48.816C346.616 48.4533 346.525 47.9893 346.525 47.424V43.12H345.325V42H346.525ZM352.294 47.552C352.358 47.872 352.476 48.1387 352.646 48.352C352.817 48.5547 353.036 48.7093 353.302 48.816C353.58 48.9227 353.9 48.976 354.262 48.976C354.828 48.976 355.254 48.8693 355.542 48.656C355.841 48.432 355.99 48.1547 355.99 47.824C355.99 47.5467 355.9 47.3227 355.718 47.152C355.548 46.9813 355.318 46.8427 355.03 46.736C354.742 46.6187 354.422 46.5173 354.07 46.432C353.793 46.368 353.494 46.2933 353.174 46.208C352.854 46.112 352.55 45.984 352.262 45.824C351.974 45.664 351.74 45.456 351.558 45.2C351.377 44.944 351.286 44.608 351.286 44.192C351.286 43.7333 351.409 43.3333 351.654 42.992C351.91 42.64 352.257 42.368 352.694 42.176C353.142 41.984 353.654 41.888 354.23 41.888C354.892 41.888 355.478 42.032 355.99 42.32C356.513 42.608 356.876 43.056 357.078 43.664L355.958 44.048C355.884 43.7707 355.745 43.5573 355.542 43.408C355.35 43.2587 355.132 43.1573 354.886 43.104C354.652 43.0507 354.417 43.024 354.182 43.024C353.702 43.024 353.313 43.12 353.014 43.312C352.726 43.4933 352.582 43.7707 352.582 44.144C352.582 44.3467 352.63 44.5173 352.726 44.656C352.822 44.784 352.956 44.8907 353.126 44.976C353.297 45.0613 353.5 45.136 353.734 45.2C353.969 45.2533 354.225 45.3173 354.502 45.392C354.812 45.4667 355.126 45.5627 355.446 45.68C355.766 45.7867 356.065 45.9307 356.342 46.112C356.62 46.2827 356.844 46.5067 357.014 46.784C357.196 47.0507 357.286 47.3867 357.286 47.792C357.286 48.2613 357.158 48.672 356.902 49.024C356.646 49.3653 356.289 49.632 355.83 49.824C355.382 50.016 354.86 50.112 354.262 50.112C353.441 50.112 352.758 49.9307 352.214 49.568C351.681 49.1947 351.324 48.6507 351.142 47.936L352.294 47.552ZM367.172 50.112C366.415 50.112 365.738 49.9467 365.14 49.616C364.543 49.2853 364.074 48.816 363.732 48.208C363.391 47.5893 363.22 46.8587 363.22 46.016C363.22 45.1627 363.391 44.4267 363.732 43.808C364.084 43.1893 364.559 42.7147 365.156 42.384C365.764 42.0533 366.447 41.888 367.204 41.888C367.962 41.888 368.639 42.0533 369.236 42.384C369.844 42.7147 370.319 43.1893 370.66 43.808C371.012 44.416 371.188 45.1413 371.188 45.984C371.188 46.8373 371.012 47.5733 370.66 48.192C370.308 48.8107 369.828 49.2853 369.22 49.616C368.612 49.9467 367.93 50.112 367.172 50.112ZM367.156 48.976C367.626 48.976 368.068 48.8747 368.484 48.672C368.9 48.4587 369.236 48.1333 369.492 47.696C369.759 47.248 369.892 46.6827 369.892 46C369.892 45.3067 369.764 44.7413 369.508 44.304C369.252 43.8667 368.916 43.5467 368.5 43.344C368.095 43.1307 367.658 43.024 367.188 43.024C366.719 43.024 366.282 43.1307 365.876 43.344C365.471 43.5467 365.14 43.872 364.884 44.32C364.639 44.7573 364.516 45.3173 364.516 46C364.516 46.6933 364.639 47.2587 364.884 47.696C365.13 48.1333 365.45 48.4587 365.844 48.672C366.25 48.8747 366.687 48.976 367.156 48.976ZM373.154 42H374.258L374.322 43.136C374.578 42.7413 374.914 42.4373 375.33 42.224C375.746 42 376.231 41.888 376.786 41.888C377.394 41.888 377.927 42.0213 378.386 42.288C378.845 42.544 379.202 42.9333 379.458 43.456C379.714 43.968 379.842 44.6133 379.842 45.392V50H378.642V45.536C378.642 44.704 378.461 44.0747 378.098 43.648C377.746 43.2107 377.234 42.992 376.562 42.992C375.869 42.992 375.325 43.2213 374.93 43.68C374.546 44.1387 374.354 44.816 374.354 45.712V50H373.154V42ZM390.062 50.112C389.283 50.112 388.601 49.9413 388.014 49.6C387.427 49.2587 386.969 48.784 386.638 48.176C386.318 47.5573 386.158 46.8427 386.158 46.032C386.158 45.2107 386.318 44.4907 386.638 43.872C386.969 43.2427 387.427 42.7573 388.014 42.416C388.601 42.064 389.283 41.888 390.062 41.888C390.883 41.888 391.603 42.08 392.222 42.464C392.841 42.8373 393.289 43.36 393.566 44.032L392.462 44.416C392.302 43.9893 392.009 43.6533 391.582 43.408C391.166 43.152 390.681 43.024 390.126 43.024C389.582 43.024 389.107 43.1467 388.702 43.392C388.307 43.6373 387.998 43.984 387.774 44.432C387.561 44.88 387.454 45.408 387.454 46.016C387.454 46.912 387.694 47.632 388.174 48.176C388.654 48.7093 389.294 48.976 390.094 48.976C390.638 48.976 391.123 48.8533 391.55 48.608C391.977 48.3627 392.291 48.032 392.494 47.616L393.582 48C393.294 48.6613 392.841 49.1787 392.222 49.552C391.603 49.9253 390.883 50.112 390.062 50.112ZM399.001 50.112C398.243 50.112 397.566 49.9467 396.969 49.616C396.371 49.2853 395.902 48.816 395.561 48.208C395.219 47.5893 395.049 46.8587 395.049 46.016C395.049 45.1627 395.219 44.4267 395.561 43.808C395.913 43.1893 396.387 42.7147 396.985 42.384C397.593 42.0533 398.275 41.888 399.033 41.888C399.79 41.888 400.467 42.0533 401.065 42.384C401.673 42.7147 402.147 43.1893 402.489 43.808C402.841 44.416 403.017 45.1413 403.017 45.984C403.017 46.8373 402.841 47.5733 402.489 48.192C402.137 48.8107 401.657 49.2853 401.049 49.616C400.441 49.9467 399.758 50.112 399.001 50.112ZM398.985 48.976C399.454 48.976 399.897 48.8747 400.313 48.672C400.729 48.4587 401.065 48.1333 401.321 47.696C401.587 47.248 401.721 46.6827 401.721 46C401.721 45.3067 401.593 44.7413 401.337 44.304C401.081 43.8667 400.745 43.5467 400.329 43.344C399.923 43.1307 399.486 43.024 399.016 43.024C398.547 43.024 398.11 43.1307 397.705 43.344C397.299 43.5467 396.969 43.872 396.713 44.32C396.467 44.7573 396.345 45.3173 396.345 46C396.345 46.6933 396.467 47.2587 396.713 47.696C396.958 48.1333 397.278 48.4587 397.673 48.672C398.078 48.8747 398.515 48.976 398.985 48.976ZM404.982 42H406.086L406.15 43.136C406.406 42.7413 406.742 42.4373 407.158 42.224C407.574 42 408.059 41.888 408.614 41.888C409.222 41.888 409.755 42.0213 410.214 42.288C410.673 42.544 411.03 42.9333 411.286 43.456C411.542 43.968 411.67 44.6133 411.67 45.392V50H410.47V45.536C410.47 44.704 410.289 44.0747 409.926 43.648C409.574 43.2107 409.062 42.992 408.39 42.992C407.697 42.992 407.153 43.2213 406.758 43.68C406.374 44.1387 406.182 44.816 406.182 45.712V50H404.982V42ZM414.654 47.552C414.718 47.872 414.835 48.1387 415.006 48.352C415.176 48.5547 415.395 48.7093 415.662 48.816C415.939 48.9227 416.259 48.976 416.622 48.976C417.187 48.976 417.614 48.8693 417.902 48.656C418.2 48.432 418.35 48.1547 418.35 47.824C418.35 47.5467 418.259 47.3227 418.078 47.152C417.907 46.9813 417.678 46.8427 417.39 46.736C417.102 46.6187 416.782 46.5173 416.43 46.432C416.152 46.368 415.854 46.2933 415.534 46.208C415.214 46.112 414.91 45.984 414.622 45.824C414.334 45.664 414.099 45.456 413.918 45.2C413.736 44.944 413.646 44.608 413.646 44.192C413.646 43.7333 413.768 43.3333 414.014 42.992C414.27 42.64 414.616 42.368 415.054 42.176C415.502 41.984 416.014 41.888 416.59 41.888C417.251 41.888 417.838 42.032 418.35 42.32C418.872 42.608 419.235 43.056 419.438 43.664L418.318 44.048C418.243 43.7707 418.104 43.5573 417.902 43.408C417.71 43.2587 417.491 43.1573 417.246 43.104C417.011 43.0507 416.776 43.024 416.542 43.024C416.062 43.024 415.672 43.12 415.374 43.312C415.086 43.4933 414.942 43.7707 414.942 44.144C414.942 44.3467 414.99 44.5173 415.086 44.656C415.182 44.784 415.315 44.8907 415.486 44.976C415.656 45.0613 415.859 45.136 416.094 45.2C416.328 45.2533 416.584 45.3173 416.862 45.392C417.171 45.4667 417.486 45.5627 417.806 45.68C418.126 45.7867 418.424 45.9307 418.702 46.112C418.979 46.2827 419.203 46.5067 419.374 46.784C419.555 47.0507 419.646 47.3867 419.646 47.792C419.646 48.2613 419.518 48.672 419.262 49.024C419.006 49.3653 418.648 49.632 418.19 49.824C417.742 50.016 417.219 50.112 416.622 50.112C415.8 50.112 415.118 49.9307 414.574 49.568C414.04 49.1947 413.683 48.6507 413.502 47.936L414.654 47.552ZM428.135 50H427.047L426.967 48.848C426.722 49.2533 426.391 49.568 425.975 49.792C425.559 50.0053 425.074 50.112 424.519 50.112C423.901 50.112 423.362 49.984 422.903 49.728C422.445 49.472 422.087 49.088 421.831 48.576C421.586 48.064 421.463 47.4187 421.463 46.64V42H422.647V46.512C422.647 47.3333 422.823 47.9573 423.175 48.384C423.538 48.8 424.055 49.008 424.727 49.008C425.41 49.008 425.949 48.7893 426.343 48.352C426.749 47.904 426.951 47.232 426.951 46.336V42H428.135V50ZM430.576 38.48H431.776V50H430.576V38.48ZM434.728 42V39.76H435.928V42H438.056V43.12H435.928V47.424C435.928 47.9147 436.03 48.272 436.232 48.496C436.446 48.72 436.712 48.8533 437.032 48.896C437.363 48.9387 437.704 48.9387 438.056 48.896V49.936C437.64 50.032 437.23 50.0587 436.824 50.016C436.43 49.9733 436.072 49.856 435.752 49.664C435.443 49.4613 435.192 49.1787 435 48.816C434.819 48.4533 434.728 47.9893 434.728 47.424V43.12H433.528V42H434.728ZM444.849 50L444.753 48.56C444.529 49.0507 444.199 49.4347 443.761 49.712C443.324 49.9787 442.769 50.112 442.097 50.112C441.521 50.112 441.031 50.0213 440.625 49.84C440.22 49.6587 439.905 49.4027 439.681 49.072C439.468 48.7307 439.361 48.3307 439.361 47.872C439.361 47.2 439.612 46.6507 440.113 46.224C440.615 45.7867 441.34 45.52 442.289 45.424L444.753 45.152V44.512C444.753 44.064 444.588 43.7067 444.257 43.44C443.927 43.1627 443.479 43.024 442.913 43.024C442.359 43.024 441.895 43.152 441.521 43.408C441.159 43.664 440.908 44.032 440.769 44.512L439.681 44.128C439.895 43.424 440.284 42.8747 440.849 42.48C441.425 42.0853 442.124 41.888 442.945 41.888C443.895 41.888 444.631 42.1333 445.153 42.624C445.687 43.104 445.953 43.76 445.953 44.592V50H444.849ZM444.753 46.176L442.273 46.464C441.74 46.528 441.335 46.6773 441.057 46.912C440.78 47.136 440.641 47.4347 440.641 47.808C440.641 48.1813 440.775 48.48 441.041 48.704C441.319 48.928 441.713 49.04 442.225 49.04C442.812 49.04 443.292 48.9227 443.665 48.688C444.039 48.4533 444.311 48.1387 444.481 47.744C444.663 47.3387 444.753 46.9013 444.753 46.432V46.176ZM448.295 42H449.399L449.463 43.136C449.719 42.7413 450.055 42.4373 450.471 42.224C450.887 42 451.372 41.888 451.927 41.888C452.535 41.888 453.068 42.0213 453.527 42.288C453.985 42.544 454.343 42.9333 454.599 43.456C454.855 43.968 454.983 44.6133 454.983 45.392V50H453.783V45.536C453.783 44.704 453.601 44.0747 453.239 43.648C452.887 43.2107 452.375 42.992 451.703 42.992C451.009 42.992 450.465 43.2213 450.071 43.68C449.687 44.1387 449.495 44.816 449.495 45.712V50H448.295V42ZM457.822 42V39.76H459.022V42H461.15V43.12H459.022V47.424C459.022 47.9147 459.123 48.272 459.326 48.496C459.539 48.72 459.806 48.8533 460.126 48.896C460.457 48.9387 460.798 48.9387 461.15 48.896V49.936C460.734 50.032 460.323 50.0587 459.918 50.016C459.523 49.9733 459.166 49.856 458.846 49.664C458.537 49.4613 458.286 49.1787 458.094 48.816C457.913 48.4533 457.822 47.9893 457.822 47.424V43.12H456.622V42H457.822ZM463.591 47.552C463.655 47.872 463.772 48.1387 463.943 48.352C464.114 48.5547 464.332 48.7093 464.599 48.816C464.876 48.9227 465.196 48.976 465.559 48.976C466.124 48.976 466.551 48.8693 466.839 48.656C467.138 48.432 467.287 48.1547 467.287 47.824C467.287 47.5467 467.196 47.3227 467.015 47.152C466.844 46.9813 466.615 46.8427 466.327 46.736C466.039 46.6187 465.719 46.5173 465.367 46.432C465.09 46.368 464.791 46.2933 464.471 46.208C464.151 46.112 463.847 45.984 463.559 45.824C463.271 45.664 463.036 45.456 462.855 45.2C462.674 44.944 462.583 44.608 462.583 44.192C462.583 43.7333 462.706 43.3333 462.951 42.992C463.207 42.64 463.554 42.368 463.991 42.176C464.439 41.984 464.951 41.888 465.527 41.888C466.188 41.888 466.775 42.032 467.287 42.32C467.81 42.608 468.172 43.056 468.375 43.664L467.255 44.048C467.18 43.7707 467.042 43.5573 466.839 43.408C466.647 43.2587 466.428 43.1573 466.183 43.104C465.948 43.0507 465.714 43.024 465.479 43.024C464.999 43.024 464.61 43.12 464.311 43.312C464.023 43.4933 463.879 43.7707 463.879 44.144C463.879 44.3467 463.927 44.5173 464.023 44.656C464.119 44.784 464.252 44.8907 464.423 44.976C464.594 45.0613 464.796 45.136 465.031 45.2C465.266 45.2533 465.522 45.3173 465.799 45.392C466.108 45.4667 466.423 45.5627 466.743 45.68C467.063 45.7867 467.362 45.9307 467.639 46.112C467.916 46.2827 468.14 46.5067 468.311 46.784C468.492 47.0507 468.583 47.3867 468.583 47.792C468.583 48.2613 468.455 48.672 468.199 49.024C467.943 49.3653 467.586 49.632 467.127 49.824C466.679 50.016 466.156 50.112 465.559 50.112C464.738 50.112 464.055 49.9307 463.511 49.568C462.978 49.1947 462.62 48.6507 462.439 47.936L463.591 47.552Z" fill="#9CA3AF"/>
<path d="M236 45.2H469.303V46H236V45.2Z" fill="#9CA3AF"/>
</g>
<g filter="url(#filter2_dd_5522_71939)">
<rect x="484.854" y="-4" width="40" height="40" rx="10" transform="rotate(15 484.854 -4)" fill="white" shape-rendering="crispEdges"/>
<rect x="484.5" y="-4.61237" width="41" height="41" rx="10.5" transform="rotate(15 484.5 -4.61237)" stroke="#F3F4F7" shape-rendering="crispEdges"/>
<g clip-path="url(#clip1_5522_71939)">
<path d="M495.579 21.6508C495.151 23.2513 497.397 25.2437 500.599 26.1014C503.8 26.9592 506.742 26.3571 507.171 24.7566M495.579 21.6508C496.008 20.0502 498.95 19.4482 502.151 20.3059C505.352 21.1636 507.599 23.156 507.171 24.7566M495.579 21.6508L494.544 25.5145C494.116 27.114 496.362 29.1074 499.563 29.9651C502.764 30.8229 505.707 30.2199 506.135 28.6203L507.171 24.7566M491.854 12.3704C491.577 13.4059 492.426 14.6583 494.08 15.6564C495.734 16.6545 497.944 17.2466 499.875 17.2093C501.807 17.1719 503.168 16.5117 503.446 15.4763C503.723 14.4408 502.874 13.1884 501.22 12.1903C499.566 11.1922 497.356 10.6 495.425 10.6374C493.493 10.6748 492.132 11.335 491.854 12.3704ZM491.854 12.3704L489.266 22.0297C489.036 22.8874 489.637 23.6301 490.68 24.4792M490.56 17.2001C490.33 18.0578 490.931 18.8005 491.975 19.6496" stroke="#71717A" stroke-width="1.2" stroke-linecap="round" stroke-linejoin="round"/>
</g>
</g>
<g filter="url(#filter3_dd_5522_71939)">
<rect x="173.5" y="242.281" width="32" height="32" rx="8" transform="rotate(-15 173.5 242.281)" fill="white" shape-rendering="crispEdges"/>
<rect x="172.888" y="241.928" width="33" height="33" rx="8.5" transform="rotate(-15 172.888 241.928)" stroke="#F3F4F7" shape-rendering="crispEdges"/>
<g clip-path="url(#clip2_5522_71939)">
<path d="M194.246 246.298L195.023 249.195M188.451 247.85L189.227 250.748M187.106 254.423L198.697 251.317M186.329 251.525C186.226 251.14 186.28 250.731 186.479 250.387C186.678 250.042 187.006 249.791 187.39 249.688L196.083 247.358C196.467 247.255 196.877 247.309 197.221 247.508C197.566 247.707 197.817 248.035 197.92 248.419L200.25 257.112C200.353 257.497 200.299 257.906 200.1 258.25C199.901 258.595 199.573 258.846 199.189 258.949L190.496 261.279C190.111 261.382 189.702 261.328 189.357 261.129C189.013 260.93 188.762 260.602 188.659 260.218L186.329 251.525Z" stroke="#71717A" stroke-width="1.2" stroke-linecap="round" stroke-linejoin="round"/>
</g>
</g>
<g opacity="0.2" filter="url(#filter4_f_5522_71939)">
<path d="M706.298 234.642C604.922 308.095 545.362 456.039 545.362 456.039C545.362 456.039 482.079 436.815 458.632 432.674C515.672 398.664 512.323 314.268 549.051 253.677C578.627 240.3 675.526 242.184 706.298 234.642Z" fill="url(#paint4_linear_5522_71939)"/>
</g>
<g opacity="0.2" filter="url(#filter5_f_5522_71939)">
<path d="M-134.366 298.029C-50.7919 225.103 -9.42903 95.8626 -9.42903 95.8626C-9.42903 95.8626 47.5465 103.993 68.4359 104.546C20.8723 139.545 30.0442 208.718 2.27468 263.154C-22.702 277.79 -107.908 288.056 -134.366 298.029Z" fill="url(#paint5_linear_5522_71939)"/>
</g>
<g filter="url(#filter6_dd_5522_71939)">
<rect x="152" y="84" width="400" height="110" rx="16" fill="white" shape-rendering="crispEdges"/>
<rect x="152.5" y="84.5" width="399" height="109" rx="15.5" stroke="#F3F4F7" shape-rendering="crispEdges"/>
<g filter="url(#filter7_i_5522_71939)">
<rect x="176" y="104" width="352" height="40" rx="12" fill="#266AE9"/>
<path d="M325.085 122.196C324.73 121.533 324.277 121.053 323.727 120.754C323.185 120.455 322.593 120.306 321.949 120.306C321.295 120.306 320.698 120.465 320.157 120.782C319.615 121.099 319.186 121.543 318.869 122.112C318.561 122.672 318.407 123.335 318.407 124.1C318.407 124.856 318.561 125.519 318.869 126.088C319.177 126.657 319.597 127.101 320.129 127.418C320.67 127.735 321.272 127.894 321.935 127.894C322.411 127.894 322.859 127.81 323.279 127.642C323.699 127.474 324.063 127.241 324.371 126.942C324.688 126.643 324.935 126.289 325.113 125.878V124.814H322.033V123.666H326.527V125.948C326.303 126.545 325.967 127.082 325.519 127.558C325.08 128.034 324.553 128.412 323.937 128.692C323.33 128.963 322.663 129.098 321.935 129.098C321.244 129.098 320.595 128.977 319.989 128.734C319.391 128.491 318.869 128.151 318.421 127.712C317.973 127.264 317.623 126.737 317.371 126.13C317.119 125.514 316.993 124.837 316.993 124.1C316.993 123.372 317.119 122.705 317.371 122.098C317.623 121.482 317.973 120.95 318.421 120.502C318.869 120.054 319.391 119.709 319.989 119.466C320.595 119.223 321.244 119.102 321.935 119.102C322.56 119.102 323.157 119.205 323.727 119.41C324.296 119.615 324.805 119.914 325.253 120.306C325.701 120.698 326.051 121.179 326.303 121.748L325.085 122.196ZM331.225 129.098C330.553 129.098 329.955 128.944 329.433 128.636C328.919 128.319 328.513 127.885 328.215 127.334C327.925 126.783 327.781 126.153 327.781 125.444C327.781 124.763 327.925 124.156 328.215 123.624C328.504 123.092 328.901 122.672 329.405 122.364C329.918 122.056 330.497 121.902 331.141 121.902C331.794 121.902 332.373 122.047 332.877 122.336C333.381 122.616 333.773 123.013 334.053 123.526C334.333 124.03 334.468 124.613 334.459 125.276C334.459 125.388 334.454 125.505 334.445 125.626C334.435 125.738 334.421 125.864 334.403 126.004H329.223C329.251 126.377 329.353 126.709 329.531 126.998C329.717 127.278 329.951 127.497 330.231 127.656C330.52 127.815 330.847 127.894 331.211 127.894C331.677 127.894 332.083 127.805 332.429 127.628C332.774 127.441 333.017 127.194 333.157 126.886L334.305 127.292C334.025 127.861 333.614 128.305 333.073 128.622C332.541 128.939 331.925 129.098 331.225 129.098ZM333.017 124.87C333.017 124.534 332.933 124.231 332.765 123.96C332.597 123.689 332.368 123.479 332.079 123.33C331.799 123.171 331.481 123.092 331.127 123.092C330.809 123.092 330.515 123.171 330.245 123.33C329.983 123.479 329.759 123.689 329.573 123.96C329.395 124.221 329.283 124.525 329.237 124.87H333.017ZM336.523 122V120.04H337.853V122H339.603V123.176H337.853V126.62C337.853 127.049 337.937 127.353 338.105 127.53C338.283 127.707 338.502 127.81 338.763 127.838C339.034 127.857 339.314 127.847 339.603 127.81V128.944C339.221 129.028 338.843 129.051 338.469 129.014C338.105 128.986 337.774 128.883 337.475 128.706C337.186 128.529 336.953 128.272 336.775 127.936C336.607 127.591 336.523 127.152 336.523 126.62V123.176H335.515V122H336.523ZM350.729 122.126C350.729 121.594 350.57 121.169 350.253 120.852C349.936 120.535 349.432 120.376 348.741 120.376H346.501V123.862H348.755C349.212 123.862 349.586 123.792 349.875 123.652C350.164 123.503 350.379 123.297 350.519 123.036C350.659 122.775 350.729 122.471 350.729 122.126ZM348.741 119.2C349.516 119.2 350.15 119.335 350.645 119.606C351.149 119.867 351.522 120.217 351.765 120.656C352.017 121.095 352.143 121.585 352.143 122.126C352.143 122.481 352.082 122.831 351.961 123.176C351.84 123.521 351.644 123.839 351.373 124.128C351.102 124.408 350.748 124.632 350.309 124.8C349.88 124.959 349.362 125.038 348.755 125.038H346.501V129H345.101V119.2H348.741ZM349.637 124.562L352.339 129H350.757L348.153 124.562H349.637ZM356.942 129.098C356.27 129.098 355.672 128.944 355.15 128.636C354.636 128.319 354.23 127.885 353.932 127.334C353.642 126.783 353.498 126.153 353.498 125.444C353.498 124.763 353.642 124.156 353.932 123.624C354.221 123.092 354.618 122.672 355.122 122.364C355.635 122.056 356.214 121.902 356.858 121.902C357.511 121.902 358.09 122.047 358.594 122.336C359.098 122.616 359.49 123.013 359.77 123.526C360.05 124.03 360.185 124.613 360.176 125.276C360.176 125.388 360.171 125.505 360.162 125.626C360.152 125.738 360.138 125.864 360.12 126.004H354.94C354.968 126.377 355.07 126.709 355.248 126.998C355.434 127.278 355.668 127.497 355.948 127.656C356.237 127.815 356.564 127.894 356.928 127.894C357.394 127.894 357.8 127.805 358.146 127.628C358.491 127.441 358.734 127.194 358.874 126.886L360.022 127.292C359.742 127.861 359.331 128.305 358.79 128.622C358.258 128.939 357.642 129.098 356.942 129.098ZM358.734 124.87C358.734 124.534 358.65 124.231 358.482 123.96C358.314 123.689 358.085 123.479 357.796 123.33C357.516 123.171 357.198 123.092 356.844 123.092C356.526 123.092 356.232 123.171 355.962 123.33C355.7 123.479 355.476 123.689 355.29 123.96C355.112 124.221 355 124.525 354.954 124.87H358.734ZM362.968 127.81L363.108 127.768V131.8H361.792V122H362.996L363.094 123.05C363.318 122.733 363.626 122.462 364.018 122.238C364.42 122.014 364.905 121.902 365.474 121.902C366.09 121.902 366.636 122.051 367.112 122.35C367.588 122.649 367.962 123.069 368.232 123.61C368.512 124.142 368.652 124.772 368.652 125.5C368.652 126.219 368.517 126.849 368.246 127.39C367.985 127.931 367.616 128.351 367.14 128.65C366.664 128.949 366.109 129.098 365.474 129.098C364.868 129.098 364.35 128.977 363.92 128.734C363.5 128.482 363.183 128.174 362.968 127.81ZM367.224 125.5C367.224 124.781 367.033 124.203 366.65 123.764C366.277 123.325 365.787 123.106 365.18 123.106C364.788 123.106 364.438 123.199 364.13 123.386C363.822 123.573 363.575 123.843 363.388 124.198C363.202 124.553 363.108 124.987 363.108 125.5C363.108 126.004 363.202 126.433 363.388 126.788C363.575 127.143 363.822 127.418 364.13 127.614C364.438 127.801 364.788 127.894 365.18 127.894C365.787 127.894 366.277 127.675 366.65 127.236C367.033 126.797 367.224 126.219 367.224 125.5ZM373.307 129.098C372.645 129.098 372.047 128.953 371.515 128.664C370.993 128.365 370.582 127.95 370.283 127.418C369.985 126.877 369.835 126.242 369.835 125.514C369.835 124.777 369.989 124.137 370.297 123.596C370.605 123.055 371.025 122.639 371.557 122.35C372.089 122.051 372.687 121.902 373.349 121.902C374.012 121.902 374.609 122.051 375.141 122.35C375.683 122.639 376.107 123.055 376.415 123.596C376.723 124.128 376.877 124.758 376.877 125.486C376.877 126.223 376.719 126.863 376.401 127.404C376.093 127.945 375.669 128.365 375.127 128.664C374.586 128.953 373.979 129.098 373.307 129.098ZM373.293 127.894C373.667 127.894 374.017 127.81 374.343 127.642C374.67 127.465 374.936 127.199 375.141 126.844C375.356 126.489 375.463 126.037 375.463 125.486C375.463 124.945 375.361 124.501 375.155 124.156C374.959 123.801 374.698 123.54 374.371 123.372C374.045 123.195 373.695 123.106 373.321 123.106C372.957 123.106 372.617 123.195 372.299 123.372C371.991 123.54 371.739 123.801 371.543 124.156C371.347 124.511 371.249 124.963 371.249 125.514C371.249 126.055 371.343 126.503 371.529 126.858C371.725 127.203 371.977 127.465 372.285 127.642C372.593 127.81 372.929 127.894 373.293 127.894ZM378.486 122H379.69L379.774 122.938C379.97 122.695 380.194 122.495 380.446 122.336C380.707 122.168 380.987 122.051 381.286 121.986C381.594 121.921 381.911 121.925 382.238 122V123.246C381.93 123.171 381.631 123.162 381.342 123.218C381.052 123.274 380.791 123.395 380.558 123.582C380.334 123.759 380.152 123.997 380.012 124.296C379.872 124.595 379.802 124.954 379.802 125.374V129H378.486V122ZM384.019 122V120.04H385.349V122H387.099V123.176H385.349V126.62C385.349 127.049 385.433 127.353 385.601 127.53C385.779 127.707 385.998 127.81 386.259 127.838C386.53 127.857 386.81 127.847 387.099 127.81V128.944C386.717 129.028 386.339 129.051 385.965 129.014C385.601 128.986 385.27 128.883 384.971 128.706C384.682 128.529 384.449 128.272 384.271 127.936C384.103 127.591 384.019 127.152 384.019 126.62V123.176H383.011V122H384.019Z" fill="white"/>
</g>
<path d="M259.602 164.1C259.602 163.363 259.723 162.691 259.966 162.084C260.209 161.468 260.549 160.941 260.988 160.502C261.436 160.054 261.949 159.709 262.528 159.466C263.116 159.223 263.755 159.102 264.446 159.102C265.454 159.102 266.336 159.335 267.092 159.802C267.857 160.269 268.436 160.931 268.828 161.79L267.918 162.126C267.703 161.669 267.419 161.295 267.064 161.006C266.709 160.707 266.308 160.483 265.86 160.334C265.412 160.185 264.941 160.11 264.446 160.11C263.746 160.11 263.116 160.269 262.556 160.586C261.996 160.903 261.553 161.361 261.226 161.958C260.909 162.555 260.75 163.269 260.75 164.1C260.75 164.921 260.909 165.631 261.226 166.228C261.553 166.825 261.996 167.287 262.556 167.614C263.116 167.931 263.746 168.09 264.446 168.09C264.95 168.09 265.431 168.011 265.888 167.852C266.345 167.693 266.756 167.446 267.12 167.11C267.493 166.774 267.792 166.354 268.016 165.85L268.926 166.186C268.525 167.147 267.937 167.875 267.162 168.37C266.387 168.855 265.482 169.098 264.446 169.098C263.755 169.098 263.116 168.977 262.528 168.734C261.949 168.491 261.436 168.146 260.988 167.698C260.549 167.25 260.209 166.723 259.966 166.116C259.723 165.5 259.602 164.828 259.602 164.1ZM270.783 158.92H271.833V169H270.783V158.92ZM278.351 169L278.267 167.74C278.071 168.169 277.781 168.505 277.399 168.748C277.016 168.981 276.531 169.098 275.943 169.098C275.439 169.098 275.009 169.019 274.655 168.86C274.3 168.701 274.025 168.477 273.829 168.188C273.642 167.889 273.549 167.539 273.549 167.138C273.549 166.55 273.768 166.069 274.207 165.696C274.645 165.313 275.28 165.08 276.111 164.996L278.267 164.758V164.198C278.267 163.806 278.122 163.493 277.833 163.26C277.543 163.017 277.151 162.896 276.657 162.896C276.171 162.896 275.765 163.008 275.439 163.232C275.121 163.456 274.902 163.778 274.781 164.198L273.829 163.862C274.015 163.246 274.356 162.765 274.851 162.42C275.355 162.075 275.966 161.902 276.685 161.902C277.515 161.902 278.159 162.117 278.617 162.546C279.083 162.966 279.317 163.54 279.317 164.268V169H278.351ZM278.267 165.654L276.097 165.906C275.63 165.962 275.275 166.093 275.033 166.298C274.79 166.494 274.669 166.755 274.669 167.082C274.669 167.409 274.785 167.67 275.019 167.866C275.261 168.062 275.607 168.16 276.055 168.16C276.568 168.16 276.988 168.057 277.315 167.852C277.641 167.647 277.879 167.371 278.029 167.026C278.187 166.671 278.267 166.289 278.267 165.878V165.654ZM281.365 162H282.331L282.387 163.022C282.574 162.77 282.798 162.555 283.059 162.378C283.33 162.201 283.624 162.079 283.941 162.014C284.268 161.939 284.613 161.935 284.977 162V163.05C284.585 162.975 284.23 162.975 283.913 163.05C283.605 163.125 283.339 163.265 283.115 163.47C282.891 163.675 282.718 163.937 282.597 164.254C282.476 164.562 282.415 164.921 282.415 165.332V169H281.365V162ZM286.62 162H287.656V169H286.62V162ZM287.152 160.6C286.937 160.6 286.76 160.53 286.62 160.39C286.48 160.25 286.41 160.077 286.41 159.872C286.41 159.657 286.48 159.48 286.62 159.34C286.76 159.2 286.937 159.13 287.152 159.13C287.348 159.13 287.516 159.2 287.656 159.34C287.805 159.48 287.88 159.657 287.88 159.872C287.88 160.077 287.805 160.25 287.656 160.39C287.516 160.53 287.348 160.6 287.152 160.6ZM290.467 162V160.04H291.517V162H293.379V162.98H291.517V166.746C291.517 167.175 291.606 167.488 291.783 167.684C291.97 167.88 292.203 167.997 292.483 168.034C292.773 168.071 293.071 168.071 293.379 168.034V168.944C293.015 169.028 292.656 169.051 292.301 169.014C291.956 168.977 291.643 168.874 291.363 168.706C291.093 168.529 290.873 168.281 290.705 167.964C290.547 167.647 290.467 167.241 290.467 166.746V162.98H289.417V162H290.467ZM299.687 162H300.779L296.775 171.8H295.767L296.957 168.902L294.129 162H295.277L297.517 167.656L299.687 162ZM306.253 162H307.289V169H306.253V162ZM306.785 160.6C306.57 160.6 306.393 160.53 306.253 160.39C306.113 160.25 306.043 160.077 306.043 159.872C306.043 159.657 306.113 159.48 306.253 159.34C306.393 159.2 306.57 159.13 306.785 159.13C306.981 159.13 307.149 159.2 307.289 159.34C307.438 159.48 307.513 159.657 307.513 159.872C307.513 160.077 307.438 160.25 307.289 160.39C307.149 160.53 306.981 160.6 306.785 160.6ZM309.652 162H310.618L310.674 162.994C310.898 162.649 311.192 162.383 311.556 162.196C311.92 162 312.345 161.902 312.83 161.902C313.362 161.902 313.829 162.019 314.23 162.252C314.632 162.476 314.944 162.817 315.168 163.274C315.392 163.722 315.504 164.287 315.504 164.968V169H314.454V165.094C314.454 164.366 314.296 163.815 313.978 163.442C313.67 163.059 313.222 162.868 312.634 162.868C312.028 162.868 311.552 163.069 311.206 163.47C310.87 163.871 310.702 164.464 310.702 165.248V169H309.652V162ZM320.989 164.1C320.989 163.363 321.11 162.691 321.353 162.084C321.595 161.468 321.936 160.941 322.375 160.502C322.823 160.054 323.336 159.709 323.915 159.466C324.503 159.223 325.142 159.102 325.833 159.102C326.841 159.102 327.723 159.335 328.479 159.802C329.244 160.269 329.823 160.931 330.215 161.79L329.305 162.126C329.09 161.669 328.805 161.295 328.451 161.006C328.096 160.707 327.695 160.483 327.247 160.334C326.799 160.185 326.327 160.11 325.833 160.11C325.133 160.11 324.503 160.269 323.943 160.586C323.383 160.903 322.939 161.361 322.613 161.958C322.295 162.555 322.137 163.269 322.137 164.1C322.137 164.921 322.295 165.631 322.613 166.228C322.939 166.825 323.383 167.287 323.943 167.614C324.503 167.931 325.133 168.09 325.833 168.09C326.337 168.09 326.817 168.011 327.275 167.852C327.732 167.693 328.143 167.446 328.507 167.11C328.88 166.774 329.179 166.354 329.403 165.85L330.313 166.186C329.911 167.147 329.323 167.875 328.549 168.37C327.774 168.855 326.869 169.098 325.833 169.098C325.142 169.098 324.503 168.977 323.915 168.734C323.336 168.491 322.823 168.146 322.375 167.698C321.936 167.25 321.595 166.723 321.353 166.116C321.11 165.5 320.989 164.828 320.989 164.1ZM332.17 158.92H333.22V169H332.17V158.92ZM335.565 162H336.601V169H335.565V162ZM336.097 160.6C335.883 160.6 335.705 160.53 335.565 160.39C335.425 160.25 335.355 160.077 335.355 159.872C335.355 159.657 335.425 159.48 335.565 159.34C335.705 159.2 335.883 159.13 336.097 159.13C336.293 159.13 336.461 159.2 336.601 159.34C336.751 159.48 336.825 159.657 336.825 159.872C336.825 160.077 336.751 160.25 336.601 160.39C336.461 160.53 336.293 160.6 336.097 160.6ZM341.947 169.098C341.265 169.098 340.668 168.949 340.155 168.65C339.641 168.351 339.24 167.936 338.951 167.404C338.671 166.863 338.531 166.237 338.531 165.528C338.531 164.809 338.671 164.179 338.951 163.638C339.24 163.087 339.641 162.663 340.155 162.364C340.668 162.056 341.265 161.902 341.947 161.902C342.665 161.902 343.295 162.07 343.837 162.406C344.378 162.733 344.77 163.19 345.013 163.778L344.047 164.114C343.907 163.741 343.65 163.447 343.277 163.232C342.913 163.008 342.488 162.896 342.003 162.896C341.527 162.896 341.111 163.003 340.757 163.218C340.411 163.433 340.141 163.736 339.945 164.128C339.758 164.52 339.665 164.982 339.665 165.514C339.665 166.298 339.875 166.928 340.295 167.404C340.715 167.871 341.275 168.104 341.975 168.104C342.451 168.104 342.875 167.997 343.249 167.782C343.622 167.567 343.897 167.278 344.075 166.914L345.027 167.25C344.775 167.829 344.378 168.281 343.837 168.608C343.295 168.935 342.665 169.098 341.947 169.098ZM346.744 158.92H347.808V165.038H348.452L351.21 162H352.694L349.39 165.5L352.708 169H351.21L348.452 165.948H347.808V169H346.744V158.92ZM354.564 166.858C354.62 167.138 354.723 167.371 354.872 167.558C355.021 167.735 355.213 167.871 355.446 167.964C355.689 168.057 355.969 168.104 356.286 168.104C356.781 168.104 357.154 168.011 357.406 167.824C357.667 167.628 357.798 167.385 357.798 167.096C357.798 166.853 357.719 166.657 357.56 166.508C357.411 166.359 357.21 166.237 356.958 166.144C356.706 166.041 356.426 165.953 356.118 165.878C355.875 165.822 355.614 165.757 355.334 165.682C355.054 165.598 354.788 165.486 354.536 165.346C354.284 165.206 354.079 165.024 353.92 164.8C353.761 164.576 353.682 164.282 353.682 163.918C353.682 163.517 353.789 163.167 354.004 162.868C354.228 162.56 354.531 162.322 354.914 162.154C355.306 161.986 355.754 161.902 356.258 161.902C356.837 161.902 357.35 162.028 357.798 162.28C358.255 162.532 358.573 162.924 358.75 163.456L357.77 163.792C357.705 163.549 357.583 163.363 357.406 163.232C357.238 163.101 357.047 163.013 356.832 162.966C356.627 162.919 356.421 162.896 356.216 162.896C355.796 162.896 355.455 162.98 355.194 163.148C354.942 163.307 354.816 163.549 354.816 163.876C354.816 164.053 354.858 164.203 354.942 164.324C355.026 164.436 355.143 164.529 355.292 164.604C355.441 164.679 355.619 164.744 355.824 164.8C356.029 164.847 356.253 164.903 356.496 164.968C356.767 165.033 357.042 165.117 357.322 165.22C357.602 165.313 357.863 165.439 358.106 165.598C358.349 165.747 358.545 165.943 358.694 166.186C358.853 166.419 358.932 166.713 358.932 167.068C358.932 167.479 358.82 167.838 358.596 168.146C358.372 168.445 358.059 168.678 357.658 168.846C357.266 169.014 356.809 169.098 356.286 169.098C355.567 169.098 354.97 168.939 354.494 168.622C354.027 168.295 353.715 167.819 353.556 167.194L354.564 166.858ZM361.209 169.07C360.994 169.07 360.812 168.995 360.663 168.846C360.523 168.697 360.453 168.515 360.453 168.3C360.453 168.085 360.523 167.903 360.663 167.754C360.812 167.605 360.994 167.53 361.209 167.53C361.414 167.53 361.591 167.605 361.741 167.754C361.89 167.903 361.965 168.085 361.965 168.3C361.965 168.515 361.89 168.697 361.741 168.846C361.591 168.995 361.414 169.07 361.209 169.07ZM375.455 159.2V169H374.321L369.085 160.992V169H367.965V159.2H369.099L374.335 167.194V159.2H375.455ZM380.748 169.098C380.086 169.098 379.493 168.953 378.97 168.664C378.448 168.375 378.037 167.964 377.738 167.432C377.44 166.891 377.29 166.251 377.29 165.514C377.29 164.767 377.44 164.123 377.738 163.582C378.046 163.041 378.462 162.625 378.984 162.336C379.516 162.047 380.114 161.902 380.776 161.902C381.439 161.902 382.032 162.047 382.554 162.336C383.086 162.625 383.502 163.041 383.8 163.582C384.108 164.114 384.262 164.749 384.262 165.486C384.262 166.233 384.108 166.877 383.8 167.418C383.492 167.959 383.072 168.375 382.54 168.664C382.008 168.953 381.411 169.098 380.748 169.098ZM380.734 168.104C381.145 168.104 381.532 168.015 381.896 167.838C382.26 167.651 382.554 167.367 382.778 166.984C383.012 166.592 383.128 166.097 383.128 165.5C383.128 164.893 383.016 164.399 382.792 164.016C382.568 163.633 382.274 163.353 381.91 163.176C381.556 162.989 381.173 162.896 380.762 162.896C380.352 162.896 379.969 162.989 379.614 163.176C379.26 163.353 378.97 163.638 378.746 164.03C378.532 164.413 378.424 164.903 378.424 165.5C378.424 166.107 378.532 166.601 378.746 166.984C378.961 167.367 379.241 167.651 379.586 167.838C379.941 168.015 380.324 168.104 380.734 168.104ZM386.43 162V160.04H387.48V162H389.342V162.98H387.48V166.746C387.48 167.175 387.569 167.488 387.746 167.684C387.933 167.88 388.166 167.997 388.446 168.034C388.736 168.071 389.034 168.071 389.342 168.034V168.944C388.978 169.028 388.619 169.051 388.264 169.014C387.919 168.977 387.606 168.874 387.326 168.706C387.056 168.529 386.836 168.281 386.668 167.964C386.51 167.647 386.43 167.241 386.43 166.746V162.98H385.38V162H386.43ZM396.06 169H394.94V159.2H396.172L399.812 167.46L403.438 159.2H404.656V169H403.536V161.412L400.204 169H399.406L396.06 161.412V169ZM409.952 169.098C409.289 169.098 408.696 168.953 408.174 168.664C407.651 168.375 407.24 167.964 406.942 167.432C406.643 166.891 406.494 166.251 406.494 165.514C406.494 164.767 406.643 164.123 406.942 163.582C407.25 163.041 407.665 162.625 408.188 162.336C408.72 162.047 409.317 161.902 409.98 161.902C410.642 161.902 411.235 162.047 411.758 162.336C412.29 162.625 412.705 163.041 413.004 163.582C413.312 164.114 413.466 164.749 413.466 165.486C413.466 166.233 413.312 166.877 413.004 167.418C412.696 167.959 412.276 168.375 411.744 168.664C411.212 168.953 410.614 169.098 409.952 169.098ZM409.938 168.104C410.348 168.104 410.736 168.015 411.1 167.838C411.464 167.651 411.758 167.367 411.982 166.984C412.215 166.592 412.332 166.097 412.332 165.5C412.332 164.893 412.22 164.399 411.996 164.016C411.772 163.633 411.478 163.353 411.114 163.176C410.759 162.989 410.376 162.896 409.966 162.896C409.555 162.896 409.172 162.989 408.818 163.176C408.463 163.353 408.174 163.638 407.95 164.03C407.735 164.413 407.628 164.903 407.628 165.5C407.628 166.107 407.735 166.601 407.95 166.984C408.164 167.367 408.444 167.651 408.79 167.838C409.144 168.015 409.527 168.104 409.938 168.104ZM415.185 162H416.151L416.207 162.994C416.431 162.649 416.725 162.383 417.089 162.196C417.453 162 417.878 161.902 418.363 161.902C418.895 161.902 419.362 162.019 419.763 162.252C420.165 162.476 420.477 162.817 420.701 163.274C420.925 163.722 421.037 164.287 421.037 164.968V169H419.987V165.094C419.987 164.366 419.829 163.815 419.511 163.442C419.203 163.059 418.755 162.868 418.167 162.868C417.561 162.868 417.085 163.069 416.739 163.47C416.403 163.871 416.235 164.464 416.235 165.248V169H415.185V162ZM423.522 162V160.04H424.572V162H426.434V162.98H424.572V166.746C424.572 167.175 424.661 167.488 424.838 167.684C425.025 167.88 425.258 167.997 425.538 168.034C425.827 168.071 426.126 168.071 426.434 168.034V168.944C426.07 169.028 425.711 169.051 425.356 169.014C425.011 168.977 424.698 168.874 424.418 168.706C424.147 168.529 423.928 168.281 423.76 167.964C423.601 167.647 423.522 167.241 423.522 166.746V162.98H422.472V162H423.522ZM427.996 158.92H429.046V162.952C429.27 162.616 429.573 162.359 429.956 162.182C430.339 161.995 430.768 161.902 431.244 161.902C431.757 161.902 432.215 162.019 432.616 162.252C433.017 162.485 433.33 162.831 433.554 163.288C433.787 163.745 433.904 164.315 433.904 164.996V169H432.784V165.122C432.784 164.394 432.63 163.839 432.322 163.456C432.014 163.064 431.566 162.868 430.978 162.868C430.371 162.868 429.895 163.073 429.55 163.484C429.214 163.895 429.046 164.492 429.046 165.276V169H427.996V158.92ZM436.513 166.858C436.569 167.138 436.672 167.371 436.821 167.558C436.971 167.735 437.162 167.871 437.395 167.964C437.638 168.057 437.918 168.104 438.235 168.104C438.73 168.104 439.103 168.011 439.355 167.824C439.617 167.628 439.747 167.385 439.747 167.096C439.747 166.853 439.668 166.657 439.509 166.508C439.36 166.359 439.159 166.237 438.907 166.144C438.655 166.041 438.375 165.953 438.067 165.878C437.825 165.822 437.563 165.757 437.283 165.682C437.003 165.598 436.737 165.486 436.485 165.346C436.233 165.206 436.028 165.024 435.869 164.8C435.711 164.576 435.631 164.282 435.631 163.918C435.631 163.517 435.739 163.167 435.953 162.868C436.177 162.56 436.481 162.322 436.863 162.154C437.255 161.986 437.703 161.902 438.207 161.902C438.786 161.902 439.299 162.028 439.747 162.28C440.205 162.532 440.522 162.924 440.699 163.456L439.719 163.792C439.654 163.549 439.533 163.363 439.355 163.232C439.187 163.101 438.996 163.013 438.781 162.966C438.576 162.919 438.371 162.896 438.165 162.896C437.745 162.896 437.405 162.98 437.143 163.148C436.891 163.307 436.765 163.549 436.765 163.876C436.765 164.053 436.807 164.203 436.891 164.324C436.975 164.436 437.092 164.529 437.241 164.604C437.391 164.679 437.568 164.744 437.773 164.8C437.979 164.847 438.203 164.903 438.445 164.968C438.716 165.033 438.991 165.117 439.271 165.22C439.551 165.313 439.813 165.439 440.055 165.598C440.298 165.747 440.494 165.943 440.643 166.186C440.802 166.419 440.881 166.713 440.881 167.068C440.881 167.479 440.769 167.838 440.545 168.146C440.321 168.445 440.009 168.678 439.607 168.846C439.215 169.014 438.758 169.098 438.235 169.098C437.517 169.098 436.919 168.939 436.443 168.622C435.977 168.295 435.664 167.819 435.505 167.194L436.513 166.858ZM443.158 169.07C442.943 169.07 442.761 168.995 442.612 168.846C442.472 168.697 442.402 168.515 442.402 168.3C442.402 168.085 442.472 167.903 442.612 167.754C442.761 167.605 442.943 167.53 443.158 167.53C443.363 167.53 443.541 167.605 443.69 167.754C443.839 167.903 443.914 168.085 443.914 168.3C443.914 168.515 443.839 168.697 443.69 168.846C443.541 168.995 443.363 169.07 443.158 169.07Z" fill="#4B5563"/>
</g>
<g filter="url(#filter8_dd_5522_71939)">
<g filter="url(#filter9_dd_5522_71939)">
<path d="M406.729 136.912C406.698 136.483 406.787 136.055 406.986 135.674C407.185 135.294 407.486 134.976 407.855 134.757C408.225 134.538 408.648 134.426 409.077 134.433C409.507 134.441 409.925 134.568 410.287 134.8L429.732 147.314C431.6 148.515 430.862 151.406 428.648 151.565L419.544 152.222C419.191 152.247 418.848 152.353 418.542 152.532C418.236 152.711 417.975 152.958 417.78 153.253L412.627 161.079C411.413 162.924 408.549 162.177 408.39 159.972L406.729 136.912Z" fill="#27272A"/>
<path d="M406.729 136.912C406.698 136.483 406.787 136.055 406.986 135.674C407.185 135.294 407.486 134.976 407.855 134.757C408.225 134.538 408.648 134.426 409.077 134.433C409.507 134.441 409.925 134.568 410.287 134.8L429.732 147.314C431.6 148.515 430.862 151.406 428.648 151.565L419.544 152.222C419.191 152.247 418.848 152.353 418.542 152.532C418.236 152.711 417.975 152.958 417.78 153.253L412.627 161.079C411.413 162.924 408.549 162.177 408.39 159.972L406.729 136.912Z" stroke="#FAFAFA"/>
</g>
</g>
<rect width="704" height="290" fill="url(#paint6_linear_5522_71939)"/>
</g>
<defs>
<filter id="filter0_dd_5522_71939" x="173" y="209" width="359" height="80" filterUnits="userSpaceOnUse" color-interpolation-filters="sRGB">
<feFlood flood-opacity="0" result="BackgroundImageFix"/>
<feColorMatrix in="SourceAlpha" type="matrix" values="0 0 0 0 0 0 0 0 0 0 0 0 0 0 0 0 0 0 127 0" result="hardAlpha"/>
<feMorphology radius="4" operator="erode" in="SourceAlpha" result="effect1_dropShadow_5522_71939"/>
<feOffset dy="18"/>
<feGaussianBlur stdDeviation="8"/>
<feComposite in2="hardAlpha" operator="out"/>
<feColorMatrix type="matrix" values="0 0 0 0 0.0588235 0 0 0 0 0.141176 0 0 0 0 0.0666667 0 0 0 0.01 0"/>
<feBlend mode="normal" in2="BackgroundImageFix" result="effect1_dropShadow_5522_71939"/>
<feColorMatrix in="SourceAlpha" type="matrix" values="0 0 0 0 0 0 0 0 0 0 0 0 0 0 0 0 0 0 127 0" result="hardAlpha"/>
<feMorphology radius="4" operator="erode" in="SourceAlpha" result="effect2_dropShadow_5522_71939"/>
<feOffset dy="15"/>
<feGaussianBlur stdDeviation="10"/>
<feComposite in2="hardAlpha" operator="out"/>
<feColorMatrix type="matrix" values="0 0 0 0 0.0627451 0 0 0 0 0.0588235 0 0 0 0 0.141176 0 0 0 0.02 0"/>
<feBlend mode="normal" in2="effect1_dropShadow_5522_71939" result="effect2_dropShadow_5522_71939"/>
<feBlend mode="normal" in="SourceGraphic" in2="effect2_dropShadow_5522_71939" result="shape"/>
</filter>
<filter id="filter1_dd_5522_71939" x="188" y="19" width="330" height="80" filterUnits="userSpaceOnUse" color-interpolation-filters="sRGB">
<feFlood flood-opacity="0" result="BackgroundImageFix"/>
<feColorMatrix in="SourceAlpha" type="matrix" values="0 0 0 0 0 0 0 0 0 0 0 0 0 0 0 0 0 0 127 0" result="hardAlpha"/>
<feMorphology radius="4" operator="erode" in="SourceAlpha" result="effect1_dropShadow_5522_71939"/>
<feOffset dy="18"/>
<feGaussianBlur stdDeviation="8"/>
<feComposite in2="hardAlpha" operator="out"/>
<feColorMatrix type="matrix" values="0 0 0 0 0.0588235 0 0 0 0 0.141176 0 0 0 0 0.0666667 0 0 0 0.01 0"/>
<feBlend mode="normal" in2="BackgroundImageFix" result="effect1_dropShadow_5522_71939"/>
<feColorMatrix in="SourceAlpha" type="matrix" values="0 0 0 0 0 0 0 0 0 0 0 0 0 0 0 0 0 0 127 0" result="hardAlpha"/>
<feMorphology radius="4" operator="erode" in="SourceAlpha" result="effect2_dropShadow_5522_71939"/>
<feOffset dy="15"/>
<feGaussianBlur stdDeviation="10"/>
<feComposite in2="hardAlpha" operator="out"/>
<feColorMatrix type="matrix" values="0 0 0 0 0.0627451 0 0 0 0 0.0588235 0 0 0 0 0.141176 0 0 0 0.02 0"/>
<feBlend mode="normal" in2="effect1_dropShadow_5522_71939" result="effect2_dropShadow_5522_71939"/>
<feBlend mode="normal" in="SourceGraphic" in2="effect2_dropShadow_5522_71939" result="shape"/>
</filter>
<filter id="filter2_dd_5522_71939" x="462.5" y="-4" width="72.9902" height="72.9902" filterUnits="userSpaceOnUse" color-interpolation-filters="sRGB">
<feFlood flood-opacity="0" result="BackgroundImageFix"/>
<feColorMatrix in="SourceAlpha" type="matrix" values="0 0 0 0 0 0 0 0 0 0 0 0 0 0 0 0 0 0 127 0" result="hardAlpha"/>
<feMorphology radius="2" operator="erode" in="SourceAlpha" result="effect1_dropShadow_5522_71939"/>
<feOffset dy="4"/>
<feGaussianBlur stdDeviation="3"/>
<feComposite in2="hardAlpha" operator="out"/>
<feColorMatrix type="matrix" values="0 0 0 0 0.0627451 0 0 0 0 0.0588235 0 0 0 0 0.141176 0 0 0 0.03 0"/>
<feBlend mode="normal" in2="BackgroundImageFix" result="effect1_dropShadow_5522_71939"/>
<feColorMatrix in="SourceAlpha" type="matrix" values="0 0 0 0 0 0 0 0 0 0 0 0 0 0 0 0 0 0 127 0" result="hardAlpha"/>
<feMorphology radius="4" operator="erode" in="SourceAlpha" result="effect2_dropShadow_5522_71939"/>
<feOffset dy="12"/>
<feGaussianBlur stdDeviation="8"/>
<feComposite in2="hardAlpha" operator="out"/>
<feColorMatrix type="matrix" values="0 0 0 0 0.0627451 0 0 0 0 0.0588235 0 0 0 0 0.141176 0 0 0 0.08 0"/>
<feBlend mode="normal" in2="effect1_dropShadow_5522_71939" result="effect2_dropShadow_5522_71939"/>
<feBlend mode="normal" in="SourceGraphic" in2="effect2_dropShadow_5522_71939" result="shape"/>
</filter>
<filter id="filter3_dd_5522_71939" x="161.5" y="234" width="63.1914" height="63.1914" filterUnits="userSpaceOnUse" color-interpolation-filters="sRGB">
<feFlood flood-opacity="0" result="BackgroundImageFix"/>
<feColorMatrix in="SourceAlpha" type="matrix" values="0 0 0 0 0 0 0 0 0 0 0 0 0 0 0 0 0 0 127 0" result="hardAlpha"/>
<feMorphology radius="2" operator="erode" in="SourceAlpha" result="effect1_dropShadow_5522_71939"/>
<feOffset dy="4"/>
<feGaussianBlur stdDeviation="3"/>
<feComposite in2="hardAlpha" operator="out"/>
<feColorMatrix type="matrix" values="0 0 0 0 0.0627451 0 0 0 0 0.0588235 0 0 0 0 0.141176 0 0 0 0.03 0"/>
<feBlend mode="normal" in2="BackgroundImageFix" result="effect1_dropShadow_5522_71939"/>
<feColorMatrix in="SourceAlpha" type="matrix" values="0 0 0 0 0 0 0 0 0 0 0 0 0 0 0 0 0 0 127 0" result="hardAlpha"/>
<feMorphology radius="4" operator="erode" in="SourceAlpha" result="effect2_dropShadow_5522_71939"/>
<feOffset dy="12"/>
<feGaussianBlur stdDeviation="8"/>
<feComposite in2="hardAlpha" operator="out"/>
<feColorMatrix type="matrix" values="0 0 0 0 0.0627451 0 0 0 0 0.0588235 0 0 0 0 0.141176 0 0 0 0.08 0"/>
<feBlend mode="normal" in2="effect1_dropShadow_5522_71939" result="effect2_dropShadow_5522_71939"/>
<feBlend mode="normal" in="SourceGraphic" in2="effect2_dropShadow_5522_71939" result="shape"/>
</filter>
<filter id="filter4_f_5522_71939" x="258.633" y="34.6406" width="647.666" height="621.398" filterUnits="userSpaceOnUse" color-interpolation-filters="sRGB">
<feFlood flood-opacity="0" result="BackgroundImageFix"/>
<feBlend mode="normal" in="SourceGraphic" in2="BackgroundImageFix" result="shape"/>
<feGaussianBlur stdDeviation="100" result="effect1_foregroundBlur_5522_71939"/>
</filter>
<filter id="filter5_f_5522_71939" x="-304.365" y="-74.1367" width="542.801" height="542.166" filterUnits="userSpaceOnUse" color-interpolation-filters="sRGB">
<feFlood flood-opacity="0" result="BackgroundImageFix"/>
<feBlend mode="normal" in="SourceGraphic" in2="BackgroundImageFix" result="shape"/>
<feGaussianBlur stdDeviation="85" result="effect1_foregroundBlur_5522_71939"/>
</filter>
<filter id="filter6_dd_5522_71939" x="124" y="66" width="456" height="166" filterUnits="userSpaceOnUse" color-interpolation-filters="sRGB">
<feFlood flood-opacity="0" result="BackgroundImageFix"/>
<feColorMatrix in="SourceAlpha" type="matrix" values="0 0 0 0 0 0 0 0 0 0 0 0 0 0 0 0 0 0 127 0" result="hardAlpha"/>
<feMorphology radius="4" operator="erode" in="SourceAlpha" result="effect1_dropShadow_5522_71939"/>
<feOffset dy="4"/>
<feGaussianBlur stdDeviation="8"/>
<feComposite in2="hardAlpha" operator="out"/>
<feColorMatrix type="matrix" values="0 0 0 0 0.0588235 0 0 0 0 0.141176 0 0 0 0 0.0666667 0 0 0 0.02 0"/>
<feBlend mode="normal" in2="BackgroundImageFix" result="effect1_dropShadow_5522_71939"/>
<feColorMatrix in="SourceAlpha" type="matrix" values="0 0 0 0 0 0 0 0 0 0 0 0 0 0 0 0 0 0 127 0" result="hardAlpha"/>
<feMorphology radius="4" operator="erode" in="SourceAlpha" result="effect2_dropShadow_5522_71939"/>
<feOffset dy="10"/>
<feGaussianBlur stdDeviation="16"/>
<feComposite in2="hardAlpha" operator="out"/>
<feColorMatrix type="matrix" values="0 0 0 0 0.0627451 0 0 0 0 0.0588235 0 0 0 0 0.141176 0 0 0 0.05 0"/>
<feBlend mode="normal" in2="effect1_dropShadow_5522_71939" result="effect2_dropShadow_5522_71939"/>
<feBlend mode="normal" in="SourceGraphic" in2="effect2_dropShadow_5522_71939" result="shape"/>
</filter>
<filter id="filter7_i_5522_71939" x="176" y="104" width="352" height="44" filterUnits="userSpaceOnUse" color-interpolation-filters="sRGB">
<feFlood flood-opacity="0" result="BackgroundImageFix"/>
<feBlend mode="normal" in="SourceGraphic" in2="BackgroundImageFix" result="shape"/>
<feColorMatrix in="SourceAlpha" type="matrix" values="0 0 0 0 0 0 0 0 0 0 0 0 0 0 0 0 0 0 127 0" result="hardAlpha"/>
<feOffset dy="4"/>
<feGaussianBlur stdDeviation="6"/>
<feComposite in2="hardAlpha" operator="arithmetic" k2="-1" k3="1"/>
<feColorMatrix type="matrix" values="0 0 0 0 0.626803 0 0 0 0 0.756315 0 0 0 0 0.998197 0 0 0 0.5 0"/>
<feBlend mode="normal" in2="shape" result="effect1_innerShadow_5522_71939"/>
</filter>
<filter id="filter8_dd_5522_71939" x="391" y="126" width="51.5664" height="51.5664" filterUnits="userSpaceOnUse" color-interpolation-filters="sRGB">
<feFlood flood-opacity="0" result="BackgroundImageFix"/>
<feColorMatrix in="SourceAlpha" type="matrix" values="0 0 0 0 0 0 0 0 0 0 0 0 0 0 0 0 0 0 127 0" result="hardAlpha"/>
<feMorphology radius="2" operator="erode" in="SourceAlpha" result="effect1_dropShadow_5522_71939"/>
<feOffset dy="2"/>
<feGaussianBlur stdDeviation="2"/>
<feComposite in2="hardAlpha" operator="out"/>
<feColorMatrix type="matrix" values="0 0 0 0 0.0627451 0 0 0 0 0.0588235 0 0 0 0 0.141176 0 0 0 0.06 0"/>
<feBlend mode="normal" in2="BackgroundImageFix" result="effect1_dropShadow_5522_71939"/>
<feColorMatrix in="SourceAlpha" type="matrix" values="0 0 0 0 0 0 0 0 0 0 0 0 0 0 0 0 0 0 127 0" result="hardAlpha"/>
<feMorphology radius="2" operator="erode" in="SourceAlpha" result="effect2_dropShadow_5522_71939"/>
<feOffset dy="4"/>
<feGaussianBlur stdDeviation="4"/>
<feComposite in2="hardAlpha" operator="out"/>
<feColorMatrix type="matrix" values="0 0 0 0 0.0627451 0 0 0 0 0.0588235 0 0 0 0 0.141176 0 0 0 0.1 0"/>
<feBlend mode="normal" in2="effect1_dropShadow_5522_71939" result="effect2_dropShadow_5522_71939"/>
<feBlend mode="normal" in="SourceGraphic" in2="effect2_dropShadow_5522_71939" result="shape"/>
</filter>
<filter id="filter9_dd_5522_71939" x="378.223" y="115.934" width="81.0742" height="84.6895" filterUnits="userSpaceOnUse" color-interpolation-filters="sRGB">
<feFlood flood-opacity="0" result="BackgroundImageFix"/>
<feColorMatrix in="SourceAlpha" type="matrix" values="0 0 0 0 0 0 0 0 0 0 0 0 0 0 0 0 0 0 127 0" result="hardAlpha"/>
<feMorphology radius="4" operator="erode" in="SourceAlpha" result="effect1_dropShadow_5522_71939"/>
<feOffset dy="4"/>
<feGaussianBlur stdDeviation="8"/>
<feComposite in2="hardAlpha" operator="out"/>
<feColorMatrix type="matrix" values="0 0 0 0 0.0588235 0 0 0 0 0.141176 0 0 0 0 0.0666667 0 0 0 0.02 0"/>
<feBlend mode="normal" in2="BackgroundImageFix" result="effect1_dropShadow_5522_71939"/>
<feColorMatrix in="SourceAlpha" type="matrix" values="0 0 0 0 0 0 0 0 0 0 0 0 0 0 0 0 0 0 127 0" result="hardAlpha"/>
<feMorphology radius="4" operator="erode" in="SourceAlpha" result="effect2_dropShadow_5522_71939"/>
<feOffset dy="10"/>
<feGaussianBlur stdDeviation="16"/>
<feComposite in2="hardAlpha" operator="out"/>
<feColorMatrix type="matrix" values="0 0 0 0 0.0627451 0 0 0 0 0.0588235 0 0 0 0 0.141176 0 0 0 0.05 0"/>
<feBlend mode="normal" in2="effect1_dropShadow_5522_71939" result="effect2_dropShadow_5522_71939"/>
<feBlend mode="normal" in="SourceGraphic" in2="effect2_dropShadow_5522_71939" result="shape"/>
</filter>
<linearGradient id="paint0_linear_5522_71939" x1="472.693" y1="83" x2="355" y2="83" gradientUnits="userSpaceOnUse">
<stop stop-color="#FAFAFA"/>
<stop offset="0.534678" stop-color="#266AE9"/>
<stop offset="1" stop-color="#FAFAFA"/>
</linearGradient>
<linearGradient id="paint1_linear_5522_71939" x1="532" y1="276.693" x2="532" y2="159" gradientUnits="userSpaceOnUse">
<stop stop-color="#FAFAFA"/>
<stop offset="0.534678" stop-color="#266AE9"/>
<stop offset="1" stop-color="#FAFAFA"/>
</linearGradient>
<linearGradient id="paint2_linear_5522_71939" x1="332" y1="315.693" x2="332" y2="198" gradientUnits="userSpaceOnUse">
<stop stop-color="#FAFAFA"/>
<stop offset="0.534678" stop-color="#266AE9"/>
<stop offset="1" stop-color="#FAFAFA"/>
</linearGradient>
<linearGradient id="paint3_linear_5522_71939" x1="203.954" y1="150" x2="98" y2="150" gradientUnits="userSpaceOnUse">
<stop stop-color="#FAFAFA"/>
<stop offset="0.534678" stop-color="#266AE9"/>
<stop offset="1" stop-color="#FAFAFA"/>
</linearGradient>
<linearGradient id="paint4_linear_5522_71939" x1="350.481" y1="479.172" x2="291.068" y2="354.352" gradientUnits="userSpaceOnUse">
<stop stop-color="#5C85D5"/>
<stop offset="1" stop-color="#C3A7F3"/>
</linearGradient>
<linearGradient id="paint5_linear_5522_71939" x1="159.948" y1="53.0182" x2="219.15" y2="150.007" gradientUnits="userSpaceOnUse">
<stop stop-color="#5C85D5"/>
<stop offset="1" stop-color="#C3A7F3"/>
</linearGradient>
<linearGradient id="paint6_linear_5522_71939" x1="352" y1="6.18902" x2="352" y2="300.573" gradientUnits="userSpaceOnUse">
<stop stop-color="#FAFAFA"/>
<stop offset="0.197621" stop-color="#FAFAFA" stop-opacity="0"/>
<stop offset="0.644231" stop-color="#FAFAFA" stop-opacity="0"/>
<stop offset="0.867519" stop-color="#FAFAFA"/>
</linearGradient>
<clipPath id="clip0_5522_71939">
<rect width="704" height="290" fill="white"/>
</clipPath>
<clipPath id="clip1_5522_71939">
<rect width="24" height="24" fill="white" transform="translate(490.51 5.79883) rotate(15)"/>
</clipPath>
<clipPath id="clip2_5522_71939">
<rect width="18" height="18" fill="white" transform="translate(182.072 247.23) rotate(-15)"/>
</clipPath>
</defs>
</svg>
