<svg width="358" height="230" viewBox="0 0 358 230" fill="none" xmlns="http://www.w3.org/2000/svg">
<g clip-path="url(#clip0_5522_89578)">
<g clip-path="url(#clip1_5522_89578)">
<g opacity="0.25" filter="url(#filter0_f_5522_89578)">
<path d="M155.422 72.9933C76.0919 96.9038 8.1968 172.007 8.1968 172.007C8.1968 172.007 -28.1047 149.016 -42.1602 142.236C0.988953 133.046 16.0061 83.249 51.6493 54.7886C73.1578 52.5043 134.338 71.6549 155.422 72.9933Z" fill="url(#paint0_linear_5522_89578)"/>
</g>
<g opacity="0.3" filter="url(#filter1_f_5522_89578)">
<path d="M203.242 72.9933C282.573 96.9038 350.468 172.007 350.468 172.007C350.468 172.007 386.769 149.016 400.825 142.236C357.675 133.046 342.658 83.249 307.014 54.7886C285.506 52.5043 224.326 71.6549 203.242 72.9933Z" fill="url(#paint1_linear_5522_89578)"/>
</g>
<path d="M-133.687 32.2422L-133.687 58.3249C-133.688 62.4407 -130.342 65.7772 -126.216 65.7772H171.153C175.28 65.7772 178.625 69.1136 178.625 73.2294V91.86" stroke="url(#paint2_linear_5522_89578)" stroke-linecap="round" stroke-linejoin="round"/>
<path d="M258.571 32.2422V58.161C258.571 62.2767 255.226 65.6132 251.099 65.6132H186.097C181.97 65.6132 178.625 68.9496 178.625 73.0655V91.86" stroke="url(#paint3_linear_5522_89578)" stroke-linecap="round" stroke-linejoin="round"/>
<path d="M490.937 32.2422V58.3249C490.937 62.4407 487.592 65.7772 483.466 65.7772H186.097C181.97 65.7772 178.625 69.1136 178.625 73.2294V91.86" stroke="url(#paint4_linear_5522_89578)" stroke-linecap="round" stroke-linejoin="round"/>
<path d="M98.6797 32.2422V58.161C98.6797 62.2767 102.025 65.6132 106.151 65.6132H171.154C175.281 65.6132 178.626 68.9496 178.626 73.0655V91.86" stroke="url(#paint5_linear_5522_89578)" stroke-linecap="round" stroke-linejoin="round"/>
<path d="M-133.687 179.796L-133.687 153.713C-133.688 149.597 -130.342 146.261 -126.216 146.261H171.153C175.28 146.261 178.625 142.924 178.625 138.808V120.178" stroke="url(#paint6_linear_5522_89578)" stroke-linecap="round" stroke-linejoin="round"/>
<path d="M258.571 179.796V153.877C258.571 149.761 255.226 146.424 251.099 146.424H186.097C181.97 146.424 178.625 143.088 178.625 138.972V120.178" stroke="url(#paint7_linear_5522_89578)" stroke-linecap="round" stroke-linejoin="round"/>
<path d="M490.937 179.796V153.713C490.937 149.597 487.592 146.261 483.466 146.261H186.097C181.97 146.261 178.625 142.924 178.625 138.808V120.178" stroke="url(#paint8_linear_5522_89578)" stroke-linecap="round" stroke-linejoin="round"/>
<path d="M98.6797 179.796V153.877C98.6797 149.761 102.025 146.424 106.151 146.424H171.154C175.281 146.424 178.626 143.088 178.626 138.972V120.178" stroke="url(#paint9_linear_5522_89578)" stroke-linecap="round" stroke-linejoin="round"/>
<g filter="url(#filter2_ddi_5522_89578)">
<path d="M7.1534 179.797H-124.347C-129.298 179.797 -133.312 183.801 -133.312 188.74V267.733C-133.312 272.672 -129.298 276.676 -124.347 276.676H7.1534C12.1051 276.676 16.1193 272.672 16.1193 267.733V188.74C16.1193 183.801 12.1051 179.797 7.1534 179.797Z" fill="black" fill-opacity="0.01"/>
<path d="M7.15483 180.17H-124.345C-129.091 180.17 -132.938 184.007 -132.938 188.74V267.734C-132.938 272.467 -129.091 276.304 -124.345 276.304H7.15483C11.9003 276.304 15.7472 272.467 15.7472 267.734V188.74C15.7472 184.007 11.9003 180.17 7.15483 180.17Z" stroke="url(#paint10_linear_5522_89578)"/>
<path d="M7.15483 180.17H-124.345C-129.091 180.17 -132.938 184.007 -132.938 188.74V267.734C-132.938 272.467 -129.091 276.304 -124.345 276.304H7.15483C11.9003 276.304 15.7472 272.467 15.7472 267.734V188.74C15.7472 184.007 11.9003 180.17 7.15483 180.17Z" stroke="white" stroke-opacity="0.4"/>
<g opacity="0.6">
<path d="M4.16513 191.721H-1.81214C-3.46272 191.721 -4.80078 193.055 -4.80078 194.702V200.663C-4.80078 202.31 -3.46272 203.644 -1.81214 203.644H4.16513C5.81571 203.644 7.15376 202.31 7.15376 200.663V194.702C7.15376 193.055 5.81571 191.721 4.16513 191.721Z" fill="white"/>
<path d="M2.66868 206.625H-48.1381C-50.614 206.625 -52.6211 208.627 -52.6211 211.096V217.058C-52.6211 219.528 -50.614 221.529 -48.1381 221.529H2.66868C5.14454 221.529 7.15163 219.528 7.15163 217.058V211.096C7.15163 208.627 5.14454 206.625 2.66868 206.625Z" fill="white"/>
</g>
</g>
<g filter="url(#filter3_ddi_5522_89578)">
<path d="M165.552 179.797H34.0518C29.1001 179.797 25.0859 183.801 25.0859 188.74V267.733C25.0859 272.672 29.1001 276.676 34.0518 276.676H165.552C170.504 276.676 174.518 272.672 174.518 267.733V188.74C174.518 183.801 170.504 179.797 165.552 179.797Z" fill="black" fill-opacity="0.01"/>
<path d="M165.553 180.17H34.0533C29.3079 180.17 25.4609 184.007 25.4609 188.74V267.734C25.4609 272.467 29.3079 276.304 34.0533 276.304H165.553C170.299 276.304 174.146 272.467 174.146 267.734V188.74C174.146 184.007 170.299 180.17 165.553 180.17Z" stroke="url(#paint11_linear_5522_89578)"/>
<path d="M165.553 180.17H34.0533C29.3079 180.17 25.4609 184.007 25.4609 188.74V267.734C25.4609 272.467 29.3079 276.304 34.0533 276.304H165.553C170.299 276.304 174.146 272.467 174.146 267.734V188.74C174.146 184.007 170.299 180.17 165.553 180.17Z" stroke="white" stroke-opacity="0.4"/>
<g opacity="0.8">
<path d="M122.216 191.721H37.0394C35.3888 191.721 34.0508 193.055 34.0508 194.702V200.663C34.0508 202.31 35.3888 203.644 37.0394 203.644H122.216C123.866 203.644 125.204 202.31 125.204 200.663V194.702C125.204 193.055 123.866 191.721 122.216 191.721Z" fill="white"/>
<path d="M144.63 191.721H138.653C137.002 191.721 135.664 193.055 135.664 194.702V200.663C135.664 202.31 137.002 203.644 138.653 203.644H144.63C146.281 203.644 147.619 202.31 147.619 200.663V194.702C147.619 193.055 146.281 191.721 144.63 191.721Z" fill="white"/>
<path d="M162.564 191.721H156.586C154.936 191.721 153.598 193.055 153.598 194.702V200.663C153.598 202.31 154.936 203.644 156.586 203.644H162.564C164.214 203.644 165.552 202.31 165.552 200.663V194.702C165.552 193.055 164.214 191.721 162.564 191.721Z" fill="white"/>
<path d="M89.3406 206.625H38.5337C36.0579 206.625 34.0508 208.627 34.0508 211.096V217.058C34.0508 219.528 36.0579 221.529 38.5337 221.529H89.3406C91.8164 221.529 93.8235 219.528 93.8235 217.058V211.096C93.8235 208.627 91.8164 206.625 89.3406 206.625Z" fill="white"/>
<path d="M161.067 206.625H110.26C107.784 206.625 105.777 208.627 105.777 211.096V217.058C105.777 219.528 107.784 221.529 110.26 221.529H161.067C163.543 221.529 165.55 219.528 165.55 217.058V211.096C165.55 208.627 163.543 206.625 161.067 206.625Z" fill="white"/>
</g>
<g filter="url(#filter4_ddi_5522_89578)">
<path d="M84.8594 179.797C84.8594 171.565 91.5494 164.893 99.8026 164.893C108.056 164.893 114.746 171.565 114.746 179.797C114.746 188.029 108.056 194.701 99.8026 194.701C91.5494 194.701 84.8594 188.029 84.8594 179.797Z" fill="#FAFAFA" fill-opacity="0.06"/>
<mask id="mask0_5522_89578" style="mask-type:luminance" maskUnits="userSpaceOnUse" x="84" y="164" width="31" height="31">
<path d="M84.8594 179.797C84.8594 171.565 91.5494 164.893 99.8026 164.893C108.056 164.893 114.746 171.565 114.746 179.797C114.746 188.029 108.056 194.701 99.8026 194.701C91.5494 194.701 84.8594 188.029 84.8594 179.797Z" fill="white"/>
</mask>
<g mask="url(#mask0_5522_89578)">
<path d="M99.8036 194.701V193.955C91.9637 193.955 85.6076 187.616 85.6076 179.796H84.8604H84.1133C84.1133 188.439 91.1381 195.446 99.8036 195.446V194.701ZM114.747 179.796H114C114 187.616 107.644 193.955 99.8036 193.955V194.701V195.446C108.469 195.446 115.494 188.439 115.494 179.796H114.747ZM99.8036 164.892V165.637C107.644 165.637 114 171.977 114 179.796H114.747H115.494C115.494 171.153 108.469 164.146 99.8036 164.146V164.892ZM99.8036 164.892V164.146C91.1381 164.146 84.1133 171.153 84.1133 179.796H84.8604H85.6076C85.6076 171.977 91.9637 165.637 99.8036 165.637V164.892Z" fill="url(#paint12_linear_5522_89578)"/>
</g>
<path d="M101.049 174.207V176.691C101.049 176.856 101.115 177.014 101.231 177.131C101.348 177.247 101.506 177.312 101.671 177.312H104.162M101.049 174.207H96.6908C96.3606 174.207 96.0438 174.338 95.8099 174.571C95.5768 174.804 95.4453 175.12 95.4453 175.449V184.143C95.4453 184.472 95.5768 184.788 95.8099 185.022C96.0438 185.254 96.3606 185.385 96.6908 185.385H102.917C103.247 185.385 103.564 185.254 103.797 185.022C104.031 184.788 104.162 184.472 104.162 184.143V177.312M101.049 174.207L104.162 177.312M97.9356 182.902V179.796M99.8035 182.902V182.28M101.671 182.902V181.038" stroke="#27272A" stroke-width="0.7" stroke-linecap="round" stroke-linejoin="round"/>
</g>
</g>
<g filter="url(#filter5_ddi_5522_89578)">
<path d="M323.95 179.797H192.45C187.499 179.797 183.484 183.801 183.484 188.74V267.733C183.484 272.672 187.499 276.676 192.45 276.676H323.95C328.902 276.676 332.916 272.672 332.916 267.733V188.74C332.916 183.801 328.902 179.797 323.95 179.797Z" fill="black" fill-opacity="0.01"/>
<path d="M323.952 180.17H192.452C187.706 180.17 183.859 184.007 183.859 188.74V267.734C183.859 272.467 187.706 276.304 192.452 276.304H323.952C328.697 276.304 332.544 272.467 332.544 267.734V188.74C332.544 184.007 328.697 180.17 323.952 180.17Z" stroke="url(#paint13_linear_5522_89578)"/>
<path d="M323.952 180.17H192.452C187.706 180.17 183.859 184.007 183.859 188.74V267.734C183.859 272.467 187.706 276.304 192.452 276.304H323.952C328.697 276.304 332.544 272.467 332.544 267.734V188.74C332.544 184.007 328.697 180.17 323.952 180.17Z" stroke="white" stroke-opacity="0.4"/>
<g opacity="0.6">
<path d="M280.614 191.721H195.438C193.787 191.721 192.449 193.055 192.449 194.702V200.663C192.449 202.31 193.787 203.644 195.438 203.644H280.614C282.265 203.644 283.603 202.31 283.603 200.663V194.702C283.603 193.055 282.265 191.721 280.614 191.721Z" fill="white"/>
<path d="M303.028 191.721H297.051C295.401 191.721 294.062 193.055 294.062 194.702V200.663C294.062 202.31 295.401 203.644 297.051 203.644H303.028C304.679 203.644 306.017 202.31 306.017 200.663V194.702C306.017 193.055 304.679 191.721 303.028 191.721Z" fill="white"/>
<path d="M320.962 191.721H314.985C313.334 191.721 311.996 193.055 311.996 194.702V200.663C311.996 202.31 313.334 203.644 314.985 203.644H320.962C322.613 203.644 323.951 202.31 323.951 200.663V194.702C323.951 193.055 322.613 191.721 320.962 191.721Z" fill="white"/>
<path d="M247.739 206.625H196.932C194.456 206.625 192.449 208.627 192.449 211.096V217.058C192.449 219.528 194.456 221.529 196.932 221.529H247.739C250.215 221.529 252.222 219.528 252.222 217.058V211.096C252.222 208.627 250.215 206.625 247.739 206.625Z" fill="white"/>
<path d="M319.466 206.625H268.659C266.183 206.625 264.176 208.627 264.176 211.096V217.058C264.176 219.528 266.183 221.529 268.659 221.529H319.466C321.941 221.529 323.949 219.528 323.949 217.058V211.096C323.949 208.627 321.941 206.625 319.466 206.625Z" fill="white"/>
</g>
<g filter="url(#filter6_ddi_5522_89578)">
<path d="M243.258 179.797C243.258 171.565 249.948 164.893 258.201 164.893C266.454 164.893 273.144 171.565 273.144 179.797C273.144 188.029 266.454 194.701 258.201 194.701C249.948 194.701 243.258 188.029 243.258 179.797Z" fill="#FAFAFA" fill-opacity="0.06"/>
<mask id="mask1_5522_89578" style="mask-type:luminance" maskUnits="userSpaceOnUse" x="243" y="164" width="31" height="31">
<path d="M243.258 179.797C243.258 171.565 249.948 164.893 258.201 164.893C266.454 164.893 273.144 171.565 273.144 179.797C273.144 188.029 266.454 194.701 258.201 194.701C249.948 194.701 243.258 188.029 243.258 179.797Z" fill="white"/>
</mask>
<g mask="url(#mask1_5522_89578)">
<path d="M258.202 194.701V193.955C250.362 193.955 244.006 187.616 244.006 179.796H243.259H242.512C242.512 188.439 249.537 195.446 258.202 195.446V194.701ZM273.145 179.796H272.398C272.398 187.616 266.042 193.955 258.202 193.955V194.701V195.446C266.868 195.446 273.892 188.439 273.892 179.796H273.145ZM258.202 164.892V165.637C266.042 165.637 272.398 171.977 272.398 179.796H273.145H273.892C273.892 171.153 266.868 164.146 258.202 164.146V164.892ZM258.202 164.892V164.146C249.537 164.146 242.512 171.153 242.512 179.796H243.259H244.006C244.006 171.977 250.362 165.637 258.202 165.637V164.892Z" fill="url(#paint14_linear_5522_89578)"/>
</g>
<path d="M255.712 180.107V182.436C255.712 183.036 256.826 183.522 258.202 183.522C259.578 183.522 260.693 183.036 260.693 182.436V180.107M259.447 174.207V176.691C259.447 176.856 259.513 177.014 259.63 177.131C259.746 177.247 259.905 177.312 260.07 177.312H262.561M259.447 174.207H255.089C254.759 174.207 254.442 174.338 254.208 174.571C253.975 174.804 253.844 175.12 253.844 175.449V184.143C253.844 184.472 253.975 184.788 254.208 185.022C254.442 185.254 254.759 185.385 255.089 185.385H261.315C261.646 185.385 261.962 185.254 262.196 185.022C262.429 184.788 262.561 184.472 262.561 184.143V177.312M259.447 174.207L262.561 177.312M255.712 180.262C255.712 180.55 255.974 180.827 256.441 181.03C256.908 181.234 257.541 181.348 258.202 181.348C258.862 181.348 259.496 181.234 259.963 181.03C260.43 180.827 260.693 180.55 260.693 180.262C260.693 179.974 260.43 179.697 259.963 179.494C259.496 179.289 258.862 179.175 258.202 179.175C257.541 179.175 256.908 179.289 256.441 179.494C255.974 179.697 255.712 179.974 255.712 180.262Z" stroke="#27272A" stroke-width="0.7" stroke-linecap="round" stroke-linejoin="round"/>
</g>
</g>
<g filter="url(#filter7_ddi_5522_89578)">
<path d="M482.345 179.797H350.845C345.893 179.797 341.879 183.801 341.879 188.74V267.733C341.879 272.672 345.893 276.676 350.845 276.676H482.345C487.297 276.676 491.311 272.672 491.311 267.733V188.74C491.311 183.801 487.297 179.797 482.345 179.797Z" fill="black" fill-opacity="0.01"/>
<path d="M482.346 180.17H350.846C346.101 180.17 342.254 184.007 342.254 188.74V267.734C342.254 272.467 346.101 276.304 350.846 276.304H482.346C487.092 276.304 490.939 272.467 490.939 267.734V188.74C490.939 184.007 487.092 180.17 482.346 180.17Z" stroke="url(#paint15_linear_5522_89578)"/>
<path d="M482.346 180.17H350.846C346.101 180.17 342.254 184.007 342.254 188.74V267.734C342.254 272.467 346.101 276.304 350.846 276.304H482.346C487.092 276.304 490.939 272.467 490.939 267.734V188.74C490.939 184.007 487.092 180.17 482.346 180.17Z" stroke="white" stroke-opacity="0.4"/>
<g opacity="0.6">
<path d="M439.009 191.721H353.832C352.182 191.721 350.844 193.055 350.844 194.702V200.663C350.844 202.31 352.182 203.644 353.832 203.644H439.009C440.659 203.644 441.997 202.31 441.997 200.663V194.702C441.997 193.055 440.659 191.721 439.009 191.721Z" fill="white"/>
<path d="M406.134 206.625H355.327C352.851 206.625 350.844 208.627 350.844 211.096V217.058C350.844 219.528 352.851 221.529 355.327 221.529H406.134C408.609 221.529 410.616 219.528 410.616 217.058V211.096C410.616 208.627 408.609 206.625 406.134 206.625Z" fill="white"/>
</g>
</g>
<g filter="url(#filter8_ii_5522_89578)">
<path d="M153.969 109C153.969 95.0059 165.342 83.6621 179.372 83.6621C193.402 83.6621 204.776 95.0059 204.776 109C204.776 122.993 193.402 134.337 179.372 134.337C165.342 134.337 153.969 122.993 153.969 109Z" fill="#F6F9FD" fill-opacity="0.2"/>
<mask id="mask2_5522_89578" style="mask-type:luminance" maskUnits="userSpaceOnUse" x="153" y="83" width="52" height="52">
<path d="M153.969 109C153.969 95.0059 165.342 83.6621 179.372 83.6621C193.402 83.6621 204.776 95.0059 204.776 109C204.776 122.993 193.402 134.337 179.372 134.337C165.342 134.337 153.969 122.993 153.969 109Z" fill="white"/>
</mask>
<g mask="url(#mask2_5522_89578)">
<path d="M178.251 134.337C164.221 134.337 152.848 122.993 152.848 109C152.848 95.0059 164.221 83.6621 178.251 83.6621H179.372C165.961 83.6621 155.089 95.0059 155.089 109C155.089 122.993 165.961 134.337 179.372 134.337H178.251ZM180.493 83.6621C194.523 83.6621 205.896 95.0059 205.896 109C205.896 122.993 194.523 134.337 180.493 134.337H179.372C192.783 134.337 203.654 122.993 203.654 109C203.654 95.0059 192.783 83.6621 179.372 83.6621H180.493Z" fill="#266AE9" fill-opacity="0.2"/>
</g>
<path d="M178.902 116.691C176.278 115.881 174.079 114.071 172.78 111.657C171.482 109.241 171.189 106.413 171.964 103.784C174.68 103.908 177.336 102.973 179.373 101.176C181.409 102.973 184.066 103.908 186.782 103.784C187.374 105.792 187.346 107.93 186.704 109.922M181.988 115.087L183.731 116.825L187.218 113.348" stroke="#266AE9" stroke-width="1.5" stroke-linecap="round" stroke-linejoin="round"/>
</g>
<g filter="url(#filter9_ddi_5522_89578)">
<path d="M43.4659 56.0898H-88.0341C-92.9858 56.0898 -97 60.0936 -97 65.0325V144.026C-97 148.965 -92.9858 152.969 -88.0341 152.969H43.4659C48.4176 152.969 52.4318 148.965 52.4318 144.026V65.0325C52.4318 60.0936 48.4176 56.0898 43.4659 56.0898Z" fill="black" fill-opacity="0.01"/>
<path d="M43.4673 56.4629H-88.0327C-92.7781 56.4629 -96.625 60.2998 -96.625 65.033V144.027C-96.625 148.76 -92.7781 152.597 -88.0327 152.597H43.4673C48.2128 152.597 52.0597 148.76 52.0597 144.027V65.033C52.0597 60.2998 48.2128 56.4629 43.4673 56.4629Z" stroke="url(#paint16_linear_5522_89578)"/>
<path d="M43.4673 56.4629H-88.0327C-92.7781 56.4629 -96.625 60.2998 -96.625 65.033V144.027C-96.625 148.76 -92.7781 152.597 -88.0327 152.597H43.4673C48.2128 152.597 52.0597 148.76 52.0597 144.027V65.033C52.0597 60.2998 48.2128 56.4629 43.4673 56.4629Z" stroke="white" stroke-opacity="0.4"/>
<g opacity="0.8">
<path d="M0.129616 68.0137H-85.0465C-86.6971 68.0137 -88.0352 69.3483 -88.0352 70.9946V76.9563C-88.0352 78.6026 -86.6971 79.9372 -85.0465 79.9372H0.129616C1.78019 79.9372 3.11825 78.6026 3.11825 76.9563V70.9946C3.11825 69.3483 1.78019 68.0137 0.129616 68.0137Z" fill="white"/>
<path d="M22.544 68.0137H16.5668C14.9162 68.0137 13.5781 69.3483 13.5781 70.9946V76.9563C13.5781 78.6026 14.9162 79.9372 16.5668 79.9372H22.544C24.1946 79.9372 25.5327 78.6026 25.5327 76.9563V70.9946C25.5327 69.3483 24.1946 68.0137 22.544 68.0137Z" fill="white"/>
<path d="M40.4776 68.0137H34.5004C32.8498 68.0137 31.5117 69.3483 31.5117 70.9946V76.9563C31.5117 78.6026 32.8498 79.9372 34.5004 79.9372H40.4776C42.1282 79.9372 43.4663 78.6026 43.4663 76.9563V70.9946C43.4663 69.3483 42.1282 68.0137 40.4776 68.0137Z" fill="white"/>
<path d="M38.9812 82.918H-11.8256C-14.3015 82.918 -16.3086 84.9199 -16.3086 87.3893V93.3511C-16.3086 95.8205 -14.3015 97.8224 -11.8256 97.8224H38.9812C41.457 97.8224 43.4641 95.8205 43.4641 93.3511V87.3893C43.4641 84.9199 41.457 82.918 38.9812 82.918Z" fill="white"/>
</g>
<g opacity="0.8">
<mask id="mask3_5522_89578" style="mask-type:luminance" maskUnits="userSpaceOnUse" x="-89" y="106" width="133" height="13">
<path d="M43.4648 106.766H-88.0352V118.689H43.4648V106.766Z" fill="white"/>
</mask>
<g mask="url(#mask3_5522_89578)">
<path d="M10.5884 106.766H-40.2184C-41.869 106.766 -43.207 108.1 -43.207 109.747V115.708C-43.207 117.355 -41.869 118.689 -40.2184 118.689H10.5884C12.239 118.689 13.5771 117.355 13.5771 115.708V109.747C13.5771 108.1 12.239 106.766 10.5884 106.766Z" fill="white"/>
<path d="M74.8445 106.766H22.5433C20.8927 106.766 19.5547 108.1 19.5547 109.747V115.708C19.5547 117.355 20.8927 118.689 22.5433 118.689H74.8445C76.495 118.689 77.8331 117.355 77.8331 115.708V109.747C77.8331 108.1 76.495 106.766 74.8445 106.766Z" fill="white"/>
</g>
<mask id="mask4_5522_89578" style="mask-type:luminance" maskUnits="userSpaceOnUse" x="-89" y="124" width="133" height="13">
<path d="M43.4648 124.65H-88.0352V136.574H43.4648V124.65Z" fill="white"/>
</mask>
<g mask="url(#mask4_5522_89578)">
<path d="M10.5891 124.65H-13.32C-14.9705 124.65 -16.3086 125.985 -16.3086 127.631V133.593C-16.3086 135.239 -14.9705 136.574 -13.32 136.574H10.5891C12.2397 136.574 13.5778 135.239 13.5778 133.593V127.631C13.5778 125.985 12.2397 124.65 10.5891 124.65Z" fill="white"/>
<path d="M74.8445 124.65H22.5433C20.8927 124.65 19.5547 125.985 19.5547 127.631V133.593C19.5547 135.239 20.8927 136.574 22.5433 136.574H74.8445C76.495 136.574 77.8331 135.239 77.8331 133.593V127.631C77.8331 125.985 76.495 124.65 74.8445 124.65Z" fill="white"/>
</g>
</g>
</g>
<g filter="url(#filter10_ddi_5522_89578)">
<path d="M446.466 56.0898H314.966C310.014 56.0898 306 60.0936 306 65.0325V144.026C306 148.965 310.014 152.969 314.966 152.969H446.466C451.418 152.969 455.432 148.965 455.432 144.026V65.0325C455.432 60.0936 451.418 56.0898 446.466 56.0898Z" fill="black" fill-opacity="0.01"/>
<path d="M446.467 56.4629H314.967C310.222 56.4629 306.375 60.2998 306.375 65.033V144.027C306.375 148.76 310.222 152.597 314.967 152.597H446.467C451.213 152.597 455.06 148.76 455.06 144.027V65.033C455.06 60.2998 451.213 56.4629 446.467 56.4629Z" stroke="url(#paint17_linear_5522_89578)"/>
<path d="M446.467 56.4629H314.967C310.222 56.4629 306.375 60.2998 306.375 65.033V144.027C306.375 148.76 310.222 152.597 314.967 152.597H446.467C451.213 152.597 455.06 148.76 455.06 144.027V65.033C455.06 60.2998 451.213 56.4629 446.467 56.4629Z" stroke="white" stroke-opacity="0.4"/>
<g opacity="0.8">
<path d="M403.13 68.0137H317.953C316.303 68.0137 314.965 69.3483 314.965 70.9946V76.9563C314.965 78.6026 316.303 79.9372 317.953 79.9372H403.13C404.78 79.9372 406.118 78.6026 406.118 76.9563V70.9946C406.118 69.3483 404.78 68.0137 403.13 68.0137Z" fill="white"/>
<path d="M370.255 82.918H319.448C316.972 82.918 314.965 84.9199 314.965 87.3893V93.3511C314.965 95.8205 316.972 97.8224 319.448 97.8224H370.255C372.73 97.8224 374.738 95.8205 374.738 93.3511V87.3893C374.738 84.9199 372.73 82.918 370.255 82.918Z" fill="white"/>
</g>
<g opacity="0.8">
<mask id="mask5_5522_89578" style="mask-type:luminance" maskUnits="userSpaceOnUse" x="314" y="106" width="133" height="13">
<path d="M446.465 106.766H314.965V118.689H446.465V106.766Z" fill="white"/>
</mask>
<g mask="url(#mask5_5522_89578)">
<path d="M350.827 106.766H326.918C325.268 106.766 323.93 108.1 323.93 109.747V115.708C323.93 117.355 325.268 118.689 326.918 118.689H350.827C352.478 118.689 353.816 117.355 353.816 115.708V109.747C353.816 108.1 352.478 106.766 350.827 106.766Z" fill="white"/>
</g>
<mask id="mask6_5522_89578" style="mask-type:luminance" maskUnits="userSpaceOnUse" x="314" y="124" width="133" height="13">
<path d="M446.465 124.65H314.965V136.574H446.465V124.65Z" fill="white"/>
</mask>
<g mask="url(#mask6_5522_89578)">
<path d="M377.725 124.65H326.918C325.268 124.65 323.93 125.985 323.93 127.631V133.593C323.93 135.239 325.268 136.574 326.918 136.574H377.725C379.376 136.574 380.714 135.239 380.714 133.593V127.631C380.714 125.985 379.376 124.65 377.725 124.65Z" fill="white"/>
</g>
</g>
</g>
<g filter="url(#filter11_ddi_5522_89578)">
<path d="M7.1534 32.2422H-124.347C-129.298 32.2422 -133.312 28.2384 -133.312 23.2995V-55.6941C-133.312 -60.633 -129.298 -64.6368 -124.347 -64.6368H7.1534C12.1051 -64.6368 16.1193 -60.633 16.1193 -55.6941V23.2995C16.1193 28.2384 12.1051 32.2422 7.1534 32.2422Z" fill="black" fill-opacity="0.01"/>
<path d="M7.15483 31.8691H-124.345C-129.091 31.8691 -132.938 28.0322 -132.938 23.2991V-55.6945C-132.938 -60.4277 -129.091 -64.2646 -124.345 -64.2646H7.15483C11.9003 -64.2646 15.7472 -60.4277 15.7472 -55.6945V23.2991C15.7472 28.0322 11.9003 31.8691 7.15483 31.8691Z" stroke="url(#paint18_linear_5522_89578)"/>
<path d="M7.15483 31.8691H-124.345C-129.091 31.8691 -132.938 28.0322 -132.938 23.2991V-55.6945C-132.938 -60.4277 -129.091 -64.2646 -124.345 -64.2646H7.15483C11.9003 -64.2646 15.7472 -60.4277 15.7472 -55.6945V23.2991C15.7472 28.0322 11.9003 31.8691 7.15483 31.8691Z" stroke="white" stroke-opacity="0.4"/>
<g opacity="0.6">
<path d="M4.16513 20.3184H-1.81214C-3.46272 20.3184 -4.80078 18.9838 -4.80078 17.3375V11.3757C-4.80078 9.72938 -3.46272 8.39479 -1.81214 8.39479H4.16513C5.81571 8.39479 7.15376 9.72938 7.15376 11.3757V17.3375C7.15376 18.9838 5.81571 20.3184 4.16513 20.3184Z" fill="white"/>
<path d="M2.66868 5.41406H-48.1381C-50.614 5.41406 -52.6211 3.41218 -52.6211 0.942725V-5.01906C-52.6211 -7.48851 -50.614 -9.4904 -48.1381 -9.4904H2.66868C5.14454 -9.4904 7.15163 -7.48851 7.15163 -5.01906V0.942725C7.15163 3.41218 5.14454 5.41406 2.66868 5.41406Z" fill="white"/>
</g>
</g>
<g filter="url(#filter12_ddi_5522_89578)">
<path d="M165.552 32.2422H34.0518C29.1001 32.2422 25.0859 28.2384 25.0859 23.2995V-55.6941C25.0859 -60.633 29.1001 -64.6368 34.0518 -64.6368H165.552C170.504 -64.6368 174.518 -60.633 174.518 -55.6941V23.2995C174.518 28.2384 170.504 32.2422 165.552 32.2422Z" fill="black" fill-opacity="0.01"/>
<path d="M165.553 31.8691H34.0533C29.3079 31.8691 25.4609 28.0322 25.4609 23.2991V-55.6945C25.4609 -60.4277 29.3079 -64.2646 34.0533 -64.2646H165.553C170.299 -64.2646 174.146 -60.4277 174.146 -55.6945V23.2991C174.146 28.0322 170.299 31.8691 165.553 31.8691Z" stroke="url(#paint19_linear_5522_89578)"/>
<path d="M165.553 31.8691H34.0533C29.3079 31.8691 25.4609 28.0322 25.4609 23.2991V-55.6945C25.4609 -60.4277 29.3079 -64.2646 34.0533 -64.2646H165.553C170.299 -64.2646 174.146 -60.4277 174.146 -55.6945V23.2991C174.146 28.0322 170.299 31.8691 165.553 31.8691Z" stroke="white" stroke-opacity="0.4"/>
<g opacity="0.6">
<path d="M122.216 20.3184H37.0394C35.3888 20.3184 34.0508 18.9838 34.0508 17.3375V11.3757C34.0508 9.72938 35.3888 8.39479 37.0394 8.39479H122.216C123.866 8.39479 125.204 9.72938 125.204 11.3757V17.3375C125.204 18.9838 123.866 20.3184 122.216 20.3184Z" fill="white"/>
<path d="M144.63 20.3184H138.653C137.002 20.3184 135.664 18.9838 135.664 17.3375V11.3757C135.664 9.72938 137.002 8.39479 138.653 8.39479H144.63C146.281 8.39479 147.619 9.72938 147.619 11.3757V17.3375C147.619 18.9838 146.281 20.3184 144.63 20.3184Z" fill="white"/>
<path d="M162.564 20.3184H156.586C154.936 20.3184 153.598 18.9838 153.598 17.3375V11.3757C153.598 9.72938 154.936 8.39479 156.586 8.39479H162.564C164.214 8.39479 165.552 9.72938 165.552 11.3757V17.3375C165.552 18.9838 164.214 20.3184 162.564 20.3184Z" fill="white"/>
<path d="M89.3406 5.41406H38.5337C36.0579 5.41406 34.0508 3.41218 34.0508 0.942725V-5.01906C34.0508 -7.48851 36.0579 -9.4904 38.5337 -9.4904H89.3406C91.8164 -9.4904 93.8235 -7.48851 93.8235 -5.01906V0.942725C93.8235 3.41218 91.8164 5.41406 89.3406 5.41406Z" fill="white"/>
<path d="M161.067 5.41406H110.26C107.784 5.41406 105.777 3.41218 105.777 0.942725V-5.01906C105.777 -7.48851 107.784 -9.4904 110.26 -9.4904H161.067C163.543 -9.4904 165.55 -7.48851 165.55 -5.01906V0.942725C165.55 3.41218 163.543 5.41406 161.067 5.41406Z" fill="white"/>
</g>
<g filter="url(#filter13_ddi_5522_89578)">
<path d="M84.8594 32.2423C84.8594 24.0108 91.5494 17.3379 99.8026 17.3379C108.056 17.3379 114.746 24.0108 114.746 32.2423C114.746 40.4739 108.056 47.1468 99.8026 47.1468C91.5494 47.1468 84.8594 40.4739 84.8594 32.2423Z" fill="#FAFAFA" fill-opacity="0.06"/>
<mask id="mask7_5522_89578" style="mask-type:luminance" maskUnits="userSpaceOnUse" x="84" y="17" width="31" height="31">
<path d="M84.8594 32.2423C84.8594 24.0108 91.5494 17.3379 99.8026 17.3379C108.056 17.3379 114.746 24.0108 114.746 32.2423C114.746 40.4739 108.056 47.1468 99.8026 47.1468C91.5494 47.1468 84.8594 40.4739 84.8594 32.2423Z" fill="white"/>
</mask>
<g mask="url(#mask7_5522_89578)">
<path d="M99.8036 47.1459V46.4007C91.9637 46.4007 85.6076 40.0614 85.6076 32.2415H84.8604H84.1133C84.1133 40.8846 91.1381 47.8912 99.8036 47.8912V47.1459ZM114.747 32.2415H114C114 40.0614 107.644 46.4007 99.8036 46.4007V47.1459V47.8912C108.469 47.8912 115.494 40.8846 115.494 32.2415H114.747ZM99.8036 17.337V18.0822C107.644 18.0822 114 24.4216 114 32.2415H114.747H115.494C115.494 23.5984 108.469 16.5918 99.8036 16.5918V17.337ZM99.8036 17.337V16.5918C91.1381 16.5918 84.1133 23.5984 84.1133 32.2415H84.8604H85.6076C85.6076 24.4216 91.9637 18.0822 99.8036 18.0822V17.337Z" fill="url(#paint20_linear_5522_89578)"/>
</g>
<path d="M101.049 26.6523V29.1364C101.049 29.3011 101.115 29.4591 101.231 29.5756C101.348 29.692 101.506 29.7575 101.671 29.7575H104.162M101.049 26.6523H96.6908C96.3606 26.6523 96.0438 26.7832 95.8099 27.0162C95.5768 27.249 95.4453 27.5649 95.4453 27.8944V36.5886C95.4453 36.9181 95.5768 37.234 95.8099 37.4669C96.0438 37.6998 96.3606 37.8307 96.6908 37.8307H102.917C103.247 37.8307 103.564 37.6998 103.797 37.4669C104.031 37.234 104.162 36.9181 104.162 36.5886V29.7575M101.049 26.6523L104.162 29.7575M97.9356 30.3785H98.5587M97.9356 32.8625H101.671M97.9356 35.3466H101.671" stroke="#27272A" stroke-width="0.7" stroke-linecap="round" stroke-linejoin="round"/>
</g>
</g>
<g filter="url(#filter14_ddi_5522_89578)">
<path d="M323.95 32.2422H192.45C187.499 32.2422 183.484 28.2384 183.484 23.2995V-55.6941C183.484 -60.633 187.499 -64.6368 192.45 -64.6368H323.95C328.902 -64.6368 332.916 -60.633 332.916 -55.6941V23.2995C332.916 28.2384 328.902 32.2422 323.95 32.2422Z" fill="black" fill-opacity="0.01"/>
<path d="M323.952 31.8691H192.452C187.706 31.8691 183.859 28.0322 183.859 23.2991V-55.6945C183.859 -60.4277 187.706 -64.2646 192.452 -64.2646H323.952C328.697 -64.2646 332.544 -60.4277 332.544 -55.6945V23.2991C332.544 28.0322 328.697 31.8691 323.952 31.8691Z" stroke="url(#paint21_linear_5522_89578)"/>
<path d="M323.952 31.8691H192.452C187.706 31.8691 183.859 28.0322 183.859 23.2991V-55.6945C183.859 -60.4277 187.706 -64.2646 192.452 -64.2646H323.952C328.697 -64.2646 332.544 -60.4277 332.544 -55.6945V23.2991C332.544 28.0322 328.697 31.8691 323.952 31.8691Z" stroke="white" stroke-opacity="0.4"/>
<g opacity="0.6">
<path d="M280.614 20.3184H195.438C193.787 20.3184 192.449 18.9838 192.449 17.3375V11.3757C192.449 9.72938 193.787 8.39479 195.438 8.39479H280.614C282.265 8.39479 283.603 9.72938 283.603 11.3757V17.3375C283.603 18.9838 282.265 20.3184 280.614 20.3184Z" fill="white"/>
<path d="M303.028 20.3184H297.051C295.401 20.3184 294.062 18.9838 294.062 17.3375V11.3757C294.062 9.72938 295.401 8.39479 297.051 8.39479H303.028C304.679 8.39479 306.017 9.72938 306.017 11.3757V17.3375C306.017 18.9838 304.679 20.3184 303.028 20.3184Z" fill="white"/>
<path d="M320.962 20.3184H314.985C313.334 20.3184 311.996 18.9838 311.996 17.3375V11.3757C311.996 9.72938 313.334 8.39479 314.985 8.39479H320.962C322.613 8.39479 323.951 9.72938 323.951 11.3757V17.3375C323.951 18.9838 322.613 20.3184 320.962 20.3184Z" fill="white"/>
<path d="M247.739 5.41406H196.932C194.456 5.41406 192.449 3.41218 192.449 0.942725V-5.01906C192.449 -7.48851 194.456 -9.4904 196.932 -9.4904H247.739C250.215 -9.4904 252.222 -7.48851 252.222 -5.01906V0.942725C252.222 3.41218 250.215 5.41406 247.739 5.41406Z" fill="white"/>
<path d="M319.466 5.41406H268.659C266.183 5.41406 264.176 3.41218 264.176 0.942725V-5.01906C264.176 -7.48851 266.183 -9.4904 268.659 -9.4904H319.466C321.941 -9.4904 323.949 -7.48851 323.949 -5.01906V0.942725C323.949 3.41218 321.941 5.41406 319.466 5.41406Z" fill="white"/>
</g>
<g filter="url(#filter15_ddi_5522_89578)">
<path d="M243.258 32.2423C243.258 24.0108 249.948 17.3379 258.201 17.3379C266.454 17.3379 273.144 24.0108 273.144 32.2423C273.144 40.4739 266.454 47.1468 258.201 47.1468C249.948 47.1468 243.258 40.4739 243.258 32.2423Z" fill="#FAFAFA" fill-opacity="0.06"/>
<mask id="mask8_5522_89578" style="mask-type:luminance" maskUnits="userSpaceOnUse" x="243" y="17" width="31" height="31">
<path d="M243.258 32.2423C243.258 24.0108 249.948 17.3379 258.201 17.3379C266.454 17.3379 273.144 24.0108 273.144 32.2423C273.144 40.4739 266.454 47.1468 258.201 47.1468C249.948 47.1468 243.258 40.4739 243.258 32.2423Z" fill="white"/>
</mask>
<g mask="url(#mask8_5522_89578)">
<path d="M258.202 47.1459V46.4007C250.362 46.4007 244.006 40.0614 244.006 32.2415H243.259H242.512C242.512 40.8846 249.537 47.8912 258.202 47.8912V47.1459ZM273.145 32.2415H272.398C272.398 40.0614 266.042 46.4007 258.202 46.4007V47.1459V47.8912C266.868 47.8912 273.892 40.8846 273.892 32.2415H273.145ZM258.202 17.337V18.0822C266.042 18.0822 272.398 24.4216 272.398 32.2415H273.145H273.892C273.892 23.5984 266.868 16.5918 258.202 16.5918V17.337ZM258.202 17.337V16.5918C249.537 16.5918 242.512 23.5984 242.512 32.2415H243.259H244.006C244.006 24.4216 250.362 18.0822 258.202 18.0822V17.337Z" fill="url(#paint22_linear_5522_89578)"/>
</g>
<path d="M259.447 26.6523V29.1364C259.447 29.3011 259.513 29.4591 259.63 29.5756C259.746 29.692 259.905 29.7575 260.07 29.7575H262.561M259.447 26.6523H255.089C254.759 26.6523 254.442 26.7832 254.208 27.0162C253.975 27.249 253.844 27.5649 253.844 27.8944V36.5886C253.844 36.9181 253.975 37.234 254.208 37.4669C254.442 37.6998 254.759 37.8307 255.089 37.8307H261.315C261.646 37.8307 261.962 37.6998 262.196 37.4669C262.429 37.234 262.561 36.9181 262.561 36.5886V29.7575M259.447 26.6523L262.561 29.7575M255.712 34.1046H260.693M257.58 31.6205V35.9676M255.712 31.6205H260.693V35.9676H255.712V31.6205Z" stroke="#27272A" stroke-width="0.7" stroke-linecap="round" stroke-linejoin="round"/>
</g>
</g>
<g filter="url(#filter16_ddi_5522_89578)">
<path d="M482.345 32.2422H350.845C345.893 32.2422 341.879 28.2384 341.879 23.2995V-55.6941C341.879 -60.633 345.893 -64.6368 350.845 -64.6368H482.345C487.297 -64.6368 491.311 -60.633 491.311 -55.6941V23.2995C491.311 28.2384 487.297 32.2422 482.345 32.2422Z" fill="black" fill-opacity="0.01"/>
<path d="M482.346 31.8691H350.846C346.101 31.8691 342.254 28.0322 342.254 23.2991V-55.6945C342.254 -60.4277 346.101 -64.2646 350.846 -64.2646H482.346C487.092 -64.2646 490.939 -60.4277 490.939 -55.6945V23.2991C490.939 28.0322 487.092 31.8691 482.346 31.8691Z" stroke="url(#paint23_linear_5522_89578)"/>
<path d="M482.346 31.8691H350.846C346.101 31.8691 342.254 28.0322 342.254 23.2991V-55.6945C342.254 -60.4277 346.101 -64.2646 350.846 -64.2646H482.346C487.092 -64.2646 490.939 -60.4277 490.939 -55.6945V23.2991C490.939 28.0322 487.092 31.8691 482.346 31.8691Z" stroke="white" stroke-opacity="0.4"/>
<g opacity="0.6">
<path d="M439.009 20.3184H353.832C352.182 20.3184 350.844 18.9838 350.844 17.3375V11.3757C350.844 9.72938 352.182 8.39479 353.832 8.39479H439.009C440.659 8.39479 441.997 9.72938 441.997 11.3757V17.3375C441.997 18.9838 440.659 20.3184 439.009 20.3184Z" fill="white"/>
<path d="M406.134 5.41406H355.327C352.851 5.41406 350.844 3.41218 350.844 0.942725V-5.01906C350.844 -7.48851 352.851 -9.4904 355.327 -9.4904H406.134C408.609 -9.4904 410.616 -7.48851 410.616 -5.01906V0.942725C410.616 3.41218 408.609 5.41406 406.134 5.41406Z" fill="white"/>
</g>
</g>
</g>
<rect width="358" height="230" fill="url(#paint24_linear_5522_89578)"/>
</g>
<defs>
<filter id="filter0_f_5522_89578" x="-242.16" y="-145.4" width="597.582" height="517.406" filterUnits="userSpaceOnUse" color-interpolation-filters="sRGB">
<feFlood flood-opacity="0" result="BackgroundImageFix"/>
<feBlend mode="normal" in="SourceGraphic" in2="BackgroundImageFix" result="shape"/>
<feGaussianBlur stdDeviation="100" result="effect1_foregroundBlur_5522_89578"/>
</filter>
<filter id="filter1_f_5522_89578" x="3.24219" y="-145.4" width="597.582" height="517.406" filterUnits="userSpaceOnUse" color-interpolation-filters="sRGB">
<feFlood flood-opacity="0" result="BackgroundImageFix"/>
<feBlend mode="normal" in="SourceGraphic" in2="BackgroundImageFix" result="shape"/>
<feGaussianBlur stdDeviation="100" result="effect1_foregroundBlur_5522_89578"/>
</filter>
<filter id="filter2_ddi_5522_89578" x="-165.438" y="142.893" width="213.684" height="175.91" filterUnits="userSpaceOnUse" color-interpolation-filters="sRGB">
<feFlood flood-opacity="0" result="BackgroundImageFix"/>
<feColorMatrix in="SourceAlpha" type="matrix" values="0 0 0 0 0 0 0 0 0 0 0 0 0 0 0 0 0 0 127 0" result="hardAlpha"/>
<feOffset dy="4"/>
<feGaussianBlur stdDeviation="8"/>
<feComposite in2="hardAlpha" operator="out"/>
<feColorMatrix type="matrix" values="0 0 0 0 0.0588235 0 0 0 0 0.141176 0 0 0 0 0.0666667 0 0 0 0.02 0"/>
<feBlend mode="normal" in2="BackgroundImageFix" result="effect1_dropShadow_5522_89578"/>
<feColorMatrix in="SourceAlpha" type="matrix" values="0 0 0 0 0 0 0 0 0 0 0 0 0 0 0 0 0 0 127 0" result="hardAlpha"/>
<feOffset dy="10"/>
<feGaussianBlur stdDeviation="16"/>
<feComposite in2="hardAlpha" operator="out"/>
<feColorMatrix type="matrix" values="0 0 0 0 0.0627451 0 0 0 0 0.0588235 0 0 0 0 0.141176 0 0 0 0.05 0"/>
<feBlend mode="normal" in2="effect1_dropShadow_5522_89578" result="effect2_dropShadow_5522_89578"/>
<feBlend mode="normal" in="SourceGraphic" in2="effect2_dropShadow_5522_89578" result="shape"/>
<feColorMatrix in="SourceAlpha" type="matrix" values="0 0 0 0 0 0 0 0 0 0 0 0 0 0 0 0 0 0 127 0" result="hardAlpha"/>
<feOffset dx="6" dy="4"/>
<feGaussianBlur stdDeviation="16"/>
<feComposite in2="hardAlpha" operator="arithmetic" k2="-1" k3="1"/>
<feColorMatrix type="matrix" values="0 0 0 0 0.0213804 0 0 0 0 0.0312616 0 0 0 0 0.219004 0 0 0 0.02 0"/>
<feBlend mode="normal" in2="shape" result="effect3_innerShadow_5522_89578"/>
</filter>
<filter id="filter3_ddi_5522_89578" x="-7.03906" y="142.893" width="213.684" height="175.91" filterUnits="userSpaceOnUse" color-interpolation-filters="sRGB">
<feFlood flood-opacity="0" result="BackgroundImageFix"/>
<feColorMatrix in="SourceAlpha" type="matrix" values="0 0 0 0 0 0 0 0 0 0 0 0 0 0 0 0 0 0 127 0" result="hardAlpha"/>
<feOffset dy="4"/>
<feGaussianBlur stdDeviation="8"/>
<feComposite in2="hardAlpha" operator="out"/>
<feColorMatrix type="matrix" values="0 0 0 0 0.0588235 0 0 0 0 0.141176 0 0 0 0 0.0666667 0 0 0 0.02 0"/>
<feBlend mode="normal" in2="BackgroundImageFix" result="effect1_dropShadow_5522_89578"/>
<feColorMatrix in="SourceAlpha" type="matrix" values="0 0 0 0 0 0 0 0 0 0 0 0 0 0 0 0 0 0 127 0" result="hardAlpha"/>
<feOffset dy="10"/>
<feGaussianBlur stdDeviation="16"/>
<feComposite in2="hardAlpha" operator="out"/>
<feColorMatrix type="matrix" values="0 0 0 0 0.0627451 0 0 0 0 0.0588235 0 0 0 0 0.141176 0 0 0 0.05 0"/>
<feBlend mode="normal" in2="effect1_dropShadow_5522_89578" result="effect2_dropShadow_5522_89578"/>
<feBlend mode="normal" in="SourceGraphic" in2="effect2_dropShadow_5522_89578" result="shape"/>
<feColorMatrix in="SourceAlpha" type="matrix" values="0 0 0 0 0 0 0 0 0 0 0 0 0 0 0 0 0 0 127 0" result="hardAlpha"/>
<feOffset dx="6" dy="4"/>
<feGaussianBlur stdDeviation="16"/>
<feComposite in2="hardAlpha" operator="arithmetic" k2="-1" k3="1"/>
<feColorMatrix type="matrix" values="0 0 0 0 0.0213804 0 0 0 0 0.0312616 0 0 0 0 0.219004 0 0 0 0.02 0"/>
<feBlend mode="normal" in2="shape" result="effect3_innerShadow_5522_89578"/>
</filter>
<filter id="filter4_ddi_5522_89578" x="52.8594" y="142.893" width="93.8867" height="93.8086" filterUnits="userSpaceOnUse" color-interpolation-filters="sRGB">
<feFlood flood-opacity="0" result="BackgroundImageFix"/>
<feColorMatrix in="SourceAlpha" type="matrix" values="0 0 0 0 0 0 0 0 0 0 0 0 0 0 0 0 0 0 127 0" result="hardAlpha"/>
<feOffset dy="4"/>
<feGaussianBlur stdDeviation="8"/>
<feComposite in2="hardAlpha" operator="out"/>
<feColorMatrix type="matrix" values="0 0 0 0 0.0588235 0 0 0 0 0.141176 0 0 0 0 0.0666667 0 0 0 0.02 0"/>
<feBlend mode="normal" in2="BackgroundImageFix" result="effect1_dropShadow_5522_89578"/>
<feColorMatrix in="SourceAlpha" type="matrix" values="0 0 0 0 0 0 0 0 0 0 0 0 0 0 0 0 0 0 127 0" result="hardAlpha"/>
<feOffset dy="10"/>
<feGaussianBlur stdDeviation="16"/>
<feComposite in2="hardAlpha" operator="out"/>
<feColorMatrix type="matrix" values="0 0 0 0 0.0627451 0 0 0 0 0.0588235 0 0 0 0 0.141176 0 0 0 0.05 0"/>
<feBlend mode="normal" in2="effect1_dropShadow_5522_89578" result="effect2_dropShadow_5522_89578"/>
<feBlend mode="normal" in="SourceGraphic" in2="effect2_dropShadow_5522_89578" result="shape"/>
<feColorMatrix in="SourceAlpha" type="matrix" values="0 0 0 0 0 0 0 0 0 0 0 0 0 0 0 0 0 0 127 0" result="hardAlpha"/>
<feOffset dx="6" dy="4"/>
<feGaussianBlur stdDeviation="8"/>
<feComposite in2="hardAlpha" operator="arithmetic" k2="-1" k3="1"/>
<feColorMatrix type="matrix" values="0 0 0 0 0.0213804 0 0 0 0 0.0312616 0 0 0 0 0.219004 0 0 0 0.06 0"/>
<feBlend mode="normal" in2="shape" result="effect3_innerShadow_5522_89578"/>
</filter>
<filter id="filter5_ddi_5522_89578" x="151.359" y="142.893" width="213.684" height="175.91" filterUnits="userSpaceOnUse" color-interpolation-filters="sRGB">
<feFlood flood-opacity="0" result="BackgroundImageFix"/>
<feColorMatrix in="SourceAlpha" type="matrix" values="0 0 0 0 0 0 0 0 0 0 0 0 0 0 0 0 0 0 127 0" result="hardAlpha"/>
<feOffset dy="4"/>
<feGaussianBlur stdDeviation="8"/>
<feComposite in2="hardAlpha" operator="out"/>
<feColorMatrix type="matrix" values="0 0 0 0 0.0588235 0 0 0 0 0.141176 0 0 0 0 0.0666667 0 0 0 0.02 0"/>
<feBlend mode="normal" in2="BackgroundImageFix" result="effect1_dropShadow_5522_89578"/>
<feColorMatrix in="SourceAlpha" type="matrix" values="0 0 0 0 0 0 0 0 0 0 0 0 0 0 0 0 0 0 127 0" result="hardAlpha"/>
<feOffset dy="10"/>
<feGaussianBlur stdDeviation="16"/>
<feComposite in2="hardAlpha" operator="out"/>
<feColorMatrix type="matrix" values="0 0 0 0 0.0627451 0 0 0 0 0.0588235 0 0 0 0 0.141176 0 0 0 0.05 0"/>
<feBlend mode="normal" in2="effect1_dropShadow_5522_89578" result="effect2_dropShadow_5522_89578"/>
<feBlend mode="normal" in="SourceGraphic" in2="effect2_dropShadow_5522_89578" result="shape"/>
<feColorMatrix in="SourceAlpha" type="matrix" values="0 0 0 0 0 0 0 0 0 0 0 0 0 0 0 0 0 0 127 0" result="hardAlpha"/>
<feOffset dx="6" dy="4"/>
<feGaussianBlur stdDeviation="16"/>
<feComposite in2="hardAlpha" operator="arithmetic" k2="-1" k3="1"/>
<feColorMatrix type="matrix" values="0 0 0 0 0.0213804 0 0 0 0 0.0312616 0 0 0 0 0.219004 0 0 0 0.02 0"/>
<feBlend mode="normal" in2="shape" result="effect3_innerShadow_5522_89578"/>
</filter>
<filter id="filter6_ddi_5522_89578" x="211.258" y="142.893" width="93.8867" height="93.8086" filterUnits="userSpaceOnUse" color-interpolation-filters="sRGB">
<feFlood flood-opacity="0" result="BackgroundImageFix"/>
<feColorMatrix in="SourceAlpha" type="matrix" values="0 0 0 0 0 0 0 0 0 0 0 0 0 0 0 0 0 0 127 0" result="hardAlpha"/>
<feOffset dy="4"/>
<feGaussianBlur stdDeviation="8"/>
<feComposite in2="hardAlpha" operator="out"/>
<feColorMatrix type="matrix" values="0 0 0 0 0.0588235 0 0 0 0 0.141176 0 0 0 0 0.0666667 0 0 0 0.02 0"/>
<feBlend mode="normal" in2="BackgroundImageFix" result="effect1_dropShadow_5522_89578"/>
<feColorMatrix in="SourceAlpha" type="matrix" values="0 0 0 0 0 0 0 0 0 0 0 0 0 0 0 0 0 0 127 0" result="hardAlpha"/>
<feOffset dy="10"/>
<feGaussianBlur stdDeviation="16"/>
<feComposite in2="hardAlpha" operator="out"/>
<feColorMatrix type="matrix" values="0 0 0 0 0.0627451 0 0 0 0 0.0588235 0 0 0 0 0.141176 0 0 0 0.05 0"/>
<feBlend mode="normal" in2="effect1_dropShadow_5522_89578" result="effect2_dropShadow_5522_89578"/>
<feBlend mode="normal" in="SourceGraphic" in2="effect2_dropShadow_5522_89578" result="shape"/>
<feColorMatrix in="SourceAlpha" type="matrix" values="0 0 0 0 0 0 0 0 0 0 0 0 0 0 0 0 0 0 127 0" result="hardAlpha"/>
<feOffset dx="6" dy="4"/>
<feGaussianBlur stdDeviation="8"/>
<feComposite in2="hardAlpha" operator="arithmetic" k2="-1" k3="1"/>
<feColorMatrix type="matrix" values="0 0 0 0 0.0213804 0 0 0 0 0.0312616 0 0 0 0 0.219004 0 0 0 0.06 0"/>
<feBlend mode="normal" in2="shape" result="effect3_innerShadow_5522_89578"/>
</filter>
<filter id="filter7_ddi_5522_89578" x="309.754" y="142.893" width="213.684" height="175.91" filterUnits="userSpaceOnUse" color-interpolation-filters="sRGB">
<feFlood flood-opacity="0" result="BackgroundImageFix"/>
<feColorMatrix in="SourceAlpha" type="matrix" values="0 0 0 0 0 0 0 0 0 0 0 0 0 0 0 0 0 0 127 0" result="hardAlpha"/>
<feOffset dy="4"/>
<feGaussianBlur stdDeviation="8"/>
<feComposite in2="hardAlpha" operator="out"/>
<feColorMatrix type="matrix" values="0 0 0 0 0.0588235 0 0 0 0 0.141176 0 0 0 0 0.0666667 0 0 0 0.02 0"/>
<feBlend mode="normal" in2="BackgroundImageFix" result="effect1_dropShadow_5522_89578"/>
<feColorMatrix in="SourceAlpha" type="matrix" values="0 0 0 0 0 0 0 0 0 0 0 0 0 0 0 0 0 0 127 0" result="hardAlpha"/>
<feOffset dy="10"/>
<feGaussianBlur stdDeviation="16"/>
<feComposite in2="hardAlpha" operator="out"/>
<feColorMatrix type="matrix" values="0 0 0 0 0.0627451 0 0 0 0 0.0588235 0 0 0 0 0.141176 0 0 0 0.05 0"/>
<feBlend mode="normal" in2="effect1_dropShadow_5522_89578" result="effect2_dropShadow_5522_89578"/>
<feBlend mode="normal" in="SourceGraphic" in2="effect2_dropShadow_5522_89578" result="shape"/>
<feColorMatrix in="SourceAlpha" type="matrix" values="0 0 0 0 0 0 0 0 0 0 0 0 0 0 0 0 0 0 127 0" result="hardAlpha"/>
<feOffset dx="6" dy="4"/>
<feGaussianBlur stdDeviation="16"/>
<feComposite in2="hardAlpha" operator="arithmetic" k2="-1" k3="1"/>
<feColorMatrix type="matrix" values="0 0 0 0 0.0213804 0 0 0 0 0.0312616 0 0 0 0 0.219004 0 0 0 0.02 0"/>
<feBlend mode="normal" in2="shape" result="effect3_innerShadow_5522_89578"/>
</filter>
<filter id="filter8_ii_5522_89578" x="141.969" y="71.6621" width="74.8086" height="74.6758" filterUnits="userSpaceOnUse" color-interpolation-filters="sRGB">
<feFlood flood-opacity="0" result="BackgroundImageFix"/>
<feBlend mode="normal" in="SourceGraphic" in2="BackgroundImageFix" result="shape"/>
<feColorMatrix in="SourceAlpha" type="matrix" values="0 0 0 0 0 0 0 0 0 0 0 0 0 0 0 0 0 0 127 0" result="hardAlpha"/>
<feOffset dy="4"/>
<feGaussianBlur stdDeviation="6"/>
<feComposite in2="hardAlpha" operator="arithmetic" k2="-1" k3="1"/>
<feColorMatrix type="matrix" values="0 0 0 0 0.585337 0 0 0 0 0.717275 0 0 0 0 0.972356 0 0 0 0.16 0"/>
<feBlend mode="normal" in2="shape" result="effect1_innerShadow_5522_89578"/>
<feColorMatrix in="SourceAlpha" type="matrix" values="0 0 0 0 0 0 0 0 0 0 0 0 0 0 0 0 0 0 127 0" result="hardAlpha"/>
<feOffset dx="6" dy="4"/>
<feGaussianBlur stdDeviation="8"/>
<feComposite in2="hardAlpha" operator="arithmetic" k2="-1" k3="1"/>
<feColorMatrix type="matrix" values="0 0 0 0 0.0213804 0 0 0 0 0.0312616 0 0 0 0 0.219004 0 0 0 0.02 0"/>
<feBlend mode="normal" in2="effect1_innerShadow_5522_89578" result="effect2_innerShadow_5522_89578"/>
</filter>
<filter id="filter9_ddi_5522_89578" x="-129.125" y="33.9629" width="213.684" height="161.133" filterUnits="userSpaceOnUse" color-interpolation-filters="sRGB">
<feFlood flood-opacity="0" result="BackgroundImageFix"/>
<feColorMatrix in="SourceAlpha" type="matrix" values="0 0 0 0 0 0 0 0 0 0 0 0 0 0 0 0 0 0 127 0" result="hardAlpha"/>
<feOffset dy="4"/>
<feGaussianBlur stdDeviation="8"/>
<feComposite in2="hardAlpha" operator="out"/>
<feColorMatrix type="matrix" values="0 0 0 0 0.0588235 0 0 0 0 0.141176 0 0 0 0 0.0666667 0 0 0 0.02 0"/>
<feBlend mode="normal" in2="BackgroundImageFix" result="effect1_dropShadow_5522_89578"/>
<feColorMatrix in="SourceAlpha" type="matrix" values="0 0 0 0 0 0 0 0 0 0 0 0 0 0 0 0 0 0 127 0" result="hardAlpha"/>
<feOffset dy="10"/>
<feGaussianBlur stdDeviation="16"/>
<feComposite in2="hardAlpha" operator="out"/>
<feColorMatrix type="matrix" values="0 0 0 0 0.0627451 0 0 0 0 0.0588235 0 0 0 0 0.141176 0 0 0 0.05 0"/>
<feBlend mode="normal" in2="effect1_dropShadow_5522_89578" result="effect2_dropShadow_5522_89578"/>
<feBlend mode="normal" in="SourceGraphic" in2="effect2_dropShadow_5522_89578" result="shape"/>
<feColorMatrix in="SourceAlpha" type="matrix" values="0 0 0 0 0 0 0 0 0 0 0 0 0 0 0 0 0 0 127 0" result="hardAlpha"/>
<feOffset dx="6" dy="4"/>
<feGaussianBlur stdDeviation="16"/>
<feComposite in2="hardAlpha" operator="arithmetic" k2="-1" k3="1"/>
<feColorMatrix type="matrix" values="0 0 0 0 0.0213804 0 0 0 0 0.0312616 0 0 0 0 0.219004 0 0 0 0.02 0"/>
<feBlend mode="normal" in2="shape" result="effect3_innerShadow_5522_89578"/>
</filter>
<filter id="filter10_ddi_5522_89578" x="273.875" y="33.9629" width="213.684" height="161.133" filterUnits="userSpaceOnUse" color-interpolation-filters="sRGB">
<feFlood flood-opacity="0" result="BackgroundImageFix"/>
<feColorMatrix in="SourceAlpha" type="matrix" values="0 0 0 0 0 0 0 0 0 0 0 0 0 0 0 0 0 0 127 0" result="hardAlpha"/>
<feOffset dy="4"/>
<feGaussianBlur stdDeviation="8"/>
<feComposite in2="hardAlpha" operator="out"/>
<feColorMatrix type="matrix" values="0 0 0 0 0.0588235 0 0 0 0 0.141176 0 0 0 0 0.0666667 0 0 0 0.02 0"/>
<feBlend mode="normal" in2="BackgroundImageFix" result="effect1_dropShadow_5522_89578"/>
<feColorMatrix in="SourceAlpha" type="matrix" values="0 0 0 0 0 0 0 0 0 0 0 0 0 0 0 0 0 0 127 0" result="hardAlpha"/>
<feOffset dy="10"/>
<feGaussianBlur stdDeviation="16"/>
<feComposite in2="hardAlpha" operator="out"/>
<feColorMatrix type="matrix" values="0 0 0 0 0.0627451 0 0 0 0 0.0588235 0 0 0 0 0.141176 0 0 0 0.05 0"/>
<feBlend mode="normal" in2="effect1_dropShadow_5522_89578" result="effect2_dropShadow_5522_89578"/>
<feBlend mode="normal" in="SourceGraphic" in2="effect2_dropShadow_5522_89578" result="shape"/>
<feColorMatrix in="SourceAlpha" type="matrix" values="0 0 0 0 0 0 0 0 0 0 0 0 0 0 0 0 0 0 127 0" result="hardAlpha"/>
<feOffset dx="6" dy="4"/>
<feGaussianBlur stdDeviation="16"/>
<feComposite in2="hardAlpha" operator="arithmetic" k2="-1" k3="1"/>
<feColorMatrix type="matrix" values="0 0 0 0 0.0213804 0 0 0 0 0.0312616 0 0 0 0 0.219004 0 0 0 0.02 0"/>
<feBlend mode="normal" in2="shape" result="effect3_innerShadow_5522_89578"/>
</filter>
<filter id="filter11_ddi_5522_89578" x="-165.438" y="-86.7637" width="213.684" height="175.91" filterUnits="userSpaceOnUse" color-interpolation-filters="sRGB">
<feFlood flood-opacity="0" result="BackgroundImageFix"/>
<feColorMatrix in="SourceAlpha" type="matrix" values="0 0 0 0 0 0 0 0 0 0 0 0 0 0 0 0 0 0 127 0" result="hardAlpha"/>
<feOffset dy="4"/>
<feGaussianBlur stdDeviation="8"/>
<feComposite in2="hardAlpha" operator="out"/>
<feColorMatrix type="matrix" values="0 0 0 0 0.0588235 0 0 0 0 0.141176 0 0 0 0 0.0666667 0 0 0 0.02 0"/>
<feBlend mode="normal" in2="BackgroundImageFix" result="effect1_dropShadow_5522_89578"/>
<feColorMatrix in="SourceAlpha" type="matrix" values="0 0 0 0 0 0 0 0 0 0 0 0 0 0 0 0 0 0 127 0" result="hardAlpha"/>
<feOffset dy="10"/>
<feGaussianBlur stdDeviation="16"/>
<feComposite in2="hardAlpha" operator="out"/>
<feColorMatrix type="matrix" values="0 0 0 0 0.0627451 0 0 0 0 0.0588235 0 0 0 0 0.141176 0 0 0 0.05 0"/>
<feBlend mode="normal" in2="effect1_dropShadow_5522_89578" result="effect2_dropShadow_5522_89578"/>
<feBlend mode="normal" in="SourceGraphic" in2="effect2_dropShadow_5522_89578" result="shape"/>
<feColorMatrix in="SourceAlpha" type="matrix" values="0 0 0 0 0 0 0 0 0 0 0 0 0 0 0 0 0 0 127 0" result="hardAlpha"/>
<feOffset dx="6" dy="4"/>
<feGaussianBlur stdDeviation="16"/>
<feComposite in2="hardAlpha" operator="arithmetic" k2="-1" k3="1"/>
<feColorMatrix type="matrix" values="0 0 0 0 0.0213804 0 0 0 0 0.0312616 0 0 0 0 0.219004 0 0 0 0.02 0"/>
<feBlend mode="normal" in2="shape" result="effect3_innerShadow_5522_89578"/>
</filter>
<filter id="filter12_ddi_5522_89578" x="-7.03906" y="-86.7637" width="213.684" height="175.91" filterUnits="userSpaceOnUse" color-interpolation-filters="sRGB">
<feFlood flood-opacity="0" result="BackgroundImageFix"/>
<feColorMatrix in="SourceAlpha" type="matrix" values="0 0 0 0 0 0 0 0 0 0 0 0 0 0 0 0 0 0 127 0" result="hardAlpha"/>
<feOffset dy="4"/>
<feGaussianBlur stdDeviation="8"/>
<feComposite in2="hardAlpha" operator="out"/>
<feColorMatrix type="matrix" values="0 0 0 0 0.0588235 0 0 0 0 0.141176 0 0 0 0 0.0666667 0 0 0 0.02 0"/>
<feBlend mode="normal" in2="BackgroundImageFix" result="effect1_dropShadow_5522_89578"/>
<feColorMatrix in="SourceAlpha" type="matrix" values="0 0 0 0 0 0 0 0 0 0 0 0 0 0 0 0 0 0 127 0" result="hardAlpha"/>
<feOffset dy="10"/>
<feGaussianBlur stdDeviation="16"/>
<feComposite in2="hardAlpha" operator="out"/>
<feColorMatrix type="matrix" values="0 0 0 0 0.0627451 0 0 0 0 0.0588235 0 0 0 0 0.141176 0 0 0 0.05 0"/>
<feBlend mode="normal" in2="effect1_dropShadow_5522_89578" result="effect2_dropShadow_5522_89578"/>
<feBlend mode="normal" in="SourceGraphic" in2="effect2_dropShadow_5522_89578" result="shape"/>
<feColorMatrix in="SourceAlpha" type="matrix" values="0 0 0 0 0 0 0 0 0 0 0 0 0 0 0 0 0 0 127 0" result="hardAlpha"/>
<feOffset dx="6" dy="4"/>
<feGaussianBlur stdDeviation="16"/>
<feComposite in2="hardAlpha" operator="arithmetic" k2="-1" k3="1"/>
<feColorMatrix type="matrix" values="0 0 0 0 0.0213804 0 0 0 0 0.0312616 0 0 0 0 0.219004 0 0 0 0.02 0"/>
<feBlend mode="normal" in2="shape" result="effect3_innerShadow_5522_89578"/>
</filter>
<filter id="filter13_ddi_5522_89578" x="52.8594" y="-4.66211" width="93.8867" height="93.8086" filterUnits="userSpaceOnUse" color-interpolation-filters="sRGB">
<feFlood flood-opacity="0" result="BackgroundImageFix"/>
<feColorMatrix in="SourceAlpha" type="matrix" values="0 0 0 0 0 0 0 0 0 0 0 0 0 0 0 0 0 0 127 0" result="hardAlpha"/>
<feOffset dy="4"/>
<feGaussianBlur stdDeviation="8"/>
<feComposite in2="hardAlpha" operator="out"/>
<feColorMatrix type="matrix" values="0 0 0 0 0.0588235 0 0 0 0 0.141176 0 0 0 0 0.0666667 0 0 0 0.02 0"/>
<feBlend mode="normal" in2="BackgroundImageFix" result="effect1_dropShadow_5522_89578"/>
<feColorMatrix in="SourceAlpha" type="matrix" values="0 0 0 0 0 0 0 0 0 0 0 0 0 0 0 0 0 0 127 0" result="hardAlpha"/>
<feOffset dy="10"/>
<feGaussianBlur stdDeviation="16"/>
<feComposite in2="hardAlpha" operator="out"/>
<feColorMatrix type="matrix" values="0 0 0 0 0.0627451 0 0 0 0 0.0588235 0 0 0 0 0.141176 0 0 0 0.05 0"/>
<feBlend mode="normal" in2="effect1_dropShadow_5522_89578" result="effect2_dropShadow_5522_89578"/>
<feBlend mode="normal" in="SourceGraphic" in2="effect2_dropShadow_5522_89578" result="shape"/>
<feColorMatrix in="SourceAlpha" type="matrix" values="0 0 0 0 0 0 0 0 0 0 0 0 0 0 0 0 0 0 127 0" result="hardAlpha"/>
<feOffset dx="6" dy="4"/>
<feGaussianBlur stdDeviation="8"/>
<feComposite in2="hardAlpha" operator="arithmetic" k2="-1" k3="1"/>
<feColorMatrix type="matrix" values="0 0 0 0 0.0213804 0 0 0 0 0.0312616 0 0 0 0 0.219004 0 0 0 0.06 0"/>
<feBlend mode="normal" in2="shape" result="effect3_innerShadow_5522_89578"/>
</filter>
<filter id="filter14_ddi_5522_89578" x="151.359" y="-86.7637" width="213.684" height="175.91" filterUnits="userSpaceOnUse" color-interpolation-filters="sRGB">
<feFlood flood-opacity="0" result="BackgroundImageFix"/>
<feColorMatrix in="SourceAlpha" type="matrix" values="0 0 0 0 0 0 0 0 0 0 0 0 0 0 0 0 0 0 127 0" result="hardAlpha"/>
<feOffset dy="4"/>
<feGaussianBlur stdDeviation="8"/>
<feComposite in2="hardAlpha" operator="out"/>
<feColorMatrix type="matrix" values="0 0 0 0 0.0588235 0 0 0 0 0.141176 0 0 0 0 0.0666667 0 0 0 0.02 0"/>
<feBlend mode="normal" in2="BackgroundImageFix" result="effect1_dropShadow_5522_89578"/>
<feColorMatrix in="SourceAlpha" type="matrix" values="0 0 0 0 0 0 0 0 0 0 0 0 0 0 0 0 0 0 127 0" result="hardAlpha"/>
<feOffset dy="10"/>
<feGaussianBlur stdDeviation="16"/>
<feComposite in2="hardAlpha" operator="out"/>
<feColorMatrix type="matrix" values="0 0 0 0 0.0627451 0 0 0 0 0.0588235 0 0 0 0 0.141176 0 0 0 0.05 0"/>
<feBlend mode="normal" in2="effect1_dropShadow_5522_89578" result="effect2_dropShadow_5522_89578"/>
<feBlend mode="normal" in="SourceGraphic" in2="effect2_dropShadow_5522_89578" result="shape"/>
<feColorMatrix in="SourceAlpha" type="matrix" values="0 0 0 0 0 0 0 0 0 0 0 0 0 0 0 0 0 0 127 0" result="hardAlpha"/>
<feOffset dx="6" dy="4"/>
<feGaussianBlur stdDeviation="16"/>
<feComposite in2="hardAlpha" operator="arithmetic" k2="-1" k3="1"/>
<feColorMatrix type="matrix" values="0 0 0 0 0.0213804 0 0 0 0 0.0312616 0 0 0 0 0.219004 0 0 0 0.02 0"/>
<feBlend mode="normal" in2="shape" result="effect3_innerShadow_5522_89578"/>
</filter>
<filter id="filter15_ddi_5522_89578" x="211.258" y="-4.66211" width="93.8867" height="93.8086" filterUnits="userSpaceOnUse" color-interpolation-filters="sRGB">
<feFlood flood-opacity="0" result="BackgroundImageFix"/>
<feColorMatrix in="SourceAlpha" type="matrix" values="0 0 0 0 0 0 0 0 0 0 0 0 0 0 0 0 0 0 127 0" result="hardAlpha"/>
<feOffset dy="4"/>
<feGaussianBlur stdDeviation="8"/>
<feComposite in2="hardAlpha" operator="out"/>
<feColorMatrix type="matrix" values="0 0 0 0 0.0588235 0 0 0 0 0.141176 0 0 0 0 0.0666667 0 0 0 0.02 0"/>
<feBlend mode="normal" in2="BackgroundImageFix" result="effect1_dropShadow_5522_89578"/>
<feColorMatrix in="SourceAlpha" type="matrix" values="0 0 0 0 0 0 0 0 0 0 0 0 0 0 0 0 0 0 127 0" result="hardAlpha"/>
<feOffset dy="10"/>
<feGaussianBlur stdDeviation="16"/>
<feComposite in2="hardAlpha" operator="out"/>
<feColorMatrix type="matrix" values="0 0 0 0 0.0627451 0 0 0 0 0.0588235 0 0 0 0 0.141176 0 0 0 0.05 0"/>
<feBlend mode="normal" in2="effect1_dropShadow_5522_89578" result="effect2_dropShadow_5522_89578"/>
<feBlend mode="normal" in="SourceGraphic" in2="effect2_dropShadow_5522_89578" result="shape"/>
<feColorMatrix in="SourceAlpha" type="matrix" values="0 0 0 0 0 0 0 0 0 0 0 0 0 0 0 0 0 0 127 0" result="hardAlpha"/>
<feOffset dx="6" dy="4"/>
<feGaussianBlur stdDeviation="8"/>
<feComposite in2="hardAlpha" operator="arithmetic" k2="-1" k3="1"/>
<feColorMatrix type="matrix" values="0 0 0 0 0.0213804 0 0 0 0 0.0312616 0 0 0 0 0.219004 0 0 0 0.06 0"/>
<feBlend mode="normal" in2="shape" result="effect3_innerShadow_5522_89578"/>
</filter>
<filter id="filter16_ddi_5522_89578" x="309.754" y="-86.7637" width="213.684" height="175.91" filterUnits="userSpaceOnUse" color-interpolation-filters="sRGB">
<feFlood flood-opacity="0" result="BackgroundImageFix"/>
<feColorMatrix in="SourceAlpha" type="matrix" values="0 0 0 0 0 0 0 0 0 0 0 0 0 0 0 0 0 0 127 0" result="hardAlpha"/>
<feOffset dy="4"/>
<feGaussianBlur stdDeviation="8"/>
<feComposite in2="hardAlpha" operator="out"/>
<feColorMatrix type="matrix" values="0 0 0 0 0.0588235 0 0 0 0 0.141176 0 0 0 0 0.0666667 0 0 0 0.02 0"/>
<feBlend mode="normal" in2="BackgroundImageFix" result="effect1_dropShadow_5522_89578"/>
<feColorMatrix in="SourceAlpha" type="matrix" values="0 0 0 0 0 0 0 0 0 0 0 0 0 0 0 0 0 0 127 0" result="hardAlpha"/>
<feOffset dy="10"/>
<feGaussianBlur stdDeviation="16"/>
<feComposite in2="hardAlpha" operator="out"/>
<feColorMatrix type="matrix" values="0 0 0 0 0.0627451 0 0 0 0 0.0588235 0 0 0 0 0.141176 0 0 0 0.05 0"/>
<feBlend mode="normal" in2="effect1_dropShadow_5522_89578" result="effect2_dropShadow_5522_89578"/>
<feBlend mode="normal" in="SourceGraphic" in2="effect2_dropShadow_5522_89578" result="shape"/>
<feColorMatrix in="SourceAlpha" type="matrix" values="0 0 0 0 0 0 0 0 0 0 0 0 0 0 0 0 0 0 127 0" result="hardAlpha"/>
<feOffset dx="6" dy="4"/>
<feGaussianBlur stdDeviation="16"/>
<feComposite in2="hardAlpha" operator="arithmetic" k2="-1" k3="1"/>
<feColorMatrix type="matrix" values="0 0 0 0 0.0213804 0 0 0 0 0.0312616 0 0 0 0 0.219004 0 0 0 0.02 0"/>
<feBlend mode="normal" in2="shape" result="effect3_innerShadow_5522_89578"/>
</filter>
<linearGradient id="paint0_linear_5522_89578" x1="-120.319" y1="149.178" x2="-130.769" y2="65.1428" gradientUnits="userSpaceOnUse">
<stop stop-color="#5C85D5"/>
<stop offset="1" stop-color="#C3A7F3"/>
</linearGradient>
<linearGradient id="paint1_linear_5522_89578" x1="478.983" y1="149.178" x2="489.433" y2="65.1428" gradientUnits="userSpaceOnUse">
<stop stop-color="#C3A7F3"/>
<stop offset="1" stop-color="#5C85D5"/>
</linearGradient>
<linearGradient id="paint2_linear_5522_89578" x1="178.625" y1="87.0161" x2="178.625" y2="65.9881" gradientUnits="userSpaceOnUse">
<stop offset="0.288462" stop-color="#78A2F1"/>
<stop offset="1" stop-color="#E4E4E7" stop-opacity="0.7"/>
</linearGradient>
<linearGradient id="paint3_linear_5522_89578" x1="178.625" y1="87.0161" x2="178.625" y2="65.9881" gradientUnits="userSpaceOnUse">
<stop offset="0.288462" stop-color="#78A2F1"/>
<stop offset="1" stop-color="#E4E4E7" stop-opacity="0.7"/>
</linearGradient>
<linearGradient id="paint4_linear_5522_89578" x1="178.625" y1="87.0161" x2="178.625" y2="65.9881" gradientUnits="userSpaceOnUse">
<stop offset="0.288462" stop-color="#78A2F1"/>
<stop offset="1" stop-color="#E4E4E7" stop-opacity="0.7"/>
</linearGradient>
<linearGradient id="paint5_linear_5522_89578" x1="178.626" y1="87.0161" x2="178.626" y2="65.9881" gradientUnits="userSpaceOnUse">
<stop offset="0.288462" stop-color="#78A2F1"/>
<stop offset="1" stop-color="#E4E4E7" stop-opacity="0.7"/>
</linearGradient>
<linearGradient id="paint6_linear_5522_89578" x1="178.625" y1="125.022" x2="178.625" y2="146.05" gradientUnits="userSpaceOnUse">
<stop offset="0.288462" stop-color="#78A2F1"/>
<stop offset="1" stop-color="#E4E4E7" stop-opacity="0.7"/>
</linearGradient>
<linearGradient id="paint7_linear_5522_89578" x1="178.625" y1="125.022" x2="178.625" y2="146.05" gradientUnits="userSpaceOnUse">
<stop offset="0.288462" stop-color="#78A2F1"/>
<stop offset="1" stop-color="#E4E4E7" stop-opacity="0.7"/>
</linearGradient>
<linearGradient id="paint8_linear_5522_89578" x1="178.625" y1="125.022" x2="178.625" y2="146.05" gradientUnits="userSpaceOnUse">
<stop offset="0.288462" stop-color="#78A2F1"/>
<stop offset="1" stop-color="#E4E4E7" stop-opacity="0.7"/>
</linearGradient>
<linearGradient id="paint9_linear_5522_89578" x1="178.626" y1="125.022" x2="178.626" y2="146.05" gradientUnits="userSpaceOnUse">
<stop offset="0.288462" stop-color="#78A2F1"/>
<stop offset="1" stop-color="#E4E4E7" stop-opacity="0.7"/>
</linearGradient>
<linearGradient id="paint10_linear_5522_89578" x1="16.1207" y1="179.797" x2="-133.311" y2="179.797" gradientUnits="userSpaceOnUse">
<stop stop-color="#F4F4F5"/>
<stop offset="0.506904" stop-color="#266AE9" stop-opacity="0.2"/>
<stop offset="1" stop-color="#F4F4F5"/>
</linearGradient>
<linearGradient id="paint11_linear_5522_89578" x1="174.519" y1="179.797" x2="25.0874" y2="179.797" gradientUnits="userSpaceOnUse">
<stop stop-color="#F4F4F5"/>
<stop offset="0.506904" stop-color="#266AE9" stop-opacity="0.2"/>
<stop offset="1" stop-color="#F4F4F5"/>
</linearGradient>
<linearGradient id="paint12_linear_5522_89578" x1="88.9078" y1="168.307" x2="110.638" y2="191.962" gradientUnits="userSpaceOnUse">
<stop stop-color="white"/>
<stop offset="0.394231" stop-color="white" stop-opacity="0"/>
<stop offset="0.653846" stop-color="white" stop-opacity="0"/>
<stop offset="1" stop-color="white"/>
</linearGradient>
<linearGradient id="paint13_linear_5522_89578" x1="332.918" y1="179.797" x2="183.486" y2="179.797" gradientUnits="userSpaceOnUse">
<stop stop-color="#F4F4F5"/>
<stop offset="0.506904" stop-color="#266AE9" stop-opacity="0.2"/>
<stop offset="1" stop-color="#F4F4F5"/>
</linearGradient>
<linearGradient id="paint14_linear_5522_89578" x1="247.306" y1="168.307" x2="269.037" y2="191.962" gradientUnits="userSpaceOnUse">
<stop stop-color="white"/>
<stop offset="0.394231" stop-color="white" stop-opacity="0"/>
<stop offset="0.653846" stop-color="white" stop-opacity="0"/>
<stop offset="1" stop-color="white"/>
</linearGradient>
<linearGradient id="paint15_linear_5522_89578" x1="491.312" y1="179.797" x2="341.88" y2="179.797" gradientUnits="userSpaceOnUse">
<stop stop-color="#F4F4F5"/>
<stop offset="0.506904" stop-color="#266AE9" stop-opacity="0.2"/>
<stop offset="1" stop-color="#F4F4F5"/>
</linearGradient>
<linearGradient id="paint16_linear_5522_89578" x1="52.4332" y1="56.0903" x2="-96.9986" y2="56.0903" gradientUnits="userSpaceOnUse">
<stop stop-color="#F4F4F5"/>
<stop offset="0.506904" stop-color="#266AE9" stop-opacity="0.2"/>
<stop offset="1" stop-color="#F4F4F5"/>
</linearGradient>
<linearGradient id="paint17_linear_5522_89578" x1="455.433" y1="56.0903" x2="306.001" y2="56.0903" gradientUnits="userSpaceOnUse">
<stop stop-color="#F4F4F5"/>
<stop offset="0.506904" stop-color="#266AE9" stop-opacity="0.2"/>
<stop offset="1" stop-color="#F4F4F5"/>
</linearGradient>
<linearGradient id="paint18_linear_5522_89578" x1="16.1207" y1="31.4965" x2="-133.311" y2="31.4965" gradientUnits="userSpaceOnUse">
<stop stop-color="#F4F4F5"/>
<stop offset="0.506904" stop-color="#266AE9" stop-opacity="0.2"/>
<stop offset="1" stop-color="#F4F4F5"/>
</linearGradient>
<linearGradient id="paint19_linear_5522_89578" x1="174.519" y1="31.4965" x2="25.0874" y2="31.4965" gradientUnits="userSpaceOnUse">
<stop stop-color="#F4F4F5"/>
<stop offset="0.506904" stop-color="#266AE9" stop-opacity="0.2"/>
<stop offset="1" stop-color="#F4F4F5"/>
</linearGradient>
<linearGradient id="paint20_linear_5522_89578" x1="88.9078" y1="20.7526" x2="110.638" y2="44.4075" gradientUnits="userSpaceOnUse">
<stop stop-color="white"/>
<stop offset="0.394231" stop-color="white" stop-opacity="0"/>
<stop offset="0.653846" stop-color="white" stop-opacity="0"/>
<stop offset="1" stop-color="white"/>
</linearGradient>
<linearGradient id="paint21_linear_5522_89578" x1="332.918" y1="31.4965" x2="183.486" y2="31.4965" gradientUnits="userSpaceOnUse">
<stop stop-color="#F4F4F5"/>
<stop offset="0.506904" stop-color="#266AE9" stop-opacity="0.2"/>
<stop offset="1" stop-color="#F4F4F5"/>
</linearGradient>
<linearGradient id="paint22_linear_5522_89578" x1="247.306" y1="20.7526" x2="269.037" y2="44.4075" gradientUnits="userSpaceOnUse">
<stop stop-color="white"/>
<stop offset="0.394231" stop-color="white" stop-opacity="0"/>
<stop offset="0.653846" stop-color="white" stop-opacity="0"/>
<stop offset="1" stop-color="white"/>
</linearGradient>
<linearGradient id="paint23_linear_5522_89578" x1="491.312" y1="31.4965" x2="341.88" y2="31.4965" gradientUnits="userSpaceOnUse">
<stop stop-color="#F4F4F5"/>
<stop offset="0.506904" stop-color="#266AE9" stop-opacity="0.2"/>
<stop offset="1" stop-color="#F4F4F5"/>
</linearGradient>
<linearGradient id="paint24_linear_5522_89578" x1="179" y1="4.90854" x2="179" y2="238.385" gradientUnits="userSpaceOnUse">
<stop stop-color="#FAFAFA"/>
<stop offset="0.15" stop-color="#FAFAFA" stop-opacity="0"/>
<stop offset="0.75" stop-color="#FAFAFA" stop-opacity="0"/>
<stop offset="0.867519" stop-color="#FAFAFA"/>
</linearGradient>
<clipPath id="clip0_5522_89578">
<rect width="358" height="230" fill="white"/>
</clipPath>
<clipPath id="clip1_5522_89578">
<rect width="526" height="234" fill="white" transform="translate(-84 -8)"/>
</clipPath>
</defs>
</svg>
