<svg width="704" height="326" viewBox="0 0 704 326" fill="none" xmlns="http://www.w3.org/2000/svg">
<g clip-path="url(#clip0_5522_75718)">
<path d="M355 83L746 83" stroke="url(#paint0_linear_5522_75718)" stroke-opacity="0.4" stroke-linecap="round"/>
<path d="M532 159L532 550" stroke="url(#paint1_linear_5522_75718)" stroke-opacity="0.4" stroke-linecap="round"/>
<path d="M332 198L332 589" stroke="url(#paint2_linear_5522_75718)" stroke-opacity="0.4" stroke-linecap="round"/>
<path d="M98 168L450 168" stroke="url(#paint3_linear_5522_75718)" stroke-opacity="0.4" stroke-linecap="round"/>
<g filter="url(#filter0_dd_5522_75718)">
<rect x="219" y="228" width="267" height="48" rx="16" fill="white"/>
<rect x="219.5" y="228.5" width="266" height="47" rx="15.5" stroke="#F3F4F7"/>
<path d="M253.64 258H252.36V246.8H253.768L257.928 256.24L262.072 246.8H263.464V258H262.184V249.328L258.376 258H257.464L253.64 249.328V258ZM271.068 258L270.972 256.56C270.748 257.051 270.417 257.435 269.98 257.712C269.543 257.979 268.988 258.112 268.316 258.112C267.74 258.112 267.249 258.021 266.844 257.84C266.439 257.659 266.124 257.403 265.9 257.072C265.687 256.731 265.58 256.331 265.58 255.872C265.58 255.2 265.831 254.651 266.332 254.224C266.833 253.787 267.559 253.52 268.508 253.424L270.972 253.152V252.512C270.972 252.064 270.807 251.707 270.476 251.44C270.145 251.163 269.697 251.024 269.132 251.024C268.577 251.024 268.113 251.152 267.74 251.408C267.377 251.664 267.127 252.032 266.988 252.512L265.9 252.128C266.113 251.424 266.503 250.875 267.068 250.48C267.644 250.085 268.343 249.888 269.164 249.888C270.113 249.888 270.849 250.133 271.372 250.624C271.905 251.104 272.172 251.76 272.172 252.592V258H271.068ZM270.972 254.176L268.492 254.464C267.959 254.528 267.553 254.677 267.276 254.912C266.999 255.136 266.86 255.435 266.86 255.808C266.86 256.181 266.993 256.48 267.26 256.704C267.537 256.928 267.932 257.04 268.444 257.04C269.031 257.04 269.511 256.923 269.884 256.688C270.257 256.453 270.529 256.139 270.7 255.744C270.881 255.339 270.972 254.901 270.972 254.432V254.176ZM274.513 250H275.617L275.681 251.136C275.937 250.741 276.273 250.437 276.689 250.224C277.105 250 277.591 249.888 278.145 249.888C278.753 249.888 279.287 250.021 279.745 250.288C280.204 250.544 280.561 250.933 280.817 251.456C281.073 251.968 281.201 252.613 281.201 253.392V258H280.001V253.536C280.001 252.704 279.82 252.075 279.457 251.648C279.105 251.211 278.593 250.992 277.921 250.992C277.228 250.992 276.684 251.221 276.289 251.68C275.905 252.139 275.713 252.816 275.713 253.712V258H274.513V250ZM290.073 258H288.985L288.905 256.848C288.66 257.253 288.329 257.568 287.913 257.792C287.497 258.005 287.012 258.112 286.457 258.112C285.838 258.112 285.3 257.984 284.841 257.728C284.382 257.472 284.025 257.088 283.769 256.576C283.524 256.064 283.401 255.419 283.401 254.64V250H284.585V254.512C284.585 255.333 284.761 255.957 285.113 256.384C285.476 256.8 285.993 257.008 286.665 257.008C287.348 257.008 287.886 256.789 288.281 256.352C288.686 255.904 288.889 255.232 288.889 254.336V250H290.073V258ZM297.521 258L297.425 256.56C297.201 257.051 296.871 257.435 296.433 257.712C295.996 257.979 295.441 258.112 294.769 258.112C294.193 258.112 293.703 258.021 293.297 257.84C292.892 257.659 292.577 257.403 292.353 257.072C292.14 256.731 292.033 256.331 292.033 255.872C292.033 255.2 292.284 254.651 292.785 254.224C293.287 253.787 294.012 253.52 294.961 253.424L297.425 253.152V252.512C297.425 252.064 297.26 251.707 296.929 251.44C296.599 251.163 296.151 251.024 295.585 251.024C295.031 251.024 294.567 251.152 294.193 251.408C293.831 251.664 293.58 252.032 293.441 252.512L292.353 252.128C292.567 251.424 292.956 250.875 293.521 250.48C294.097 250.085 294.796 249.888 295.617 249.888C296.567 249.888 297.303 250.133 297.825 250.624C298.359 251.104 298.625 251.76 298.625 252.592V258H297.521ZM297.425 254.176L294.945 254.464C294.412 254.528 294.007 254.677 293.729 254.912C293.452 255.136 293.313 255.435 293.313 255.808C293.313 256.181 293.447 256.48 293.713 256.704C293.991 256.928 294.385 257.04 294.897 257.04C295.484 257.04 295.964 256.923 296.337 256.688C296.711 256.453 296.983 256.139 297.153 255.744C297.335 255.339 297.425 254.901 297.425 254.432V254.176ZM300.966 246.48H302.166V258H300.966V246.48ZM314.099 258L314.003 256.56C313.779 257.051 313.449 257.435 313.011 257.712C312.574 257.979 312.019 258.112 311.347 258.112C310.771 258.112 310.281 258.021 309.875 257.84C309.47 257.659 309.155 257.403 308.931 257.072C308.718 256.731 308.611 256.331 308.611 255.872C308.611 255.2 308.862 254.651 309.363 254.224C309.865 253.787 310.59 253.52 311.539 253.424L314.003 253.152V252.512C314.003 252.064 313.838 251.707 313.507 251.44C313.177 251.163 312.729 251.024 312.163 251.024C311.609 251.024 311.145 251.152 310.771 251.408C310.409 251.664 310.158 252.032 310.019 252.512L308.931 252.128C309.145 251.424 309.534 250.875 310.099 250.48C310.675 250.085 311.374 249.888 312.195 249.888C313.145 249.888 313.881 250.133 314.403 250.624C314.937 251.104 315.203 251.76 315.203 252.592V258H314.099ZM314.003 254.176L311.523 254.464C310.99 254.528 310.585 254.677 310.307 254.912C310.03 255.136 309.891 255.435 309.891 255.808C309.891 256.181 310.025 256.48 310.291 256.704C310.569 256.928 310.963 257.04 311.475 257.04C312.062 257.04 312.542 256.923 312.915 256.688C313.289 256.453 313.561 256.139 313.731 255.744C313.913 255.339 314.003 254.901 314.003 254.432V254.176ZM318.617 256.384L318.745 256.368V261.2H317.545V250H318.649L318.729 251.488C318.974 251.04 319.337 250.661 319.817 250.352C320.297 250.043 320.899 249.888 321.625 249.888C322.318 249.888 322.942 250.059 323.497 250.4C324.051 250.731 324.489 251.205 324.809 251.824C325.129 252.432 325.289 253.157 325.289 254C325.289 254.832 325.134 255.557 324.825 256.176C324.526 256.784 324.099 257.259 323.545 257.6C323.001 257.941 322.361 258.112 321.625 258.112C320.857 258.112 320.222 257.947 319.721 257.616C319.219 257.285 318.851 256.875 318.617 256.384ZM323.993 254C323.993 253.083 323.753 252.357 323.273 251.824C322.803 251.28 322.169 251.008 321.369 251.008C320.867 251.008 320.414 251.125 320.009 251.36C319.614 251.595 319.305 251.936 319.081 252.384C318.857 252.832 318.745 253.371 318.745 254C318.745 254.619 318.857 255.152 319.081 255.6C319.305 256.048 319.614 256.395 320.009 256.64C320.414 256.875 320.867 256.992 321.369 256.992C322.169 256.992 322.803 256.725 323.273 256.192C323.753 255.648 323.993 254.917 323.993 254ZM328.32 256.384L328.448 256.368V261.2H327.248V250H328.352L328.432 251.488C328.677 251.04 329.04 250.661 329.52 250.352C330 250.043 330.602 249.888 331.328 249.888C332.021 249.888 332.645 250.059 333.2 250.4C333.754 250.731 334.192 251.205 334.512 251.824C334.832 252.432 334.992 253.157 334.992 254C334.992 254.832 334.837 255.557 334.528 256.176C334.229 256.784 333.802 257.259 333.248 257.6C332.704 257.941 332.064 258.112 331.328 258.112C330.56 258.112 329.925 257.947 329.424 257.616C328.922 257.285 328.554 256.875 328.32 256.384ZM333.696 254C333.696 253.083 333.456 252.357 332.976 251.824C332.506 251.28 331.872 251.008 331.072 251.008C330.57 251.008 330.117 251.125 329.712 251.36C329.317 251.595 329.008 251.936 328.784 252.384C328.56 252.832 328.448 253.371 328.448 254C328.448 254.619 328.56 255.152 328.784 255.6C329.008 256.048 329.317 256.395 329.712 256.64C330.117 256.875 330.57 256.992 331.072 256.992C331.872 256.992 332.506 256.725 332.976 256.192C333.456 255.648 333.696 254.917 333.696 254ZM336.951 246.48H338.151V258H336.951V246.48ZM340.831 250H342.015V258H340.831V250ZM341.439 248.4C341.194 248.4 340.991 248.32 340.831 248.16C340.671 248 340.591 247.803 340.591 247.568C340.591 247.323 340.671 247.12 340.831 246.96C340.991 246.8 341.194 246.72 341.439 246.72C341.663 246.72 341.855 246.8 342.015 246.96C342.186 247.12 342.271 247.323 342.271 247.568C342.271 247.803 342.186 248 342.015 248.16C341.855 248.32 341.663 248.4 341.439 248.4ZM348.124 258.112C347.346 258.112 346.663 257.941 346.076 257.6C345.49 257.259 345.031 256.784 344.7 256.176C344.38 255.557 344.22 254.843 344.22 254.032C344.22 253.211 344.38 252.491 344.7 251.872C345.031 251.243 345.49 250.757 346.076 250.416C346.663 250.064 347.346 249.888 348.124 249.888C348.946 249.888 349.666 250.08 350.284 250.464C350.903 250.837 351.351 251.36 351.628 252.032L350.524 252.416C350.364 251.989 350.071 251.653 349.644 251.408C349.228 251.152 348.743 251.024 348.188 251.024C347.644 251.024 347.17 251.147 346.764 251.392C346.37 251.637 346.06 251.984 345.836 252.432C345.623 252.88 345.516 253.408 345.516 254.016C345.516 254.912 345.756 255.632 346.236 256.176C346.716 256.709 347.356 256.976 348.156 256.976C348.7 256.976 349.186 256.853 349.612 256.608C350.039 256.363 350.354 256.032 350.556 255.616L351.644 256C351.356 256.661 350.903 257.179 350.284 257.552C349.666 257.925 348.946 258.112 348.124 258.112ZM358.615 258L358.519 256.56C358.295 257.051 357.964 257.435 357.527 257.712C357.09 257.979 356.535 258.112 355.863 258.112C355.287 258.112 354.796 258.021 354.391 257.84C353.986 257.659 353.671 257.403 353.447 257.072C353.234 256.731 353.127 256.331 353.127 255.872C353.127 255.2 353.378 254.651 353.879 254.224C354.38 253.787 355.106 253.52 356.055 253.424L358.519 253.152V252.512C358.519 252.064 358.354 251.707 358.023 251.44C357.692 251.163 357.244 251.024 356.679 251.024C356.124 251.024 355.66 251.152 355.287 251.408C354.924 251.664 354.674 252.032 354.535 252.512L353.447 252.128C353.66 251.424 354.05 250.875 354.615 250.48C355.191 250.085 355.89 249.888 356.711 249.888C357.66 249.888 358.396 250.133 358.919 250.624C359.452 251.104 359.719 251.76 359.719 252.592V258H358.615ZM358.519 254.176L356.039 254.464C355.506 254.528 355.1 254.677 354.823 254.912C354.546 255.136 354.407 255.435 354.407 255.808C354.407 256.181 354.54 256.48 354.807 256.704C355.084 256.928 355.479 257.04 355.991 257.04C356.578 257.04 357.058 256.923 357.431 256.688C357.804 256.453 358.076 256.139 358.247 255.744C358.428 255.339 358.519 254.901 358.519 254.432V254.176ZM362.572 250V247.76H363.772V250H365.9V251.12H363.772V255.424C363.772 255.915 363.873 256.272 364.076 256.496C364.289 256.72 364.556 256.853 364.876 256.896C365.207 256.939 365.548 256.939 365.9 256.896V257.936C365.484 258.032 365.073 258.059 364.668 258.016C364.273 257.973 363.916 257.856 363.596 257.664C363.287 257.461 363.036 257.179 362.844 256.816C362.663 256.453 362.572 255.989 362.572 255.424V251.12H361.372V250H362.572ZM367.925 250H369.109V258H367.925V250ZM368.533 248.4C368.288 248.4 368.085 248.32 367.925 248.16C367.765 248 367.685 247.803 367.685 247.568C367.685 247.323 367.765 247.12 367.925 246.96C368.085 246.8 368.288 246.72 368.533 246.72C368.757 246.72 368.949 246.8 369.109 246.96C369.28 247.12 369.365 247.323 369.365 247.568C369.365 247.803 369.28 248 369.109 248.16C368.949 248.32 368.757 248.4 368.533 248.4ZM375.266 258.112C374.509 258.112 373.831 257.947 373.234 257.616C372.637 257.285 372.167 256.816 371.826 256.208C371.485 255.589 371.314 254.859 371.314 254.016C371.314 253.163 371.485 252.427 371.826 251.808C372.178 251.189 372.653 250.715 373.25 250.384C373.858 250.053 374.541 249.888 375.298 249.888C376.055 249.888 376.733 250.053 377.33 250.384C377.938 250.715 378.413 251.189 378.754 251.808C379.106 252.416 379.282 253.141 379.282 253.984C379.282 254.837 379.106 255.573 378.754 256.192C378.402 256.811 377.922 257.285 377.314 257.616C376.706 257.947 376.023 258.112 375.266 258.112ZM375.25 256.976C375.719 256.976 376.162 256.875 376.578 256.672C376.994 256.459 377.33 256.133 377.586 255.696C377.853 255.248 377.986 254.683 377.986 254C377.986 253.307 377.858 252.741 377.602 252.304C377.346 251.867 377.01 251.547 376.594 251.344C376.189 251.131 375.751 251.024 375.282 251.024C374.813 251.024 374.375 251.131 373.97 251.344C373.565 251.547 373.234 251.872 372.978 252.32C372.733 252.757 372.61 253.317 372.61 254C372.61 254.693 372.733 255.259 372.978 255.696C373.223 256.133 373.543 256.459 373.938 256.672C374.343 256.875 374.781 256.976 375.25 256.976ZM381.248 250H382.352L382.416 251.136C382.672 250.741 383.008 250.437 383.424 250.224C383.84 250 384.325 249.888 384.88 249.888C385.488 249.888 386.021 250.021 386.48 250.288C386.938 250.544 387.296 250.933 387.552 251.456C387.808 251.968 387.936 252.613 387.936 253.392V258H386.736V253.536C386.736 252.704 386.554 252.075 386.192 251.648C385.84 251.211 385.328 250.992 384.656 250.992C383.962 250.992 383.418 251.221 383.024 251.68C382.64 252.139 382.448 252.816 382.448 253.712V258H381.248V250ZM395.26 250V247.76H396.46V250H398.588V251.12H396.46V255.424C396.46 255.915 396.561 256.272 396.764 256.496C396.977 256.72 397.244 256.853 397.564 256.896C397.894 256.939 398.236 256.939 398.588 256.896V257.936C398.172 258.032 397.761 258.059 397.356 258.016C396.961 257.973 396.604 257.856 396.284 257.664C395.974 257.461 395.724 257.179 395.532 256.816C395.35 256.453 395.26 255.989 395.26 255.424V251.12H394.06V250H395.26ZM400.373 250H401.477L401.541 251.168C401.754 250.88 402.01 250.635 402.309 250.432C402.618 250.229 402.954 250.091 403.317 250.016C403.69 249.931 404.085 249.925 404.501 250V251.2C404.053 251.115 403.647 251.115 403.285 251.2C402.933 251.285 402.629 251.445 402.373 251.68C402.117 251.915 401.919 252.213 401.781 252.576C401.642 252.928 401.573 253.339 401.573 253.808V258H400.373V250ZM411.146 258L411.05 256.56C410.826 257.051 410.496 257.435 410.058 257.712C409.621 257.979 409.066 258.112 408.394 258.112C407.818 258.112 407.328 258.021 406.922 257.84C406.517 257.659 406.202 257.403 405.978 257.072C405.765 256.731 405.658 256.331 405.658 255.872C405.658 255.2 405.909 254.651 406.41 254.224C406.912 253.787 407.637 253.52 408.586 253.424L411.05 253.152V252.512C411.05 252.064 410.885 251.707 410.554 251.44C410.224 251.163 409.776 251.024 409.21 251.024C408.656 251.024 408.192 251.152 407.818 251.408C407.456 251.664 407.205 252.032 407.066 252.512L405.978 252.128C406.192 251.424 406.581 250.875 407.146 250.48C407.722 250.085 408.421 249.888 409.242 249.888C410.192 249.888 410.928 250.133 411.45 250.624C411.984 251.104 412.25 251.76 412.25 252.592V258H411.146ZM411.05 254.176L408.57 254.464C408.037 254.528 407.632 254.677 407.354 254.912C407.077 255.136 406.938 255.435 406.938 255.808C406.938 256.181 407.072 256.48 407.338 256.704C407.616 256.928 408.01 257.04 408.522 257.04C409.109 257.04 409.589 256.923 409.962 256.688C410.336 256.453 410.608 256.139 410.778 255.744C410.96 255.339 411.05 254.901 411.05 254.432V254.176ZM417.999 258.112C417.221 258.112 416.538 257.941 415.951 257.6C415.365 257.259 414.906 256.784 414.575 256.176C414.255 255.557 414.095 254.843 414.095 254.032C414.095 253.211 414.255 252.491 414.575 251.872C414.906 251.243 415.365 250.757 415.951 250.416C416.538 250.064 417.221 249.888 417.999 249.888C418.821 249.888 419.541 250.08 420.159 250.464C420.778 250.837 421.226 251.36 421.503 252.032L420.399 252.416C420.239 251.989 419.946 251.653 419.519 251.408C419.103 251.152 418.618 251.024 418.063 251.024C417.519 251.024 417.045 251.147 416.639 251.392C416.245 251.637 415.935 251.984 415.711 252.432C415.498 252.88 415.391 253.408 415.391 254.016C415.391 254.912 415.631 255.632 416.111 256.176C416.591 256.709 417.231 256.976 418.031 256.976C418.575 256.976 419.061 256.853 419.487 256.608C419.914 256.363 420.229 256.032 420.431 255.616L421.519 256C421.231 256.661 420.778 257.179 420.159 257.552C419.541 257.925 418.821 258.112 417.999 258.112ZM423.482 246.48H424.698V253.472H425.434L428.586 250H430.282L426.506 254L430.298 258H428.586L425.434 254.512H424.698V258H423.482V246.48ZM432.003 250H433.187V258H432.003V250ZM432.611 248.4C432.366 248.4 432.163 248.32 432.003 248.16C431.843 248 431.763 247.803 431.763 247.568C431.763 247.323 431.843 247.12 432.003 246.96C432.163 246.8 432.366 246.72 432.611 246.72C432.835 246.72 433.027 246.8 433.187 246.96C433.358 247.12 433.443 247.323 433.443 247.568C433.443 247.803 433.358 248 433.187 248.16C433.027 248.32 432.835 248.4 432.611 248.4ZM435.888 250H436.992L437.056 251.136C437.312 250.741 437.648 250.437 438.064 250.224C438.48 250 438.966 249.888 439.52 249.888C440.128 249.888 440.662 250.021 441.12 250.288C441.579 250.544 441.936 250.933 442.192 251.456C442.448 251.968 442.576 252.613 442.576 253.392V258H441.376V253.536C441.376 252.704 441.195 252.075 440.832 251.648C440.48 251.211 439.968 250.992 439.296 250.992C438.603 250.992 438.059 251.221 437.664 251.68C437.28 252.139 437.088 252.816 437.088 253.712V258H435.888V250ZM451.048 250H452.152V256.528C452.152 257.509 451.933 258.347 451.496 259.04C451.059 259.744 450.424 260.277 449.592 260.64C448.76 261.013 447.747 261.2 446.552 261.2L446.36 260.096C447.864 260.075 449.005 259.76 449.784 259.152C450.563 258.555 450.952 257.68 450.952 256.528V256.352L451.08 256.384C450.835 256.853 450.467 257.259 449.976 257.6C449.485 257.931 448.851 258.101 448.072 258.112C447.336 258.112 446.691 257.947 446.136 257.616C445.592 257.275 445.165 256.795 444.856 256.176C444.557 255.557 444.408 254.832 444.408 254C444.408 253.168 444.557 252.448 444.856 251.84C445.165 251.221 445.592 250.741 446.136 250.4C446.691 250.059 447.336 249.888 448.072 249.888C448.552 249.888 448.979 249.963 449.352 250.112C449.725 250.251 450.045 250.443 450.312 250.688C450.579 250.923 450.797 251.189 450.968 251.488L451.048 250ZM445.704 254C445.704 254.917 445.939 255.648 446.408 256.192C446.888 256.725 447.533 256.992 448.344 256.992C448.835 256.992 449.277 256.875 449.672 256.64C450.067 256.405 450.376 256.064 450.6 255.616C450.835 255.168 450.952 254.629 450.952 254C450.952 253.371 450.835 252.837 450.6 252.4C450.376 251.952 450.067 251.611 449.672 251.376C449.277 251.131 448.835 251.008 448.344 251.008C447.544 251.008 446.904 251.28 446.424 251.824C445.944 252.368 445.704 253.093 445.704 254Z" fill="#9CA3AF"/>
<path d="M251 253.2H453.368V254H251V253.2Z" fill="#9CA3AF"/>
</g>
<g filter="url(#filter1_dd_5522_75718)">
<rect x="233" y="38" width="240" height="48" rx="16" fill="white"/>
<rect x="233.5" y="38.5" width="239" height="47" rx="15.5" stroke="#F3F4F7"/>
<path d="M267.64 68H266.36V56.8H267.768L271.928 66.24L276.072 56.8H277.464V68H276.184V59.328L272.376 68H271.464L267.64 59.328V68ZM280.3 60H281.484V68H280.3V60ZM280.908 58.4C280.663 58.4 280.46 58.32 280.3 58.16C280.14 58 280.06 57.8027 280.06 57.568C280.06 57.3227 280.14 57.12 280.3 56.96C280.46 56.8 280.663 56.72 280.908 56.72C281.132 56.72 281.324 56.8 281.484 56.96C281.655 57.12 281.74 57.3227 281.74 57.568C281.74 57.8027 281.655 58 281.484 58.16C281.324 58.32 281.132 58.4 280.908 58.4ZM284.841 65.552C284.905 65.872 285.022 66.1387 285.193 66.352C285.364 66.5547 285.582 66.7093 285.849 66.816C286.126 66.9227 286.446 66.976 286.809 66.976C287.374 66.976 287.801 66.8693 288.089 66.656C288.388 66.432 288.537 66.1547 288.537 65.824C288.537 65.5467 288.446 65.3227 288.265 65.152C288.094 64.9813 287.865 64.8427 287.577 64.736C287.289 64.6187 286.969 64.5173 286.617 64.432C286.34 64.368 286.041 64.2933 285.721 64.208C285.401 64.112 285.097 63.984 284.809 63.824C284.521 63.664 284.286 63.456 284.105 63.2C283.924 62.944 283.833 62.608 283.833 62.192C283.833 61.7333 283.956 61.3333 284.201 60.992C284.457 60.64 284.804 60.368 285.241 60.176C285.689 59.984 286.201 59.888 286.777 59.888C287.438 59.888 288.025 60.032 288.537 60.32C289.06 60.608 289.422 61.056 289.625 61.664L288.505 62.048C288.43 61.7707 288.292 61.5573 288.089 61.408C287.897 61.2587 287.678 61.1573 287.433 61.104C287.198 61.0507 286.964 61.024 286.729 61.024C286.249 61.024 285.86 61.12 285.561 61.312C285.273 61.4933 285.129 61.7707 285.129 62.144C285.129 62.3467 285.177 62.5173 285.273 62.656C285.369 62.784 285.502 62.8907 285.673 62.976C285.844 63.0613 286.046 63.136 286.281 63.2C286.516 63.2533 286.772 63.3173 287.049 63.392C287.358 63.4667 287.673 63.5627 287.993 63.68C288.313 63.7867 288.612 63.9307 288.889 64.112C289.166 64.2827 289.39 64.5067 289.561 64.784C289.742 65.0507 289.833 65.3867 289.833 65.792C289.833 66.2613 289.705 66.672 289.449 67.024C289.193 67.3653 288.836 67.632 288.377 67.824C287.929 68.016 287.406 68.112 286.809 68.112C285.988 68.112 285.305 67.9307 284.761 67.568C284.228 67.1947 283.87 66.6507 283.689 65.936L284.841 65.552ZM292.435 65.552C292.499 65.872 292.616 66.1387 292.787 66.352C292.958 66.5547 293.176 66.7093 293.443 66.816C293.72 66.9227 294.04 66.976 294.403 66.976C294.968 66.976 295.395 66.8693 295.683 66.656C295.982 66.432 296.131 66.1547 296.131 65.824C296.131 65.5467 296.04 65.3227 295.859 65.152C295.688 64.9813 295.459 64.8427 295.171 64.736C294.883 64.6187 294.563 64.5173 294.211 64.432C293.934 64.368 293.635 64.2933 293.315 64.208C292.995 64.112 292.691 63.984 292.403 63.824C292.115 63.664 291.88 63.456 291.699 63.2C291.518 62.944 291.427 62.608 291.427 62.192C291.427 61.7333 291.55 61.3333 291.795 60.992C292.051 60.64 292.398 60.368 292.835 60.176C293.283 59.984 293.795 59.888 294.371 59.888C295.032 59.888 295.619 60.032 296.131 60.32C296.654 60.608 297.016 61.056 297.219 61.664L296.099 62.048C296.024 61.7707 295.886 61.5573 295.683 61.408C295.491 61.2587 295.272 61.1573 295.027 61.104C294.792 61.0507 294.558 61.024 294.323 61.024C293.843 61.024 293.454 61.12 293.155 61.312C292.867 61.4933 292.723 61.7707 292.723 62.144C292.723 62.3467 292.771 62.5173 292.867 62.656C292.963 62.784 293.096 62.8907 293.267 62.976C293.438 63.0613 293.64 63.136 293.875 63.2C294.11 63.2533 294.366 63.3173 294.643 63.392C294.952 63.4667 295.267 63.5627 295.587 63.68C295.907 63.7867 296.206 63.9307 296.483 64.112C296.76 64.2827 296.984 64.5067 297.155 64.784C297.336 65.0507 297.427 65.3867 297.427 65.792C297.427 66.2613 297.299 66.672 297.043 67.024C296.787 67.3653 296.43 67.632 295.971 67.824C295.523 68.016 295 68.112 294.403 68.112C293.582 68.112 292.899 67.9307 292.355 67.568C291.822 67.1947 291.464 66.6507 291.283 65.936L292.435 65.552ZM299.613 60H300.797V68H299.613V60ZM300.221 58.4C299.975 58.4 299.773 58.32 299.613 58.16C299.453 58 299.373 57.8027 299.373 57.568C299.373 57.3227 299.453 57.12 299.613 56.96C299.773 56.8 299.975 56.72 300.221 56.72C300.445 56.72 300.637 56.8 300.797 56.96C300.967 57.12 301.053 57.3227 301.053 57.568C301.053 57.8027 300.967 58 300.797 58.16C300.637 58.32 300.445 58.4 300.221 58.4ZM303.498 60H304.602L304.666 61.136C304.922 60.7413 305.258 60.4373 305.674 60.224C306.09 60 306.575 59.888 307.13 59.888C307.738 59.888 308.271 60.0213 308.73 60.288C309.188 60.544 309.546 60.9333 309.802 61.456C310.058 61.968 310.186 62.6133 310.186 63.392V68H308.986V63.536C308.986 62.704 308.804 62.0747 308.442 61.648C308.09 61.2107 307.578 60.992 306.906 60.992C306.212 60.992 305.668 61.2213 305.274 61.68C304.89 62.1387 304.698 62.816 304.698 63.712V68H303.498V60ZM318.657 60H319.761V66.528C319.761 67.5093 319.543 68.3467 319.105 69.04C318.668 69.744 318.033 70.2773 317.201 70.64C316.369 71.0133 315.356 71.2 314.161 71.2L313.969 70.096C315.473 70.0747 316.615 69.76 317.393 69.152C318.172 68.5547 318.561 67.68 318.561 66.528V66.352L318.689 66.384C318.444 66.8533 318.076 67.2587 317.585 67.6C317.095 67.9307 316.46 68.1013 315.681 68.112C314.945 68.112 314.3 67.9467 313.745 67.616C313.201 67.2747 312.775 66.7947 312.465 66.176C312.167 65.5573 312.017 64.832 312.017 64C312.017 63.168 312.167 62.448 312.465 61.84C312.775 61.2213 313.201 60.7413 313.745 60.4C314.3 60.0587 314.945 59.888 315.681 59.888C316.161 59.888 316.588 59.9627 316.961 60.112C317.335 60.2507 317.655 60.4427 317.921 60.688C318.188 60.9227 318.407 61.1893 318.577 61.488L318.657 60ZM313.313 64C313.313 64.9173 313.548 65.648 314.017 66.192C314.497 66.7253 315.143 66.992 315.953 66.992C316.444 66.992 316.887 66.8747 317.281 66.64C317.676 66.4053 317.985 66.064 318.209 65.616C318.444 65.168 318.561 64.6293 318.561 64C318.561 63.3707 318.444 62.8373 318.209 62.4C317.985 61.952 317.676 61.6107 317.281 61.376C316.887 61.1307 316.444 61.008 315.953 61.008C315.153 61.008 314.513 61.28 314.033 61.824C313.553 62.368 313.313 63.0933 313.313 64ZM333.293 60.112C333.293 59.44 333.095 58.9067 332.701 58.512C332.306 58.1173 331.661 57.92 330.765 57.92H328.109V62.304H330.781C331.367 62.304 331.842 62.2133 332.205 62.032C332.578 61.8507 332.85 61.5947 333.021 61.264C333.202 60.9333 333.293 60.5493 333.293 60.112ZM330.765 56.8C331.639 56.8 332.354 56.9493 332.909 57.248C333.474 57.5467 333.895 57.9467 334.173 58.448C334.45 58.9387 334.589 59.4933 334.589 60.112C334.589 60.5493 334.514 60.9653 334.365 61.36C334.226 61.7547 334.002 62.1067 333.693 62.416C333.383 62.7253 332.989 62.9707 332.509 63.152C332.029 63.3333 331.453 63.424 330.781 63.424H328.109V68H326.829V56.8H330.765ZM331.693 62.944L334.797 68H333.341L330.317 62.944H331.693ZM342.093 58.48C341.879 58.2667 341.613 58.1067 341.293 58C340.983 57.8827 340.631 57.824 340.237 57.824C339.501 57.824 338.951 58.016 338.589 58.4C338.237 58.784 338.061 59.2693 338.061 59.856C338.061 60.2827 338.167 60.6347 338.381 60.912C338.605 61.1893 338.941 61.3973 339.389 61.536C339.847 61.6747 340.423 61.744 341.117 61.744H344.589V62.864H341.133C340.066 62.864 339.25 63.0187 338.685 63.328C338.13 63.6267 337.853 64.1653 337.853 64.944C337.853 65.3493 337.933 65.7067 338.093 66.016C338.253 66.3253 338.503 66.5653 338.845 66.736C339.186 66.896 339.629 66.976 340.173 66.976C340.994 66.976 341.575 66.7787 341.917 66.384C342.258 65.9893 342.429 65.3867 342.429 64.576V62.528H343.661V64.576C343.661 65.4187 343.522 66.1013 343.245 66.624C342.967 67.136 342.567 67.5147 342.045 67.76C341.522 67.9947 340.898 68.112 340.173 68.112C339.373 68.112 338.701 67.984 338.157 67.728C337.623 67.4613 337.223 67.0987 336.957 66.64C336.69 66.1707 336.557 65.6427 336.557 65.056C336.557 64.5227 336.658 64.0747 336.861 63.712C337.063 63.3387 337.341 63.04 337.693 62.816C338.055 62.5813 338.466 62.416 338.925 62.32V62.24C338.466 62.1547 338.077 61.9893 337.757 61.744C337.437 61.4987 337.191 61.2053 337.021 60.864C336.85 60.512 336.765 60.1333 336.765 59.728C336.765 59.1733 336.893 58.6667 337.149 58.208C337.415 57.7493 337.805 57.3813 338.317 57.104C338.829 56.8267 339.453 56.688 340.189 56.688C340.797 56.688 341.346 56.784 341.837 56.976C342.338 57.1573 342.759 57.4187 343.101 57.76L342.093 58.48ZM343.101 57.76L342.093 58.48L343.101 57.76ZM341.821 61.744C341.959 61.744 342.082 61.7173 342.189 61.664C342.295 61.6 342.375 61.5147 342.429 61.408C342.482 61.3013 342.509 61.1787 342.509 61.04V59.776H343.677V61.744H345.821V62.864H343.677V65.424C343.677 65.9467 343.815 66.3307 344.093 66.576C344.37 66.8213 344.738 66.944 345.197 66.944C345.293 66.944 345.389 66.9387 345.485 66.928C345.591 66.9173 345.703 66.9067 345.821 66.896V67.936C345.682 67.968 345.538 67.9947 345.389 68.016C345.25 68.0373 345.117 68.048 344.989 68.048C344.541 68.048 344.119 67.9573 343.725 67.776C343.341 67.5947 343.026 67.312 342.781 66.928C342.535 66.5333 342.413 66.032 342.413 65.424V62.864H341.213V61.744H341.821ZM351.79 56.8C353.028 56.8 354.084 57.0293 354.958 57.488C355.844 57.936 356.521 58.5813 356.99 59.424C357.47 60.2667 357.71 61.2693 357.71 62.432C357.71 63.584 357.47 64.576 356.99 65.408C356.521 66.24 355.844 66.88 354.958 67.328C354.084 67.776 353.028 68 351.79 68H348.094V56.8H351.79ZM351.79 66.88C353.316 66.88 354.468 66.4907 355.246 65.712C356.025 64.9333 356.414 63.84 356.414 62.432C356.414 61.0133 356.025 59.9093 355.246 59.12C354.468 58.32 353.316 57.92 351.79 57.92H349.374V66.88H351.79ZM364.619 60V57.76H365.819V60H367.947V61.12H365.819V65.424C365.819 65.9147 365.92 66.272 366.123 66.496C366.336 66.72 366.603 66.8533 366.923 66.896C367.254 66.9387 367.595 66.9387 367.947 66.896V67.936C367.531 68.032 367.12 68.0587 366.715 68.016C366.32 67.9733 365.963 67.856 365.643 67.664C365.334 67.4613 365.083 67.1787 364.891 66.816C364.71 66.4533 364.619 65.9893 364.619 65.424V61.12H363.419V60H364.619ZM374.74 68L374.644 66.56C374.42 67.0507 374.089 67.4347 373.652 67.712C373.215 67.9787 372.66 68.112 371.988 68.112C371.412 68.112 370.921 68.0213 370.516 67.84C370.111 67.6587 369.796 67.4027 369.572 67.072C369.359 66.7307 369.252 66.3307 369.252 65.872C369.252 65.2 369.503 64.6507 370.004 64.224C370.505 63.7867 371.231 63.52 372.18 63.424L374.644 63.152V62.512C374.644 62.064 374.479 61.7067 374.148 61.44C373.817 61.1627 373.369 61.024 372.804 61.024C372.249 61.024 371.785 61.152 371.412 61.408C371.049 61.664 370.799 62.032 370.66 62.512L369.572 62.128C369.785 61.424 370.175 60.8747 370.74 60.48C371.316 60.0853 372.015 59.888 372.836 59.888C373.785 59.888 374.521 60.1333 375.044 60.624C375.577 61.104 375.844 61.76 375.844 62.592V68H374.74ZM374.644 64.176L372.164 64.464C371.631 64.528 371.225 64.6773 370.948 64.912C370.671 65.136 370.532 65.4347 370.532 65.808C370.532 66.1813 370.665 66.48 370.932 66.704C371.209 66.928 371.604 67.04 372.116 67.04C372.703 67.04 373.183 66.9227 373.556 66.688C373.929 66.4533 374.201 66.1387 374.372 65.744C374.553 65.3387 374.644 64.9013 374.644 64.432V64.176ZM377.449 60H378.825L380.873 63.056L382.921 60H384.313L381.545 63.984L384.313 68H382.921L380.873 64.912L378.825 68H377.449L380.217 63.984L377.449 60ZM393.937 68.112C393.158 68.112 392.476 67.9413 391.889 67.6C391.302 67.2587 390.844 66.784 390.513 66.176C390.193 65.5573 390.033 64.8427 390.033 64.032C390.033 63.2107 390.193 62.4907 390.513 61.872C390.844 61.2427 391.302 60.7573 391.889 60.416C392.476 60.064 393.158 59.888 393.937 59.888C394.758 59.888 395.478 60.08 396.097 60.464C396.716 60.8373 397.164 61.36 397.441 62.032L396.337 62.416C396.177 61.9893 395.884 61.6533 395.457 61.408C395.041 61.152 394.556 61.024 394.001 61.024C393.457 61.024 392.982 61.1467 392.577 61.392C392.182 61.6373 391.873 61.984 391.649 62.432C391.436 62.88 391.329 63.408 391.329 64.016C391.329 64.912 391.569 65.632 392.049 66.176C392.529 66.7093 393.169 66.976 393.969 66.976C394.513 66.976 394.998 66.8533 395.425 66.608C395.852 66.3627 396.166 66.032 396.369 65.616L397.457 66C397.169 66.6613 396.716 67.1787 396.097 67.552C395.478 67.9253 394.758 68.112 393.937 68.112ZM399.42 60H400.524L400.588 61.168C400.801 60.88 401.057 60.6347 401.356 60.432C401.665 60.2293 402.001 60.0907 402.364 60.016C402.737 59.9307 403.132 59.9253 403.548 60V61.2C403.1 61.1147 402.694 61.1147 402.332 61.2C401.98 61.2853 401.676 61.4453 401.42 61.68C401.164 61.9147 400.966 62.2133 400.828 62.576C400.689 62.928 400.62 63.3387 400.62 63.808V68H399.42V60ZM408.545 68.112C407.798 68.112 407.132 67.9307 406.545 67.568C405.969 67.2053 405.516 66.7093 405.185 66.08C404.854 65.4507 404.689 64.7307 404.689 63.92C404.689 63.1413 404.854 62.448 405.185 61.84C405.516 61.232 405.969 60.7573 406.545 60.416C407.121 60.064 407.777 59.888 408.513 59.888C409.238 59.888 409.884 60.048 410.449 60.368C411.025 60.688 411.473 61.1307 411.793 61.696C412.113 62.2613 412.262 62.9067 412.241 63.632C412.241 63.7493 412.236 63.872 412.225 64C412.214 64.128 412.204 64.2667 412.193 64.416H406.001C406.022 64.9173 406.145 65.36 406.369 65.744C406.593 66.128 406.886 66.432 407.249 66.656C407.622 66.8693 408.044 66.976 408.513 66.976C409.132 66.976 409.654 66.8587 410.081 66.624C410.518 66.3893 410.833 66.0533 411.025 65.616L412.065 66.032C411.745 66.704 411.281 67.2213 410.673 67.584C410.065 67.936 409.356 68.112 408.545 68.112ZM410.929 63.376C410.94 62.9173 410.838 62.512 410.625 62.16C410.422 61.808 410.134 61.5307 409.761 61.328C409.388 61.1253 408.956 61.024 408.465 61.024C408.038 61.024 407.649 61.1253 407.297 61.328C406.945 61.5307 406.652 61.8133 406.417 62.176C406.193 62.528 406.06 62.928 406.017 63.376H410.929ZM420.392 61.616L420.264 61.632V56.48H421.464V68H420.36L420.28 66.512C420.035 66.96 419.667 67.3387 419.176 67.648C418.696 67.9573 418.099 68.112 417.384 68.112C416.648 68.112 416.003 67.9467 415.448 67.616C414.904 67.2747 414.478 66.7947 414.168 66.176C413.87 65.5573 413.72 64.832 413.72 64C413.72 63.168 413.87 62.448 414.168 61.84C414.478 61.2213 414.904 60.7413 415.448 60.4C416.003 60.0587 416.648 59.888 417.384 59.888C418.142 59.888 418.771 60.0533 419.272 60.384C419.774 60.7147 420.147 61.1253 420.392 61.616ZM415.016 64C415.016 64.9173 415.251 65.648 415.72 66.192C416.19 66.7253 416.83 66.992 417.64 66.992C418.142 66.992 418.59 66.8747 418.984 66.64C419.379 66.4053 419.688 66.064 419.912 65.616C420.147 65.168 420.264 64.6293 420.264 64C420.264 63.3707 420.147 62.8373 419.912 62.4C419.688 61.952 419.379 61.6107 418.984 61.376C418.59 61.1307 418.142 61.008 417.64 61.008C416.84 61.008 416.2 61.28 415.72 61.824C415.251 62.3573 415.016 63.0827 415.016 64ZM424.16 60H425.344V68H424.16V60ZM424.768 58.4C424.522 58.4 424.32 58.32 424.16 58.16C424 58 423.92 57.8027 423.92 57.568C423.92 57.3227 424 57.12 424.16 56.96C424.32 56.8 424.522 56.72 424.768 56.72C424.992 56.72 425.184 56.8 425.344 56.96C425.514 57.12 425.6 57.3227 425.6 57.568C425.6 57.8027 425.514 58 425.344 58.16C425.184 58.32 424.992 58.4 424.768 58.4ZM428.557 60V57.76H429.757V60H431.885V61.12H429.757V65.424C429.757 65.9147 429.858 66.272 430.061 66.496C430.274 66.72 430.541 66.8533 430.861 66.896C431.191 66.9387 431.533 66.9387 431.885 66.896V67.936C431.469 68.032 431.058 68.0587 430.653 68.016C430.258 67.9733 429.901 67.856 429.581 67.664C429.271 67.4613 429.021 67.1787 428.829 66.816C428.647 66.4533 428.557 65.9893 428.557 65.424V61.12H427.357V60H428.557ZM434.326 65.552C434.39 65.872 434.507 66.1387 434.678 66.352C434.848 66.5547 435.067 66.7093 435.334 66.816C435.611 66.9227 435.931 66.976 436.294 66.976C436.859 66.976 437.286 66.8693 437.574 66.656C437.872 66.432 438.022 66.1547 438.022 65.824C438.022 65.5467 437.931 65.3227 437.75 65.152C437.579 64.9813 437.35 64.8427 437.062 64.736C436.774 64.6187 436.454 64.5173 436.102 64.432C435.824 64.368 435.526 64.2933 435.206 64.208C434.886 64.112 434.582 63.984 434.294 63.824C434.006 63.664 433.771 63.456 433.59 63.2C433.408 62.944 433.318 62.608 433.318 62.192C433.318 61.7333 433.44 61.3333 433.686 60.992C433.942 60.64 434.288 60.368 434.726 60.176C435.174 59.984 435.686 59.888 436.262 59.888C436.923 59.888 437.51 60.032 438.022 60.32C438.544 60.608 438.907 61.056 439.11 61.664L437.99 62.048C437.915 61.7707 437.776 61.5573 437.574 61.408C437.382 61.2587 437.163 61.1573 436.918 61.104C436.683 61.0507 436.448 61.024 436.214 61.024C435.734 61.024 435.344 61.12 435.046 61.312C434.758 61.4933 434.614 61.7707 434.614 62.144C434.614 62.3467 434.662 62.5173 434.758 62.656C434.854 62.784 434.987 62.8907 435.158 62.976C435.328 63.0613 435.531 63.136 435.766 63.2C436 63.2533 436.256 63.3173 436.534 63.392C436.843 63.4667 437.158 63.5627 437.478 63.68C437.798 63.7867 438.096 63.9307 438.374 64.112C438.651 64.2827 438.875 64.5067 439.046 64.784C439.227 65.0507 439.318 65.3867 439.318 65.792C439.318 66.2613 439.19 66.672 438.934 67.024C438.678 67.3653 438.32 67.632 437.862 67.824C437.414 68.016 436.891 68.112 436.294 68.112C435.472 68.112 434.79 67.9307 434.246 67.568C433.712 67.1947 433.355 66.6507 433.174 65.936L434.326 65.552Z" fill="#9CA3AF"/>
<path d="M265 63.2H440.038V64H265V63.2Z" fill="#9CA3AF"/>
</g>
<g filter="url(#filter2_dd_5522_75718)">
<rect x="460.852" y="14" width="40" height="40" rx="10" transform="rotate(15 460.852 14)" fill="white" shape-rendering="crispEdges"/>
<rect x="460.498" y="13.3876" width="41" height="41" rx="10.5" transform="rotate(15 460.498 13.3876)" stroke="#F3F4F7" shape-rendering="crispEdges"/>
<g clip-path="url(#clip1_5522_75718)">
<path d="M473.909 30.9574L471.977 30.4397C471.464 30.3024 470.918 30.3743 470.459 30.6395C470 30.9047 469.665 31.3416 469.527 31.8539L466.421 43.445C466.284 43.9574 466.356 44.5033 466.621 44.9627C466.886 45.4221 467.323 45.7573 467.836 45.8945L477.495 48.4827C478.007 48.62 478.553 48.5481 479.013 48.2829C479.472 48.0177 479.807 47.5809 479.944 47.0685L483.05 35.4774C483.187 34.965 483.116 34.4191 482.85 33.9598C482.585 33.5004 482.148 33.1652 481.636 33.0279L479.704 32.5103M473.909 30.9574C474.046 30.445 474.381 30.0082 474.84 29.7429C475.3 29.4777 475.846 29.4059 476.358 29.5431L478.29 30.0608C478.802 30.1981 479.239 30.5333 479.504 30.9926C479.77 31.452 479.841 31.9979 479.704 32.5103M473.909 30.9574C473.771 31.4697 473.843 32.0156 474.108 32.475C474.374 32.9344 474.81 33.2696 475.323 33.4069L477.255 33.9245C477.767 34.0618 478.313 33.9899 478.772 33.7247C479.232 33.4595 479.567 33.0226 479.704 32.5103M470.803 42.5485L472.097 37.7188M473.701 43.3249L473.959 42.359M476.598 44.1014L477.375 41.2036" stroke="#71717A" stroke-width="1.2" stroke-linecap="round" stroke-linejoin="round"/>
</g>
</g>
<g filter="url(#filter3_dd_5522_75718)">
<rect x="205.5" y="260.281" width="32" height="32" rx="8" transform="rotate(-15 205.5 260.281)" fill="white" shape-rendering="crispEdges"/>
<rect x="204.888" y="259.928" width="33" height="33" rx="8.5" transform="rotate(-15 204.888 259.928)" stroke="#F3F4F7" shape-rendering="crispEdges"/>
<g clip-path="url(#clip2_5522_75718)">
<path d="M224.797 264.687L225.574 267.584C225.625 267.776 225.751 267.94 225.923 268.04C226.096 268.139 226.3 268.166 226.492 268.115L229.39 267.338M224.797 264.687L219.726 266.045C219.342 266.148 219.014 266.4 218.815 266.744C218.617 267.089 218.563 267.498 218.666 267.882L221.383 278.025C221.486 278.409 221.738 278.737 222.082 278.936C222.427 279.134 222.836 279.188 223.22 279.085L226.843 278.115M224.797 264.687L229.39 267.338M229.39 267.338L230.264 270.598M231.26 275.766L233.557 277.092M227.612 275.191C227.741 275.671 228.055 276.081 228.486 276.33C228.916 276.578 229.428 276.646 229.908 276.517C230.389 276.388 230.798 276.074 231.047 275.643C231.296 275.213 231.363 274.701 231.234 274.22C231.106 273.74 230.791 273.331 230.361 273.082C229.93 272.833 229.418 272.766 228.938 272.895C228.457 273.023 228.048 273.338 227.799 273.768C227.551 274.199 227.483 274.711 227.612 275.191Z" stroke="#71717A" stroke-width="1.2" stroke-linecap="round" stroke-linejoin="round"/>
</g>
</g>
<g opacity="0.2" filter="url(#filter4_f_5522_75718)">
<path d="M706.296 234.642C604.92 308.095 545.36 456.039 545.36 456.039C545.36 456.039 482.077 436.815 458.63 432.674C515.67 398.664 512.321 314.268 549.049 253.677C578.625 240.3 675.524 242.184 706.296 234.642Z" fill="url(#paint4_linear_5522_75718)"/>
</g>
<g opacity="0.2" filter="url(#filter5_f_5522_75718)">
<path d="M-134.366 298.029C-50.7919 225.103 -9.42903 95.8626 -9.42903 95.8626C-9.42903 95.8626 47.5465 103.993 68.4359 104.546C20.8723 139.545 30.0442 208.718 2.27468 263.154C-22.702 277.79 -107.908 288.056 -134.366 298.029Z" fill="url(#paint5_linear_5522_75718)"/>
</g>
<g filter="url(#filter6_dd_5522_75718)">
<rect x="152" y="102" width="400" height="110" rx="16" fill="white" shape-rendering="crispEdges"/>
<rect x="152.5" y="102.5" width="399" height="109" rx="15.5" stroke="#F3F4F7" shape-rendering="crispEdges"/>
<g filter="url(#filter7_i_5522_75718)">
<rect x="176" y="122" width="352" height="40" rx="12" fill="#266AE9"/>
<path d="M287.78 137.2H289.18V143.43C289.18 143.99 289.288 144.457 289.502 144.83C289.717 145.194 290.011 145.465 290.384 145.642C290.758 145.81 291.178 145.894 291.644 145.894C292.12 145.894 292.54 145.81 292.904 145.642C293.278 145.465 293.572 145.194 293.786 144.83C294.001 144.457 294.108 143.99 294.108 143.43V137.2H295.508V143.402C295.508 144.037 295.401 144.587 295.186 145.054C294.981 145.511 294.692 145.894 294.318 146.202C293.954 146.501 293.539 146.725 293.072 146.874C292.615 147.023 292.134 147.098 291.63 147.098C290.958 147.098 290.328 146.967 289.74 146.706C289.152 146.435 288.676 146.029 288.312 145.488C287.958 144.937 287.78 144.242 287.78 143.402V137.2ZM297.569 140H298.773L298.857 140.812C299.081 140.523 299.365 140.299 299.711 140.14C300.056 139.981 300.439 139.902 300.859 139.902C301.4 139.902 301.867 140.019 302.259 140.252C302.66 140.476 302.968 140.812 303.183 141.26C303.407 141.708 303.519 142.268 303.519 142.94V147H302.203V143.108C302.203 142.455 302.063 141.96 301.783 141.624C301.512 141.279 301.115 141.106 300.593 141.106C300.051 141.106 299.631 141.283 299.333 141.638C299.034 141.983 298.885 142.497 298.885 143.178V147H297.569V140ZM305.416 136.92H306.732V147H305.416V136.92ZM311.804 147.098C311.142 147.098 310.544 146.953 310.012 146.664C309.49 146.365 309.079 145.95 308.78 145.418C308.482 144.877 308.332 144.242 308.332 143.514C308.332 142.777 308.486 142.137 308.794 141.596C309.102 141.055 309.522 140.639 310.054 140.35C310.586 140.051 311.184 139.902 311.846 139.902C312.509 139.902 313.106 140.051 313.638 140.35C314.18 140.639 314.604 141.055 314.912 141.596C315.22 142.128 315.374 142.758 315.374 143.486C315.374 144.223 315.216 144.863 314.898 145.404C314.59 145.945 314.166 146.365 313.624 146.664C313.083 146.953 312.476 147.098 311.804 147.098ZM311.79 145.894C312.164 145.894 312.514 145.81 312.84 145.642C313.167 145.465 313.433 145.199 313.638 144.844C313.853 144.489 313.96 144.037 313.96 143.486C313.96 142.945 313.858 142.501 313.652 142.156C313.456 141.801 313.195 141.54 312.868 141.372C312.542 141.195 312.192 141.106 311.818 141.106C311.454 141.106 311.114 141.195 310.796 141.372C310.488 141.54 310.236 141.801 310.04 142.156C309.844 142.511 309.746 142.963 309.746 143.514C309.746 144.055 309.84 144.503 310.026 144.858C310.222 145.203 310.474 145.465 310.782 145.642C311.09 145.81 311.426 145.894 311.79 145.894ZM319.979 147.098C319.307 147.098 318.714 146.949 318.201 146.65C317.687 146.342 317.286 145.922 316.997 145.39C316.717 144.858 316.577 144.237 316.577 143.528C316.577 142.809 316.721 142.179 317.011 141.638C317.3 141.097 317.701 140.672 318.215 140.364C318.728 140.056 319.325 139.902 320.007 139.902C320.725 139.902 321.355 140.07 321.897 140.406C322.447 140.742 322.844 141.195 323.087 141.764L321.897 142.184C321.757 141.857 321.519 141.596 321.183 141.4C320.856 141.204 320.483 141.106 320.063 141.106C319.633 141.106 319.265 141.209 318.957 141.414C318.649 141.61 318.411 141.89 318.243 142.254C318.075 142.609 317.991 143.029 317.991 143.514C317.991 144.242 318.177 144.821 318.551 145.25C318.924 145.679 319.428 145.894 320.063 145.894C320.483 145.894 320.856 145.801 321.183 145.614C321.519 145.427 321.771 145.171 321.939 144.844L323.115 145.264C322.853 145.824 322.443 146.272 321.883 146.608C321.323 146.935 320.688 147.098 319.979 147.098ZM324.721 136.92H326.051V142.926H326.625L329.243 140H331.035L327.787 143.5L331.049 147H329.243L326.625 144.06H326.051V147H324.721V136.92ZM343.99 137.2V147H342.562L337.676 139.412V147H336.276V137.2H337.704L342.59 144.76V137.2H343.99ZM349.142 147.098C348.47 147.098 347.872 146.944 347.35 146.636C346.836 146.319 346.43 145.885 346.132 145.334C345.842 144.783 345.698 144.153 345.698 143.444C345.698 142.763 345.842 142.156 346.132 141.624C346.421 141.092 346.818 140.672 347.322 140.364C347.835 140.056 348.414 139.902 349.058 139.902C349.711 139.902 350.29 140.047 350.794 140.336C351.298 140.616 351.69 141.013 351.97 141.526C352.25 142.03 352.385 142.613 352.376 143.276C352.376 143.388 352.371 143.505 352.362 143.626C352.352 143.738 352.338 143.864 352.32 144.004H347.14C347.168 144.377 347.27 144.709 347.448 144.998C347.634 145.278 347.868 145.497 348.148 145.656C348.437 145.815 348.764 145.894 349.128 145.894C349.594 145.894 350 145.805 350.346 145.628C350.691 145.441 350.934 145.194 351.074 144.886L352.222 145.292C351.942 145.861 351.531 146.305 350.99 146.622C350.458 146.939 349.842 147.098 349.142 147.098ZM350.934 142.87C350.934 142.534 350.85 142.231 350.682 141.96C350.514 141.689 350.285 141.479 349.996 141.33C349.716 141.171 349.398 141.092 349.044 141.092C348.726 141.092 348.432 141.171 348.162 141.33C347.9 141.479 347.676 141.689 347.49 141.96C347.312 142.221 347.2 142.525 347.154 142.87H350.934ZM356.778 147H355.518L353.32 140H354.664L356.134 145.432L357.702 140H358.962L360.474 145.404L361.93 140H363.232L361.062 147H359.788L358.29 141.918L356.778 147ZM369.436 144.41C369.492 144.671 369.604 144.914 369.772 145.138C369.95 145.362 370.188 145.544 370.486 145.684C370.785 145.824 371.154 145.894 371.592 145.894C372.246 145.894 372.726 145.745 373.034 145.446C373.352 145.138 373.51 144.779 373.51 144.368C373.51 144.032 373.412 143.757 373.216 143.542C373.03 143.318 372.768 143.131 372.432 142.982C372.106 142.823 371.728 142.683 371.298 142.562C370.925 142.45 370.556 142.333 370.192 142.212C369.838 142.081 369.516 141.923 369.226 141.736C368.937 141.54 368.708 141.293 368.54 140.994C368.372 140.686 368.288 140.303 368.288 139.846C368.288 139.277 368.424 138.787 368.694 138.376C368.965 137.965 369.343 137.653 369.828 137.438C370.323 137.214 370.892 137.102 371.536 137.102C372.078 137.102 372.563 137.181 372.992 137.34C373.422 137.489 373.781 137.709 374.07 137.998C374.369 138.278 374.588 138.619 374.728 139.02L373.454 139.482C373.398 139.277 373.282 139.085 373.104 138.908C372.927 138.721 372.703 138.572 372.432 138.46C372.162 138.348 371.858 138.292 371.522 138.292C371.177 138.283 370.864 138.339 370.584 138.46C370.314 138.572 370.094 138.735 369.926 138.95C369.768 139.165 369.688 139.421 369.688 139.72C369.688 140.047 369.782 140.303 369.968 140.49C370.155 140.677 370.402 140.831 370.71 140.952C371.028 141.073 371.373 141.19 371.746 141.302C372.138 141.423 372.521 141.554 372.894 141.694C373.268 141.834 373.604 142.011 373.902 142.226C374.21 142.441 374.458 142.711 374.644 143.038C374.831 143.355 374.924 143.757 374.924 144.242C374.924 144.765 374.803 145.241 374.56 145.67C374.318 146.099 373.949 146.445 373.454 146.706C372.969 146.967 372.358 147.098 371.62 147.098C371.014 147.098 370.468 147.005 369.982 146.818C369.497 146.631 369.096 146.375 368.778 146.048C368.47 145.712 368.265 145.325 368.162 144.886L369.436 144.41ZM380.862 147L380.75 145.978C380.535 146.333 380.255 146.608 379.91 146.804C379.574 146.991 379.135 147.084 378.594 147.084C378.09 147.084 377.661 147.005 377.306 146.846C376.951 146.678 376.676 146.449 376.48 146.16C376.293 145.861 376.2 145.516 376.2 145.124C376.2 144.536 376.419 144.051 376.858 143.668C377.297 143.276 377.931 143.033 378.762 142.94L380.75 142.716V142.17C380.75 141.871 380.629 141.619 380.386 141.414C380.143 141.199 379.793 141.092 379.336 141.092C378.907 141.092 378.543 141.195 378.244 141.4C377.945 141.596 377.745 141.89 377.642 142.282L376.466 141.862C376.643 141.246 376.989 140.765 377.502 140.42C378.025 140.075 378.655 139.902 379.392 139.902C380.269 139.902 380.937 140.121 381.394 140.56C381.851 140.999 382.08 141.577 382.08 142.296V147H380.862ZM380.75 143.794L378.832 144.032C378.421 144.088 378.113 144.205 377.908 144.382C377.703 144.55 377.6 144.774 377.6 145.054C377.6 145.315 377.698 145.535 377.894 145.712C378.099 145.88 378.384 145.964 378.748 145.964C379.196 145.964 379.569 145.88 379.868 145.712C380.167 145.544 380.386 145.311 380.526 145.012C380.675 144.704 380.75 144.349 380.75 143.948V143.794ZM384.731 140L386.747 145.586L388.777 140H390.177L387.447 147H386.019L383.303 140H384.731ZM391.718 140H393.048V147H391.718V140ZM392.39 138.768C392.138 138.768 391.928 138.684 391.76 138.516C391.592 138.348 391.508 138.143 391.508 137.9C391.508 137.648 391.592 137.438 391.76 137.27C391.928 137.093 392.138 137.004 392.39 137.004C392.633 137.004 392.838 137.093 393.006 137.27C393.183 137.438 393.272 137.648 393.272 137.9C393.272 138.143 393.183 138.348 393.006 138.516C392.838 138.684 392.633 138.768 392.39 138.768ZM395.254 140H396.458L396.542 140.812C396.766 140.523 397.051 140.299 397.396 140.14C397.741 139.981 398.124 139.902 398.544 139.902C399.085 139.902 399.552 140.019 399.944 140.252C400.345 140.476 400.653 140.812 400.868 141.26C401.092 141.708 401.204 142.268 401.204 142.94V147H399.888V143.108C399.888 142.455 399.748 141.96 399.468 141.624C399.197 141.279 398.801 141.106 398.278 141.106C397.737 141.106 397.317 141.283 397.018 141.638C396.719 141.983 396.57 142.497 396.57 143.178V147H395.254V140ZM408.352 140H409.556V145.852C409.556 146.673 409.36 147.378 408.968 147.966C408.576 148.554 408.011 149.007 407.274 149.324C406.546 149.641 405.664 149.8 404.628 149.8L404.418 148.638C405.668 148.61 406.616 148.358 407.26 147.882C407.904 147.415 408.226 146.739 408.226 145.852V145.782L408.38 145.796C408.156 146.151 407.834 146.459 407.414 146.72C407.003 146.972 406.49 147.098 405.874 147.098C405.248 147.098 404.693 146.949 404.208 146.65C403.732 146.351 403.358 145.931 403.088 145.39C402.826 144.849 402.696 144.219 402.696 143.5C402.696 142.781 402.826 142.151 403.088 141.61C403.358 141.069 403.732 140.649 404.208 140.35C404.693 140.051 405.248 139.902 405.874 139.902C406.256 139.902 406.597 139.953 406.896 140.056C407.204 140.159 407.47 140.299 407.694 140.476C407.918 140.644 408.104 140.835 408.254 141.05L408.352 140ZM404.11 143.5C404.11 144.219 404.296 144.797 404.67 145.236C405.052 145.675 405.561 145.894 406.196 145.894C406.569 145.894 406.91 145.801 407.218 145.614C407.526 145.418 407.768 145.143 407.946 144.788C408.132 144.424 408.226 143.995 408.226 143.5C408.226 142.996 408.132 142.567 407.946 142.212C407.768 141.857 407.521 141.587 407.204 141.4C406.896 141.204 406.56 141.106 406.196 141.106C405.561 141.106 405.052 141.325 404.67 141.764C404.296 142.203 404.11 142.781 404.11 143.5ZM412.335 144.788C412.4 145.068 412.512 145.287 412.671 145.446C412.83 145.605 413.016 145.721 413.231 145.796C413.455 145.861 413.688 145.894 413.931 145.894C414.351 145.894 414.678 145.81 414.911 145.642C415.144 145.474 415.261 145.264 415.261 145.012C415.261 144.797 415.186 144.629 415.037 144.508C414.897 144.377 414.706 144.275 414.463 144.2C414.23 144.125 413.978 144.055 413.707 143.99C413.464 143.925 413.198 143.85 412.909 143.766C412.629 143.682 412.363 143.57 412.111 143.43C411.868 143.281 411.668 143.094 411.509 142.87C411.35 142.637 411.271 142.343 411.271 141.988C411.271 141.568 411.383 141.204 411.607 140.896C411.84 140.579 412.158 140.336 412.559 140.168C412.97 139.991 413.432 139.902 413.945 139.902C414.542 139.902 415.065 140.033 415.513 140.294C415.97 140.546 416.302 140.929 416.507 141.442L415.317 141.834C415.252 141.657 415.144 141.512 414.995 141.4C414.846 141.288 414.673 141.213 414.477 141.176C414.29 141.129 414.104 141.106 413.917 141.106C413.562 141.106 413.268 141.176 413.035 141.316C412.802 141.456 412.685 141.661 412.685 141.932C412.685 142.081 412.722 142.207 412.797 142.31C412.872 142.403 412.974 142.483 413.105 142.548C413.245 142.604 413.408 142.655 413.595 142.702C413.782 142.749 413.982 142.8 414.197 142.856C414.477 142.94 414.762 143.033 415.051 143.136C415.34 143.229 415.606 143.351 415.849 143.5C416.092 143.649 416.288 143.845 416.437 144.088C416.586 144.331 416.666 144.629 416.675 144.984C416.675 145.395 416.558 145.759 416.325 146.076C416.101 146.393 415.779 146.645 415.359 146.832C414.948 147.009 414.458 147.098 413.889 147.098C413.198 147.098 412.61 146.944 412.125 146.636C411.64 146.328 411.313 145.852 411.145 145.208L412.335 144.788Z" fill="white"/>
</g>
<path d="M261.18 177.2V187H260.046L254.81 178.992V187H253.69V177.2H254.824L260.06 185.194V177.2H261.18ZM266.473 187.098C265.81 187.098 265.218 186.953 264.695 186.664C264.172 186.375 263.762 185.964 263.463 185.432C263.164 184.891 263.015 184.251 263.015 183.514C263.015 182.767 263.164 182.123 263.463 181.582C263.771 181.041 264.186 180.625 264.709 180.336C265.241 180.047 265.838 179.902 266.501 179.902C267.164 179.902 267.756 180.047 268.279 180.336C268.811 180.625 269.226 181.041 269.525 181.582C269.833 182.114 269.987 182.749 269.987 183.486C269.987 184.233 269.833 184.877 269.525 185.418C269.217 185.959 268.797 186.375 268.265 186.664C267.733 186.953 267.136 187.098 266.473 187.098ZM266.459 186.104C266.87 186.104 267.257 186.015 267.621 185.838C267.985 185.651 268.279 185.367 268.503 184.984C268.736 184.592 268.853 184.097 268.853 183.5C268.853 182.893 268.741 182.399 268.517 182.016C268.293 181.633 267.999 181.353 267.635 181.176C267.28 180.989 266.898 180.896 266.487 180.896C266.076 180.896 265.694 180.989 265.339 181.176C264.984 181.353 264.695 181.638 264.471 182.03C264.256 182.413 264.149 182.903 264.149 183.5C264.149 184.107 264.256 184.601 264.471 184.984C264.686 185.367 264.966 185.651 265.311 185.838C265.666 186.015 266.048 186.104 266.459 186.104ZM275.631 180H276.597L276.667 181.008C276.872 180.672 277.147 180.406 277.493 180.21C277.847 180.005 278.267 179.902 278.753 179.902C279.247 179.902 279.695 180.023 280.097 180.266C280.507 180.499 280.825 180.849 281.049 181.316C281.263 180.84 281.59 180.485 282.029 180.252C282.467 180.019 282.953 179.902 283.485 179.902C284.007 179.902 284.469 180.019 284.871 180.252C285.272 180.476 285.585 180.817 285.809 181.274C286.033 181.722 286.145 182.287 286.145 182.968V187H285.095V183.094C285.095 182.366 284.936 181.815 284.619 181.442C284.311 181.059 283.867 180.868 283.289 180.868C282.701 180.868 282.234 181.073 281.889 181.484C281.543 181.885 281.371 182.483 281.371 183.276V187H280.321V183.094C280.321 182.366 280.171 181.815 279.873 181.442C279.574 181.059 279.135 180.868 278.557 180.868C277.969 180.868 277.507 181.073 277.171 181.484C276.844 181.885 276.681 182.483 276.681 183.276V187H275.631V180ZM291.206 187.098C290.543 187.098 289.95 186.953 289.428 186.664C288.905 186.375 288.494 185.964 288.196 185.432C287.897 184.891 287.748 184.251 287.748 183.514C287.748 182.767 287.897 182.123 288.196 181.582C288.504 181.041 288.919 180.625 289.442 180.336C289.974 180.047 290.571 179.902 291.234 179.902C291.896 179.902 292.489 180.047 293.012 180.336C293.544 180.625 293.959 181.041 294.258 181.582C294.566 182.114 294.72 182.749 294.72 183.486C294.72 184.233 294.566 184.877 294.258 185.418C293.95 185.959 293.53 186.375 292.998 186.664C292.466 186.953 291.868 187.098 291.206 187.098ZM291.192 186.104C291.602 186.104 291.99 186.015 292.354 185.838C292.718 185.651 293.012 185.367 293.236 184.984C293.469 184.592 293.586 184.097 293.586 183.5C293.586 182.893 293.474 182.399 293.25 182.016C293.026 181.633 292.732 181.353 292.368 181.176C292.013 180.989 291.63 180.896 291.22 180.896C290.809 180.896 290.426 180.989 290.072 181.176C289.717 181.353 289.428 181.638 289.204 182.03C288.989 182.413 288.882 182.903 288.882 183.5C288.882 184.107 288.989 184.601 289.204 184.984C289.418 185.367 289.698 185.651 290.044 185.838C290.398 186.015 290.781 186.104 291.192 186.104ZM296.439 180H297.405L297.461 181.022C297.648 180.77 297.872 180.555 298.133 180.378C298.404 180.201 298.698 180.079 299.015 180.014C299.342 179.939 299.687 179.935 300.051 180V181.05C299.659 180.975 299.305 180.975 298.987 181.05C298.679 181.125 298.413 181.265 298.189 181.47C297.965 181.675 297.793 181.937 297.671 182.254C297.55 182.562 297.489 182.921 297.489 183.332V187H296.439V180ZM304.424 187.098C303.771 187.098 303.188 186.939 302.674 186.622C302.17 186.305 301.774 185.871 301.484 185.32C301.195 184.769 301.05 184.139 301.05 183.43C301.05 182.749 301.195 182.142 301.484 181.61C301.774 181.078 302.17 180.663 302.674 180.364C303.178 180.056 303.752 179.902 304.396 179.902C305.031 179.902 305.596 180.042 306.09 180.322C306.594 180.602 306.986 180.989 307.266 181.484C307.546 181.979 307.677 182.543 307.658 183.178C307.658 183.281 307.654 183.388 307.644 183.5C307.635 183.612 307.626 183.733 307.616 183.864H302.198C302.217 184.303 302.324 184.69 302.52 185.026C302.716 185.362 302.973 185.628 303.29 185.824C303.617 186.011 303.986 186.104 304.396 186.104C304.938 186.104 305.395 186.001 305.768 185.796C306.151 185.591 306.426 185.297 306.594 184.914L307.504 185.278C307.224 185.866 306.818 186.319 306.286 186.636C305.754 186.944 305.134 187.098 304.424 187.098ZM306.51 182.954C306.52 182.553 306.431 182.198 306.244 181.89C306.067 181.582 305.815 181.339 305.488 181.162C305.162 180.985 304.784 180.896 304.354 180.896C303.981 180.896 303.64 180.985 303.332 181.162C303.024 181.339 302.768 181.587 302.562 181.904C302.366 182.212 302.25 182.562 302.212 182.954H306.51ZM313.31 180H314.276L314.346 181.008C314.552 180.672 314.827 180.406 315.172 180.21C315.527 180.005 315.947 179.902 316.432 179.902C316.927 179.902 317.375 180.023 317.776 180.266C318.187 180.499 318.504 180.849 318.728 181.316C318.943 180.84 319.27 180.485 319.708 180.252C320.147 180.019 320.632 179.902 321.164 179.902C321.687 179.902 322.149 180.019 322.55 180.252C322.952 180.476 323.264 180.817 323.488 181.274C323.712 181.722 323.824 182.287 323.824 182.968V187H322.774V183.094C322.774 182.366 322.616 181.815 322.298 181.442C321.99 181.059 321.547 180.868 320.968 180.868C320.38 180.868 319.914 181.073 319.568 181.484C319.223 181.885 319.05 182.483 319.05 183.276V187H318V183.094C318 182.366 317.851 181.815 317.552 181.442C317.254 181.059 316.815 180.868 316.236 180.868C315.648 180.868 315.186 181.073 314.85 181.484C314.524 181.885 314.36 182.483 314.36 183.276V187H313.31V180ZM326.071 180H327.107V187H326.071V180ZM326.603 178.6C326.389 178.6 326.211 178.53 326.071 178.39C325.931 178.25 325.861 178.077 325.861 177.872C325.861 177.657 325.931 177.48 326.071 177.34C326.211 177.2 326.389 177.13 326.603 177.13C326.799 177.13 326.967 177.2 327.107 177.34C327.257 177.48 327.331 177.657 327.331 177.872C327.331 178.077 327.257 178.25 327.107 178.39C326.967 178.53 326.799 178.6 326.603 178.6ZM330.045 184.858C330.101 185.138 330.203 185.371 330.353 185.558C330.502 185.735 330.693 185.871 330.927 185.964C331.169 186.057 331.449 186.104 331.767 186.104C332.261 186.104 332.635 186.011 332.887 185.824C333.148 185.628 333.279 185.385 333.279 185.096C333.279 184.853 333.199 184.657 333.041 184.508C332.891 184.359 332.691 184.237 332.439 184.144C332.187 184.041 331.907 183.953 331.599 183.878C331.356 183.822 331.095 183.757 330.815 183.682C330.535 183.598 330.269 183.486 330.017 183.346C329.765 183.206 329.559 183.024 329.401 182.8C329.242 182.576 329.163 182.282 329.163 181.918C329.163 181.517 329.27 181.167 329.485 180.868C329.709 180.56 330.012 180.322 330.395 180.154C330.787 179.986 331.235 179.902 331.739 179.902C332.317 179.902 332.831 180.028 333.279 180.28C333.736 180.532 334.053 180.924 334.231 181.456L333.251 181.792C333.185 181.549 333.064 181.363 332.887 181.232C332.719 181.101 332.527 181.013 332.313 180.966C332.107 180.919 331.902 180.896 331.697 180.896C331.277 180.896 330.936 180.98 330.675 181.148C330.423 181.307 330.297 181.549 330.297 181.876C330.297 182.053 330.339 182.203 330.423 182.324C330.507 182.436 330.623 182.529 330.773 182.604C330.922 182.679 331.099 182.744 331.305 182.8C331.51 182.847 331.734 182.903 331.977 182.968C332.247 183.033 332.523 183.117 332.803 183.22C333.083 183.313 333.344 183.439 333.587 183.598C333.829 183.747 334.025 183.943 334.175 184.186C334.333 184.419 334.413 184.713 334.413 185.068C334.413 185.479 334.301 185.838 334.077 186.146C333.853 186.445 333.54 186.678 333.139 186.846C332.747 187.014 332.289 187.098 331.767 187.098C331.048 187.098 330.451 186.939 329.975 186.622C329.508 186.295 329.195 185.819 329.037 185.194L330.045 184.858ZM336.689 184.858C336.745 185.138 336.848 185.371 336.997 185.558C337.146 185.735 337.338 185.871 337.571 185.964C337.814 186.057 338.094 186.104 338.411 186.104C338.906 186.104 339.279 186.011 339.531 185.824C339.792 185.628 339.923 185.385 339.923 185.096C339.923 184.853 339.844 184.657 339.685 184.508C339.536 184.359 339.335 184.237 339.083 184.144C338.831 184.041 338.551 183.953 338.243 183.878C338 183.822 337.739 183.757 337.459 183.682C337.179 183.598 336.913 183.486 336.661 183.346C336.409 183.206 336.204 183.024 336.045 182.8C335.886 182.576 335.807 182.282 335.807 181.918C335.807 181.517 335.914 181.167 336.129 180.868C336.353 180.56 336.656 180.322 337.039 180.154C337.431 179.986 337.879 179.902 338.383 179.902C338.962 179.902 339.475 180.028 339.923 180.28C340.38 180.532 340.698 180.924 340.875 181.456L339.895 181.792C339.83 181.549 339.708 181.363 339.531 181.232C339.363 181.101 339.172 181.013 338.957 180.966C338.752 180.919 338.546 180.896 338.341 180.896C337.921 180.896 337.58 180.98 337.319 181.148C337.067 181.307 336.941 181.549 336.941 181.876C336.941 182.053 336.983 182.203 337.067 182.324C337.151 182.436 337.268 182.529 337.417 182.604C337.566 182.679 337.744 182.744 337.949 182.8C338.154 182.847 338.378 182.903 338.621 182.968C338.892 183.033 339.167 183.117 339.447 183.22C339.727 183.313 339.988 183.439 340.231 183.598C340.474 183.747 340.67 183.943 340.819 184.186C340.978 184.419 341.057 184.713 341.057 185.068C341.057 185.479 340.945 185.838 340.721 186.146C340.497 186.445 340.184 186.678 339.783 186.846C339.391 187.014 338.934 187.098 338.411 187.098C337.692 187.098 337.095 186.939 336.619 186.622C336.152 186.295 335.84 185.819 335.681 185.194L336.689 184.858ZM345.7 187.098C345.046 187.098 344.463 186.939 343.95 186.622C343.446 186.305 343.049 185.871 342.76 185.32C342.47 184.769 342.326 184.139 342.326 183.43C342.326 182.749 342.47 182.142 342.76 181.61C343.049 181.078 343.446 180.663 343.95 180.364C344.454 180.056 345.028 179.902 345.672 179.902C346.306 179.902 346.871 180.042 347.366 180.322C347.87 180.602 348.262 180.989 348.542 181.484C348.822 181.979 348.952 182.543 348.934 183.178C348.934 183.281 348.929 183.388 348.92 183.5C348.91 183.612 348.901 183.733 348.892 183.864H343.474C343.492 184.303 343.6 184.69 343.796 185.026C343.992 185.362 344.248 185.628 344.566 185.824C344.892 186.011 345.261 186.104 345.672 186.104C346.213 186.104 346.67 186.001 347.044 185.796C347.426 185.591 347.702 185.297 347.87 184.914L348.78 185.278C348.5 185.866 348.094 186.319 347.562 186.636C347.03 186.944 346.409 187.098 345.7 187.098ZM347.786 182.954C347.795 182.553 347.706 182.198 347.52 181.89C347.342 181.582 347.09 181.339 346.764 181.162C346.437 180.985 346.059 180.896 345.63 180.896C345.256 180.896 344.916 180.985 344.608 181.162C344.3 181.339 344.043 181.587 343.838 181.904C343.642 182.212 343.525 182.562 343.488 182.954H347.786ZM356.066 181.414L355.954 181.428V176.92H357.004V187H356.038L355.968 185.698C355.753 186.09 355.431 186.421 355.002 186.692C354.582 186.963 354.059 187.098 353.434 187.098C352.79 187.098 352.225 186.953 351.74 186.664C351.264 186.365 350.891 185.945 350.62 185.404C350.359 184.863 350.228 184.228 350.228 183.5C350.228 182.772 350.359 182.142 350.62 181.61C350.891 181.069 351.264 180.649 351.74 180.35C352.225 180.051 352.79 179.902 353.434 179.902C354.097 179.902 354.647 180.047 355.086 180.336C355.525 180.625 355.851 180.985 356.066 181.414ZM351.362 183.5C351.362 184.303 351.567 184.942 351.978 185.418C352.389 185.885 352.949 186.118 353.658 186.118C354.097 186.118 354.489 186.015 354.834 185.81C355.179 185.605 355.45 185.306 355.646 184.914C355.851 184.522 355.954 184.051 355.954 183.5C355.954 182.949 355.851 182.483 355.646 182.1C355.45 181.708 355.179 181.409 354.834 181.204C354.489 180.989 354.097 180.882 353.658 180.882C352.958 180.882 352.398 181.12 351.978 181.596C351.567 182.063 351.362 182.697 351.362 183.5ZM366.1 187.098C365.437 187.098 364.845 186.953 364.322 186.664C363.799 186.375 363.389 185.964 363.09 185.432C362.791 184.891 362.642 184.251 362.642 183.514C362.642 182.767 362.791 182.123 363.09 181.582C363.398 181.041 363.813 180.625 364.336 180.336C364.868 180.047 365.465 179.902 366.128 179.902C366.791 179.902 367.383 180.047 367.906 180.336C368.438 180.625 368.853 181.041 369.152 181.582C369.46 182.114 369.614 182.749 369.614 183.486C369.614 184.233 369.46 184.877 369.152 185.418C368.844 185.959 368.424 186.375 367.892 186.664C367.36 186.953 366.763 187.098 366.1 187.098ZM366.086 186.104C366.497 186.104 366.884 186.015 367.248 185.838C367.612 185.651 367.906 185.367 368.13 184.984C368.363 184.592 368.48 184.097 368.48 183.5C368.48 182.893 368.368 182.399 368.144 182.016C367.92 181.633 367.626 181.353 367.262 181.176C366.907 180.989 366.525 180.896 366.114 180.896C365.703 180.896 365.321 180.989 364.966 181.176C364.611 181.353 364.322 181.638 364.098 182.03C363.883 182.413 363.776 182.903 363.776 183.5C363.776 184.107 363.883 184.601 364.098 184.984C364.313 185.367 364.593 185.651 364.938 185.838C365.293 186.015 365.675 186.104 366.086 186.104ZM372.272 185.586L372.384 185.572V189.8H371.334V180H372.3L372.37 181.302C372.585 180.91 372.902 180.579 373.322 180.308C373.742 180.037 374.269 179.902 374.904 179.902C375.511 179.902 376.057 180.051 376.542 180.35C377.027 180.639 377.41 181.055 377.69 181.596C377.97 182.128 378.11 182.763 378.11 183.5C378.11 184.228 377.975 184.863 377.704 185.404C377.443 185.936 377.069 186.351 376.584 186.65C376.108 186.949 375.548 187.098 374.904 187.098C374.232 187.098 373.677 186.953 373.238 186.664C372.799 186.375 372.477 186.015 372.272 185.586ZM376.976 183.5C376.976 182.697 376.766 182.063 376.346 181.596C375.935 181.12 375.38 180.882 374.68 180.882C374.241 180.882 373.845 180.985 373.49 181.19C373.145 181.395 372.874 181.694 372.678 182.086C372.482 182.478 372.384 182.949 372.384 183.5C372.384 184.041 372.482 184.508 372.678 184.9C372.874 185.292 373.145 185.595 373.49 185.81C373.845 186.015 374.241 186.118 374.68 186.118C375.38 186.118 375.935 185.885 376.346 185.418C376.766 184.942 376.976 184.303 376.976 183.5ZM380.762 185.586L380.874 185.572V189.8H379.824V180H380.79L380.86 181.302C381.075 180.91 381.392 180.579 381.812 180.308C382.232 180.037 382.759 179.902 383.394 179.902C384.001 179.902 384.547 180.051 385.032 180.35C385.517 180.639 385.9 181.055 386.18 181.596C386.46 182.128 386.6 182.763 386.6 183.5C386.6 184.228 386.465 184.863 386.194 185.404C385.933 185.936 385.559 186.351 385.074 186.65C384.598 186.949 384.038 187.098 383.394 187.098C382.722 187.098 382.167 186.953 381.728 186.664C381.289 186.375 380.967 186.015 380.762 185.586ZM385.466 183.5C385.466 182.697 385.256 182.063 384.836 181.596C384.425 181.12 383.87 180.882 383.17 180.882C382.731 180.882 382.335 180.985 381.98 181.19C381.635 181.395 381.364 181.694 381.168 182.086C380.972 182.478 380.874 182.949 380.874 183.5C380.874 184.041 380.972 184.508 381.168 184.9C381.364 185.292 381.635 185.595 381.98 185.81C382.335 186.015 382.731 186.118 383.17 186.118C383.87 186.118 384.425 185.885 384.836 185.418C385.256 184.942 385.466 184.303 385.466 183.5ZM391.338 187.098C390.676 187.098 390.083 186.953 389.56 186.664C389.038 186.375 388.627 185.964 388.328 185.432C388.03 184.891 387.88 184.251 387.88 183.514C387.88 182.767 388.03 182.123 388.328 181.582C388.636 181.041 389.052 180.625 389.574 180.336C390.106 180.047 390.704 179.902 391.366 179.902C392.029 179.902 392.622 180.047 393.144 180.336C393.676 180.625 394.092 181.041 394.39 181.582C394.698 182.114 394.852 182.749 394.852 183.486C394.852 184.233 394.698 184.877 394.39 185.418C394.082 185.959 393.662 186.375 393.13 186.664C392.598 186.953 392.001 187.098 391.338 187.098ZM391.324 186.104C391.735 186.104 392.122 186.015 392.486 185.838C392.85 185.651 393.144 185.367 393.368 184.984C393.602 184.592 393.718 184.097 393.718 183.5C393.718 182.893 393.606 182.399 393.382 182.016C393.158 181.633 392.864 181.353 392.5 181.176C392.146 180.989 391.763 180.896 391.352 180.896C390.942 180.896 390.559 180.989 390.204 181.176C389.85 181.353 389.56 181.638 389.336 182.03C389.122 182.413 389.014 182.903 389.014 183.5C389.014 184.107 389.122 184.601 389.336 184.984C389.551 185.367 389.831 185.651 390.176 185.838C390.531 186.015 390.914 186.104 391.324 186.104ZM396.572 180H397.538L397.594 181.022C397.781 180.77 398.005 180.555 398.266 180.378C398.537 180.201 398.831 180.079 399.148 180.014C399.475 179.939 399.82 179.935 400.184 180V181.05C399.792 180.975 399.437 180.975 399.12 181.05C398.812 181.125 398.546 181.265 398.322 181.47C398.098 181.675 397.925 181.937 397.804 182.254C397.683 182.562 397.622 182.921 397.622 183.332V187H396.572V180ZM402.065 180V178.04H403.115V180H404.977V180.98H403.115V184.746C403.115 185.175 403.204 185.488 403.381 185.684C403.568 185.88 403.801 185.997 404.081 186.034C404.37 186.071 404.669 186.071 404.977 186.034V186.944C404.613 187.028 404.254 187.051 403.899 187.014C403.554 186.977 403.241 186.874 402.961 186.706C402.69 186.529 402.471 186.281 402.303 185.964C402.144 185.647 402.065 185.241 402.065 184.746V180.98H401.015V180H402.065ZM412.265 187H411.313L411.243 185.992C411.028 186.347 410.739 186.622 410.375 186.818C410.011 187.005 409.586 187.098 409.101 187.098C408.56 187.098 408.088 186.986 407.687 186.762C407.286 186.538 406.973 186.202 406.749 185.754C406.534 185.306 406.427 184.741 406.427 184.06V180H407.463V183.948C407.463 184.667 407.617 185.213 407.925 185.586C408.242 185.95 408.695 186.132 409.283 186.132C409.88 186.132 410.352 185.941 410.697 185.558C411.052 185.166 411.229 184.578 411.229 183.794V180H412.265V187ZM414.4 180H415.366L415.422 180.994C415.646 180.649 415.94 180.383 416.304 180.196C416.668 180 417.093 179.902 417.578 179.902C418.11 179.902 418.577 180.019 418.978 180.252C419.38 180.476 419.692 180.817 419.916 181.274C420.14 181.722 420.252 182.287 420.252 182.968V187H419.202V183.094C419.202 182.366 419.044 181.815 418.726 181.442C418.418 181.059 417.97 180.868 417.382 180.868C416.776 180.868 416.3 181.069 415.954 181.47C415.618 181.871 415.45 182.464 415.45 183.248V187H414.4V180ZM422.499 180H423.535V187H422.499V180ZM423.031 178.6C422.816 178.6 422.639 178.53 422.499 178.39C422.359 178.25 422.289 178.077 422.289 177.872C422.289 177.657 422.359 177.48 422.499 177.34C422.639 177.2 422.816 177.13 423.031 177.13C423.227 177.13 423.395 177.2 423.535 177.34C423.684 177.48 423.759 177.657 423.759 177.872C423.759 178.077 423.684 178.25 423.535 178.39C423.395 178.53 423.227 178.6 423.031 178.6ZM426.346 180V178.04H427.396V180H429.258V180.98H427.396V184.746C427.396 185.175 427.485 185.488 427.662 185.684C427.849 185.88 428.082 185.997 428.362 186.034C428.652 186.071 428.95 186.071 429.258 186.034V186.944C428.894 187.028 428.535 187.051 428.18 187.014C427.835 186.977 427.522 186.874 427.242 186.706C426.972 186.529 426.752 186.281 426.584 185.964C426.426 185.647 426.346 185.241 426.346 184.746V180.98H425.296V180H426.346ZM431.03 180H432.066V187H431.03V180ZM431.562 178.6C431.348 178.6 431.17 178.53 431.03 178.39C430.89 178.25 430.82 178.077 430.82 177.872C430.82 177.657 430.89 177.48 431.03 177.34C431.17 177.2 431.348 177.13 431.562 177.13C431.758 177.13 431.926 177.2 432.066 177.34C432.216 177.48 432.29 177.657 432.29 177.872C432.29 178.077 432.216 178.25 432.066 178.39C431.926 178.53 431.758 178.6 431.562 178.6ZM437.37 187.098C436.716 187.098 436.133 186.939 435.62 186.622C435.116 186.305 434.719 185.871 434.43 185.32C434.14 184.769 433.996 184.139 433.996 183.43C433.996 182.749 434.14 182.142 434.43 181.61C434.719 181.078 435.116 180.663 435.62 180.364C436.124 180.056 436.698 179.902 437.342 179.902C437.976 179.902 438.541 180.042 439.036 180.322C439.54 180.602 439.932 180.989 440.212 181.484C440.492 181.979 440.622 182.543 440.604 183.178C440.604 183.281 440.599 183.388 440.59 183.5C440.58 183.612 440.571 183.733 440.562 183.864H435.144C435.162 184.303 435.27 184.69 435.466 185.026C435.662 185.362 435.918 185.628 436.236 185.824C436.562 186.011 436.931 186.104 437.342 186.104C437.883 186.104 438.34 186.001 438.714 185.796C439.096 185.591 439.372 185.297 439.54 184.914L440.45 185.278C440.17 185.866 439.764 186.319 439.232 186.636C438.7 186.944 438.079 187.098 437.37 187.098ZM439.456 182.954C439.465 182.553 439.376 182.198 439.19 181.89C439.012 181.582 438.76 181.339 438.434 181.162C438.107 180.985 437.729 180.896 437.3 180.896C436.926 180.896 436.586 180.985 436.278 181.162C435.97 181.339 435.713 181.587 435.508 181.904C435.312 182.212 435.195 182.562 435.158 182.954H439.456ZM442.906 184.858C442.962 185.138 443.065 185.371 443.214 185.558C443.363 185.735 443.555 185.871 443.788 185.964C444.031 186.057 444.311 186.104 444.628 186.104C445.123 186.104 445.496 186.011 445.748 185.824C446.009 185.628 446.14 185.385 446.14 185.096C446.14 184.853 446.061 184.657 445.902 184.508C445.753 184.359 445.552 184.237 445.3 184.144C445.048 184.041 444.768 183.953 444.46 183.878C444.217 183.822 443.956 183.757 443.676 183.682C443.396 183.598 443.13 183.486 442.878 183.346C442.626 183.206 442.421 183.024 442.262 182.8C442.103 182.576 442.024 182.282 442.024 181.918C442.024 181.517 442.131 181.167 442.346 180.868C442.57 180.56 442.873 180.322 443.256 180.154C443.648 179.986 444.096 179.902 444.6 179.902C445.179 179.902 445.692 180.028 446.14 180.28C446.597 180.532 446.915 180.924 447.092 181.456L446.112 181.792C446.047 181.549 445.925 181.363 445.748 181.232C445.58 181.101 445.389 181.013 445.174 180.966C444.969 180.919 444.763 180.896 444.558 180.896C444.138 180.896 443.797 180.98 443.536 181.148C443.284 181.307 443.158 181.549 443.158 181.876C443.158 182.053 443.2 182.203 443.284 182.324C443.368 182.436 443.485 182.529 443.634 182.604C443.783 182.679 443.961 182.744 444.166 182.8C444.371 182.847 444.595 182.903 444.838 182.968C445.109 183.033 445.384 183.117 445.664 183.22C445.944 183.313 446.205 183.439 446.448 183.598C446.691 183.747 446.887 183.943 447.036 184.186C447.195 184.419 447.274 184.713 447.274 185.068C447.274 185.479 447.162 185.838 446.938 186.146C446.714 186.445 446.401 186.678 446 186.846C445.608 187.014 445.151 187.098 444.628 187.098C443.909 187.098 443.312 186.939 442.836 186.622C442.369 186.295 442.057 185.819 441.898 185.194L442.906 184.858ZM449.55 187.07C449.336 187.07 449.154 186.995 449.004 186.846C448.864 186.697 448.794 186.515 448.794 186.3C448.794 186.085 448.864 185.903 449.004 185.754C449.154 185.605 449.336 185.53 449.55 185.53C449.756 185.53 449.933 185.605 450.082 185.754C450.232 185.903 450.306 186.085 450.306 186.3C450.306 186.515 450.232 186.697 450.082 186.846C449.933 186.995 449.756 187.07 449.55 187.07Z" fill="#4B5563"/>
</g>
<g filter="url(#filter8_dd_5522_75718)">
<g filter="url(#filter9_dd_5522_75718)">
<path d="M406.727 136.912C406.696 136.483 406.785 136.055 406.984 135.674C407.183 135.294 407.484 134.976 407.853 134.757C408.223 134.538 408.646 134.426 409.075 134.433C409.505 134.441 409.923 134.568 410.285 134.8L429.73 147.314C431.598 148.515 430.86 151.406 428.646 151.565L419.542 152.222C419.189 152.247 418.846 152.353 418.54 152.532C418.234 152.711 417.973 152.958 417.778 153.253L412.625 161.079C411.411 162.924 408.547 162.177 408.388 159.972L406.727 136.912Z" fill="#27272A"/>
<path d="M406.727 136.912C406.696 136.483 406.785 136.055 406.984 135.674C407.183 135.294 407.484 134.976 407.853 134.757C408.223 134.538 408.646 134.426 409.075 134.433C409.505 134.441 409.923 134.568 410.285 134.8L429.73 147.314C431.598 148.515 430.86 151.406 428.646 151.565L419.542 152.222C419.189 152.247 418.846 152.353 418.54 152.532C418.234 152.711 417.973 152.958 417.778 153.253L412.625 161.079C411.411 162.924 408.547 162.177 408.388 159.972L406.727 136.912Z" stroke="#FAFAFA"/>
</g>
</g>
<rect width="704" height="326" fill="url(#paint6_linear_5522_75718)"/>
</g>
<defs>
<filter id="filter0_dd_5522_75718" x="203" y="227" width="299" height="80" filterUnits="userSpaceOnUse" color-interpolation-filters="sRGB">
<feFlood flood-opacity="0" result="BackgroundImageFix"/>
<feColorMatrix in="SourceAlpha" type="matrix" values="0 0 0 0 0 0 0 0 0 0 0 0 0 0 0 0 0 0 127 0" result="hardAlpha"/>
<feMorphology radius="4" operator="erode" in="SourceAlpha" result="effect1_dropShadow_5522_75718"/>
<feOffset dy="18"/>
<feGaussianBlur stdDeviation="8"/>
<feComposite in2="hardAlpha" operator="out"/>
<feColorMatrix type="matrix" values="0 0 0 0 0.0588235 0 0 0 0 0.141176 0 0 0 0 0.0666667 0 0 0 0.01 0"/>
<feBlend mode="normal" in2="BackgroundImageFix" result="effect1_dropShadow_5522_75718"/>
<feColorMatrix in="SourceAlpha" type="matrix" values="0 0 0 0 0 0 0 0 0 0 0 0 0 0 0 0 0 0 127 0" result="hardAlpha"/>
<feMorphology radius="4" operator="erode" in="SourceAlpha" result="effect2_dropShadow_5522_75718"/>
<feOffset dy="15"/>
<feGaussianBlur stdDeviation="10"/>
<feComposite in2="hardAlpha" operator="out"/>
<feColorMatrix type="matrix" values="0 0 0 0 0.0627451 0 0 0 0 0.0588235 0 0 0 0 0.141176 0 0 0 0.02 0"/>
<feBlend mode="normal" in2="effect1_dropShadow_5522_75718" result="effect2_dropShadow_5522_75718"/>
<feBlend mode="normal" in="SourceGraphic" in2="effect2_dropShadow_5522_75718" result="shape"/>
</filter>
<filter id="filter1_dd_5522_75718" x="217" y="37" width="272" height="80" filterUnits="userSpaceOnUse" color-interpolation-filters="sRGB">
<feFlood flood-opacity="0" result="BackgroundImageFix"/>
<feColorMatrix in="SourceAlpha" type="matrix" values="0 0 0 0 0 0 0 0 0 0 0 0 0 0 0 0 0 0 127 0" result="hardAlpha"/>
<feMorphology radius="4" operator="erode" in="SourceAlpha" result="effect1_dropShadow_5522_75718"/>
<feOffset dy="18"/>
<feGaussianBlur stdDeviation="8"/>
<feComposite in2="hardAlpha" operator="out"/>
<feColorMatrix type="matrix" values="0 0 0 0 0.0588235 0 0 0 0 0.141176 0 0 0 0 0.0666667 0 0 0 0.01 0"/>
<feBlend mode="normal" in2="BackgroundImageFix" result="effect1_dropShadow_5522_75718"/>
<feColorMatrix in="SourceAlpha" type="matrix" values="0 0 0 0 0 0 0 0 0 0 0 0 0 0 0 0 0 0 127 0" result="hardAlpha"/>
<feMorphology radius="4" operator="erode" in="SourceAlpha" result="effect2_dropShadow_5522_75718"/>
<feOffset dy="15"/>
<feGaussianBlur stdDeviation="10"/>
<feComposite in2="hardAlpha" operator="out"/>
<feColorMatrix type="matrix" values="0 0 0 0 0.0627451 0 0 0 0 0.0588235 0 0 0 0 0.141176 0 0 0 0.02 0"/>
<feBlend mode="normal" in2="effect1_dropShadow_5522_75718" result="effect2_dropShadow_5522_75718"/>
<feBlend mode="normal" in="SourceGraphic" in2="effect2_dropShadow_5522_75718" result="shape"/>
</filter>
<filter id="filter2_dd_5522_75718" x="438.5" y="14" width="72.9883" height="72.9902" filterUnits="userSpaceOnUse" color-interpolation-filters="sRGB">
<feFlood flood-opacity="0" result="BackgroundImageFix"/>
<feColorMatrix in="SourceAlpha" type="matrix" values="0 0 0 0 0 0 0 0 0 0 0 0 0 0 0 0 0 0 127 0" result="hardAlpha"/>
<feMorphology radius="2" operator="erode" in="SourceAlpha" result="effect1_dropShadow_5522_75718"/>
<feOffset dy="4"/>
<feGaussianBlur stdDeviation="3"/>
<feComposite in2="hardAlpha" operator="out"/>
<feColorMatrix type="matrix" values="0 0 0 0 0.0627451 0 0 0 0 0.0588235 0 0 0 0 0.141176 0 0 0 0.03 0"/>
<feBlend mode="normal" in2="BackgroundImageFix" result="effect1_dropShadow_5522_75718"/>
<feColorMatrix in="SourceAlpha" type="matrix" values="0 0 0 0 0 0 0 0 0 0 0 0 0 0 0 0 0 0 127 0" result="hardAlpha"/>
<feMorphology radius="4" operator="erode" in="SourceAlpha" result="effect2_dropShadow_5522_75718"/>
<feOffset dy="12"/>
<feGaussianBlur stdDeviation="8"/>
<feComposite in2="hardAlpha" operator="out"/>
<feColorMatrix type="matrix" values="0 0 0 0 0.0627451 0 0 0 0 0.0588235 0 0 0 0 0.141176 0 0 0 0.08 0"/>
<feBlend mode="normal" in2="effect1_dropShadow_5522_75718" result="effect2_dropShadow_5522_75718"/>
<feBlend mode="normal" in="SourceGraphic" in2="effect2_dropShadow_5522_75718" result="shape"/>
</filter>
<filter id="filter3_dd_5522_75718" x="193.5" y="252" width="63.1914" height="63.1914" filterUnits="userSpaceOnUse" color-interpolation-filters="sRGB">
<feFlood flood-opacity="0" result="BackgroundImageFix"/>
<feColorMatrix in="SourceAlpha" type="matrix" values="0 0 0 0 0 0 0 0 0 0 0 0 0 0 0 0 0 0 127 0" result="hardAlpha"/>
<feMorphology radius="2" operator="erode" in="SourceAlpha" result="effect1_dropShadow_5522_75718"/>
<feOffset dy="4"/>
<feGaussianBlur stdDeviation="3"/>
<feComposite in2="hardAlpha" operator="out"/>
<feColorMatrix type="matrix" values="0 0 0 0 0.0627451 0 0 0 0 0.0588235 0 0 0 0 0.141176 0 0 0 0.03 0"/>
<feBlend mode="normal" in2="BackgroundImageFix" result="effect1_dropShadow_5522_75718"/>
<feColorMatrix in="SourceAlpha" type="matrix" values="0 0 0 0 0 0 0 0 0 0 0 0 0 0 0 0 0 0 127 0" result="hardAlpha"/>
<feMorphology radius="4" operator="erode" in="SourceAlpha" result="effect2_dropShadow_5522_75718"/>
<feOffset dy="12"/>
<feGaussianBlur stdDeviation="8"/>
<feComposite in2="hardAlpha" operator="out"/>
<feColorMatrix type="matrix" values="0 0 0 0 0.0627451 0 0 0 0 0.0588235 0 0 0 0 0.141176 0 0 0 0.08 0"/>
<feBlend mode="normal" in2="effect1_dropShadow_5522_75718" result="effect2_dropShadow_5522_75718"/>
<feBlend mode="normal" in="SourceGraphic" in2="effect2_dropShadow_5522_75718" result="shape"/>
</filter>
<filter id="filter4_f_5522_75718" x="258.629" y="34.6406" width="647.668" height="621.398" filterUnits="userSpaceOnUse" color-interpolation-filters="sRGB">
<feFlood flood-opacity="0" result="BackgroundImageFix"/>
<feBlend mode="normal" in="SourceGraphic" in2="BackgroundImageFix" result="shape"/>
<feGaussianBlur stdDeviation="100" result="effect1_foregroundBlur_5522_75718"/>
</filter>
<filter id="filter5_f_5522_75718" x="-304.367" y="-74.1367" width="542.805" height="542.166" filterUnits="userSpaceOnUse" color-interpolation-filters="sRGB">
<feFlood flood-opacity="0" result="BackgroundImageFix"/>
<feBlend mode="normal" in="SourceGraphic" in2="BackgroundImageFix" result="shape"/>
<feGaussianBlur stdDeviation="85" result="effect1_foregroundBlur_5522_75718"/>
</filter>
<filter id="filter6_dd_5522_75718" x="124" y="84" width="456" height="166" filterUnits="userSpaceOnUse" color-interpolation-filters="sRGB">
<feFlood flood-opacity="0" result="BackgroundImageFix"/>
<feColorMatrix in="SourceAlpha" type="matrix" values="0 0 0 0 0 0 0 0 0 0 0 0 0 0 0 0 0 0 127 0" result="hardAlpha"/>
<feMorphology radius="4" operator="erode" in="SourceAlpha" result="effect1_dropShadow_5522_75718"/>
<feOffset dy="4"/>
<feGaussianBlur stdDeviation="8"/>
<feComposite in2="hardAlpha" operator="out"/>
<feColorMatrix type="matrix" values="0 0 0 0 0.0588235 0 0 0 0 0.141176 0 0 0 0 0.0666667 0 0 0 0.02 0"/>
<feBlend mode="normal" in2="BackgroundImageFix" result="effect1_dropShadow_5522_75718"/>
<feColorMatrix in="SourceAlpha" type="matrix" values="0 0 0 0 0 0 0 0 0 0 0 0 0 0 0 0 0 0 127 0" result="hardAlpha"/>
<feMorphology radius="4" operator="erode" in="SourceAlpha" result="effect2_dropShadow_5522_75718"/>
<feOffset dy="10"/>
<feGaussianBlur stdDeviation="16"/>
<feComposite in2="hardAlpha" operator="out"/>
<feColorMatrix type="matrix" values="0 0 0 0 0.0627451 0 0 0 0 0.0588235 0 0 0 0 0.141176 0 0 0 0.05 0"/>
<feBlend mode="normal" in2="effect1_dropShadow_5522_75718" result="effect2_dropShadow_5522_75718"/>
<feBlend mode="normal" in="SourceGraphic" in2="effect2_dropShadow_5522_75718" result="shape"/>
</filter>
<filter id="filter7_i_5522_75718" x="176" y="122" width="352" height="44" filterUnits="userSpaceOnUse" color-interpolation-filters="sRGB">
<feFlood flood-opacity="0" result="BackgroundImageFix"/>
<feBlend mode="normal" in="SourceGraphic" in2="BackgroundImageFix" result="shape"/>
<feColorMatrix in="SourceAlpha" type="matrix" values="0 0 0 0 0 0 0 0 0 0 0 0 0 0 0 0 0 0 127 0" result="hardAlpha"/>
<feOffset dy="4"/>
<feGaussianBlur stdDeviation="6"/>
<feComposite in2="hardAlpha" operator="arithmetic" k2="-1" k3="1"/>
<feColorMatrix type="matrix" values="0 0 0 0 0.626803 0 0 0 0 0.756315 0 0 0 0 0.998197 0 0 0 0.5 0"/>
<feBlend mode="normal" in2="shape" result="effect1_innerShadow_5522_75718"/>
</filter>
<filter id="filter8_dd_5522_75718" x="391" y="126" width="51.5664" height="51.5664" filterUnits="userSpaceOnUse" color-interpolation-filters="sRGB">
<feFlood flood-opacity="0" result="BackgroundImageFix"/>
<feColorMatrix in="SourceAlpha" type="matrix" values="0 0 0 0 0 0 0 0 0 0 0 0 0 0 0 0 0 0 127 0" result="hardAlpha"/>
<feMorphology radius="2" operator="erode" in="SourceAlpha" result="effect1_dropShadow_5522_75718"/>
<feOffset dy="2"/>
<feGaussianBlur stdDeviation="2"/>
<feComposite in2="hardAlpha" operator="out"/>
<feColorMatrix type="matrix" values="0 0 0 0 0.0627451 0 0 0 0 0.0588235 0 0 0 0 0.141176 0 0 0 0.06 0"/>
<feBlend mode="normal" in2="BackgroundImageFix" result="effect1_dropShadow_5522_75718"/>
<feColorMatrix in="SourceAlpha" type="matrix" values="0 0 0 0 0 0 0 0 0 0 0 0 0 0 0 0 0 0 127 0" result="hardAlpha"/>
<feMorphology radius="2" operator="erode" in="SourceAlpha" result="effect2_dropShadow_5522_75718"/>
<feOffset dy="4"/>
<feGaussianBlur stdDeviation="4"/>
<feComposite in2="hardAlpha" operator="out"/>
<feColorMatrix type="matrix" values="0 0 0 0 0.0627451 0 0 0 0 0.0588235 0 0 0 0 0.141176 0 0 0 0.1 0"/>
<feBlend mode="normal" in2="effect1_dropShadow_5522_75718" result="effect2_dropShadow_5522_75718"/>
<feBlend mode="normal" in="SourceGraphic" in2="effect2_dropShadow_5522_75718" result="shape"/>
</filter>
<filter id="filter9_dd_5522_75718" x="378.223" y="115.934" width="81.0703" height="84.6895" filterUnits="userSpaceOnUse" color-interpolation-filters="sRGB">
<feFlood flood-opacity="0" result="BackgroundImageFix"/>
<feColorMatrix in="SourceAlpha" type="matrix" values="0 0 0 0 0 0 0 0 0 0 0 0 0 0 0 0 0 0 127 0" result="hardAlpha"/>
<feMorphology radius="4" operator="erode" in="SourceAlpha" result="effect1_dropShadow_5522_75718"/>
<feOffset dy="4"/>
<feGaussianBlur stdDeviation="8"/>
<feComposite in2="hardAlpha" operator="out"/>
<feColorMatrix type="matrix" values="0 0 0 0 0.0588235 0 0 0 0 0.141176 0 0 0 0 0.0666667 0 0 0 0.02 0"/>
<feBlend mode="normal" in2="BackgroundImageFix" result="effect1_dropShadow_5522_75718"/>
<feColorMatrix in="SourceAlpha" type="matrix" values="0 0 0 0 0 0 0 0 0 0 0 0 0 0 0 0 0 0 127 0" result="hardAlpha"/>
<feMorphology radius="4" operator="erode" in="SourceAlpha" result="effect2_dropShadow_5522_75718"/>
<feOffset dy="10"/>
<feGaussianBlur stdDeviation="16"/>
<feComposite in2="hardAlpha" operator="out"/>
<feColorMatrix type="matrix" values="0 0 0 0 0.0627451 0 0 0 0 0.0588235 0 0 0 0 0.141176 0 0 0 0.05 0"/>
<feBlend mode="normal" in2="effect1_dropShadow_5522_75718" result="effect2_dropShadow_5522_75718"/>
<feBlend mode="normal" in="SourceGraphic" in2="effect2_dropShadow_5522_75718" result="shape"/>
</filter>
<linearGradient id="paint0_linear_5522_75718" x1="472.693" y1="83" x2="355" y2="83" gradientUnits="userSpaceOnUse">
<stop stop-color="#FAFAFA"/>
<stop offset="0.534678" stop-color="#266AE9"/>
<stop offset="1" stop-color="#FAFAFA"/>
</linearGradient>
<linearGradient id="paint1_linear_5522_75718" x1="532" y1="276.693" x2="532" y2="159" gradientUnits="userSpaceOnUse">
<stop stop-color="#FAFAFA"/>
<stop offset="0.534678" stop-color="#266AE9"/>
<stop offset="1" stop-color="#FAFAFA"/>
</linearGradient>
<linearGradient id="paint2_linear_5522_75718" x1="332" y1="315.693" x2="332" y2="198" gradientUnits="userSpaceOnUse">
<stop stop-color="#FAFAFA"/>
<stop offset="0.534678" stop-color="#266AE9"/>
<stop offset="1" stop-color="#FAFAFA"/>
</linearGradient>
<linearGradient id="paint3_linear_5522_75718" x1="203.954" y1="168" x2="98" y2="168" gradientUnits="userSpaceOnUse">
<stop stop-color="#FAFAFA"/>
<stop offset="0.534678" stop-color="#266AE9"/>
<stop offset="1" stop-color="#FAFAFA"/>
</linearGradient>
<linearGradient id="paint4_linear_5522_75718" x1="350.479" y1="479.172" x2="291.066" y2="354.352" gradientUnits="userSpaceOnUse">
<stop stop-color="#5C85D5"/>
<stop offset="1" stop-color="#C3A7F3"/>
</linearGradient>
<linearGradient id="paint5_linear_5522_75718" x1="159.948" y1="53.0182" x2="219.15" y2="150.007" gradientUnits="userSpaceOnUse">
<stop stop-color="#5C85D5"/>
<stop offset="1" stop-color="#C3A7F3"/>
</linearGradient>
<linearGradient id="paint6_linear_5522_75718" x1="352" y1="6.95732" x2="352" y2="337.885" gradientUnits="userSpaceOnUse">
<stop stop-color="#FAFAFA"/>
<stop offset="0.197621" stop-color="#FAFAFA" stop-opacity="0"/>
<stop offset="0.644231" stop-color="#FAFAFA" stop-opacity="0"/>
<stop offset="0.867519" stop-color="#FAFAFA"/>
</linearGradient>
<clipPath id="clip0_5522_75718">
<rect width="704" height="326" fill="white"/>
</clipPath>
<clipPath id="clip1_5522_75718">
<rect width="24" height="24" fill="white" transform="translate(466.508 23.7988) rotate(15)"/>
</clipPath>
<clipPath id="clip2_5522_75718">
<rect width="18" height="18" fill="white" transform="translate(214.074 265.23) rotate(-15)"/>
</clipPath>
</defs>
</svg>
