<svg width="540" height="306" viewBox="0 0 540 306" fill="none" xmlns="http://www.w3.org/2000/svg">
<g clip-path="url(#clip0_5453_70891)">
<path d="M273 86L664 86" stroke="url(#paint0_linear_5453_70891)" stroke-opacity="0.4" stroke-linecap="round"/>
<path d="M450 159L450 550" stroke="url(#paint1_linear_5453_70891)" stroke-opacity="0.4" stroke-linecap="round"/>
<path d="M250 198L250 589" stroke="url(#paint2_linear_5453_70891)" stroke-opacity="0.4" stroke-linecap="round"/>
<path d="M16 158L368 158" stroke="url(#paint3_linear_5453_70891)" stroke-opacity="0.4" stroke-linecap="round"/>
<g filter="url(#filter0_dd_5453_70891)">
<rect x="137" y="223" width="267" height="48" rx="16" fill="white"/>
<rect x="137.5" y="223.5" width="266" height="47" rx="15.5" stroke="#F3F4F7"/>
<path d="M171.64 253H170.36V241.8H171.768L175.928 251.24L180.072 241.8H181.464V253H180.184V244.328L176.376 253H175.464L171.64 244.328V253ZM189.068 253L188.972 251.56C188.748 252.051 188.417 252.435 187.98 252.712C187.543 252.979 186.988 253.112 186.316 253.112C185.74 253.112 185.249 253.021 184.844 252.84C184.439 252.659 184.124 252.403 183.9 252.072C183.687 251.731 183.58 251.331 183.58 250.872C183.58 250.2 183.831 249.651 184.332 249.224C184.833 248.787 185.559 248.52 186.508 248.424L188.972 248.152V247.512C188.972 247.064 188.807 246.707 188.476 246.44C188.145 246.163 187.697 246.024 187.132 246.024C186.577 246.024 186.113 246.152 185.74 246.408C185.377 246.664 185.127 247.032 184.988 247.512L183.9 247.128C184.113 246.424 184.503 245.875 185.068 245.48C185.644 245.085 186.343 244.888 187.164 244.888C188.113 244.888 188.849 245.133 189.372 245.624C189.905 246.104 190.172 246.76 190.172 247.592V253H189.068ZM188.972 249.176L186.492 249.464C185.959 249.528 185.553 249.677 185.276 249.912C184.999 250.136 184.86 250.435 184.86 250.808C184.86 251.181 184.993 251.48 185.26 251.704C185.537 251.928 185.932 252.04 186.444 252.04C187.031 252.04 187.511 251.923 187.884 251.688C188.257 251.453 188.529 251.139 188.7 250.744C188.881 250.339 188.972 249.901 188.972 249.432V249.176ZM192.513 245H193.617L193.681 246.136C193.937 245.741 194.273 245.437 194.689 245.224C195.105 245 195.591 244.888 196.145 244.888C196.753 244.888 197.287 245.021 197.745 245.288C198.204 245.544 198.561 245.933 198.817 246.456C199.073 246.968 199.201 247.613 199.201 248.392V253H198.001V248.536C198.001 247.704 197.82 247.075 197.457 246.648C197.105 246.211 196.593 245.992 195.921 245.992C195.228 245.992 194.684 246.221 194.289 246.68C193.905 247.139 193.713 247.816 193.713 248.712V253H192.513V245ZM208.073 253H206.985L206.905 251.848C206.66 252.253 206.329 252.568 205.913 252.792C205.497 253.005 205.012 253.112 204.457 253.112C203.838 253.112 203.3 252.984 202.841 252.728C202.382 252.472 202.025 252.088 201.769 251.576C201.524 251.064 201.401 250.419 201.401 249.64V245H202.585V249.512C202.585 250.333 202.761 250.957 203.113 251.384C203.476 251.8 203.993 252.008 204.665 252.008C205.348 252.008 205.886 251.789 206.281 251.352C206.686 250.904 206.889 250.232 206.889 249.336V245H208.073V253ZM215.521 253L215.425 251.56C215.201 252.051 214.871 252.435 214.433 252.712C213.996 252.979 213.441 253.112 212.769 253.112C212.193 253.112 211.703 253.021 211.297 252.84C210.892 252.659 210.577 252.403 210.353 252.072C210.14 251.731 210.033 251.331 210.033 250.872C210.033 250.2 210.284 249.651 210.785 249.224C211.287 248.787 212.012 248.52 212.961 248.424L215.425 248.152V247.512C215.425 247.064 215.26 246.707 214.929 246.44C214.599 246.163 214.151 246.024 213.585 246.024C213.031 246.024 212.567 246.152 212.193 246.408C211.831 246.664 211.58 247.032 211.441 247.512L210.353 247.128C210.567 246.424 210.956 245.875 211.521 245.48C212.097 245.085 212.796 244.888 213.617 244.888C214.567 244.888 215.303 245.133 215.825 245.624C216.359 246.104 216.625 246.76 216.625 247.592V253H215.521ZM215.425 249.176L212.945 249.464C212.412 249.528 212.007 249.677 211.729 249.912C211.452 250.136 211.313 250.435 211.313 250.808C211.313 251.181 211.447 251.48 211.713 251.704C211.991 251.928 212.385 252.04 212.897 252.04C213.484 252.04 213.964 251.923 214.337 251.688C214.711 251.453 214.983 251.139 215.153 250.744C215.335 250.339 215.425 249.901 215.425 249.432V249.176ZM218.966 241.48H220.166V253H218.966V241.48ZM232.099 253L232.003 251.56C231.779 252.051 231.449 252.435 231.011 252.712C230.574 252.979 230.019 253.112 229.347 253.112C228.771 253.112 228.281 253.021 227.875 252.84C227.47 252.659 227.155 252.403 226.931 252.072C226.718 251.731 226.611 251.331 226.611 250.872C226.611 250.2 226.862 249.651 227.363 249.224C227.865 248.787 228.59 248.52 229.539 248.424L232.003 248.152V247.512C232.003 247.064 231.838 246.707 231.507 246.44C231.177 246.163 230.729 246.024 230.163 246.024C229.609 246.024 229.145 246.152 228.771 246.408C228.409 246.664 228.158 247.032 228.019 247.512L226.931 247.128C227.145 246.424 227.534 245.875 228.099 245.48C228.675 245.085 229.374 244.888 230.195 244.888C231.145 244.888 231.881 245.133 232.403 245.624C232.937 246.104 233.203 246.76 233.203 247.592V253H232.099ZM232.003 249.176L229.523 249.464C228.99 249.528 228.585 249.677 228.307 249.912C228.03 250.136 227.891 250.435 227.891 250.808C227.891 251.181 228.025 251.48 228.291 251.704C228.569 251.928 228.963 252.04 229.475 252.04C230.062 252.04 230.542 251.923 230.915 251.688C231.289 251.453 231.561 251.139 231.731 250.744C231.913 250.339 232.003 249.901 232.003 249.432V249.176ZM236.617 251.384L236.745 251.368V256.2H235.545V245H236.649L236.729 246.488C236.974 246.04 237.337 245.661 237.817 245.352C238.297 245.043 238.899 244.888 239.625 244.888C240.318 244.888 240.942 245.059 241.497 245.4C242.051 245.731 242.489 246.205 242.809 246.824C243.129 247.432 243.289 248.157 243.289 249C243.289 249.832 243.134 250.557 242.825 251.176C242.526 251.784 242.099 252.259 241.545 252.6C241.001 252.941 240.361 253.112 239.625 253.112C238.857 253.112 238.222 252.947 237.721 252.616C237.219 252.285 236.851 251.875 236.617 251.384ZM241.993 249C241.993 248.083 241.753 247.357 241.273 246.824C240.803 246.28 240.169 246.008 239.369 246.008C238.867 246.008 238.414 246.125 238.009 246.36C237.614 246.595 237.305 246.936 237.081 247.384C236.857 247.832 236.745 248.371 236.745 249C236.745 249.619 236.857 250.152 237.081 250.6C237.305 251.048 237.614 251.395 238.009 251.64C238.414 251.875 238.867 251.992 239.369 251.992C240.169 251.992 240.803 251.725 241.273 251.192C241.753 250.648 241.993 249.917 241.993 249ZM246.32 251.384L246.448 251.368V256.2H245.248V245H246.352L246.432 246.488C246.677 246.04 247.04 245.661 247.52 245.352C248 245.043 248.602 244.888 249.328 244.888C250.021 244.888 250.645 245.059 251.2 245.4C251.754 245.731 252.192 246.205 252.512 246.824C252.832 247.432 252.992 248.157 252.992 249C252.992 249.832 252.837 250.557 252.528 251.176C252.229 251.784 251.802 252.259 251.248 252.6C250.704 252.941 250.064 253.112 249.328 253.112C248.56 253.112 247.925 252.947 247.424 252.616C246.922 252.285 246.554 251.875 246.32 251.384ZM251.696 249C251.696 248.083 251.456 247.357 250.976 246.824C250.506 246.28 249.872 246.008 249.072 246.008C248.57 246.008 248.117 246.125 247.712 246.36C247.317 246.595 247.008 246.936 246.784 247.384C246.56 247.832 246.448 248.371 246.448 249C246.448 249.619 246.56 250.152 246.784 250.6C247.008 251.048 247.317 251.395 247.712 251.64C248.117 251.875 248.57 251.992 249.072 251.992C249.872 251.992 250.506 251.725 250.976 251.192C251.456 250.648 251.696 249.917 251.696 249ZM254.951 241.48H256.151V253H254.951V241.48ZM258.831 245H260.015V253H258.831V245ZM259.439 243.4C259.194 243.4 258.991 243.32 258.831 243.16C258.671 243 258.591 242.803 258.591 242.568C258.591 242.323 258.671 242.12 258.831 241.96C258.991 241.8 259.194 241.72 259.439 241.72C259.663 241.72 259.855 241.8 260.015 241.96C260.186 242.12 260.271 242.323 260.271 242.568C260.271 242.803 260.186 243 260.015 243.16C259.855 243.32 259.663 243.4 259.439 243.4ZM266.124 253.112C265.346 253.112 264.663 252.941 264.076 252.6C263.49 252.259 263.031 251.784 262.7 251.176C262.38 250.557 262.22 249.843 262.22 249.032C262.22 248.211 262.38 247.491 262.7 246.872C263.031 246.243 263.49 245.757 264.076 245.416C264.663 245.064 265.346 244.888 266.124 244.888C266.946 244.888 267.666 245.08 268.284 245.464C268.903 245.837 269.351 246.36 269.628 247.032L268.524 247.416C268.364 246.989 268.071 246.653 267.644 246.408C267.228 246.152 266.743 246.024 266.188 246.024C265.644 246.024 265.17 246.147 264.764 246.392C264.37 246.637 264.06 246.984 263.836 247.432C263.623 247.88 263.516 248.408 263.516 249.016C263.516 249.912 263.756 250.632 264.236 251.176C264.716 251.709 265.356 251.976 266.156 251.976C266.7 251.976 267.186 251.853 267.612 251.608C268.039 251.363 268.354 251.032 268.556 250.616L269.644 251C269.356 251.661 268.903 252.179 268.284 252.552C267.666 252.925 266.946 253.112 266.124 253.112ZM276.615 253L276.519 251.56C276.295 252.051 275.964 252.435 275.527 252.712C275.09 252.979 274.535 253.112 273.863 253.112C273.287 253.112 272.796 253.021 272.391 252.84C271.986 252.659 271.671 252.403 271.447 252.072C271.234 251.731 271.127 251.331 271.127 250.872C271.127 250.2 271.378 249.651 271.879 249.224C272.38 248.787 273.106 248.52 274.055 248.424L276.519 248.152V247.512C276.519 247.064 276.354 246.707 276.023 246.44C275.692 246.163 275.244 246.024 274.679 246.024C274.124 246.024 273.66 246.152 273.287 246.408C272.924 246.664 272.674 247.032 272.535 247.512L271.447 247.128C271.66 246.424 272.05 245.875 272.615 245.48C273.191 245.085 273.89 244.888 274.711 244.888C275.66 244.888 276.396 245.133 276.919 245.624C277.452 246.104 277.719 246.76 277.719 247.592V253H276.615ZM276.519 249.176L274.039 249.464C273.506 249.528 273.1 249.677 272.823 249.912C272.546 250.136 272.407 250.435 272.407 250.808C272.407 251.181 272.54 251.48 272.807 251.704C273.084 251.928 273.479 252.04 273.991 252.04C274.578 252.04 275.058 251.923 275.431 251.688C275.804 251.453 276.076 251.139 276.247 250.744C276.428 250.339 276.519 249.901 276.519 249.432V249.176ZM280.572 245V242.76H281.772V245H283.9V246.12H281.772V250.424C281.772 250.915 281.873 251.272 282.076 251.496C282.289 251.72 282.556 251.853 282.876 251.896C283.207 251.939 283.548 251.939 283.9 251.896V252.936C283.484 253.032 283.073 253.059 282.668 253.016C282.273 252.973 281.916 252.856 281.596 252.664C281.287 252.461 281.036 252.179 280.844 251.816C280.663 251.453 280.572 250.989 280.572 250.424V246.12H279.372V245H280.572ZM285.925 245H287.109V253H285.925V245ZM286.533 243.4C286.288 243.4 286.085 243.32 285.925 243.16C285.765 243 285.685 242.803 285.685 242.568C285.685 242.323 285.765 242.12 285.925 241.96C286.085 241.8 286.288 241.72 286.533 241.72C286.757 241.72 286.949 241.8 287.109 241.96C287.28 242.12 287.365 242.323 287.365 242.568C287.365 242.803 287.28 243 287.109 243.16C286.949 243.32 286.757 243.4 286.533 243.4ZM293.266 253.112C292.509 253.112 291.831 252.947 291.234 252.616C290.637 252.285 290.167 251.816 289.826 251.208C289.485 250.589 289.314 249.859 289.314 249.016C289.314 248.163 289.485 247.427 289.826 246.808C290.178 246.189 290.653 245.715 291.25 245.384C291.858 245.053 292.541 244.888 293.298 244.888C294.055 244.888 294.733 245.053 295.33 245.384C295.938 245.715 296.413 246.189 296.754 246.808C297.106 247.416 297.282 248.141 297.282 248.984C297.282 249.837 297.106 250.573 296.754 251.192C296.402 251.811 295.922 252.285 295.314 252.616C294.706 252.947 294.023 253.112 293.266 253.112ZM293.25 251.976C293.719 251.976 294.162 251.875 294.578 251.672C294.994 251.459 295.33 251.133 295.586 250.696C295.853 250.248 295.986 249.683 295.986 249C295.986 248.307 295.858 247.741 295.602 247.304C295.346 246.867 295.01 246.547 294.594 246.344C294.189 246.131 293.751 246.024 293.282 246.024C292.813 246.024 292.375 246.131 291.97 246.344C291.565 246.547 291.234 246.872 290.978 247.32C290.733 247.757 290.61 248.317 290.61 249C290.61 249.693 290.733 250.259 290.978 250.696C291.223 251.133 291.543 251.459 291.938 251.672C292.343 251.875 292.781 251.976 293.25 251.976ZM299.248 245H300.352L300.416 246.136C300.672 245.741 301.008 245.437 301.424 245.224C301.84 245 302.325 244.888 302.88 244.888C303.488 244.888 304.021 245.021 304.48 245.288C304.938 245.544 305.296 245.933 305.552 246.456C305.808 246.968 305.936 247.613 305.936 248.392V253H304.736V248.536C304.736 247.704 304.554 247.075 304.192 246.648C303.84 246.211 303.328 245.992 302.656 245.992C301.962 245.992 301.418 246.221 301.024 246.68C300.64 247.139 300.448 247.816 300.448 248.712V253H299.248V245ZM313.26 245V242.76H314.46V245H316.588V246.12H314.46V250.424C314.46 250.915 314.561 251.272 314.764 251.496C314.977 251.72 315.244 251.853 315.564 251.896C315.894 251.939 316.236 251.939 316.588 251.896V252.936C316.172 253.032 315.761 253.059 315.356 253.016C314.961 252.973 314.604 252.856 314.284 252.664C313.974 252.461 313.724 252.179 313.532 251.816C313.35 251.453 313.26 250.989 313.26 250.424V246.12H312.06V245H313.26ZM318.373 245H319.477L319.541 246.168C319.754 245.88 320.01 245.635 320.309 245.432C320.618 245.229 320.954 245.091 321.317 245.016C321.69 244.931 322.085 244.925 322.501 245V246.2C322.053 246.115 321.647 246.115 321.285 246.2C320.933 246.285 320.629 246.445 320.373 246.68C320.117 246.915 319.919 247.213 319.781 247.576C319.642 247.928 319.573 248.339 319.573 248.808V253H318.373V245ZM329.146 253L329.05 251.56C328.826 252.051 328.496 252.435 328.058 252.712C327.621 252.979 327.066 253.112 326.394 253.112C325.818 253.112 325.328 253.021 324.922 252.84C324.517 252.659 324.202 252.403 323.978 252.072C323.765 251.731 323.658 251.331 323.658 250.872C323.658 250.2 323.909 249.651 324.41 249.224C324.912 248.787 325.637 248.52 326.586 248.424L329.05 248.152V247.512C329.05 247.064 328.885 246.707 328.554 246.44C328.224 246.163 327.776 246.024 327.21 246.024C326.656 246.024 326.192 246.152 325.818 246.408C325.456 246.664 325.205 247.032 325.066 247.512L323.978 247.128C324.192 246.424 324.581 245.875 325.146 245.48C325.722 245.085 326.421 244.888 327.242 244.888C328.192 244.888 328.928 245.133 329.45 245.624C329.984 246.104 330.25 246.76 330.25 247.592V253H329.146ZM329.05 249.176L326.57 249.464C326.037 249.528 325.632 249.677 325.354 249.912C325.077 250.136 324.938 250.435 324.938 250.808C324.938 251.181 325.072 251.48 325.338 251.704C325.616 251.928 326.01 252.04 326.522 252.04C327.109 252.04 327.589 251.923 327.962 251.688C328.336 251.453 328.608 251.139 328.778 250.744C328.96 250.339 329.05 249.901 329.05 249.432V249.176ZM335.999 253.112C335.221 253.112 334.538 252.941 333.951 252.6C333.365 252.259 332.906 251.784 332.575 251.176C332.255 250.557 332.095 249.843 332.095 249.032C332.095 248.211 332.255 247.491 332.575 246.872C332.906 246.243 333.365 245.757 333.951 245.416C334.538 245.064 335.221 244.888 335.999 244.888C336.821 244.888 337.541 245.08 338.159 245.464C338.778 245.837 339.226 246.36 339.503 247.032L338.399 247.416C338.239 246.989 337.946 246.653 337.519 246.408C337.103 246.152 336.618 246.024 336.063 246.024C335.519 246.024 335.045 246.147 334.639 246.392C334.245 246.637 333.935 246.984 333.711 247.432C333.498 247.88 333.391 248.408 333.391 249.016C333.391 249.912 333.631 250.632 334.111 251.176C334.591 251.709 335.231 251.976 336.031 251.976C336.575 251.976 337.061 251.853 337.487 251.608C337.914 251.363 338.229 251.032 338.431 250.616L339.519 251C339.231 251.661 338.778 252.179 338.159 252.552C337.541 252.925 336.821 253.112 335.999 253.112ZM341.482 241.48H342.698V248.472H343.434L346.586 245H348.282L344.506 249L348.298 253H346.586L343.434 249.512H342.698V253H341.482V241.48ZM350.003 245H351.187V253H350.003V245ZM350.611 243.4C350.366 243.4 350.163 243.32 350.003 243.16C349.843 243 349.763 242.803 349.763 242.568C349.763 242.323 349.843 242.12 350.003 241.96C350.163 241.8 350.366 241.72 350.611 241.72C350.835 241.72 351.027 241.8 351.187 241.96C351.358 242.12 351.443 242.323 351.443 242.568C351.443 242.803 351.358 243 351.187 243.16C351.027 243.32 350.835 243.4 350.611 243.4ZM353.888 245H354.992L355.056 246.136C355.312 245.741 355.648 245.437 356.064 245.224C356.48 245 356.966 244.888 357.52 244.888C358.128 244.888 358.662 245.021 359.12 245.288C359.579 245.544 359.936 245.933 360.192 246.456C360.448 246.968 360.576 247.613 360.576 248.392V253H359.376V248.536C359.376 247.704 359.195 247.075 358.832 246.648C358.48 246.211 357.968 245.992 357.296 245.992C356.603 245.992 356.059 246.221 355.664 246.68C355.28 247.139 355.088 247.816 355.088 248.712V253H353.888V245ZM369.048 245H370.152V251.528C370.152 252.509 369.933 253.347 369.496 254.04C369.059 254.744 368.424 255.277 367.592 255.64C366.76 256.013 365.747 256.2 364.552 256.2L364.36 255.096C365.864 255.075 367.005 254.76 367.784 254.152C368.563 253.555 368.952 252.68 368.952 251.528V251.352L369.08 251.384C368.835 251.853 368.467 252.259 367.976 252.6C367.485 252.931 366.851 253.101 366.072 253.112C365.336 253.112 364.691 252.947 364.136 252.616C363.592 252.275 363.165 251.795 362.856 251.176C362.557 250.557 362.408 249.832 362.408 249C362.408 248.168 362.557 247.448 362.856 246.84C363.165 246.221 363.592 245.741 364.136 245.4C364.691 245.059 365.336 244.888 366.072 244.888C366.552 244.888 366.979 244.963 367.352 245.112C367.725 245.251 368.045 245.443 368.312 245.688C368.579 245.923 368.797 246.189 368.968 246.488L369.048 245ZM363.704 249C363.704 249.917 363.939 250.648 364.408 251.192C364.888 251.725 365.533 251.992 366.344 251.992C366.835 251.992 367.277 251.875 367.672 251.64C368.067 251.405 368.376 251.064 368.6 250.616C368.835 250.168 368.952 249.629 368.952 249C368.952 248.371 368.835 247.837 368.6 247.4C368.376 246.952 368.067 246.611 367.672 246.376C367.277 246.131 366.835 246.008 366.344 246.008C365.544 246.008 364.904 246.28 364.424 246.824C363.944 247.368 363.704 248.093 363.704 249Z" fill="#9CA3AF"/>
<path d="M169 248.2H371.368V249H169V248.2Z" fill="#9CA3AF"/>
</g>
<g filter="url(#filter1_dd_5453_70891)">
<rect x="151" y="26" width="240" height="48" rx="16" fill="white"/>
<rect x="151.5" y="26.5" width="239" height="47" rx="15.5" stroke="#F3F4F7"/>
<path d="M185.64 56H184.36V44.8H185.768L189.928 54.24L194.072 44.8H195.464V56H194.184V47.328L190.376 56H189.464L185.64 47.328V56ZM198.3 48H199.484V56H198.3V48ZM198.908 46.4C198.663 46.4 198.46 46.32 198.3 46.16C198.14 46 198.06 45.8027 198.06 45.568C198.06 45.3227 198.14 45.12 198.3 44.96C198.46 44.8 198.663 44.72 198.908 44.72C199.132 44.72 199.324 44.8 199.484 44.96C199.655 45.12 199.74 45.3227 199.74 45.568C199.74 45.8027 199.655 46 199.484 46.16C199.324 46.32 199.132 46.4 198.908 46.4ZM202.841 53.552C202.905 53.872 203.022 54.1387 203.193 54.352C203.364 54.5547 203.582 54.7093 203.849 54.816C204.126 54.9227 204.446 54.976 204.809 54.976C205.374 54.976 205.801 54.8693 206.089 54.656C206.388 54.432 206.537 54.1547 206.537 53.824C206.537 53.5467 206.446 53.3227 206.265 53.152C206.094 52.9813 205.865 52.8427 205.577 52.736C205.289 52.6187 204.969 52.5173 204.617 52.432C204.34 52.368 204.041 52.2933 203.721 52.208C203.401 52.112 203.097 51.984 202.809 51.824C202.521 51.664 202.286 51.456 202.105 51.2C201.924 50.944 201.833 50.608 201.833 50.192C201.833 49.7333 201.956 49.3333 202.201 48.992C202.457 48.64 202.804 48.368 203.241 48.176C203.689 47.984 204.201 47.888 204.777 47.888C205.438 47.888 206.025 48.032 206.537 48.32C207.06 48.608 207.422 49.056 207.625 49.664L206.505 50.048C206.43 49.7707 206.292 49.5573 206.089 49.408C205.897 49.2587 205.678 49.1573 205.433 49.104C205.198 49.0507 204.964 49.024 204.729 49.024C204.249 49.024 203.86 49.12 203.561 49.312C203.273 49.4933 203.129 49.7707 203.129 50.144C203.129 50.3467 203.177 50.5173 203.273 50.656C203.369 50.784 203.502 50.8907 203.673 50.976C203.844 51.0613 204.046 51.136 204.281 51.2C204.516 51.2533 204.772 51.3173 205.049 51.392C205.358 51.4667 205.673 51.5627 205.993 51.68C206.313 51.7867 206.612 51.9307 206.889 52.112C207.166 52.2827 207.39 52.5067 207.561 52.784C207.742 53.0507 207.833 53.3867 207.833 53.792C207.833 54.2613 207.705 54.672 207.449 55.024C207.193 55.3653 206.836 55.632 206.377 55.824C205.929 56.016 205.406 56.112 204.809 56.112C203.988 56.112 203.305 55.9307 202.761 55.568C202.228 55.1947 201.87 54.6507 201.689 53.936L202.841 53.552ZM210.435 53.552C210.499 53.872 210.616 54.1387 210.787 54.352C210.958 54.5547 211.176 54.7093 211.443 54.816C211.72 54.9227 212.04 54.976 212.403 54.976C212.968 54.976 213.395 54.8693 213.683 54.656C213.982 54.432 214.131 54.1547 214.131 53.824C214.131 53.5467 214.04 53.3227 213.859 53.152C213.688 52.9813 213.459 52.8427 213.171 52.736C212.883 52.6187 212.563 52.5173 212.211 52.432C211.934 52.368 211.635 52.2933 211.315 52.208C210.995 52.112 210.691 51.984 210.403 51.824C210.115 51.664 209.88 51.456 209.699 51.2C209.518 50.944 209.427 50.608 209.427 50.192C209.427 49.7333 209.55 49.3333 209.795 48.992C210.051 48.64 210.398 48.368 210.835 48.176C211.283 47.984 211.795 47.888 212.371 47.888C213.032 47.888 213.619 48.032 214.131 48.32C214.654 48.608 215.016 49.056 215.219 49.664L214.099 50.048C214.024 49.7707 213.886 49.5573 213.683 49.408C213.491 49.2587 213.272 49.1573 213.027 49.104C212.792 49.0507 212.558 49.024 212.323 49.024C211.843 49.024 211.454 49.12 211.155 49.312C210.867 49.4933 210.723 49.7707 210.723 50.144C210.723 50.3467 210.771 50.5173 210.867 50.656C210.963 50.784 211.096 50.8907 211.267 50.976C211.438 51.0613 211.64 51.136 211.875 51.2C212.11 51.2533 212.366 51.3173 212.643 51.392C212.952 51.4667 213.267 51.5627 213.587 51.68C213.907 51.7867 214.206 51.9307 214.483 52.112C214.76 52.2827 214.984 52.5067 215.155 52.784C215.336 53.0507 215.427 53.3867 215.427 53.792C215.427 54.2613 215.299 54.672 215.043 55.024C214.787 55.3653 214.43 55.632 213.971 55.824C213.523 56.016 213 56.112 212.403 56.112C211.582 56.112 210.899 55.9307 210.355 55.568C209.822 55.1947 209.464 54.6507 209.283 53.936L210.435 53.552ZM217.613 48H218.797V56H217.613V48ZM218.221 46.4C217.975 46.4 217.773 46.32 217.613 46.16C217.453 46 217.373 45.8027 217.373 45.568C217.373 45.3227 217.453 45.12 217.613 44.96C217.773 44.8 217.975 44.72 218.221 44.72C218.445 44.72 218.637 44.8 218.797 44.96C218.967 45.12 219.053 45.3227 219.053 45.568C219.053 45.8027 218.967 46 218.797 46.16C218.637 46.32 218.445 46.4 218.221 46.4ZM221.498 48H222.602L222.666 49.136C222.922 48.7413 223.258 48.4373 223.674 48.224C224.09 48 224.575 47.888 225.13 47.888C225.738 47.888 226.271 48.0213 226.73 48.288C227.188 48.544 227.546 48.9333 227.802 49.456C228.058 49.968 228.186 50.6133 228.186 51.392V56H226.986V51.536C226.986 50.704 226.804 50.0747 226.442 49.648C226.09 49.2107 225.578 48.992 224.906 48.992C224.212 48.992 223.668 49.2213 223.274 49.68C222.89 50.1387 222.698 50.816 222.698 51.712V56H221.498V48ZM236.657 48H237.761V54.528C237.761 55.5093 237.543 56.3467 237.105 57.04C236.668 57.744 236.033 58.2773 235.201 58.64C234.369 59.0133 233.356 59.2 232.161 59.2L231.969 58.096C233.473 58.0747 234.615 57.76 235.393 57.152C236.172 56.5547 236.561 55.68 236.561 54.528V54.352L236.689 54.384C236.444 54.8533 236.076 55.2587 235.585 55.6C235.095 55.9307 234.46 56.1013 233.681 56.112C232.945 56.112 232.3 55.9467 231.745 55.616C231.201 55.2747 230.775 54.7947 230.465 54.176C230.167 53.5573 230.017 52.832 230.017 52C230.017 51.168 230.167 50.448 230.465 49.84C230.775 49.2213 231.201 48.7413 231.745 48.4C232.3 48.0587 232.945 47.888 233.681 47.888C234.161 47.888 234.588 47.9627 234.961 48.112C235.335 48.2507 235.655 48.4427 235.921 48.688C236.188 48.9227 236.407 49.1893 236.577 49.488L236.657 48ZM231.313 52C231.313 52.9173 231.548 53.648 232.017 54.192C232.497 54.7253 233.143 54.992 233.953 54.992C234.444 54.992 234.887 54.8747 235.281 54.64C235.676 54.4053 235.985 54.064 236.209 53.616C236.444 53.168 236.561 52.6293 236.561 52C236.561 51.3707 236.444 50.8373 236.209 50.4C235.985 49.952 235.676 49.6107 235.281 49.376C234.887 49.1307 234.444 49.008 233.953 49.008C233.153 49.008 232.513 49.28 232.033 49.824C231.553 50.368 231.313 51.0933 231.313 52ZM251.293 48.112C251.293 47.44 251.095 46.9067 250.701 46.512C250.306 46.1173 249.661 45.92 248.765 45.92H246.109V50.304H248.781C249.367 50.304 249.842 50.2133 250.205 50.032C250.578 49.8507 250.85 49.5947 251.021 49.264C251.202 48.9333 251.293 48.5493 251.293 48.112ZM248.765 44.8C249.639 44.8 250.354 44.9493 250.909 45.248C251.474 45.5467 251.895 45.9467 252.173 46.448C252.45 46.9387 252.589 47.4933 252.589 48.112C252.589 48.5493 252.514 48.9653 252.365 49.36C252.226 49.7547 252.002 50.1067 251.693 50.416C251.383 50.7253 250.989 50.9707 250.509 51.152C250.029 51.3333 249.453 51.424 248.781 51.424H246.109V56H244.829V44.8H248.765ZM249.693 50.944L252.797 56H251.341L248.317 50.944H249.693ZM260.093 46.48C259.879 46.2667 259.613 46.1067 259.293 46C258.983 45.8827 258.631 45.824 258.237 45.824C257.501 45.824 256.951 46.016 256.589 46.4C256.237 46.784 256.061 47.2693 256.061 47.856C256.061 48.2827 256.167 48.6347 256.381 48.912C256.605 49.1893 256.941 49.3973 257.389 49.536C257.847 49.6747 258.423 49.744 259.117 49.744H262.589V50.864H259.133C258.066 50.864 257.25 51.0187 256.685 51.328C256.13 51.6267 255.853 52.1653 255.853 52.944C255.853 53.3493 255.933 53.7067 256.093 54.016C256.253 54.3253 256.503 54.5653 256.845 54.736C257.186 54.896 257.629 54.976 258.173 54.976C258.994 54.976 259.575 54.7787 259.917 54.384C260.258 53.9893 260.429 53.3867 260.429 52.576V50.528H261.661V52.576C261.661 53.4187 261.522 54.1013 261.245 54.624C260.967 55.136 260.567 55.5147 260.045 55.76C259.522 55.9947 258.898 56.112 258.173 56.112C257.373 56.112 256.701 55.984 256.157 55.728C255.623 55.4613 255.223 55.0987 254.957 54.64C254.69 54.1707 254.557 53.6427 254.557 53.056C254.557 52.5227 254.658 52.0747 254.861 51.712C255.063 51.3387 255.341 51.04 255.693 50.816C256.055 50.5813 256.466 50.416 256.925 50.32V50.24C256.466 50.1547 256.077 49.9893 255.757 49.744C255.437 49.4987 255.191 49.2053 255.021 48.864C254.85 48.512 254.765 48.1333 254.765 47.728C254.765 47.1733 254.893 46.6667 255.149 46.208C255.415 45.7493 255.805 45.3813 256.317 45.104C256.829 44.8267 257.453 44.688 258.189 44.688C258.797 44.688 259.346 44.784 259.837 44.976C260.338 45.1573 260.759 45.4187 261.101 45.76L260.093 46.48ZM261.101 45.76L260.093 46.48L261.101 45.76ZM259.821 49.744C259.959 49.744 260.082 49.7173 260.189 49.664C260.295 49.6 260.375 49.5147 260.429 49.408C260.482 49.3013 260.509 49.1787 260.509 49.04V47.776H261.677V49.744H263.821V50.864H261.677V53.424C261.677 53.9467 261.815 54.3307 262.093 54.576C262.37 54.8213 262.738 54.944 263.197 54.944C263.293 54.944 263.389 54.9387 263.485 54.928C263.591 54.9173 263.703 54.9067 263.821 54.896V55.936C263.682 55.968 263.538 55.9947 263.389 56.016C263.25 56.0373 263.117 56.048 262.989 56.048C262.541 56.048 262.119 55.9573 261.725 55.776C261.341 55.5947 261.026 55.312 260.781 54.928C260.535 54.5333 260.413 54.032 260.413 53.424V50.864H259.213V49.744H259.821ZM269.79 44.8C271.028 44.8 272.084 45.0293 272.958 45.488C273.844 45.936 274.521 46.5813 274.99 47.424C275.47 48.2667 275.71 49.2693 275.71 50.432C275.71 51.584 275.47 52.576 274.99 53.408C274.521 54.24 273.844 54.88 272.958 55.328C272.084 55.776 271.028 56 269.79 56H266.094V44.8H269.79ZM269.79 54.88C271.316 54.88 272.468 54.4907 273.246 53.712C274.025 52.9333 274.414 51.84 274.414 50.432C274.414 49.0133 274.025 47.9093 273.246 47.12C272.468 46.32 271.316 45.92 269.79 45.92H267.374V54.88H269.79ZM282.619 48V45.76H283.819V48H285.947V49.12H283.819V53.424C283.819 53.9147 283.92 54.272 284.123 54.496C284.336 54.72 284.603 54.8533 284.923 54.896C285.254 54.9387 285.595 54.9387 285.947 54.896V55.936C285.531 56.032 285.12 56.0587 284.715 56.016C284.32 55.9733 283.963 55.856 283.643 55.664C283.334 55.4613 283.083 55.1787 282.891 54.816C282.71 54.4533 282.619 53.9893 282.619 53.424V49.12H281.419V48H282.619ZM292.74 56L292.644 54.56C292.42 55.0507 292.089 55.4347 291.652 55.712C291.215 55.9787 290.66 56.112 289.988 56.112C289.412 56.112 288.921 56.0213 288.516 55.84C288.111 55.6587 287.796 55.4027 287.572 55.072C287.359 54.7307 287.252 54.3307 287.252 53.872C287.252 53.2 287.503 52.6507 288.004 52.224C288.505 51.7867 289.231 51.52 290.18 51.424L292.644 51.152V50.512C292.644 50.064 292.479 49.7067 292.148 49.44C291.817 49.1627 291.369 49.024 290.804 49.024C290.249 49.024 289.785 49.152 289.412 49.408C289.049 49.664 288.799 50.032 288.66 50.512L287.572 50.128C287.785 49.424 288.175 48.8747 288.74 48.48C289.316 48.0853 290.015 47.888 290.836 47.888C291.785 47.888 292.521 48.1333 293.044 48.624C293.577 49.104 293.844 49.76 293.844 50.592V56H292.74ZM292.644 52.176L290.164 52.464C289.631 52.528 289.225 52.6773 288.948 52.912C288.671 53.136 288.532 53.4347 288.532 53.808C288.532 54.1813 288.665 54.48 288.932 54.704C289.209 54.928 289.604 55.04 290.116 55.04C290.703 55.04 291.183 54.9227 291.556 54.688C291.929 54.4533 292.201 54.1387 292.372 53.744C292.553 53.3387 292.644 52.9013 292.644 52.432V52.176ZM295.449 48H296.825L298.873 51.056L300.921 48H302.313L299.545 51.984L302.313 56H300.921L298.873 52.912L296.825 56H295.449L298.217 51.984L295.449 48ZM311.937 56.112C311.158 56.112 310.476 55.9413 309.889 55.6C309.302 55.2587 308.844 54.784 308.513 54.176C308.193 53.5573 308.033 52.8427 308.033 52.032C308.033 51.2107 308.193 50.4907 308.513 49.872C308.844 49.2427 309.302 48.7573 309.889 48.416C310.476 48.064 311.158 47.888 311.937 47.888C312.758 47.888 313.478 48.08 314.097 48.464C314.716 48.8373 315.164 49.36 315.441 50.032L314.337 50.416C314.177 49.9893 313.884 49.6533 313.457 49.408C313.041 49.152 312.556 49.024 312.001 49.024C311.457 49.024 310.982 49.1467 310.577 49.392C310.182 49.6373 309.873 49.984 309.649 50.432C309.436 50.88 309.329 51.408 309.329 52.016C309.329 52.912 309.569 53.632 310.049 54.176C310.529 54.7093 311.169 54.976 311.969 54.976C312.513 54.976 312.998 54.8533 313.425 54.608C313.852 54.3627 314.166 54.032 314.369 53.616L315.457 54C315.169 54.6613 314.716 55.1787 314.097 55.552C313.478 55.9253 312.758 56.112 311.937 56.112ZM317.42 48H318.524L318.588 49.168C318.801 48.88 319.057 48.6347 319.356 48.432C319.665 48.2293 320.001 48.0907 320.364 48.016C320.737 47.9307 321.132 47.9253 321.548 48V49.2C321.1 49.1147 320.694 49.1147 320.332 49.2C319.98 49.2853 319.676 49.4453 319.42 49.68C319.164 49.9147 318.966 50.2133 318.828 50.576C318.689 50.928 318.62 51.3387 318.62 51.808V56H317.42V48ZM326.545 56.112C325.798 56.112 325.132 55.9307 324.545 55.568C323.969 55.2053 323.516 54.7093 323.185 54.08C322.854 53.4507 322.689 52.7307 322.689 51.92C322.689 51.1413 322.854 50.448 323.185 49.84C323.516 49.232 323.969 48.7573 324.545 48.416C325.121 48.064 325.777 47.888 326.513 47.888C327.238 47.888 327.884 48.048 328.449 48.368C329.025 48.688 329.473 49.1307 329.793 49.696C330.113 50.2613 330.262 50.9067 330.241 51.632C330.241 51.7493 330.236 51.872 330.225 52C330.214 52.128 330.204 52.2667 330.193 52.416H324.001C324.022 52.9173 324.145 53.36 324.369 53.744C324.593 54.128 324.886 54.432 325.249 54.656C325.622 54.8693 326.044 54.976 326.513 54.976C327.132 54.976 327.654 54.8587 328.081 54.624C328.518 54.3893 328.833 54.0533 329.025 53.616L330.065 54.032C329.745 54.704 329.281 55.2213 328.673 55.584C328.065 55.936 327.356 56.112 326.545 56.112ZM328.929 51.376C328.94 50.9173 328.838 50.512 328.625 50.16C328.422 49.808 328.134 49.5307 327.761 49.328C327.388 49.1253 326.956 49.024 326.465 49.024C326.038 49.024 325.649 49.1253 325.297 49.328C324.945 49.5307 324.652 49.8133 324.417 50.176C324.193 50.528 324.06 50.928 324.017 51.376H328.929ZM338.392 49.616L338.264 49.632V44.48H339.464V56H338.36L338.28 54.512C338.035 54.96 337.667 55.3387 337.176 55.648C336.696 55.9573 336.099 56.112 335.384 56.112C334.648 56.112 334.003 55.9467 333.448 55.616C332.904 55.2747 332.478 54.7947 332.168 54.176C331.87 53.5573 331.72 52.832 331.72 52C331.72 51.168 331.87 50.448 332.168 49.84C332.478 49.2213 332.904 48.7413 333.448 48.4C334.003 48.0587 334.648 47.888 335.384 47.888C336.142 47.888 336.771 48.0533 337.272 48.384C337.774 48.7147 338.147 49.1253 338.392 49.616ZM333.016 52C333.016 52.9173 333.251 53.648 333.72 54.192C334.19 54.7253 334.83 54.992 335.64 54.992C336.142 54.992 336.59 54.8747 336.984 54.64C337.379 54.4053 337.688 54.064 337.912 53.616C338.147 53.168 338.264 52.6293 338.264 52C338.264 51.3707 338.147 50.8373 337.912 50.4C337.688 49.952 337.379 49.6107 336.984 49.376C336.59 49.1307 336.142 49.008 335.64 49.008C334.84 49.008 334.2 49.28 333.72 49.824C333.251 50.3573 333.016 51.0827 333.016 52ZM342.16 48H343.344V56H342.16V48ZM342.768 46.4C342.522 46.4 342.32 46.32 342.16 46.16C342 46 341.92 45.8027 341.92 45.568C341.92 45.3227 342 45.12 342.16 44.96C342.32 44.8 342.522 44.72 342.768 44.72C342.992 44.72 343.184 44.8 343.344 44.96C343.514 45.12 343.6 45.3227 343.6 45.568C343.6 45.8027 343.514 46 343.344 46.16C343.184 46.32 342.992 46.4 342.768 46.4ZM346.557 48V45.76H347.757V48H349.885V49.12H347.757V53.424C347.757 53.9147 347.858 54.272 348.061 54.496C348.274 54.72 348.541 54.8533 348.861 54.896C349.191 54.9387 349.533 54.9387 349.885 54.896V55.936C349.469 56.032 349.058 56.0587 348.653 56.016C348.258 55.9733 347.901 55.856 347.581 55.664C347.271 55.4613 347.021 55.1787 346.829 54.816C346.647 54.4533 346.557 53.9893 346.557 53.424V49.12H345.357V48H346.557ZM352.326 53.552C352.39 53.872 352.507 54.1387 352.678 54.352C352.848 54.5547 353.067 54.7093 353.334 54.816C353.611 54.9227 353.931 54.976 354.294 54.976C354.859 54.976 355.286 54.8693 355.574 54.656C355.872 54.432 356.022 54.1547 356.022 53.824C356.022 53.5467 355.931 53.3227 355.75 53.152C355.579 52.9813 355.35 52.8427 355.062 52.736C354.774 52.6187 354.454 52.5173 354.102 52.432C353.824 52.368 353.526 52.2933 353.206 52.208C352.886 52.112 352.582 51.984 352.294 51.824C352.006 51.664 351.771 51.456 351.59 51.2C351.408 50.944 351.318 50.608 351.318 50.192C351.318 49.7333 351.44 49.3333 351.686 48.992C351.942 48.64 352.288 48.368 352.726 48.176C353.174 47.984 353.686 47.888 354.262 47.888C354.923 47.888 355.51 48.032 356.022 48.32C356.544 48.608 356.907 49.056 357.11 49.664L355.99 50.048C355.915 49.7707 355.776 49.5573 355.574 49.408C355.382 49.2587 355.163 49.1573 354.918 49.104C354.683 49.0507 354.448 49.024 354.214 49.024C353.734 49.024 353.344 49.12 353.046 49.312C352.758 49.4933 352.614 49.7707 352.614 50.144C352.614 50.3467 352.662 50.5173 352.758 50.656C352.854 50.784 352.987 50.8907 353.158 50.976C353.328 51.0613 353.531 51.136 353.766 51.2C354 51.2533 354.256 51.3173 354.534 51.392C354.843 51.4667 355.158 51.5627 355.478 51.68C355.798 51.7867 356.096 51.9307 356.374 52.112C356.651 52.2827 356.875 52.5067 357.046 52.784C357.227 53.0507 357.318 53.3867 357.318 53.792C357.318 54.2613 357.19 54.672 356.934 55.024C356.678 55.3653 356.32 55.632 355.862 55.824C355.414 56.016 354.891 56.112 354.294 56.112C353.472 56.112 352.79 55.9307 352.246 55.568C351.712 55.1947 351.355 54.6507 351.174 53.936L352.326 53.552Z" fill="#9CA3AF"/>
<path d="M183 51.2H358.038V52H183V51.2Z" fill="#9CA3AF"/>
</g>
<g filter="url(#filter2_dd_5453_70891)">
<rect x="383.352" y="2" width="40" height="40" rx="10" transform="rotate(15 383.352 2)" fill="white" shape-rendering="crispEdges"/>
<rect x="382.998" y="1.38763" width="41" height="41" rx="10.5" transform="rotate(15 382.998 1.38763)" stroke="#F3F4F7" shape-rendering="crispEdges"/>
<g clip-path="url(#clip1_5453_70891)">
<path d="M396.409 18.9574L394.477 18.4397C393.964 18.3024 393.418 18.3743 392.959 18.6395C392.5 18.9047 392.165 19.3416 392.027 19.8539L388.921 31.445C388.784 31.9574 388.856 32.5033 389.121 32.9627C389.386 33.4221 389.823 33.7573 390.336 33.8945L399.995 36.4827C400.507 36.62 401.053 36.5481 401.513 36.2829C401.972 36.0177 402.307 35.5809 402.444 35.0685L405.55 23.4774C405.687 22.965 405.616 22.4191 405.35 21.9598C405.085 21.5004 404.648 21.1652 404.136 21.0279L402.204 20.5103M396.409 18.9574C396.546 18.445 396.881 18.0082 397.34 17.7429C397.8 17.4777 398.346 17.4059 398.858 17.5431L400.79 18.0608C401.302 18.1981 401.739 18.5333 402.004 18.9926C402.27 19.452 402.341 19.9979 402.204 20.5103M396.409 18.9574C396.271 19.4697 396.343 20.0156 396.608 20.475C396.874 20.9344 397.31 21.2696 397.823 21.4069L399.755 21.9245C400.267 22.0618 400.813 21.9899 401.272 21.7247C401.732 21.4595 402.067 21.0226 402.204 20.5103M393.303 30.5485L394.597 25.7188M396.201 31.3249L396.459 30.359M399.098 32.1014L399.875 29.2036" stroke="#71717A" stroke-width="1.2" stroke-linecap="round" stroke-linejoin="round"/>
</g>
</g>
<g filter="url(#filter3_dd_5453_70891)">
<rect x="120" y="255.281" width="32" height="32" rx="8" transform="rotate(-15 120 255.281)" fill="white" shape-rendering="crispEdges"/>
<rect x="119.388" y="254.928" width="33" height="33" rx="8.5" transform="rotate(-15 119.388 254.928)" stroke="#F3F4F7" shape-rendering="crispEdges"/>
<g clip-path="url(#clip2_5453_70891)">
<path d="M139.297 259.687L140.074 262.584C140.125 262.776 140.251 262.94 140.423 263.04C140.596 263.139 140.8 263.166 140.992 263.115L143.89 262.338M139.297 259.687L134.226 261.045C133.842 261.148 133.514 261.4 133.315 261.744C133.117 262.089 133.063 262.498 133.166 262.882L135.883 273.025C135.986 273.409 136.238 273.737 136.582 273.936C136.927 274.134 137.336 274.188 137.72 274.085L141.343 273.115M139.297 259.687L143.89 262.338M143.89 262.338L144.764 265.598M145.76 270.766L148.057 272.092M142.112 270.191C142.241 270.671 142.555 271.081 142.986 271.33C143.416 271.578 143.928 271.646 144.408 271.517C144.889 271.388 145.298 271.074 145.547 270.643C145.796 270.213 145.863 269.701 145.734 269.22C145.606 268.74 145.291 268.331 144.861 268.082C144.43 267.833 143.918 267.766 143.438 267.895C142.957 268.023 142.548 268.338 142.299 268.768C142.051 269.199 141.983 269.711 142.112 270.191Z" stroke="#71717A" stroke-width="1.2" stroke-linecap="round" stroke-linejoin="round"/>
</g>
</g>
<g opacity="0.2" filter="url(#filter4_f_5453_70891)">
<path d="M706.296 234.642C604.92 308.095 545.36 456.039 545.36 456.039C545.36 456.039 482.077 436.815 458.63 432.674C515.67 398.664 512.321 314.268 549.049 253.677C578.625 240.3 675.524 242.184 706.296 234.642Z" fill="url(#paint4_linear_5453_70891)"/>
</g>
<g opacity="0.2" filter="url(#filter5_f_5453_70891)">
<path d="M-134.366 298.029C-50.7919 225.103 -9.42903 95.8626 -9.42903 95.8626C-9.42903 95.8626 47.5465 103.993 68.4359 104.546C20.8723 139.545 30.0442 208.718 2.27468 263.154C-22.702 277.79 -107.908 288.056 -134.366 298.029Z" fill="url(#paint5_linear_5453_70891)"/>
</g>
<g filter="url(#filter6_dd_5453_70891)">
<rect x="70" y="98" width="400" height="110" rx="16" fill="white" shape-rendering="crispEdges"/>
<rect x="70.5" y="98.5" width="399" height="109" rx="15.5" stroke="#F3F4F7" shape-rendering="crispEdges"/>
<g filter="url(#filter7_i_5453_70891)">
<rect x="94" y="118" width="352" height="40" rx="12" fill="#266AE9"/>
<path d="M205.78 133.2H207.18V139.43C207.18 139.99 207.288 140.457 207.502 140.83C207.717 141.194 208.011 141.465 208.384 141.642C208.758 141.81 209.178 141.894 209.644 141.894C210.12 141.894 210.54 141.81 210.904 141.642C211.278 141.465 211.572 141.194 211.786 140.83C212.001 140.457 212.108 139.99 212.108 139.43V133.2H213.508V139.402C213.508 140.037 213.401 140.587 213.186 141.054C212.981 141.511 212.692 141.894 212.318 142.202C211.954 142.501 211.539 142.725 211.072 142.874C210.615 143.023 210.134 143.098 209.63 143.098C208.958 143.098 208.328 142.967 207.74 142.706C207.152 142.435 206.676 142.029 206.312 141.488C205.958 140.937 205.78 140.242 205.78 139.402V133.2ZM215.569 136H216.773L216.857 136.812C217.081 136.523 217.365 136.299 217.711 136.14C218.056 135.981 218.439 135.902 218.859 135.902C219.4 135.902 219.867 136.019 220.259 136.252C220.66 136.476 220.968 136.812 221.183 137.26C221.407 137.708 221.519 138.268 221.519 138.94V143H220.203V139.108C220.203 138.455 220.063 137.96 219.783 137.624C219.512 137.279 219.115 137.106 218.593 137.106C218.051 137.106 217.631 137.283 217.333 137.638C217.034 137.983 216.885 138.497 216.885 139.178V143H215.569V136ZM223.416 132.92H224.732V143H223.416V132.92ZM229.804 143.098C229.142 143.098 228.544 142.953 228.012 142.664C227.49 142.365 227.079 141.95 226.78 141.418C226.482 140.877 226.332 140.242 226.332 139.514C226.332 138.777 226.486 138.137 226.794 137.596C227.102 137.055 227.522 136.639 228.054 136.35C228.586 136.051 229.184 135.902 229.846 135.902C230.509 135.902 231.106 136.051 231.638 136.35C232.18 136.639 232.604 137.055 232.912 137.596C233.22 138.128 233.374 138.758 233.374 139.486C233.374 140.223 233.216 140.863 232.898 141.404C232.59 141.945 232.166 142.365 231.624 142.664C231.083 142.953 230.476 143.098 229.804 143.098ZM229.79 141.894C230.164 141.894 230.514 141.81 230.84 141.642C231.167 141.465 231.433 141.199 231.638 140.844C231.853 140.489 231.96 140.037 231.96 139.486C231.96 138.945 231.858 138.501 231.652 138.156C231.456 137.801 231.195 137.54 230.868 137.372C230.542 137.195 230.192 137.106 229.818 137.106C229.454 137.106 229.114 137.195 228.796 137.372C228.488 137.54 228.236 137.801 228.04 138.156C227.844 138.511 227.746 138.963 227.746 139.514C227.746 140.055 227.84 140.503 228.026 140.858C228.222 141.203 228.474 141.465 228.782 141.642C229.09 141.81 229.426 141.894 229.79 141.894ZM237.979 143.098C237.307 143.098 236.714 142.949 236.201 142.65C235.687 142.342 235.286 141.922 234.997 141.39C234.717 140.858 234.577 140.237 234.577 139.528C234.577 138.809 234.721 138.179 235.011 137.638C235.3 137.097 235.701 136.672 236.215 136.364C236.728 136.056 237.325 135.902 238.007 135.902C238.725 135.902 239.355 136.07 239.897 136.406C240.447 136.742 240.844 137.195 241.087 137.764L239.897 138.184C239.757 137.857 239.519 137.596 239.183 137.4C238.856 137.204 238.483 137.106 238.063 137.106C237.633 137.106 237.265 137.209 236.957 137.414C236.649 137.61 236.411 137.89 236.243 138.254C236.075 138.609 235.991 139.029 235.991 139.514C235.991 140.242 236.177 140.821 236.551 141.25C236.924 141.679 237.428 141.894 238.063 141.894C238.483 141.894 238.856 141.801 239.183 141.614C239.519 141.427 239.771 141.171 239.939 140.844L241.115 141.264C240.853 141.824 240.443 142.272 239.883 142.608C239.323 142.935 238.688 143.098 237.979 143.098ZM242.721 132.92H244.051V138.926H244.625L247.243 136H249.035L245.787 139.5L249.049 143H247.243L244.625 140.06H244.051V143H242.721V132.92ZM261.99 133.2V143H260.562L255.676 135.412V143H254.276V133.2H255.704L260.59 140.76V133.2H261.99ZM267.142 143.098C266.47 143.098 265.872 142.944 265.35 142.636C264.836 142.319 264.43 141.885 264.132 141.334C263.842 140.783 263.698 140.153 263.698 139.444C263.698 138.763 263.842 138.156 264.132 137.624C264.421 137.092 264.818 136.672 265.322 136.364C265.835 136.056 266.414 135.902 267.058 135.902C267.711 135.902 268.29 136.047 268.794 136.336C269.298 136.616 269.69 137.013 269.97 137.526C270.25 138.03 270.385 138.613 270.376 139.276C270.376 139.388 270.371 139.505 270.362 139.626C270.352 139.738 270.338 139.864 270.32 140.004H265.14C265.168 140.377 265.27 140.709 265.448 140.998C265.634 141.278 265.868 141.497 266.148 141.656C266.437 141.815 266.764 141.894 267.128 141.894C267.594 141.894 268 141.805 268.346 141.628C268.691 141.441 268.934 141.194 269.074 140.886L270.222 141.292C269.942 141.861 269.531 142.305 268.99 142.622C268.458 142.939 267.842 143.098 267.142 143.098ZM268.934 138.87C268.934 138.534 268.85 138.231 268.682 137.96C268.514 137.689 268.285 137.479 267.996 137.33C267.716 137.171 267.398 137.092 267.044 137.092C266.726 137.092 266.432 137.171 266.162 137.33C265.9 137.479 265.676 137.689 265.49 137.96C265.312 138.221 265.2 138.525 265.154 138.87H268.934ZM274.778 143H273.518L271.32 136H272.664L274.134 141.432L275.702 136H276.962L278.474 141.404L279.93 136H281.232L279.062 143H277.788L276.29 137.918L274.778 143ZM287.436 140.41C287.492 140.671 287.604 140.914 287.772 141.138C287.95 141.362 288.188 141.544 288.486 141.684C288.785 141.824 289.154 141.894 289.592 141.894C290.246 141.894 290.726 141.745 291.034 141.446C291.352 141.138 291.51 140.779 291.51 140.368C291.51 140.032 291.412 139.757 291.216 139.542C291.03 139.318 290.768 139.131 290.432 138.982C290.106 138.823 289.728 138.683 289.298 138.562C288.925 138.45 288.556 138.333 288.192 138.212C287.838 138.081 287.516 137.923 287.226 137.736C286.937 137.54 286.708 137.293 286.54 136.994C286.372 136.686 286.288 136.303 286.288 135.846C286.288 135.277 286.424 134.787 286.694 134.376C286.965 133.965 287.343 133.653 287.828 133.438C288.323 133.214 288.892 133.102 289.536 133.102C290.078 133.102 290.563 133.181 290.992 133.34C291.422 133.489 291.781 133.709 292.07 133.998C292.369 134.278 292.588 134.619 292.728 135.02L291.454 135.482C291.398 135.277 291.282 135.085 291.104 134.908C290.927 134.721 290.703 134.572 290.432 134.46C290.162 134.348 289.858 134.292 289.522 134.292C289.177 134.283 288.864 134.339 288.584 134.46C288.314 134.572 288.094 134.735 287.926 134.95C287.768 135.165 287.688 135.421 287.688 135.72C287.688 136.047 287.782 136.303 287.968 136.49C288.155 136.677 288.402 136.831 288.71 136.952C289.028 137.073 289.373 137.19 289.746 137.302C290.138 137.423 290.521 137.554 290.894 137.694C291.268 137.834 291.604 138.011 291.902 138.226C292.21 138.441 292.458 138.711 292.644 139.038C292.831 139.355 292.924 139.757 292.924 140.242C292.924 140.765 292.803 141.241 292.56 141.67C292.318 142.099 291.949 142.445 291.454 142.706C290.969 142.967 290.358 143.098 289.62 143.098C289.014 143.098 288.468 143.005 287.982 142.818C287.497 142.631 287.096 142.375 286.778 142.048C286.47 141.712 286.265 141.325 286.162 140.886L287.436 140.41ZM298.862 143L298.75 141.978C298.535 142.333 298.255 142.608 297.91 142.804C297.574 142.991 297.135 143.084 296.594 143.084C296.09 143.084 295.661 143.005 295.306 142.846C294.951 142.678 294.676 142.449 294.48 142.16C294.293 141.861 294.2 141.516 294.2 141.124C294.2 140.536 294.419 140.051 294.858 139.668C295.297 139.276 295.931 139.033 296.762 138.94L298.75 138.716V138.17C298.75 137.871 298.629 137.619 298.386 137.414C298.143 137.199 297.793 137.092 297.336 137.092C296.907 137.092 296.543 137.195 296.244 137.4C295.945 137.596 295.745 137.89 295.642 138.282L294.466 137.862C294.643 137.246 294.989 136.765 295.502 136.42C296.025 136.075 296.655 135.902 297.392 135.902C298.269 135.902 298.937 136.121 299.394 136.56C299.851 136.999 300.08 137.577 300.08 138.296V143H298.862ZM298.75 139.794L296.832 140.032C296.421 140.088 296.113 140.205 295.908 140.382C295.703 140.55 295.6 140.774 295.6 141.054C295.6 141.315 295.698 141.535 295.894 141.712C296.099 141.88 296.384 141.964 296.748 141.964C297.196 141.964 297.569 141.88 297.868 141.712C298.167 141.544 298.386 141.311 298.526 141.012C298.675 140.704 298.75 140.349 298.75 139.948V139.794ZM302.731 136L304.747 141.586L306.777 136H308.177L305.447 143H304.019L301.303 136H302.731ZM309.718 136H311.048V143H309.718V136ZM310.39 134.768C310.138 134.768 309.928 134.684 309.76 134.516C309.592 134.348 309.508 134.143 309.508 133.9C309.508 133.648 309.592 133.438 309.76 133.27C309.928 133.093 310.138 133.004 310.39 133.004C310.633 133.004 310.838 133.093 311.006 133.27C311.183 133.438 311.272 133.648 311.272 133.9C311.272 134.143 311.183 134.348 311.006 134.516C310.838 134.684 310.633 134.768 310.39 134.768ZM313.254 136H314.458L314.542 136.812C314.766 136.523 315.051 136.299 315.396 136.14C315.741 135.981 316.124 135.902 316.544 135.902C317.085 135.902 317.552 136.019 317.944 136.252C318.345 136.476 318.653 136.812 318.868 137.26C319.092 137.708 319.204 138.268 319.204 138.94V143H317.888V139.108C317.888 138.455 317.748 137.96 317.468 137.624C317.197 137.279 316.801 137.106 316.278 137.106C315.737 137.106 315.317 137.283 315.018 137.638C314.719 137.983 314.57 138.497 314.57 139.178V143H313.254V136ZM326.352 136H327.556V141.852C327.556 142.673 327.36 143.378 326.968 143.966C326.576 144.554 326.011 145.007 325.274 145.324C324.546 145.641 323.664 145.8 322.628 145.8L322.418 144.638C323.668 144.61 324.616 144.358 325.26 143.882C325.904 143.415 326.226 142.739 326.226 141.852V141.782L326.38 141.796C326.156 142.151 325.834 142.459 325.414 142.72C325.003 142.972 324.49 143.098 323.874 143.098C323.248 143.098 322.693 142.949 322.208 142.65C321.732 142.351 321.358 141.931 321.088 141.39C320.826 140.849 320.696 140.219 320.696 139.5C320.696 138.781 320.826 138.151 321.088 137.61C321.358 137.069 321.732 136.649 322.208 136.35C322.693 136.051 323.248 135.902 323.874 135.902C324.256 135.902 324.597 135.953 324.896 136.056C325.204 136.159 325.47 136.299 325.694 136.476C325.918 136.644 326.104 136.835 326.254 137.05L326.352 136ZM322.11 139.5C322.11 140.219 322.296 140.797 322.67 141.236C323.052 141.675 323.561 141.894 324.196 141.894C324.569 141.894 324.91 141.801 325.218 141.614C325.526 141.418 325.768 141.143 325.946 140.788C326.132 140.424 326.226 139.995 326.226 139.5C326.226 138.996 326.132 138.567 325.946 138.212C325.768 137.857 325.521 137.587 325.204 137.4C324.896 137.204 324.56 137.106 324.196 137.106C323.561 137.106 323.052 137.325 322.67 137.764C322.296 138.203 322.11 138.781 322.11 139.5ZM330.335 140.788C330.4 141.068 330.512 141.287 330.671 141.446C330.83 141.605 331.016 141.721 331.231 141.796C331.455 141.861 331.688 141.894 331.931 141.894C332.351 141.894 332.678 141.81 332.911 141.642C333.144 141.474 333.261 141.264 333.261 141.012C333.261 140.797 333.186 140.629 333.037 140.508C332.897 140.377 332.706 140.275 332.463 140.2C332.23 140.125 331.978 140.055 331.707 139.99C331.464 139.925 331.198 139.85 330.909 139.766C330.629 139.682 330.363 139.57 330.111 139.43C329.868 139.281 329.668 139.094 329.509 138.87C329.35 138.637 329.271 138.343 329.271 137.988C329.271 137.568 329.383 137.204 329.607 136.896C329.84 136.579 330.158 136.336 330.559 136.168C330.97 135.991 331.432 135.902 331.945 135.902C332.542 135.902 333.065 136.033 333.513 136.294C333.97 136.546 334.302 136.929 334.507 137.442L333.317 137.834C333.252 137.657 333.144 137.512 332.995 137.4C332.846 137.288 332.673 137.213 332.477 137.176C332.29 137.129 332.104 137.106 331.917 137.106C331.562 137.106 331.268 137.176 331.035 137.316C330.802 137.456 330.685 137.661 330.685 137.932C330.685 138.081 330.722 138.207 330.797 138.31C330.872 138.403 330.974 138.483 331.105 138.548C331.245 138.604 331.408 138.655 331.595 138.702C331.782 138.749 331.982 138.8 332.197 138.856C332.477 138.94 332.762 139.033 333.051 139.136C333.34 139.229 333.606 139.351 333.849 139.5C334.092 139.649 334.288 139.845 334.437 140.088C334.586 140.331 334.666 140.629 334.675 140.984C334.675 141.395 334.558 141.759 334.325 142.076C334.101 142.393 333.779 142.645 333.359 142.832C332.948 143.009 332.458 143.098 331.889 143.098C331.198 143.098 330.61 142.944 330.125 142.636C329.64 142.328 329.313 141.852 329.145 141.208L330.335 140.788Z" fill="white"/>
</g>
<path d="M179.18 173.2V183H178.046L172.81 174.992V183H171.69V173.2H172.824L178.06 181.194V173.2H179.18ZM184.473 183.098C183.81 183.098 183.218 182.953 182.695 182.664C182.172 182.375 181.762 181.964 181.463 181.432C181.164 180.891 181.015 180.251 181.015 179.514C181.015 178.767 181.164 178.123 181.463 177.582C181.771 177.041 182.186 176.625 182.709 176.336C183.241 176.047 183.838 175.902 184.501 175.902C185.164 175.902 185.756 176.047 186.279 176.336C186.811 176.625 187.226 177.041 187.525 177.582C187.833 178.114 187.987 178.749 187.987 179.486C187.987 180.233 187.833 180.877 187.525 181.418C187.217 181.959 186.797 182.375 186.265 182.664C185.733 182.953 185.136 183.098 184.473 183.098ZM184.459 182.104C184.87 182.104 185.257 182.015 185.621 181.838C185.985 181.651 186.279 181.367 186.503 180.984C186.736 180.592 186.853 180.097 186.853 179.5C186.853 178.893 186.741 178.399 186.517 178.016C186.293 177.633 185.999 177.353 185.635 177.176C185.28 176.989 184.898 176.896 184.487 176.896C184.076 176.896 183.694 176.989 183.339 177.176C182.984 177.353 182.695 177.638 182.471 178.03C182.256 178.413 182.149 178.903 182.149 179.5C182.149 180.107 182.256 180.601 182.471 180.984C182.686 181.367 182.966 181.651 183.311 181.838C183.666 182.015 184.048 182.104 184.459 182.104ZM193.631 176H194.597L194.667 177.008C194.872 176.672 195.147 176.406 195.493 176.21C195.847 176.005 196.267 175.902 196.753 175.902C197.247 175.902 197.695 176.023 198.097 176.266C198.507 176.499 198.825 176.849 199.049 177.316C199.263 176.84 199.59 176.485 200.029 176.252C200.467 176.019 200.953 175.902 201.485 175.902C202.007 175.902 202.469 176.019 202.871 176.252C203.272 176.476 203.585 176.817 203.809 177.274C204.033 177.722 204.145 178.287 204.145 178.968V183H203.095V179.094C203.095 178.366 202.936 177.815 202.619 177.442C202.311 177.059 201.867 176.868 201.289 176.868C200.701 176.868 200.234 177.073 199.889 177.484C199.543 177.885 199.371 178.483 199.371 179.276V183H198.321V179.094C198.321 178.366 198.171 177.815 197.873 177.442C197.574 177.059 197.135 176.868 196.557 176.868C195.969 176.868 195.507 177.073 195.171 177.484C194.844 177.885 194.681 178.483 194.681 179.276V183H193.631V176ZM209.206 183.098C208.543 183.098 207.95 182.953 207.428 182.664C206.905 182.375 206.494 181.964 206.196 181.432C205.897 180.891 205.748 180.251 205.748 179.514C205.748 178.767 205.897 178.123 206.196 177.582C206.504 177.041 206.919 176.625 207.442 176.336C207.974 176.047 208.571 175.902 209.234 175.902C209.896 175.902 210.489 176.047 211.012 176.336C211.544 176.625 211.959 177.041 212.258 177.582C212.566 178.114 212.72 178.749 212.72 179.486C212.72 180.233 212.566 180.877 212.258 181.418C211.95 181.959 211.53 182.375 210.998 182.664C210.466 182.953 209.868 183.098 209.206 183.098ZM209.192 182.104C209.602 182.104 209.99 182.015 210.354 181.838C210.718 181.651 211.012 181.367 211.236 180.984C211.469 180.592 211.586 180.097 211.586 179.5C211.586 178.893 211.474 178.399 211.25 178.016C211.026 177.633 210.732 177.353 210.368 177.176C210.013 176.989 209.63 176.896 209.22 176.896C208.809 176.896 208.426 176.989 208.072 177.176C207.717 177.353 207.428 177.638 207.204 178.03C206.989 178.413 206.882 178.903 206.882 179.5C206.882 180.107 206.989 180.601 207.204 180.984C207.418 181.367 207.698 181.651 208.044 181.838C208.398 182.015 208.781 182.104 209.192 182.104ZM214.439 176H215.405L215.461 177.022C215.648 176.77 215.872 176.555 216.133 176.378C216.404 176.201 216.698 176.079 217.015 176.014C217.342 175.939 217.687 175.935 218.051 176V177.05C217.659 176.975 217.305 176.975 216.987 177.05C216.679 177.125 216.413 177.265 216.189 177.47C215.965 177.675 215.793 177.937 215.671 178.254C215.55 178.562 215.489 178.921 215.489 179.332V183H214.439V176ZM222.424 183.098C221.771 183.098 221.188 182.939 220.674 182.622C220.17 182.305 219.774 181.871 219.484 181.32C219.195 180.769 219.05 180.139 219.05 179.43C219.05 178.749 219.195 178.142 219.484 177.61C219.774 177.078 220.17 176.663 220.674 176.364C221.178 176.056 221.752 175.902 222.396 175.902C223.031 175.902 223.596 176.042 224.09 176.322C224.594 176.602 224.986 176.989 225.266 177.484C225.546 177.979 225.677 178.543 225.658 179.178C225.658 179.281 225.654 179.388 225.644 179.5C225.635 179.612 225.626 179.733 225.616 179.864H220.198C220.217 180.303 220.324 180.69 220.52 181.026C220.716 181.362 220.973 181.628 221.29 181.824C221.617 182.011 221.986 182.104 222.396 182.104C222.938 182.104 223.395 182.001 223.768 181.796C224.151 181.591 224.426 181.297 224.594 180.914L225.504 181.278C225.224 181.866 224.818 182.319 224.286 182.636C223.754 182.944 223.134 183.098 222.424 183.098ZM224.51 178.954C224.52 178.553 224.431 178.198 224.244 177.89C224.067 177.582 223.815 177.339 223.488 177.162C223.162 176.985 222.784 176.896 222.354 176.896C221.981 176.896 221.64 176.985 221.332 177.162C221.024 177.339 220.768 177.587 220.562 177.904C220.366 178.212 220.25 178.562 220.212 178.954H224.51ZM231.31 176H232.276L232.346 177.008C232.552 176.672 232.827 176.406 233.172 176.21C233.527 176.005 233.947 175.902 234.432 175.902C234.927 175.902 235.375 176.023 235.776 176.266C236.187 176.499 236.504 176.849 236.728 177.316C236.943 176.84 237.27 176.485 237.708 176.252C238.147 176.019 238.632 175.902 239.164 175.902C239.687 175.902 240.149 176.019 240.55 176.252C240.952 176.476 241.264 176.817 241.488 177.274C241.712 177.722 241.824 178.287 241.824 178.968V183H240.774V179.094C240.774 178.366 240.616 177.815 240.298 177.442C239.99 177.059 239.547 176.868 238.968 176.868C238.38 176.868 237.914 177.073 237.568 177.484C237.223 177.885 237.05 178.483 237.05 179.276V183H236V179.094C236 178.366 235.851 177.815 235.552 177.442C235.254 177.059 234.815 176.868 234.236 176.868C233.648 176.868 233.186 177.073 232.85 177.484C232.524 177.885 232.36 178.483 232.36 179.276V183H231.31V176ZM244.071 176H245.107V183H244.071V176ZM244.603 174.6C244.389 174.6 244.211 174.53 244.071 174.39C243.931 174.25 243.861 174.077 243.861 173.872C243.861 173.657 243.931 173.48 244.071 173.34C244.211 173.2 244.389 173.13 244.603 173.13C244.799 173.13 244.967 173.2 245.107 173.34C245.257 173.48 245.331 173.657 245.331 173.872C245.331 174.077 245.257 174.25 245.107 174.39C244.967 174.53 244.799 174.6 244.603 174.6ZM248.045 180.858C248.101 181.138 248.203 181.371 248.353 181.558C248.502 181.735 248.693 181.871 248.927 181.964C249.169 182.057 249.449 182.104 249.767 182.104C250.261 182.104 250.635 182.011 250.887 181.824C251.148 181.628 251.279 181.385 251.279 181.096C251.279 180.853 251.199 180.657 251.041 180.508C250.891 180.359 250.691 180.237 250.439 180.144C250.187 180.041 249.907 179.953 249.599 179.878C249.356 179.822 249.095 179.757 248.815 179.682C248.535 179.598 248.269 179.486 248.017 179.346C247.765 179.206 247.559 179.024 247.401 178.8C247.242 178.576 247.163 178.282 247.163 177.918C247.163 177.517 247.27 177.167 247.485 176.868C247.709 176.56 248.012 176.322 248.395 176.154C248.787 175.986 249.235 175.902 249.739 175.902C250.317 175.902 250.831 176.028 251.279 176.28C251.736 176.532 252.053 176.924 252.231 177.456L251.251 177.792C251.185 177.549 251.064 177.363 250.887 177.232C250.719 177.101 250.527 177.013 250.313 176.966C250.107 176.919 249.902 176.896 249.697 176.896C249.277 176.896 248.936 176.98 248.675 177.148C248.423 177.307 248.297 177.549 248.297 177.876C248.297 178.053 248.339 178.203 248.423 178.324C248.507 178.436 248.623 178.529 248.773 178.604C248.922 178.679 249.099 178.744 249.305 178.8C249.51 178.847 249.734 178.903 249.977 178.968C250.247 179.033 250.523 179.117 250.803 179.22C251.083 179.313 251.344 179.439 251.587 179.598C251.829 179.747 252.025 179.943 252.175 180.186C252.333 180.419 252.413 180.713 252.413 181.068C252.413 181.479 252.301 181.838 252.077 182.146C251.853 182.445 251.54 182.678 251.139 182.846C250.747 183.014 250.289 183.098 249.767 183.098C249.048 183.098 248.451 182.939 247.975 182.622C247.508 182.295 247.195 181.819 247.037 181.194L248.045 180.858ZM254.689 180.858C254.745 181.138 254.848 181.371 254.997 181.558C255.146 181.735 255.338 181.871 255.571 181.964C255.814 182.057 256.094 182.104 256.411 182.104C256.906 182.104 257.279 182.011 257.531 181.824C257.792 181.628 257.923 181.385 257.923 181.096C257.923 180.853 257.844 180.657 257.685 180.508C257.536 180.359 257.335 180.237 257.083 180.144C256.831 180.041 256.551 179.953 256.243 179.878C256 179.822 255.739 179.757 255.459 179.682C255.179 179.598 254.913 179.486 254.661 179.346C254.409 179.206 254.204 179.024 254.045 178.8C253.886 178.576 253.807 178.282 253.807 177.918C253.807 177.517 253.914 177.167 254.129 176.868C254.353 176.56 254.656 176.322 255.039 176.154C255.431 175.986 255.879 175.902 256.383 175.902C256.962 175.902 257.475 176.028 257.923 176.28C258.38 176.532 258.698 176.924 258.875 177.456L257.895 177.792C257.83 177.549 257.708 177.363 257.531 177.232C257.363 177.101 257.172 177.013 256.957 176.966C256.752 176.919 256.546 176.896 256.341 176.896C255.921 176.896 255.58 176.98 255.319 177.148C255.067 177.307 254.941 177.549 254.941 177.876C254.941 178.053 254.983 178.203 255.067 178.324C255.151 178.436 255.268 178.529 255.417 178.604C255.566 178.679 255.744 178.744 255.949 178.8C256.154 178.847 256.378 178.903 256.621 178.968C256.892 179.033 257.167 179.117 257.447 179.22C257.727 179.313 257.988 179.439 258.231 179.598C258.474 179.747 258.67 179.943 258.819 180.186C258.978 180.419 259.057 180.713 259.057 181.068C259.057 181.479 258.945 181.838 258.721 182.146C258.497 182.445 258.184 182.678 257.783 182.846C257.391 183.014 256.934 183.098 256.411 183.098C255.692 183.098 255.095 182.939 254.619 182.622C254.152 182.295 253.84 181.819 253.681 181.194L254.689 180.858ZM263.7 183.098C263.046 183.098 262.463 182.939 261.95 182.622C261.446 182.305 261.049 181.871 260.76 181.32C260.47 180.769 260.326 180.139 260.326 179.43C260.326 178.749 260.47 178.142 260.76 177.61C261.049 177.078 261.446 176.663 261.95 176.364C262.454 176.056 263.028 175.902 263.672 175.902C264.306 175.902 264.871 176.042 265.366 176.322C265.87 176.602 266.262 176.989 266.542 177.484C266.822 177.979 266.952 178.543 266.934 179.178C266.934 179.281 266.929 179.388 266.92 179.5C266.91 179.612 266.901 179.733 266.892 179.864H261.474C261.492 180.303 261.6 180.69 261.796 181.026C261.992 181.362 262.248 181.628 262.566 181.824C262.892 182.011 263.261 182.104 263.672 182.104C264.213 182.104 264.67 182.001 265.044 181.796C265.426 181.591 265.702 181.297 265.87 180.914L266.78 181.278C266.5 181.866 266.094 182.319 265.562 182.636C265.03 182.944 264.409 183.098 263.7 183.098ZM265.786 178.954C265.795 178.553 265.706 178.198 265.52 177.89C265.342 177.582 265.09 177.339 264.764 177.162C264.437 176.985 264.059 176.896 263.63 176.896C263.256 176.896 262.916 176.985 262.608 177.162C262.3 177.339 262.043 177.587 261.838 177.904C261.642 178.212 261.525 178.562 261.488 178.954H265.786ZM274.066 177.414L273.954 177.428V172.92H275.004V183H274.038L273.968 181.698C273.753 182.09 273.431 182.421 273.002 182.692C272.582 182.963 272.059 183.098 271.434 183.098C270.79 183.098 270.225 182.953 269.74 182.664C269.264 182.365 268.891 181.945 268.62 181.404C268.359 180.863 268.228 180.228 268.228 179.5C268.228 178.772 268.359 178.142 268.62 177.61C268.891 177.069 269.264 176.649 269.74 176.35C270.225 176.051 270.79 175.902 271.434 175.902C272.097 175.902 272.647 176.047 273.086 176.336C273.525 176.625 273.851 176.985 274.066 177.414ZM269.362 179.5C269.362 180.303 269.567 180.942 269.978 181.418C270.389 181.885 270.949 182.118 271.658 182.118C272.097 182.118 272.489 182.015 272.834 181.81C273.179 181.605 273.45 181.306 273.646 180.914C273.851 180.522 273.954 180.051 273.954 179.5C273.954 178.949 273.851 178.483 273.646 178.1C273.45 177.708 273.179 177.409 272.834 177.204C272.489 176.989 272.097 176.882 271.658 176.882C270.958 176.882 270.398 177.12 269.978 177.596C269.567 178.063 269.362 178.697 269.362 179.5ZM284.1 183.098C283.437 183.098 282.845 182.953 282.322 182.664C281.799 182.375 281.389 181.964 281.09 181.432C280.791 180.891 280.642 180.251 280.642 179.514C280.642 178.767 280.791 178.123 281.09 177.582C281.398 177.041 281.813 176.625 282.336 176.336C282.868 176.047 283.465 175.902 284.128 175.902C284.791 175.902 285.383 176.047 285.906 176.336C286.438 176.625 286.853 177.041 287.152 177.582C287.46 178.114 287.614 178.749 287.614 179.486C287.614 180.233 287.46 180.877 287.152 181.418C286.844 181.959 286.424 182.375 285.892 182.664C285.36 182.953 284.763 183.098 284.1 183.098ZM284.086 182.104C284.497 182.104 284.884 182.015 285.248 181.838C285.612 181.651 285.906 181.367 286.13 180.984C286.363 180.592 286.48 180.097 286.48 179.5C286.48 178.893 286.368 178.399 286.144 178.016C285.92 177.633 285.626 177.353 285.262 177.176C284.907 176.989 284.525 176.896 284.114 176.896C283.703 176.896 283.321 176.989 282.966 177.176C282.611 177.353 282.322 177.638 282.098 178.03C281.883 178.413 281.776 178.903 281.776 179.5C281.776 180.107 281.883 180.601 282.098 180.984C282.313 181.367 282.593 181.651 282.938 181.838C283.293 182.015 283.675 182.104 284.086 182.104ZM290.272 181.586L290.384 181.572V185.8H289.334V176H290.3L290.37 177.302C290.585 176.91 290.902 176.579 291.322 176.308C291.742 176.037 292.269 175.902 292.904 175.902C293.511 175.902 294.057 176.051 294.542 176.35C295.027 176.639 295.41 177.055 295.69 177.596C295.97 178.128 296.11 178.763 296.11 179.5C296.11 180.228 295.975 180.863 295.704 181.404C295.443 181.936 295.069 182.351 294.584 182.65C294.108 182.949 293.548 183.098 292.904 183.098C292.232 183.098 291.677 182.953 291.238 182.664C290.799 182.375 290.477 182.015 290.272 181.586ZM294.976 179.5C294.976 178.697 294.766 178.063 294.346 177.596C293.935 177.12 293.38 176.882 292.68 176.882C292.241 176.882 291.845 176.985 291.49 177.19C291.145 177.395 290.874 177.694 290.678 178.086C290.482 178.478 290.384 178.949 290.384 179.5C290.384 180.041 290.482 180.508 290.678 180.9C290.874 181.292 291.145 181.595 291.49 181.81C291.845 182.015 292.241 182.118 292.68 182.118C293.38 182.118 293.935 181.885 294.346 181.418C294.766 180.942 294.976 180.303 294.976 179.5ZM298.762 181.586L298.874 181.572V185.8H297.824V176H298.79L298.86 177.302C299.075 176.91 299.392 176.579 299.812 176.308C300.232 176.037 300.759 175.902 301.394 175.902C302.001 175.902 302.547 176.051 303.032 176.35C303.517 176.639 303.9 177.055 304.18 177.596C304.46 178.128 304.6 178.763 304.6 179.5C304.6 180.228 304.465 180.863 304.194 181.404C303.933 181.936 303.559 182.351 303.074 182.65C302.598 182.949 302.038 183.098 301.394 183.098C300.722 183.098 300.167 182.953 299.728 182.664C299.289 182.375 298.967 182.015 298.762 181.586ZM303.466 179.5C303.466 178.697 303.256 178.063 302.836 177.596C302.425 177.12 301.87 176.882 301.17 176.882C300.731 176.882 300.335 176.985 299.98 177.19C299.635 177.395 299.364 177.694 299.168 178.086C298.972 178.478 298.874 178.949 298.874 179.5C298.874 180.041 298.972 180.508 299.168 180.9C299.364 181.292 299.635 181.595 299.98 181.81C300.335 182.015 300.731 182.118 301.17 182.118C301.87 182.118 302.425 181.885 302.836 181.418C303.256 180.942 303.466 180.303 303.466 179.5ZM309.338 183.098C308.676 183.098 308.083 182.953 307.56 182.664C307.038 182.375 306.627 181.964 306.328 181.432C306.03 180.891 305.88 180.251 305.88 179.514C305.88 178.767 306.03 178.123 306.328 177.582C306.636 177.041 307.052 176.625 307.574 176.336C308.106 176.047 308.704 175.902 309.366 175.902C310.029 175.902 310.622 176.047 311.144 176.336C311.676 176.625 312.092 177.041 312.39 177.582C312.698 178.114 312.852 178.749 312.852 179.486C312.852 180.233 312.698 180.877 312.39 181.418C312.082 181.959 311.662 182.375 311.13 182.664C310.598 182.953 310.001 183.098 309.338 183.098ZM309.324 182.104C309.735 182.104 310.122 182.015 310.486 181.838C310.85 181.651 311.144 181.367 311.368 180.984C311.602 180.592 311.718 180.097 311.718 179.5C311.718 178.893 311.606 178.399 311.382 178.016C311.158 177.633 310.864 177.353 310.5 177.176C310.146 176.989 309.763 176.896 309.352 176.896C308.942 176.896 308.559 176.989 308.204 177.176C307.85 177.353 307.56 177.638 307.336 178.03C307.122 178.413 307.014 178.903 307.014 179.5C307.014 180.107 307.122 180.601 307.336 180.984C307.551 181.367 307.831 181.651 308.176 181.838C308.531 182.015 308.914 182.104 309.324 182.104ZM314.572 176H315.538L315.594 177.022C315.781 176.77 316.005 176.555 316.266 176.378C316.537 176.201 316.831 176.079 317.148 176.014C317.475 175.939 317.82 175.935 318.184 176V177.05C317.792 176.975 317.437 176.975 317.12 177.05C316.812 177.125 316.546 177.265 316.322 177.47C316.098 177.675 315.925 177.937 315.804 178.254C315.683 178.562 315.622 178.921 315.622 179.332V183H314.572V176ZM320.065 176V174.04H321.115V176H322.977V176.98H321.115V180.746C321.115 181.175 321.204 181.488 321.381 181.684C321.568 181.88 321.801 181.997 322.081 182.034C322.37 182.071 322.669 182.071 322.977 182.034V182.944C322.613 183.028 322.254 183.051 321.899 183.014C321.554 182.977 321.241 182.874 320.961 182.706C320.69 182.529 320.471 182.281 320.303 181.964C320.144 181.647 320.065 181.241 320.065 180.746V176.98H319.015V176H320.065ZM330.265 183H329.313L329.243 181.992C329.028 182.347 328.739 182.622 328.375 182.818C328.011 183.005 327.586 183.098 327.101 183.098C326.56 183.098 326.088 182.986 325.687 182.762C325.286 182.538 324.973 182.202 324.749 181.754C324.534 181.306 324.427 180.741 324.427 180.06V176H325.463V179.948C325.463 180.667 325.617 181.213 325.925 181.586C326.242 181.95 326.695 182.132 327.283 182.132C327.88 182.132 328.352 181.941 328.697 181.558C329.052 181.166 329.229 180.578 329.229 179.794V176H330.265V183ZM332.4 176H333.366L333.422 176.994C333.646 176.649 333.94 176.383 334.304 176.196C334.668 176 335.093 175.902 335.578 175.902C336.11 175.902 336.577 176.019 336.978 176.252C337.38 176.476 337.692 176.817 337.916 177.274C338.14 177.722 338.252 178.287 338.252 178.968V183H337.202V179.094C337.202 178.366 337.044 177.815 336.726 177.442C336.418 177.059 335.97 176.868 335.382 176.868C334.776 176.868 334.3 177.069 333.954 177.47C333.618 177.871 333.45 178.464 333.45 179.248V183H332.4V176ZM340.499 176H341.535V183H340.499V176ZM341.031 174.6C340.816 174.6 340.639 174.53 340.499 174.39C340.359 174.25 340.289 174.077 340.289 173.872C340.289 173.657 340.359 173.48 340.499 173.34C340.639 173.2 340.816 173.13 341.031 173.13C341.227 173.13 341.395 173.2 341.535 173.34C341.684 173.48 341.759 173.657 341.759 173.872C341.759 174.077 341.684 174.25 341.535 174.39C341.395 174.53 341.227 174.6 341.031 174.6ZM344.346 176V174.04H345.396V176H347.258V176.98H345.396V180.746C345.396 181.175 345.485 181.488 345.662 181.684C345.849 181.88 346.082 181.997 346.362 182.034C346.652 182.071 346.95 182.071 347.258 182.034V182.944C346.894 183.028 346.535 183.051 346.18 183.014C345.835 182.977 345.522 182.874 345.242 182.706C344.972 182.529 344.752 182.281 344.584 181.964C344.426 181.647 344.346 181.241 344.346 180.746V176.98H343.296V176H344.346ZM349.03 176H350.066V183H349.03V176ZM349.562 174.6C349.348 174.6 349.17 174.53 349.03 174.39C348.89 174.25 348.82 174.077 348.82 173.872C348.82 173.657 348.89 173.48 349.03 173.34C349.17 173.2 349.348 173.13 349.562 173.13C349.758 173.13 349.926 173.2 350.066 173.34C350.216 173.48 350.29 173.657 350.29 173.872C350.29 174.077 350.216 174.25 350.066 174.39C349.926 174.53 349.758 174.6 349.562 174.6ZM355.37 183.098C354.716 183.098 354.133 182.939 353.62 182.622C353.116 182.305 352.719 181.871 352.43 181.32C352.14 180.769 351.996 180.139 351.996 179.43C351.996 178.749 352.14 178.142 352.43 177.61C352.719 177.078 353.116 176.663 353.62 176.364C354.124 176.056 354.698 175.902 355.342 175.902C355.976 175.902 356.541 176.042 357.036 176.322C357.54 176.602 357.932 176.989 358.212 177.484C358.492 177.979 358.622 178.543 358.604 179.178C358.604 179.281 358.599 179.388 358.59 179.5C358.58 179.612 358.571 179.733 358.562 179.864H353.144C353.162 180.303 353.27 180.69 353.466 181.026C353.662 181.362 353.918 181.628 354.236 181.824C354.562 182.011 354.931 182.104 355.342 182.104C355.883 182.104 356.34 182.001 356.714 181.796C357.096 181.591 357.372 181.297 357.54 180.914L358.45 181.278C358.17 181.866 357.764 182.319 357.232 182.636C356.7 182.944 356.079 183.098 355.37 183.098ZM357.456 178.954C357.465 178.553 357.376 178.198 357.19 177.89C357.012 177.582 356.76 177.339 356.434 177.162C356.107 176.985 355.729 176.896 355.3 176.896C354.926 176.896 354.586 176.985 354.278 177.162C353.97 177.339 353.713 177.587 353.508 177.904C353.312 178.212 353.195 178.562 353.158 178.954H357.456ZM360.906 180.858C360.962 181.138 361.065 181.371 361.214 181.558C361.363 181.735 361.555 181.871 361.788 181.964C362.031 182.057 362.311 182.104 362.628 182.104C363.123 182.104 363.496 182.011 363.748 181.824C364.009 181.628 364.14 181.385 364.14 181.096C364.14 180.853 364.061 180.657 363.902 180.508C363.753 180.359 363.552 180.237 363.3 180.144C363.048 180.041 362.768 179.953 362.46 179.878C362.217 179.822 361.956 179.757 361.676 179.682C361.396 179.598 361.13 179.486 360.878 179.346C360.626 179.206 360.421 179.024 360.262 178.8C360.103 178.576 360.024 178.282 360.024 177.918C360.024 177.517 360.131 177.167 360.346 176.868C360.57 176.56 360.873 176.322 361.256 176.154C361.648 175.986 362.096 175.902 362.6 175.902C363.179 175.902 363.692 176.028 364.14 176.28C364.597 176.532 364.915 176.924 365.092 177.456L364.112 177.792C364.047 177.549 363.925 177.363 363.748 177.232C363.58 177.101 363.389 177.013 363.174 176.966C362.969 176.919 362.763 176.896 362.558 176.896C362.138 176.896 361.797 176.98 361.536 177.148C361.284 177.307 361.158 177.549 361.158 177.876C361.158 178.053 361.2 178.203 361.284 178.324C361.368 178.436 361.485 178.529 361.634 178.604C361.783 178.679 361.961 178.744 362.166 178.8C362.371 178.847 362.595 178.903 362.838 178.968C363.109 179.033 363.384 179.117 363.664 179.22C363.944 179.313 364.205 179.439 364.448 179.598C364.691 179.747 364.887 179.943 365.036 180.186C365.195 180.419 365.274 180.713 365.274 181.068C365.274 181.479 365.162 181.838 364.938 182.146C364.714 182.445 364.401 182.678 364 182.846C363.608 183.014 363.151 183.098 362.628 183.098C361.909 183.098 361.312 182.939 360.836 182.622C360.369 182.295 360.057 181.819 359.898 181.194L360.906 180.858ZM367.55 183.07C367.336 183.07 367.154 182.995 367.004 182.846C366.864 182.697 366.794 182.515 366.794 182.3C366.794 182.085 366.864 181.903 367.004 181.754C367.154 181.605 367.336 181.53 367.55 181.53C367.756 181.53 367.933 181.605 368.082 181.754C368.232 181.903 368.306 182.085 368.306 182.3C368.306 182.515 368.232 182.697 368.082 182.846C367.933 182.995 367.756 183.07 367.55 183.07Z" fill="#4B5563"/>
</g>
<g filter="url(#filter8_dd_5453_70891)">
<g filter="url(#filter9_dd_5453_70891)">
<path d="M406.727 136.912C406.696 136.483 406.785 136.055 406.984 135.674C407.183 135.294 407.484 134.976 407.853 134.757C408.223 134.538 408.646 134.426 409.075 134.433C409.505 134.441 409.923 134.568 410.285 134.8L429.73 147.314C431.598 148.515 430.86 151.406 428.646 151.565L419.542 152.222C419.189 152.247 418.846 152.353 418.54 152.532C418.234 152.711 417.973 152.958 417.778 153.253L412.625 161.079C411.411 162.924 408.547 162.177 408.388 159.972L406.727 136.912Z" fill="#27272A"/>
<path d="M406.727 136.912C406.696 136.483 406.785 136.055 406.984 135.674C407.183 135.294 407.484 134.976 407.853 134.757C408.223 134.538 408.646 134.426 409.075 134.433C409.505 134.441 409.923 134.568 410.285 134.8L429.73 147.314C431.598 148.515 430.86 151.406 428.646 151.565L419.542 152.222C419.189 152.247 418.846 152.353 418.54 152.532C418.234 152.711 417.973 152.958 417.778 153.253L412.625 161.079C411.411 162.924 408.547 162.177 408.388 159.972L406.727 136.912Z" stroke="#FAFAFA"/>
</g>
</g>
</g>
<defs>
<filter id="filter0_dd_5453_70891" x="121" y="222" width="299" height="80" filterUnits="userSpaceOnUse" color-interpolation-filters="sRGB">
<feFlood flood-opacity="0" result="BackgroundImageFix"/>
<feColorMatrix in="SourceAlpha" type="matrix" values="0 0 0 0 0 0 0 0 0 0 0 0 0 0 0 0 0 0 127 0" result="hardAlpha"/>
<feMorphology radius="4" operator="erode" in="SourceAlpha" result="effect1_dropShadow_5453_70891"/>
<feOffset dy="18"/>
<feGaussianBlur stdDeviation="8"/>
<feComposite in2="hardAlpha" operator="out"/>
<feColorMatrix type="matrix" values="0 0 0 0 0.0588235 0 0 0 0 0.141176 0 0 0 0 0.0666667 0 0 0 0.01 0"/>
<feBlend mode="normal" in2="BackgroundImageFix" result="effect1_dropShadow_5453_70891"/>
<feColorMatrix in="SourceAlpha" type="matrix" values="0 0 0 0 0 0 0 0 0 0 0 0 0 0 0 0 0 0 127 0" result="hardAlpha"/>
<feMorphology radius="4" operator="erode" in="SourceAlpha" result="effect2_dropShadow_5453_70891"/>
<feOffset dy="15"/>
<feGaussianBlur stdDeviation="10"/>
<feComposite in2="hardAlpha" operator="out"/>
<feColorMatrix type="matrix" values="0 0 0 0 0.0627451 0 0 0 0 0.0588235 0 0 0 0 0.141176 0 0 0 0.02 0"/>
<feBlend mode="normal" in2="effect1_dropShadow_5453_70891" result="effect2_dropShadow_5453_70891"/>
<feBlend mode="normal" in="SourceGraphic" in2="effect2_dropShadow_5453_70891" result="shape"/>
</filter>
<filter id="filter1_dd_5453_70891" x="135" y="25" width="272" height="80" filterUnits="userSpaceOnUse" color-interpolation-filters="sRGB">
<feFlood flood-opacity="0" result="BackgroundImageFix"/>
<feColorMatrix in="SourceAlpha" type="matrix" values="0 0 0 0 0 0 0 0 0 0 0 0 0 0 0 0 0 0 127 0" result="hardAlpha"/>
<feMorphology radius="4" operator="erode" in="SourceAlpha" result="effect1_dropShadow_5453_70891"/>
<feOffset dy="18"/>
<feGaussianBlur stdDeviation="8"/>
<feComposite in2="hardAlpha" operator="out"/>
<feColorMatrix type="matrix" values="0 0 0 0 0.0588235 0 0 0 0 0.141176 0 0 0 0 0.0666667 0 0 0 0.01 0"/>
<feBlend mode="normal" in2="BackgroundImageFix" result="effect1_dropShadow_5453_70891"/>
<feColorMatrix in="SourceAlpha" type="matrix" values="0 0 0 0 0 0 0 0 0 0 0 0 0 0 0 0 0 0 127 0" result="hardAlpha"/>
<feMorphology radius="4" operator="erode" in="SourceAlpha" result="effect2_dropShadow_5453_70891"/>
<feOffset dy="15"/>
<feGaussianBlur stdDeviation="10"/>
<feComposite in2="hardAlpha" operator="out"/>
<feColorMatrix type="matrix" values="0 0 0 0 0.0627451 0 0 0 0 0.0588235 0 0 0 0 0.141176 0 0 0 0.02 0"/>
<feBlend mode="normal" in2="effect1_dropShadow_5453_70891" result="effect2_dropShadow_5453_70891"/>
<feBlend mode="normal" in="SourceGraphic" in2="effect2_dropShadow_5453_70891" result="shape"/>
</filter>
<filter id="filter2_dd_5453_70891" x="361" y="2" width="72.9883" height="72.9902" filterUnits="userSpaceOnUse" color-interpolation-filters="sRGB">
<feFlood flood-opacity="0" result="BackgroundImageFix"/>
<feColorMatrix in="SourceAlpha" type="matrix" values="0 0 0 0 0 0 0 0 0 0 0 0 0 0 0 0 0 0 127 0" result="hardAlpha"/>
<feMorphology radius="2" operator="erode" in="SourceAlpha" result="effect1_dropShadow_5453_70891"/>
<feOffset dy="4"/>
<feGaussianBlur stdDeviation="3"/>
<feComposite in2="hardAlpha" operator="out"/>
<feColorMatrix type="matrix" values="0 0 0 0 0.0627451 0 0 0 0 0.0588235 0 0 0 0 0.141176 0 0 0 0.03 0"/>
<feBlend mode="normal" in2="BackgroundImageFix" result="effect1_dropShadow_5453_70891"/>
<feColorMatrix in="SourceAlpha" type="matrix" values="0 0 0 0 0 0 0 0 0 0 0 0 0 0 0 0 0 0 127 0" result="hardAlpha"/>
<feMorphology radius="4" operator="erode" in="SourceAlpha" result="effect2_dropShadow_5453_70891"/>
<feOffset dy="12"/>
<feGaussianBlur stdDeviation="8"/>
<feComposite in2="hardAlpha" operator="out"/>
<feColorMatrix type="matrix" values="0 0 0 0 0.0627451 0 0 0 0 0.0588235 0 0 0 0 0.141176 0 0 0 0.08 0"/>
<feBlend mode="normal" in2="effect1_dropShadow_5453_70891" result="effect2_dropShadow_5453_70891"/>
<feBlend mode="normal" in="SourceGraphic" in2="effect2_dropShadow_5453_70891" result="shape"/>
</filter>
<filter id="filter3_dd_5453_70891" x="108" y="247" width="63.1914" height="63.1914" filterUnits="userSpaceOnUse" color-interpolation-filters="sRGB">
<feFlood flood-opacity="0" result="BackgroundImageFix"/>
<feColorMatrix in="SourceAlpha" type="matrix" values="0 0 0 0 0 0 0 0 0 0 0 0 0 0 0 0 0 0 127 0" result="hardAlpha"/>
<feMorphology radius="2" operator="erode" in="SourceAlpha" result="effect1_dropShadow_5453_70891"/>
<feOffset dy="4"/>
<feGaussianBlur stdDeviation="3"/>
<feComposite in2="hardAlpha" operator="out"/>
<feColorMatrix type="matrix" values="0 0 0 0 0.0627451 0 0 0 0 0.0588235 0 0 0 0 0.141176 0 0 0 0.03 0"/>
<feBlend mode="normal" in2="BackgroundImageFix" result="effect1_dropShadow_5453_70891"/>
<feColorMatrix in="SourceAlpha" type="matrix" values="0 0 0 0 0 0 0 0 0 0 0 0 0 0 0 0 0 0 127 0" result="hardAlpha"/>
<feMorphology radius="4" operator="erode" in="SourceAlpha" result="effect2_dropShadow_5453_70891"/>
<feOffset dy="12"/>
<feGaussianBlur stdDeviation="8"/>
<feComposite in2="hardAlpha" operator="out"/>
<feColorMatrix type="matrix" values="0 0 0 0 0.0627451 0 0 0 0 0.0588235 0 0 0 0 0.141176 0 0 0 0.08 0"/>
<feBlend mode="normal" in2="effect1_dropShadow_5453_70891" result="effect2_dropShadow_5453_70891"/>
<feBlend mode="normal" in="SourceGraphic" in2="effect2_dropShadow_5453_70891" result="shape"/>
</filter>
<filter id="filter4_f_5453_70891" x="258.629" y="34.6406" width="647.668" height="621.398" filterUnits="userSpaceOnUse" color-interpolation-filters="sRGB">
<feFlood flood-opacity="0" result="BackgroundImageFix"/>
<feBlend mode="normal" in="SourceGraphic" in2="BackgroundImageFix" result="shape"/>
<feGaussianBlur stdDeviation="100" result="effect1_foregroundBlur_5453_70891"/>
</filter>
<filter id="filter5_f_5453_70891" x="-304.367" y="-74.1367" width="542.805" height="542.166" filterUnits="userSpaceOnUse" color-interpolation-filters="sRGB">
<feFlood flood-opacity="0" result="BackgroundImageFix"/>
<feBlend mode="normal" in="SourceGraphic" in2="BackgroundImageFix" result="shape"/>
<feGaussianBlur stdDeviation="85" result="effect1_foregroundBlur_5453_70891"/>
</filter>
<filter id="filter6_dd_5453_70891" x="42" y="80" width="456" height="166" filterUnits="userSpaceOnUse" color-interpolation-filters="sRGB">
<feFlood flood-opacity="0" result="BackgroundImageFix"/>
<feColorMatrix in="SourceAlpha" type="matrix" values="0 0 0 0 0 0 0 0 0 0 0 0 0 0 0 0 0 0 127 0" result="hardAlpha"/>
<feMorphology radius="4" operator="erode" in="SourceAlpha" result="effect1_dropShadow_5453_70891"/>
<feOffset dy="4"/>
<feGaussianBlur stdDeviation="8"/>
<feComposite in2="hardAlpha" operator="out"/>
<feColorMatrix type="matrix" values="0 0 0 0 0.0588235 0 0 0 0 0.141176 0 0 0 0 0.0666667 0 0 0 0.02 0"/>
<feBlend mode="normal" in2="BackgroundImageFix" result="effect1_dropShadow_5453_70891"/>
<feColorMatrix in="SourceAlpha" type="matrix" values="0 0 0 0 0 0 0 0 0 0 0 0 0 0 0 0 0 0 127 0" result="hardAlpha"/>
<feMorphology radius="4" operator="erode" in="SourceAlpha" result="effect2_dropShadow_5453_70891"/>
<feOffset dy="10"/>
<feGaussianBlur stdDeviation="16"/>
<feComposite in2="hardAlpha" operator="out"/>
<feColorMatrix type="matrix" values="0 0 0 0 0.0627451 0 0 0 0 0.0588235 0 0 0 0 0.141176 0 0 0 0.05 0"/>
<feBlend mode="normal" in2="effect1_dropShadow_5453_70891" result="effect2_dropShadow_5453_70891"/>
<feBlend mode="normal" in="SourceGraphic" in2="effect2_dropShadow_5453_70891" result="shape"/>
</filter>
<filter id="filter7_i_5453_70891" x="94" y="118" width="352" height="44" filterUnits="userSpaceOnUse" color-interpolation-filters="sRGB">
<feFlood flood-opacity="0" result="BackgroundImageFix"/>
<feBlend mode="normal" in="SourceGraphic" in2="BackgroundImageFix" result="shape"/>
<feColorMatrix in="SourceAlpha" type="matrix" values="0 0 0 0 0 0 0 0 0 0 0 0 0 0 0 0 0 0 127 0" result="hardAlpha"/>
<feOffset dy="4"/>
<feGaussianBlur stdDeviation="6"/>
<feComposite in2="hardAlpha" operator="arithmetic" k2="-1" k3="1"/>
<feColorMatrix type="matrix" values="0 0 0 0 0.626803 0 0 0 0 0.756315 0 0 0 0 0.998197 0 0 0 0.5 0"/>
<feBlend mode="normal" in2="shape" result="effect1_innerShadow_5453_70891"/>
</filter>
<filter id="filter8_dd_5453_70891" x="391" y="126" width="51.5664" height="51.5664" filterUnits="userSpaceOnUse" color-interpolation-filters="sRGB">
<feFlood flood-opacity="0" result="BackgroundImageFix"/>
<feColorMatrix in="SourceAlpha" type="matrix" values="0 0 0 0 0 0 0 0 0 0 0 0 0 0 0 0 0 0 127 0" result="hardAlpha"/>
<feMorphology radius="2" operator="erode" in="SourceAlpha" result="effect1_dropShadow_5453_70891"/>
<feOffset dy="2"/>
<feGaussianBlur stdDeviation="2"/>
<feComposite in2="hardAlpha" operator="out"/>
<feColorMatrix type="matrix" values="0 0 0 0 0.0627451 0 0 0 0 0.0588235 0 0 0 0 0.141176 0 0 0 0.06 0"/>
<feBlend mode="normal" in2="BackgroundImageFix" result="effect1_dropShadow_5453_70891"/>
<feColorMatrix in="SourceAlpha" type="matrix" values="0 0 0 0 0 0 0 0 0 0 0 0 0 0 0 0 0 0 127 0" result="hardAlpha"/>
<feMorphology radius="2" operator="erode" in="SourceAlpha" result="effect2_dropShadow_5453_70891"/>
<feOffset dy="4"/>
<feGaussianBlur stdDeviation="4"/>
<feComposite in2="hardAlpha" operator="out"/>
<feColorMatrix type="matrix" values="0 0 0 0 0.0627451 0 0 0 0 0.0588235 0 0 0 0 0.141176 0 0 0 0.1 0"/>
<feBlend mode="normal" in2="effect1_dropShadow_5453_70891" result="effect2_dropShadow_5453_70891"/>
<feBlend mode="normal" in="SourceGraphic" in2="effect2_dropShadow_5453_70891" result="shape"/>
</filter>
<filter id="filter9_dd_5453_70891" x="378.223" y="115.934" width="81.0703" height="84.6895" filterUnits="userSpaceOnUse" color-interpolation-filters="sRGB">
<feFlood flood-opacity="0" result="BackgroundImageFix"/>
<feColorMatrix in="SourceAlpha" type="matrix" values="0 0 0 0 0 0 0 0 0 0 0 0 0 0 0 0 0 0 127 0" result="hardAlpha"/>
<feMorphology radius="4" operator="erode" in="SourceAlpha" result="effect1_dropShadow_5453_70891"/>
<feOffset dy="4"/>
<feGaussianBlur stdDeviation="8"/>
<feComposite in2="hardAlpha" operator="out"/>
<feColorMatrix type="matrix" values="0 0 0 0 0.0588235 0 0 0 0 0.141176 0 0 0 0 0.0666667 0 0 0 0.02 0"/>
<feBlend mode="normal" in2="BackgroundImageFix" result="effect1_dropShadow_5453_70891"/>
<feColorMatrix in="SourceAlpha" type="matrix" values="0 0 0 0 0 0 0 0 0 0 0 0 0 0 0 0 0 0 127 0" result="hardAlpha"/>
<feMorphology radius="4" operator="erode" in="SourceAlpha" result="effect2_dropShadow_5453_70891"/>
<feOffset dy="10"/>
<feGaussianBlur stdDeviation="16"/>
<feComposite in2="hardAlpha" operator="out"/>
<feColorMatrix type="matrix" values="0 0 0 0 0.0627451 0 0 0 0 0.0588235 0 0 0 0 0.141176 0 0 0 0.05 0"/>
<feBlend mode="normal" in2="effect1_dropShadow_5453_70891" result="effect2_dropShadow_5453_70891"/>
<feBlend mode="normal" in="SourceGraphic" in2="effect2_dropShadow_5453_70891" result="shape"/>
</filter>
<linearGradient id="paint0_linear_5453_70891" x1="390.693" y1="86" x2="273" y2="86" gradientUnits="userSpaceOnUse">
<stop stop-color="#FAFAFA"/>
<stop offset="0.534678" stop-color="#266AE9"/>
<stop offset="1" stop-color="#FAFAFA"/>
</linearGradient>
<linearGradient id="paint1_linear_5453_70891" x1="450" y1="276.693" x2="450" y2="159" gradientUnits="userSpaceOnUse">
<stop stop-color="#FAFAFA"/>
<stop offset="0.534678" stop-color="#266AE9"/>
<stop offset="1" stop-color="#FAFAFA"/>
</linearGradient>
<linearGradient id="paint2_linear_5453_70891" x1="250" y1="315.693" x2="250" y2="198" gradientUnits="userSpaceOnUse">
<stop stop-color="#FAFAFA"/>
<stop offset="0.534678" stop-color="#266AE9"/>
<stop offset="1" stop-color="#FAFAFA"/>
</linearGradient>
<linearGradient id="paint3_linear_5453_70891" x1="121.954" y1="158" x2="16" y2="158" gradientUnits="userSpaceOnUse">
<stop stop-color="#FAFAFA"/>
<stop offset="0.534678" stop-color="#266AE9"/>
<stop offset="1" stop-color="#FAFAFA"/>
</linearGradient>
<linearGradient id="paint4_linear_5453_70891" x1="350.479" y1="479.172" x2="291.066" y2="354.352" gradientUnits="userSpaceOnUse">
<stop stop-color="#5C85D5"/>
<stop offset="1" stop-color="#C3A7F3"/>
</linearGradient>
<linearGradient id="paint5_linear_5453_70891" x1="159.948" y1="53.0182" x2="219.15" y2="150.007" gradientUnits="userSpaceOnUse">
<stop stop-color="#5C85D5"/>
<stop offset="1" stop-color="#C3A7F3"/>
</linearGradient>
<clipPath id="clip0_5453_70891">
<rect width="540" height="306" fill="white"/>
</clipPath>
<clipPath id="clip1_5453_70891">
<rect width="24" height="24" fill="white" transform="translate(389.008 11.7988) rotate(15)"/>
</clipPath>
<clipPath id="clip2_5453_70891">
<rect width="18" height="18" fill="white" transform="translate(128.574 260.23) rotate(-15)"/>
</clipPath>
</defs>
</svg>
