<svg width="358" height="230" viewBox="0 0 358 230" fill="none" xmlns="http://www.w3.org/2000/svg">
<g clip-path="url(#clip0_5522_80942)">
<path d="M228.777 70.4414L228.777 461.441" stroke="url(#paint0_linear_5522_80942)" stroke-opacity="0.4" stroke-linecap="round"/>
<path d="M28.7773 109.441L28.7773 500.441" stroke="url(#paint1_linear_5522_80942)" stroke-opacity="0.4" stroke-linecap="round"/>
<path d="M134.777 61.4414L486.777 61.4414" stroke="url(#paint2_linear_5522_80942)" stroke-opacity="0.4" stroke-linecap="round"/>
<g filter="url(#filter0_dd_5522_80942)">
<path d="M262.911 158.869H95.7997C89.5159 158.869 84.4219 163.973 84.4219 170.268V181.667C84.4219 187.962 89.5159 193.065 95.7997 193.065H262.911C269.195 193.065 274.289 187.962 274.289 181.667V170.268C274.289 163.973 269.195 158.869 262.911 158.869Z" fill="white"/>
<path d="M262.911 159.225H95.7996C89.7122 159.225 84.7773 164.168 84.7773 170.267V181.666C84.7773 187.764 89.7122 192.708 95.7996 192.708H262.911C268.998 192.708 273.933 187.764 273.933 181.666V170.267C273.933 164.168 268.998 159.225 262.911 159.225Z" stroke="#F3F4F7"/>
<path d="M109.055 180.242H108.145V172.263H109.146L112.104 178.988L115.051 172.263H116.041V180.242H115.13V174.064L112.423 180.242H111.774L109.055 174.064V180.242ZM121.448 180.242L121.38 179.216C121.22 179.566 120.985 179.84 120.674 180.037C120.364 180.227 119.969 180.322 119.491 180.322C119.081 180.322 118.732 180.257 118.444 180.128C118.156 179.999 117.932 179.817 117.773 179.581C117.622 179.338 117.545 179.053 117.545 178.726C117.545 178.247 117.724 177.856 118.08 177.552C118.436 177.241 118.953 177.051 119.628 176.982L121.38 176.788V176.332C121.38 176.013 121.262 175.759 121.027 175.569C120.792 175.371 120.473 175.272 120.071 175.272C119.677 175.272 119.347 175.364 119.081 175.546C118.823 175.728 118.646 175.991 118.547 176.332L117.773 176.059C117.924 175.557 118.202 175.166 118.604 174.885C119.013 174.603 119.51 174.463 120.094 174.463C120.769 174.463 121.292 174.638 121.664 174.987C122.043 175.329 122.233 175.797 122.233 176.389V180.242H121.448ZM121.38 177.518L119.616 177.723C119.237 177.769 118.948 177.875 118.751 178.042C118.554 178.202 118.456 178.415 118.456 178.681C118.456 178.946 118.55 179.159 118.74 179.319C118.937 179.479 119.218 179.558 119.582 179.558C119.999 179.558 120.341 179.475 120.606 179.308C120.871 179.14 121.065 178.916 121.186 178.635C121.315 178.346 121.38 178.034 121.38 177.7V177.518ZM123.898 174.543H124.683L124.728 175.352C124.91 175.071 125.149 174.854 125.445 174.702C125.741 174.543 126.087 174.463 126.481 174.463C126.913 174.463 127.293 174.558 127.618 174.748C127.945 174.93 128.199 175.208 128.381 175.58C128.563 175.945 128.654 176.404 128.654 176.959V180.242H127.8V177.062C127.8 176.469 127.672 176.021 127.414 175.717C127.163 175.406 126.799 175.25 126.321 175.25C125.828 175.25 125.442 175.413 125.161 175.74C124.888 176.067 124.751 176.549 124.751 177.187V180.242H123.898V174.543ZM134.963 180.242H134.189L134.132 179.422C133.958 179.71 133.722 179.934 133.427 180.094C133.131 180.246 132.786 180.322 132.391 180.322C131.951 180.322 131.569 180.231 131.242 180.048C130.916 179.866 130.662 179.592 130.48 179.228C130.306 178.863 130.218 178.403 130.218 177.848V174.543H131.06V177.757C131.06 178.342 131.185 178.787 131.436 179.091C131.694 179.387 132.061 179.535 132.539 179.535C133.025 179.535 133.407 179.379 133.688 179.068C133.976 178.749 134.121 178.27 134.121 177.632V174.543H134.963V180.242ZM140.259 180.242L140.191 179.216C140.031 179.566 139.797 179.84 139.485 180.037C139.175 180.227 138.78 180.322 138.302 180.322C137.892 180.322 137.544 180.257 137.255 180.128C136.967 179.999 136.743 179.817 136.584 179.581C136.433 179.338 136.356 179.053 136.356 178.726C136.356 178.247 136.535 177.856 136.891 177.552C137.248 177.241 137.764 177.051 138.439 176.982L140.191 176.788V176.332C140.191 176.013 140.073 175.759 139.838 175.569C139.603 175.371 139.285 175.272 138.882 175.272C138.488 175.272 138.158 175.364 137.892 175.546C137.635 175.728 137.457 175.991 137.358 176.332L136.584 176.059C136.736 175.557 137.013 175.166 137.415 174.885C137.824 174.603 138.321 174.463 138.905 174.463C139.581 174.463 140.104 174.638 140.475 174.987C140.855 175.329 141.044 175.797 141.044 176.389V180.242H140.259ZM140.191 177.518L138.427 177.723C138.048 177.769 137.76 177.875 137.562 178.042C137.366 178.202 137.267 178.415 137.267 178.681C137.267 178.946 137.362 179.159 137.551 179.319C137.749 179.479 138.029 179.558 138.393 179.558C138.81 179.558 139.152 179.475 139.417 179.308C139.683 179.14 139.876 178.916 139.997 178.635C140.127 178.346 140.191 178.034 140.191 177.7V177.518ZM142.709 172.035H143.562V180.242H142.709V172.035ZM152.048 180.242L151.98 179.216C151.82 179.566 151.586 179.84 151.274 180.037C150.963 180.227 150.569 180.322 150.091 180.322C149.681 180.322 149.333 180.257 149.044 180.128C148.756 179.999 148.532 179.817 148.373 179.581C148.221 179.338 148.145 179.053 148.145 178.726C148.145 178.247 148.324 177.856 148.68 177.552C149.037 177.241 149.553 177.051 150.227 176.982L151.98 176.788V176.332C151.98 176.013 151.862 175.759 151.627 175.569C151.392 175.371 151.074 175.272 150.671 175.272C150.277 175.272 149.947 175.364 149.681 175.546C149.424 175.728 149.245 175.991 149.146 176.332L148.373 176.059C148.525 175.557 148.802 175.166 149.203 174.885C149.613 174.603 150.11 174.463 150.694 174.463C151.369 174.463 151.893 174.638 152.264 174.987C152.644 175.329 152.833 175.797 152.833 176.389V180.242H152.048ZM151.98 177.518L150.216 177.723C149.837 177.769 149.549 177.875 149.351 178.042C149.154 178.202 149.055 178.415 149.055 178.681C149.055 178.946 149.151 179.159 149.34 179.319C149.538 179.479 149.818 179.558 150.182 179.558C150.599 179.558 150.941 179.475 151.206 179.308C151.472 179.14 151.665 178.916 151.786 178.635C151.916 178.346 151.98 178.034 151.98 177.7V177.518ZM155.261 179.091L155.352 179.08V182.522H154.498V174.543H155.283L155.34 175.603C155.514 175.284 155.773 175.014 156.114 174.794C156.455 174.574 156.883 174.463 157.4 174.463C157.892 174.463 158.336 174.585 158.731 174.828C159.125 175.064 159.436 175.401 159.664 175.842C159.891 176.275 160.005 176.792 160.005 177.393C160.005 177.985 159.895 178.502 159.675 178.943C159.463 179.376 159.159 179.714 158.765 179.957C158.378 180.2 157.923 180.322 157.4 180.322C156.854 180.322 156.402 180.204 156.046 179.969C155.689 179.733 155.427 179.441 155.261 179.091ZM159.084 177.393C159.084 176.739 158.913 176.222 158.572 175.842C158.237 175.455 157.786 175.261 157.218 175.261C156.861 175.261 156.538 175.344 156.25 175.512C155.97 175.679 155.75 175.922 155.591 176.241C155.431 176.56 155.352 176.944 155.352 177.393C155.352 177.834 155.431 178.213 155.591 178.532C155.75 178.852 155.97 179.099 156.25 179.273C156.538 179.441 156.861 179.524 157.218 179.524C157.786 179.524 158.237 179.334 158.572 178.954C158.913 178.567 159.084 178.046 159.084 177.393ZM162.161 179.091L162.252 179.08V182.522H161.398V174.543H162.183L162.24 175.603C162.414 175.284 162.673 175.014 163.014 174.794C163.355 174.574 163.783 174.463 164.3 174.463C164.792 174.463 165.236 174.585 165.631 174.828C166.025 175.064 166.336 175.401 166.564 175.842C166.791 176.275 166.905 176.792 166.905 177.393C166.905 177.985 166.795 178.502 166.575 178.943C166.362 179.376 166.059 179.714 165.665 179.957C165.278 180.2 164.823 180.322 164.3 180.322C163.753 180.322 163.302 180.204 162.946 179.969C162.589 179.733 162.327 179.441 162.161 179.091ZM165.983 177.393C165.983 176.739 165.813 176.222 165.471 175.842C165.137 175.455 164.686 175.261 164.118 175.261C163.761 175.261 163.438 175.344 163.15 175.512C162.87 175.679 162.65 175.922 162.49 176.241C162.331 176.56 162.252 176.944 162.252 177.393C162.252 177.834 162.331 178.213 162.49 178.532C162.65 178.852 162.87 179.099 163.15 179.273C163.438 179.441 163.761 179.524 164.118 179.524C164.686 179.524 165.137 179.334 165.471 178.954C165.813 178.567 165.983 178.046 165.983 177.393ZM168.298 172.035H169.151V180.242H168.298V172.035ZM171.057 174.543H171.899V180.242H171.057V174.543ZM171.49 173.403C171.315 173.403 171.171 173.346 171.057 173.232C170.943 173.118 170.887 172.978 170.887 172.81C170.887 172.636 170.943 172.491 171.057 172.377C171.171 172.263 171.315 172.206 171.49 172.206C171.649 172.206 171.785 172.263 171.899 172.377C172.021 172.491 172.081 172.636 172.081 172.81C172.081 172.978 172.021 173.118 171.899 173.232C171.785 173.346 171.649 173.403 171.49 173.403ZM176.243 180.322C175.69 180.322 175.204 180.2 174.787 179.957C174.37 179.714 174.044 179.376 173.809 178.943C173.581 178.502 173.467 177.993 173.467 177.415C173.467 176.83 173.581 176.318 173.809 175.877C174.044 175.428 174.37 175.082 174.787 174.839C175.204 174.588 175.69 174.463 176.243 174.463C176.828 174.463 177.34 174.6 177.779 174.873C178.22 175.139 178.538 175.512 178.735 175.991L177.95 176.264C177.836 175.96 177.628 175.721 177.324 175.546C177.028 175.364 176.684 175.272 176.289 175.272C175.902 175.272 175.565 175.36 175.276 175.535C174.996 175.709 174.776 175.956 174.616 176.275C174.465 176.595 174.389 176.971 174.389 177.404C174.389 178.042 174.559 178.555 174.901 178.943C175.242 179.322 175.697 179.513 176.266 179.513C176.653 179.513 176.999 179.425 177.302 179.251C177.605 179.076 177.829 178.84 177.973 178.544L178.746 178.817C178.542 179.288 178.22 179.657 177.779 179.923C177.34 180.189 176.828 180.322 176.243 180.322ZM183.704 180.242L183.635 179.216C183.476 179.566 183.241 179.84 182.93 180.037C182.619 180.227 182.225 180.322 181.747 180.322C181.337 180.322 180.988 180.257 180.7 180.128C180.412 179.999 180.188 179.817 180.029 179.581C179.877 179.338 179.801 179.053 179.801 178.726C179.801 178.247 179.98 177.856 180.336 177.552C180.692 177.241 181.208 177.051 181.883 176.982L183.635 176.788V176.332C183.635 176.013 183.518 175.759 183.283 175.569C183.047 175.371 182.729 175.272 182.327 175.272C181.932 175.272 181.602 175.364 181.337 175.546C181.079 175.728 180.901 175.991 180.802 176.332L180.029 176.059C180.18 175.557 180.457 175.166 180.859 174.885C181.269 174.603 181.766 174.463 182.35 174.463C183.025 174.463 183.548 174.638 183.92 174.987C184.299 175.329 184.489 175.797 184.489 176.389V180.242H183.704ZM183.635 177.518L181.872 177.723C181.493 177.769 181.204 177.875 181.007 178.042C180.81 178.202 180.711 178.415 180.711 178.681C180.711 178.946 180.806 179.159 180.996 179.319C181.193 179.479 181.474 179.558 181.838 179.558C182.255 179.558 182.596 179.475 182.862 179.308C183.127 179.14 183.32 178.916 183.442 178.635C183.571 178.346 183.635 178.034 183.635 177.7V177.518ZM186.517 174.543V172.947H187.371V174.543H188.884V175.341H187.371V178.407C187.371 178.757 187.443 179.011 187.587 179.171C187.738 179.33 187.928 179.425 188.156 179.456C188.391 179.486 188.634 179.486 188.884 179.456V180.197C188.588 180.265 188.296 180.284 188.008 180.254C187.727 180.223 187.473 180.14 187.246 180.003C187.026 179.858 186.847 179.657 186.711 179.399C186.582 179.14 186.517 178.81 186.517 178.407V175.341H185.664V174.543H186.517ZM190.324 174.543H191.166V180.242H190.324V174.543ZM190.756 173.403C190.582 173.403 190.438 173.346 190.324 173.232C190.21 173.118 190.153 172.978 190.153 172.81C190.153 172.636 190.21 172.491 190.324 172.377C190.438 172.263 190.582 172.206 190.756 172.206C190.916 172.206 191.052 172.263 191.166 172.377C191.288 172.491 191.348 172.636 191.348 172.81C191.348 172.978 191.288 173.118 191.166 173.232C191.052 173.346 190.916 173.403 190.756 173.403ZM195.544 180.322C195.006 180.322 194.524 180.204 194.099 179.969C193.675 179.733 193.341 179.399 193.098 178.966C192.856 178.525 192.734 178.005 192.734 177.404C192.734 176.796 192.856 176.272 193.098 175.831C193.348 175.39 193.686 175.052 194.111 174.816C194.543 174.581 195.029 174.463 195.567 174.463C196.105 174.463 196.588 174.581 197.012 174.816C197.444 175.052 197.782 175.39 198.025 175.831C198.275 176.264 198.4 176.781 198.4 177.381C198.4 177.989 198.275 178.513 198.025 178.954C197.774 179.395 197.433 179.733 197.001 179.969C196.568 180.204 196.083 180.322 195.544 180.322ZM195.533 179.513C195.866 179.513 196.182 179.441 196.477 179.296C196.773 179.144 197.012 178.912 197.194 178.601C197.384 178.282 197.479 177.879 197.479 177.393C197.479 176.899 197.388 176.496 197.205 176.184C197.023 175.873 196.785 175.645 196.489 175.5C196.201 175.349 195.889 175.272 195.556 175.272C195.222 175.272 194.911 175.349 194.623 175.5C194.335 175.645 194.099 175.877 193.917 176.196C193.743 176.507 193.656 176.906 193.656 177.393C193.656 177.886 193.743 178.289 193.917 178.601C194.092 178.912 194.319 179.144 194.6 179.296C194.888 179.441 195.199 179.513 195.533 179.513ZM199.798 174.543H200.583L200.629 175.352C200.811 175.071 201.05 174.854 201.346 174.702C201.641 174.543 201.986 174.463 202.381 174.463C202.813 174.463 203.192 174.558 203.519 174.748C203.844 174.93 204.099 175.208 204.281 175.58C204.463 175.945 204.554 176.404 204.554 176.959V180.242H203.701V177.062C203.701 176.469 203.571 176.021 203.314 175.717C203.064 175.406 202.7 175.25 202.222 175.25C201.728 175.25 201.341 175.413 201.061 175.74C200.788 176.067 200.652 176.549 200.652 177.187V180.242H199.798V174.543ZM209.762 174.543V172.947H210.616V174.543H212.129V175.341H210.616V178.407C210.616 178.757 210.687 179.011 210.832 179.171C210.983 179.33 211.173 179.425 211.401 179.456C211.635 179.486 211.879 179.486 212.129 179.456V180.197C211.833 180.265 211.541 180.284 211.253 180.254C210.972 180.223 210.718 180.14 210.49 180.003C210.27 179.858 210.092 179.657 209.956 179.399C209.826 179.14 209.762 178.81 209.762 178.407V175.341H208.909V174.543H209.762ZM213.398 174.543H214.183L214.229 175.375C214.38 175.17 214.562 174.995 214.775 174.851C214.995 174.706 215.234 174.608 215.492 174.554C215.757 174.494 216.038 174.489 216.334 174.543V175.398C216.015 175.337 215.726 175.337 215.469 175.398C215.219 175.458 215.002 175.572 214.82 175.74C214.638 175.907 214.498 176.119 214.399 176.378C214.301 176.629 214.252 176.922 214.252 177.256V180.242H213.398V174.543ZM221.059 180.242L220.991 179.216C220.831 179.566 220.597 179.84 220.285 180.037C219.975 180.227 219.58 180.322 219.102 180.322C218.692 180.322 218.344 180.257 218.055 180.128C217.767 179.999 217.543 179.817 217.384 179.581C217.233 179.338 217.156 179.053 217.156 178.726C217.156 178.247 217.335 177.856 217.691 177.552C218.048 177.241 218.564 177.051 219.239 176.982L220.991 176.788V176.332C220.991 176.013 220.873 175.759 220.638 175.569C220.403 175.371 220.085 175.272 219.682 175.272C219.288 175.272 218.958 175.364 218.692 175.546C218.435 175.728 218.257 175.991 218.158 176.332L217.384 176.059C217.536 175.557 217.813 175.166 218.215 174.885C218.624 174.603 219.121 174.463 219.705 174.463C220.381 174.463 220.904 174.638 221.275 174.987C221.655 175.329 221.844 175.797 221.844 176.389V180.242H221.059ZM220.991 177.518L219.227 177.723C218.848 177.769 218.56 177.875 218.362 178.042C218.166 178.202 218.067 178.415 218.067 178.681C218.067 178.946 218.162 179.159 218.351 179.319C218.549 179.479 218.829 179.558 219.193 179.558C219.61 179.558 219.952 179.475 220.217 179.308C220.483 179.14 220.676 178.916 220.797 178.635C220.927 178.346 220.991 178.034 220.991 177.7V177.518ZM225.932 180.322C225.379 180.322 224.893 180.2 224.476 179.957C224.059 179.714 223.733 179.376 223.497 178.943C223.27 178.502 223.156 177.993 223.156 177.415C223.156 176.83 223.27 176.318 223.497 175.877C223.733 175.428 224.059 175.082 224.476 174.839C224.893 174.588 225.379 174.463 225.932 174.463C226.517 174.463 227.029 174.6 227.468 174.873C227.908 175.139 228.227 175.512 228.424 175.991L227.639 176.264C227.525 175.96 227.317 175.721 227.013 175.546C226.717 175.364 226.372 175.272 225.978 175.272C225.591 175.272 225.254 175.36 224.965 175.535C224.685 175.709 224.465 175.956 224.305 176.275C224.154 176.595 224.078 176.971 224.078 177.404C224.078 178.042 224.248 178.555 224.59 178.943C224.931 179.322 225.386 179.513 225.955 179.513C226.342 179.513 226.687 179.425 226.99 179.251C227.294 179.076 227.518 178.84 227.662 178.544L228.435 178.817C228.231 179.288 227.908 179.657 227.468 179.923C227.029 180.189 226.517 180.322 225.932 180.322ZM229.831 172.035H230.696V177.016H231.219L233.461 174.543H234.667L231.982 177.393L234.678 180.242H233.461L231.219 177.757H230.696V180.242H229.831V172.035ZM235.891 174.543H236.733V180.242H235.891V174.543ZM236.323 173.403C236.149 173.403 236.004 173.346 235.891 173.232C235.777 173.118 235.72 172.978 235.72 172.81C235.72 172.636 235.777 172.491 235.891 172.377C236.004 172.263 236.149 172.206 236.323 172.206C236.482 172.206 236.619 172.263 236.733 172.377C236.854 172.491 236.915 172.636 236.915 172.81C236.915 172.978 236.854 173.118 236.733 173.232C236.619 173.346 236.482 173.403 236.323 173.403ZM238.653 174.543H239.438L239.484 175.352C239.666 175.071 239.905 174.854 240.201 174.702C240.497 174.543 240.842 174.463 241.236 174.463C241.668 174.463 242.048 174.558 242.374 174.748C242.7 174.93 242.954 175.208 243.136 175.58C243.318 175.945 243.409 176.404 243.409 176.959V180.242H242.556V177.062C242.556 176.469 242.427 176.021 242.169 175.717C241.919 175.406 241.555 175.25 241.077 175.25C240.584 175.25 240.197 175.413 239.916 175.74C239.643 176.067 239.507 176.549 239.507 177.187V180.242H238.653V174.543ZM249.434 174.543H250.219V179.194C250.219 179.892 250.063 180.489 249.752 180.983C249.442 181.485 248.99 181.864 248.398 182.123C247.807 182.389 247.086 182.522 246.237 182.522L246.1 181.735C247.17 181.72 247.981 181.496 248.535 181.063C249.089 180.638 249.365 180.014 249.365 179.194V179.068L249.457 179.091C249.282 179.425 249.021 179.714 248.671 179.957C248.322 180.193 247.871 180.314 247.317 180.322C246.794 180.322 246.335 180.204 245.941 179.969C245.554 179.726 245.25 179.384 245.031 178.943C244.818 178.502 244.712 177.985 244.712 177.393C244.712 176.8 244.818 176.287 245.031 175.854C245.25 175.413 245.554 175.071 245.941 174.828C246.335 174.585 246.794 174.463 247.317 174.463C247.659 174.463 247.962 174.517 248.228 174.623C248.493 174.722 248.721 174.858 248.91 175.033C249.1 175.2 249.255 175.39 249.377 175.603L249.434 174.543ZM245.634 177.393C245.634 178.046 245.801 178.567 246.134 178.954C246.476 179.334 246.934 179.524 247.511 179.524C247.86 179.524 248.174 179.441 248.455 179.273C248.736 179.106 248.956 178.863 249.115 178.544C249.282 178.225 249.365 177.841 249.365 177.393C249.365 176.944 249.282 176.564 249.115 176.253C248.956 175.934 248.736 175.691 248.455 175.523C248.174 175.349 247.86 175.261 247.511 175.261C246.942 175.261 246.487 175.455 246.146 175.842C245.804 176.23 245.634 176.746 245.634 177.393Z" fill="#9CA3AF"/>
<path d="M107.176 176.822H251.082V177.392H107.176V176.822Z" fill="#9CA3AF"/>
</g>
<g filter="url(#filter1_dd_5522_80942)">
<path d="M253.668 18.5234H105.757C99.4729 18.5234 94.3789 23.6268 94.3789 29.9221V41.3208C94.3789 47.6161 99.4729 52.7195 105.757 52.7195H253.668C259.952 52.7195 265.046 47.6161 265.046 41.3208V29.9221C265.046 23.6268 259.952 18.5234 253.668 18.5234Z" fill="white"/>
<path d="M253.668 18.8789H105.757C99.6692 18.8789 94.7344 23.8228 94.7344 29.9214V41.3201C94.7344 47.4187 99.6692 52.3626 105.757 52.3626H253.668C259.755 52.3626 264.69 47.4187 264.69 41.3201V29.9214C264.69 23.8228 259.755 18.8789 253.668 18.8789Z" stroke="#F3F4F7"/>
<path d="M119.012 39.8965H118.102V31.9174H119.103L122.061 38.6427L125.008 31.9174H125.998V39.8965H125.088V33.7184L122.38 39.8965H121.731L119.012 33.7184V39.8965ZM128.014 34.1972H128.856V39.8965H128.014V34.1972ZM128.447 33.0573C128.273 33.0573 128.128 33.0003 128.014 32.8863C127.901 32.7723 127.844 32.6318 127.844 32.4646C127.844 32.2898 127.901 32.1454 128.014 32.0314C128.128 31.9174 128.273 31.8604 128.447 31.8604C128.606 31.8604 128.743 31.9174 128.856 32.0314C128.978 32.1454 129.038 32.2898 129.038 32.4646C129.038 32.6318 128.978 32.7723 128.856 32.8863C128.743 33.0003 128.606 33.0573 128.447 33.0573ZM131.244 38.1525C131.289 38.3805 131.372 38.5705 131.494 38.7224C131.616 38.8669 131.771 38.977 131.96 39.053C132.157 39.129 132.385 39.167 132.643 39.167C133.045 39.167 133.348 39.091 133.553 38.939C133.766 38.7794 133.872 38.5819 133.872 38.3463C133.872 38.1487 133.807 37.9892 133.678 37.8675C133.557 37.7459 133.394 37.6472 133.189 37.5712C132.984 37.4876 132.757 37.4154 132.507 37.3546C132.31 37.309 132.097 37.2558 131.869 37.195C131.642 37.1266 131.426 37.0354 131.221 36.9215C131.016 36.8075 130.849 36.6593 130.72 36.4769C130.592 36.2945 130.527 36.0552 130.527 35.7588C130.527 35.432 130.614 35.147 130.788 34.9039C130.971 34.6531 131.217 34.4593 131.528 34.3226C131.847 34.1858 132.211 34.1174 132.62 34.1174C133.09 34.1174 133.508 34.22 133.872 34.4251C134.244 34.6303 134.501 34.9495 134.646 35.3826L133.849 35.6562C133.796 35.4586 133.698 35.3066 133.553 35.2003C133.417 35.0939 133.261 35.0216 133.087 34.9837C132.92 34.9457 132.753 34.9267 132.586 34.9267C132.245 34.9267 131.968 34.9951 131.756 35.1319C131.551 35.261 131.448 35.4586 131.448 35.7246C131.448 35.869 131.483 35.9905 131.551 36.0893C131.619 36.1805 131.714 36.2566 131.835 36.3173C131.957 36.3781 132.1 36.4313 132.268 36.4769C132.435 36.5149 132.617 36.5605 132.814 36.6137C133.033 36.6669 133.257 36.7353 133.485 36.8189C133.713 36.8949 133.925 36.9975 134.122 37.1266C134.319 37.2482 134.478 37.4078 134.6 37.6054C134.729 37.7954 134.793 38.0347 134.793 38.3235C134.793 38.6578 134.702 38.9504 134.52 39.2012C134.338 39.4443 134.084 39.6343 133.758 39.7711C133.44 39.9079 133.068 39.9763 132.643 39.9763C132.059 39.9763 131.574 39.8471 131.187 39.5887C130.808 39.3228 130.553 38.9352 130.424 38.4261L131.244 38.1525ZM136.644 38.1525C136.689 38.3805 136.772 38.5705 136.894 38.7224C137.016 38.8669 137.171 38.977 137.361 39.053C137.558 39.129 137.785 39.167 138.043 39.167C138.445 39.167 138.749 39.091 138.953 38.939C139.166 38.7794 139.272 38.5819 139.272 38.3463C139.272 38.1487 139.207 37.9892 139.079 37.8675C138.957 37.7459 138.794 37.6472 138.589 37.5712C138.385 37.4876 138.157 37.4154 137.907 37.3546C137.71 37.309 137.497 37.2558 137.27 37.195C137.042 37.1266 136.826 37.0354 136.621 36.9215C136.416 36.8075 136.249 36.6593 136.12 36.4769C135.992 36.2945 135.927 36.0552 135.927 35.7588C135.927 35.432 136.014 35.147 136.189 34.9039C136.371 34.6531 136.617 34.4593 136.928 34.3226C137.247 34.1858 137.611 34.1174 138.02 34.1174C138.491 34.1174 138.908 34.22 139.272 34.4251C139.644 34.6303 139.901 34.9495 140.046 35.3826L139.249 35.6562C139.196 35.4586 139.098 35.3066 138.953 35.2003C138.817 35.0939 138.661 35.0216 138.487 34.9837C138.32 34.9457 138.153 34.9267 137.986 34.9267C137.645 34.9267 137.368 34.9951 137.156 35.1319C136.951 35.261 136.849 35.4586 136.849 35.7246C136.849 35.869 136.883 35.9905 136.951 36.0893C137.019 36.1805 137.114 36.2566 137.235 36.3173C137.357 36.3781 137.501 36.4313 137.668 36.4769C137.835 36.5149 138.017 36.5605 138.214 36.6137C138.434 36.6669 138.658 36.7353 138.885 36.8189C139.113 36.8949 139.325 36.9975 139.522 37.1266C139.719 37.2482 139.879 37.4078 140 37.6054C140.129 37.7954 140.194 38.0347 140.194 38.3235C140.194 38.6578 140.103 38.9504 139.921 39.2012C139.739 39.4443 139.485 39.6343 139.158 39.7711C138.84 39.9079 138.468 39.9763 138.043 39.9763C137.459 39.9763 136.974 39.8471 136.587 39.5887C136.208 39.3228 135.953 38.9352 135.825 38.4261L136.644 38.1525ZM141.748 34.1972H142.59V39.8965H141.748V34.1972ZM142.18 33.0573C142.006 33.0573 141.862 33.0003 141.748 32.8863C141.634 32.7723 141.577 32.6318 141.577 32.4646C141.577 32.2898 141.634 32.1454 141.748 32.0314C141.862 31.9174 142.006 31.8604 142.18 31.8604C142.34 31.8604 142.476 31.9174 142.59 32.0314C142.711 32.1454 142.772 32.2898 142.772 32.4646C142.772 32.6318 142.711 32.7723 142.59 32.8863C142.476 33.0003 142.34 33.0573 142.18 33.0573ZM144.511 34.1972H145.296L145.341 35.0065C145.523 34.7253 145.762 34.5087 146.058 34.3567C146.354 34.1972 146.699 34.1174 147.094 34.1174C147.526 34.1174 147.905 34.2123 148.231 34.4023C148.557 34.5847 148.812 34.8621 148.994 35.2344C149.176 35.5992 149.267 36.0589 149.267 36.6137V39.8965H148.413V36.7163C148.413 36.1235 148.284 35.6752 148.027 35.3712C147.776 35.0597 147.412 34.9039 146.934 34.9039C146.441 34.9039 146.054 35.0672 145.774 35.394C145.501 35.7208 145.364 36.2033 145.364 36.8417V39.8965H144.511V34.1972ZM155.291 34.1972H156.076V38.8478C156.076 39.5469 155.921 40.1435 155.609 40.6374C155.298 41.139 154.847 41.5189 154.255 41.7773C153.664 42.0432 152.943 42.1763 152.093 42.1763L151.957 41.3897C153.026 41.3746 153.838 41.1504 154.392 40.7172C154.946 40.2917 155.222 39.6685 155.222 38.8478V38.7224L155.313 38.7452C155.139 39.0796 154.877 39.3684 154.528 39.6115C154.18 39.8471 153.728 39.9687 153.174 39.9763C152.651 39.9763 152.192 39.8585 151.798 39.6229C151.411 39.3798 151.108 39.0378 150.887 38.5971C150.675 38.1563 150.569 37.6396 150.569 37.0468C150.569 36.4541 150.675 35.9412 150.887 35.508C151.108 35.0672 151.411 34.7253 151.798 34.4821C152.192 34.239 152.651 34.1174 153.174 34.1174C153.516 34.1174 153.819 34.1706 154.084 34.277C154.35 34.3758 154.578 34.5126 154.767 34.6873C154.957 34.8545 155.113 35.0444 155.234 35.2572L155.291 34.1972ZM151.49 37.0468C151.49 37.7003 151.657 38.2209 151.991 38.6085C152.332 38.9884 152.792 39.1784 153.368 39.1784C153.717 39.1784 154.032 39.0948 154.312 38.9276C154.593 38.7604 154.813 38.5173 154.972 38.1981C155.139 37.8789 155.222 37.4952 155.222 37.0468C155.222 36.5985 155.139 36.2185 154.972 35.907C154.813 35.5878 154.593 35.3447 154.312 35.1775C154.032 35.0027 153.717 34.9153 153.368 34.9153C152.799 34.9153 152.344 35.1091 152.002 35.4966C151.661 35.8842 151.49 36.4009 151.49 37.0468ZM165.698 34.277C165.698 33.7982 165.558 33.4183 165.277 33.1371C164.996 32.8559 164.538 32.7153 163.901 32.7153H162.012V35.8386H163.912C164.329 35.8386 164.667 35.774 164.925 35.6448C165.19 35.5156 165.383 35.3333 165.505 35.0977C165.634 34.8621 165.698 34.5885 165.698 34.277ZM163.901 31.9174C164.522 31.9174 165.031 32.0238 165.425 32.2366C165.827 32.4494 166.126 32.7344 166.324 33.0915C166.521 33.4411 166.62 33.8362 166.62 34.277C166.62 34.5885 166.567 34.8849 166.461 35.1661C166.362 35.4472 166.203 35.698 165.983 35.9184C165.762 36.1387 165.482 36.3135 165.141 36.4427C164.8 36.5719 164.39 36.6365 163.912 36.6365H162.012V39.8965H161.102V31.9174H163.901ZM164.561 36.2945L166.768 39.8965H165.732L163.582 36.2945H164.561ZM171.956 33.1143C171.804 32.9623 171.615 32.8483 171.387 32.7723C171.167 32.6888 170.916 32.6469 170.636 32.6469C170.113 32.6469 169.722 32.7837 169.464 33.0573C169.214 33.3309 169.089 33.6766 169.089 34.0946C169.089 34.3986 169.164 34.6493 169.317 34.8469C169.476 35.0444 169.715 35.1926 170.033 35.2914C170.359 35.3903 170.769 35.4396 171.262 35.4396H173.731V36.2375H171.273C170.515 36.2375 169.934 36.3477 169.533 36.5681C169.138 36.7809 168.941 37.1646 168.941 37.7194C168.941 38.0081 168.998 38.2627 169.112 38.4831C169.225 38.7034 169.403 38.8744 169.646 38.996C169.889 39.11 170.204 39.167 170.591 39.167C171.175 39.167 171.588 39.0264 171.831 38.7452C172.073 38.4641 172.195 38.0347 172.195 37.4572V35.9982H173.071V37.4572C173.071 38.0575 172.972 38.5438 172.775 38.9162C172.578 39.281 172.293 39.5508 171.922 39.7255C171.55 39.8927 171.106 39.9763 170.591 39.9763C170.022 39.9763 169.544 39.8851 169.157 39.7027C168.777 39.5127 168.493 39.2544 168.304 38.9276C168.114 38.5933 168.019 38.2171 168.019 37.7992C168.019 37.4192 168.091 37.1001 168.236 36.8417C168.379 36.5757 168.577 36.3629 168.827 36.2033C169.085 36.0361 169.377 35.9184 169.703 35.85V35.793C169.377 35.7322 169.1 35.6144 168.873 35.4396C168.645 35.2649 168.47 35.0558 168.349 34.8127C168.228 34.5619 168.167 34.2921 168.167 34.0034C168.167 33.6082 168.258 33.2473 168.44 32.9205C168.63 32.5937 168.907 32.3316 169.271 32.134C169.635 31.9364 170.079 31.8376 170.602 31.8376C171.035 31.8376 171.425 31.906 171.774 32.0428C172.13 32.172 172.43 32.3582 172.673 32.6013L171.956 33.1143ZM171.763 35.4396C171.861 35.4396 171.948 35.4206 172.024 35.3826C172.1 35.337 172.157 35.2763 172.195 35.2003C172.233 35.1242 172.252 35.0369 172.252 34.9381V34.0376H173.083V35.4396H174.607V36.2375H173.083V38.0613C173.083 38.4337 173.181 38.7073 173.378 38.882C173.575 39.0568 173.837 39.1442 174.163 39.1442C174.232 39.1442 174.3 39.1404 174.368 39.1328C174.444 39.1252 174.523 39.1176 174.607 39.11V39.8509C174.508 39.8737 174.406 39.8927 174.3 39.9079C174.201 39.9231 174.107 39.9307 174.016 39.9307C173.697 39.9307 173.397 39.8661 173.117 39.7369C172.844 39.6078 172.62 39.4064 172.445 39.1328C172.27 38.8516 172.184 38.4945 172.184 38.0613V36.2375H171.33V35.4396H171.763ZM178.852 31.9174C179.732 31.9174 180.483 32.0808 181.105 32.4076C181.735 32.7267 182.216 33.1865 182.55 33.7868C182.891 34.3872 183.062 35.1014 183.062 35.9298C183.062 36.7505 182.891 37.4572 182.55 38.0499C182.216 38.6427 181.735 39.0986 181.105 39.4178C180.483 39.7369 179.732 39.8965 178.852 39.8965H176.224V31.9174H178.852ZM178.852 39.0986C179.937 39.0986 180.756 38.8213 181.309 38.2665C181.863 37.7117 182.14 36.9329 182.14 35.9298C182.14 34.9191 181.863 34.1325 181.309 33.5702C180.756 33.0003 179.937 32.7153 178.852 32.7153H177.134V39.0986H178.852ZM187.975 34.1972V32.6013H188.828V34.1972H190.341V34.9951H188.828V38.0613C188.828 38.4109 188.9 38.6655 189.044 38.825C189.196 38.9846 189.385 39.0796 189.613 39.11C189.848 39.1404 190.091 39.1404 190.341 39.11V39.8509C190.045 39.9193 189.753 39.9383 189.465 39.9079C189.184 39.8775 188.93 39.7939 188.703 39.6571C188.483 39.5127 188.305 39.3114 188.168 39.053C188.039 38.7946 187.975 38.4641 187.975 38.0613V34.9951H187.121V34.1972H187.975ZM195.172 39.8965L195.104 38.8706C194.944 39.2202 194.709 39.4938 194.398 39.6913C194.087 39.8813 193.693 39.9763 193.215 39.9763C192.805 39.9763 192.456 39.9117 192.168 39.7825C191.88 39.6534 191.656 39.471 191.497 39.2354C191.345 38.9922 191.269 38.7073 191.269 38.3805C191.269 37.9017 191.448 37.5104 191.804 37.2064C192.16 36.8949 192.676 36.7049 193.351 36.6365L195.104 36.4427V35.9868C195.104 35.6676 194.986 35.413 194.751 35.223C194.515 35.0255 194.197 34.9267 193.795 34.9267C193.4 34.9267 193.07 35.0179 192.805 35.2003C192.547 35.3826 192.369 35.6448 192.27 35.9868L191.497 35.7132C191.648 35.2116 191.926 34.8203 192.327 34.5391C192.737 34.2579 193.234 34.1174 193.818 34.1174C194.493 34.1174 195.016 34.2921 195.388 34.6417C195.767 34.9837 195.957 35.451 195.957 36.0438V39.8965H195.172ZM195.104 37.1722L193.34 37.3774C192.961 37.423 192.672 37.5294 192.475 37.6966C192.278 37.8561 192.179 38.0689 192.179 38.3349C192.179 38.6008 192.274 38.8136 192.464 38.9732C192.661 39.1328 192.942 39.2126 193.306 39.2126C193.723 39.2126 194.065 39.129 194.33 38.9618C194.595 38.7946 194.788 38.5705 194.91 38.2893C195.039 38.0006 195.104 37.6889 195.104 37.3546V37.1722ZM197.098 34.1972H198.077L199.533 36.3743L200.989 34.1972H201.979L200.011 37.0354L201.979 39.8965H200.989L199.533 37.6966L198.077 39.8965H197.098L199.067 37.0354L197.098 34.1972ZM208.823 39.9763C208.269 39.9763 207.784 39.8547 207.367 39.6115C206.949 39.3684 206.624 39.0302 206.388 38.5971C206.161 38.1563 206.047 37.6472 206.047 37.0696C206.047 36.4845 206.161 35.9716 206.388 35.5308C206.624 35.0825 206.949 34.7367 207.367 34.4935C207.784 34.2428 208.269 34.1174 208.823 34.1174C209.407 34.1174 209.919 34.2542 210.359 34.5277C210.799 34.7937 211.118 35.1661 211.315 35.6448L210.53 35.9184C210.416 35.6144 210.208 35.375 209.904 35.2003C209.608 35.0179 209.263 34.9267 208.868 34.9267C208.482 34.9267 208.144 35.0141 207.856 35.1889C207.575 35.3636 207.355 35.6106 207.196 35.9298C207.044 36.2489 206.968 36.6251 206.968 37.0582C206.968 37.6966 207.139 38.2095 207.48 38.5971C207.822 38.977 208.277 39.167 208.846 39.167C209.233 39.167 209.577 39.0796 209.881 38.9048C210.185 38.7301 210.408 38.4945 210.552 38.1981L211.326 38.4717C211.121 38.9428 210.799 39.3114 210.359 39.5773C209.919 39.8433 209.407 39.9763 208.823 39.9763ZM212.722 34.1972H213.507L213.553 35.0293C213.704 34.8241 213.886 34.6493 214.099 34.5049C214.318 34.3605 214.557 34.2618 214.816 34.2086C215.081 34.1478 215.362 34.1439 215.657 34.1972V35.0521C215.339 34.9913 215.05 34.9913 214.793 35.0521C214.542 35.1128 214.326 35.2268 214.144 35.394C213.962 35.5612 213.821 35.774 213.723 36.0324C213.624 36.2831 213.575 36.5757 213.575 36.9101V39.8965H212.722V34.1972ZM219.211 39.9763C218.68 39.9763 218.206 39.8471 217.789 39.5887C217.379 39.3304 217.057 38.977 216.822 38.5287C216.586 38.0803 216.469 37.5674 216.469 36.9898C216.469 36.4351 216.586 35.9412 216.822 35.508C217.057 35.0749 217.379 34.7367 217.789 34.4935C218.198 34.2428 218.665 34.1174 219.188 34.1174C219.704 34.1174 220.163 34.2314 220.565 34.4593C220.974 34.6873 221.293 35.0027 221.521 35.4054C221.748 35.8082 221.854 36.268 221.839 36.7847C221.839 36.8682 221.836 36.9556 221.828 37.0468C221.82 37.138 221.813 37.2368 221.805 37.3432H217.402C217.417 37.7003 217.504 38.0157 217.664 38.2893C217.823 38.5629 218.031 38.7794 218.289 38.939C218.555 39.091 218.855 39.167 219.188 39.167C219.628 39.167 220 39.0834 220.303 38.9162C220.614 38.749 220.838 38.5096 220.974 38.1981L221.714 38.4945C221.486 38.9732 221.156 39.3418 220.724 39.6001C220.292 39.8509 219.788 39.9763 219.211 39.9763ZM220.906 36.6023C220.914 36.2755 220.841 35.9868 220.69 35.736C220.546 35.4852 220.341 35.2877 220.076 35.1433C219.81 34.9988 219.503 34.9267 219.154 34.9267C218.85 34.9267 218.574 34.9988 218.323 35.1433C218.073 35.2877 217.865 35.489 217.698 35.7474C217.538 35.9982 217.444 36.2831 217.413 36.6023H220.906ZM227.635 35.3484L227.544 35.3598V31.6895H228.398V39.8965H227.613L227.556 38.8364C227.382 39.1556 227.12 39.4254 226.771 39.6457C226.429 39.8661 226.005 39.9763 225.496 39.9763C224.973 39.9763 224.514 39.8585 224.12 39.6229C223.733 39.3798 223.43 39.0378 223.209 38.5971C222.998 38.1563 222.891 37.6396 222.891 37.0468C222.891 36.4541 222.998 35.9412 223.209 35.508C223.43 35.0672 223.733 34.7253 224.12 34.4821C224.514 34.239 224.973 34.1174 225.496 34.1174C226.035 34.1174 226.483 34.2351 226.839 34.4707C227.196 34.7063 227.461 34.9989 227.635 35.3484ZM223.812 37.0468C223.812 37.7003 223.98 38.2209 224.313 38.6085C224.647 38.9884 225.102 39.1784 225.678 39.1784C226.035 39.1784 226.354 39.0948 226.634 38.9276C226.915 38.7604 227.135 38.5173 227.294 38.1981C227.461 37.8789 227.544 37.4952 227.544 37.0468C227.544 36.5985 227.461 36.2185 227.294 35.907C227.135 35.5878 226.915 35.3447 226.634 35.1775C226.354 35.0027 226.035 34.9153 225.678 34.9153C225.11 34.9153 224.654 35.1091 224.313 35.4966C223.98 35.8766 223.812 36.3933 223.812 37.0468ZM230.315 34.1972H231.157V39.8965H230.315V34.1972ZM230.747 33.0573C230.572 33.0573 230.429 33.0003 230.315 32.8863C230.201 32.7723 230.144 32.6318 230.144 32.4646C230.144 32.2898 230.201 32.1454 230.315 32.0314C230.429 31.9174 230.572 31.8604 230.747 31.8604C230.907 31.8604 231.043 31.9174 231.157 32.0314C231.278 32.1454 231.339 32.2898 231.339 32.4646C231.339 32.6318 231.278 32.7723 231.157 32.8863C231.043 33.0003 230.907 33.0573 230.747 33.0573ZM233.442 34.1972V32.6013H234.295V34.1972H235.808V34.9951H234.295V38.0613C234.295 38.4109 234.367 38.6655 234.511 38.825C234.663 38.9846 234.852 39.0796 235.08 39.11C235.315 39.1404 235.558 39.1404 235.808 39.11V39.8509C235.512 39.9193 235.22 39.9383 234.932 39.9079C234.651 39.8775 234.397 39.7939 234.17 39.6571C233.949 39.5127 233.772 39.3114 233.635 39.053C233.506 38.7946 233.442 38.4641 233.442 38.0613V34.9951H232.588V34.1972H233.442ZM237.544 38.1525C237.59 38.3805 237.673 38.5705 237.794 38.7224C237.915 38.8669 238.071 38.977 238.261 39.053C238.458 39.129 238.685 39.167 238.944 39.167C239.345 39.167 239.649 39.091 239.854 38.939C240.066 38.7794 240.172 38.5819 240.172 38.3463C240.172 38.1487 240.108 37.9892 239.979 37.8675C239.857 37.7459 239.694 37.6472 239.49 37.5712C239.285 37.4876 239.057 37.4154 238.807 37.3546C238.609 37.309 238.397 37.2558 238.17 37.195C237.942 37.1266 237.726 37.0354 237.521 36.9215C237.316 36.8075 237.149 36.6593 237.021 36.4769C236.891 36.2945 236.827 36.0552 236.827 35.7588C236.827 35.432 236.914 35.147 237.089 34.9039C237.271 34.6531 237.517 34.4593 237.828 34.3226C238.147 34.1858 238.511 34.1174 238.921 34.1174C239.391 34.1174 239.808 34.22 240.172 34.4251C240.544 34.6303 240.802 34.9495 240.946 35.3826L240.15 35.6562C240.096 35.4586 239.997 35.3066 239.854 35.2003C239.717 35.0939 239.561 35.0216 239.387 34.9837C239.22 34.9457 239.053 34.9267 238.887 34.9267C238.545 34.9267 238.268 34.9951 238.056 35.1319C237.851 35.261 237.749 35.4586 237.749 35.7246C237.749 35.869 237.783 35.9905 237.851 36.0893C237.92 36.1805 238.014 36.2566 238.136 36.3173C238.257 36.3781 238.401 36.4313 238.568 36.4769C238.734 36.5149 238.916 36.5605 239.114 36.6137C239.334 36.6669 239.558 36.7353 239.785 36.8189C240.013 36.8949 240.225 36.9975 240.423 37.1266C240.62 37.2482 240.779 37.4078 240.9 37.6054C241.029 37.7954 241.094 38.0347 241.094 38.3235C241.094 38.6578 241.003 38.9504 240.821 39.2012C240.639 39.4443 240.384 39.6343 240.059 39.7711C239.74 39.9079 239.368 39.9763 238.944 39.9763C238.359 39.9763 237.874 39.8471 237.487 39.5887C237.107 39.3228 236.854 38.9352 236.725 38.4261L237.544 38.1525Z" fill="#9CA3AF"/>
<path d="M117.133 36.4766H241.604V37.0465H117.133V36.4766Z" fill="#9CA3AF"/>
</g>
<g filter="url(#filter2_dd_5522_80942)">
<path d="M280.212 6.95545L266.474 3.2677C262.681 2.24936 258.781 4.50475 257.765 8.30526L254.084 22.0681C253.068 25.8686 255.319 29.7751 259.112 30.7934L272.85 34.4812C276.643 35.4995 280.543 33.2441 281.559 29.4436L285.24 15.6808C286.257 11.8802 284.005 7.97379 280.212 6.95545Z" fill="white"/>
<path d="M280.301 6.6121L266.564 2.92435C262.581 1.85509 258.486 4.22325 257.419 8.21379L253.738 21.9766C252.671 25.9672 255.035 30.069 259.018 31.1382L272.755 34.826C276.739 35.8952 280.833 33.5271 281.9 29.5365L285.581 15.7737C286.648 11.7831 284.285 7.68136 280.301 6.6121Z" stroke="#F3F4F7"/>
<mask id="mask0_5522_80942" style="mask-type:luminance" maskUnits="userSpaceOnUse" x="259" y="8" width="22" height="22">
<path d="M280.114 12.8315L263.629 8.40625L259.212 24.9217L275.697 29.347L280.114 12.8315Z" fill="white"/>
</mask>
<g mask="url(#mask0_5522_80942)">
<path d="M268.893 13.5053L267.519 13.1365C267.154 13.0387 266.766 13.0899 266.439 13.2788C266.113 13.4678 265.875 13.779 265.777 14.144L263.568 22.4017C263.47 22.7668 263.522 23.1557 263.71 23.4829C263.899 23.8102 264.209 24.049 264.574 24.1468L271.443 25.9907C271.807 26.0885 272.195 26.0373 272.522 25.8483C272.849 25.6594 273.087 25.3482 273.184 24.9832L275.393 16.7254C275.49 16.3604 275.44 15.9715 275.251 15.6443C275.062 15.317 274.751 15.0782 274.387 14.9804L273.014 14.6116M268.893 13.5053C268.99 13.1403 269.228 12.8291 269.555 12.6401C269.882 12.4512 270.27 12.4 270.634 12.4977L272.008 12.8666C272.372 12.9644 272.683 13.2032 272.871 13.5304C273.06 13.8577 273.111 14.2466 273.014 14.6116M268.893 13.5053C268.795 13.8703 268.846 14.2592 269.034 14.5865C269.223 14.9138 269.533 15.1526 269.898 15.2504L271.272 15.6191C271.636 15.7169 272.024 15.6657 272.351 15.4768C272.678 15.2879 272.916 14.9766 273.014 14.6116M266.684 21.763L267.604 18.3223M268.745 22.3161L268.928 21.628M270.805 22.8693L271.357 20.8049" stroke="#71717A" stroke-width="0.9" stroke-linecap="round" stroke-linejoin="round"/>
</g>
</g>
<g filter="url(#filter3_dd_5522_80942)">
<path d="M88.8172 177.442L77.8271 180.392C74.7922 181.207 72.9912 184.332 73.8044 187.372L76.7492 198.383C77.5624 201.423 80.6818 203.227 83.7166 202.413L94.7067 199.462C97.7416 198.648 99.5426 195.523 98.7294 192.482L95.7846 181.472C94.9714 178.432 91.852 176.627 88.8172 177.442Z" fill="white"/>
<path d="M88.727 177.098L77.7369 180.048C74.5124 180.914 72.5989 184.234 73.4629 187.464L76.4076 198.475C77.2716 201.705 80.586 203.622 83.8105 202.757L94.8006 199.806C98.0251 198.941 99.9387 195.62 99.0747 192.39L96.1299 181.38C95.2659 178.149 91.9515 176.232 88.727 177.098Z" stroke="#F3F4F7"/>
<mask id="mask1_5522_80942" style="mask-type:luminance" maskUnits="userSpaceOnUse" x="78" y="182" width="17" height="16">
<path d="M90.7935 182.076L78.4297 185.395L81.7426 197.781L94.1064 194.462L90.7935 182.076Z" fill="white"/>
</mask>
<g mask="url(#mask1_5522_80942)">
<path d="M86.0563 185.006L86.6089 187.07C86.6452 187.207 86.7348 187.323 86.8571 187.395C86.9801 187.465 87.1252 187.484 87.2617 187.448L89.3225 186.894M86.0563 185.006L82.4503 185.973C82.1772 186.047 81.944 186.226 81.8025 186.471C81.6617 186.717 81.6233 187.008 81.6965 187.282L83.6286 194.508C83.7019 194.782 83.8811 195.015 84.1257 195.157C84.371 195.298 84.6619 195.337 84.9349 195.263L87.5113 194.572M86.0563 185.006L89.3225 186.894M89.3225 186.894L89.944 189.217M90.6523 192.899L92.2857 193.843M88.0581 192.489C88.1499 192.831 88.3731 193.123 88.6796 193.301C88.9854 193.477 89.3495 193.526 89.6908 193.434C90.0329 193.342 90.3237 193.118 90.5008 192.811C90.6779 192.505 90.7255 192.14 90.6338 191.797C90.5427 191.455 90.3187 191.164 90.013 190.987C89.7065 190.809 89.3424 190.761 89.0011 190.853C88.659 190.945 88.3682 191.169 88.1911 191.475C88.0147 191.782 87.9664 192.147 88.0581 192.489Z" stroke="#71717A" stroke-width="0.9" stroke-linecap="round" stroke-linejoin="round"/>
</g>
</g>
<g opacity="0.2" filter="url(#filter4_f_5522_80942)">
<path d="M489.255 167.164C417.165 219.493 374.811 324.891 374.811 324.891C374.811 324.891 329.81 311.196 313.137 308.246C353.698 284.016 351.317 223.891 377.435 180.725C398.467 171.195 467.372 172.537 489.255 167.164Z" fill="url(#paint3_linear_5522_80942)"/>
</g>
<g opacity="0.2" filter="url(#filter5_f_5522_80942)">
<path d="M-108.551 212.322C-49.1203 160.368 -19.7067 68.2949 -19.7067 68.2949C-19.7067 68.2949 20.8092 74.0872 35.6639 74.4811C1.84089 99.4151 8.36313 148.695 -11.3841 187.476C-29.1453 197.903 -89.7362 205.217 -108.551 212.322Z" fill="url(#paint4_linear_5522_80942)"/>
</g>
<g filter="url(#filter6_dd_5522_80942)">
<path d="M309.844 69.8164H48.1551C41.8713 69.8164 36.7773 74.9198 36.7773 81.2151V136.784C36.7773 143.079 41.8713 148.182 48.1551 148.182H309.844C316.128 148.182 321.222 143.079 321.222 136.784V81.2151C321.222 74.9198 316.128 69.8164 309.844 69.8164Z" fill="white"/>
<path d="M309.844 70.1719H48.155C42.0676 70.1719 37.1328 75.1158 37.1328 81.2144V136.783C37.1328 142.882 42.0676 147.825 48.155 147.825H309.844C315.931 147.825 320.866 142.882 320.866 136.783V81.2144C320.866 75.1158 315.931 70.1719 309.844 70.1719Z" stroke="#F3F4F7"/>
<g filter="url(#filter7_i_5522_80942)">
<path d="M295.622 84.0645H62.3771C57.6643 84.0645 53.8438 87.892 53.8438 92.6135V104.012C53.8438 108.734 57.6643 112.561 62.3771 112.561H295.622C300.334 112.561 304.155 108.734 304.155 104.012V92.6135C304.155 87.892 300.334 84.0645 295.622 84.0645Z" fill="#266AE9"/>
</g>
<path d="M133.332 94.8928H134.328V99.3312C134.328 99.7302 134.404 100.063 134.557 100.329C134.709 100.588 134.919 100.781 135.184 100.907C135.45 101.027 135.748 101.087 136.08 101.087C136.418 101.087 136.717 101.027 136.976 100.907C137.242 100.781 137.451 100.588 137.603 100.329C137.756 100.063 137.832 99.7302 137.832 99.3312V94.8928H138.827V99.3113C138.827 99.7636 138.751 100.155 138.599 100.488C138.453 100.814 138.247 101.087 137.981 101.306C137.722 101.519 137.427 101.679 137.095 101.785C136.77 101.891 136.428 101.944 136.07 101.944C135.592 101.944 135.144 101.851 134.726 101.665C134.308 101.472 133.969 101.183 133.71 100.797C133.459 100.405 133.332 99.9097 133.332 99.3113V94.8928ZM140.293 96.8876H141.149L141.209 97.4661C141.368 97.2602 141.57 97.1006 141.816 96.9873C142.062 96.8741 142.334 96.8178 142.633 96.8178C143.017 96.8178 143.349 96.9011 143.628 97.0671C143.913 97.2267 144.132 97.4661 144.285 97.7853C144.445 98.1044 144.524 98.5034 144.524 98.9821V101.875H143.588V99.1018C143.588 98.6366 143.489 98.2839 143.29 98.0446C143.097 97.7988 142.815 97.6755 142.444 97.6755C142.058 97.6755 141.759 97.8016 141.547 98.0546C141.335 98.3003 141.229 98.6665 141.229 99.1517V101.875H140.293V96.8876ZM145.873 94.6934H146.809V101.875H145.873V94.6934ZM150.416 101.944C149.945 101.944 149.52 101.841 149.141 101.635C148.77 101.422 148.478 101.126 148.265 100.747C148.053 100.362 147.947 99.9097 147.947 99.3911C147.947 98.866 148.056 98.41 148.275 98.0246C148.494 97.6392 148.793 97.3428 149.171 97.137C149.55 96.9239 149.975 96.8178 150.446 96.8178C150.917 96.8178 151.342 96.9239 151.72 97.137C152.105 97.3428 152.407 97.6392 152.626 98.0246C152.845 98.4036 152.954 98.8525 152.954 99.3711C152.954 99.8961 152.842 100.352 152.616 100.738C152.397 101.123 152.095 101.422 151.71 101.635C151.325 101.841 150.894 101.944 150.416 101.944ZM150.406 101.087C150.672 101.087 150.921 101.027 151.152 100.907C151.385 100.781 151.574 100.591 151.72 100.339C151.873 100.086 151.949 99.7636 151.949 99.3711C151.949 98.9857 151.876 98.6694 151.73 98.4236C151.591 98.1707 151.405 97.9847 151.172 97.865C150.941 97.7389 150.692 97.6755 150.426 97.6755C150.167 97.6755 149.925 97.7389 149.699 97.865C149.48 97.9847 149.301 98.1707 149.161 98.4236C149.022 98.6765 148.952 98.9985 148.952 99.3911C148.952 99.7765 149.019 100.096 149.151 100.349C149.291 100.594 149.47 100.781 149.689 100.907C149.908 101.027 150.147 101.087 150.406 101.087ZM156.229 101.944C155.751 101.944 155.33 101.838 154.965 101.625C154.599 101.406 154.314 101.107 154.109 100.728C153.909 100.349 153.81 99.9061 153.81 99.401C153.81 98.8888 153.912 98.44 154.119 98.0546C154.324 97.6691 154.609 97.3664 154.975 97.1469C155.339 96.9275 155.764 96.8178 156.249 96.8178C156.76 96.8178 157.208 96.9375 157.593 97.1769C157.984 97.4162 158.266 97.739 158.439 98.1443L157.593 98.4435C157.493 98.2106 157.324 98.0246 157.085 97.885C156.853 97.7454 156.588 97.6755 156.289 97.6755C155.983 97.6755 155.721 97.7489 155.502 97.895C155.283 98.0346 155.114 98.2341 154.995 98.4934C154.875 98.7463 154.815 99.0455 154.815 99.3911C154.815 99.9097 154.948 100.322 155.214 100.628C155.479 100.933 155.837 101.087 156.289 101.087C156.588 101.087 156.853 101.02 157.085 100.887C157.324 100.754 157.503 100.572 157.623 100.339L158.459 100.638C158.273 101.037 157.981 101.356 157.583 101.595C157.185 101.828 156.733 101.944 156.229 101.944ZM159.601 94.6934H160.547V98.9721H160.955L162.817 96.8876H164.091L161.781 99.3811L164.101 101.875H162.817L160.955 99.78H160.547V101.875H159.601V94.6934ZM173.304 94.8928V101.875H172.288L168.814 96.4687V101.875H167.818V94.8928H168.834L172.308 100.279V94.8928H173.304ZM176.967 101.944C176.489 101.944 176.064 101.835 175.693 101.615C175.327 101.389 175.039 101.08 174.827 100.688C174.621 100.295 174.518 99.8463 174.518 99.3412C174.518 98.856 174.621 98.4236 174.827 98.0446C175.032 97.6656 175.315 97.3664 175.673 97.1469C176.038 96.9275 176.45 96.8178 176.908 96.8178C177.372 96.8178 177.784 96.9211 178.142 97.127C178.5 97.3265 178.779 97.6093 178.978 97.9748C179.177 98.3338 179.273 98.7492 179.267 99.2215C179.267 99.3013 179.263 99.3846 179.257 99.4708C179.25 99.5506 179.24 99.6404 179.227 99.7401H175.544C175.564 100.006 175.636 100.242 175.763 100.448C175.895 100.648 176.061 100.804 176.26 100.917C176.466 101.03 176.698 101.087 176.957 101.087C177.289 101.087 177.577 101.023 177.823 100.897C178.069 100.764 178.242 100.588 178.341 100.368L179.157 100.658C178.958 101.063 178.666 101.379 178.281 101.605C177.903 101.831 177.465 101.944 176.967 101.944ZM178.242 98.9322C178.242 98.6929 178.182 98.477 178.062 98.284C177.943 98.0909 177.78 97.9413 177.575 97.8351C177.375 97.7219 177.149 97.6656 176.898 97.6656C176.671 97.6656 176.462 97.7219 176.27 97.8351C176.084 97.9413 175.925 98.0909 175.792 98.284C175.666 98.4699 175.586 98.6865 175.554 98.9322H178.242ZM182.397 101.875H181.501L179.938 96.8876H180.894L181.939 100.757L183.054 96.8876H183.95L185.026 100.738L186.061 96.8876H186.987L185.444 101.875H184.538L183.472 98.254L182.397 101.875ZM191.399 100.029C191.438 100.215 191.518 100.388 191.637 100.548C191.764 100.708 191.933 100.837 192.145 100.937C192.358 101.037 192.62 101.087 192.932 101.087C193.397 101.087 193.738 100.98 193.957 100.767C194.183 100.548 194.296 100.292 194.296 99.9994C194.296 99.7601 194.226 99.5642 194.087 99.411C193.954 99.2514 193.768 99.1182 193.529 99.012C193.297 98.8988 193.028 98.799 192.723 98.7128C192.457 98.633 192.195 98.5497 191.936 98.4635C191.684 98.3702 191.455 98.2576 191.249 98.1244C191.044 97.9847 190.881 97.8088 190.761 97.5958C190.642 97.3763 190.582 97.1035 190.582 96.7779C190.582 96.3725 190.679 96.0235 190.871 95.7306C191.064 95.4378 191.332 95.2156 191.677 95.0624C192.029 94.9028 192.434 94.823 192.892 94.823C193.277 94.823 193.622 94.8793 193.927 94.9926C194.233 95.0987 194.488 95.2555 194.694 95.4613C194.906 95.6608 195.062 95.9038 195.162 96.1894L194.256 96.5186C194.216 96.3725 194.133 96.2357 194.007 96.1097C193.881 95.9764 193.722 95.8703 193.529 95.7905C193.337 95.7107 193.121 95.6708 192.882 95.6708C192.637 95.6644 192.414 95.7043 192.215 95.7905C192.023 95.8703 191.866 95.9864 191.747 96.1396C191.635 96.2927 191.578 96.4751 191.578 96.6881C191.578 96.9211 191.645 97.1035 191.777 97.2367C191.91 97.3699 192.085 97.4796 192.304 97.5658C192.531 97.652 192.776 97.7354 193.041 97.8152C193.32 97.9014 193.592 97.9947 193.858 98.0944C194.124 98.1942 194.362 98.3203 194.574 98.4735C194.793 98.6266 194.97 98.819 195.102 99.0519C195.235 99.2778 195.301 99.5642 195.301 99.9097C195.301 100.282 195.215 100.621 195.042 100.927C194.87 101.233 194.608 101.479 194.256 101.665C193.911 101.851 193.476 101.944 192.952 101.944C192.521 101.944 192.132 101.878 191.787 101.745C191.442 101.612 191.157 101.429 190.931 101.196C190.712 100.957 190.566 100.681 190.493 100.368L191.399 100.029ZM199.524 101.875L199.444 101.146C199.291 101.399 199.092 101.595 198.847 101.735C198.608 101.868 198.296 101.934 197.911 101.934C197.552 101.934 197.247 101.878 196.995 101.765C196.743 101.645 196.547 101.482 196.408 101.276C196.275 101.063 196.208 100.817 196.208 100.538C196.208 100.119 196.364 99.7736 196.676 99.5008C196.989 99.2215 197.439 99.0484 198.03 98.9821L199.444 98.8225V98.4336C199.444 98.2205 199.358 98.041 199.185 97.895C199.012 97.7418 198.763 97.6656 198.439 97.6656C198.133 97.6656 197.875 97.7389 197.662 97.885C197.449 98.0246 197.307 98.2341 197.234 98.5133L196.398 98.2141C196.524 97.7753 196.77 97.4326 197.134 97.1868C197.506 96.941 197.954 96.8178 198.478 96.8178C199.102 96.8178 199.577 96.9738 199.902 97.2866C200.227 97.5993 200.39 98.0111 200.39 98.5233V101.875H199.524ZM199.444 99.5905L198.08 99.7601C197.788 99.8 197.569 99.8833 197.423 100.009C197.277 100.129 197.204 100.289 197.204 100.488C197.204 100.674 197.274 100.831 197.413 100.957C197.559 101.077 197.762 101.136 198.02 101.136C198.339 101.136 198.604 101.077 198.817 100.957C199.029 100.837 199.185 100.671 199.285 100.458C199.391 100.239 199.444 99.9859 199.444 99.7002V99.5905ZM202.275 96.8876L203.709 100.867L205.152 96.8876H206.148L204.206 101.875H203.191L201.26 96.8876H202.275ZM207.243 96.8876H208.189V101.875H207.243V96.8876ZM207.721 96.0099C207.542 96.0099 207.393 95.9501 207.273 95.8304C207.154 95.7107 207.094 95.5646 207.094 95.3915C207.094 95.212 207.154 95.0624 207.273 94.9427C207.393 94.8166 207.542 94.7532 207.721 94.7532C207.894 94.7532 208.04 94.8166 208.159 94.9427C208.285 95.0624 208.349 95.212 208.349 95.3915C208.349 95.5646 208.285 95.7107 208.159 95.8304C208.04 95.9501 207.894 96.0099 207.721 96.0099ZM209.758 96.8876H210.614L210.674 97.4661C210.833 97.2602 211.036 97.1006 211.281 96.9873C211.527 96.8741 211.799 96.8178 212.098 96.8178C212.482 96.8178 212.814 96.9011 213.093 97.0671C213.378 97.2267 213.597 97.4661 213.75 97.7853C213.909 98.1044 213.989 98.5034 213.989 98.9821V101.875H213.053V99.1018C213.053 98.6366 212.954 98.2839 212.755 98.0446C212.562 97.7988 212.28 97.6755 211.908 97.6755C211.524 97.6755 211.225 97.8016 211.012 98.0546C210.8 98.3003 210.694 98.6665 210.694 99.1517V101.875H209.758V96.8876ZM219.072 96.8876H219.928V101.057C219.928 101.642 219.789 102.144 219.51 102.563C219.231 102.982 218.83 103.304 218.306 103.53C217.788 103.756 217.161 103.869 216.424 103.869L216.275 103.041C217.163 103.022 217.838 102.842 218.296 102.503C218.754 102.17 218.983 101.689 218.983 101.057V101.007L219.092 101.017C218.933 101.27 218.704 101.489 218.405 101.675C218.113 101.855 217.748 101.944 217.31 101.944C216.865 101.944 216.47 101.838 216.125 101.625C215.787 101.412 215.521 101.113 215.329 100.728C215.143 100.342 215.05 99.8933 215.05 99.3811C215.05 98.8688 215.143 98.42 215.329 98.0346C215.521 97.6492 215.787 97.35 216.125 97.137C216.47 96.9239 216.865 96.8178 217.31 96.8178C217.582 96.8178 217.824 96.8541 218.037 96.9275C218.256 97.0009 218.445 97.1006 218.604 97.2267C218.764 97.3464 218.896 97.4825 219.002 97.6357L219.072 96.8876ZM216.056 99.3811C216.056 99.8933 216.188 100.305 216.454 100.618C216.725 100.931 217.087 101.087 217.539 101.087C217.804 101.087 218.047 101.02 218.266 100.887C218.485 100.747 218.657 100.552 218.783 100.299C218.916 100.039 218.983 99.7337 218.983 99.3811C218.983 99.022 218.916 98.7164 218.783 98.4635C218.657 98.2106 218.481 98.0182 218.256 97.885C218.037 97.7454 217.798 97.6755 217.539 97.6755C217.087 97.6755 216.725 97.8316 216.454 98.1443C216.188 98.4571 216.056 98.8688 216.056 99.3811ZM221.904 100.299C221.951 100.498 222.03 100.654 222.143 100.767C222.256 100.881 222.389 100.963 222.542 101.017C222.701 101.063 222.867 101.087 223.039 101.087C223.338 101.087 223.571 101.027 223.736 100.907C223.902 100.787 223.985 100.638 223.985 100.458C223.985 100.305 223.932 100.185 223.826 100.099C223.726 100.006 223.591 99.9332 223.418 99.8798C223.252 99.8263 223.073 99.7765 222.88 99.7302C222.707 99.6839 222.518 99.6304 222.313 99.5706C222.114 99.5107 221.924 99.4309 221.745 99.3312C221.572 99.225 221.43 99.0918 221.317 98.9322C221.204 98.7663 221.148 98.5568 221.148 98.3039C221.148 98.0047 221.227 97.7454 221.387 97.5259C221.552 97.3001 221.779 97.127 222.064 97.0073C222.356 96.8812 222.685 96.8178 223.049 96.8178C223.474 96.8178 223.846 96.9111 224.164 97.0971C224.489 97.2766 224.725 97.5494 224.871 97.9149L224.025 98.1942C223.979 98.0681 223.902 97.9648 223.796 97.885C223.69 97.8052 223.567 97.7518 223.428 97.7254C223.295 97.6919 223.162 97.6755 223.029 97.6755C222.777 97.6755 222.568 97.7254 222.402 97.8251C222.237 97.9249 222.153 98.0709 222.153 98.264C222.153 98.3702 222.18 98.4599 222.233 98.5333C222.286 98.5995 222.359 98.6565 222.452 98.7029C222.552 98.7427 222.668 98.7791 222.8 98.8126C222.933 98.846 223.076 98.8824 223.229 98.9223C223.428 98.9821 223.63 99.0484 223.836 99.1218C224.041 99.188 224.231 99.2749 224.403 99.3811C224.576 99.4872 224.716 99.6269 224.821 99.8C224.927 99.9731 224.984 100.185 224.991 100.438C224.991 100.731 224.908 100.99 224.742 101.216C224.583 101.442 224.354 101.622 224.055 101.755C223.763 101.881 223.414 101.944 223.01 101.944C222.518 101.944 222.1 101.835 221.755 101.615C221.41 101.396 221.178 101.057 221.058 100.598L221.904 100.299Z" fill="white"/>
<path d="M114.416 123.391V130.373H113.61L109.886 124.668V130.373H109.09V123.391H109.896L113.62 129.086V123.391H114.416ZM118.18 130.442C117.709 130.442 117.288 130.339 116.916 130.133C116.544 129.927 116.252 129.635 116.04 129.256C115.827 128.87 115.721 128.414 115.721 127.889C115.721 127.357 115.827 126.898 116.04 126.513C116.259 126.127 116.554 125.831 116.926 125.625C117.304 125.419 117.728 125.316 118.2 125.316C118.671 125.316 119.092 125.419 119.464 125.625C119.843 125.831 120.138 126.127 120.35 126.513C120.569 126.892 120.679 127.344 120.679 127.869C120.679 128.401 120.569 128.86 120.35 129.246C120.131 129.631 119.833 129.927 119.454 130.133C119.076 130.339 118.651 130.442 118.18 130.442ZM118.17 129.734C118.462 129.734 118.737 129.671 118.996 129.545C119.255 129.412 119.464 129.209 119.624 128.936C119.789 128.657 119.872 128.304 119.872 127.879C119.872 127.447 119.793 127.095 119.633 126.822C119.474 126.549 119.265 126.35 119.006 126.223C118.754 126.09 118.482 126.024 118.19 126.024C117.898 126.024 117.626 126.09 117.374 126.223C117.121 126.35 116.916 126.553 116.756 126.832C116.603 127.105 116.527 127.454 116.527 127.879C116.527 128.312 116.603 128.663 116.756 128.936C116.909 129.209 117.108 129.412 117.354 129.545C117.606 129.671 117.878 129.734 118.17 129.734ZM124.692 125.386H125.379L125.429 126.104C125.575 125.864 125.77 125.675 126.016 125.535C126.268 125.389 126.567 125.316 126.912 125.316C127.264 125.316 127.582 125.402 127.868 125.575C128.16 125.741 128.386 125.99 128.545 126.323C128.697 125.984 128.93 125.731 129.242 125.565C129.553 125.399 129.899 125.316 130.277 125.316C130.649 125.316 130.977 125.399 131.263 125.565C131.548 125.725 131.771 125.968 131.93 126.293C132.089 126.612 132.169 127.015 132.169 127.5V130.373H131.422V127.59C131.422 127.071 131.309 126.679 131.084 126.413C130.865 126.14 130.549 126.004 130.138 126.004C129.72 126.004 129.388 126.15 129.142 126.443C128.896 126.729 128.774 127.155 128.774 127.72V130.373H128.027V127.59C128.027 127.071 127.921 126.679 127.709 126.413C127.496 126.14 127.184 126.004 126.773 126.004C126.355 126.004 126.026 126.15 125.787 126.443C125.555 126.729 125.439 127.155 125.439 127.72V130.373H124.692V125.386ZM135.768 130.442C135.296 130.442 134.875 130.339 134.504 130.133C134.132 129.927 133.839 129.635 133.627 129.256C133.415 128.87 133.309 128.414 133.309 127.889C133.309 127.357 133.415 126.898 133.627 126.513C133.846 126.127 134.142 125.831 134.513 125.625C134.892 125.419 135.316 125.316 135.788 125.316C136.259 125.316 136.68 125.419 137.052 125.625C137.43 125.831 137.726 126.127 137.938 126.513C138.157 126.892 138.267 127.344 138.267 127.869C138.267 128.401 138.157 128.86 137.938 129.246C137.719 129.631 137.421 129.927 137.042 130.133C136.664 130.339 136.239 130.442 135.768 130.442ZM135.758 129.734C136.049 129.734 136.325 129.671 136.584 129.545C136.843 129.412 137.052 129.209 137.211 128.936C137.377 128.657 137.46 128.304 137.46 127.879C137.46 127.447 137.381 127.095 137.221 126.822C137.062 126.549 136.853 126.35 136.594 126.223C136.342 126.09 136.069 126.024 135.778 126.024C135.486 126.024 135.213 126.09 134.961 126.223C134.709 126.35 134.504 126.553 134.344 126.832C134.191 127.105 134.115 127.454 134.115 127.879C134.115 128.312 134.191 128.663 134.344 128.936C134.496 129.209 134.696 129.412 134.942 129.545C135.193 129.671 135.466 129.734 135.758 129.734ZM139.489 125.386H140.176L140.216 126.114C140.349 125.934 140.508 125.781 140.694 125.655C140.886 125.529 141.096 125.442 141.321 125.396C141.553 125.342 141.799 125.339 142.058 125.386V126.134C141.779 126.08 141.527 126.08 141.301 126.134C141.082 126.187 140.893 126.287 140.734 126.433C140.574 126.579 140.452 126.766 140.365 126.991C140.279 127.211 140.236 127.467 140.236 127.759V130.373H139.489V125.386ZM145.167 130.442C144.703 130.442 144.288 130.329 143.923 130.103C143.565 129.877 143.283 129.568 143.077 129.176C142.871 128.783 142.768 128.334 142.768 127.829C142.768 127.344 142.871 126.912 143.077 126.533C143.283 126.154 143.565 125.858 143.923 125.645C144.281 125.426 144.689 125.316 145.147 125.316C145.599 125.316 146.001 125.416 146.352 125.615C146.71 125.815 146.989 126.09 147.188 126.443C147.387 126.796 147.481 127.197 147.467 127.65C147.467 127.723 147.464 127.799 147.457 127.879C147.451 127.959 147.444 128.045 147.437 128.138H143.584C143.598 128.451 143.674 128.727 143.813 128.966C143.953 129.206 144.136 129.395 144.361 129.535C144.593 129.668 144.856 129.734 145.147 129.734C145.533 129.734 145.858 129.661 146.123 129.515C146.395 129.369 146.591 129.159 146.71 128.886L147.358 129.146C147.158 129.565 146.87 129.887 146.491 130.113C146.113 130.333 145.672 130.442 145.167 130.442ZM146.651 127.49C146.658 127.204 146.595 126.952 146.462 126.732C146.336 126.513 146.157 126.34 145.924 126.213C145.692 126.087 145.423 126.024 145.118 126.024C144.852 126.024 144.61 126.087 144.391 126.213C144.172 126.34 143.99 126.516 143.843 126.742C143.704 126.962 143.621 127.211 143.594 127.49H146.651ZM151.486 125.386H152.173L152.223 126.104C152.369 125.864 152.565 125.675 152.81 125.535C153.063 125.389 153.361 125.316 153.706 125.316C154.058 125.316 154.377 125.402 154.662 125.575C154.954 125.741 155.18 125.99 155.339 126.323C155.492 125.984 155.725 125.731 156.036 125.565C156.348 125.399 156.693 125.316 157.071 125.316C157.443 125.316 157.772 125.399 158.057 125.565C158.343 125.725 158.565 125.968 158.724 126.293C158.883 126.612 158.963 127.015 158.963 127.5V130.373H158.216V127.59C158.216 127.071 158.104 126.679 157.878 126.413C157.659 126.14 157.344 126.004 156.932 126.004C156.514 126.004 156.182 126.15 155.936 126.443C155.691 126.729 155.568 127.155 155.568 127.72V130.373H154.821V127.59C154.821 127.071 154.715 126.679 154.503 126.413C154.291 126.14 153.979 126.004 153.567 126.004C153.149 126.004 152.82 126.15 152.581 126.443C152.35 126.729 152.233 127.155 152.233 127.72V130.373H151.486V125.386ZM160.561 125.386H161.297V130.373H160.561V125.386ZM160.939 124.388C160.787 124.388 160.66 124.338 160.561 124.239C160.461 124.139 160.411 124.016 160.411 123.87C160.411 123.716 160.461 123.59 160.561 123.491C160.66 123.391 160.787 123.341 160.939 123.341C161.078 123.341 161.198 123.391 161.297 123.491C161.404 123.59 161.457 123.716 161.457 123.87C161.457 124.016 161.404 124.139 161.297 124.239C161.198 124.338 161.078 124.388 160.939 124.388ZM163.387 128.847C163.427 129.046 163.499 129.212 163.606 129.345C163.712 129.471 163.848 129.568 164.014 129.635C164.186 129.701 164.385 129.734 164.611 129.734C164.963 129.734 165.229 129.668 165.408 129.535C165.593 129.395 165.686 129.222 165.686 129.016C165.686 128.843 165.63 128.703 165.517 128.597C165.411 128.491 165.268 128.404 165.089 128.338C164.91 128.265 164.711 128.202 164.492 128.148C164.319 128.109 164.133 128.062 163.934 128.009C163.735 127.949 163.546 127.869 163.367 127.769C163.188 127.67 163.041 127.54 162.929 127.38C162.816 127.221 162.76 127.011 162.76 126.752C162.76 126.466 162.836 126.217 162.989 126.004C163.148 125.785 163.363 125.615 163.636 125.495C163.914 125.376 164.233 125.316 164.591 125.316C165.002 125.316 165.368 125.406 165.686 125.585C166.011 125.765 166.237 126.044 166.363 126.423L165.667 126.662C165.62 126.489 165.534 126.357 165.408 126.263C165.288 126.17 165.152 126.107 165 126.074C164.853 126.04 164.707 126.024 164.561 126.024C164.263 126.024 164.02 126.084 163.835 126.204C163.656 126.317 163.566 126.489 163.566 126.722C163.566 126.848 163.596 126.955 163.656 127.041C163.715 127.121 163.798 127.187 163.904 127.241C164.01 127.294 164.136 127.341 164.283 127.38C164.429 127.414 164.588 127.454 164.761 127.5C164.953 127.546 165.149 127.606 165.348 127.68C165.547 127.746 165.733 127.836 165.905 127.949C166.078 128.055 166.217 128.195 166.324 128.368C166.436 128.534 166.493 128.743 166.493 128.996C166.493 129.289 166.413 129.545 166.254 129.764C166.095 129.977 165.872 130.143 165.587 130.263C165.308 130.383 164.982 130.442 164.611 130.442C164.1 130.442 163.675 130.329 163.337 130.103C163.005 129.87 162.782 129.531 162.67 129.086L163.387 128.847ZM168.111 128.847C168.151 129.046 168.224 129.212 168.33 129.345C168.436 129.471 168.573 129.568 168.739 129.635C168.911 129.701 169.11 129.734 169.336 129.734C169.688 129.734 169.953 129.668 170.132 129.535C170.318 129.395 170.411 129.222 170.411 129.016C170.411 128.843 170.355 128.703 170.242 128.597C170.136 128.491 169.993 128.404 169.814 128.338C169.635 128.265 169.435 128.202 169.216 128.148C169.044 128.109 168.858 128.062 168.659 128.009C168.46 127.949 168.271 127.869 168.091 127.769C167.912 127.67 167.766 127.54 167.653 127.38C167.54 127.221 167.484 127.011 167.484 126.752C167.484 126.466 167.56 126.217 167.713 126.004C167.872 125.785 168.088 125.615 168.36 125.495C168.639 125.376 168.958 125.316 169.316 125.316C169.728 125.316 170.093 125.406 170.411 125.585C170.736 125.765 170.962 126.044 171.088 126.423L170.391 126.662C170.345 126.489 170.258 126.357 170.132 126.263C170.013 126.17 169.877 126.107 169.724 126.074C169.578 126.04 169.432 126.024 169.286 126.024C168.987 126.024 168.745 126.084 168.559 126.204C168.38 126.317 168.291 126.489 168.291 126.722C168.291 126.848 168.32 126.955 168.38 127.041C168.44 127.121 168.523 127.187 168.629 127.241C168.735 127.294 168.862 127.341 169.007 127.38C169.153 127.414 169.312 127.454 169.485 127.5C169.678 127.546 169.873 127.606 170.073 127.68C170.272 127.746 170.457 127.836 170.63 127.949C170.803 128.055 170.942 128.195 171.048 128.368C171.161 128.534 171.217 128.743 171.217 128.996C171.217 129.289 171.138 129.545 170.979 129.764C170.819 129.977 170.597 130.143 170.312 130.263C170.033 130.383 169.708 130.442 169.336 130.442C168.825 130.442 168.4 130.329 168.062 130.103C167.729 129.87 167.508 129.531 167.395 129.086L168.111 128.847ZM174.519 130.442C174.054 130.442 173.64 130.329 173.275 130.103C172.916 129.877 172.634 129.568 172.429 129.176C172.222 128.783 172.12 128.334 172.12 127.829C172.12 127.344 172.222 126.912 172.429 126.533C172.634 126.154 172.916 125.858 173.275 125.645C173.633 125.426 174.041 125.316 174.499 125.316C174.95 125.316 175.352 125.416 175.704 125.615C176.062 125.815 176.341 126.09 176.54 126.443C176.739 126.796 176.832 127.197 176.819 127.65C176.819 127.723 176.815 127.799 176.809 127.879C176.802 127.959 176.795 128.045 176.789 128.138H172.936C172.949 128.451 173.026 128.727 173.165 128.966C173.305 129.206 173.487 129.395 173.713 129.535C173.945 129.668 174.207 129.734 174.499 129.734C174.884 129.734 175.209 129.661 175.475 129.515C175.747 129.369 175.943 129.159 176.062 128.886L176.709 129.146C176.51 129.565 176.222 129.887 175.843 130.113C175.465 130.333 175.023 130.442 174.519 130.442ZM176.003 127.49C176.009 127.204 175.946 126.952 175.813 126.732C175.687 126.513 175.508 126.34 175.276 126.213C175.043 126.087 174.774 126.024 174.469 126.024C174.203 126.024 173.962 126.087 173.743 126.213C173.524 126.34 173.341 126.516 173.195 126.742C173.056 126.962 172.973 127.211 172.946 127.49H176.003ZM181.891 126.393L181.811 126.403V123.191H182.558V130.373H181.871L181.821 129.445C181.668 129.724 181.439 129.96 181.134 130.153C180.835 130.346 180.463 130.442 180.019 130.442C179.561 130.442 179.159 130.339 178.814 130.133C178.476 129.92 178.211 129.621 178.018 129.236C177.832 128.85 177.739 128.398 177.739 127.879C177.739 127.36 177.832 126.912 178.018 126.533C178.211 126.147 178.476 125.848 178.814 125.635C179.159 125.422 179.561 125.316 180.019 125.316C180.49 125.316 180.881 125.419 181.194 125.625C181.506 125.831 181.738 126.087 181.891 126.393ZM178.545 127.879C178.545 128.451 178.691 128.906 178.984 129.246C179.276 129.578 179.674 129.744 180.178 129.744C180.49 129.744 180.769 129.671 181.014 129.525C181.26 129.379 181.453 129.166 181.592 128.886C181.738 128.607 181.811 128.272 181.811 127.879C181.811 127.487 181.738 127.155 181.592 126.882C181.453 126.602 181.26 126.389 181.014 126.243C180.769 126.09 180.49 126.014 180.178 126.014C179.68 126.014 179.282 126.184 178.984 126.523C178.691 126.855 178.545 127.307 178.545 127.879ZM189.026 130.442C188.554 130.442 188.133 130.339 187.761 130.133C187.39 129.927 187.098 129.635 186.885 129.256C186.673 128.87 186.567 128.414 186.567 127.889C186.567 127.357 186.673 126.898 186.885 126.513C187.104 126.127 187.4 125.831 187.771 125.625C188.15 125.419 188.574 125.316 189.046 125.316C189.517 125.316 189.938 125.419 190.31 125.625C190.688 125.831 190.984 126.127 191.196 126.513C191.415 126.892 191.525 127.344 191.525 127.869C191.525 128.401 191.415 128.86 191.196 129.246C190.977 129.631 190.678 129.927 190.3 130.133C189.922 130.339 189.497 130.442 189.026 130.442ZM189.016 129.734C189.308 129.734 189.583 129.671 189.842 129.545C190.101 129.412 190.31 129.209 190.469 128.936C190.635 128.657 190.718 128.304 190.718 127.879C190.718 127.447 190.639 127.095 190.479 126.822C190.32 126.549 190.111 126.35 189.852 126.223C189.6 126.09 189.328 126.024 189.036 126.024C188.744 126.024 188.472 126.09 188.219 126.223C187.967 126.35 187.761 126.553 187.602 126.832C187.449 127.105 187.373 127.454 187.373 127.879C187.373 128.312 187.449 128.663 187.602 128.936C187.755 129.209 187.954 129.412 188.2 129.545C188.452 129.671 188.724 129.734 189.016 129.734ZM193.415 129.365L193.494 129.355V132.367H192.748V125.386H193.435L193.485 126.313C193.637 126.034 193.863 125.798 194.161 125.605C194.46 125.412 194.835 125.316 195.286 125.316C195.718 125.316 196.106 125.422 196.451 125.635C196.796 125.841 197.069 126.137 197.268 126.523C197.467 126.902 197.566 127.354 197.566 127.879C197.566 128.398 197.47 128.85 197.278 129.236C197.092 129.615 196.826 129.91 196.481 130.123C196.143 130.336 195.744 130.442 195.286 130.442C194.809 130.442 194.414 130.339 194.102 130.133C193.79 129.927 193.561 129.671 193.415 129.365ZM196.76 127.879C196.76 127.307 196.611 126.855 196.312 126.523C196.02 126.184 195.625 126.014 195.127 126.014C194.815 126.014 194.533 126.087 194.281 126.233C194.036 126.379 193.843 126.592 193.704 126.872C193.564 127.151 193.494 127.487 193.494 127.879C193.494 128.265 193.564 128.597 193.704 128.877C193.843 129.156 194.036 129.372 194.281 129.525C194.533 129.671 194.815 129.744 195.127 129.744C195.625 129.744 196.02 129.578 196.312 129.246C196.611 128.906 196.76 128.451 196.76 127.879ZM199.452 129.365L199.532 129.355V132.367H198.785V125.386H199.472L199.522 126.313C199.675 126.034 199.9 125.798 200.199 125.605C200.497 125.412 200.872 125.316 201.324 125.316C201.755 125.316 202.144 125.422 202.489 125.635C202.833 125.841 203.106 126.137 203.305 126.523C203.504 126.902 203.604 127.354 203.604 127.879C203.604 128.398 203.508 128.85 203.315 129.236C203.129 129.615 202.863 129.91 202.518 130.123C202.18 130.336 201.782 130.442 201.324 130.442C200.846 130.442 200.451 130.339 200.139 130.133C199.827 129.927 199.598 129.671 199.452 129.365ZM202.797 127.879C202.797 127.307 202.648 126.855 202.349 126.523C202.057 126.184 201.662 126.014 201.165 126.014C200.852 126.014 200.571 126.087 200.318 126.233C200.073 126.379 199.88 126.592 199.741 126.872C199.601 127.151 199.532 127.487 199.532 127.879C199.532 128.265 199.601 128.597 199.741 128.877C199.88 129.156 200.073 129.372 200.318 129.525C200.571 129.671 200.852 129.744 201.165 129.744C201.662 129.744 202.057 129.578 202.349 129.246C202.648 128.906 202.797 128.451 202.797 127.879ZM206.973 130.442C206.502 130.442 206.08 130.339 205.709 130.133C205.337 129.927 205.045 129.635 204.832 129.256C204.621 128.87 204.514 128.414 204.514 127.889C204.514 127.357 204.621 126.898 204.832 126.513C205.051 126.127 205.347 125.831 205.718 125.625C206.097 125.419 206.522 125.316 206.993 125.316C207.464 125.316 207.886 125.419 208.257 125.625C208.635 125.831 208.931 126.127 209.143 126.513C209.362 126.892 209.472 127.344 209.472 127.869C209.472 128.401 209.362 128.86 209.143 129.246C208.924 129.631 208.625 129.927 208.247 130.133C207.869 130.339 207.444 130.442 206.973 130.442ZM206.963 129.734C207.255 129.734 207.53 129.671 207.789 129.545C208.048 129.412 208.257 129.209 208.416 128.936C208.583 128.657 208.665 128.304 208.665 127.879C208.665 127.447 208.586 127.095 208.426 126.822C208.267 126.549 208.058 126.35 207.799 126.223C207.547 126.09 207.275 126.024 206.983 126.024C206.691 126.024 206.419 126.09 206.166 126.223C205.915 126.35 205.709 126.553 205.549 126.832C205.397 127.105 205.32 127.454 205.32 127.879C205.32 128.312 205.397 128.663 205.549 128.936C205.702 129.209 205.901 129.412 206.147 129.545C206.399 129.671 206.671 129.734 206.963 129.734ZM210.695 125.386H211.382L211.422 126.114C211.555 125.934 211.714 125.781 211.899 125.655C212.092 125.529 212.301 125.442 212.527 125.396C212.759 125.342 213.005 125.339 213.263 125.386V126.134C212.985 126.08 212.732 126.08 212.507 126.134C212.288 126.187 212.099 126.287 211.939 126.433C211.78 126.579 211.657 126.766 211.571 126.991C211.485 127.211 211.441 127.467 211.441 127.759V130.373H210.695V125.386ZM214.601 125.386V123.989H215.348V125.386H216.672V126.084H215.348V128.767C215.348 129.072 215.411 129.295 215.537 129.435C215.67 129.575 215.835 129.658 216.035 129.684C216.24 129.711 216.453 129.711 216.672 129.684V130.333C216.413 130.393 216.158 130.409 215.905 130.383C215.66 130.356 215.437 130.283 215.238 130.163C215.045 130.037 214.89 129.86 214.77 129.635C214.657 129.409 214.601 129.119 214.601 128.767V126.084H213.854V125.386H214.601ZM221.854 130.373H221.177L221.128 129.654C220.975 129.907 220.769 130.103 220.51 130.243C220.251 130.376 219.949 130.442 219.604 130.442C219.22 130.442 218.884 130.363 218.599 130.203C218.314 130.043 218.091 129.804 217.932 129.485C217.779 129.166 217.703 128.763 217.703 128.278V125.386H218.44V128.198C218.44 128.711 218.549 129.099 218.768 129.365C218.993 129.625 219.316 129.754 219.734 129.754C220.158 129.754 220.494 129.618 220.739 129.345C220.992 129.066 221.118 128.647 221.118 128.089V125.386H221.854V130.373ZM223.373 125.386H224.059L224.099 126.094C224.259 125.848 224.468 125.659 224.726 125.525C224.985 125.386 225.288 125.316 225.632 125.316C226.011 125.316 226.343 125.399 226.628 125.565C226.914 125.725 227.136 125.968 227.295 126.293C227.454 126.612 227.534 127.015 227.534 127.5V130.373H226.787V127.59C226.787 127.071 226.675 126.679 226.449 126.413C226.23 126.14 225.911 126.004 225.493 126.004C225.062 126.004 224.724 126.147 224.478 126.433C224.239 126.719 224.119 127.141 224.119 127.7V130.373H223.373V125.386ZM229.132 125.386H229.869V130.373H229.132V125.386ZM229.51 124.388C229.357 124.388 229.231 124.338 229.132 124.239C229.032 124.139 228.982 124.016 228.982 123.87C228.982 123.716 229.032 123.59 229.132 123.491C229.231 123.391 229.357 123.341 229.51 123.341C229.649 123.341 229.769 123.391 229.869 123.491C229.974 123.59 230.028 123.716 230.028 123.87C230.028 124.016 229.974 124.139 229.869 124.239C229.769 124.338 229.649 124.388 229.51 124.388ZM231.867 125.386V123.989H232.614V125.386H233.938V126.084H232.614V128.767C232.614 129.072 232.677 129.295 232.803 129.435C232.936 129.575 233.102 129.658 233.301 129.684C233.507 129.711 233.719 129.711 233.938 129.684V130.333C233.679 130.393 233.424 130.409 233.172 130.383C232.926 130.356 232.704 130.283 232.505 130.163C232.313 130.037 232.156 129.86 232.037 129.635C231.924 129.409 231.867 129.119 231.867 128.767V126.084H231.121V125.386H231.867ZM235.198 125.386H235.935V130.373H235.198V125.386ZM235.577 124.388C235.424 124.388 235.298 124.338 235.198 124.239C235.099 124.139 235.049 124.016 235.049 123.87C235.049 123.716 235.099 123.59 235.198 123.491C235.298 123.391 235.424 123.341 235.577 123.341C235.716 123.341 235.835 123.391 235.935 123.491C236.042 123.59 236.094 123.716 236.094 123.87C236.094 124.016 236.042 124.139 235.935 124.239C235.835 124.338 235.716 124.388 235.577 124.388ZM239.707 130.442C239.242 130.442 238.827 130.329 238.462 130.103C238.104 129.877 237.822 129.568 237.616 129.176C237.41 128.783 237.307 128.334 237.307 127.829C237.307 127.344 237.41 126.912 237.616 126.533C237.822 126.154 238.104 125.858 238.462 125.645C238.821 125.426 239.229 125.316 239.687 125.316C240.138 125.316 240.539 125.416 240.891 125.615C241.25 125.815 241.529 126.09 241.728 126.443C241.927 126.796 242.019 127.197 242.006 127.65C242.006 127.723 242.003 127.799 241.997 127.879C241.989 127.959 241.983 128.045 241.977 128.138H238.124C238.137 128.451 238.213 128.727 238.353 128.966C238.492 129.206 238.674 129.395 238.9 129.535C239.132 129.668 239.395 129.734 239.687 129.734C240.072 129.734 240.396 129.661 240.662 129.515C240.934 129.369 241.13 129.159 241.25 128.886L241.897 129.146C241.698 129.565 241.409 129.887 241.031 130.113C240.653 130.333 240.211 130.442 239.707 130.442ZM241.19 127.49C241.197 127.204 241.133 126.952 241.001 126.732C240.874 126.513 240.695 126.34 240.463 126.213C240.231 126.087 239.962 126.024 239.657 126.024C239.391 126.024 239.149 126.087 238.93 126.213C238.711 126.34 238.528 126.516 238.383 126.742C238.243 126.962 238.16 127.211 238.134 127.49H241.19ZM243.643 128.847C243.683 129.046 243.757 129.212 243.862 129.345C243.968 129.471 244.105 129.568 244.271 129.635C244.443 129.701 244.643 129.734 244.868 129.734C245.22 129.734 245.485 129.668 245.664 129.535C245.85 129.395 245.943 129.222 245.943 129.016C245.943 128.843 245.887 128.703 245.774 128.597C245.668 128.491 245.525 128.404 245.346 128.338C245.167 128.265 244.968 128.202 244.749 128.148C244.576 128.109 244.39 128.062 244.191 128.009C243.992 127.949 243.803 127.869 243.624 127.769C243.444 127.67 243.299 127.54 243.185 127.38C243.072 127.221 243.016 127.011 243.016 126.752C243.016 126.466 243.092 126.217 243.245 126.004C243.405 125.785 243.62 125.615 243.892 125.495C244.171 125.376 244.49 125.316 244.848 125.316C245.26 125.316 245.625 125.406 245.943 125.585C246.268 125.765 246.494 126.044 246.62 126.423L245.923 126.662C245.877 126.489 245.79 126.357 245.664 126.263C245.545 126.17 245.409 126.107 245.256 126.074C245.11 126.04 244.964 126.024 244.818 126.024C244.52 126.024 244.277 126.084 244.091 126.204C243.912 126.317 243.823 126.489 243.823 126.722C243.823 126.848 243.853 126.955 243.912 127.041C243.972 127.121 244.055 127.187 244.161 127.241C244.267 127.294 244.394 127.341 244.539 127.38C244.685 127.414 244.845 127.454 245.017 127.5C245.21 127.546 245.406 127.606 245.605 127.68C245.804 127.746 245.989 127.836 246.162 127.949C246.335 128.055 246.474 128.195 246.58 128.368C246.693 128.534 246.75 128.743 246.75 128.996C246.75 129.289 246.67 129.545 246.511 129.764C246.351 129.977 246.129 130.143 245.844 130.263C245.565 130.383 245.24 130.442 244.868 130.442C244.357 130.442 243.932 130.329 243.594 130.103C243.262 129.87 243.04 129.531 242.927 129.086L243.643 128.847ZM248.368 130.422C248.216 130.422 248.086 130.369 247.98 130.263C247.88 130.157 247.83 130.027 247.83 129.874C247.83 129.721 247.88 129.591 247.98 129.485C248.086 129.379 248.216 129.325 248.368 129.325C248.515 129.325 248.64 129.379 248.746 129.485C248.853 129.591 248.906 129.721 248.906 129.874C248.906 130.027 248.853 130.157 248.746 130.263C248.64 130.369 248.515 130.422 248.368 130.422Z" fill="#4B5563"/>
</g>
<g filter="url(#filter8_dd_5522_80942)">
<g filter="url(#filter9_dd_5522_80942)">
<path d="M276.227 97.5378C276.205 97.2322 276.268 96.9272 276.41 96.6558C276.551 96.3851 276.765 96.1586 277.028 96.0025C277.291 95.8465 277.592 95.7667 277.897 95.7717C278.202 95.7774 278.5 95.8679 278.757 96.0332L292.585 104.948C293.913 105.804 293.388 107.864 291.814 107.977L285.34 108.445C285.089 108.463 284.845 108.538 284.627 108.666C284.41 108.793 284.224 108.969 284.085 109.179L280.421 114.755C279.558 116.069 277.521 115.537 277.408 113.966L276.227 97.5378Z" fill="#27272A"/>
<path d="M276.227 97.5378C276.205 97.2322 276.268 96.9272 276.41 96.6558C276.551 96.3851 276.765 96.1586 277.028 96.0025C277.291 95.8465 277.592 95.7667 277.897 95.7717C278.202 95.7774 278.5 95.8679 278.757 96.0332L292.585 104.948C293.913 105.804 293.388 107.864 291.814 107.977L285.34 108.445C285.089 108.463 284.845 108.538 284.627 108.666C284.41 108.793 284.224 108.969 284.085 109.179L280.421 114.755C279.558 116.069 277.521 115.537 277.408 113.966L276.227 97.5378Z" stroke="#FAFAFA"/>
</g>
</g>
<rect width="358" height="230" fill="url(#paint5_linear_5522_80942)"/>
</g>
<defs>
<filter id="filter0_dd_5522_80942" x="64.2773" y="153.725" width="230.156" height="74.4844" filterUnits="userSpaceOnUse" color-interpolation-filters="sRGB">
<feFlood flood-opacity="0" result="BackgroundImageFix"/>
<feColorMatrix in="SourceAlpha" type="matrix" values="0 0 0 0 0 0 0 0 0 0 0 0 0 0 0 0 0 0 127 0" result="hardAlpha"/>
<feOffset dy="18"/>
<feGaussianBlur stdDeviation="8"/>
<feComposite in2="hardAlpha" operator="out"/>
<feColorMatrix type="matrix" values="0 0 0 0 0.0588235 0 0 0 0 0.141176 0 0 0 0 0.0666667 0 0 0 0.01 0"/>
<feBlend mode="normal" in2="BackgroundImageFix" result="effect1_dropShadow_5522_80942"/>
<feColorMatrix in="SourceAlpha" type="matrix" values="0 0 0 0 0 0 0 0 0 0 0 0 0 0 0 0 0 0 127 0" result="hardAlpha"/>
<feOffset dy="15"/>
<feGaussianBlur stdDeviation="10"/>
<feComposite in2="hardAlpha" operator="out"/>
<feColorMatrix type="matrix" values="0 0 0 0 0.0627451 0 0 0 0 0.0588235 0 0 0 0 0.141176 0 0 0 0.02 0"/>
<feBlend mode="normal" in2="effect1_dropShadow_5522_80942" result="effect2_dropShadow_5522_80942"/>
<feBlend mode="normal" in="SourceGraphic" in2="effect2_dropShadow_5522_80942" result="shape"/>
</filter>
<filter id="filter1_dd_5522_80942" x="74.2344" y="13.3789" width="210.957" height="74.4844" filterUnits="userSpaceOnUse" color-interpolation-filters="sRGB">
<feFlood flood-opacity="0" result="BackgroundImageFix"/>
<feColorMatrix in="SourceAlpha" type="matrix" values="0 0 0 0 0 0 0 0 0 0 0 0 0 0 0 0 0 0 127 0" result="hardAlpha"/>
<feOffset dy="18"/>
<feGaussianBlur stdDeviation="8"/>
<feComposite in2="hardAlpha" operator="out"/>
<feColorMatrix type="matrix" values="0 0 0 0 0.0588235 0 0 0 0 0.141176 0 0 0 0 0.0666667 0 0 0 0.01 0"/>
<feBlend mode="normal" in2="BackgroundImageFix" result="effect1_dropShadow_5522_80942"/>
<feColorMatrix in="SourceAlpha" type="matrix" values="0 0 0 0 0 0 0 0 0 0 0 0 0 0 0 0 0 0 127 0" result="hardAlpha"/>
<feOffset dy="15"/>
<feGaussianBlur stdDeviation="10"/>
<feComposite in2="hardAlpha" operator="out"/>
<feColorMatrix type="matrix" values="0 0 0 0 0.0627451 0 0 0 0 0.0588235 0 0 0 0 0.141176 0 0 0 0.02 0"/>
<feBlend mode="normal" in2="effect1_dropShadow_5522_80942" result="effect2_dropShadow_5522_80942"/>
<feBlend mode="normal" in="SourceGraphic" in2="effect2_dropShadow_5522_80942" result="shape"/>
</filter>
<filter id="filter2_dd_5522_80942" x="236.98" y="-1.83203" width="65.3555" height="65.4141" filterUnits="userSpaceOnUse" color-interpolation-filters="sRGB">
<feFlood flood-opacity="0" result="BackgroundImageFix"/>
<feColorMatrix in="SourceAlpha" type="matrix" values="0 0 0 0 0 0 0 0 0 0 0 0 0 0 0 0 0 0 127 0" result="hardAlpha"/>
<feOffset dy="4"/>
<feGaussianBlur stdDeviation="3"/>
<feComposite in2="hardAlpha" operator="out"/>
<feColorMatrix type="matrix" values="0 0 0 0 0.0627451 0 0 0 0 0.0588235 0 0 0 0 0.141176 0 0 0 0.03 0"/>
<feBlend mode="normal" in2="BackgroundImageFix" result="effect1_dropShadow_5522_80942"/>
<feColorMatrix in="SourceAlpha" type="matrix" values="0 0 0 0 0 0 0 0 0 0 0 0 0 0 0 0 0 0 127 0" result="hardAlpha"/>
<feOffset dy="12"/>
<feGaussianBlur stdDeviation="8"/>
<feComposite in2="hardAlpha" operator="out"/>
<feColorMatrix type="matrix" values="0 0 0 0 0.0627451 0 0 0 0 0.0588235 0 0 0 0 0.141176 0 0 0 0.08 0"/>
<feBlend mode="normal" in2="effect1_dropShadow_5522_80942" result="effect2_dropShadow_5522_80942"/>
<feBlend mode="normal" in="SourceGraphic" in2="effect2_dropShadow_5522_80942" result="shape"/>
</filter>
<filter id="filter3_dd_5522_80942" x="56.7539" y="172.389" width="59.0273" height="59.0762" filterUnits="userSpaceOnUse" color-interpolation-filters="sRGB">
<feFlood flood-opacity="0" result="BackgroundImageFix"/>
<feColorMatrix in="SourceAlpha" type="matrix" values="0 0 0 0 0 0 0 0 0 0 0 0 0 0 0 0 0 0 127 0" result="hardAlpha"/>
<feOffset dy="4"/>
<feGaussianBlur stdDeviation="3"/>
<feComposite in2="hardAlpha" operator="out"/>
<feColorMatrix type="matrix" values="0 0 0 0 0.0627451 0 0 0 0 0.0588235 0 0 0 0 0.141176 0 0 0 0.03 0"/>
<feBlend mode="normal" in2="BackgroundImageFix" result="effect1_dropShadow_5522_80942"/>
<feColorMatrix in="SourceAlpha" type="matrix" values="0 0 0 0 0 0 0 0 0 0 0 0 0 0 0 0 0 0 127 0" result="hardAlpha"/>
<feOffset dy="12"/>
<feGaussianBlur stdDeviation="8"/>
<feComposite in2="hardAlpha" operator="out"/>
<feColorMatrix type="matrix" values="0 0 0 0 0.0627451 0 0 0 0 0.0588235 0 0 0 0 0.141176 0 0 0 0.08 0"/>
<feBlend mode="normal" in2="effect1_dropShadow_5522_80942" result="effect2_dropShadow_5522_80942"/>
<feBlend mode="normal" in="SourceGraphic" in2="effect2_dropShadow_5522_80942" result="shape"/>
</filter>
<filter id="filter4_f_5522_80942" x="213.137" y="67.1641" width="376.117" height="357.727" filterUnits="userSpaceOnUse" color-interpolation-filters="sRGB">
<feFlood flood-opacity="0" result="BackgroundImageFix"/>
<feBlend mode="normal" in="SourceGraphic" in2="BackgroundImageFix" result="shape"/>
<feGaussianBlur stdDeviation="50" result="effect1_foregroundBlur_5522_80942"/>
</filter>
<filter id="filter5_f_5522_80942" x="-193.551" y="-16.7051" width="314.215" height="314.027" filterUnits="userSpaceOnUse" color-interpolation-filters="sRGB">
<feFlood flood-opacity="0" result="BackgroundImageFix"/>
<feBlend mode="normal" in="SourceGraphic" in2="BackgroundImageFix" result="shape"/>
<feGaussianBlur stdDeviation="42.5" result="effect1_foregroundBlur_5522_80942"/>
</filter>
<filter id="filter6_dd_5522_80942" x="4.63281" y="47.6719" width="348.734" height="142.654" filterUnits="userSpaceOnUse" color-interpolation-filters="sRGB">
<feFlood flood-opacity="0" result="BackgroundImageFix"/>
<feColorMatrix in="SourceAlpha" type="matrix" values="0 0 0 0 0 0 0 0 0 0 0 0 0 0 0 0 0 0 127 0" result="hardAlpha"/>
<feOffset dy="4"/>
<feGaussianBlur stdDeviation="8"/>
<feComposite in2="hardAlpha" operator="out"/>
<feColorMatrix type="matrix" values="0 0 0 0 0.0588235 0 0 0 0 0.141176 0 0 0 0 0.0666667 0 0 0 0.02 0"/>
<feBlend mode="normal" in2="BackgroundImageFix" result="effect1_dropShadow_5522_80942"/>
<feColorMatrix in="SourceAlpha" type="matrix" values="0 0 0 0 0 0 0 0 0 0 0 0 0 0 0 0 0 0 127 0" result="hardAlpha"/>
<feOffset dy="10"/>
<feGaussianBlur stdDeviation="16"/>
<feComposite in2="hardAlpha" operator="out"/>
<feColorMatrix type="matrix" values="0 0 0 0 0.0627451 0 0 0 0 0.0588235 0 0 0 0 0.141176 0 0 0 0.05 0"/>
<feBlend mode="normal" in2="effect1_dropShadow_5522_80942" result="effect2_dropShadow_5522_80942"/>
<feBlend mode="normal" in="SourceGraphic" in2="effect2_dropShadow_5522_80942" result="shape"/>
</filter>
<filter id="filter7_i_5522_80942" x="53.8438" y="84.0645" width="250.312" height="32.4961" filterUnits="userSpaceOnUse" color-interpolation-filters="sRGB">
<feFlood flood-opacity="0" result="BackgroundImageFix"/>
<feBlend mode="normal" in="SourceGraphic" in2="BackgroundImageFix" result="shape"/>
<feColorMatrix in="SourceAlpha" type="matrix" values="0 0 0 0 0 0 0 0 0 0 0 0 0 0 0 0 0 0 127 0" result="hardAlpha"/>
<feOffset dy="4"/>
<feGaussianBlur stdDeviation="6"/>
<feComposite in2="hardAlpha" operator="arithmetic" k2="-1" k3="1"/>
<feColorMatrix type="matrix" values="0 0 0 0 0.626803 0 0 0 0 0.756315 0 0 0 0 0.998197 0 0 0 0.5 0"/>
<feBlend mode="normal" in2="shape" result="effect1_innerShadow_5522_80942"/>
</filter>
<filter id="filter8_dd_5522_80942" x="267.723" y="91.2715" width="34.1172" height="36.7266" filterUnits="userSpaceOnUse" color-interpolation-filters="sRGB">
<feFlood flood-opacity="0" result="BackgroundImageFix"/>
<feColorMatrix in="SourceAlpha" type="matrix" values="0 0 0 0 0 0 0 0 0 0 0 0 0 0 0 0 0 0 127 0" result="hardAlpha"/>
<feOffset dy="2"/>
<feGaussianBlur stdDeviation="2"/>
<feComposite in2="hardAlpha" operator="out"/>
<feColorMatrix type="matrix" values="0 0 0 0 0.0627451 0 0 0 0 0.0588235 0 0 0 0 0.141176 0 0 0 0.06 0"/>
<feBlend mode="normal" in2="BackgroundImageFix" result="effect1_dropShadow_5522_80942"/>
<feColorMatrix in="SourceAlpha" type="matrix" values="0 0 0 0 0 0 0 0 0 0 0 0 0 0 0 0 0 0 127 0" result="hardAlpha"/>
<feOffset dy="4"/>
<feGaussianBlur stdDeviation="4"/>
<feComposite in2="hardAlpha" operator="out"/>
<feColorMatrix type="matrix" values="0 0 0 0 0.0627451 0 0 0 0 0.0588235 0 0 0 0 0.141176 0 0 0 0.1 0"/>
<feBlend mode="normal" in2="effect1_dropShadow_5522_80942" result="effect2_dropShadow_5522_80942"/>
<feBlend mode="normal" in="SourceGraphic" in2="effect2_dropShadow_5522_80942" result="shape"/>
</filter>
<filter id="filter9_dd_5522_80942" x="243.723" y="73.2715" width="82.1172" height="84.7266" filterUnits="userSpaceOnUse" color-interpolation-filters="sRGB">
<feFlood flood-opacity="0" result="BackgroundImageFix"/>
<feColorMatrix in="SourceAlpha" type="matrix" values="0 0 0 0 0 0 0 0 0 0 0 0 0 0 0 0 0 0 127 0" result="hardAlpha"/>
<feOffset dy="4"/>
<feGaussianBlur stdDeviation="8"/>
<feComposite in2="hardAlpha" operator="out"/>
<feColorMatrix type="matrix" values="0 0 0 0 0.0588235 0 0 0 0 0.141176 0 0 0 0 0.0666667 0 0 0 0.02 0"/>
<feBlend mode="normal" in2="BackgroundImageFix" result="effect1_dropShadow_5522_80942"/>
<feColorMatrix in="SourceAlpha" type="matrix" values="0 0 0 0 0 0 0 0 0 0 0 0 0 0 0 0 0 0 127 0" result="hardAlpha"/>
<feOffset dy="10"/>
<feGaussianBlur stdDeviation="16"/>
<feComposite in2="hardAlpha" operator="out"/>
<feColorMatrix type="matrix" values="0 0 0 0 0.0627451 0 0 0 0 0.0588235 0 0 0 0 0.141176 0 0 0 0.05 0"/>
<feBlend mode="normal" in2="effect1_dropShadow_5522_80942" result="effect2_dropShadow_5522_80942"/>
<feBlend mode="normal" in="SourceGraphic" in2="effect2_dropShadow_5522_80942" result="shape"/>
</filter>
<linearGradient id="paint0_linear_5522_80942" x1="228.777" y1="188.134" x2="228.777" y2="70.4414" gradientUnits="userSpaceOnUse">
<stop stop-color="#FAFAFA"/>
<stop offset="0.534678" stop-color="#266AE9"/>
<stop offset="1" stop-color="#FAFAFA"/>
</linearGradient>
<linearGradient id="paint1_linear_5522_80942" x1="28.7773" y1="227.134" x2="28.7773" y2="109.441" gradientUnits="userSpaceOnUse">
<stop stop-color="#FAFAFA"/>
<stop offset="0.534678" stop-color="#266AE9"/>
<stop offset="1" stop-color="#FAFAFA"/>
</linearGradient>
<linearGradient id="paint2_linear_5522_80942" x1="240.731" y1="61.4414" x2="134.777" y2="61.4414" gradientUnits="userSpaceOnUse">
<stop stop-color="#FAFAFA"/>
<stop offset="0.534678" stop-color="#266AE9"/>
<stop offset="1" stop-color="#FAFAFA"/>
</linearGradient>
<linearGradient id="paint3_linear_5522_80942" x1="236.229" y1="341.372" x2="193.853" y2="252.508" gradientUnits="userSpaceOnUse">
<stop stop-color="#5C85D5"/>
<stop offset="1" stop-color="#C3A7F3"/>
</linearGradient>
<linearGradient id="paint4_linear_5522_80942" x1="100.739" y1="37.7718" x2="142.951" y2="106.799" gradientUnits="userSpaceOnUse">
<stop stop-color="#5C85D5"/>
<stop offset="1" stop-color="#C3A7F3"/>
</linearGradient>
<linearGradient id="paint5_linear_5522_80942" x1="179" y1="4.90854" x2="179" y2="238.385" gradientUnits="userSpaceOnUse">
<stop stop-color="#FAFAFA"/>
<stop offset="0.197621" stop-color="#FAFAFA" stop-opacity="0"/>
<stop offset="0.644231" stop-color="#FAFAFA" stop-opacity="0"/>
<stop offset="0.867519" stop-color="#FAFAFA"/>
</linearGradient>
<clipPath id="clip0_5522_80942">
<rect width="358" height="230" fill="white"/>
</clipPath>
</defs>
</svg>
