<svg width="20" height="20" viewBox="0 0 20 20" fill="none" xmlns="http://www.w3.org/2000/svg">
<path d="M3.25 11.3064L5.2168 11.9783C5.83566 12.1895 6.40145 12.5331 6.87402 12.9851C7.28737 13.3805 7.62068 13.8508 7.85742 14.3699L7.95312 14.5955L8.02441 14.7927L8.69336 16.7498L9.0332 17.7468C8.67404 17.7079 8.33109 17.5097 8.14062 17.1492L8.09961 17.0623L8.05469 16.946L7.39062 14.9988C7.23568 14.5449 6.99669 14.1246 6.6875 13.7595L6.55078 13.6062C6.22159 13.2573 5.83022 12.9733 5.39746 12.7693L5.20898 12.6873L5.19629 12.6824L5.01562 12.614L5.00879 12.6121L5.00195 12.6091L3.03516 11.9382C2.56009 11.776 2.30138 11.3819 2.25488 10.9666L3.25 11.3064ZM16.0791 10.9646C16.0379 11.3516 15.812 11.7191 15.3975 11.8992L15.2949 11.9382L13.3311 12.6091C12.8123 12.7863 12.3372 13.0728 11.9385 13.449C11.5897 13.7781 11.3065 14.1696 11.1025 14.6023L11.0195 14.7908L11.0146 14.8035L10.9473 14.9841L10.9443 14.991L10.9424 14.9978L10.2705 16.9646C10.1082 17.4395 9.71441 17.6976 9.29883 17.7439L9.63965 16.7498L10.3115 14.783C10.4963 14.2415 10.7819 13.7406 11.1533 13.3074L11.3184 13.1257C11.7691 12.6545 12.317 12.2871 12.9238 12.0486L13.1162 11.9792L15.083 11.3064L16.0791 10.9646ZM8.69336 4.91675L8.02148 6.88354C7.81028 7.50251 7.46668 8.06813 7.01465 8.54077C6.61898 8.95447 6.14845 9.28834 5.62891 9.52515L5.41504 9.61597L5.2168 9.68823L3.25 10.3601L2.25195 10.7009C2.29347 10.3161 2.5196 9.95056 2.93066 9.77026L3.05469 9.72241L5.00195 9.05737C5.45586 8.90227 5.87622 8.66362 6.24121 8.35425L6.39355 8.21753C6.74234 7.88828 7.02652 7.497 7.23047 7.06421L7.3125 6.87671L7.31738 6.86304L7.38574 6.68335L7.3877 6.67651L7.39062 6.6687L8.06152 4.7019C8.22356 4.22771 8.61703 3.96839 9.03223 3.92163L8.69336 4.91675ZM9.29785 3.91968C9.65762 3.95819 10.0012 4.15691 10.1924 4.51831L10.2334 4.60522L10.2744 4.71655L10.9424 6.66968C11.0975 7.12334 11.3363 7.54312 11.6455 7.90796L11.7822 8.06128C12.1584 8.45977 12.6155 8.77344 13.123 8.98022L13.1299 8.98218L13.1377 8.98511L13.3184 9.05249L13.3311 9.05737L15.2979 9.72925C15.7719 9.89123 16.0302 10.284 16.0771 10.699L15.083 10.3601L13.1162 9.68823C12.5747 9.50346 12.0739 9.21781 11.6406 8.84644L11.459 8.6814C11.0455 8.28588 10.7114 7.81592 10.4746 7.29663L10.3789 7.07104L10.3096 6.87573H10.3086L9.63965 4.91675L9.29785 3.91968ZM15.833 2.16675C15.8642 2.16675 15.8951 2.17094 15.9248 2.17944L16.0098 2.21753C16.0614 2.24984 16.1025 2.296 16.1299 2.35034L16.1582 2.42065L16.4395 3.2478L16.5195 3.48022L16.752 3.55933L17.6074 3.85132H17.6084C17.6396 3.86198 17.6688 3.87718 17.6953 3.89624L17.7656 3.96362C17.8057 4.01599 17.8288 4.07943 17.833 4.14526C17.8351 4.17819 17.8327 4.21115 17.8252 4.24292L17.7891 4.33374C17.7567 4.38958 17.708 4.43354 17.6504 4.46265L17.5869 4.48901L16.752 4.77319L16.5195 4.85327L16.4404 5.08569L16.1484 5.94116C16.1378 5.97237 16.1225 6.00159 16.1035 6.02808L16.0361 6.09839C15.9838 6.13845 15.9203 6.16254 15.8545 6.16675L15.7568 6.15894C15.725 6.15145 15.6946 6.13844 15.666 6.12183C15.6374 6.10522 15.6111 6.08522 15.5889 6.06128L15.5342 5.98022L15.5127 5.92847L15.2266 5.08569L15.1465 4.85327L14.9141 4.77417L14.0586 4.48218H14.0576C14.0264 4.47153 13.9972 4.45631 13.9707 4.43726L13.9004 4.36987C13.8804 4.34373 13.865 4.31444 13.8535 4.28394L13.832 4.18823C13.8299 4.15529 13.8333 4.12236 13.8408 4.09058L13.877 3.99976C13.9093 3.944 13.9572 3.89898 14.0146 3.86987L14.0781 3.84351L14.9131 3.5603L15.1465 3.48022L15.2256 3.2478L15.5166 2.39233C15.5334 2.34303 15.5618 2.29866 15.5986 2.26245L15.6387 2.22925C15.6812 2.19883 15.73 2.17861 15.7812 2.17065L15.833 2.16675Z" fill="#3F3F46" stroke="#3F3F46"/>
</svg>
