<svg width="145" height="81" viewBox="0 0 145 81" fill="none" xmlns="http://www.w3.org/2000/svg">
<g opacity="0.15">
<path d="M43.0325 21.1644C44.7893 22.8818 47.1727 23.9632 49.8057 24.0183C48.8109 25.4686 48.231 27.2157 48.231 29.107C48.231 30.0399 48.3707 30.9305 48.6331 31.7743C47.9304 32.0669 47.1557 32.2323 46.3387 32.2323C43.0156 32.2323 40.3105 29.5226 40.3105 26.1937C40.3105 24.9809 40.6704 23.8614 41.2842 22.92L41.2927 22.9115C41.9784 22.4451 42.5753 21.8471 43.041 21.1602L43.0325 21.1644Z" fill="#1F2937"/>
<path d="M64.6478 29.1144C64.6478 33.2236 61.3162 36.5609 57.2142 36.5609C54.3313 36.5609 51.821 34.9071 50.5976 32.4857C50.4748 32.2482 50.369 32.0108 50.2801 31.7563C50.1743 31.5019 50.0939 31.2347 50.0261 30.9633C49.8695 30.3739 49.7891 29.7505 49.7891 29.1144C49.7891 27.0917 50.5976 25.2597 51.9057 23.9197L51.9777 23.8476C52.2063 23.8052 52.4348 23.7501 52.6634 23.6907C52.909 23.6186 53.1545 23.5423 53.4 23.4533C54.5261 23.0504 55.5632 22.4567 56.4734 21.7104C56.7189 21.6849 56.9644 21.668 57.2184 21.668C61.3205 21.668 64.652 25.0053 64.652 29.1144H64.6478Z" fill="#1F2937"/>
<path d="M84.4479 32.0077C83.3303 35.714 79.8887 38.4152 75.829 38.4152C70.8634 38.4152 66.8291 34.374 66.8291 29.3998C66.8291 26.4865 68.2091 23.8997 70.3512 22.2501C70.7025 22.2925 71.0624 22.3137 71.4222 22.3137C73.5219 22.3137 75.465 21.6268 77.0355 20.4648C78.6103 20.6684 80.0665 21.3002 81.2814 22.2247C81.0783 22.9922 80.9724 23.8022 80.9724 24.6291C80.9724 27.5975 82.3271 30.2521 84.4522 32.012L84.4479 32.0077Z" fill="#1F2937"/>
<path d="M98.489 24.9222C98.3324 29.1925 94.8145 32.6231 90.5093 32.6231C88.9261 32.6231 87.4529 32.1652 86.2126 31.3637C85.967 31.2068 85.73 31.0456 85.5014 30.8548C85.2558 30.6513 85.0188 30.4392 84.7902 30.2102C83.3847 28.7684 82.5254 26.8051 82.5254 24.6296C82.5254 24.2353 82.5508 23.8536 82.6058 23.4762C82.6566 23.1582 82.7201 22.8359 82.8006 22.5348C82.8725 22.2549 82.9657 21.9793 83.0715 21.7164C83.4652 20.7029 84.0578 19.7954 84.8029 19.0236C86.1364 19.6215 87.6138 19.9565 89.1716 19.9565C91.2544 19.9565 93.1974 19.3586 94.8484 18.3281C95.1109 21.0039 96.474 23.3532 98.4848 24.9222H98.489Z" fill="#1F2937"/>
<path d="M112.334 17.3763C112.334 21.7865 108.757 25.3783 104.354 25.3783C102.767 25.3783 101.281 24.9118 100.041 24.1019C99.7443 23.9153 99.4692 23.7117 99.1983 23.4828C98.8384 23.1774 98.504 22.8339 98.2034 22.4735L98.195 22.465C97.4923 21.6169 96.9673 20.6246 96.6668 19.539L96.6583 19.5305C96.5271 19.0768 96.4466 18.6061 96.3958 18.1227C96.3704 17.8767 96.3662 17.6307 96.3662 17.3763V17.1812C96.3662 17.1812 96.4043 17.1473 96.4212 17.1304C98.2034 15.5105 99.4269 13.2926 99.8036 10.8076C101.095 9.9044 102.67 9.38281 104.354 9.38281C108.757 9.38281 112.334 12.9661 112.334 17.3763Z" fill="#1F2937"/>
<path d="M65.0961 7.10135C65.0961 7.49573 65.0453 7.87738 64.9479 8.24631C64.7744 8.97569 64.4272 9.62874 63.9531 10.1758C63.6526 10.5362 63.2927 10.8458 62.8906 11.1002C62.6196 11.2741 62.336 11.4183 62.0228 11.5243C61.5063 11.7278 60.9517 11.8338 60.3633 11.8338C60.1898 11.8338 60.0204 11.8254 59.8553 11.8084C59.5675 11.7745 59.2923 11.7193 59.0214 11.6345C58.6869 11.537 58.3779 11.4055 58.0816 11.2402C56.7481 10.5108 55.8126 9.1538 55.6475 7.5763C55.6305 7.4194 55.6221 7.25825 55.6221 7.09287C55.6221 6.91477 55.6305 6.73242 55.6559 6.5628C55.6898 6.27444 55.7448 5.9988 55.8295 5.73588C56.4095 3.78097 58.2213 2.34766 60.3633 2.34766C62.5053 2.34766 64.3976 3.84458 64.931 5.8843C65.0199 6.19387 65.0707 6.51615 65.0792 6.85116C65.0961 6.93173 65.0961 7.01654 65.0961 7.09711V7.10135Z" fill="#1F2937"/>
<path d="M98.3652 9.19359C98.3652 9.4565 98.3567 9.71094 98.3355 9.96537C98.3017 10.3725 98.2339 10.7838 98.1535 11.1739C98.1535 11.1824 98.145 11.1824 98.145 11.1824C97.7767 12.8787 96.9386 14.3925 95.7787 15.5884C95.5585 15.8174 95.3257 16.0379 95.0844 16.233C95.0082 16.2966 94.9362 16.3559 94.8558 16.4111C94.7076 16.534 94.5595 16.6485 94.3944 16.7546C94.1446 16.9369 93.8737 17.1023 93.6028 17.2549C92.2905 17.9843 90.7792 18.3914 89.1748 18.3914C88.1376 18.3914 87.1343 18.2218 86.203 17.8953C85.9109 17.7977 85.6231 17.6832 85.3394 17.5518H85.331C85.0685 17.4288 84.8145 17.2889 84.569 17.1404C82.9773 16.216 81.6861 14.8166 80.8861 13.1416C80.3146 11.9457 79.9971 10.6015 79.9971 9.19359C79.9971 9.06637 79.9971 8.92643 79.9971 8.79497C80.213 3.90982 84.2473 0 89.1705 0C94.0938 0 98.3609 4.12185 98.3609 9.19359H98.3652Z" fill="#1F2937"/>
<path d="M58.4959 13.1123C58.5213 13.3879 58.534 13.6763 58.534 13.9604C58.534 16.4327 57.4756 18.6675 55.7823 20.2238C54.9018 21.0422 53.8477 21.6698 52.6794 22.0472C52.4254 22.1363 52.1629 22.2126 51.8962 22.2677C51.6803 22.3186 51.4602 22.3568 51.2401 22.3907C51.1681 22.3992 51.0961 22.4077 51.0115 22.4161C50.694 22.4543 50.368 22.4713 50.042 22.4713C47.9508 22.4713 46.0289 21.7037 44.543 20.4358C44.3145 20.245 44.1028 20.0414 43.8954 19.8294C43.8488 19.787 43.8065 19.7403 43.7768 19.6979C43.6287 19.541 43.489 19.3799 43.3577 19.206C43.3027 19.1339 43.2434 19.0618 43.1884 18.9855C42.9683 18.6844 42.7608 18.3579 42.583 18.0229C41.9946 16.95 41.6263 15.7287 41.5544 14.4354C41.5544 14.2827 41.5459 14.1258 41.5459 13.9604C41.5459 13.7314 41.5544 13.5109 41.5713 13.2904C41.5925 12.9808 41.6348 12.6798 41.6898 12.3744C42.4349 8.43068 45.8977 5.44531 50.042 5.44531C51.511 5.44531 52.891 5.81848 54.1017 6.48425C54.0763 6.6878 54.0679 6.89135 54.0679 7.0949C54.0679 9.91913 55.9305 12.3193 58.4959 13.1123Z" fill="#1F2937"/>
<path d="M78.4372 9.18734C78.4372 10.697 78.7462 12.1261 79.3093 13.4279C79.1484 15.5864 78.1113 17.5116 76.5492 18.8432C76.2232 19.123 75.8719 19.3775 75.5036 19.598H75.457C75.457 19.598 75.4485 19.598 75.4485 19.6065C74.2548 20.3274 72.917 20.7429 71.4185 20.7429H71.2322C70.792 20.7345 70.3686 20.6878 69.9495 20.603C66.2835 19.9075 63.498 16.6762 63.498 12.813C63.498 12.724 63.498 12.6434 63.5065 12.5544C65.3903 11.4645 66.6561 9.42481 66.6561 7.09249C66.6561 6.89743 66.6518 6.69388 66.6264 6.49881C67.9557 5.48107 69.6236 4.87891 71.4185 4.87891C74.4664 4.87891 77.1122 6.61331 78.4372 9.14918V9.18734Z" fill="#1F2937"/>
<path d="M39.9853 13.9701C39.9853 16.2134 40.7219 18.2828 41.9622 19.9536C41.9453 19.9875 41.9242 20.0172 41.8988 20.0511C41.4797 20.7636 40.8828 21.353 40.1843 21.7686C39.4392 22.2266 38.5629 22.481 37.6316 22.481C34.8969 22.481 32.666 20.2505 32.666 17.4983C32.666 14.7462 34.8969 12.5156 37.6316 12.5156C38.4994 12.5156 39.3165 12.7361 40.0276 13.139C39.9938 13.4146 39.9853 13.6945 39.9853 13.9701Z" fill="#1F2937"/>
<path d="M53.3617 72.7413V73.4574L46.9981 70.5257L53.3617 67.5545V68.417H62.4842V63.6852H51.8433V59.622H62.8386V54.6133H45.7334V77.746H63.181V72.7373H53.3577L53.3617 72.7413Z" fill="#1F2937"/>
<path d="M89.8196 54.6289L79.4525 66.4623L69.0533 54.6289H65.8594V77.7617H71.6954V65.4693L78.4738 73.3385H80.4474L87.2258 65.4693V77.7617H93.0618V54.6289H89.8196Z" fill="#1F2937"/>
<path d="M110.09 54.4883H107.605L95.6592 77.7595H102.011L103.815 74.0326H113.912L115.692 77.7595H122.064L110.094 54.4883H110.09ZM105.853 69.7796L108.838 63.5285L111.862 69.7796H105.853Z" fill="#1F2937"/>
<path d="M60.5922 77.7119L60.5078 77.7521V77.6758L60.5922 77.7119Z" fill="#1F2937"/>
<path d="M42.9907 72.7529V77.7577H25.5391V54.6289H42.6483V59.6337H31.6489V63.6968H36.0068V63.1192L37.2634 63.6968L42.2899 66.0113V66.0904L37.2594 68.4326L36.0068 69.0181V68.4326H31.6489V72.7529H42.9907Z" fill="#1F2937"/>
<path d="M22.8969 72.3379C22.8969 75.0678 21.8618 77.224 19.8319 78.7393C17.8181 80.2348 15.18 80.9984 11.9781 80.9984C8.77615 80.9984 6.06557 80.2348 3.79803 78.7353C2.65016 77.9757 1.76006 77.0301 1.13176 75.9026C0.499422 74.7711 0.128882 73.4576 0.0161093 71.9779L0 71.7168H5.70712L5.73531 71.9304C5.92863 73.505 6.61735 74.6009 7.84577 75.2814C9.09836 75.9698 10.4879 76.3259 11.9741 76.3259C13.4603 76.3259 14.6645 76.0094 15.7036 75.3922C16.7226 74.7869 17.21 73.9046 17.21 72.6979C17.21 72.057 17.0609 71.4833 16.7629 70.9888C16.4648 70.4982 15.9574 70.0512 15.2606 69.6674C14.5356 69.2678 13.863 68.9592 13.2589 68.7337C12.6547 68.5161 11.7606 68.2233 10.5966 67.8791C7.3101 66.8623 4.81299 65.711 3.16972 64.449C1.49021 63.1552 0.632334 61.2918 0.632334 58.8903C0.632334 56.2673 1.63521 54.202 3.62484 52.754C5.58629 51.3179 8.18812 50.5859 11.3538 50.5859C14.3141 50.5859 16.8676 51.2902 18.9338 52.6788C21.0241 54.0873 22.2042 56.2752 22.4338 59.1831L22.4579 59.4442H16.8555L16.8273 59.2385C16.6098 57.8577 15.9856 56.8251 14.9666 56.1723C13.9234 55.5076 12.7111 55.1713 11.3619 55.1713C10.0126 55.1713 8.80032 55.472 7.78133 56.0655C6.79054 56.6391 6.30723 57.4937 6.30723 58.6727C6.30723 59.1712 6.42403 59.6341 6.65763 60.0337C6.90331 60.457 7.17316 60.8052 7.46315 61.0742C7.74508 61.3432 8.2284 61.6123 8.90906 61.8892C9.60181 62.1701 10.1496 62.3798 10.5402 62.5143C10.9309 62.6449 11.5834 62.8506 12.5379 63.1315C13.9919 63.5944 15.0753 63.9544 15.76 64.1997C16.4528 64.449 17.3509 64.8406 18.4384 65.3748C19.546 65.9168 20.3676 66.4707 20.8751 67.0166C21.3826 67.5626 21.8498 68.2985 22.2606 69.2084C22.6714 70.1263 22.8848 71.1748 22.8848 72.326L22.8969 72.3379Z" fill="#1F2937"/>
<path d="M144.999 72.3379C144.999 75.0678 143.972 77.224 141.934 78.7393C139.921 80.2348 137.282 80.9984 134.089 80.9984C130.895 80.9984 128.176 80.2348 125.909 78.7353C123.613 77.22 122.344 74.9451 122.127 71.9779L122.106 71.7168H127.818L127.842 71.9304C128.035 73.505 128.728 74.6009 129.956 75.2814C131.201 75.9698 132.59 76.3259 134.085 76.3259C135.579 76.3259 136.771 76.0094 137.814 75.3922C138.829 74.7869 139.32 73.9046 139.32 72.6979C139.32 72.057 139.167 71.4833 138.869 70.9888C138.571 70.4982 138.068 70.0512 137.367 69.6674C136.646 69.2678 135.969 68.9592 135.369 68.7337C134.761 68.5161 133.867 68.2233 132.703 67.8791C129.421 66.8623 126.923 65.711 125.276 64.449C123.597 63.1552 122.739 61.2918 122.739 58.8903C122.739 56.2673 123.746 54.202 125.731 52.754C127.693 51.3179 130.295 50.5859 133.46 50.5859C136.429 50.5859 138.978 51.2902 141.044 52.6788C143.131 54.0873 144.315 56.2752 144.544 59.1831L144.564 59.4442H138.966L138.93 59.2385C138.712 57.8379 138.104 56.833 137.069 56.1723C136.03 55.5076 134.818 55.1713 133.468 55.1713C132.119 55.1713 130.907 55.472 129.888 56.0655C128.893 56.6391 128.414 57.4937 128.414 58.6727C128.414 59.1712 128.53 59.6341 128.764 60.0337C129.006 60.457 129.28 60.8052 129.566 61.0742C129.852 61.3432 130.339 61.6123 131.011 61.8892C131.708 62.1701 132.256 62.3798 132.647 62.5143C133.033 62.6449 133.702 62.8506 134.64 63.1315C136.094 63.5944 137.178 63.9544 137.862 64.1997C138.555 64.449 139.461 64.8406 140.549 65.3748C141.656 65.9168 142.478 66.4707 142.986 67.0166C143.493 67.5626 143.96 68.2985 144.367 69.2084C144.782 70.1263 144.991 71.1748 144.991 72.326L144.999 72.3379Z" fill="#1F2937"/>
</g>
</svg>
