<svg width="149" height="24" viewBox="0 0 149 24" fill="none" xmlns="http://www.w3.org/2000/svg">
<path d="M6.50639 13.2225C7.60895 14.2955 9.1047 14.971 10.7572 15.0055C10.1329 15.9115 9.76889 17.003 9.76889 18.1846C9.76889 18.7674 9.85656 19.3238 10.0213 19.851C9.58026 20.0338 9.09407 20.1371 8.58132 20.1371C6.49576 20.1371 4.7981 18.4442 4.7981 16.3645C4.7981 15.6068 5.02392 14.9074 5.40915 14.3193L5.41446 14.314C5.84486 14.0226 6.21946 13.649 6.51171 13.2198L6.50639 13.2225Z" fill="white"/>
<path d="M20.0711 18.187C20.0711 20.7542 17.9802 22.8392 15.4058 22.8392C13.5966 22.8392 12.0211 21.8059 11.2533 20.2932C11.1762 20.1449 11.1098 19.9965 11.054 19.8375C10.9876 19.6786 10.9371 19.5117 10.8946 19.3421C10.7963 18.9739 10.7458 18.5844 10.7458 18.187C10.7458 16.9233 11.2533 15.7788 12.0742 14.9417L12.1194 14.8966C12.2629 14.8701 12.4063 14.8357 12.5498 14.7986C12.7039 14.7536 12.858 14.7059 13.0121 14.6503C13.7188 14.3986 14.3697 14.0277 14.9409 13.5614C15.095 13.5455 15.2491 13.5349 15.4085 13.5349C17.9829 13.5349 20.0737 15.6199 20.0737 18.187H20.0711Z" fill="white"/>
<path d="M32.4979 19.997C31.7965 22.3124 29.6365 24 27.0887 24C23.9723 24 21.4404 21.4753 21.4404 18.3677C21.4404 16.5476 22.3065 14.9316 23.6509 13.901C23.8714 13.9275 24.0972 13.9407 24.323 13.9407C25.6408 13.9407 26.8602 13.5115 27.8459 12.7856C28.8342 12.9128 29.7481 13.3076 30.5106 13.8851C30.3831 14.3646 30.3167 14.8706 30.3167 15.3872C30.3167 17.2417 31.1668 18.9002 32.5005 19.9996L32.4979 19.997Z" fill="white"/>
<path d="M41.3097 15.5699C41.2114 18.2378 39.0036 20.381 36.3017 20.381C35.308 20.381 34.3835 20.0949 33.6051 19.5942C33.451 19.4962 33.3022 19.3955 33.1587 19.2763C33.0046 19.1491 32.8558 19.0166 32.7124 18.8736C31.8303 17.9728 31.291 16.7462 31.291 15.3871C31.291 15.1408 31.307 14.9023 31.3415 14.6665C31.3734 14.4678 31.4132 14.2665 31.4637 14.0784C31.5089 13.9035 31.5673 13.7313 31.6337 13.5671C31.8808 12.9339 32.2528 12.367 32.7204 11.8848C33.5572 12.2583 34.4844 12.4676 35.4621 12.4676C36.7693 12.4676 37.9887 12.0941 39.0248 11.4503C39.1896 13.122 40.045 14.5897 41.307 15.5699H41.3097Z" fill="white"/>
<path d="M49.9998 10.8567C49.9998 13.6119 47.7549 15.8559 44.9918 15.8559C43.9955 15.8559 43.063 15.5644 42.2846 15.0584C42.0986 14.9419 41.9259 14.8147 41.7559 14.6716C41.5301 14.4809 41.3202 14.2663 41.1315 14.0411L41.1262 14.0358C40.6852 13.5059 40.3558 12.886 40.1671 12.2078L40.1618 12.2025C40.0795 11.919 40.029 11.625 39.9971 11.3229C39.9812 11.1693 39.9785 11.0156 39.9785 10.8567V10.7348C39.9785 10.7348 40.0024 10.7136 40.0131 10.703C41.1316 9.69099 41.8994 8.30542 42.1358 6.75295C42.9461 6.18865 43.9344 5.86279 44.9918 5.86279C47.7549 5.86279 49.9998 8.10143 49.9998 10.8567Z" fill="white"/>
<path d="M20.3531 4.43505C20.3531 4.68143 20.3212 4.91986 20.2601 5.15035C20.1511 5.60603 19.9333 6.01401 19.6357 6.35577C19.4471 6.58096 19.2213 6.77436 18.9689 6.93331C18.7989 7.04193 18.6208 7.13201 18.4242 7.19824C18.1001 7.32541 17.7521 7.39164 17.3828 7.39164C17.2739 7.39164 17.1676 7.38634 17.064 7.37574C16.8833 7.35455 16.7106 7.32011 16.5406 7.26712C16.3307 7.20619 16.1368 7.12406 15.9508 7.02074C15.1139 6.56506 14.5268 5.7173 14.4232 4.73177C14.4125 4.63374 14.4072 4.53307 14.4072 4.42975C14.4072 4.31848 14.4125 4.20456 14.4285 4.09859C14.4497 3.91844 14.4843 3.74624 14.5374 3.58198C14.9014 2.36066 16.0385 1.46521 17.3828 1.46521C18.7271 1.46521 19.9147 2.4004 20.2494 3.6747C20.3052 3.8681 20.3371 4.06945 20.3424 4.27874C20.3531 4.32908 20.3531 4.38206 20.3531 4.4324V4.43505Z" fill="white"/>
<path d="M41.233 5.74363C41.233 5.90788 41.2277 6.06684 41.2144 6.22579C41.1932 6.48013 41.1506 6.73711 41.1002 6.98084C41.1002 6.98614 41.0948 6.98614 41.0948 6.98614C40.8637 8.04585 40.3377 8.99164 39.6097 9.73873C39.4716 9.88179 39.3255 10.0196 39.174 10.1414C39.1262 10.1812 39.081 10.2183 39.0305 10.2527C38.9376 10.3295 38.8446 10.4011 38.741 10.4673C38.5842 10.5812 38.4142 10.6845 38.2442 10.7799C37.4206 11.2356 36.4721 11.4899 35.4652 11.4899C34.8143 11.4899 34.1846 11.3839 33.6001 11.1799C33.4168 11.119 33.2362 11.0475 33.0582 10.9653H33.0528C32.8881 10.8885 32.7287 10.8011 32.5746 10.7084C31.5757 10.1308 30.7654 9.25657 30.2632 8.2101C29.9046 7.46301 29.7053 6.62319 29.7053 5.74363C29.7053 5.66415 29.7053 5.57672 29.7053 5.4946C29.8408 2.44263 32.3727 0 35.4625 0C38.5523 0 41.2303 2.57509 41.2303 5.74363H41.233Z" fill="white"/>
<path d="M16.2112 8.19418C16.2271 8.36639 16.2351 8.54654 16.2351 8.72404C16.2351 10.2686 15.5709 11.6647 14.5082 12.637C13.9556 13.1483 13.294 13.5404 12.5608 13.7762C12.4014 13.8318 12.2366 13.8795 12.0693 13.914C11.9338 13.9458 11.7956 13.9696 11.6575 13.9908C11.6123 13.9961 11.5671 14.0014 11.514 14.0067C11.3147 14.0305 11.1102 14.0411 10.9056 14.0411C9.59316 14.0411 8.387 13.5616 7.45447 12.7695C7.31101 12.6503 7.17817 12.5231 7.04798 12.3906C7.01876 12.3641 6.99219 12.335 6.9736 12.3085C6.88061 12.2105 6.79294 12.1098 6.71058 12.0012C6.67604 11.9562 6.63884 11.9111 6.60431 11.8634C6.46615 11.6753 6.33598 11.4713 6.22439 11.262C5.8551 10.5918 5.62396 9.82879 5.5788 9.02076C5.5788 8.92538 5.57349 8.82736 5.57349 8.72404C5.57349 8.58098 5.5788 8.44322 5.58943 8.30545C5.60271 8.11206 5.62928 7.92396 5.66382 7.73321C6.1314 5.26939 8.30463 3.4043 10.9056 3.4043C11.8275 3.4043 12.6936 3.63743 13.4534 4.05337C13.4375 4.18053 13.4322 4.3077 13.4322 4.43486C13.4322 6.19928 14.6012 7.69877 16.2112 8.19418Z" fill="white"/>
<path d="M28.7253 5.74379C28.7253 6.68693 28.9193 7.57973 29.2726 8.39306C29.1717 9.74154 28.5207 10.9443 27.5404 11.7762C27.3358 11.951 27.1153 12.11 26.8842 12.2478H26.855C26.855 12.2478 26.8496 12.2478 26.8496 12.2531C26.1004 12.7034 25.2609 12.9631 24.3204 12.9631H24.2035C23.9272 12.9578 23.6615 12.9286 23.3985 12.8756C21.0978 12.4412 19.3496 10.4224 19.3496 8.00892C19.3496 7.95328 19.3496 7.90295 19.3549 7.84731C20.5372 7.16645 21.3316 5.89215 21.3316 4.43505C21.3316 4.31318 21.3289 4.18601 21.313 4.06415C22.1472 3.42832 23.1939 3.05212 24.3204 3.05212C26.2333 3.05212 27.8938 4.13568 28.7253 5.71994V5.74379Z" fill="white"/>
<path d="M4.59354 8.72413C4.59354 10.1256 5.05581 11.4184 5.83424 12.4623C5.82362 12.4835 5.81034 12.502 5.79439 12.5232C5.53138 12.9683 5.15677 13.3365 4.71841 13.5961C4.25082 13.8823 3.70087 14.0412 3.11638 14.0412C1.40011 14.0412 0 12.6477 0 10.9283C0 9.20895 1.40011 7.81543 3.11638 7.81543C3.66102 7.81543 4.17377 7.95319 4.6201 8.20487C4.59885 8.37708 4.59354 8.55193 4.59354 8.72413Z" fill="white"/>
<path d="M91.4894 15.8466V16.2939L87.4956 14.4624L91.4894 12.6062V13.145H97.2146V10.1888H90.5364V7.65041H97.437V4.52124H86.7019V18.9733H97.6519V15.8441H91.4868L91.4894 15.8466Z" fill="white"/>
<path d="M114.371 4.52368L107.864 11.9165L101.338 4.52368H99.3335V18.9757H102.996V11.2961L107.25 16.2123H108.489L112.743 11.2961V18.9757H116.406V4.52368H114.371Z" fill="white"/>
<path d="M127.092 4.43713H125.532L118.035 18.9757H122.021L123.154 16.6473H129.491L130.608 18.9757H134.607L127.094 4.43713H127.092ZM124.433 13.9902L126.306 10.085L128.204 13.9902H124.433Z" fill="white"/>
<path d="M96.0267 18.9492L95.9734 18.9746V18.9264L96.0267 18.9492Z" fill="white"/>
<path d="M84.9811 15.8465V18.9732H74.0286V4.52368H84.7662V7.65038H77.8631V10.1888H80.598V9.82794L81.3867 10.1888L84.5412 11.6348V11.6842L81.3842 13.1474L80.598 13.5132V13.1474H77.8631V15.8465H84.9811Z" fill="white"/>
<path d="M72.3699 15.5894C72.3699 17.2949 71.7203 18.6419 70.4464 19.5886C69.1825 20.5229 67.5269 20.9999 65.5174 20.9999C63.5078 20.9999 61.8067 20.5229 60.3836 19.5861C59.6632 19.1116 59.1046 18.5208 58.7103 17.8164C58.3134 17.1095 58.0809 16.2889 58.0101 15.3645L58 15.2013H61.5817L61.5994 15.3348C61.7208 16.3185 62.153 17.0032 62.9239 17.4283C63.7101 17.8584 64.5821 18.0809 65.5148 18.0809C66.4476 18.0809 67.2033 17.8831 67.8555 17.4975C68.495 17.1194 68.8008 16.5682 68.8008 15.8143C68.8008 15.4139 68.7073 15.0555 68.5203 14.7465C68.3332 14.44 68.0147 14.1607 67.5774 13.921C67.1224 13.6714 66.7003 13.4786 66.3212 13.3377C65.942 13.2017 65.3809 13.0188 64.6504 12.8038C62.5878 12.1686 61.0206 11.4493 59.9893 10.6608C58.9352 9.85258 58.3968 8.68841 58.3968 7.18809C58.3968 5.54936 59.0262 4.25913 60.2749 3.35449C61.5059 2.45726 63.1388 2 65.1256 2C66.9834 2 68.586 2.43996 69.8827 3.30753C71.1946 4.18745 71.9352 5.5543 72.0793 7.371L72.0944 7.53413H68.5784L68.5607 7.4056C68.4242 6.54298 68.0324 5.89786 67.3929 5.49003C66.7382 5.07479 65.9774 4.8647 65.1306 4.8647C64.2838 4.8647 63.523 5.05254 62.8835 5.4233C62.2617 5.78169 61.9584 6.31558 61.9584 7.05215C61.9584 7.36358 62.0317 7.65277 62.1783 7.90241C62.3325 8.16688 62.5018 8.38439 62.6838 8.55247C62.8608 8.72054 63.1641 8.88862 63.5913 9.06164C64.026 9.23713 64.3698 9.36813 64.615 9.45216C64.8602 9.53373 65.2696 9.66226 65.8687 9.83775C66.7812 10.1269 67.4612 10.3519 67.8909 10.5051C68.3256 10.6608 68.8893 10.9055 69.5718 11.2392C70.2669 11.5778 70.7825 11.9239 71.101 12.265C71.4195 12.6061 71.7127 13.0658 71.9706 13.6343C72.2284 14.2077 72.3624 14.8627 72.3624 15.582L72.3699 15.5894Z" fill="white"/>
<path d="M149 15.5894C149 17.2949 148.355 18.6419 147.076 19.5886C145.813 20.5229 144.157 20.9999 142.152 20.9999C140.148 20.9999 138.442 20.5229 137.019 19.5861C135.578 18.6395 134.782 17.2182 134.645 15.3645L134.633 15.2013H138.217L138.232 15.3348C138.353 16.3185 138.788 17.0032 139.559 17.4283C140.34 17.8584 141.212 18.0809 142.15 18.0809C143.088 18.0809 143.836 17.8831 144.491 17.4975C145.128 17.1194 145.436 16.5682 145.436 15.8143C145.436 15.4139 145.34 15.0555 145.153 14.7465C144.966 14.44 144.65 14.1607 144.21 13.921C143.758 13.6714 143.333 13.4786 142.956 13.3377C142.575 13.2017 142.013 13.0188 141.283 12.8038C139.223 12.1686 137.656 11.4493 136.622 10.6608C135.568 9.85258 135.029 8.68841 135.029 7.18809C135.029 5.54936 135.661 4.25913 136.907 3.35449C138.138 2.45726 139.771 2 141.758 2C143.621 2 145.221 2.43996 146.518 3.30753C147.827 4.18745 148.57 5.5543 148.714 7.371L148.727 7.53413H145.213L145.191 7.4056C145.054 6.53062 144.673 5.90281 144.023 5.49003C143.371 5.07479 142.61 4.8647 141.763 4.8647C140.916 4.8647 140.156 5.05254 139.516 5.4233C138.892 5.78169 138.591 6.31558 138.591 7.05215C138.591 7.36358 138.664 7.65277 138.811 7.90241C138.963 8.16688 139.134 8.38439 139.314 8.55247C139.493 8.72054 139.799 8.88862 140.221 9.06164C140.659 9.23713 141.002 9.36813 141.248 9.45216C141.49 9.53373 141.91 9.66226 142.499 9.83775C143.411 10.1269 144.091 10.3519 144.521 10.5051C144.956 10.6608 145.524 10.9055 146.207 11.2392C146.902 11.5778 147.418 11.9239 147.736 12.265C148.055 12.6061 148.348 13.0658 148.603 13.6343C148.863 14.2077 148.995 14.8627 148.995 15.582L149 15.5894Z" fill="white"/>
</svg>
