<svg width="34" height="17" viewBox="0 0 34 17" fill="none" xmlns="http://www.w3.org/2000/svg">
<path d="M4.42434 8.9913C5.17408 9.72092 6.1912 10.1803 7.31491 10.2037C6.89035 10.8198 6.64285 11.5621 6.64285 12.3655C6.64285 12.7619 6.70247 13.1402 6.81448 13.4987C6.51458 13.623 6.18397 13.6933 5.8353 13.6933C4.41711 13.6933 3.2627 12.5421 3.2627 11.1279C3.2627 10.6127 3.41625 10.1371 3.67821 9.73713L3.68183 9.73353C3.9745 9.53536 4.22923 9.28135 4.42795 8.9895L4.42434 8.9913Z" fill="#3F3F46"/>
<path d="M13.6488 12.3672C13.6488 14.1129 12.227 15.5307 10.4764 15.5307C9.2461 15.5307 8.17478 14.8281 7.65268 13.7994C7.60028 13.6985 7.55512 13.5976 7.51718 13.4895C7.47202 13.3814 7.43769 13.2679 7.40879 13.1527C7.34194 12.9022 7.30762 12.6374 7.30762 12.3672C7.30762 11.5079 7.65268 10.7296 8.21092 10.1603L8.24163 10.1297C8.33919 10.1117 8.43674 10.0883 8.5343 10.0631C8.63908 10.0324 8.74387 10 8.84865 9.96217C9.32921 9.79103 9.77182 9.53882 10.1602 9.22175C10.265 9.21094 10.3698 9.20374 10.4782 9.20374C12.2288 9.20374 13.6506 10.6215 13.6506 12.3672H13.6488Z" fill="#3F3F46"/>
<path d="M22.0982 13.5979C21.6212 15.1725 20.1525 16.32 18.4199 16.32C16.3008 16.32 14.5791 14.6032 14.5791 12.49C14.5791 11.2524 15.1681 10.1534 16.0822 9.45265C16.2321 9.47067 16.3857 9.47967 16.5393 9.47967C17.4353 9.47967 18.2646 9.18783 18.9348 8.69421C19.6069 8.78069 20.2284 9.04911 20.7468 9.44184C20.6601 9.76792 20.615 10.112 20.615 10.4633C20.615 11.7244 21.1931 12.8521 22.1 13.5997L22.0982 13.5979Z" fill="#3F3F46"/>
<path d="M28.091 10.5877C28.0242 12.4018 26.5229 13.8592 24.6856 13.8592C24.0099 13.8592 23.3812 13.6647 22.8519 13.3242C22.7471 13.2575 22.6459 13.1891 22.5484 13.108C22.4436 13.0215 22.3424 12.9314 22.2449 12.8342C21.6451 12.2216 21.2783 11.3875 21.2783 10.4634C21.2783 10.2958 21.2892 10.1337 21.3126 9.97335C21.3343 9.83824 21.3614 9.70133 21.3958 9.57342C21.4265 9.45452 21.4662 9.33742 21.5114 9.22573C21.6794 8.79516 21.9323 8.40964 22.2503 8.08177C22.8194 8.33578 23.4499 8.4781 24.1147 8.4781C25.0035 8.4781 25.8328 8.22408 26.5373 7.78632C26.6494 8.92307 27.2311 9.92111 28.0892 10.5877H28.091Z" fill="#3F3F46"/>
<path d="M34.0001 7.38248C34.0001 9.25606 32.4735 10.7819 30.5946 10.7819C29.9171 10.7819 29.283 10.5838 28.7537 10.2397C28.6272 10.1604 28.5098 10.0739 28.3942 9.97666C28.2406 9.84695 28.0979 9.70103 27.9696 9.5479L27.966 9.5443C27.6661 9.184 27.4421 8.76244 27.3138 8.30126L27.3102 8.29765C27.2542 8.10489 27.2199 7.90492 27.1982 7.69955C27.1874 7.59506 27.1855 7.49058 27.1855 7.38248V7.29962C27.1855 7.29962 27.2018 7.2852 27.209 7.278C27.9696 6.58982 28.4917 5.64763 28.6525 4.59194C29.2035 4.20822 29.8756 3.98663 30.5946 3.98663C32.4735 3.98663 34.0001 5.50891 34.0001 7.38248Z" fill="#3F3F46"/>
<path d="M13.8401 3.01583C13.8401 3.18338 13.8184 3.34551 13.7768 3.50224C13.7028 3.8121 13.5546 4.08954 13.3523 4.32193C13.224 4.47506 13.0704 4.60657 12.8988 4.71466C12.7832 4.78852 12.6621 4.84978 12.5285 4.89481C12.3081 4.98129 12.0714 5.02632 11.8203 5.02632C11.7462 5.02632 11.6739 5.02272 11.6035 5.01551C11.4806 5.0011 11.3632 4.97768 11.2476 4.94165C11.1049 4.90022 10.973 4.84437 10.8465 4.77411C10.2774 4.46425 9.87817 3.88777 9.80771 3.2176C9.80049 3.15095 9.79688 3.08249 9.79688 3.01223C9.79688 2.93657 9.80049 2.8591 9.81133 2.78704C9.82578 2.66454 9.84926 2.54744 9.8854 2.43575C10.1329 1.60525 10.9061 0.996338 11.8203 0.996338C12.7344 0.996338 13.542 1.63227 13.7696 2.4988C13.8075 2.63031 13.8292 2.76723 13.8328 2.90955C13.8401 2.94377 13.8401 2.9798 13.8401 3.01403V3.01583Z" fill="#3F3F46"/>
<path d="M28.0381 3.90562C28.0381 4.01731 28.0345 4.1254 28.0254 4.2335C28.011 4.40644 27.9821 4.58119 27.9477 4.74693C27.9477 4.75053 27.9441 4.75053 27.9441 4.75053C27.787 5.47113 27.4292 6.11428 26.9342 6.6223C26.8403 6.71958 26.7409 6.81326 26.638 6.89613C26.6054 6.92315 26.5747 6.94838 26.5404 6.9718C26.4772 7.02404 26.4139 7.07268 26.3435 7.11772C26.2369 7.19518 26.1213 7.26544 26.0056 7.3303C25.4456 7.64016 24.8006 7.8131 24.1159 7.8131C23.6733 7.8131 23.2452 7.74104 22.8477 7.60232C22.723 7.56089 22.6002 7.51225 22.4792 7.4564H22.4755C22.3635 7.40416 22.2551 7.34471 22.1503 7.28166C21.4711 6.88893 20.9201 6.29443 20.5786 5.58283C20.3347 5.0748 20.1992 4.50372 20.1992 3.90562C20.1992 3.85157 20.1992 3.79212 20.1992 3.73628C20.2914 1.66093 22.013 -6.10352e-05 24.1141 -6.10352e-05C26.2152 -6.10352e-05 28.0363 1.75101 28.0363 3.90562H28.0381Z" fill="#3F3F46"/>
<path d="M11.0237 5.57202C11.0345 5.68911 11.0399 5.81162 11.0399 5.93232C11.0399 6.9826 10.5883 7.932 9.86564 8.59315C9.48987 8.94085 9.04003 9.20747 8.5414 9.3678C8.43301 9.40564 8.321 9.43806 8.20718 9.46148C8.11505 9.4831 8.0211 9.49931 7.92716 9.51373C7.89645 9.51733 7.86574 9.52093 7.8296 9.52454C7.69411 9.54075 7.555 9.54796 7.41589 9.54796C6.52343 9.54796 5.70323 9.22188 5.06911 8.68323C4.97156 8.60216 4.88123 8.51569 4.7927 8.42561C4.77283 8.4076 4.75476 8.38778 4.74212 8.36977C4.67889 8.30311 4.61927 8.23465 4.56327 8.16079C4.53978 8.13016 4.51449 8.09954 4.491 8.06711C4.39706 7.9392 4.30853 7.80049 4.23266 7.65817C3.98154 7.20238 3.82436 6.68355 3.79365 6.13409C3.79365 6.06923 3.79004 6.00258 3.79004 5.93232C3.79004 5.83504 3.79365 5.74136 3.80088 5.64768C3.80991 5.51617 3.82798 5.38826 3.85146 5.25855C4.16943 3.58315 5.64723 2.31488 7.41589 2.31488C8.04278 2.31488 8.63173 2.47341 9.14842 2.75625C9.13758 2.84272 9.13397 2.9292 9.13397 3.01567C9.13397 4.21548 9.92888 5.23513 11.0237 5.57202Z" fill="#3F3F46"/>
<path d="M19.5327 3.90578C19.5327 4.54712 19.6646 5.15423 19.9049 5.70729C19.8362 6.62426 19.3936 7.44215 18.727 8.00782C18.5879 8.12672 18.4379 8.23481 18.2808 8.32849H18.2609C18.2609 8.32849 18.2573 8.32849 18.2573 8.3321C17.7478 8.63835 17.1769 8.8149 16.5374 8.8149H16.4579C16.27 8.8113 16.0893 8.79148 15.9105 8.75545C14.346 8.46 13.1572 7.08725 13.1572 5.44607C13.1572 5.40824 13.1572 5.37401 13.1608 5.33618C13.9648 4.87319 14.505 4.00666 14.505 3.01583C14.505 2.93296 14.5031 2.84649 14.4923 2.76362C15.0596 2.33125 15.7714 2.07544 16.5374 2.07544C17.8381 2.07544 18.9673 2.81226 19.5327 3.88956V3.90578Z" fill="#3F3F46"/>
<path d="M3.12362 5.93243C3.12362 6.88543 3.43797 7.76457 3.9673 8.47437C3.96007 8.48878 3.95104 8.50139 3.9402 8.5158C3.76135 8.81846 3.50662 9.06887 3.20853 9.24542C2.89057 9.43998 2.5166 9.54807 2.11915 9.54807C0.952081 9.54807 0 8.60048 0 7.43129C0 6.26211 0.952081 5.31451 2.11915 5.31451C2.4895 5.31451 2.83817 5.40819 3.14168 5.57934C3.12723 5.69644 3.12362 5.81534 3.12362 5.93243Z" fill="#3F3F46"/>
</svg>
