<svg width="24" height="24" viewBox="0 0 24 24" fill="none" xmlns="http://www.w3.org/2000/svg">
<path d="M12 3.5C12.5972 3.5 13.1613 3.70236 13.6162 4.07617L13.8047 4.24707C14.2872 4.72948 14.5516 5.36862 14.5518 6.05078C14.5518 6.6479 14.3487 7.21205 13.9746 7.66699L13.8047 7.85547L12.3926 9.2666L12.0391 9.62012L16.1846 13.7656C16.6555 14.2363 17.2844 14.4961 17.9502 14.4961C18.6158 14.496 19.244 14.2362 19.7148 13.7656C20.6278 12.8528 20.6856 11.4037 19.8867 10.4238L19.7148 10.2344C19.2441 9.76385 18.6158 9.50403 17.9502 9.50391C17.3674 9.50391 16.8131 9.70308 16.3682 10.0684L16.1846 10.2344L15.8711 10.5469L15.833 10.5078L16.1455 10.1963C16.6281 9.71378 17.2676 9.44922 17.9502 9.44922C18.5473 9.44932 19.1115 9.65143 19.5664 10.0254L19.7539 10.1963C20.7484 11.1907 20.7484 12.8093 19.7539 13.8037C19.2714 14.2861 18.6326 14.5507 17.9502 14.5508C17.3531 14.5508 16.7889 14.3484 16.334 13.9746L16.1455 13.8037L14.7334 12.3926L14.3799 12.0391L14.0264 12.3926L10.2344 16.1836C9.76351 16.6545 9.50293 17.2834 9.50293 17.9492C9.50303 18.5318 9.70301 19.0855 10.0684 19.5303L10.2344 19.7139C10.7053 20.1848 11.334 20.4453 12 20.4453C12.5827 20.4453 13.1371 20.2462 13.582 19.8809L13.7656 19.7139C14.2364 19.2431 14.497 18.6149 14.4971 17.9492C14.4971 17.3664 14.2971 16.8121 13.9316 16.3672L13.7656 16.1836L13.4531 15.8711L13.4922 15.832L13.8047 16.1445C14.2873 16.627 14.5518 17.2668 14.5518 17.9492C14.5517 18.5461 14.3486 19.1096 13.9746 19.5645L13.8047 19.7529C13.3221 20.2354 12.6826 20.5 12 20.5C11.4028 20.5 10.8387 20.2976 10.3838 19.9238L10.1953 19.7529C9.71283 19.2705 9.44834 18.6314 9.44824 17.9492C9.44824 17.2669 9.71269 16.6271 10.1953 16.1445L11.6074 14.7334L11.9609 14.3799L7.81543 10.2344C7.34454 9.76373 6.71561 9.50391 6.0498 9.50391C5.46727 9.50401 4.91356 9.70319 4.46875 10.0684L4.28516 10.2344C3.37217 11.1472 3.31443 12.5963 4.11328 13.5762L4.28516 13.7656C4.75594 14.2362 5.38419 14.496 6.0498 14.4961C6.63256 14.4961 7.18691 14.2969 7.63184 13.9316L7.81543 13.7656L8.12793 13.4521L8.16602 13.4912L7.85449 13.8037C7.37194 14.2862 6.73235 14.5508 6.0498 14.5508C5.45265 14.5507 4.88853 14.3486 4.43359 13.9746L4.24609 13.8037C3.2516 12.8093 3.25158 11.1907 4.24609 10.1963C4.72858 9.71388 5.36743 9.44934 6.0498 9.44922C6.64691 9.44922 7.2111 9.65162 7.66602 10.0254L7.85449 10.1963L9.2666 11.6074L9.62012 11.9609L9.97363 11.6074L13.7656 7.81641C14.2365 7.34554 14.4971 6.71663 14.4971 6.05078C14.497 5.46819 14.297 4.9145 13.9316 4.46973L13.7656 4.28613C13.2947 3.81524 12.666 3.55469 12 3.55469C11.4173 3.55469 10.8629 3.7538 10.418 4.11914L10.2344 4.28613C9.76363 4.75686 9.50304 5.38512 9.50293 6.05078C9.50293 6.63356 9.70288 7.18792 10.0684 7.63281L10.2344 7.81641L10.5469 8.12891L10.5078 8.16797L10.1953 7.85547C9.7127 7.37296 9.44824 6.73316 9.44824 6.05078C9.44834 5.45386 9.65145 4.89037 10.0254 4.43555L10.1953 4.24707C10.6779 3.76456 11.3174 3.5 12 3.5ZM9.65918 12L12 14.3408L14.3408 12L12 9.65918L9.65918 12Z" stroke="#211F26"/>
</svg>
