<svg width="24" height="24" viewBox="0 0 24 24" fill="none" xmlns="http://www.w3.org/2000/svg">
<path d="M2 11.5C8.98283 13.0558 9.5 20 9.5 20C9.5 20 10.0172 13.0558 17 11.5C10.0172 9.94417 9.5 3 9.5 3C9.5 3 8.98283 9.94417 2 11.5Z" fill="#18181B"/>
<path d="M13 17.5C14.0378 17.709 14.985 18.2578 15.7042 19.0669C16.4234 19.876 16.8773 20.9033 17 22C17.1227 20.9033 17.5766 19.876 18.2958 19.0669C19.015 18.2578 19.9622 17.709 21 17.5C19.9622 17.291 19.015 16.7422 18.2958 15.9331C17.5766 15.124 17.1227 14.0967 17 13C16.8773 14.0967 16.4234 15.124 15.7042 15.9331C14.985 16.7422 14.0378 17.291 13 17.5Z" fill="#18181B"/>
</svg>
