<svg width="24" height="24" viewBox="0 0 24 24" fill="none" xmlns="http://www.w3.org/2000/svg">
<path d="M9.5 5.26562C9.66794 5.76794 9.89032 6.32393 10.1875 6.89648C11.0749 8.60603 12.6208 10.4669 15.2754 11.5C12.6208 12.5331 11.0749 14.394 10.1875 16.1035C9.89049 16.6757 9.66791 17.2313 9.5 17.7334C9.33209 17.2313 9.10951 16.6757 8.8125 16.1035C7.92497 14.3938 6.37875 12.533 3.72363 11.5C6.37875 10.467 7.92497 8.60622 8.8125 6.89648C9.10968 6.32393 9.33206 5.76794 9.5 5.26562Z" stroke="#18181B"/>
<path d="M17 14.8467C17.2048 15.2941 17.4648 15.7147 17.7773 16.0957L17.9219 16.2656C18.3763 16.7768 18.9151 17.1936 19.5088 17.5C18.9796 17.7731 18.4942 18.134 18.0732 18.5713L17.9219 18.7344C17.5447 19.1587 17.2357 19.6378 17 20.1523C16.7952 19.7052 16.535 19.2851 16.2227 18.9043L16.0781 18.7344C15.6236 18.223 15.0842 17.8065 14.4902 17.5C15.0197 17.2268 15.5056 16.8662 15.9268 16.4287L16.0781 16.2656C16.4555 15.8411 16.7643 15.3615 17 14.8467Z" stroke="#18181B"/>
</svg>
